<?xml version="1.0" encoding="UTF-8"?><svg id="a" xmlns="http://www.w3.org/2000/svg" width="2.5in" height="3in" viewBox="0 0 180 216"><defs><style>.b{fill:#748851;}.b,.c,.d,.e{stroke-width:0px;}.c{fill:#2b582c;}.d{fill:#adb46d;}.e{fill:#fff;}</style></defs><path class="b" d="m174,29.57c-4.33,32.9-14.4,106.83-19.26,142.23H25.25C20.4,136.46,10.35,62.63,6,29.57c-1.15-8.73-.05-15.11,3.27-18.96,2.88-3.35,7.74-5.05,14.45-5.05h132.57c6.71,0,11.57,1.7,14.45,5.05,3.32,3.85,4.42,10.23,3.27,18.96Z"/><path class="c" d="m174.95,6.98C170.97,2.35,164.69,0,156.29,0H23.71C15.31,0,9.03,2.35,5.05,6.98.65,12.08-.88,19.93.48,30.3c4.32,32.84,14.26,105.86,19.16,141.5h0c.26,1.91.51,3.71.74,5.39,0,.01,0,.02,0,.03.06.43.12.86.18,1.28.03.22.06.44.09.66.23,1.67.44,3.2.63,4.58,0,0,0,.01,0,.02.13.93.25,1.79.36,2.57,0,.03,0,.05.01.08.1.75.2,1.43.28,2.04.01.09.03.18.04.27.03.23.06.44.09.65,0,.05.01.09.02.14.03.24.06.46.09.67,0,.02,0,.06.01.08,1.22,8.69,3.42,15.74,8.45,20.25.56.5,1.15.97,1.78,1.41,3.78,2.62,8.91,4.07,15.92,4.07h83.33c8.74,0,14.55-2.25,18.48-6.22.01-.01.02-.02.04-.03.26-.27.52-.54.76-.82,3.93-4.5,5.79-10.94,6.87-18.66,2.16-15.39,16.34-119.19,21.7-159.97,1.36-10.37-.17-18.21-4.57-23.32Zm-.95,22.59c-4.33,32.9-14.4,106.83-19.26,142.23H25.25C20.4,136.46,10.35,62.63,6,29.57c-1.15-8.73-.05-15.11,3.27-18.96,2.88-3.35,7.74-5.05,14.45-5.05h132.57c6.71,0,11.57,1.7,14.45,5.05,3.32,3.85,4.42,10.23,3.27,18.96Z"/><path class="d" d="m168.18,12.81c-2.21-2.57-6.21-3.87-11.89-3.87H23.71c-5.68,0-9.68,1.3-11.89,3.87-2.63,3.05-3.48,8.69-2.48,16.32,4.07,30.96,13.4,99.52,18.72,138.32.08.56.55.97,1.11.97h121.65c.56,0,1.04-.42,1.11-.97,4.98-36.29,14.46-105.94,18.72-138.32,1-7.63.15-13.27-2.48-16.32Zm.25,16.03c-4.22,32.09-13.58,100.79-18.58,137.34h-52.39l.11-7.29c4.09-3.31,8.19-6.66,12.27-10.03h1.07c4.08,3.65,6.28,5.6,10.33,9.12.09.08.21.12.33.12h4.95c.31,1.02,1.25,1.78,2.38,1.78,1.37,0,2.49-1.12,2.49-2.49s-1.12-2.49-2.49-2.49c-1.07,0-1.98.68-2.33,1.63h-4.48c-.27-.23-.5-.44-.75-.66.52-.41.98-.77,1.48-1.16.32.15.67.23,1.04.23,1.37,0,2.49-1.12,2.49-2.49s-1.12-2.49-2.49-2.49-2.49,1.12-2.49,2.49c0,.41.11.78.28,1.12-.51.4-.99.78-1.55,1.22-2.34-2.06-4.18-3.69-6.67-5.92h25.11c.11,0,.22-.04.31-.11,2.71-2.13,4.26-3.36,6.71-5.3.41.31.92.49,1.48.49,1.37,0,2.49-1.12,2.49-2.49s-1.12-2.49-2.49-2.49-2.49,1.12-2.49,2.49c0,.22.04.44.1.64-2.36,1.87-3.91,3.1-6.51,5.15h-1.49c.08-.34.14-.98.26-2.35.07-.71.13-1.42.17-1.92l3.06-2.46c.39.25.85.41,1.35.41,1.37,0,2.49-1.12,2.49-2.49s-1.12-2.49-2.49-2.49-2.49,1.12-2.49,2.49c0,.27.06.53.14.78l-3.55,2.86c-.11.09-.18.34-.2.48-.17,1.94-.37,4.17-.42,4.4,0,0,0,0,0,0-.02.1,0,.2.03.29h-5.9s.2-2.39.2-2.39c1.04-.3,1.81-1.25,1.81-2.38,0-1.37-1.12-2.49-2.49-2.49s-2.49,1.12-2.49,2.49c0,1.01.6,1.87,1.46,2.26l-.2,2.51h-15.57c4.56-3.77,9.09-7.54,13.55-11.26,3.33-2.77,6.66-5.55,10-8.31h12.84c.36.93,1.26,1.6,2.32,1.6,1.37,0,2.49-1.12,2.49-2.49s-1.12-2.49-2.49-2.49c-1.1,0-2.03.72-2.36,1.71h-6.25c1.29-1.06,2.35-1.92,3.76-3.07.39.26.86.41,1.36.41,1.37,0,2.49-1.12,2.49-2.49s-1.12-2.49-2.49-2.49-2.49,1.12-2.49,2.49c0,.26.05.51.13.75-1.98,1.61-3.24,2.64-5.39,4.41h-4.35c-.12,0-.23.04-.32.12l-.12.1c-1.01.84-2.02,1.69-3.04,2.53.01-.22.02-.44.03-.67.04-.86.09-1.72.14-2.43,5.2-4.33,7.86-6.52,13.08-10.77.1-.08.17-.27.19-.4l.54-5c1-.33,1.72-1.25,1.72-2.36,0-1.37-1.12-2.49-2.49-2.49s-2.49,1.12-2.49,2.49c0,1.02.61,1.89,1.49,2.28l-.49,4.55c-5.17,4.21-7.83,6.41-13.08,10.78-.1.09-.17.21-.18.34-.07.82-.12,1.82-.17,2.81-.04.84-.09,1.66-.14,2.39-1.94,1.61-3.88,3.23-5.81,4.84-9.05,7.55-18.41,15.36-27.73,22.9-.12.09-.18.23-.19.38l-.11,7.77h-1.69l.09-10.8c7.21-5.96,14.47-12.1,21.49-18.03,2.85-2.4,5.69-4.81,8.54-7.21.1-.09.17-.21.18-.35l.34-4.82c.91-.77,1.87-1.62,2.84-2.48,1.14-1.01,2.31-2.05,3.39-2.95.1-.09.17-.21.18-.34l.69-8.43c1.03-.31,1.79-1.25,1.79-2.38,0-1.37-1.12-2.49-2.49-2.49s-2.49,1.12-2.49,2.49c0,.99.59,1.85,1.43,2.25l-.64,7.99c-1,.84-2.08,1.8-3.14,2.74-.47.41-.93.82-1.38,1.22l1.11-15.84c2.44-2.02,3.91-3.24,6.11-5.02.37.21.78.34,1.23.34,1.37,0,2.49-1.12,2.49-2.49s-1.12-2.49-2.49-2.49-2.49,1.12-2.49,2.49c0,.3.06.58.16.85-2.13,1.73-3.61,2.95-5.82,4.78-3.59-3.36-5.55-5.16-9.16-8.43l.23-4.65c1.03-.3,1.79-1.25,1.79-2.38,0-1.37-1.12-2.49-2.49-2.49s-2.49,1.12-2.49,2.49c0,.98.57,1.82,1.4,2.23l-.25,5.28c0,.15.05.29.16.4,4.13,3.72,6.16,5.59,9.85,9.06l-1.51,22.08s-.05-.09-.09-.13c-2.25-2.13-3.41-3.23-5.65-5.34l.29-5.34c.97-.34,1.68-1.26,1.68-2.34,0-1.37-1.12-2.49-2.49-2.49s-2.49,1.12-2.49,2.49c0,1.04.64,1.93,1.54,2.3l-.31,5.84c0,.15.05.29.16.39,2.44,2.29,3.64,3.43,6.03,5.69.1.09.22.14.34.14.03,0,.06-.01.09-.02-2.62,2.21-5.23,4.42-7.85,6.63-.09.07-.18.15-.26.22l-2.29-2.12,1.24-28.41c.94-.36,1.62-1.26,1.62-2.32,0-1.37-1.12-2.49-2.49-2.49s-2.49,1.12-2.49,2.49c0,1.05.66,1.95,1.59,2.32l-1.21,28.88c0,.15.05.29.16.39l2.58,2.38c-6.48,5.48-13.13,11.1-19.74,16.59-.11.09-.18.23-.18.38l-.07,11.28h-1.69v-13.15c5.13-4.3,8.3-7.01,13.36-11.35l2.3-1.97c.11-.09.17-.22.17-.36l.7-20.75c0-.15-.05-.29-.16-.38-1.02-.94-1.9-1.75-2.72-2.5.58-.5,1.04-.9,1.77-1.53.11-.09.17-.22.17-.36l.11-3.36c.97-.34,1.68-1.26,1.68-2.34,0-1.37-1.12-2.49-2.49-2.49s-2.49,1.12-2.49,2.49c0,1.03.63,1.92,1.53,2.3l-.09,2.87-1.46,1.27c-1.71-1.56-3.33-3.03-5.65-5.11l.04-2.82c2.2-1.92,3.46-3,5.83-5.03.11-.09.17-.23.18-.37l.28-10.91c.94-.36,1.61-1.26,1.61-2.32,0-1.37-1.12-2.49-2.49-2.49s-2.49,1.12-2.49,2.49c0,1.05.65,1.94,1.57,2.31l-.25,10.39c-2.31,1.98-3.51,3.01-5.83,5.04,0,0,0,0,0,.01-.04.04-.07.08-.09.13,0,.01-.02.02-.02.04-.03.06-.04.13-.04.2l-.05,3.83c0,.14.06.28.17.38,3.95,3.54,5.91,5.32,9.64,8.76l-.47,14.59c-1.72-1.57-2.98-2.72-5.02-4.57l.09-4.35c.96-.35,1.65-1.26,1.65-2.33,0-1.37-1.12-2.49-2.49-2.49s-2.49,1.12-2.49,2.49c0,1.05.66,1.95,1.59,2.32l-.09,4.85c0,.14.06.28.16.38,2.66,2.42,4.02,3.66,6.54,5.95l-.09,2.91-1.22,1.05-2.18-1.96c-2.31-2.08-4.16-3.75-7.07-6.35l.09-11.87c.95-.35,1.63-1.26,1.63-2.33,0-1.37-1.12-2.49-2.49-2.49s-2.49,1.12-2.49,2.49c0,1.06.67,1.96,1.6,2.32l-.08,12.37c0,.14.06.28.17.38,2.96,2.66,4.85,4.35,7.14,6.41l2.39,2.15c-4.27,3.66-7.13,6.11-11.6,9.88v-13.01s0,0,0,0h0s0,0,0-.01c0-.06-.01-.13-.04-.19,0-.02-.03-.04-.04-.06-.02-.03-.04-.07-.06-.1,0,0,0,0-.01,0,0,0,0,0,0-.01l-2.4-2.12-.02-4.05c.98-.34,1.69-1.26,1.69-2.35,0-1.38-1.12-2.49-2.49-2.49s-2.49,1.12-2.49,2.49c0,1.04.64,1.93,1.55,2.3l.03,4.59c0,.14.06.28.17.37l2.4,2.12v12.51c-3.21-2.72-5.3-4.5-8.99-7.66l-.43-19.04c4.03-3.68,6.11-5.56,10.25-9.26.11-.09.17-.23.17-.37l-.02-15.34c2.09-1.82,3.26-2.82,5.48-4.71.11-.09.18-.23.18-.38l.06-5.97c.93-.36,1.59-1.26,1.59-2.32,0-1.37-1.12-2.49-2.49-2.49s-2.49,1.12-2.49,2.49c0,1.05.66,1.95,1.59,2.32l-.04,5.45c-1.91,1.62-3,2.56-4.76,4.09-2.13-1.85-3.46-2.98-5.79-4.95l-.06-4.58c.95-.35,1.63-1.26,1.63-2.33,0-1.37-1.12-2.49-2.49-2.49s-2.49,1.12-2.49,2.49c0,1.04.64,1.93,1.54,2.3l.08,5.13c0,.14.07.28.18.37,2.64,2.23,3.98,3.37,6.52,5.56l.04,14.83c-.47.42-.9.81-1.33,1.19-1.57-1.39-2.52-2.24-4.2-3.71l-.12-7.58c.85-.4,1.45-1.25,1.45-2.25,0-1.37-1.12-2.49-2.49-2.49s-2.49,1.12-2.49,2.49c0,1.12.74,2.05,1.76,2.37l.14,7.99c0,.14.06.27.17.37,1.84,1.61,2.85,2.5,4.51,3.97-1.85,1.66-3.39,3.06-5.27,4.77-1.67-1.46-2.71-2.38-4.53-3.96l-.14-4.8c.92-.37,1.57-1.26,1.57-2.31,0-1.37-1.12-2.49-2.49-2.49s-2.49,1.12-2.49,2.49c0,1.08.69,1.99,1.65,2.33l.17,5.3c0,.14.07.27.17.36,1.98,1.72,3.08,2.68,4.83,4.22-.35.32-.71.65-1.09,1-.11.1-.17.24-.16.38l.48,20.03c0,.14.07.28.18.37,4.31,3.68,6.46,5.5,10.54,8.94v13.15s-1.55,0-1.55,0l-.07-10.97c0-.15-.17-.37-.29-.47-4.69-3.88-9.39-7.83-14.04-11.75l-.53-14.4c.91-.37,1.56-1.26,1.56-2.31,0-1.37-1.12-2.49-2.49-2.49s-2.49,1.12-2.49,2.49c0,1.09.7,2,1.68,2.34l.5,12.86c-1.95-1.65-3.89-3.29-5.82-4.91-1.76-1.49-3.53-2.98-5.29-4.47,2.46-2.32,3.93-3.71,6.66-6.26.11-.1.17-.24.16-.39l-.5-10.39c.88-.39,1.5-1.26,1.5-2.28,0-1.37-1.12-2.49-2.49-2.49s-2.49,1.12-2.49,2.49c0,1.11.73,2.03,1.73,2.36l.49,9.85c-2.57,2.41-3.99,3.75-6.37,6-.27-.23-.54-.46-.82-.69l-1.14-16.97c6.23-5.9,9.52-8.94,16.16-14.87.11-.1.17-.24.17-.39l-.19-5.74c.82-.41,1.38-1.25,1.38-2.22,0-1.37-1.12-2.49-2.49-2.49s-2.49,1.12-2.49,2.49c0,1.13.77,2.08,1.8,2.38l.18,5.1c-4.62,4.12-7.59,6.83-11.14,10.16l-.26-4.37c.75-.69,1.18-1.09,1.99-1.83.11-.1.17-.24.16-.38,0-.05-.02-.1-.04-.15.13,0,.26-.06.35-.15.09-.1.14-.23.14-.37l-.2-3.62c.96-.35,1.64-1.26,1.64-2.33,0-1.37-1.12-2.49-2.49-2.49s-2.49,1.12-2.49,2.49c0,1.04.64,1.93,1.54,2.3l.19,3.44s-.05.03-.07.05c-.96.88-1.43,1.32-2.38,2.2-.11.1-.17.25-.16.4l.39,6.41c-.59.55-1.2,1.13-1.84,1.74l-.28-4.13c0-.14-.07-.26-.17-.34.01-.04.02-.08.02-.13,0-.14-.07-.28-.18-.37-2.86-2.38-4.5-3.74-6.88-5.67.06-.21.1-.43.1-.67,0-1.37-1.12-2.49-2.49-2.49s-2.49,1.12-2.49,2.49,1.12,2.49,2.49,2.49c.52,0,1-.16,1.4-.43,2.21,1.8,3.82,3.12,6.43,5.29l1.63,23.74c0,.14.07.26.18.35,2.43,2.04,4.86,4.09,7.29,6.14,7.16,6.04,14.56,12.29,21.91,18.35l.09,10.49h-1.5l-.11-7.81c0-.15-.07-.29-.19-.38l-.1-.08c-8.7-7.01-17.42-14.29-25.85-21.34-2.57-2.14-5.13-4.28-7.7-6.42l2.48-2.39c.11-.1.16-.25.15-.4l-.87-11.29h0s0,0,0,0v-.02c0-.05-.02-.1-.04-.15,0-.01-.01-.03-.02-.04-.03-.05-.07-.1-.11-.14,0,0,0,0,0,0-1.96-1.63-2.97-2.47-4.91-4.07l-.24-2.71c.92-.37,1.58-1.26,1.58-2.31,0-1.37-1.12-2.49-2.49-2.49s-2.49,1.12-2.49,2.49c0,1.07.68,1.98,1.63,2.33l.29,3.28c.01.13.08.26.18.34.27.22.52.43.76.62h-9.09c-.23-1.13-1.24-1.99-2.44-1.99-1.37,0-2.49,1.12-2.49,2.49s1.12,2.49,2.49,2.49c.94,0,1.75-.53,2.18-1.31h11.38s0,0,0,0c.65.54,1.31,1.09,2.12,1.76l.25,3.13c-1.1,1.06-1.69,1.63-2.75,2.66h-15.13c-.34-.96-1.26-1.66-2.34-1.66-1.37,0-2.49,1.12-2.49,2.49s1.12,2.49,2.49,2.49c1.08,0,1.99-.69,2.33-1.65h15.71c.13,0,.25-.05.35-.14.82-.79,1.37-1.33,2.01-1.94l.39,4.92-2.19,2.11c-.6-.5-1.2-1-1.8-1.5-.09-.07-.2-.12-.32-.12h-8.8c-.38-.9-1.26-1.54-2.3-1.54-1.37,0-2.49,1.12-2.49,2.49s1.12,2.49,2.49,2.49c1.12,0,2.07-.75,2.38-1.78h8.3c3.34,2.77,6.67,5.55,10.01,8.33,5.18,4.32,10.48,8.73,15.81,13.12h-2.71c-5.26-4.29-8.67-7.11-13.23-10.89l-5.06-4.18c-.09-.07-.2-.11-.32-.11h-12.85c-.37-.92-1.26-1.58-2.31-1.58-1.37,0-2.49,1.12-2.49,2.49s1.12,2.49,2.49,2.49c1.12,0,2.05-.74,2.37-1.75h12.37s4.38,3.61,4.38,3.61c4.3,3.55,7.51,6.2,12.07,9.92h-17.8c-2.46-1.93-3.75-2.96-6.3-4.99-.09-.07-.2-.11-.31-.11h-8.19c-.34-.98-1.26-1.68-2.35-1.68-1.37,0-2.49,1.12-2.49,2.49s1.12,2.49,2.49,2.49c1.09,0,2.01-.71,2.34-1.68h7.78c2.51,1.99,3.8,3.01,6.3,4.97.09.07.2.11.31.11h14.97c-1.15,1.02-2.07,1.83-3.45,3.04h-10.08c-.32-1-1.25-1.73-2.36-1.73-1.38,0-2.49,1.12-2.49,2.49s1.12,2.49,2.49,2.49c1.08,0,2-.7,2.34-1.67h10.61c.12,0,.24-.04.33-.12.5-.44.95-.82,1.36-1.19.65.51,1.16.92,1.71,1.35-.1.28-.17.57-.17.88,0,1.37,1.12,2.49,2.49,2.49s2.49-1.12,2.49-2.49-1.12-2.49-2.49-2.49c-.47,0-.91.14-1.29.37-.48-.38-.95-.75-1.51-1.19.76-.67,1.53-1.34,2.53-2.23h7.98c2.75,2.26,5.51,4.51,8.27,6.72l.11,7.33H30.16C24.82,127.21,15.61,59.53,11.57,28.84c-.91-6.87-.21-12.04,1.95-14.56,1.77-2.05,5.19-3.09,10.19-3.09h132.57c4.99,0,8.42,1.04,10.19,3.09,2.16,2.51,2.86,7.69,1.95,14.56Z"/><path class="e" d="m69.47,46.62c.92.43,1.9.64,2.92.64h3.42c-1.39-2.72-2.1-4.08-3.53-6.8h-8.15c.49.96.73,1.44,1.21,2.4.41.81.96,1.53,1.68,2.16.71.63,1.53,1.16,2.45,1.59Zm-12.78.64c1.26-3.5,1.91-5.26,3.23-8.76h11.33c-3.45-6.51-5.22-9.76-8.87-16.27h-3.9c-4.26,10.01-6.27,15.02-10.04,25.03h8.26Zm73.39-5.94c-.14,2.03-.22,3.05-.36,5.08.28.34.42.52.69.86h16.77c1.02,0,2.01-.21,2.96-.64.95-.43,1.8-.96,2.55-1.59.75-.63,1.35-1.35,1.8-2.16.45-.81.7-1.49.79-2.4h-24.38c-.33.34-.49.51-.82.86Zm-97.25,5.08c-.73-5.75-1.1-8.63-1.83-14.38-.35-.34-.53-.51-.89-.86h-5.57c-.26.34-.39.51-.65.86.81,5.75,1.22,8.63,2.04,14.38.35.34.52.52.87.86h5.4c.26-.34.38-.52.64-.86Zm43.88-17.2h26.81c.04-.91-.12-1.76-.47-2.57-.36-.81-.88-1.53-1.58-2.16-.7-.63-1.51-1.16-2.45-1.59-.94-.43-1.95-.64-3.03-.64h-19.53c.08,2.29.12,3.43.21,5.72.02.5.03.75.05,1.25Zm1.2,2.07c-.3.34-.45.51-.75.86.2,5.71.31,8.56.51,14.27.31.34.47.52.78.86h5.4c.29-.34.44-.52.73-.86-.12-5.71-.18-8.56-.31-14.27-.32-.34-.48-.51-.79-.86h-5.57Zm23.08,4.95c.56-.51,1.01-1.06,1.35-1.65.33-.58.59-1.12.76-1.61.17-.49.3-1.05.38-1.7h-17.18c-.3.34-.46.51-.76.86.04,1.87.05,2.81.09,4.68,4.04,4.18,6.02,6.27,9.9,10.44h7.68c0-.56.01-.84.02-1.39-2.92-2.95-4.41-4.42-7.42-7.37,1.16-.12,2.17-.55,3.03-.93.86-.38,1.58-.83,2.14-1.34Zm12.94-13.28c-.28-.29-.42-.43-.69-.72h-5.85c-.29.29-.44.43-.73.72-.06,2.5-.08,3.75-.14,6.26h7.19c.09-2.5.14-3.75.23-6.26Zm-1.58,24.32c.28-.21.42-.32.7-.54.12-3.29.18-4.94.3-8.23h2.19c1.45,3.5,2.17,5.26,3.57,8.76h8.26c-2.04-5.01-3.08-7.51-5.24-12.52,2.7-5.01,4.08-7.51,6.9-12.52h-8.69c-1.83,3.58-2.73,5.36-4.5,8.94h-9.38c-.14,6.22-.21,9.33-.35,15.56.27.21.4.32.67.54h5.57Zm44.35-25.03h-17.63c-1.08,0-2.11.21-3.08.64-.98.43-1.84.96-2.59,1.59-.75.63-1.34,1.35-1.76,2.16-.43.81-.66,1.67-.7,2.57h24.93c.35-.34.53-.51.88-.86.26-2.1.38-3.15.64-5.26-.27-.34-.41-.51-.69-.86Zm-107.16,4.4c-.44-.81-1.04-1.53-1.8-2.16-.76-.63-1.64-1.16-2.62-1.59-.99-.43-2.02-.64-3.1-.64h-19.53c.4,2.79.59,4.18.99,6.97h26.81c-.06-.91-.3-1.76-.74-2.57Zm104.5,6.78c-.62-.63-1.36-1.16-2.24-1.59-.88-.43-1.85-.64-2.91-.64h-18.1c-.02.34-.03.5-.04.84-.01.73.1,1.43.35,2.09.3.81.78,1.53,1.42,2.16.64.63,1.4,1.16,2.28,1.59.88.43,1.84.64,2.89.64h17.82c.04-.34.06-.5.1-.84.05-.73-.02-1.43-.24-2.09-.26-.81-.7-1.53-1.32-2.16Zm-121.78-1.38c.28,2.25.42,3.37.7,5.61.35.34.52.52.87.86h9.89c1.04,0,2-.21,2.87-.64.88-.43,1.63-.96,2.25-1.59.63-.63,1.09-1.35,1.38-2.16.24-.66.34-1.36.31-2.09-.03-.34-.04-.5-.07-.84h-17.53c-.27.34-.4.51-.67.86Zm32.96,25.28c-.13-2.1-.2-3.15-.33-5.26-.32-.34-.48-.52-.8-.86h-7.83c-.27.34-.41.52-.67.86.17,2.1.26,3.15.43,5.26.32.34.48.51.8.86h7.71c.27-.34.41-.51.68-.86Zm3.24,18.92h5.04c.28-.34.42-.52.7-.86-.3-6.65-.45-9.98-.76-16.63-.02-.38.16-.57.54-.57h7.48c-.08-2.79-.12-4.18-.2-6.97h-8.98c-.59,0-1.21.18-1.85.55-.65.37-1.26.86-1.85,1.47-.58.61-1.07,1.31-1.45,2.11-.38.8-.54,1.63-.49,2.49.42,7.02.63,10.54,1.05,17.56.3.34.46.52.76.86Zm38.34-24.5c-.27-.21-.4-.32-.66-.54h-20.77c-.27.21-.4.32-.67.54.05,2.36.08,3.54.13,5.9.27.21.41.32.68.54h20.47c.27-.21.41-.32.68-.54.06-2.36.09-3.54.14-5.9Zm-.58,23.96c.05-2.16.08-3.24.13-5.4-.25-.34-.38-.51-.63-.86h-14.02c0-.79,0-1.18-.01-1.97h5.63c1.09-.07,2.04-.3,2.84-.7.8-.39,1.46-.85,1.99-1.36.52-.51,1.02-1.27,1.5-2.27.48-1,.73-2.12.75-3-7.54,0-11.31,0-18.85,0-.26.29-.39.43-.65.72.13,5.94.19,8.9.32,14.84.26.21.39.32.65.54h19.66c.27-.21.41-.32.69-.54Zm8.93-14.2c.27-.67.66-1.27,1.16-1.81.5-.54,1.01-.93,1.52-1.18.51-.25,1.11-.38,1.8-.38h9.25c.18-2.56.27-3.84.45-6.4-.27-.21-.4-.32-.67-.54h-8.98c-1.11,0-2.43.31-3.97.93-1.54.62-2.86,1.5-3.96,2.63-1.1,1.13-1.99,2.46-2.66,3.99-.67,1.53-1.02,3.22-1.07,5.08-.05,1.72.22,3.34.78,4.86.56,1.53,1.34,2.86,2.33,3.99.99,1.13,2.18,2.01,3.59,2.63,1.41.62,2.64.93,3.69.93h8.51c.28-.21.43-.32.71-.54.18-2.5.27-3.75.44-6.26h-9.03c-.67,0-1.25-.13-1.73-.38s-.94-.64-1.38-1.18c-.45-.54-.77-1.14-.99-1.81-.21-.67-.3-1.51-.27-2.25.04-.88.19-1.66.46-2.32Zm25.03-10.3h-2.27c-.86.02-1.59.2-2.18.54-.59.33-1.08.76-1.46,1.27-.38.51-.67,1.07-.86,1.66-.19.6-.34,1.16-.44,1.68-.1.52-.17,1.13-.23,1.82h6.11l.72-.54c.24-2.57.36-3.86.6-6.44Zm7.59,0c-.29.21-.44.32-.73.54-.36,3.36-.54,5.04-.9,8.4h-13.53c-.49,6.22-.74,9.33-1.23,15.56.24.21.36.32.6.54h5.24c.28-.21.42-.32.69-.54.31-3.29.46-4.93.77-8.22h6.68c-.35,3.29-.53,4.93-.88,8.22.23.21.35.32.58.54h5.24c.28-.21.42-.32.71-.54,1.17-9.58,1.75-14.38,2.92-23.96-.24-.21-.37-.32-.61-.54h-5.52Zm-109.82,25.03h7.23c2.08-2.72,3.14-4.08,5.29-6.79,1.21-1.53,1.82-2.29,3.05-3.82-.19-2.19-.29-3.29-.48-5.48-1.5,0-2.25,0-3.75,0-3.02,3.72-4.49,5.58-7.38,9.3h-12.72c.11.91.36,1.59.81,2.4.45.81,1.04,1.53,1.76,2.16.72.63,1.53,1.16,2.44,1.59.9.43,1.84.64,2.8.64h.96Zm11.26-3.13c-.9,1.15-1.34,1.72-2.23,2.87.1.1.15.15.25.25h7.23c-.05-.56-.07-.84-.12-1.39-1.43-1.47-2.14-2.21-3.59-3.68-.62.78-.92,1.17-1.53,1.95Zm-.92-17.51c-.43-.81-1-1.53-1.73-2.16-.73-.63-1.56-1.16-2.49-1.59-.94-.43-1.91-.64-2.93-.64h-4.13c-1.02,0-1.94.21-2.78.64-.84.43-1.54.96-2.12,1.59-.58.63-.99,1.35-1.23,2.16-.24.81-.28,1.67-.14,2.57.11.79.16,1.18.27,1.97,3.05,2.93,4.55,4.4,7.52,7.33h3.17s0,.06.01.11c.95-1.22,1.43-1.84,2.39-3.06,0-.01.01-.02.02-.03-2.54-2.53-3.83-3.79-6.44-6.32h11.35c-.07-.91-.31-1.76-.74-2.57Zm-13.88,9.46c-1.26-1.23-1.89-1.85-3.17-3.08-.37.28-.72.59-1.02.93-.56.63-.96,1.35-1.18,2.16-.23.81-.29,1.49-.14,2.4h7.96c-.98-.96-1.47-1.45-2.46-2.41Zm20.45,119.86c-.09-.44-.33-.73-.76-.9-2.55-1-5.04-1.51-7.62-1.56-.22,0-.45,0-.65,0-.21,0-.44,0-.66,0h-.24s0,.02,0,.02c-2.16.09-4.08.49-6.35,1.3-.11.04-.37.14-.64.24-.23.09-.48.18-.57.22-.29.11-.48.33-.54.66-.26,1.31-.49,2.6-.42,4.06-.06,1.86.39,3.9,1.39,6.21.84,1.94,2.2,3.65,4.18,5.23.98.82,2.06,1.54,3.2,2.14.23.12.44.18.65.18h.03c.21,0,.43-.06.65-.18,1.14-.6,2.22-1.32,3.2-2.14,1.98-1.58,3.35-3.29,4.18-5.23.97-2.26,1.43-4.24,1.39-6.07,0-.19,0-.39,0-.58,0-.67-.05-1.34-.16-2.11-.06-.48-.15-.98-.25-1.48Zm-1.3,3.92c0,.17,0,.34,0,.51h0s0,.03,0,.03c.03,1.54-.36,3.24-1.2,5.19-.71,1.64-1.87,3.09-3.57,4.45h0c-.85.72-1.79,1.34-2.78,1.86-.07.04-.13.05-.16.05h-.01s-.01,0-.01,0c-.04,0-.1-.02-.17-.05-.99-.52-1.93-1.14-2.78-1.86h0c-1.7-1.36-2.87-2.82-3.57-4.46-.86-2-1.26-3.74-1.2-5.32v-.02s0-.02,0-.02c-.06-1.22.13-2.33.36-3.45.11-.04.27-.1.44-.17.24-.09.48-.18.58-.22,2.1-.75,3.77-1.09,5.77-1.15h.24s0-.01,0-.01c.12,0,.23,0,.35,0,.19,0,.39,0,.58,0,2.26.04,4.45.49,6.68,1.37.1.04.1.05.11.12.09.45.16.89.22,1.31h0c.1.67.14,1.24.14,1.81h0Zm9.61-4.46c-1.7,0-2.8,1.23-2.8,3.05s1.1,3.03,2.79,3.03,2.81-1.24,2.81-3.05-1.1-3.03-2.8-3.03Zm0,4.95c-.84,0-1.34-.74-1.34-1.9s.5-1.9,1.34-1.9,1.34.74,1.34,1.9-.49,1.9-1.34,1.9Zm8.03-1.32c.7-.3,1.1-.85,1.1-1.67,0-1.21-.83-1.85-2.25-1.85h-2.05v5.86h1.45v-2.01h.37l1.28,2.07,1.54-.25-1.44-2.16Zm-1.31-.71h-.45v-1.71h.47c.63,0,.97.3.97.84s-.36.87-.99.87Zm5.95.64h1.89l-.19-1.17h-1.7v-1.1h2.23v-1.17h-3.66v5.86h3.73v-1.18h-2.3v-1.24Zm9.03,1.91v-2.86h-2.46l.17,1.08h1.02v1.04c-.24.12-.47.19-.79.19-1.01,0-1.52-.77-1.52-1.88s.49-1.84,1.5-1.84c.6,0,1.12.22,1.56.5l.2-1.27c-.47-.26-1.07-.43-1.79-.43-1.81,0-2.92,1.23-2.92,3.05s1.03,3.03,2.89,3.03c.81,0,1.53-.22,2.14-.62Zm4.74-5.46c-1.7,0-2.8,1.23-2.8,3.05s1.1,3.03,2.79,3.03,2.81-1.24,2.81-3.05-1.1-3.03-2.8-3.03Zm0,4.95c-.84,0-1.34-.74-1.34-1.9s.5-1.9,1.34-1.9,1.34.74,1.34,1.9-.49,1.9-1.34,1.9Zm6.25-4.84h-1.41v5.86h1.35v-3.51l2.31,3.51h1.26v-5.86h-1.35v3.28l-2.16-3.28Zm10.16,3.92h.37c1.42,0,2.36-.68,2.36-2.01s-.88-1.91-2.3-1.91h-1.89v5.86h1.45v-1.95Zm-.02-2.82h.37c.65,0,.98.28.98.84,0,.6-.36.88-1,.88h-.34v-1.72Zm5.76-1.12l-2.11,5.89h1.43l.39-1.22h2.03l.42,1.28,1.47-.24-2.04-5.71h-1.6Zm.06,3.54l.66-2.04.65,2.04h-1.32Zm9.7-1.66c0-1.21-.83-1.85-2.25-1.85h-2.05v5.86h1.45v-2.01h.37l1.28,2.07,1.54-.25-1.44-2.16c.7-.3,1.1-.85,1.1-1.67Zm-2.41.95h-.45v-1.71h.47c.63,0,.97.3.97.84s-.36.87-.99.87Zm9.52,2.88l-2.16-2.95,2.11-2.74h-1.68l-1.81,2.51v-2.51h-1.45v5.86h1.45v-2.73l1.95,2.79,1.59-.24Zm3.46-.89c-.59,0-1.26-.22-1.86-.54l-.21,1.24c.59.27,1.26.44,2.05.44,1.16,0,2.1-.56,2.1-1.84,0-.94-.5-1.38-1.79-1.84-.73-.28-.89-.42-.89-.72,0-.27.21-.46.65-.46s1,.17,1.53.48l.22-1.22c-.51-.25-1-.39-1.77-.39-1.12,0-2.01.6-2.01,1.73,0,.97.51,1.35,1.68,1.8.82.31,1,.47,1,.8,0,.35-.29.53-.71.53Zm11.58-2.19l-1.09-.24c-.05.44-.14.83-.25,1.14l-1.2-1.39c-.25-.27-.35-.45-.35-.65,0-.25.18-.44.53-.44.37,0,.77.15,1.24.41l.2-1.18c-.39-.2-.91-.36-1.58-.36-1.12,0-1.72.67-1.72,1.47,0,.48.14.81.48,1.24-.69.36-1.15.9-1.15,1.72,0,1.03.76,1.65,1.91,1.65.64,0,1.18-.21,1.64-.62l.5.57,1.44-.19-1.16-1.34c.28-.49.48-1.07.57-1.79Zm-2.8,2.33c-.49,0-.79-.3-.79-.73,0-.33.17-.62.48-.87l1.12,1.27c-.25.23-.54.33-.82.33Zm-75.96,7.12c0-1.21-.83-1.85-2.25-1.85h-2.05v5.86h1.45v-2.01h.37l1.28,2.07,1.54-.25-1.44-2.16c.7-.3,1.1-.85,1.1-1.67Zm-2.41.95h-.45v-1.71h.47c.63,0,.97.3.97.84s-.36.87-.99.87Zm5.69.64h1.89l-.19-1.17h-1.7v-1.1h2.23v-1.17h-3.66v5.86h3.73v-1.18h-2.3v-1.24Zm6.72,1.31c-.92,0-1.54-.68-1.54-1.82s.59-1.82,1.5-1.82c.51,0,.92.2,1.27.48l.2-1.31c-.42-.25-.93-.38-1.55-.38-1.77,0-2.88,1.22-2.88,3.04s1.06,3.03,2.81,3.03c.69,0,1.23-.18,1.7-.45l-.19-1.21c-.43.27-.86.45-1.33.45Zm7.95-4.75h-2.02v5.86h2.06c1.98,0,3.07-1.2,3.07-2.94s-1.06-2.92-3.1-2.92Zm-.04,4.73h-.53v-3.6h.53c.99,0,1.68.57,1.68,1.8s-.65,1.8-1.68,1.8Zm6.35-1.29h1.89l-.19-1.17h-1.7v-1.1h2.23v-1.17h-3.66v5.86h3.73v-1.18h-2.3v-1.24Zm5.92-3.44h-1.89v5.86h1.45v-1.95h.37c1.42,0,2.36-.68,2.36-2.01s-.88-1.91-2.3-1.91Zm-.11,2.82h-.34v-1.72h.37c.65,0,.98.28.98.84,0,.6-.36.88-1,.88Zm5.16-2.85l-2.11,5.89h1.43l.39-1.22h2.03l.42,1.28,1.47-.24-2.04-5.71h-1.6Zm.06,3.54l.66-2.04.65,2.04h-1.32Zm9.44-1.66c0-1.21-.83-1.85-2.25-1.85h-2.05v5.86h1.45v-2.01h.37l1.28,2.07,1.54-.25-1.44-2.16c.7-.3,1.1-.85,1.1-1.67Zm-2.41.95h-.45v-1.71h.47c.63,0,.97.3.97.84s-.36.87-.99.87Zm3.78-2.8v1.23h1.66v4.63h1.46v-4.63h1.72l-.2-1.23h-4.64Zm10.68,0l-1.15,4.04-1.14-4.04h-1.88l-.42,5.86h1.27l.25-3.93,1.11,3.94h1.38l1.11-3.94.25,3.93h1.48l-.42-5.86h-1.83Zm5.49,3.44h1.89l-.19-1.17h-1.7v-1.1h2.23v-1.17h-3.66v5.86h3.73v-1.18h-2.3v-1.24Zm7.61-.16l-2.16-3.28h-1.41v5.86h1.35v-3.51l2.31,3.51h1.26v-5.86h-1.35v3.28Zm3.01-3.28v1.23h1.66v4.63h1.46v-4.63h1.72l-.2-1.23h-4.64Z"/></svg>