<?xml version="1.0" encoding="UTF-8"?><svg id="a" xmlns="http://www.w3.org/2000/svg" width="256" height="256" viewBox="0 0 256 256"><defs><style>.b{fill:none;}.c{fill:#fff;}</style></defs><rect x="0" y="0" width="256" height="256"/><path class="c" d="M189.12,72.86c-.58-.42-1.3-.61-2.02-.61h-16.2c-1.48,0-2.78.98-3.18,2.41l-9.79,34.66c-.35,1.24-.35,2.54-.01,3.78.04.16.09.32.13.48.29,1.08.58,2.16,1.26,4.28.6,1.87,1.08,2.68,1.63,3.6.78,1.33,1.44,2.52,2.19,4.84.69,2.14,1.07,3.2,1.45,4.26.4,1.11.79,2.21,1.51,4.45.78,2.42.87,3.9.9,5.45.02,1.06.04,1.97.61,3.73,0,.02,0,.03.01.05.3,1,1.67,1.04,1.98.05l20.76-67.76c.4-1.32-.05-2.8-1.24-3.66ZM138.14,74.55c-.44-1.37-1.71-2.3-3.15-2.3h-15.45c-1.45,0-2.74.95-3.16,2.34l10.94,32.32,4.91,15.4c.32.99-.42,2-1.46,2h-.03c-2.79,0-4.32.46-5.55.83-1.03.31-1.84.55-3.66.55-2.25,0-3.38-.03-4.5-.07-1.18-.04-2.36-.08-4.71-.08-1.94,0-2.84-.2-3.88-.44-.7-.16-2.32-.33-3.63-.44-1.16-.1-2.13-.91-2.45-2.03l-13.71-47.97c-.4-1.42-1.7-2.4-3.18-2.4h-16.6c-.56,0-1.12.12-1.61.39-1.44.8-2.04,2.44-1.59,3.89l36.45,118.4c.43,1.38,1.71,2.33,3.16,2.33h15.79s.03,0,.04,0c1.92-.03,3.22-1.98,2.65-3.82l-14.52-46.72c-.32-1.14.55-2.25,1.73-2.21.39.01.81.02,1.27.02,2.44,0,3.65-.1,4.87-.2,1.08-.09,2.17-.17,4.34-.17,1.95,0,2.86.19,3.91.42,1.24.27,2.64.57,5.3.57,2.26,0,3.39.03,4.52.07.68.02,1.37.04,2.28.05,1.24.02,2.33.82,2.71,2l15.18,47.68c.44,1.37,1.71,2.3,3.15,2.3h15.45s.03,0,.04,0c1.93-.03,3.23-2,2.63-3.84l-38.49-118.86Z"/><circle class="b" cx="128" cy="128" r="128"/><circle class="b" cx="128" cy="128" r="100"/></svg>