<?xml version="1.0" encoding="UTF-8"?><svg id="a" xmlns="http://www.w3.org/2000/svg" width="400" height="400" viewBox="0 0 400 400"><defs><style>.b{fill:#231f20;}</style></defs><path class="b" d="M182.88,196.22c.11,0,.2-.08.21-.19,1.3-11.21,9.94-18.25,20.37-18.25,5.24,0,10.16,1.64,13.78,4.99.07.06.18.02.18-.08v-5.73c0-.08-.04-.15-.1-.18-4.04-2.41-8.73-3.74-13.76-3.74-13.52,0-24.45,9.17-25.82,23,0,.09.06.17.15.17h5Z"/><path class="b" d="M264.47,174.01v22.12c0,.06-.05.1-.11.1h-30.74c-.06,0-.11.05-.11.11v4.44c0,.06.05.11.11.11h30.74c.06,0,.11.05.11.1v23.05c0,.06.05.11.11.11h5.03c.06,0,.11-.05.11-.11v-50.02c0-.06-.05-.11-.11-.11h-5.03c-.06,0-.11.05-.11.11"/><path class="b" d="M233.52,196.12v-22.11c0-.06-.05-.11-.11-.11h-5.03c-.06,0-.11.05-.11.11v22.11c0,.06.05.11.11.11h5.03c.06,0,.11-.05.11-.11"/><path class="b" d="M136.46,196.22c.11,0,.2-.08.21-.19,1.3-11.21,9.94-18.25,20.37-18.25,5.24,0,10.16,1.64,13.78,4.99.07.06.18.02.18-.08v-5.73c0-.08-.04-.15-.1-.18-4.04-2.41-8.73-3.74-13.76-3.74-13.52,0-24.45,9.17-25.82,23,0,.09.06.17.15.17h5Z"/><path class="b" d="M228.28,200.99v23.04c0,.06.05.11.11.11h5.03c.06,0,.11-.05.11-.11v-23.04c0-.06-.05-.11-.11-.11h-5.03c-.06,0-.11.05-.11.11"/><path class="b" d="M136.37,200.88h-4.99c-.09,0-.16.07-.15.16.9,14.29,11.35,23.94,25.89,23.94,5.03,0,10.06-1.33,14.02-3.66.07-.04.11-.11.11-.18v-5.65c0-.09-.11-.14-.17-.08-3.63,3.27-8.79,4.83-14.03,4.83-10.72,0-19.54-7.42-20.46-19.17,0-.11-.1-.19-.21-.19"/><path class="b" d="M182.79,200.88h-4.99c-.09,0-.15.07-.15.16.9,14.29,11.35,23.94,25.89,23.94,5.03,0,10.06-1.33,14.02-3.66.07-.04.1-.11.1-.18v-5.65c0-.09-.11-.14-.17-.08-3.63,3.27-8.79,4.83-14.03,4.83-10.72,0-19.54-7.42-20.46-19.17,0-.11-.1-.19-.21-.19"/></svg>