<?xml version="1.0" encoding="UTF-8"?><svg id="a" xmlns="http://www.w3.org/2000/svg" width="400" height="400" viewBox="0 0 400 400"><defs><style>.b{fill:#3d3935;}</style></defs><path class="b" d="M154.31,205.73c-1.35,0-2.7.2-4,.59l-3.85,1.16c-1.33.41-2.32,1.11-2.98,2.1-.66.99-.99,2.23-.99,3.7v14.66h103.19c1.35,0,2.7-.21,4-.6l3.85-1.16c1.33-.41,2.32-1.11,2.98-2.1.66-.99.99-2.23.99-3.7v-14.66h-103.19Z"/><path class="b" d="M190.86,164.72h54.82c1.35,0,2.7-.21,4-.6l3.85-1.16c1.33-.41,2.32-1.11,2.98-2.1.66-.99.99-2.23.99-3.7v-14.66h-66.64v22.22Z"/><path class="b" d="M192.3,235.28h-37.99c-1.35,0-2.7.21-4,.6l-3.85,1.16c-1.33.41-2.32,1.11-2.98,2.1-.66.99-.99,2.23-.99,3.7v14.66h49.8v-22.22Z"/></svg>