<?xml version="1.0" encoding="UTF-8"?><svg id="a" xmlns="http://www.w3.org/2000/svg" width="400" height="400" viewBox="0 0 400 400"><defs><style>.b{fill:none;}.c{fill:#d1d3d4;}.d{fill:#231f20;}.e{fill:#fff;}</style></defs><path class="c" d="M246.98,163.32c-11.46-6.78-23.79-10.99-37.04-12.33-19.43-1.97-37.63,1.98-54.65,11.56-1.72.96-2.2,2.01-2.19,3.89.09,12.63.04,30.96.05,43.59,0,16.17,5.78,29.9,17.36,41.19,3.09,3.01,6.6,5.44,10.25,7.65,1.41-.83,2.84-1.64,4.25-2.47-.92-.55-1.83-1.11-2.74-1.68v-14.97c.15.01.3.03.44.04,1.15.11,2.31.25,3.47.23,1.04-.02,1.83.35,2.51,1.07.25.27.54.51.83.73.49.38.93.5,1.4-.11.46-.6,1.03-1.11,1.66-1.76.27.7.48,1.27.7,1.84.22.55.53.7,1.1.38.03-.02.05-.03.08-.04,1.59-.9,3.28-1.51,5.15-1.52.46,0,.65-.19.66-.67.03-1,.39-1.25,1.35-.97.48.14.94.32,1.42.46.86.25,1.28.03,1.58-.8.11-.32.17-.66.29-.97.16-.4.35-.73.9-.7.45.03.69.23.84.56.03.07.06.15.09.23.16.52.28,1.06.51,1.55.3.64.83.98,1.57,1,1.21.03,2.41.1,3.62.15.2,0,.4.05.75.1-.78.79-1.42,1.56-.98,2.61.14.32.56.51.88.79.18-.65.26-1.15.46-1.6.25-.56.73-.8,1.37-.65.6.14.86.52.88,1.14.04,1.17.63,2.08,1.57,2.69.49.32.98.38,1.47.29v8.69c-.11.07-.22.15-.34.22-.86.54-1.72,1.07-2.59,1.59,1.44.84,2.87,1.68,4.3,2.54,1.08-.68,2.15-1.37,3.2-2.08,14.81-10.03,22.94-24.27,24.2-42.12.5-7.15.08-20.08.08-27.27.06,0,.11,0,.17,0,0-7.44-.01-14.88.02-22.33,0-.79-.18-1.28-.91-1.71Z"/><path class="b" d="M194.37,261.81l.1.06v-.06h-.1Z"/><path class="b" d="M243.31,167.44c0-.23-.02-.42-.06-.6v44.2c0-.13,0-.26.01-.39.16-12.5.03-30.71.05-43.21Z"/><path d="M177.81,236.36c-.86-1.63-.83-2.33.47-3.64,1.19-1.2,2.55-2.1,4-2.88v-12.6c-1.16-.72-2.41-.98-3.83-.93-.98.03-1.92-.21-2.7-.91-1.22-1.08-2.43-2.19-3.71-3.19-.85-.66-1.48-1.43-1.95-2.35v34.71c3.38,3.76,7.44,7.14,12.18,10.12,0,0,.01,0,.02.01v-14.97c-.51-.05-1.04-.11-1.46-.33-1.32-.68-2.31-1.76-3-3.06Z"/><path d="M170.75,174.13c.39.67.85,1.31,1.27,1.96.16-.18.17-.26.16-.34-.59-2.57-1.22-5.13-1.75-7.71-.14-.66-.07-1.4.07-2.08.12-.59.57-.67.99-.23.42.43.92.88,1.12,1.41.71,1.87,1.33,3.79,1.95,5.69.4,1.23.8,2.46,1.72,3.64.02-.33.02-.48.03-.62.21-3.15.4-6.3.66-9.45.05-.59.4-1.16.61-1.73h.48c.78.72.9,1.7.94,2.67.07,1.98.07,3.96.11,5.93.04,2.25.82,4.33,1.43,6.5.48-.09.89-.17,1.08-.21.14-2.61.24-5.12.44-7.63.04-.45.12-.89.24-1.34v-13.84c-4.15.9-8.22,2.1-12.19,3.6v12.52c.22.42.43.85.67,1.25Z"/><path d="M195.03,199.36c1.84,1.32,3.58,2.83,5.81,3.4,1.86.48,3.29,1.55,4.69,2.75.37.32.75.64,1.13.95v-51.43c-.09,0-.19-.02-.28-.02-1.98-.15-3.98-.02-5.99-.02s-3.96-.12-5.92.02v43.9c.18.15.36.3.56.44Z"/><path d="M194.87,222.31c-.13-.54-.26-1.09-.4-1.65v2.75c.35-.27.52-.58.4-1.1Z"/><path d="M228.84,233.41c-.65.36-.32.92-.35,1.41-.03.5.14,1.07-.5,1.32-.14-.31-.2-.64-.39-.86-.75-.89-1.83-1.05-2.9-1.22-.09-.01-.25.05-.28.11-.35.82-.53,1.65-.18,2.52.27.68.81.95,1.49.94.69,0,1.38-.09,2.09-.14-.7,1.23-2.01,1.75-3.39,1.24-.64-.24-1.29-.64-1.73-1.14-.83-.95-.59-2.15-.46-3.3-.23-.07-.42-.15-.62-.2-.93-.24-1.85-.48-2.75-.79v5.98c.59.11,1.17.23,1.75.37,1.82.43,2.99,1.67,3.67,3.38.29.74.03,1.52-.56,1.88-.63.38-1.18.21-1.71-.27.74-.55.89-.99.44-1.52-.77-.92-1.75-1.42-2.98-1.26-.22.03-.42.09-.6.18v2.59c.12.06.25.11.39.16.33.11.66.2,1.09.33-.5.32-.99.57-1.48.66v8.69c4.76-3.03,8.82-6.47,12.19-10.3v-11.18c-.77-.23-1.5,0-2.21.41Z"/><path d="M218.86,187.83c.14.02.29.04.43.05,1.33.07,1.34.05,1.44-1.29.03-.39.16-.79.14-1.17-.06-.9.42-1.43,1.14-1.81,2.03-1.08,4.2-1.35,6.42-1.09.36-1.58.19-3.25,1.18-4.91.52,1.04.95,1.89,1.44,2.87v-19.98c-3.97-1.52-8.04-2.74-12.19-3.65v30.99Z"/><path d="M225.47,195.93c-.76,1.07-1.42,2.16-1.59,3.45-.28,2.09-.69,4.13-1.56,6.06-.33.73-.58,1.49-.82,2.12,1.34.79,2.63,1.45,3.81,2.26,2.05,1.41,3.57,3.24,3.64,5.86.06,2.17-.48,4.26-1.41,6.23-.12.26-.29.51-.5.7-.17.17-.43.25-.64.36-.09-.21-.23-.41-.26-.63-.22-1.45-.96-2.59-2.08-3.5-.16-.13-.35-.27-.54-.28-1.44-.13-3.39.46-4.65,1.72v3.77c.4.29.81.57,1.21.86.9.64,1.62,1.4,1.79,2.57.11.78.31,1.54.46,2.31.25,1.31.6,1.67,1.95,1.65,1.34-.02,2.68-.2,4.02-.27.92-.05,1.85-.09,2.77-.09v-39.66c-2.25,1.03-4.13,2.44-5.59,4.5Z"/><path d="M220.34,245.14c-.42-.13-.76-.22-1.09-.33-.14-.05-.27-.1-.39-.16v1.15c.49-.09.98-.35,1.48-.66Z"/><path d="M169.61,171.99c-.27-.48-.61-1.07-1.26-.81-.68.27-.52.99-.39,1.53.15.63.46,1.22.66,1.84.28.84.54,1.68.8,2.52-.06.04-.13.08-.19.12-.19-.21-.37-.44-.59-.63-1.1-.97-2.19-1.95-3.34-2.87-.22-.18-.65-.09-.99-.13.03.34-.06.74.1,1,.53.88,1.14,1.7,1.72,2.55.11.17.22.34.39.62-.66-.08-1.2-.16-1.74-.21-.53-.05-.84.17-.87.75-.02.52-.07,1.05-.15,1.57-.27,1.66.27,3.04,1.39,4.24.17.18.27.43.46.75-.55-.08-.98-.14-1.38-.2-.33.53-.41.31.5,1.9-1.11,1.3-1.59,2.83-1.46,4.57.08,1.12.07,1.19,1.2,1.5.18.05.34.13.58.23-.9,2.23-.45,4.34.83,6.24.93,1.39,2.07,2.63,3.15,3.99-.09.12-.26.37-.45.62-.63.85-.67,1.66-.1,2.62.54.92.91,1.95,1.3,2.94.09.22.19.43.29.64v-36.99c-.15-.3-.31-.6-.47-.89Z"/><path d="M190.89,191.99c-.45-1.59-1.12-3.07-2.39-4.18-.26-.22-.64-.31-.96-.46-.1.33-.25.66-.29,1-.05.46-.01.94-.01,1.52-1-1.27-1.5-2.65-1.72-4.11-.34-2.18-.62-4.37-.79-6.57-.17-2.28-.15-4.58-.25-6.86-.04-.97-.1-1.95-.28-2.9-.06-.35-.47-.63-.72-.94-.28.26-.7.47-.8.79-.15.43-.29.87-.4,1.32v46.65c.32.2.63.42.93.69,1.55,1.36,3.5,2,5.62,1.89.48-.02.81.02,1.07.54.26.55.84.75,1.41.47.63-.31,1.21-.71,1.8-1.1.28-.18.53-.41.96-.75.14.59.27,1.13.4,1.66v-21.74c-2.12-1.82-2.85-4.35-3.58-6.92Z"/><path d="M194.18,223.61c-1.7.99-3.32,2.12-5.05,3.05-1.57.84-3.24,1.47-4.86,2.21-.67.31-1.34.63-1.98.98v9.9c.15.01.3.03.44.04,1.15.11,2.31.25,3.47.23,1.04-.02,1.83.35,2.51,1.07.25.27.54.51.83.73.49.38.93.5,1.4-.11.46-.6,1.03-1.11,1.66-1.76.27.7.48,1.27.7,1.84.22.55.53.7,1.1.38.03-.02.05-.03.08-.04v-18.7c-.09.07-.19.13-.29.19Z"/><path d="M231.46,191.25c1.15-.49,2.26-1.15,2.94-2.29.11-.19.18-.46.16-.68-.12-1.38,0-2.63.75-3.92,1.48-2.54,2.65-5.23,2.56-8.28-.02-.77-.46-1.19-1.07-1.38-.67-.21-1.13.27-1.32.85-.41,1.24-.75,2.5-1.12,3.75-.07.24-.15.47-.28.91-.26-1.18-.43-2.15-.69-3.11-.15-.55-.36-1.1-.65-1.59-.16-.26-.6-.54-.85-.5-.22.04-.5.51-.52.81-.12,1.52-.17,3.04-.25,4.77-.03-.05-.05-.1-.08-.15v10.97c.13-.06.27-.12.41-.18Z"/><path d="M231.32,233.11c.71.31.93,1.12.52,1.79-.12.2-.29.37-.45.57.99.06,1.52-.25,1.69-1.14.14-.71.19-1.47.13-2.19-.05-.66-.64-1-1.24-1.02-.31-.01-.62-.02-.93-.02v1.91c.09.03.18.06.27.1Z"/><path class="d" d="M252.13,186.21c0-7.82-.02-15.64.03-23.45,0-1.02-.34-1.55-1.2-2.06-2.48-1.5-5-2.89-7.57-4.18,0-5.93-.01-11.86.02-17.8,0-.84-.29-1.28-.99-1.71-8.61-5.21-17.79-8.91-27.71-10.71-8.58-1.56-17.18-1.71-25.81-.43-10.98,1.63-21.1,5.53-30.55,11.29-.55.34-.74.71-.74,1.33,0,5.37-.05,11.68-.08,18.09-2.63,1.32-5.21,2.75-7.76,4.3-.67.41-.89.85-.88,1.6.02,14.55-.35,34.82.1,49.35.68,22.14,10.67,38.97,29.29,50.48.53.33,1.07.66,1.62.98,4.87,2.85,9.76,5.66,14.64,8.47,1.63.94,3.26,1.88,4.89,2.82.22.13.42.25.63.33.35.14.72.16,1.19-.12.2-.12.4-.23.59-.35.78-.46,1.56-.91,2.34-1.36.02-.01.05-.03.07-.04,6.85-3.94,13.8-7.74,20.45-12,13.98-8.95,22.64-21.78,26.09-38,.85-4.02,1.14-8.19,1.28-12.31.21-6.26.05-18.25.06-24.52ZM229.86,135.78l.46.17c2.46.92,4.91,1.96,7.29,3.11l.19.09v3.43l-.49-.23c-1.3-.63-2.62-1.22-3.95-1.78v2.17c1.31.55,2.63,1.14,3.93,1.76l.19.09v3.43l-.48-.23c-1.2-.57-2.42-1.12-3.64-1.63v2.54c1.46.61,2.94,1.27,4.38,1.97l.19.09v3.54l-.49-.24c-2.39-1.16-4.87-2.22-7.36-3.15l-.22-.08v-15.06ZM217.39,132.15l.41.09c.3.06.61.13.91.2l.13.03.08.11c2.02,2.9,4.03,5.88,5.98,8.87v-7.3l.44.13c.97.29,1.94.61,2.89.94l.23.08v15.15l-.45-.15c-.28-.1-.56-.19-.84-.29l-.11-.04-.06-.1c-1.95-3.03-3.97-6.06-6-9.01v7.25l-.42-.1c-.96-.23-1.93-.46-2.9-.66l-.27-.06v-15.13ZM209.27,142.9l.38.04c.43.05.87.1,1.3.15v-8.84c-.41-.05-.82-.1-1.23-.15l-.3-.03v-3.06l.38.04c2.01.22,4.04.52,6.03.89l.28.05v3.06l-.4-.07c-.37-.07-.74-.13-1.12-.2v8.83c.46.08.91.16,1.36.24l.28.05v3.12l-.4-.07c-2.06-.38-4.16-.69-6.25-.92l-.3-.03v-3.12ZM199.55,130.54h.34c.99,0,2,0,3,.04h.33v11.6c1.51.05,3.04.14,4.54.27l.31.03v3.42l-.37-.03c-2.59-.23-5.21-.33-7.8-.32h-.34s0-15.01,0-15.01ZM186.27,131.69l.28-.05c1.05-.17,2.12-.32,3.18-.46l.24-.03.11.22c.47.96.95,1.92,1.42,2.89.32.68.58,1.27.8,1.85.24-.73.52-1.44.85-2.15.47-1.02.94-2.04,1.41-3.05l.08-.18h.2c1.07-.08,2.13-.13,3.16-.16h.35s0,.87,0,.87l-.04.07c-1.41,2.75-2.82,5.54-4.18,8.29v5.97l-.31.02c-.99.08-1.99.17-2.96.28l-.38.04v-6.02c-1.38-2.5-2.78-5.02-4.17-7.49l-.04-.08v-.83ZM174.17,134.61l.24-.07c.94-.3,1.91-.59,2.88-.86l.43-.12v5.92c.5-.14,1.08-.31,1.38-.59.52-.46.73-1.54,1.02-3.04l.03-.17c.56-2.54,2.18-3.82,4.69-3.71h.32v2.74l-.31.02c-.64.05-1.11.3-1.33,1.38-.38,1.68-.78,3.02-1.46,4.08l.84,1.36c.88,1.44,1.78,2.89,2.69,4.35l.05.08v.83l-.28.05c-1.11.2-2.22.42-3.3.66l-.25.05-.12-.22c-.91-1.66-1.82-3.3-2.72-4.93-.37.16-.85.3-1.24.41v5.75l-.25.07c-.96.27-1.93.55-2.86.85l-.44.14v-15.04ZM162.67,149.21l.19-.09c.87-.42,1.76-.84,2.65-1.23l.46-.2.02.5c.01.37.12.62.31.75.27.18.77.14,1.33-.09.9-.37,1.82-.93,1.82-2.23,0-.39-.08-.64-.25-.76-.36-.26-1.21.03-1.67.18-1.63.54-2.87.51-3.69-.09-.67-.48-1.01-1.3-1.01-2.42,0-2.84,1.88-5.54,4.68-6.7,1.53-.64,2.88-.65,3.8-.04.82.55,1.23,1.54,1.22,2.94v.24s-.23.08-.23.08c-.89.31-1.78.64-2.63.97l-.43.16-.03-.46c-.02-.35-.13-.58-.32-.7-.24-.15-.64-.13-1.1.06-.78.32-1.57,1.15-1.57,2.12,0,.34.06.56.19.65.24.18.84.05,1.4-.1,1.76-.52,3.16-.45,4.05.21.72.53,1.08,1.41,1.08,2.61,0,2.92-1.74,5.18-5.03,6.55-.88.36-1.69.54-2.4.54-.65,0-1.22-.15-1.67-.46-.79-.53-1.18-1.48-1.17-2.81v-.21ZM196.99,265.14c-1.49,0-2.97-.84-2.96-2.7h1.64c.02.78.67,1.11,1.3,1.11.6,0,1.24-.15,1.24-1.04,0-.97-.84-1.05-1.45-1.1-1.77-.16-2.64-1.15-2.64-2.44,0-1.61,1.11-2.61,2.78-2.61,1.38,0,2.79.66,2.78,2.57h-1.61c-.05-.69-.58-1-1.16-1s-1.1.34-1.1,1c0,.76.51.94,1.24,1.04,1.72.18,2.86.95,2.86,2.53,0,2.01-1.45,2.63-2.94,2.63ZM204.02,263.54c.63,0,1.28-.33,1.3-1.11h1.64c.01,1.86-1.47,2.7-2.96,2.7s-2.94-.62-2.94-2.63v-3.51c0-2.01,1.45-2.63,2.94-2.63s2.97.84,2.96,2.7h-1.64c-.02-.78-.67-1.11-1.3-1.11-.6,0-1.24.15-1.24,1.04v3.51c0,.89.65,1.04,1.24,1.04ZM247.87,187.35c-.06,0-.11,0-.17,0,0,7.19.42,20.12-.08,27.27-1.26,17.86-9.39,32.09-24.2,42.12-1.05.71-2.12,1.4-3.2,2.08-6.25-3.78-12.68-7.28-18.98-10.98-.75-.44-1.24-.12-1.82.22-6.22,3.6-12.46,7.16-18.67,10.79-3.65-2.22-7.16-4.64-10.25-7.65-11.58-11.29-17.36-25.02-17.36-41.19,0-12.63.04-30.96-.05-43.59-.01-1.88.47-2.93,2.19-3.89,17.02-9.57,35.22-13.53,54.65-11.56,13.24,1.34,25.58,5.55,37.04,12.33.73.43.91.92.91,1.71-.03,7.44-.02,14.88-.02,22.33Z"/><path d="M199.43,248.08c.58-.34,1.07-.66,1.82-.22,1.8,1.05,3.61,2.09,5.42,3.13v-13.5c-.15-.33-.39-.53-.84-.56-.56-.03-.74.3-.9.7-.12.31-.18.65-.29.97-.3.84-.72,1.05-1.58.8-.48-.14-.94-.32-1.42-.46-.96-.27-1.33-.02-1.35.97-.01.48-.2.66-.66.67-1.86.01-3.55.62-5.15,1.52v8.82c1.65-.95,3.31-1.9,4.96-2.86Z"/><path d="M207.26,239.28c.3.64.83.98,1.57,1,1.21.03,2.41.1,3.62.15.2,0,.4.05.75.1-.78.79-1.42,1.56-.98,2.61.14.32.56.51.88.79.18-.65.26-1.15.46-1.6.25-.56.73-.8,1.37-.65.6.14.86.52.88,1.14.04,1.17.63,2.08,1.57,2.69.49.32.98.38,1.47.29v-1.15c-.69-.32-.94-.76-.87-1.47.04-.45.38-.88.87-1.12v-2.77c-1.09-.21-2.18-.38-3.27-.56-.52-.08-.53-.32-.61-.77-.23-1.33-.54-2.65-.94-3.94-.36-1.17-.87-2.29-1.34-3.52,1.1-.08,1.92.39,2.6.95,1.09.88,2.3,1.44,3.56,1.86v-9.25c-.23-.17-.47-.35-.69-.53-.53-.43-.57-1.01-.34-1.64.22-.62.58-1.15,1.03-1.59v-32.46s-.08,0-.12-.01c-1.53-.09-2.08.41-2.11,1.92-.01.67,0,1.35,0,2.14-.67-.23-1.23-.44-1.79-.62-.75-.24-1.05-.08-1.13.7-.09.84-.1,1.68-.12,2.52-.04,1.52-.42,2.86-1.62,3.95-.54.49-.94,1.19-1.24,1.87-.59,1.34-1.2,2.7-1.53,4.12-.23.98-.02,2.07,0,3.1,0,.28.08.56.13.83-.06.05-.12.1-.18.15-.83-.68-1.67-1.35-2.49-2.03v31.02c.03.07.06.15.09.23.16.52.28,1.06.51,1.55Z"/><path class="e" d="M197.06,259.97c-.73-.1-1.24-.28-1.24-1.04,0-.66.54-1,1.1-1s1.11.3,1.16,1h1.61c.01-1.91-1.4-2.57-2.78-2.57-1.67,0-2.78,1-2.78,2.61,0,1.29.88,2.28,2.64,2.44.61.05,1.45.12,1.45,1.1,0,.89-.65,1.04-1.24,1.04-.63,0-1.28-.33-1.3-1.11h-1.64c-.01,1.86,1.47,2.7,2.96,2.7s2.94-.62,2.94-2.63c0-1.58-1.15-2.35-2.86-2.53ZM204.02,263.54c-.6,0-1.24-.15-1.24-1.04v-3.51c0-.89.65-1.04,1.24-1.04.63,0,1.28.33,1.3,1.11h1.64c.01-1.86-1.47-2.7-2.96-2.7s-2.94.62-2.94,2.63v3.51c0,2.01,1.45,2.63,2.94,2.63s2.97-.84,2.96-2.7h-1.64c-.02.78-.67,1.11-1.3,1.11Z"/><path class="e" d="M169.79,209.23c-.39-1-.75-2.03-1.3-2.94-.57-.96-.53-1.77.1-2.62.18-.25.36-.5.45-.62-1.08-1.35-2.23-2.6-3.15-3.99-1.28-1.91-1.73-4.01-.83-6.24-.24-.1-.41-.18-.58-.23-1.12-.31-1.11-.38-1.2-1.5-.13-1.75.34-3.27,1.46-4.57-.91-1.59-.82-1.37-.5-1.9.41.06.83.12,1.38.2-.19-.32-.29-.56-.46-.75-1.12-1.2-1.66-2.59-1.39-4.24.08-.52.13-1.04.15-1.57.02-.59.33-.8.87-.75.54.05,1.08.13,1.74.21-.18-.28-.28-.45-.39-.62-.58-.85-1.19-1.67-1.72-2.55-.16-.26-.07-.66-.1-1,.34.03.77-.05.99.13,1.14.92,2.24,1.9,3.34,2.87.21.19.39.42.59.63.06-.04.13-.08.19-.12-.27-.84-.52-1.69-.8-2.52-.21-.62-.52-1.21-.66-1.84-.13-.54-.29-1.26.39-1.53.65-.26.98.34,1.26.81.17.29.32.59.47.89v-12.52c-3.97,1.5-7.86,3.3-11.65,5.41-.73.4-.96.87-.96,1.68.03,12.5-.11,30.71.05,43.21.17,13.52,4.39,24.85,12.56,33.93v-34.71c-.1-.21-.2-.42-.29-.64Z"/><path class="e" d="M193.11,219.75c-.59.38-1.18.79-1.8,1.1-.57.28-1.15.08-1.41-.47-.25-.52-.59-.57-1.07-.54-2.12.11-4.07-.53-5.62-1.89-.31-.27-.62-.49-.93-.69v12.6c.65-.35,1.31-.67,1.98-.98,1.62-.75,3.3-1.37,4.86-2.21,1.73-.93,3.35-2.06,5.05-3.05.11-.06.21-.13.29-.19v-2.75c-.13-.53-.26-1.08-.4-1.66-.43.34-.68.57-.96.75Z"/><path class="e" d="M182.68,169.28c.11-.32.53-.53.8-.79.25.31.66.6.72.94.17.95.24,1.93.28,2.9.1,2.29.08,4.58.25,6.86.16,2.2.45,4.39.79,6.57.23,1.46.73,2.85,1.72,4.11,0-.59-.04-1.06.01-1.52.04-.34.19-.67.29-1,.32.15.7.23.96.46,1.27,1.11,1.94,2.59,2.39,4.18.73,2.57,1.46,5.1,3.58,6.92v-43.9s-.05,0-.07,0c-4.12.31-8.16.89-12.12,1.75v13.84c.11-.45.26-.89.4-1.32Z"/><path class="e" d="M209.16,208.5c.06-.05.12-.1.18-.15-.04-.28-.12-.56-.13-.83-.03-1.04-.24-2.12,0-3.1.33-1.42.94-2.78,1.53-4.12.3-.68.7-1.38,1.24-1.87,1.2-1.08,1.58-2.42,1.62-3.95.02-.84.03-1.69.12-2.52.09-.78.38-.94,1.13-.7.57.18,1.12.39,1.79.62,0-.79,0-1.47,0-2.14.03-1.51.57-2,2.11-1.92.04,0,.08,0,.12.01v-30.99c-3.98-.88-8.05-1.48-12.19-1.8v51.43c.83.68,1.66,1.35,2.49,2.03Z"/><path class="e" d="M242.35,165.76c-3.68-2.05-7.45-3.8-11.3-5.27v19.98c.03.05.05.1.08.15.08-1.74.13-3.26.25-4.77.02-.3.3-.77.52-.81.25-.05.69.24.85.5.3.48.51,1.04.65,1.59.25.96.43,1.93.69,3.11.14-.44.21-.68.28-.91.37-1.25.7-2.52,1.12-3.75.19-.58.65-1.06,1.32-.85.6.19,1.04.61,1.07,1.38.09,3.06-1.08,5.75-2.56,8.28-.75,1.29-.86,2.54-.75,3.92.02.22-.05.49-.16.68-.68,1.14-1.8,1.8-2.94,2.29-.14.06-.27.12-.41.18v39.66c.31,0,.62,0,.93.02.59.02,1.18.36,1.24,1.02.06.72.01,1.48-.13,2.19-.17.89-.7,1.19-1.69,1.14.16-.2.32-.37.45-.57.42-.67.2-1.48-.52-1.79-.09-.04-.18-.07-.27-.1v11.18c7.86-8.92,11.95-19.99,12.19-33.14v-44.2c-.11-.46-.37-.79-.9-1.08Z"/><path class="e" d="M178.28,232.73c-1.3,1.31-1.33,2.01-.47,3.64.69,1.3,1.69,2.38,3,3.06.43.22.95.28,1.46.33v-9.9c-1.45.78-2.81,1.68-4,2.88Z"/><path class="e" d="M182.04,171.94c-.2,2.51-.3,5.02-.44,7.63-.19.04-.6.11-1.08.21-.6-2.16-1.38-4.25-1.43-6.5-.04-1.98-.04-3.96-.11-5.93-.04-.97-.16-1.94-.94-2.67h-.48c-.21.58-.56,1.14-.61,1.73-.26,3.15-.45,6.3-.66,9.45,0,.15-.01.29-.03.62-.93-1.18-1.32-2.41-1.72-3.64-.62-1.91-1.24-3.82-1.95-5.69-.2-.54-.7-.98-1.12-1.41-.42-.44-.87-.36-.99.23-.14.67-.2,1.41-.07,2.08.53,2.58,1.16,5.14,1.75,7.71.02.07,0,.16-.16.34-.43-.65-.88-1.29-1.27-1.96-.24-.41-.45-.83-.67-1.25v36.99c.46.92,1.1,1.69,1.95,2.35,1.29,1,2.49,2.11,3.71,3.19.78.69,1.72.94,2.7.91,1.42-.04,2.67.21,3.83.93v-46.65c-.11.44-.2.89-.24,1.34Z"/><path class="e" d="M205.53,205.52c-1.4-1.2-2.83-2.27-4.69-2.75-2.23-.58-3.97-2.08-5.81-3.4-.2-.14-.38-.29-.56-.44v21.74c.13.56.27,1.11.4,1.65.13.52-.04.83-.4,1.1v18.7c1.59-.9,3.28-1.51,5.15-1.52.46,0,.65-.19.66-.67.03-1,.39-1.25,1.35-.97.48.14.94.32,1.42.46.86.25,1.28.03,1.58-.8.11-.32.17-.66.29-.97.16-.4.35-.73.9-.7.45.03.69.23.84.56v-31.02c-.38-.31-.76-.63-1.13-.95Z"/><path class="e" d="M219.46,241.88c1.23-.17,2.22.34,2.98,1.26.44.53.29.97-.44,1.52.53.47,1.07.65,1.71.27.6-.36.86-1.13.56-1.88-.67-1.71-1.84-2.95-3.67-3.38-.58-.14-1.16-.26-1.75-.37v2.77c.18-.09.39-.15.6-.18Z"/><path class="e" d="M224.26,231.45c-1.35.02-1.7-.34-1.95-1.65-.15-.77-.35-1.53-.46-2.31-.16-1.18-.88-1.93-1.79-2.57-.4-.29-.81-.57-1.21-.86v9.25c.9.3,1.83.54,2.75.79.2.05.4.13.62.2-.13,1.15-.37,2.35.46,3.3.44.5,1.09.9,1.73,1.14,1.38.51,2.69,0,3.39-1.24-.71.05-1.4.13-2.09.14-.68,0-1.22-.26-1.49-.94-.35-.87-.16-1.71.18-2.52.03-.07.19-.13.28-.11,1.06.17,2.15.33,2.9,1.22.19.22.26.55.39.86.64-.24.48-.81.5-1.32.02-.49-.3-1.05.35-1.41.71-.4,1.44-.64,2.21-.41v-1.91c-.92,0-1.85.04-2.77.09-1.34.07-2.68.25-4.02.27Z"/><path class="e" d="M228.43,182.51c-2.22-.26-4.4.02-6.42,1.09-.72.38-1.2.91-1.14,1.81.03.39-.11.78-.14,1.17-.1,1.34-.11,1.36-1.44,1.29-.14,0-.29-.03-.43-.05v32.46c1.26-1.25,3.21-1.84,4.65-1.72.19.02.38.16.54.28,1.12.91,1.86,2.05,2.08,3.5.03.22.17.42.26.63.22-.12.47-.2.64-.36.2-.2.37-.45.5-.7.93-1.97,1.47-4.06,1.41-6.23-.07-2.61-1.59-4.45-3.64-5.86-1.18-.81-2.47-1.47-3.81-2.26.24-.63.49-1.39.82-2.12.87-1.93,1.28-3.97,1.56-6.06.18-1.3.83-2.38,1.59-3.45,1.45-2.05,3.34-3.47,5.59-4.5v-10.97c-.49-.98-.92-1.83-1.44-2.87-.99,1.66-.82,3.33-1.18,4.91Z"/><path class="e" d="M194.47,242.12s-.05.03-.08.04c-.57.33-.88.17-1.1-.38-.22-.57-.43-1.14-.7-1.84-.63.66-1.2,1.17-1.66,1.76-.47.62-.91.5-1.4.11-.29-.23-.57-.47-.83-.73-.69-.72-1.47-1.09-2.51-1.07-1.15.02-2.31-.12-3.47-.23-.15-.01-.29-.03-.44-.04v14.97c.91.57,1.82,1.13,2.74,1.68,3.15-1.82,6.3-3.65,9.45-5.46v-8.82Z"/><path class="e" d="M218.86,254.49v-8.69c-.49.09-.98.03-1.47-.29-.94-.61-1.53-1.52-1.57-2.69-.02-.62-.27-.99-.88-1.14-.64-.15-1.11.09-1.37.65-.2.44-.28.94-.46,1.6-.32-.28-.75-.47-.88-.79-.45-1.05.19-1.82.98-2.61-.35-.05-.55-.09-.75-.1-1.21-.06-2.41-.12-3.62-.15-.74-.02-1.27-.36-1.57-1-.23-.49-.35-1.03-.51-1.55-.03-.09-.06-.16-.09-.23v13.5c3.09,1.77,6.19,3.52,9.27,5.31.87-.52,1.73-1.05,2.59-1.59.11-.07.22-.15.34-.22Z"/><path class="e" d="M212.7,230.5c.48,1.23.98,2.35,1.34,3.52.4,1.29.71,2.61.94,3.94.08.45.09.69.61.77,1.09.18,2.19.35,3.27.56v-5.98c-1.26-.43-2.47-.98-3.56-1.86-.69-.56-1.5-1.03-2.6-.95Z"/><path class="e" d="M217.98,243.18c-.07.71.18,1.15.87,1.47v-2.59c-.49.24-.83.67-.87,1.12Z"/><path class="e" d="M218.17,223.53c.22.18.46.36.69.53v-3.77c-.45.45-.81.98-1.03,1.59-.23.64-.18,1.21.34,1.64Z"/><path class="e" d="M171.85,142.99c-.89-.66-2.29-.73-4.05-.21-.55.15-1.15.28-1.4.1-.13-.1-.19-.32-.19-.65,0-.97.79-1.8,1.57-2.12.46-.19.86-.21,1.1-.06.19.12.3.35.32.7l.03.46.43-.16c.86-.33,1.74-.66,2.63-.97l.23-.08v-.24c.01-1.4-.4-2.39-1.22-2.94-.92-.61-2.27-.6-3.8.04-2.8,1.16-4.68,3.85-4.68,6.7,0,1.12.34,1.93,1.01,2.42.82.59,2.06.62,3.69.09.46-.15,1.3-.44,1.67-.18.17.12.25.37.25.76,0,1.3-.92,1.86-1.82,2.23-.56.23-1.06.26-1.33.09-.19-.13-.3-.38-.31-.75l-.02-.5-.46.2c-.88.39-1.77.8-2.65,1.23l-.19.09v.21c0,1.33.38,2.28,1.17,2.81.45.3,1.01.46,1.67.46.71,0,1.52-.18,2.4-.54,3.29-1.36,5.03-3.63,5.03-6.55,0-1.2-.36-2.08-1.08-2.61ZM182.89,141.55l-.84-1.36c.68-1.06,1.08-2.4,1.46-4.08.22-1.08.69-1.33,1.33-1.38l.31-.02v-2.73h-.32c-2.51-.13-4.13,1.15-4.69,3.69l-.03.17c-.29,1.5-.5,2.59-1.02,3.04-.3.28-.87.45-1.38.59v-5.92s-.43.12-.43.12c-.97.27-1.94.56-2.88.86l-.24.07v15.04l.44-.14c.93-.3,1.89-.58,2.86-.85l.25-.07v-5.75c.39-.11.87-.25,1.24-.41.91,1.63,1.81,3.27,2.72,4.93l.12.22.25-.05c1.08-.24,2.19-.46,3.3-.66l.28-.05v-.83l-.05-.08c-.92-1.46-1.81-2.91-2.69-4.35ZM194.85,130.71h-.2s-.08.2-.08.2c-.47,1.01-.94,2.03-1.41,3.05-.33.71-.61,1.42-.85,2.15-.22-.57-.47-1.17-.8-1.85-.47-.97-.95-1.93-1.42-2.89l-.11-.22-.24.03c-1.06.13-2.14.29-3.18.46l-.28.05v.83l.04.08c1.39,2.47,2.8,5,4.17,7.49v6.02l.38-.04c.98-.11,1.97-.2,2.96-.28l.31-.02v-5.97c1.37-2.75,2.78-5.54,4.18-8.29l.04-.07v-.88h-.35c-1.03.04-2.1.08-3.16.15ZM203.21,142.17v-11.59h-.33c-1-.04-2.01-.05-3-.05h-.34v15.01h.34c2.6-.01,5.22.09,7.8.32l.37.03v-3.42l-.31-.03c-1.5-.13-3.03-.22-4.54-.27ZM214.58,143.63v-8.83c.37.06.75.13,1.12.2l.4.07v-3.06l-.28-.05c-1.99-.37-4.01-.66-6.03-.89l-.38-.04v3.06l.3.03c.41.05.82.09,1.23.15v8.84c-.43-.05-.86-.1-1.3-.15l-.38-.04v3.12l.3.03c2.09.23,4.19.54,6.25.92l.4.07v-3.12l-.28-.05c-.45-.08-.91-.16-1.36-.24ZM225.33,134.27l-.44-.13v7.3c-1.95-2.99-3.96-5.97-5.98-8.87l-.08-.11-.13-.03c-.3-.07-.61-.13-.91-.2l-.41-.09v15.13l.27.06c.96.2,1.94.42,2.9.66l.42.1v-7.25c2.03,2.95,4.05,5.98,6,9.01l.06.1.11.04c.28.09.56.19.84.29l.45.15v-15.15l-.23-.08c-.95-.33-1.92-.64-2.89-.94ZM237.73,150.68c-1.44-.7-2.91-1.36-4.38-1.97v-2.54c1.22.51,2.44,1.06,3.64,1.63l.48.23v-3.43l-.19-.09c-1.29-.62-2.61-1.21-3.93-1.76v-2.17c1.33.56,2.65,1.16,3.95,1.78l.49.23v-3.43l-.19-.09c-2.38-1.15-4.83-2.19-7.29-3.11l-.46-.17v15.06l.22.08c2.49.93,4.97,1.99,7.36,3.15l.49.24v-3.54l-.19-.09Z"/></svg>