<?xml version="1.0" encoding="UTF-8"?><svg id="a" xmlns="http://www.w3.org/2000/svg" width="400" height="400" viewBox="0 0 400 400"><path d="M257.33,191.53c-1.75-1.27-3.62-2.38-5.53-3.4-1.2-.65-2.55-1.03-3.82-1.53-.26,1.36-.68,2.71-.74,4.08-.21,4.5-.28,9-.41,13.62-3.68,0-7.02.02-10.37,0-7.42-.06-14.84-.19-22.27-.21-2.75,0-3.28,1-1.99,3.42.43.81.95,1.58,1.46,2.34,2.54,3.82,5.13,7.59,7.61,11.44,3.66,5.67,7.22,11.4,10.86,17.08,2.22,3.48,4.49,6.93,7.06,10.88-1.16,0-1.79,0-2.42,0-5.39.02-10.78.02-16.17.11-.61.01-1.55.37-1.74.81-.21.5.19,1.34.51,1.92.23.43.75.71,1.16,1.03,1.97,1.54,3.87,3.17,5.93,4.57.96.66,2.22,1.2,3.36,1.24,3.74.12,7.49,0,11.24-.08,3.06-.06,6.14-.03,9.17-.33,2.32-.23,2.69-1.27,1.48-3.2-2.32-3.72-4.63-7.43-6.97-11.14-5.1-8.1-10.22-16.19-15.3-24.3-1.51-2.41-2.92-4.88-4.47-7.49.66-.08,1.04-.16,1.42-.16,9.78-.03,19.56-.11,29.34-.03,1.76.01,2.51-.79,2.57-2.22.23-5.38.39-10.76.41-16.15,0-.78-.7-1.8-1.38-2.3ZM196.05,211.3c-.93-1.53-2.04-1.55-3.04-.1-.89,1.3-1.66,2.68-2.55,3.99-7.41,10.84-14.85,21.66-22.23,32.53-.74,1.09-1.57,1.31-2.8,1.31-6.1,0-12.21.08-18.31.2-.61.01-1.22.52-1.82.8.31.66.46,1.49.96,1.93,1.52,1.35,3.18,2.54,4.77,3.81,1.83,1.46,3.85,2.08,6.22,1.94,2.76-.16,5.53-.04,8.29-.04v.22c3.22,0,6.44-.09,9.65.04,1.53.06,2.48-.49,3.26-1.71,1.52-2.38,3.07-4.74,4.64-7.08,5.98-8.96,11.98-17.9,17.9-26.9.36-.55.42-1.66.12-2.23-1.59-2.95-3.31-5.82-5.05-8.69ZM217.19,188.88s0,.08,0,.12c1.64,0,3.29.11,4.91-.05.72-.07,1.65-.49,2.05-1.05,4.1-5.78,8.12-11.62,12.14-17.46,4.64-6.74,9.22-13.51,13.88-20.23.83-1.19.7-1.98-.43-2.81-2.16-1.6-4.28-3.27-6.43-4.88-1.66-1.24-2.79-1.1-4,.58-1.91,2.67-3.76,5.38-5.63,8.07-4.79,6.89-9.57,13.79-14.36,20.68-2.99,4.3-6.05,8.57-8.96,12.93-.51.76-.83,2.12-.48,2.83.35.68,1.64,1.11,2.57,1.22,1.55.2,3.14.06,4.72.06ZM149.22,213c5.3.02,10.6.01,15.91.01v.18c.85,0,1.75-.17,2.55.03,4.42,1.07,7.48-.47,9.23-4.63.33-.8.98-2.04.68-2.4-.61-.73-1.77-1.38-2.71-1.4-10.75-.23-21.51-.34-32.27-.42-.75,0-1.51.43-2.27.67.28.76.35,1.75.89,2.24,2.07,1.9,4.27,3.67,6.47,5.43.36.28,1,.3,1.51.3ZM192.18,177.38c2.23,3.7,2.57,3.75,5.09.22.08-.11.14-.23.23-.32.73-.81.61-1.47.04-2.43-4.42-7.38-8.97-14.68-13-22.27-2.48-4.67-5.93-7.84-10.68-9.81-.52-.22-1.08-.31-1.63-.47-.2.14-.39.28-.59.42.62,1.27,1.14,2.6,1.87,3.81,6.21,10.29,12.47,20.55,18.67,30.84Z"/></svg>