<?xml version="1.0" encoding="UTF-8"?><svg id="a" xmlns="http://www.w3.org/2000/svg" width="400" height="400" viewBox="0 0 400 400"><defs><style>.b{fill:#231f20;}.c{fill:#929497;}.d{fill:#ec1c24;}</style></defs><path class="d" d="M199.75,236.53c.19-.19.37-.38.55-.58.07-.08.14-.16.21-.24.14-.16.28-.31.42-.47.07-.08.14-.16.21-.25.14-.17.29-.34.43-.51.06-.07.11-.14.17-.21.18-.23.37-.46.55-.7,0-.01.02-.02.02-.03,4.32-5.72,6.91-13.17,7.17-20.76,0-.05,0-.11,0-.16,0-.12,0-.24,0-.36,0-.24,0-.48,0-.72,0-11.67-5.15-19.21-13.13-19.21h0c-7.72,0-13.53,6.57-13.53,15.29,0,1.08.09,2.09.25,3.03.37,2.18,1.13,3.99,2.14,5.44,1.92,2.73,4.75,4.13,7.56,4.13,1.79,0,3.42-.45,4.72-1.26-1.04-.3-2.09-.59-3.13-.86-.06-.02-.13-.03-.19-.05-2.71-.74-4.62-3.47-5.67-6.84-.62-1.99-.94-4.2-.94-6.36,0-6.67,3.11-10.99,7.92-10.99,6.39,0,8.66,8.81,8.66,17.06,0,.31,0,.62,0,.92-.01.89-.05,1.76-.09,2.62,0,0,0,0,.01,0-.12,2.24-.35,4.35-.69,6.33,0,0,0,0,0,0-.98,5.61-2.89,10.21-5.8,13.98-.04.05-.07.09-.11.14-.1.13-.21.27-.32.4-.05.06-.1.12-.15.18-.16.19-.32.38-.49.57-.09.1-.18.2-.27.3-.08.08-.15.17-.23.25-.11.12-.23.24-.34.36-.06.06-.12.12-.17.18-.17.18-.35.35-.53.52-.05.05-.11.1-.16.15-.14.13-.28.27-.43.4-.06.05-.11.1-.17.16-.19.17-.39.34-.58.51,0,0,0,0,0,0-.88.73-1.84,1.42-2.87,2.07-2.07,1.29-4.45,2.4-7.11,3.32-.02.03-.03.06-.04.11,0,.04-.02.09-.02.15,0,.05,0,.11.01.18,0,.02,0,.05.01.07.04.19.11.35.2.45.03.03.05.06.08.08h0c2.41-.51,5.43-1.56,8.48-3.23,2.53-1.39,5.08-3.2,7.33-5.48.03-.03.05-.06.08-.08Z"/><path class="b" d="M263.2,214.42c-1.17.38-1.96.56-2.5.56-2.04,0-2.04-2.58-2.04-7.26v-26.34l.15-6.58s.02-.57.03-.75c-.06-.09-.15-.15-.27-.16-2.14,1.11-4.86,1.99-6.36,2.47-.03.03-.08.15-.08.33,0,.19.05.32.08.34l.6.36c1.93,1.16,2.01,1.66,2.01,5.24v9.06c0,.31,0,1.14-.66,1.14h-.05l-.05-.02c-.43-.16-1.68-.52-3.92-.52-8.37,0-14.22,5.55-14.22,13.5,0,6.4,4.64,11.22,10.8,11.22,2.86,0,4.88-.99,7.39-2.71l.08-.05h.52l.08.17c.14.29.15.88.15,1.99v1.02c0,.1.16.17.33.17,1.71-.66,5.3-1.53,7.82-1.9.09-.06.18-.24.21-.55,0-.07,0-.13,0-.19,0-.28-.06-.47-.11-.55ZM254.82,210.54c0,1.16-.09,2.01-.51,2.43-.99.99-3.11,1.77-4.83,1.77-6.35,0-9.24-5.66-9.24-10.92,0-4.94,2.68-10.26,8.58-10.26,2.5,0,4.37,1.37,5.29,2.65.46.66.71,1.26.71,2.51v11.82Z"/><path class="b" d="M216.48,192.32c.21.05.27.1.29.15-.11.96-.17,2.15-.17,5.17v10.02c0,3.74.71,7.2,5.88,7.2,1.75,0,3.74-.74,5.06-1.87.94-.87,1.3-1.9,1.3-3.71v-9.84c0-3.91-.45-4.24-2.34-4.99l-.85-.33c-.05-.03-.12-.19-.12-.35,0,0,0-.01,0-.02,0-.14.06-.29.18-.37,2.37-.07,5.52-.48,6.91-1.06.16.05.22.1.23.15-.11,1.13-.18,2.91-.18,5.17v10.08c0,4.49.1,6.84,2.16,6.84.61,0,1.33-.09,2.2-.27.07.12.13.31.13.56,0,.06,0,.12,0,.18-.03.22-.1.35-.16.39-.11.02-.78.16-.78.16-2.3.46-5.14,1.03-6.99,2.03-.16-.01-.3-.1-.38-.21v-2.36c0-1.03-.59-1.14-.84-1.14h-.09l-.33.21c-1.82,1.16-4.57,2.91-7.86,2.91-4.81,0-6.96-2.22-6.96-7.2v-10.02c0-3.83,0-4.52-1.98-5.38,0,0-.49-.2-.65-.27-.07-.07-.12-.21-.12-.37,0-.04,0-.08,0-.12.02-.15.09-.25.16-.3,3.27-.09,5.57-.8,6.32-1.06Z"/><path class="b" d="M173.37,177.4c1.93,1.16,2.01,1.66,2.01,5.24v27.12c0,.22,0,.42,0,.62,1.28,0,2.56.01,3.84.06,0-.22,0-.44,0-.68v-28.38l.15-6.6s.02-.55.03-.73c-.06-.09-.15-.15-.27-.16-2.14,1.11-4.86,1.99-6.36,2.47-.03.03-.08.15-.08.33,0,.19.05.32.08.34l.6.36Z"/><path class="b" d="M146.42,215.46c1.01-.38,2.04-.74,3.08-1.08-6.54-2.84-10.58-9.52-10.58-18.36,0-11.26,6.78-18.54,17.28-18.54,6.98,0,11.19,2.98,12.55,8.85.15.11.39.17.64.14.18-.02.31-.09.41-.17-.43-3.31-.72-6.78-.81-8.39-.42,0-.8-.1-1.32-.23,0,0-.15-.04-.15-.04-2.94-.81-7.48-1.43-10.54-1.43-6.26,0-11.8,1.74-16.02,5.04h0c-4.73,3.67-7.44,9.38-7.44,15.66,0,6.76,2.98,12.53,8.39,16.25,1.39.93,2.9,1.69,4.51,2.29Z"/><path class="c" d="M182.85,210.95c-3.9-.29-7.78-.35-11.53-.17-10.25.49-19.75,2.65-28.31,6.4,13.61-3.43,27.27-3.94,41.63-1.48-.86-1.38-1.46-2.97-1.79-4.75Z"/><path class="c" d="M203.76,214.76s0-.04.01-.07c-4.91-1.41-9.89-2.45-14.79-3.11,1.15,3.36,3.01,5.55,5.3,6.18,2.92.76,5.89,1.64,8.87,2.64.29-1.77.5-3.67.61-5.64Z"/><path class="c" d="M253.81,245.88h0c-9.83-11.25-22.75-20.48-37.35-26.7-2.22-.94-4.57-1.85-6.98-2.68-.26,1.92-.66,3.84-1.21,5.71,0,0,0,.01,0,.02,1.96.74,3.93,1.53,5.9,2.37,25.12,10.69,43.01,25.75,54.61,45.96-3.23-8.71-8.25-16.99-14.96-24.67Z"/></svg>