<?xml version="1.0" encoding="UTF-8"?><svg id="a" xmlns="http://www.w3.org/2000/svg" width="400" height="400" viewBox="0 0 400 400"><defs><style>.b{fill:#387856;}.c{fill:#5baf41;}</style></defs><path class="b" d="M254.14,201.94c6.85.63,8.68,2.73,8.68,9.18,0,7.96-2.69,9.26-14.73,9.26h-10.98c-8.24,0-11.55-1.55-11.55-7.96v-1.4c0-.35.29-.64.64-.64h7.78c.35,0,.62.26.65.61.19,2.59,1.47,2.77,3.91,2.77h11.1c1.92,0,3.88-.2,3.88-2.49,0-2.57-1.06-2.73-12.73-2.73-10.34,0-13.72-.94-14.76-4.57l-15.65,1.13v2.47c0,.35-.29.64-.64.64h-15.74c-.35,0-.64.29-.64.64v3.46c0,.35.29.64.64.64h16.38c1.96,0,2.7-1.94,2.7-1.94.13-.33.51-.59.87-.59h6.04c.35,0,.64.29.64.64v8.36c0,.35-.29.64-.64.64h-35.05c-.35,0-.64-.29-.64-.64v-12.41l-5.57.41c-1.01,2.88-3.29,5.22-7.65,5.22h-19.2c-.35,0-.64.29-.64.64v6.15c0,.35-.29.64-.64.64h-10.32c-.35,0-.64-.29-.64-.64v-3.22c0-.35.27-.74.59-.87,0,0,1.94-.75,1.94-2.7v-2.56l-21.43,1.56v27.97l159.7-11.59v-27.97l-26.33,1.91Z"/><path class="c" d="M166.4,197.86h-14.51c-.35,0-.64.29-.64.64v6.15c0,.35.29.64.64.64h15.29c2.12,0,2.94-1.39,2.94-3.14v-1.14c0-2-.98-3.14-3.71-3.14ZM120.77,182.23v29.39l21.43-1.56v-9.83c0-1.96-1.94-2.7-1.94-2.7-.33-.13-.59-.52-.59-.86v-5.51c0-.35.29-.64.64-.64h28.43c8.61,0,10.69,4.33,10.69,10.12v2.53c0,1.41-.2,2.89-.68,4.25l5.57-.41v-15.86c0-.35.29-.64.64-.64h34.51c.35,0,.64.29.64.64v8.11c0,.35-.29.64-.64.64h-5.51c-.35,0-.74-.27-.87-.59,0,0-.74-1.91-2.66-1.94h-16.42c-.35,0-.64.29-.64.64v3.46c0,.35.29.64.64.64h15.74c.35,0,.64.29.64.64v2.38l15.65-1.13c-.33-1.15-.42-2.58-.42-4.33,0-5.34.49-9.47,11.91-9.47h12.65c10.44,0,11.42,3.55,11.42,8.73v.3c0,.35-.29.64-.64.64h-7.78c-.35,0-.62-.27-.65-.61,0,0-.23-2.45-4.4-2.45h-10.04c-2.04,0-3.43.69-3.43,2.28,0,2.33.9,2.61,8.29,2.62.78,0,1.62,0,2.52,0,3.52-.01,6.37.04,8.66.24l26.33-1.91v-29.39l-159.7,11.59Z"/></svg>