<?xml version="1.0" encoding="UTF-8"?><svg id="a" xmlns="http://www.w3.org/2000/svg" width="400" height="400" viewBox="0 0 400 400"><defs><style>.b{fill:#ff006e;}</style></defs><path class="b" d="M81.92,157.02c.11-.49.35-.92.7-1.28.28.1.62.26.99.43,1.1.52,2.62,1.24,4.63,1.24,3.86,0,7.85-2.7,7.85-7.23,0-2.77-1.84-5.32-5.04-6.99l-3.54-1.81c-1.74-.88-2.67-2.36-2.67-3.31,0-1.58,1.28-2.44,2.48-2.44,3.55,0,4.57,3.18,4.8,5.84l.04.47h2.05v-9.14h-1.95l-.09.39c-.12.5-.37.88-.62,1.15-1.01-.7-2.31-1.36-4.46-1.36-3.82,0-6.93,2.71-6.93,6.05,0,3.94,2.12,5.82,5.29,7.43l3.51,1.85c1.47.75,2.45,2.06,2.45,3.27,0,2-1.16,3.14-3.18,3.14-2.97,0-5.67-2.59-6.28-6.03l-.08-.42h-2.05v9.14h1.99l.09-.4ZM87.76,168.87c-7.08,0-12.84,5.48-12.84,12.21s5.76,12.21,12.84,12.21,12.8-5.48,12.8-12.21-5.74-12.21-12.8-12.21ZM87.76,190.49c-4.69,0-6.83-4.88-6.83-9.41s2.14-9.41,6.83-9.41c3.29,0,6.83,2.95,6.83,9.41s-3.54,9.41-6.83,9.41ZM91.06,214.94l-3.54-1.81c-1.74-.88-2.67-2.36-2.67-3.31,0-1.58,1.28-2.44,2.48-2.44,3.55,0,4.57,3.18,4.8,5.84l.04.47h2.05v-9.14h-1.95l-.09.39c-.12.5-.37.88-.62,1.15-1.01-.7-2.31-1.36-4.46-1.36-3.82,0-6.93,2.71-6.93,6.05,0,3.94,2.12,5.82,5.29,7.43l3.51,1.85c1.47.75,2.45,2.06,2.45,3.27,0,2-1.16,3.14-3.18,3.14-2.97,0-5.67-2.59-6.28-6.03l-.08-.42h-2.05v9.14h1.99l.09-.4c.11-.49.35-.92.7-1.28.28.1.62.26.99.43,1.1.52,2.62,1.24,4.63,1.24,3.86,0,7.85-2.7,7.85-7.23,0-2.77-1.84-5.32-5.04-6.99ZM128.67,151.76l-8.18-18.76h-1.45l-8.14,18.76c-1.07,2.45-1.75,2.94-4.07,2.94h-.51v2.09h9.95v-2.09h-.51c-1.43,0-2.28-.19-2.52-.55-.17-.26-.1-.78.23-1.54l1.38-3.19h6.71l1.41,3.2c.34.79.43,1.3.27,1.55-.16.24-.74.54-2.57.54h-.51v2.09h13.05v-2.09h-.51c-2.63,0-3.03-.66-4.03-2.94ZM116.03,146.73l2.21-5.12,2.18,5.12h-4.39ZM113.94,190.57h-.51v2.09h12.68v-2.09h-.51c-2.65,0-3.03-.24-3.03-3.8v-11.36c0-3.57.38-3.81,3.03-3.81h.51v-2.1h-12.68v2.1h.51c2.62,0,2.99.24,2.99,3.81v11.36c0,3.57-.38,3.8-2.99,3.8ZM119.11,205.37h-12.69v2.1h.51c2.62,0,2.99.24,2.99,3.8v11.36c0,3.57-.38,3.8-2.99,3.8h-.51v2.09h12.69c8.01,0,12.8-4.33,12.8-11.58s-4.78-11.58-12.8-11.58ZM119.22,225.84h-.63c-2.65,0-3.03-.23-3.03-3.66v-14.14h3.66c5.52,0,6.68,4.84,6.68,8.9s-1.16,8.9-6.68,8.9ZM162.43,150.56h-2.01l-.28,1.13c-.42,1.71-.59,2.41-3.78,2.41h-3.32c-2.65,0-3.03-.24-3.03-3.8v-4.4h1.52c3.56,0,3.77.34,3.77,3.03v.51h2.09v-9.77h-2.09v.51c0,2.65-.23,3.03-3.77,3.03h-1.52v-6.91h5.13c3.14,0,3.32.66,3.78,2.42l.28,1.13h2.01l-.35-6.23h-20v2.1h.51c2.62,0,2.99.24,2.99,3.8v11.36c0,3.57-.38,3.8-2.99,3.8h-.51v2.09h21.22l.35-6.23ZM154.91,115.48c-1.91,0-2.19-.39-2.19-2.7v-7.49c0-2.31.28-2.67,2.19-2.67v-.48h-6.23v.48c1.91,0,2.19.37,2.19,2.67v7.49c0,2.31-.28,2.7-2.19,2.7v.48h6.23v-.48ZM158.83,190.26c2.93-2.4,5.16-5.44,5.16-9.36s-2.24-6.96-5.14-9.36l-.55.48c1.29,1.43,4.1,4.5,4.1,8.88s-2.81,7.45-4.1,8.88l.53.48ZM144.79,190.26l.51-.48c-1.29-1.43-4.08-4.5-4.08-8.88s2.79-7.45,4.08-8.88l-.53-.48c-2.91,2.4-5.16,5.44-5.16,9.36s2.26,6.96,5.19,9.36ZM151.5,187.21c-1.25,0-1.87-.48-2.26-.9-.55-.55-.69-1.36-1.22-1.36-.39,0-.6.21-.6.53,0,.9,1.52,2.61,4.27,2.61s4.59-1.75,4.59-3.85c0-1.78-1.36-3.18-3.6-3.64l1.06-.81s2.12-1.38,2.12-3.23-2.14-3.09-4.4-3.09c-4.01,0-5.44,3.48-2.67,5.16l.69-.71c-1.2-2.08.62-3.46,1.98-3.46,1.5,0,2.51.78,2.51,2.1,0,1.2-.69,2.31-1.52,2.95l-1.71,1.34c-.35.25-.6.55-.6.88,0,.35.28.51.48.51.46,0,.81-.69,1.27-1.06,1.71.37,2.33,1.75,2.33,3.07,0,1.66-.81,2.97-2.72,2.97ZM240.85,279.15c-2.91,2.4-5.16,5.44-5.16,9.36s2.26,6.96,5.19,9.36l.51-.48c-1.29-1.43-4.08-4.5-4.08-8.88s2.79-7.45,4.08-8.88l-.53-.48ZM254.94,279.15l-.55.48c1.29,1.43,4.1,4.5,4.1,8.88s-2.81,7.45-4.1,8.88l.53.48c2.93-2.4,5.16-5.44,5.16-9.36s-2.24-6.96-5.14-9.36ZM248.76,288.21l1.06-.81s2.12-1.38,2.12-3.23-2.14-3.09-4.4-3.09c-4.01,0-5.44,3.48-2.67,5.16l.69-.71c-1.2-2.08.62-3.46,1.98-3.46,1.5,0,2.51.78,2.51,2.1,0,1.2-.69,2.31-1.52,2.95l-1.71,1.34c-.35.25-.6.55-.6.88,0,.35.28.51.48.51.46,0,.81-.69,1.27-1.06,1.71.37,2.33,1.75,2.33,3.07,0,1.66-.81,2.97-2.72,2.97-1.25,0-1.87-.48-2.26-.9-.55-.55-.69-1.36-1.22-1.36-.39,0-.6.21-.6.53,0,.9,1.52,2.61,4.27,2.61s4.59-1.75,4.59-3.85c0-1.78-1.36-3.18-3.6-3.64ZM144.92,243.27c-2.91,2.4-5.16,5.44-5.16,9.36s2.26,6.96,5.19,9.36l.51-.48c-1.29-1.43-4.08-4.5-4.08-8.88s2.79-7.45,4.08-8.88l-.53-.48ZM152.97,257.89h-3.46l3.04-3.48c1.84-2.1,3-3.53,3-5.37,0-1.96-1.52-3.83-4.27-3.83-4.24,0-5.35,3.48-2.44,5.16l.65-.71c-1.29-1.91,0-3.46,1.78-3.46s2.51,1.22,2.51,2.86c0,1.27-.88,3-2.65,5.23l-3.64,4.59v.55h8.14l.58-3.3h-.51c-.37,1.38-.69,1.75-2.72,1.75ZM158.71,243.27l-.55.48c1.29,1.43,4.1,4.5,4.1,8.88s-2.81,7.45-4.1,8.88l.53.48c2.93-2.4,5.16-5.44,5.16-9.36s-2.24-6.96-5.14-9.36ZM151.82,204.74c-7.08,0-12.84,5.48-12.84,12.21s5.76,12.21,12.84,12.21,12.8-5.48,12.8-12.21-5.74-12.21-12.8-12.21ZM151.82,226.36c-4.69,0-6.83-4.88-6.83-9.41s2.14-9.41,6.83-9.41c3.29,0,6.83,2.95,6.83,9.41s-3.54,9.41-6.83,9.41ZM193.15,150.56h-2.02l-.28,1.12c-.47,1.76-.64,2.42-3.78,2.42h-5.79l10.96-18.9.07-.12v-1.46h-17.34l-.4,6.19h2.02l.28-1.13c.42-1.68.59-2.38,3.78-2.38h4.46l-10.85,18.82-.07.12v1.54h18.56l.4-6.23ZM192.72,223.5l-8.18-18.76h-1.45l-8.14,18.76c-1.07,2.45-1.75,2.94-4.07,2.94h-.51v2.09h9.95v-2.09h-.51c-1.43,0-2.28-.19-2.52-.55-.17-.26-.1-.78.23-1.54l1.38-3.19h6.71l1.41,3.2c.34.79.43,1.3.27,1.55-.16.24-.74.54-2.57.54h-.51v2.09h13.05v-2.09h-.51c-2.63,0-3.03-.66-4.03-2.94ZM180.08,218.47l2.21-5.12,2.18,5.12h-4.39ZM218.46,154.7h-.51c-2.65,0-3.03-.24-3.03-3.8v-4.99h1.52c3.56,0,3.77.34,3.77,3.03v.51h2.09v-9.77h-2.09v.51c0,2.65-.23,3.03-3.77,3.03h-1.52v-6.91h5.76c3.15,0,3.33.71,3.75,2.42l.28,1.13h2.05l-.4-6.23h-20.59v2.1h.51c2.62,0,2.99.24,2.99,3.8v11.36c0,3.57-.38,3.8-2.99,3.8h-.51v2.09h12.68v-2.09ZM219.34,207.46h.51c1.43,0,2.28.19,2.52.55.17.26.1.78-.23,1.53l-4.73,10.9-4.7-10.9c-.34-.79-.43-1.3-.27-1.55.16-.24.74-.54,2.57-.54h.51v-2.1h-13.13v2.1h.51c2.66,0,3.03.61,4.03,2.94l8.18,18.76h1.45l8.14-18.76c1.07-2.44,1.75-2.94,4.07-2.94h.51v-2.1h-9.95v2.1ZM288.4,134.43c-.13.53-.28,1.09-.49,1.46-1.94-1.87-4.35-2.89-6.83-2.89-6.53,0-11.84,5.48-11.84,12.21s5.31,12.21,11.84,12.21c2.45,0,4.86-1.02,6.83-2.9.23.43.4,1.1.49,1.48l.1.39h1.95v-9.14h-2l-.09.41c-.92,4.37-3.59,6.97-7.14,6.97-1.8,0-5.98-.92-5.98-9.41s4.18-9.41,5.98-9.41c3.56,0,6.23,2.61,7.14,6.97l.09.41h2v-9.14h-1.95l-.09.39ZM273.56,207.46h.51c2.62,0,2.99.24,2.99,3.8v11.36c0,3.57-.38,3.8-2.99,3.8h-.51v2.09h12.68v-2.09h-.51c-2.65,0-3.03-.24-3.03-3.8v-11.36c0-3.57.38-3.8,3.03-3.8h.51v-2.1h-12.68v2.1ZM315.16,133.63v2.1h.51c2.65,0,3.03.24,3.03,3.8v7.89l-11.57-13.79h-8.13v2.1h.51c2.62,0,2.99.24,2.99,3.8v11.36c0,3.57-.38,3.8-2.99,3.8h-.51v2.09h9.73v-2.09h-.51c-2.65,0-3.03-.24-3.03-3.8v-10.8l14.52,17.33h1.67v-17.89c0-3.57.38-3.8,3.03-3.8h.51v-2.1h-9.77Z"/></svg>