<?xml version="1.0" encoding="UTF-8"?><svg id="a" xmlns="http://www.w3.org/2000/svg" width="400" height="400" viewBox="0 0 400 400"><defs><style>.b{fill:#fff;}</style></defs><path class="b" d="M177.16,214.74c-1.61,0-3.1,0-4.58,0-.19,0-.38.09-.57.15.11.19.18.43.34.56.54.45,1.14.82,1.65,1.3.37.34.74.52,1.24.49.49-.03.99-.05,1.48-.06.97,0,1.95-.01,2.92,0,.4,0,.56-.21.57-.57,0-.29,0-.58,0-.87.05-3.49.12-6.98.16-10.46.05-3.82.1-7.64.13-11.46,0-.31.12-.37.39-.37,2.75.03,5.5.06,8.25.09.39,0,.62-.17.64-.57.04-1.25.09-2.49.08-3.74,0-.23-.2-.54-.4-.69-.61-.47-1.25-.89-1.9-1.3-.2-.12-.52-.25-.68-.17-.16.08-.24.42-.25.65-.03,1.04-.03,2.09-.02,3.13,0,.39-.11.61-.54.6-1.14-.03-2.28-.04-3.42-.05-1.64-.02-3.28-.03-4.92-.05-.28,0-.4.1-.4.39,0,1.41-.04,2.82-.05,4.23-.01,2.08,0,4.16-.02,6.24-.02,2.34-.07,4.68-.09,7.02-.01,1.79,0,3.58,0,5.53"/><path class="b" d="M253.25,209.36h-.13c0,1.67,0,3.34,0,5.02,0,.31-.09.42-.41.42-1.33-.02-2.67-.03-4-.02-.21,0-.41.16-.62.25.09.19.14.41.27.55.51.53,1.04,1.04,1.58,1.54.12.11.33.19.5.19.95,0,1.91,0,2.86-.02.75-.01,1.5-.04,2.26-.06.4-.01.56-.23.56-.63-.01-.8,0-1.6.02-2.39.03-3.09.07-6.18.11-9.26.04-3.55.09-7.11.12-10.66.02-1.86.02-3.73-.01-5.59,0-.2-.18-.48-.35-.58-.52-.29-1.07-.51-1.62-.74-.92-.4-.94-.4-.95.61-.06,4.33-.11,8.67-.15,13-.02,2.8,0,5.6,0,8.39"/><path class="b" d="M239.94,214.84c-.47.04-.8.08-1.13.09-1.18.01-2.36,0-3.54.02-.14,0-.35.11-.41.23-.06.11,0,.36.08.45.77.77,1.59,1.46,2.78,1.43,1.52-.04,3.04-.04,4.55-.08.23,0,.53-.12.64-.29.08-.12-.06-.44-.18-.63-.4-.61-.87-1.17-1.01-1.93-.23-1.31-.47-2.62-.75-3.92-.53-2.43-1.59-4.57-3.48-6.23-.06-.05-.11-.11-.11-.12.72-.51,1.47-.94,2.1-1.5,1.32-1.15,1.95-2.67,2.24-4.38.39-2.31.31-4.5-1.31-6.39-.92-1.07-2.06-1.84-3.3-2.47-.14-.07-.37.04-.56.07.04.17.03.37.12.49.32.44.74.81,1.02,1.28,1.1,1.83,1.37,3.83.81,5.86-.74,2.66-2.33,4.57-5.15,5.24-.23.05-.43.23-.64.34,0,.07.01.14.02.21.33.07.66.19.99.2,1.31.06,2.19.81,2.78,1.85.97,1.72,1.3,3.66,1.74,5.55.29,1.28.42,2.61,1.15,3.75.16.26.32.51.56.89"/><path class="b" d="M127.83,215.01s-.05.09-.07.14c.09.11.18.23.28.33.54.55,1.11,1.07,1.63,1.64.28.31.56.36.95.33,1.54-.12,3.07-.22,4.61-.31.59-.03.81-.3.62-.85-.65-1.94-1.31-3.88-1.98-5.81-.7-2.02-1.41-4.03-2.11-6.04-.21-.6-.42-1.19-.62-1.79-.2-.6-.4-1.2-.6-1.79-.21-.61-.46-1.21-.64-1.83-.16-.56-.45-1.06-.58-1.64-.15-.7-.5-1.36-.74-2.06-.74-2.2-1.47-4.39-2.18-6.6-.11-.34-.28-.54-.61-.68-.63-.26-1.24-.58-1.86-.86-.2-.09-.43-.13-.74-.22,3.25,9.32,6.45,18.53,9.69,27.81-1.75.08-3.4.15-5.04.23"/><path class="b" d="M287.57,214.86c-.3,0-.46,0-.63,0-1.4,0-2.8,0-4.21.03-.16,0-.4.1-.45.21-.05.13.05.35.13.5.06.11.2.19.3.27.51.4,1.01.82,1.54,1.19.25.17.58.31.87.32.97.03,1.95,0,2.92-.02.8-.02,1.6,0,2.39-.09.6-.06.7-.33.39-.83-.6-.97-1.21-1.93-1.81-2.9-1.33-2.11-2.66-4.21-3.98-6.32-.39-.63-.76-1.27-1.16-1.95.17-.02.27-.04.37-.04,2.54,0,5.09-.03,7.63,0,.46,0,.65-.2.67-.58.06-1.4.1-2.8.11-4.2,0-.2-.18-.47-.36-.6-.45-.33-.94-.62-1.44-.88-.31-.17-.66-.27-.99-.4-.07.35-.18.7-.19,1.06-.05,1.17-.07,2.34-.11,3.54-.96,0-1.83,0-2.7,0-1.93-.02-3.86-.05-5.79-.05-.72,0-.85.26-.52.89.11.21.25.41.38.61.66.99,1.33,1.98,1.98,2.98.95,1.48,1.88,2.96,2.82,4.44.58.91,1.17,1.8,1.84,2.83"/><path class="b" d="M154.61,200.48c-.04.07-.09.14-.13.21.21.2.4.41.63.59,2.06,1.61,3.12,3.68,2.9,6.33-.11,1.31-.69,2.44-1.38,3.54-1.13,1.79-2.69,2.97-4.73,3.52-1.21.33-2.43.51-3.69.58-1.7.1-3.34-.16-4.97-.55-.21-.05-.46.03-.69.05.12.2.24.41.37.61.03.05.11.07.18.1,1.14.49,2.26,1.07,3.43,1.46,2.76.91,5.56.85,8.26-.17,2.92-1.1,4.95-3.15,5.82-6.23.46-1.6.31-3.19-.12-4.76-.29-1.07-1-1.88-1.8-2.63-1-.94-2.01-1.85-3.28-2.42-.25-.11-.54-.15-.8-.23"/><path class="b" d="M199.6,193.77c.23-.03.32-.04.4-.04,2.09,0,4.17,0,6.26,0,2.15,0,4.3-.02,6.46-.02.42,0,.63-.16.63-.61,0-1.33,0-2.67.02-4,0-.38-.13-.66-.47-.84-.62-.33-1.22-.68-1.85-1-.52-.26-.72-.13-.75.44,0,.14.01.27.01.41,0,1.1,0,2.19,0,3.3-.83,0-1.54,0-2.26,0-1.83,0-3.65,0-5.48-.01-1.79,0-3.58-.03-5.37-.05-.37,0-.53.19-.53.54-.03,2.29-.07,4.58-.1,6.87,0,.32.15.48.46.49.67.02,1.33.04,2,.05.34,0,.54-.16.53-.53,0-.48.03-.96.03-1.43,0-1.18,0-2.35,0-3.56"/><path class="b" d="M225.78,206.11c1.98.05,3.89.11,5.8.15.73.02.96-.4.58-1.03-.5-.84-1.21-1.3-2.23-1.26-.9.03-1.81-.03-2.71-.03-1.24,0-2.49,0-3.73-.01-.42,0-.64.17-.65.61-.08,2.55-.16,5.09-.24,7.64-.03.81-.06,1.62-.1,2.5-1.54,0-3,0-4.47.01-.17,0-.34.16-.51.24.08.16.12.36.24.47.65.55,1.32,1.09,2,1.6.18.13.44.21.66.21,1.42,0,2.84-.05,4.25-.05.48,0,.7-.23.72-.68.07-1.66.12-3.31.18-4.97.07-1.77.14-3.55.21-5.39"/><path class="b" d="M126.83,210.33c-.21-.69-.44-1.27-.55-1.87-.1-.54-.38-.63-.85-.61-1.55.05-3.1.08-4.65.11-1.92.04-3.83.07-5.75.14-.22,0-.55.19-.62.38-.78,1.95-1.52,3.91-2.25,5.87-.1.28-.23.37-.52.36-1.13-.04-2.26-.07-3.39-.08-.43,0-.86.04-1.42.07.18.25.26.38.35.49.51.56,1,1.13,1.54,1.65.17.17.47.29.7.29,1.5,0,3.01-.05,4.52-.06.87,0,.89.02,1.17-.81.63-1.83,1.26-3.65,1.86-5.49.1-.3.26-.4.55-.4,2.56,0,5.13-.03,7.69-.04.5,0,1.01,0,1.61,0"/><path class="b" d="M199.66,205.01c1.18,0,2.25,0,3.32,0,2.77,0,5.54-.01,8.31-.01.27,0,.42-.08.42-.38.04-1.4.08-2.8.12-4.2,0-.14-.04-.35-.14-.41-.74-.42-1.48-.86-2.27-1.18-.61-.25-.81-.05-.8.6,0,1.11,0,2.21,0,3.36-.3,0-.45,0-.6,0-1.98.01-3.97.03-5.95.04-1.57,0-3.14,0-4.72-.02-.36,0-.47.14-.47.5,0,1.01-.05,2.01-.08,3.01-.04,1.42-.1,2.84-.12,4.26,0,.15.18.43.29.44.73.04,1.47.04,2.2,0,.14,0,.36-.25.39-.4.08-.47.09-.95.09-1.43.01-1.37,0-2.73,0-4.17"/><path class="b" d="M191.61,214.79c-.04.08-.08.16-.12.25.17.1.36.19.52.31.59.44,1.19.87,1.76,1.34.38.31.76.48,1.29.47,2.32-.03,4.64,0,6.96,0,1.68,0,3.35-.05,5.03-.07,1.73-.02,3.45,0,5.18-.03.78-.01.89-.13.92-.89.03-1.26.05-2.53.04-3.79,0-.22-.09-.53-.25-.63-.67-.43-1.38-.82-2.09-1.19-.31-.16-.59-.13-.61.35-.03,1.14-.12,2.29-.14,3.43,0,.37-.11.47-.47.47-2.1-.02-4.19-.03-6.29-.05-3.67-.03-7.34-.06-11.02-.09-.23,0-.47.08-.71.12"/><path class="b" d="M268.41,217.05v.06c.84,0,1.68-.02,2.51,0,.4.02.65-.13.85-.45.4-.62.8-1.23,1.21-1.84,1.56-2.33,3.12-4.66,4.66-7,.09-.14.11-.43.03-.58-.41-.77-.86-1.51-1.31-2.26-.24-.4-.53-.4-.79-.03-.23.34-.43.7-.66,1.04-1.93,2.82-3.86,5.64-5.78,8.46-.19.28-.41.34-.73.34-1.59,0-3.18.02-4.76.05-.16,0-.32.14-.47.21.08.17.12.39.25.5.4.35.83.66,1.24.99.47.38,1,.54,1.62.51.72-.04,1.44,0,2.16,0"/><path class="b" d="M281.85,199.15s0,.02,0,.03c.43,0,.85.03,1.28-.01.19-.02.43-.13.53-.27,1.07-1.5,2.11-3.02,3.16-4.54,1.21-1.75,2.4-3.52,3.61-5.26.22-.31.18-.52-.11-.73-.56-.42-1.11-.85-1.67-1.27-.43-.32-.73-.29-1.04.15-.5.69-.98,1.4-1.46,2.1-1.25,1.79-2.49,3.59-3.74,5.38-.78,1.12-1.57,2.23-2.33,3.36-.13.2-.22.55-.12.74.09.18.43.29.67.32.4.05.82.01,1.23.01"/><path class="b" d="M225.72,193.49c.89,0,1.6-.02,2.32,0,1.7.05,3.4.11,5.11.16.15,0,.41-.04.43-.13.05-.15,0-.36-.09-.5-.12-.2-.32-.35-.48-.53-.76-.87-1.75-1.22-2.86-1.24-2.27-.05-4.54-.07-6.81-.11-.29,0-.44.1-.45.42-.02.79-.05,1.57-.07,2.35-.04,1.42-.07,2.84-.09,4.25,0,.58,0,1.16,0,1.74,0,.39.17.6.59.59.56-.01,1.13.02,1.69.03.68.01.81-.13.79-.81-.04-1.04-.08-2.09-.09-3.13-.02-1.02,0-2.04,0-3.09"/><path class="b" d="M117.41,204.59h0c.26,0,.51-.01.77.01.56.05.87-.18,1.07-.71.86-2.31,1.75-4.6,2.62-6.9.04-.12.03-.27,0-.39-.45-1.31-.9-2.61-1.37-3.91-.06-.15-.22-.26-.34-.39-.1.13-.23.25-.28.39-.58,1.62-1.16,3.24-1.73,4.86-.74,2.09-1.49,4.18-2.23,6.27-.17.48.02.76.52.78.32.01.65,0,.98,0"/><path class="b" d="M143.18,194.95c-.1,1.75,1.38,2.84,2.74,3.27.13.04.42-.03.44-.1.05-.16.03-.4-.06-.54-.92-1.36-.49-2.51.6-3.48.72-.64,1.56-1.07,2.51-1.2.84-.11,1.69-.09,2.54-.15.16-.01.32-.07.45-.16.04-.02.02-.23-.03-.3-.51-.68-1.12-1.27-1.93-1.56-1.36-.49-2.74-.48-4.12-.05-1.88.58-3.16,2.29-3.14,4.26"/><path class="b" d="M156.13,197.18c.32-.07.58-.1.82-.18.93-.33,1.85-.67,2.78-1.01,1.28-.46,1.31-.52.88-1.81-.01-.03-.03-.06-.04-.1-.64-1.6-1.75-2.84-3.01-3.96-.21-.19-.55-.24-.83-.36.01.27-.02.56.05.81.27.95.57,1.89.87,2.84.12.39-.02.59-.42.69-1.05.24-2.09.49-3.13.77-.19.05-.45.2-.49.35-.04.14.12.4.27.53.49.4.99.78,1.51,1.13.23.15.53.22.75.3"/><path class="b" d="M169,193.59v-.11c1.09,0,2.19.02,3.28-.02.16,0,.42-.29.45-.48.07-.38,0-.78,0-1.18,0-.39-.2-.52-.59-.52-1.65.02-3.3.02-4.95.02-1.17,0-2.35,0-3.52.02-.2,0-.4.18-.6.28.13.18.23.41.4.54.5.38,1.01.76,1.55,1.08.28.17.63.33.95.35,1.01.04,2.02.02,3.03.02"/><path class="b" d="M268.3,205.43v.05c.22,0,.46-.04.66,0,1.15.28,1.95-.12,2.4-1.21.09-.21.26-.53.18-.63-.16-.19-.46-.36-.71-.36-2.8-.06-5.6-.09-8.39-.11-.2,0-.39.11-.59.17.07.2.09.46.23.58.54.5,1.11.96,1.68,1.41.09.07.26.08.39.08,1.38,0,2.76,0,4.14,0"/><path class="b" d="M140.84,200.68s-.06.07-.1.11c.08.12.13.28.23.37.88.68,1.71,1.43,2.66,1.99,1.57.93,3.33,1.39,5.09,1.85,1.22.32,2.49.46,3.59,1.16.08.05.28.06.31.01.07-.09.11-.29.06-.36-.32-.39-.61-.85-1.02-1.12-1.36-.9-2.86-1.5-4.46-1.83-.43-.09-.86-.21-1.28-.36-1.57-.56-3.14-1.14-4.72-1.72-.12-.04-.25-.07-.37-.1"/><path class="b" d="M270.15,187.03c-.05.04-.1.07-.15.11.16.33.3.68.49.99,1.62,2.68,3.24,5.35,4.86,8.03.58.96.67.98,1.32.06.02-.03.04-.06.06-.08.19-.21.16-.38,0-.63-1.15-1.92-2.33-3.82-3.38-5.79-.64-1.21-1.54-2.04-2.78-2.55-.13-.06-.28-.08-.42-.12"/><path class="b" d="M141.75,206.17c-.47.02-.6.25-.44.67.59,1.6,1.51,2.98,2.82,4.07.41.34.94.55,1.43.78.11.05.28-.03.42-.08.01,0,0-.2-.04-.26-1-1.07-1.34-2.43-1.72-3.78-.06-.21-.26-.42-.45-.56-.25-.18-.54-.29-.82-.41-.42-.17-.86-.33-1.19-.46"/><path d="M177.16,214.74c0-1.95-.01-3.74,0-5.53.02-2.34.07-4.68.09-7.02.02-2.08,0-4.16.02-6.24,0-1.41.04-2.82.05-4.23,0-.3.12-.4.4-.39,1.64.02,3.28.03,4.92.05,1.14.01,2.28.03,3.42.05.44.01.55-.21.54-.6,0-1.04,0-2.09.02-3.13,0-.23.09-.57.25-.65.15-.08.48.05.68.17.65.41,1.29.83,1.9,1.3.2.15.4.46.4.69,0,1.25-.05,2.49-.08,3.74-.01.4-.25.58-.64.57-2.75-.03-5.5-.05-8.25-.09-.28,0-.39.06-.39.37-.03,3.82-.08,7.64-.13,11.46-.05,3.49-.11,6.98-.16,10.46,0,.29.01.58,0,.87-.01.36-.17.57-.57.57-.97,0-1.95,0-2.92,0-.49,0-.99.03-1.48.06-.49.03-.87-.15-1.24-.49-.51-.47-1.11-.85-1.65-1.3-.16-.13-.23-.37-.34-.56.19-.05.38-.14.57-.15,1.48-.01,2.97,0,4.58,0"/><path d="M253.25,209.36c0-2.8-.02-5.6,0-8.39.03-4.33.09-8.67.15-13,.01-1.01.03-1.02.95-.61.54.24,1.1.46,1.62.74.18.1.35.38.35.58.03,1.86.03,3.72.01,5.59-.03,3.55-.08,7.11-.12,10.66-.03,3.09-.07,6.18-.11,9.26,0,.8-.03,1.6-.02,2.39,0,.4-.15.62-.56.63-.75.02-1.5.05-2.26.06-.95.02-1.91.03-2.86.02-.17,0-.37-.08-.5-.19-.54-.5-1.07-1.01-1.58-1.54-.14-.14-.18-.37-.27-.55.21-.09.41-.24.62-.25,1.33-.02,2.67,0,4,.02.32,0,.42-.11.41-.42,0-1.67,0-3.34,0-5.02h.13"/><path d="M239.94,214.84c-.23-.37-.4-.63-.56-.89-.73-1.14-.86-2.47-1.15-3.75-.44-1.89-.77-3.84-1.74-5.55-.58-1.04-1.47-1.79-2.78-1.85-.33-.02-.66-.13-.99-.2,0-.07-.01-.14-.02-.21.21-.12.41-.29.64-.34,2.81-.67,4.41-2.58,5.15-5.24.57-2.04.3-4.03-.81-5.86-.28-.46-.7-.84-1.02-1.28-.09-.12-.08-.32-.12-.49.19-.03.42-.14.56-.07,1.24.64,2.38,1.4,3.3,2.47,1.62,1.89,1.7,4.08,1.31,6.39-.29,1.71-.92,3.23-2.24,4.38-.64.55-1.38.99-2.1,1.5,0,.01.06.07.11.12,1.9,1.67,2.96,3.81,3.48,6.23.28,1.3.52,2.61.75,3.92.13.76.61,1.32,1.01,1.93.12.18.26.51.18.63-.11.17-.42.28-.64.29-1.52.05-3.04.05-4.55.08-1.2.03-2.01-.66-2.78-1.43-.09-.09-.14-.34-.08-.45.06-.12.26-.23.41-.23,1.18-.02,2.36-.01,3.54-.02.33,0,.67-.05,1.13-.09"/><path d="M127.83,215.01c1.65-.07,3.29-.15,5.04-.23-3.23-9.28-6.44-18.49-9.69-27.81.31.09.53.13.74.22.62.28,1.23.6,1.86.86.33.14.51.35.61.68.72,2.2,1.45,4.4,2.18,6.6.23.69.59,1.35.74,2.06.12.58.42,1.08.58,1.64.17.62.43,1.22.64,1.83.21.6.4,1.2.6,1.79.2.6.41,1.2.62,1.79.7,2.01,1.42,4.03,2.11,6.04.67,1.93,1.33,3.87,1.98,5.81.19.55-.03.82-.62.85-1.54.09-3.08.18-4.61.31-.39.03-.67-.02-.95-.33-.51-.57-1.08-1.1-1.63-1.64-.1-.1-.19-.22-.28-.33.02-.05.05-.09.07-.14"/><path d="M287.57,214.86c-.67-1.03-1.26-1.92-1.84-2.83-.95-1.48-1.87-2.97-2.82-4.44-.65-1-1.32-1.98-1.98-2.98-.13-.2-.27-.4-.38-.61-.33-.63-.2-.89.52-.89,1.93,0,3.86.04,5.79.05.87,0,1.74,0,2.7,0,.03-1.2.05-2.37.11-3.54.02-.36.13-.71.19-1.06.33.13.68.23.99.4.5.27.98.55,1.44.88.18.13.36.39.36.6,0,1.4-.05,2.8-.11,4.2-.02.37-.21.58-.67.58-2.55-.02-5.09,0-7.63,0-.1,0-.2.02-.37.04.4.68.77,1.32,1.16,1.95,1.32,2.11,2.65,4.21,3.98,6.32.61.96,1.21,1.93,1.81,2.9.31.5.22.77-.39.83-.79.08-1.59.07-2.39.09-.97.02-1.95.05-2.92.02-.3,0-.62-.15-.87-.32-.54-.37-1.03-.79-1.54-1.19-.11-.08-.24-.16-.3-.27-.08-.15-.18-.37-.13-.5.05-.12.29-.21.45-.21,1.4-.02,2.8-.02,4.21-.03.16,0,.33,0,.63,0"/><path d="M154.61,200.48c.27.07.55.11.8.23,1.27.57,2.28,1.48,3.28,2.42.8.75,1.51,1.56,1.8,2.63.43,1.57.57,3.16.12,4.76-.87,3.08-2.9,5.12-5.82,6.23-2.7,1.02-5.5,1.08-8.26.17-1.18-.39-2.29-.97-3.43-1.46-.06-.03-.14-.05-.18-.1-.13-.2-.25-.4-.37-.61.23-.02.47-.1.69-.05,1.64.39,3.27.65,4.97.55,1.26-.07,2.48-.26,3.69-.58,2.03-.55,3.6-1.72,4.73-3.52.69-1.1,1.27-2.23,1.38-3.54.22-2.65-.84-4.72-2.9-6.33-.22-.18-.42-.39-.63-.59.04-.07.09-.14.13-.21"/><path d="M199.6,193.77c0,1.21,0,2.38,0,3.56,0,.48-.03.96-.03,1.43,0,.38-.19.54-.53.53-.67,0-1.33-.02-2-.05-.31-.01-.47-.17-.46-.49.04-2.29.07-4.58.1-6.87,0-.35.16-.54.53-.54,1.79.02,3.58.04,5.37.05,1.83,0,3.65,0,5.48.01.72,0,1.43,0,2.26,0,0-1.1,0-2.2,0-3.3,0-.14-.02-.27-.01-.41.03-.58.24-.71.75-.44.62.32,1.23.67,1.85,1,.34.18.47.46.47.84-.02,1.33-.03,2.67-.02,4,0,.44-.21.61-.63.61-2.15,0-4.3.01-6.46.02-2.09,0-4.17,0-6.26,0-.08,0-.17.02-.4.04"/><path d="M225.78,206.11c-.07,1.84-.14,3.62-.21,5.39-.06,1.66-.11,3.31-.18,4.97-.02.44-.24.67-.72.68-1.42,0-2.84.05-4.25.05-.22,0-.49-.08-.66-.21-.69-.51-1.35-1.05-2-1.6-.12-.11-.16-.31-.24-.47.17-.08.34-.24.51-.24,1.47-.02,2.94-.01,4.47-.01.04-.88.07-1.69.1-2.5.08-2.55.16-5.09.24-7.64.01-.43.24-.61.65-.61,1.24,0,2.49,0,3.73.01.9,0,1.81.06,2.71.03,1.02-.03,1.73.43,2.23,1.26.38.63.15,1.04-.58,1.03-1.91-.04-3.82-.1-5.8-.15"/><path d="M126.83,210.33c-.6,0-1.11,0-1.61,0-2.56.02-5.13.03-7.69.04-.3,0-.45.1-.55.4-.61,1.83-1.23,3.66-1.86,5.49-.28.82-.3.8-1.17.81-1.51,0-3.01.06-4.52.06-.24,0-.53-.13-.7-.29-.54-.52-1.03-1.1-1.54-1.65-.1-.11-.17-.24-.35-.49.56-.03.99-.08,1.42-.07,1.13.02,2.26.05,3.39.08.29.01.42-.09.52-.36.73-1.97,1.47-3.93,2.25-5.87.07-.18.4-.37.62-.38,1.92-.07,3.83-.1,5.75-.14,1.55-.03,3.1-.06,4.65-.11.47-.02.76.07.85.61.11.6.34,1.17.55,1.87"/><path d="M199.66,205.01c0,1.44,0,2.8,0,4.17,0,.48-.02.96-.09,1.43-.03.16-.25.4-.39.4-.73.04-1.47.04-2.2,0-.11,0-.29-.29-.29-.44.02-1.42.07-2.84.12-4.26.03-1,.07-2.01.08-3.01,0-.35.12-.5.47-.5,1.57.02,3.14.03,4.72.02,1.98,0,3.97-.02,5.95-.04.15,0,.3,0,.6,0,0-1.15,0-2.26,0-3.36,0-.66.2-.86.8-.6.79.32,1.52.76,2.27,1.18.1.05.14.27.14.41-.03,1.4-.08,2.8-.12,4.2,0,.29-.15.38-.42.38-2.77,0-5.54,0-8.31.01-1.07,0-2.14,0-3.32,0"/><path d="M191.61,214.79c.24-.04.47-.12.71-.12,3.67.02,7.34.06,11.02.09,2.1.02,4.19.02,6.29.05.35,0,.46-.1.47-.47.02-1.14.1-2.29.14-3.43.02-.49.29-.52.61-.35.71.37,1.42.76,2.09,1.19.16.1.25.41.25.63,0,1.26,0,2.53-.04,3.79-.02.76-.14.88-.92.89-1.73.02-3.45.01-5.18.03-1.68.02-3.35.06-5.03.07-2.32,0-4.64-.03-6.96,0-.53,0-.91-.15-1.29-.47-.57-.47-1.17-.9-1.76-1.34-.16-.12-.34-.21-.52-.31.04-.08.08-.16.12-.25"/><path d="M268.41,217.05c-.72,0-1.44-.03-2.16,0-.62.04-1.14-.13-1.62-.51-.41-.33-.85-.64-1.24-.99-.13-.12-.17-.33-.25-.5.16-.07.32-.2.47-.21,1.59-.03,3.18-.05,4.76-.05.32,0,.53-.06.73-.34,1.92-2.83,3.86-5.64,5.78-8.46.23-.34.43-.7.66-1.04.26-.38.55-.37.79.03.45.75.9,1.49,1.31,2.26.08.15.06.44-.03.58-1.54,2.34-3.1,4.67-4.66,7-.41.61-.81,1.22-1.21,1.84-.2.32-.45.46-.85.45-.84-.03-1.67,0-2.51,0v-.06"/><path d="M281.85,199.15c-.41,0-.82.04-1.23-.01-.24-.03-.58-.14-.67-.32-.09-.18,0-.54.12-.74.76-1.13,1.55-2.24,2.33-3.36,1.25-1.79,2.49-3.59,3.74-5.38.49-.7.97-1.41,1.46-2.1.31-.44.61-.47,1.04-.15.56.42,1.11.85,1.67,1.27.29.22.33.42.11.73-1.21,1.75-2.41,3.51-3.61,5.26-1.05,1.52-2.09,3.04-3.16,4.54-.1.15-.35.26-.53.27-.42.04-.85.01-1.28.01,0-.01,0-.02,0-.03"/><path d="M225.72,193.49c0,1.05-.01,2.07,0,3.09.02,1.04.05,2.09.09,3.13.02.68-.11.82-.79.81-.56-.01-1.13-.04-1.69-.03-.43,0-.59-.2-.59-.59,0-.58-.02-1.16,0-1.74.02-1.42.06-2.84.09-4.25.02-.78.06-1.57.07-2.35,0-.31.16-.42.45-.42,2.27.04,4.54.06,6.81.11,1.11.02,2.1.37,2.86,1.24.16.18.35.34.48.53.09.14.14.36.09.5-.03.08-.28.13-.43.13-1.7-.05-3.4-.11-5.11-.16-.71-.02-1.43,0-2.32,0"/><path d="M117.41,204.59c-.33,0-.65,0-.98,0-.5-.02-.69-.3-.52-.78.74-2.09,1.49-4.18,2.23-6.27.58-1.62,1.15-3.24,1.73-4.86.05-.15.19-.26.28-.39.11.13.28.24.34.39.47,1.3.93,2.6,1.37,3.91.04.12.05.28,0,.39-.87,2.3-1.76,4.6-2.62,6.9-.2.54-.52.76-1.07.71-.25-.02-.51,0-.77,0h0"/><path d="M143.18,194.95c-.02-1.96,1.26-3.68,3.14-4.26,1.39-.43,2.76-.44,4.12.05.81.29,1.42.88,1.93,1.56.05.07.07.28.03.3-.13.08-.3.15-.45.16-.85.05-1.7.03-2.54.15-.95.13-1.79.56-2.51,1.2-1.1.97-1.53,2.11-.6,3.48.09.14.11.38.06.54-.02.07-.31.14-.44.1-1.36-.43-2.84-1.52-2.74-3.27"/><path d="M156.13,197.18c-.22-.09-.52-.15-.75-.3-.52-.35-1.03-.73-1.51-1.13-.15-.12-.31-.38-.27-.53.04-.15.3-.3.49-.35,1.04-.27,2.08-.53,3.13-.77.4-.09.54-.29.42-.69-.29-.94-.6-1.89-.87-2.84-.07-.26-.04-.54-.05-.81.28.12.61.17.83.36,1.26,1.12,2.38,2.36,3.01,3.96.01.03.03.06.04.1.43,1.3.4,1.35-.88,1.81-.93.33-1.85.68-2.78,1.01-.24.08-.5.11-.82.18"/><path d="M169,193.59c-1.01,0-2.02.03-3.03-.02-.32-.02-.67-.17-.95-.35-.54-.33-1.05-.7-1.55-1.08-.17-.13-.27-.36-.4-.54.2-.1.4-.27.6-.28,1.17-.03,2.35-.02,3.52-.02,1.65,0,3.3,0,4.95-.02.39,0,.59.13.59.52,0,.39.06.8,0,1.18-.03.19-.29.47-.45.48-1.09.04-2.18.02-3.28.02v.11"/><path d="M268.3,205.43c-1.38,0-2.76,0-4.14,0-.13,0-.3,0-.39-.08-.57-.46-1.15-.92-1.68-1.41-.14-.13-.16-.38-.23-.58.2-.06.39-.18.59-.17,2.8.02,5.6.05,8.39.11.25,0,.55.17.71.36.08.09-.09.42-.18.63-.45,1.08-1.25,1.48-2.4,1.21-.21-.05-.44,0-.66,0v-.05Z"/><path d="M140.84,200.68c.12.03.25.06.37.1,1.57.57,3.14,1.15,4.72,1.72.42.15.85.27,1.28.36,1.6.33,3.1.94,4.46,1.83.41.27.7.73,1.02,1.12.05.07,0,.26-.06.36-.03.05-.23.04-.31-.01-1.09-.7-2.37-.85-3.59-1.16-1.76-.46-3.52-.92-5.09-1.85-.95-.56-1.78-1.31-2.66-1.99-.11-.08-.16-.24-.23-.37.03-.04.06-.07.1-.11"/><path d="M270.15,187.03c.14.04.29.06.42.12,1.24.51,2.13,1.34,2.78,2.55,1.05,1.97,2.23,3.88,3.38,5.79.15.25.18.42,0,.63-.02.03-.04.06-.06.08-.66.92-.74.91-1.32-.06-1.61-2.68-3.24-5.35-4.86-8.03-.19-.31-.33-.66-.49-.99.05-.04.1-.07.15-.11"/><path d="M141.75,206.17c.33.13.77.28,1.19.46.28.12.58.23.82.41.19.14.39.34.45.56.38,1.35.72,2.71,1.72,3.78.05.06.06.25.04.26-.14.04-.31.13-.42.08-.49-.23-1.02-.44-1.43-.78-1.31-1.09-2.23-2.47-2.82-4.07-.16-.43-.02-.66.44-.67"/></svg>