<?xml version="1.0" encoding="UTF-8"?><svg id="a" xmlns="http://www.w3.org/2000/svg" width="400" height="400" xmlns:xlink="http://www.w3.org/1999/xlink" viewBox="0 0 400 400"><defs><style>.c{fill:url(#b);}.d{fill:#373a36;}</style><linearGradient id="b" x1="219.59" y1="272.52" x2="195.79" y2="137.55" gradientUnits="userSpaceOnUse"><stop offset="0" stop-color="#f1f4e3" stop-opacity="0"/><stop offset=".5" stop-color="#bbc392"/></linearGradient></defs><path class="c" d="M231.78,256.92c5.2-.3,23.74-8.68,24.47-14.81-1.51-.74-8.37,1.28-17.87,5.91-3.56,1.74-5.41,1.75-6.95,1.82-1.54.07-2.64-.26-2.45,2.31.18,2.38.42,3.05-.35,4.67-.91-2.45-1.96-5.19-3.13-8.16-.02-.73.5-2.04,4.16-2.58,6.14-.91,20.26-9.59,20.77-16.83,0,0-5.07.37-14.09,6.26-6.61,4.32-8.68,2.81-10.67,2.91-2,.1-1.07,3.58-.65,5.26.43,1.72.29,2.3-.31,3.01-1.11-2.77-2.33-5.7-3.64-8.76.14-.96.71-2.96,2.96-3.83,3.73-1.44,21.2-9.62,21.56-18.09.06-.06-9.24,1.69-16.66,6.52-4.31,2.81-5.95,4.72-7.72,5.07-1.77.35-1.69,2.1-1.05,5.55.31,1.39.16,2.26,0,2.69-1.06-2.44-2.18-4.94-3.36-7.49.09-.66.9-1.85,4.62-3.38,5.89-2.43,16.37-13.85,14.76-18.9,0,0-3.32.75-10.54,6.94-4.71,4.04-6.83,5.29-8.98,6.01-2.16.72-2.42.2-1.09,3.42l-1.78-.45c-.71-1.45-1.43-2.91-2.17-4.37-.04-.49.12-1.32,1.5-1.84,2.05-.76,15.68-10.22,13.72-18.86,0,0-2.25.53-7.48,6-3.78,3.96-5.26,4.81-7.23,5.24-1.97.44-3.11-.44-2.13,3.05.89,3.16,1.05,3.75.76,4.73-1.35-2.62-2.75-5.25-4.21-7.87-.04-.59.29-1.48,1.97-2.64,3.15-2.17,12.48-13.16,10.32-17.39,0,0-1.39.25-5.79,4.56-3.07,3.01-4.3,3.69-6.17,4.43-1.59.63-4.1.57-2.75,2.7,1.32,2.09,1.69,3.82,1.57,6.83-1.38-2.45-2.8-4.87-4.27-7.27-.13-.22-.26-.42-.4-.64-.09-.61-.06-2.15,2.02-3.6,2.67-1.86,8.1-13.1,6-15.47,0,0-1.79,1.05-3.62,3.87-1.82,2.82-3.04,4.59-4.6,5.46-1.56.87-3.45.27-2.23,3.05,1.22,2.78,2.09,3.33,1.46,5.13l.08.14c-1.78-2.85-3.5-5.52-5.18-8.02-.1-.19-.56-1.28.99-2.65,1.71-1.51,8.04-10.05,5.34-14.05,0,0-.41-.2-2.69,2.82-2.28,3.02-2.86,4.07-4.14,4.79-1.27.73-2.81.62-1.62,2.82,1.17,2.15,1.5,3.41,1.16,4.83-1.66-2.44-3.27-4.71-4.83-6.83-.01-.13-.12-1.7,1.4-3.68,1.59-2.06,3.23-7.95,1.2-11.78,0,0-.61-.2-1.48,1.19-.87,1.4-1.65,3.92-2.95,5.49-1.3,1.57-2.69,1.3-.89,3.25,2.05,2.22,1.43,2.65,1.75,4.22-1.78-2.38-3.5-4.57-5.15-6.58-.1-.41-.3-1.65.64-3.19,1.16-1.89,1.62-3.72,1.58-5.46-.03-1.74-.73-2.78-1.75-3.59,0,0-.4.03-1.1,2.06-.69,2.03-1.15,2.7-1.65,3.25-.49.55-1.54.77-.11,2.38,1.1,1.24.83,1.57.95,2.83-1.51-1.8-2.97-3.46-4.38-4.99-.11-.23-.49-1.24.45-2.87,1.07-1.86.81-4.79-.36-6-.72-.75-1.02-.49-1.02-.49-.23.58-.49,2.52-.92,3.08-.43.55-1.3,1.16-.61,2.09.64.85.97,1.69,1.01,2.65-1.38-1.46-2.7-2.81-3.97-4.06-.17-.44-.33-1.43.37-3.1.81-1.95-.27-4.29-1.4-4.38-.12.03-.38.7-.93,1.66-.55.96-1.21,1.98-.17,2.73,1.01.72,1.13,1.39,1.16,2.16-1.56-1.51-3.04-2.89-4.45-4.17-.09-.4-.1-1.12.52-2.11.81-1.31.23-2.5-.32-2.76-.55-.26-.84.55-1.3.84-.46.29-1.01.64-.64,1.45.33.72.66.8.74,1.66-.53-.48-1.06-.96-1.57-1.42l-1.17-1.08c-.14-.39-.28-1.02-.12-1.62.26-.99.31-1.45-.56-2.12,0,0-1.26.98-1,2.2l-.35-.32c-.36-.43-.41-.92-.51-1.26-.16-.57-.39-.97-.86-1.3-.88-.61-.42.15-1,.21-.58.06-.41-2.52-1.31-1.54,0,0-.15-1.16-1.95-1.74,0,0,.38.58.64,1.59.26,1.02.76.75.96,1.3.2.55.12.38-.26.58-.38.2,1.12.54,1.52.78.48.28.42.9-.16,1.16-.63.29,1.81.38,2.76,1.77-1.22-.03-1.57.9-1.57.9.29.43.62,1.09,1.62.69.8-.31,1.66.14,2.13.46l.47.46c.23.2.46.41.69.62-.93-.45-2.54.06-2.7.75-.18.74-.49,1.4-.49,1.4,1.26.25,2.5.07,3.5-.52.62-.36,1.02-.31,1.25-.21.96.88,1.95,1.8,2.98,2.78-.73.03-.68-.33-1.41-.64-.75-.32-1.57-.29-2.29.47-.72.76-1.74,1.16-1.74,1.16,1.46,1.82,3.34,1.01,4.7.05.56-.4,1.02-.48,1.37-.44,1.13,1.09,2.3,2.24,3.51,3.49-.65.09-.89.19-2.09-.62-1.14-.76-1.62-.17-2.64.56-1.01.73-2.78.79-2.55,1.51,1.63,2.55,5.54.22,6.64-.48.7-.44,1.18-.3,1.45-.14,1.28,1.33,2.61,2.77,3.99,4.33l-.15-.14c-.9.32-1.02-.11-2.35-1.13-1.33-1.01-2.09.21-3.94.79-1.85.58-2.96,1.11-2.7,1.34,3.49,2.98,7.57.8,8.64.07.46-.31.86-.28,1.18-.15,1.64,1.88,3.36,3.93,5.15,6.19-.54-.07-1.29-.41-2.61-2.06-1.66-2.08-2.64-.66-6.79.04-4.15.7-3.25,1.48-2.96,1.72,2.67,2.61,8.74,2.1,10.53,1.34,1.25-.53,2.12-.3,2.55-.11,1.91,2.44,3.91,5.12,6,8.07l-1.01-1.4c-1.58-.28-2.36-1.41-3.83-3.31-1.85-2.38-2.29-.53-3.86.33-1.57.86-2.69,1.1-5.55,1.73-2.86.63-3.29,1.41-3.07,1.63,1.82,2.85,9.09,1.9,12.44.83,3.35-1.06,4.89.19,4.89.19,1.64,2.32,3.34,4.81,5.09,7.49-1.78-.37-2.55-2.45-4.19-4.5-1.69-2.11-2.7.5-4.38,1.02-1.68.53-3.39.67-6.27,1-2.87.33-6.2,1.2-5.91,1.9.29.7.76,1.59,3.49,2.63,2.73,1.04,10.73.07,13.95-.81,2.61-.71,3.98.11,4.4.44,1.32,2.04,2.67,4.19,4.06,6.45.16.26.32.53.48.79-.39.09-1.43.18-2.84-2.13-1.62-2.64-3.36-2.4-4.58-1.36-1.22,1.04-4.88,1.83-8.5,2.24-3.62.41-8.45,2.45-7.87,3.27.58.82,1.85,2.05,6.95,2.5,5.1.44,11.52-1.95,14.43-3.05,1.98-.75,2.95-.27,3.36.11,1.77,2.98,3.47,6.01,5.09,9.05-.87,0-2.11-.98-2.63-1.6-1.07-1.27-2.14-4.35-3.39-4.2-1.25.16-1.35,1.31-4.07,2.58-2.71,1.27-5.77,1.54-9.78,2.36-4.01.81-9.6,4.36-9.03,4.8.57.44,4.3,1.95,9.11,2.04,4.81.1,14.17-2.79,17.17-4.11,2.06-.9,3.01-.64,3.41-.38,1.15,2.19,2.26,4.38,3.33,6.56-1.16.06-1.35.31-2.95-1.68-2.05-2.55-2.29-.32-4.31.98-2.02,1.31-5.24,2.38-12.53,5.06-7.82,2.88-8.47,5.08-8.31,5.14,8.94,3.53,23.52-2.59,26.22-4.58,2.06-1.52,3.31-1.14,3.83-.88,1.54,3.27,2.99,6.48,4.34,9.61l-.07-.15c-.99.06-1.34-.3-2.66-1.83-1.31-1.52-2.25-4.77-4.25-2.76-1.44,1.45-3.31,2.8-11.38,4.26-10.11,1.83-11.84,5.26-11.84,5.26,5.87,1.99,9.73,1.5,14.27.91,4.54-.58,11.3-3,13.72-4.22,1.91-.97,2.72-.1,2.98.32,1.44,3.38,2.76,6.64,3.96,9.72l-.46-1.01c-2.88.36-2.74-1.63-4.66-4.24-1.92-2.61-3.54.26-7.16,2.1-3.62,1.83-7.43,1.87-11.06,2.92-3.62,1.05-8.47,3.63-8.03,4.01,10.71,4.97,24.22-.92,27.67-2.75,2.75-1.46,3.61-.93,3.85-.65,1.45,3.72,2.72,7.17,3.82,10.24-2.48-.34-3.18-2.8-4.43-4.5-1.31-1.77-3.33-.41-5.96,1.45-2.64,1.86-8.93,2.92-14.61,5.05-5.68,2.13-7.39,3.85-7.16,3.96,8.13,2.97,22.65-.05,27.08-2.75,3.32-2.02,5.06-1.69,5.72-1.4,2.65,7.58,4.06,12.41,4.1,12.55.13.41,1.59.63,1.99.5.41-.13.63-.56.5-.97-.04-.12-1.33-4.19-3.72-10.71-.02-.86.52-1.53,2.5-1.65Z"/><path class="d" d="M147.22,208.27c.86.06,1.72.09,2.56.09.39,0,.96-.01,1.73-.04.77-.03,1.35-.04,1.73-.04,1.39,0,2.38.06,2.97.19,1.14.24,2.05.77,2.72,1.59.68.82,1.02,1.81,1.02,2.96,0,1.69-.49,3.03-1.46,4.04-.57.59-1.16,1-1.76,1.24-.4.16-1.1.34-2.09.52-.42.07-.96.11-1.62.11-.95.02-1.49.03-1.6.03,0-.09.03,1.18.08,3.81.02.95.07,2.39.17,4.31-1.28-.09-2.04-.14-2.28-.14-.26,0-1.01.05-2.25.14.02-.31.05-.8.11-1.46.09-1.25.14-2.25.14-3,0-.48,0-1.17.03-2.09,0-.94,0-1.63,0-2.09,0-.37-.04-2.82-.11-7.37,0-.62-.03-1.56-.08-2.8ZM151.53,209.85l-.08,3.3s0,.77,0,2.31c0,.88,0,1.54-.03,1.98.42-.02,1.03-.08,1.81-.19,1.56-.42,2.34-1.67,2.34-3.74,0-1.48-.41-2.55-1.24-3.21-.42-.33-1.36-.48-2.81-.44Z"/><path class="d" d="M172.66,220.53h-7.91c.02.44.05.96.11,1.57.04.4.19.89.47,1.46.28.57.56.98.85,1.24.64.57,1.46.85,2.45.85,1.16,0,2.23-.41,3.22-1.24l.33.25-.6,1.54c-1.17.82-2.48,1.24-3.93,1.24-2.29,0-4.06-.7-5.3-2.09-1.06-1.19-1.59-2.91-1.59-5.14,0-1.96.56-3.56,1.68-4.8,1.12-1.24,2.66-1.86,4.62-1.86s3.34.58,4.31,1.73c.9,1.06,1.35,2.51,1.35,4.35,0,.29-.02.59-.05.91ZM164.75,219.2h4.27c-.02-.07-.03-.18-.03-.31s-.01-.24-.04-.32c-.05-2.56-.69-3.84-1.9-3.84-.86,0-1.48.57-1.87,1.7-.2.58-.35,1.51-.44,2.77Z"/><path class="d" d="M175.05,214.45l-.03-.55c.92.08,1.59.12,2.03.12.38,0,.98-.04,1.79-.12l-.08,2.04c1.24-1.56,2.63-2.34,4.16-2.34,1.35,0,2.49.51,3.42,1.54.44.48.71,1.11.82,1.9.05.37.08,1.07.08,2.12,0,.37,0,.93,0,1.68v3.96c0,1.01,0,1.77,0,2.28-1.22-.09-1.95-.14-2.18-.14s-.55.02-.93.05c-.45.06-.76.08-.93.08.02-.33.06-.81.12-1.43.08-1.04.13-2.11.16-3.19v-2.06c0-1.36-.08-2.31-.25-2.86-.31-1.06-.98-1.59-2.01-1.59-1.1,0-1.82.6-2.15,1.81-.16.6-.25,1.65-.25,3.13,0,.77.02,1.79.05,3.08.05,1.52.08,2.56.08,3.11-.18,0-.5-.02-.95-.07-.45-.05-.79-.07-1.03-.07s-.57.02-.99.05c-.48.06-.81.08-.99.08,0-.16.01-.41.04-.73.03-.32.04-.55.04-.7,0-.73.01-1.83.04-3.29.03-1.46.04-2.55.04-3.29v-1.1c0-.51-.05-1.69-.14-3.52Z"/><path class="d" d="M190.54,227.08l.08-1.82c.13-2.82.19-5.1.19-6.82l-.17-4.54.25.03c.49.06,1.15.09,1.98.09.42,0,1.07-.04,1.95-.12l-.19,3.55c-.07,1.36-.11,3.14-.11,5.34,0,1.78.07,3.21.22,4.29-1.23-.09-1.98-.14-2.25-.14-.24,0-.56.02-.96.05-.48.06-.8.08-.99.08ZM190.57,208.85c0-.59.21-1.1.63-1.53.42-.43.93-.65,1.51-.65s1.09.22,1.52.65c.43.43.65.94.65,1.53s-.22,1.1-.65,1.53c-.43.43-.94.65-1.52.65s-1.09-.21-1.51-.65c-.42-.43-.63-.94-.63-1.53Z"/><path class="d" d="M197.97,214.45l-.03-.55c.92.08,1.59.12,2.03.12.38,0,.98-.04,1.78-.12l-.08,2.04c1.24-1.56,2.63-2.34,4.16-2.34,1.35,0,2.49.51,3.42,1.54.44.48.71,1.11.82,1.9.05.37.08,1.07.08,2.12,0,.37,0,.93,0,1.68v3.96c0,1.01,0,1.77,0,2.28-1.22-.09-1.95-.14-2.18-.14s-.55.02-.93.05c-.46.06-.76.08-.93.08.02-.33.06-.81.12-1.43.08-1.04.13-2.11.16-3.19v-2.06c0-1.36-.08-2.31-.25-2.86-.31-1.06-.98-1.59-2.01-1.59-1.1,0-1.82.6-2.15,1.81-.17.6-.25,1.65-.25,3.13,0,.77.02,1.79.06,3.08.06,1.52.08,2.56.08,3.11-.18,0-.5-.02-.95-.07-.45-.05-.79-.07-1.03-.07s-.57.02-.99.05c-.48.06-.8.08-.99.08,0-.16.01-.41.04-.73.03-.32.04-.55.04-.7,0-.73.01-1.83.04-3.29.03-1.46.04-2.55.04-3.29v-1.1c0-.51-.05-1.69-.14-3.52Z"/><path class="d" d="M213.01,223.61h.69c.55,1.5,1.59,2.25,3.13,2.25.62,0,1.11-.14,1.45-.41.44-.35.66-.74.66-1.18,0-.49-.37-.96-1.12-1.4-.59-.27-1.17-.55-1.76-.82-.31-.15-.78-.36-1.41-.65-.63-.28-1.13-.75-1.49-1.39-.37-.64-.55-1.33-.55-2.06,0-1.83.79-3.09,2.36-3.77.9-.39,1.68-.58,2.36-.58,1.54,0,2.87.43,3.98,1.3-.24.79-.46,1.59-.66,2.4h-.77c-.11-.61-.42-1.14-.94-1.61-.51-.46-1.07-.69-1.68-.69-1.36,0-2.03.52-2.03,1.57,0,.49.28.92.85,1.26.2.13.71.36,1.51.69,1.45.59,2.41,1.08,2.88,1.48.81.7,1.21,1.68,1.21,2.94,0,1.48-.63,2.65-1.89,3.49-.88.59-2.01.88-3.41.88s-2.69-.37-3.79-1.12c.16-.86.3-1.72.41-2.58Z"/><path class="d" d="M232.29,227.08l.08-2.04c-.71.8-1.32,1.35-1.81,1.67-.66.41-1.42.61-2.3.61-1.64,0-2.87-.57-3.67-1.7-.37-.51-.59-1.2-.68-2.06-.02-.27-.03-1.01-.03-2.2v-3c0-1.34,0-2.34,0-3,0-.16,0-.41,0-.74v-.72c.98.08,1.71.12,2.18.12.4,0,1.02-.04,1.85-.12-.19,1.83-.28,4.31-.28,7.42,0,1.06.1,1.82.3,2.28.42.95,1.07,1.43,1.95,1.43,1.08,0,1.8-.6,2.14-1.81.16-.62.25-1.67.25-3.13,0-.77-.02-1.8-.05-3.11-.05-1.5-.08-2.53-.08-3.08.88.08,1.54.12,1.98.12s1.1-.04,1.98-.12c-.05.75-.09,1.8-.11,3.14l-.06,5.8c0,.62.05,1.85.14,3.69l.03.55c-.18,0-.51-.02-.98-.07-.47-.05-.83-.07-1.09-.07-.2,0-.79.05-1.76.14Z"/><path class="d" d="M243.35,214.95c0,4.62.08,8.66.25,12.12-1.14-.1-1.83-.15-2.09-.15-.24,0-.93.05-2.09.15.09-1.26.16-3.4.19-6.41,0,0,0-.63,0-1.9v-3.35s-.14-7.7-.14-7.7c-.02-.31-.05-.78-.11-1.4.57.1,1.25.15,2.06.15s1.55-.05,2.12-.15c0,.13-.01.32-.04.58-.03.26-.04.45-.04.58,0,.83-.02,2.07-.06,3.74-.04,1.67-.05,2.91-.05,3.74Z"/><path class="d" d="M247.48,217.16h-.19l-.36-1.65c1.34-1.23,3.03-1.84,5.08-1.84,1.34,0,2.46.27,3.38.82,1.1.66,1.66,1.61,1.68,2.86.02,1.12.03,1.73.03,1.84,0,.44-.02,1.1-.04,1.99-.03.89-.04,1.56-.04,2.02,0,.75,0,1.27.03,1.57.04.59.26.97.66,1.15.11.04.41.06.91.08.02.04.03.17.03.38v.27c-.17.09-.6.27-1.32.55-.51.11-.9.16-1.15.16-1.34,0-2.24-.65-2.72-1.94-.77,1.3-1.94,1.94-3.52,1.94-1.17,0-2.11-.3-2.8-.9-.75-.64-1.13-1.53-1.13-2.68,0-1.37.55-2.38,1.65-3.02.64-.36,1.77-.75,3.38-1.15.49-.13.84-.22,1.05-.27.38-.13.7-.28.95-.47.25-.18.37-.52.37-1.01,0-.64-.26-1.18-.78-1.62-.52-.44-1.11-.66-1.77-.66-1.08,0-2.1.41-3.06,1.24-.02.04-.06.09-.14.17-.07.07-.13.13-.17.17ZM250.71,221.19c-.58.46-.87,1.2-.87,2.24,0,1.39.5,2.08,1.49,2.08,1.34,0,2.01-.96,2.01-2.87,0-1.17.02-2.04.05-2.62-.33.15-.68.29-1.07.42-.39.14-.93.39-1.61.75Z"/><path class="d" d="M128.61,239.92l.13.05-.21.82c-.54.28-1.18.42-1.93.42-.38,0-.81-.05-1.28-.15-.34-.07-.7-.23-1.07-.48-.24-.16-.48-.39-.7-.69-.41-.55-.61-1.19-.61-1.93,0-1.19.37-2.11,1.12-2.76.68-.6,1.6-.9,2.76-.9.74,0,1.4.16,1.99.47-.05.22-.12.55-.22.99h-.14c-.18-.26-.42-.46-.71-.61-.29-.15-.59-.23-.91-.23-.75,0-1.33.31-1.74.93-.36.53-.54,1.19-.54,1.98s.19,1.47.57,1.97c.42.55,1.01.82,1.75.82.3,0,.61-.07.93-.2.32-.13.59-.3.82-.51Z"/><path class="d" d="M140.04,238.56c-.06-.12-.15-.28-.28-.5,0-.02-.03-.04-.07-.06-.03,0-.05.02-.05.06,0,.19,0,.48,0,.86,0,.39,0,.68,0,.87,0,.03,0,.11,0,.26.02.23.04.57.06,1.02-.43-.03-.7-.05-.79-.05-.08,0-.35.02-.79.05v-.19c.06-1.11.09-1.97.09-2.56,0-.19,0-.49,0-.89,0-.39,0-.68,0-.88,0-.6-.02-1.32-.06-2.15h.67c.18,0,.41,0,.7,0h.7c.81,0,1.33.07,1.57.2.57.32.86.8.86,1.42,0,.47-.14.85-.41,1.15-.27.3-.64.5-1.11.6.03.05.61.96,1.73,2.74l.35.56c-.49-.03-.78-.05-.88-.05-.26,0-.55.02-.87.05l-1.43-2.52ZM139.65,234.97v2.62c.08,0,.17,0,.24,0,.85,0,1.36-.47,1.36-1.4,0-.17-.02-.33-.05-.49-.07-.35-.26-.57-.55-.66-.07-.02-.47-.05-1.01-.08Z"/><path class="d" d="M152.41,234.54v-.13c.15,0,.41.01.78.03.33.02.58.03.77.03.27,0,.64,0,1.1-.02.54-.02.91-.04,1.1-.04-.05.22-.05.46-.02.73,0,.01.01.03.01.06s0,.05,0,.06c-1.11-.09-1.85-.13-2.22-.12-.02.68-.03,1.37-.03,2.08l2.21-.07c-.03.26-.05.41-.05.46,0,.03.02.16.05.37-.68-.05-1.25-.08-1.73-.08-.04,0-.12,0-.23-.01h-.24c0,.14,0,.34,0,.61,0,.28,0,.49,0,.62s0,.34,0,.61c0,.27,0,.48,0,.61.69,0,1.44-.04,2.25-.12-.05.21-.05.46-.02.72,0,.01.01.03.01.06,0,.03,0,.05,0,.06-.17,0-.46,0-.88-.03-.38-.02-.67-.03-.89-.03-.12,0-.31,0-.57.01-.26,0-.45.01-.58.01-.29,0-.58,0-.87.03,0-.08.02-.27.03-.56.03-.77.04-1.38.05-1.82v-2.62c0-.17,0-.43-.02-.77-.02-.34-.03-.6-.03-.77Z"/><path class="d" d="M165.61,234.42c.4.02.8.03,1.19.03.12,0,.29,0,.52-.02.23,0,.4-.02.51-.02.55,0,.91,0,1.06.02.34.03.57.06.69.08.2.03.42.1.66.19.36.15.67.36.92.64.53.61.79,1.35.79,2.22,0,1.09-.39,1.98-1.16,2.67-.62.56-1.46.84-2.51.84-.7,0-1.23,0-1.58-.02-.05,0-.13,0-.24,0l-.85.03c.06-1.37.09-2.51.09-3.41v-.98c0-.15-.02-.62-.05-1.42,0-.19-.02-.48-.04-.86ZM167.15,240.5c.31.01.54.02.7.02.47,0,.85-.05,1.12-.17.34-.13.63-.37.87-.73.36-.53.54-1.22.54-2.06s-.21-1.46-.63-1.94c-.23-.27-.51-.45-.84-.55-.25-.07-.59-.11-1-.11-.09,0-.21,0-.35.02-.18.01-.3.02-.35.02-.04,1.08-.06,2.71-.06,4.87v.3c0,.14,0,.24,0,.31Z"/><path class="d" d="M183.09,234.42c-.08,1.24-.13,2.31-.13,3.21,0,.24.04,1.39.13,3.46-.42-.03-.68-.05-.77-.05-.26,0-.55.02-.86.05.08-1.03.13-2.23.13-3.58v-.53c0-1.05-.03-1.91-.09-2.57.44.03.7.05.79.05.1,0,.36-.02.8-.05Z"/><path class="d" d="M195.73,235.14l-.02.71c-.02.71-.03,1.52-.03,2.43,0,.37,0,.84.02,1.4.03.81.04,1.28.04,1.4-.43-.03-.7-.05-.8-.05s-.23,0-.4.02c-.19.02-.33.03-.4.03.02-.31.04-.77.07-1.38.03-1.3.05-2.4.05-3.3,0-.42-.01-.84-.03-1.26-.47,0-1.07.05-1.79.14.05-.2.06-.44.03-.74,0-.03,0-.07-.03-.12.97.04,1.81.06,2.5.06h1c.17,0,.42,0,.76-.03.33-.02.59-.03.75-.03-.03.17-.04.3-.04.39,0,.18.01.33.04.47-.65-.1-1.22-.14-1.72-.14Z"/><path class="d" d="M221.32,234.42c-.03.25-.05.73-.08,1.43-.03.7-.05,1.37-.06,2.02-.01.74-.06,1.26-.15,1.56-.14.53-.43.95-.88,1.27-.49.34-1.1.52-1.84.52-1.57,0-2.51-.55-2.82-1.64-.07-.22-.1-.62-.11-1.2-.03-1.66-.04-2.85-.04-3.55,0-.05,0-.11,0-.2,0-.09,0-.16,0-.2.45.03.72.05.81.05.27,0,.53-.02.79-.05-.01.1-.03.26-.05.48-.05.71-.08,1.47-.08,2.27,0,.97.02,1.58.07,1.84.09.51.26.88.52,1.12.29.28.66.42,1.11.42s.81-.09,1.08-.27c.27-.18.48-.48.65-.91.12-.29.18-.96.18-2.01,0-1.21-.03-2.19-.08-2.93.18.03.35.05.5.05s.31-.02.49-.05Z"/><path class="d" d="M232.04,241.09h-.07c-.18-.04-.31-.05-.38-.05-.14,0-.28.02-.45.05.12-1.24.18-2.78.18-4.64,0-1.04-.01-1.72-.04-2.03.16.03.31.05.44.05s.28-.02.44-.05c.95,1.01,2.37,2.54,4.23,4.59,0-.48,0-1.19,0-2.15,0-.64-.02-1.4-.07-2.26v-.19c.24.03.38.05.43.05.06,0,.14,0,.24-.02.1-.02.17-.02.2-.02l-.03.54c-.02.28-.04.69-.07,1.24-.04,1.37-.06,1.98-.06,1.84v3.06h-.11c-.19-.04-.42-.04-.69,0-1.21-1.44-2.27-2.63-3.18-3.58l-1.06-1.11c-.02.88-.03,1.31-.03,1.31v.89c0,1.11.02,1.94.06,2.49Z"/><path class="d" d="M248.62,234.42c-.08,1.24-.13,2.31-.13,3.21,0,.24.04,1.39.13,3.46-.42-.03-.68-.05-.77-.05-.26,0-.55.02-.86.05.09-1.03.13-2.23.13-3.58v-.53c0-1.05-.03-1.91-.09-2.57.44.03.71.05.79.05.1,0,.36-.02.8-.05Z"/><path class="d" d="M265.57,237.75c0,1.08-.38,1.94-1.15,2.61-.71.61-1.61.92-2.69.92s-2-.32-2.64-.96c-.64-.64-.96-1.48-.96-2.53s.39-1.94,1.16-2.61c.7-.6,1.6-.9,2.68-.9,1.02,0,1.87.3,2.56.89.34.29.59.63.75,1.04.2.47.29.99.29,1.54ZM261.78,240.69c.76,0,1.34-.37,1.76-1.12.28-.51.42-1.18.42-2.01,0-.72-.16-1.32-.48-1.83-.37-.59-.89-.89-1.57-.89-.44,0-.8.11-1.1.33-.3.22-.53.49-.68.81-.25.52-.38,1.21-.38,2.08,0,.72.16,1.31.47,1.79.37.56.9.84,1.57.84Z"/><path class="d" d="M275.84,241.09h-.07c-.18-.04-.31-.05-.38-.05-.14,0-.29.02-.45.05.12-1.24.18-2.78.18-4.64,0-1.04-.01-1.72-.04-2.03.16.03.31.05.44.05s.28-.02.44-.05c.95,1.01,2.37,2.54,4.23,4.59,0-.48,0-1.19,0-2.15,0-.64-.02-1.4-.07-2.26v-.19c.24.03.38.05.43.05.06,0,.14,0,.24-.02.1-.02.17-.02.2-.02l-.03.54c-.02.28-.04.69-.07,1.24-.04,1.37-.06,1.98-.06,1.84v3.06h-.11c-.19-.04-.42-.04-.69,0-1.21-1.44-2.27-2.63-3.18-3.58l-1.06-1.11c-.02.88-.03,1.31-.03,1.31v.89c0,1.11.02,1.94.06,2.49Z"/></svg>