<?xml version="1.0" encoding="UTF-8"?><svg id="a" xmlns="http://www.w3.org/2000/svg" width="400" height="400" xmlns:xlink="http://www.w3.org/1999/xlink" viewBox="0 0 400 400"><defs><style>.d,.e{fill:none;}.f{fill:#231f20;}.e{stroke:#231f20;stroke-width:.75px;}.g{clip-path:url(#c);}.h{clip-path:url(#b);}</style><clipPath id="b"><path class="d" d="M182.47,134.95c-28.54,7.88-49.5,34.01-49.5,65.05s20.96,57.17,49.5,65.05v-130.11Z"/></clipPath><clipPath id="c"><path class="d" d="M200.47,132.5v135c37.28,0,67.5-30.22,67.5-67.5s-30.22-67.5-67.5-67.5Z"/></clipPath></defs><g class="h"><line class="e" x1="164.47" y1="290.38" x2="164.47" y2="142.91"/><line class="e" x1="161.18" y1="291.91" x2="163.53" y2="142.95"/><line class="e" x1="157.88" y1="293.43" x2="162.59" y2="142.99"/><line class="e" x1="154.59" y1="294.96" x2="161.64" y2="143.03"/><line class="e" x1="151.29" y1="296.49" x2="160.7" y2="143.07"/><line class="e" x1="147.99" y1="298.01" x2="159.76" y2="143.12"/><line class="e" x1="144.7" y1="299.54" x2="158.82" y2="143.16"/><line class="e" x1="141.4" y1="301.07" x2="157.87" y2="143.2"/><line class="e" x1="138.11" y1="302.59" x2="156.93" y2="143.24"/><line class="e" x1="134.81" y1="304.12" x2="155.99" y2="143.28"/><line class="e" x1="131.51" y1="305.65" x2="155.04" y2="143.32"/><line class="e" x1="128.22" y1="307.18" x2="154.1" y2="143.36"/><line class="e" x1="124.92" y1="308.7" x2="153.16" y2="143.4"/><line class="e" x1="121.63" y1="310.23" x2="152.21" y2="143.44"/><line class="e" x1="118.33" y1="311.76" x2="151.27" y2="143.48"/><line class="e" x1="115.03" y1="313.28" x2="150.33" y2="143.52"/><line class="e" x1="111.74" y1="314.81" x2="149.38" y2="143.56"/><line class="e" x1="108.44" y1="316.34" x2="148.44" y2="143.6"/><line class="e" x1="105.15" y1="317.86" x2="147.5" y2="143.64"/><line class="e" x1="101.85" y1="319.39" x2="146.55" y2="143.68"/><line class="e" x1="98.55" y1="320.92" x2="145.61" y2="143.72"/><line class="e" x1="95.26" y1="322.44" x2="144.67" y2="143.76"/><line class="e" x1="91.96" y1="323.97" x2="143.72" y2="143.8"/><line class="e" x1="88.67" y1="325.5" x2="142.78" y2="143.84"/><line class="e" x1="85.37" y1="327.02" x2="141.84" y2="143.89"/><line class="e" x1="82.07" y1="328.55" x2="140.89" y2="143.93"/><line class="e" x1="78.78" y1="330.08" x2="139.95" y2="143.97"/><line class="e" x1="75.48" y1="331.6" x2="139.01" y2="144.01"/><line class="e" x1="72.19" y1="333.13" x2="138.07" y2="144.05"/><line class="e" x1="68.89" y1="334.66" x2="137.12" y2="144.09"/><line class="e" x1="65.59" y1="336.18" x2="136.18" y2="144.13"/><line class="e" x1="62.3" y1="337.71" x2="135.24" y2="144.17"/><line class="e" x1="59" y1="339.24" x2="134.29" y2="144.21"/><line class="e" x1="55.7" y1="340.76" x2="133.35" y2="144.25"/><line class="e" x1="52.41" y1="342.29" x2="132.41" y2="144.29"/></g><g class="g"><line class="e" x1="200.47" y1="120.03" x2="200.47" y2="267.5"/><line class="e" x1="204.06" y1="118.51" x2="201.7" y2="267.46"/><line class="e" x1="207.64" y1="116.98" x2="202.93" y2="267.42"/><line class="e" x1="211.22" y1="115.45" x2="204.16" y2="267.38"/><line class="e" x1="214.8" y1="113.92" x2="205.39" y2="267.34"/><line class="e" x1="218.38" y1="112.4" x2="206.61" y2="267.3"/><line class="e" x1="221.96" y1="110.87" x2="207.84" y2="267.26"/><line class="e" x1="225.54" y1="109.34" x2="209.07" y2="267.22"/><line class="e" x1="229.12" y1="107.82" x2="210.3" y2="267.18"/><line class="e" x1="232.7" y1="106.29" x2="211.53" y2="267.14"/><line class="e" x1="236.28" y1="104.76" x2="212.75" y2="267.09"/><line class="e" x1="239.86" y1="103.24" x2="213.98" y2="267.05"/><line class="e" x1="243.44" y1="101.71" x2="215.21" y2="267.01"/><line class="e" x1="247.02" y1="100.18" x2="216.44" y2="266.97"/><line class="e" x1="250.61" y1="98.66" x2="217.67" y2="266.93"/><line class="e" x1="254.19" y1="97.13" x2="218.89" y2="266.89"/><line class="e" x1="257.77" y1="95.6" x2="220.12" y2="266.85"/><line class="e" x1="261.35" y1="94.08" x2="221.35" y2="266.81"/><line class="e" x1="264.93" y1="92.55" x2="222.58" y2="266.77"/><line class="e" x1="268.51" y1="91.02" x2="223.81" y2="266.73"/><line class="e" x1="272.09" y1="89.5" x2="225.03" y2="266.69"/><line class="e" x1="275.67" y1="87.97" x2="226.26" y2="266.65"/><line class="e" x1="279.25" y1="86.44" x2="227.49" y2="266.61"/><line class="e" x1="282.83" y1="84.92" x2="228.72" y2="266.57"/><line class="e" x1="286.41" y1="83.39" x2="229.95" y2="266.53"/><line class="e" x1="289.99" y1="81.86" x2="231.17" y2="266.49"/><line class="e" x1="293.58" y1="80.34" x2="232.4" y2="266.45"/><line class="e" x1="297.16" y1="78.81" x2="233.63" y2="266.41"/><line class="e" x1="300.74" y1="77.28" x2="234.86" y2="266.37"/><line class="e" x1="304.32" y1="75.76" x2="236.09" y2="266.32"/><line class="e" x1="307.9" y1="74.23" x2="237.31" y2="266.28"/><line class="e" x1="311.48" y1="72.7" x2="238.54" y2="266.24"/><line class="e" x1="315.06" y1="71.18" x2="239.77" y2="266.2"/><line class="e" x1="318.64" y1="69.65" x2="241" y2="266.16"/><line class="e" x1="322.22" y1="68.12" x2="242.22" y2="266.12"/></g><path class="f" d="M213.97,214.71v-48.06c-4.17-1.7-8.72-2.65-13.5-2.65v64.21h55.46v-13.5h-41.96Z"/><path class="f" d="M200.47,132.5v18c27.29,0,49.5,22.2,49.5,49.5s-22.2,49.5-49.5,49.5v18c37.28,0,67.5-30.22,67.5-67.5s-30.22-67.5-67.5-67.5Z"/><path class="f" d="M164.47,257.09c5.51,3.48,11.56,6.19,18,7.97v-130.11c-6.44,1.78-12.49,4.48-18,7.97v114.17Z"/></svg>