<?xml version="1.0" encoding="UTF-8"?><svg id="a" xmlns="http://www.w3.org/2000/svg" width="400" height="400" xmlns:xlink="http://www.w3.org/1999/xlink" viewBox="0 0 400 400"><defs><style>.c{fill:url(#b);}</style><linearGradient id="b" x1="197.53" y1="222.78" x2="197.53" y2="185.02" gradientUnits="userSpaceOnUse"><stop offset="0" stop-color="#f4dd4f"/><stop offset="1" stop-color="#f7941d"/></linearGradient></defs><path class="c" d="M192.14,187.09c.01-1.49-.5-2.02-1.99-2.07-1.73-.06-2.55.45-2.41,2.3.1,1.29-.04,2.59-.04,3.88,0,5.16,0,10.32,0,15.48-.12.04-.24.09-.36.13-.8-1.57-1.72-3.09-2.39-4.71-2.14-5.18-4.15-10.42-6.32-15.59-.24-.58-1.18-1.27-1.77-1.24-2.8.13-5.59.42-8.37.78-3.19.41-3.35.73-2.48,4.23,2.44-.21,4.93-.32,7.4-.66,1.52-.21,2.03.24,2.17,1.75.67,7.23,1.43,14.45,2.17,21.68.3,2.92.72,3.19,3.92,2.43-.42-4.35-.85-8.73-1.28-13.11.46.16.6.38.71.62,2.31,4.87,4.67,9.72,6.89,14.63.87,1.93,2.5,1.35,3.88,1.34.24,0,.67-1.65.66-2.54-.06-4.67-.29-9.34-.36-14.01-.08-5.11-.1-10.22-.05-15.33ZM170.72,197.13c-.87-3.46-1.58-4.22-5.36-4.84-.17.89-.35,1.79-.53,2.69-1.59,7.94-3.13,15.9-4.8,23.82-.61,2.91-.59,3.1,2.75,3.25.46-2.03.95-4.11,1.39-6.2.26-1.21.81-1.77,2.18-1.8,5.58-.14,5.58-.19,7.66,5,.05.13.12.26.17.4q1.26,3.17,4.88,1.88c-.23-.65-.34-1.21-.61-1.69-3.99-7.03-5.8-14.8-7.74-22.52ZM165.44,210.4c.77-3.13,1.48-6.01,2.19-8.89.19-.02.39-.03.58-.05.75,2.88,1.51,5.77,2.34,8.94h-5.11ZM142.1,194.19c-.23-1.3-.32-2.31-2.08-2.35-1.67-.04-2.39.47-2.37,2.15,0,.44-.37.91-.62,1.33-2.7,4.49-5.54,8.9-8.09,13.47-1.93,3.45-3.57,7.1-3.48,11.19.01.56.61,1.38,1.13,1.59,1.01.42,2.17.49,3.44.74.15-2.13.24-3.98.43-5.82.17-1.62.87-2.61,2.78-2.48,2.15.15,4.33-.1,6.47.11.77.07,1.81.8,2.13,1.51.98,2.12,1.67,4.38,2.51,6.68,1.57-.35,2.87-.64,4.13-.92,0-.45.07-.69,0-.87-3.55-8.43-4.79-17.43-6.38-26.33ZM132.12,210.35c2.05-3.28,3.84-6.15,5.64-9.01.25.02.49.04.74.05.7,2.9,1.4,5.81,2.15,8.96h-8.53ZM133.69,194.4c-7.54-2.93-15.02-5.84-22.59-8.78,0,3.09-.03,5.8.02,8.51.02,1.2-.41,1.7-1.64,1.63-1.41-.08-2.82-.02-4.68-.02,1.57,3.22,2.9,5.98,4.26,8.73q1.64,3.33-1.41,5.15c-.25.15-.55.21-1.12.41,5.31,3.51,10.06,6.64,14.53,9.6,1.78-4.57,3.17-9.02,5.23-13.13,2.07-4.13,4.81-7.93,7.4-12.09ZM128.44,193.96c-.02.2-.04.4-.07.6-4.15,0-8.3.04-12.44-.05-.49-.01-1.18-.62-1.39-1.12-.33-.76-.33-1.67-.55-3.03,5,1.24,9.72,2.42,14.45,3.6ZM108.88,198.7c6.75-1,13.07-1.94,19.38-2.88,0,.13-.01.26-.02.39-5.09,2.64-10.18,5.28-15.48,8.02-1.13-1.6-2.34-3.33-3.89-5.53ZM119.86,211.47q-1.53,2.59-4.19.97c-1.08-.65-2.16-1.3-3.61-2.18,5.94-4.5,11.57-8.76,17.2-13.03.07.07.15.13.22.2-2.77,4.02-5.55,8.04-8.31,12.06-.45.65-.9,1.3-1.3,1.98ZM209.96,218.83c-3.8.06-7.6.02-11.7.02.25-.78.35-1.27.55-1.72,3.27-7.21,6.52-14.42,9.83-21.61,1.15-2.48.5-3.62-2.27-3.66-3.17-.04-6.33-.05-9.5-.14-1.29-.04-2.37-.22-2.4,1.73-.02,1.79.79,2,2.22,1.96,2.4-.06,4.8-.02,7.65-.02-.57,1.37-.88,2.15-1.22,2.91-3.03,6.68-6.08,13.36-9.09,20.05-1.26,2.79-.55,3.98,2.43,4.02,4.67.07,9.35.01,14.02.07,1.1.01,1.52-.36,1.59-1.47.11-1.62-.56-2.18-2.12-2.15ZM160.3,187.03c-.19-1.88-1.27-1.73-2.5-1.76-1.54-.04-1.45,1.05-1.5,2.07-.23,4.73-.4,9.47-.73,14.2-.25,3.54-.74,7.07-1.12,10.6-.34.02-.69.04-1.03.06-.78-2.8-1.86-5.57-2.28-8.42-.81-5.54-1.27-11.12-1.8-16.69-.11-1.15-.41-1.76-1.66-1.64-4.22.42-8.44.81-12.66,1.21-1.66.16-1.26,1.42-1.31,2.45-.06,1.25.67,1.36,1.68,1.28,2.58-.2,5.17-.32,7.75-.52,1.24-.1,1.85.32,1.96,1.64.17,2.07.45,4.14.76,6.2.96,6.4,1.97,12.8,4.9,18.67.46.92,1.63,2.34,2.18,2.22,1.7-.37,3.81-.43,4.54-2.67,3.09-9.43,3.84-19.07,2.84-28.91ZM252.52,194.24c0-1.17.14-2.34-1.68-2.33-1.46,0-1.84.63-1.83,1.96.04,4.89,0,9.78-.02,14.67,0,.92.19,1.99-1.27,1.99-1.85,0-3.7,0-5.49,0,.74-7.8,1.4-15.16,2.14-22.5.24-2.38-.06-2.81-2.43-2.77-.54,0-1.08.18-1.63.27.34,8.4-.2,16.5-3.24,24.3-.75,1.93,1.15,4.19,3.29,4.24,2.23.04,4.46.1,6.69.02,1.52-.06,2.05.53,1.99,2.01-.08,2.05-.02,4.1-.02,6.22h4.1c-.15-1.96-.39-3.79-.41-5.63-.09-7.48-.12-14.96-.18-22.44ZM286.31,218.34c-3.21.3-6.41.66-9.61.93-1.76.15-2.07,1.34-1.56,2.54.26.63,1.47.85,1.7.97,3.73-.33,6.72-.67,9.72-.82,1.59-.08,1.88-.87,1.84-2.22-.04-1.53-1.03-1.51-2.08-1.41ZM258.77,193.43c-4.47,3.45-5.67,10.55-2.86,15.41,1.6,2.77,3.75,4.62,7.26,5.61-1.93,2.35-3.63,4.42-5.66,6.89,1.97.36,3.52,2.23,5.18.37,3.72-4.2,6.51-8.95,7.74-14.49.88-3.96.93-7.83-1.07-11.53-2.04-3.77-7.19-4.88-10.59-2.26ZM264.24,211.16c-1.39-1.45-2.55-2.44-3.43-3.63-1.75-2.38-2.08-5.14-1.65-7.99.26-1.7,1.25-2.89,3.02-3.2,1.83-.32,2.73.83,3.43,2.29,2.01,4.2.56,8-1.36,12.54ZM220.93,185.5c-3.57.34-7.16.59-10.74.88-3.04.25-3.42.81-2.49,4.01,3.13-.22,6.31-.45,9.79-.69-2.09,3.31-4.11,6.26-5.86,9.36-2.58,4.56-5.08,9.19-5.98,14.45-.13.79.02,2.23.44,2.41,1.03.43,2.3.67,3.16-.8.32-.55,1.39-.92,2.13-.94,3.38-.09,6.76-.02,10.13,0,3.34.01,3.41,0,3.69,3.3.12,1.41.7,1.83,2.02,1.83,1.39,0,1.67-.69,1.67-1.88,0-10.36-1.42-20.47-5.25-30.17-.55-1.39-1.29-1.88-2.73-1.75ZM223.27,210.51c-4.07.11-8.15.08-12.77.08,2.63-6.57,6.1-11.87,10.09-17.24.36.62.66.94.73,1.3.96,4.72,1.92,9.44,2.76,14.18.09.52-.51,1.68-.81,1.69ZM287.03,211.82c1.47-2.28,2.17-5.06,3.21-7.6-.88-2.82-1.35-5.4-2.46-7.68-2.3-4.7-7.68-5.6-11.58-2.17-4.86,4.27-4.94,14.42-.15,18.71,3.87,3.46,8.13,3.14,10.97-1.26ZM277.26,199.91c.73-1.8,1.92-3.25,3.88-3.26,2.14-.01,3.23,1.66,3.81,3.56.31,1.02.4,2.1.58,3.16.1.06.21.12.31.18-.69,1.92-1.1,4.01-2.13,5.73-1.46,2.46-4.31,2.26-5.71-.25-1.62-2.89-2.04-5.93-.75-9.11Z"/></svg>