<?xml version="1.0" encoding="UTF-8"?><svg id="a" xmlns="http://www.w3.org/2000/svg" width="400" height="400" viewBox="0 0 400 400"><defs><style>.b{fill:#1c2b51;}.c{fill:#dd5f36;}</style></defs><polygon class="b" points="146.84 253.05 128.88 211.37 128.88 253.03 119.78 253.03 119.78 189.31 129.28 189.31 147.23 230.96 147.23 189.31 156.34 189.31 156.34 253.03 146.84 253.05"/><polygon class="b" points="238.56 253.05 205.92 253.05 205.92 231.38 215.03 231.38 215.03 243.95 229.46 243.95 229.46 228.37 205.92 218.24 205.92 189.33 238.56 189.33 238.56 208.95 229.46 208.95 229.46 198.43 215.03 198.43 215.03 212.25 238.56 222.38 238.56 253.05"/><polygon class="b" points="280.3 253.05 247.67 253.05 247.67 189.33 280.3 189.33 280.3 208.95 271.2 208.95 271.2 198.43 256.77 198.43 256.77 243.95 271.2 243.95 271.2 231.38 280.3 231.38 280.3 253.05"/><path class="b" d="M192.14,253.05h9.38l-15.69-63.73h-9.39l-15.69,63.73h9.38l4.12-16.73,15.41,6.64,2.48,10.09ZM176.45,227.36l4.68-19.02,5.79,23.53-10.48-4.51Z"/><path class="c" d="M130.53,146.95c-1.43,2.45-5.6,10.6-.16,14.63,1.18.89,2.86,1.34,4.91,1.34,1.63,0,3.49-.28,5.53-.83l55.18-14.87-55.84,24.06c-3.33,1.43-7.72,2.98-11.64,2.98-3.15,0-6-1-7.76-3.88-2.19-3.57-.8-9.14,2.44-14.22,2.07-3.25,4.71-6.22,7.34-9.21"/></svg>