<?xml version="1.0" encoding="UTF-8"?><svg id="a" xmlns="http://www.w3.org/2000/svg" width="400" height="400" viewBox="0 0 400 400"><defs><style>.b{fill:none;}.c{fill:#8b3621;}.d{fill:#6c1935;}.e{fill:#e7c883;}.f{fill:#d1a347;}.g{fill:#822a36;}.h{fill:#eaf6f4;}.i{fill:#9c512e;}.j{fill:#e4e9de;}.k{fill:#7e211a;}.l{fill:#6f131b;}</style></defs><path d="M198.09,196.32c2.28,0,4.2-.86,5.65-1.98.24-.2.4-.44.4-.66v-5.03c0-.31-.26-.57-.57-.57h-5.23c-.29,0-.53.24-.53.53s.24.53.53.53h4.7v4.41c-1.12.95-2.94,1.76-4.9,1.76-4.11,0-6.59-2.97-6.59-6.94v-.04c0-3.71,2.61-6.87,6.35-6.87,2.13,0,3.43.64,4.61,1.56.13.11.26.15.35.15.31,0,.57-.26.57-.57,0-.2-.09-.35-.22-.46-1.43-1.08-2.94-1.71-5.25-1.71-4.59,0-7.6,3.8-7.6,7.95v.04c0,4.33,2.88,7.91,7.73,7.91ZM215.71,189.49c2.59-.35,4.5-1.82,4.5-4.39v-.04c0-1.1-.44-2.13-1.16-2.85-.92-.92-2.44-1.52-4.33-1.52h-5.89c-.31,0-.57.26-.57.57v14.32c0,.31.26.57.57.57s.57-.26.57-.57v-5.89h5.03l4.72,6.15c.13.18.29.31.5.31.31,0,.59-.29.59-.59,0-.13-.07-.26-.18-.4l-4.37-5.67ZM209.41,188.65v-6.92h5.25c2.79,0,4.41,1.3,4.41,3.36v.04c0,2.22-1.91,3.51-4.48,3.51h-5.18ZM231.18,196.32c4.66,0,7.75-3.76,7.75-7.95v-.04c0-4.2-3.05-7.91-7.71-7.91s-7.75,3.76-7.75,7.95v.04c0,4.2,3.05,7.91,7.71,7.91ZM224.65,188.32c0-3.8,2.72-6.87,6.52-6.87s6.57,3.12,6.57,6.92v.04c0,3.8-2.72,6.88-6.52,6.88s-6.57-3.12-6.57-6.92v-.04ZM246.31,195.73c.11.31.28.5.59.5h.04c.31,0,.5-.22.59-.5l4.35-12.92,4.35,12.92c.09.28.29.5.59.5h.04c.31,0,.48-.22.59-.5l5.14-14.26c.04-.11.09-.22.09-.31,0-.29-.29-.57-.57-.57-.26,0-.44.18-.55.46l-4.7,13.31-4.37-13.33c-.09-.24-.26-.44-.55-.44h-.04c-.31,0-.46.2-.55.44l-4.37,13.33-4.68-13.24c-.09-.26-.31-.53-.62-.53s-.59.29-.59.59c0,.09.02.18.07.29l5.14,14.26ZM270.54,195.57c0,.31.26.57.57.57s.57-.26.57-.57v-13.84h4.92c.29,0,.53-.24.53-.53s-.24-.53-.53-.53h-10.98c-.29,0-.53.24-.53.53s.24.53.53.53h4.92v13.84ZM291.5,195.57c0,.31.26.57.57.57s.57-.26.57-.57v-14.41c0-.31-.26-.57-.57-.57s-.57.26-.57.57v6.63h-9.84v-6.63c0-.31-.26-.57-.57-.57s-.57.26-.57.57v14.41c0,.31.26.57.57.57s.57-.26.57-.57v-6.72h9.84v6.72ZM196.62,199.86h-5.01c-.31,0-.57.26-.57.57v14.32c0,.31.26.57.57.57s.57-.26.57-.57v-5.25h4.15c3.21,0,6-1.67,6-4.9v-.04c0-2.97-2.33-4.7-5.71-4.7ZM201.19,204.67c0,2.28-1.93,3.78-4.79,3.78h-4.22v-7.53h4.35c2.77,0,4.66,1.27,4.66,3.71v.04ZM211.38,200.26c-.15-.33-.37-.55-.77-.55h-.04c-.4,0-.62.22-.77.55l-6.61,14.32c-.02.07-.04.13-.04.22,0,.26.24.53.55.53.26,0,.44-.2.53-.42l1.8-3.98h9.07l1.8,3.95c.11.22.29.44.55.44.33,0,.57-.29.57-.55,0-.11,0-.15-.04-.24l-6.59-14.28ZM206.51,209.9l4.06-8.9,4.04,8.9h-8.11ZM229,208.67c2.59-.35,4.5-1.82,4.5-4.39v-.04c0-1.1-.44-2.13-1.16-2.85-.92-.92-2.44-1.52-4.33-1.52h-5.89c-.31,0-.57.26-.57.57v14.32c0,.31.26.57.57.57s.57-.26.57-.57v-5.89h5.03l4.72,6.15c.13.18.29.31.5.31.31,0,.59-.29.59-.59,0-.13-.07-.26-.18-.4l-4.37-5.67ZM222.7,207.84v-6.92h5.25c2.79,0,4.42,1.3,4.42,3.36v.04c0,2.22-1.91,3.51-4.48,3.51h-5.18ZM247.57,199.86h-10.98c-.29,0-.53.24-.53.53s.24.53.53.53h4.92v13.84c0,.31.26.57.57.57s.57-.26.57-.57v-13.84h4.92c.29,0,.53-.24.53-.53s-.24-.53-.53-.53ZM263.71,199.77c-.31,0-.55.24-.55.55v12.96l-10.37-13.16c-.15-.2-.33-.33-.57-.33h-.18c-.31,0-.57.26-.57.57v14.41c0,.31.24.55.55.55s.55-.24.55-.55v-13.24l10.57,13.4c.17.22.35.37.57.37h.09c.26,0,.46-.22.46-.48v-14.5c0-.31-.24-.55-.55-.55ZM279.44,214.18h-9.47v-6.17h8.37c.29,0,.53-.24.53-.53s-.24-.53-.53-.53h-8.37v-6.04h9.36c.29,0,.53-.24.53-.53s-.24-.53-.53-.53h-9.93c-.31,0-.57.26-.57.57v14.23c0,.31.26.57.57.57h10.04c.29,0,.53-.24.53-.53s-.24-.53-.53-.53ZM290.99,208.67c2.59-.35,4.5-1.82,4.5-4.39v-.04c0-1.1-.44-2.13-1.16-2.85-.92-.92-2.44-1.52-4.33-1.52h-5.89c-.31,0-.57.26-.57.57v14.32c0,.31.26.57.57.57s.57-.26.57-.57v-5.89h5.03l4.72,6.15c.13.18.29.31.5.31.31,0,.59-.29.59-.59,0-.13-.07-.26-.18-.4l-4.37-5.67ZM284.69,207.84v-6.92h5.25c2.79,0,4.42,1.3,4.42,3.36v.04c0,2.22-1.91,3.51-4.48,3.51h-5.18ZM304.68,206.98c-3.65-.75-4.48-1.73-4.48-3.36v-.04c0-1.6,1.49-2.9,3.75-2.9,1.56,0,2.9.42,4.24,1.45.11.09.24.13.37.13.31,0,.57-.26.57-.57,0-.22-.13-.37-.24-.46-1.41-1.05-2.83-1.58-4.9-1.58-2.86,0-4.94,1.76-4.94,4.04v.04c0,2.33,1.49,3.58,5.18,4.33,3.49.7,4.35,1.65,4.35,3.27v.04c0,1.76-1.58,3.05-3.89,3.05-2.11,0-3.65-.61-5.18-2-.09-.07-.22-.13-.37-.13-.31,0-.57.26-.57.57,0,.2.11.35.22.44,1.73,1.43,3.54,2.15,5.84,2.15,2.97,0,5.1-1.71,5.1-4.2v-.04c0-2.24-1.49-3.51-5.05-4.24ZM314.96,199.33c-1.83,0-3.28,1.49-3.28,3.27v.02c0,1.78,1.43,3.25,3.26,3.25s3.28-1.49,3.28-3.27v-.02c0-1.78-1.43-3.25-3.26-3.25ZM317.84,202.6c0,1.6-1.25,2.91-2.9,2.91s-2.88-1.29-2.88-2.89v-.02c0-1.6,1.25-2.91,2.9-2.91s2.88,1.29,2.88,2.89v.02ZM316.51,201.92v-.02c0-.31-.1-.57-.29-.76-.24-.24-.61-.38-1.07-.38h-1.54v3.47h.77v-1.12h.61l.74,1.12h.89l-.85-1.24c.44-.16.75-.51.75-1.07ZM315.74,201.97c0,.29-.21.49-.6.49h-.77v-1.02h.75c.38,0,.61.17.61.5v.02Z"/><path class="b" d="M177.67,195.07c.1-.06.2-.12.3-.18,1.06-.01,2.12-.02,3.17-.04-1.06.01-2.12.02-3.17.04-.1.06-.2.12-.3.18Z"/><path class="b" d="M183.69,199.18s.08-.04.12-.06c-.04.02-.08.04-.12.05-.02.18-.03.35-.05.53.02-.18.03-.35.05-.53Z"/><path class="b" d="M182.5,196.39h0s-.04-.06-.05-.09c0,.03.03.06.04.09Z"/><path class="b" d="M177.72,194.85c-.02.07-.03.15-.05.22,0,0,0,0,0,.02,0,0,0-.02,0-.02.02-.07.03-.15.05-.22Z"/><path class="b" d="M181.94,194.74c-.27,0-.54,0-.81,0h0,0c.27,0,.54,0,.81,0Z"/><path class="b" d="M174.67,181.03c0,.17,0,.34,0,.51h0c0-.17,0-.34,0-.51Z"/><path class="b" d="M166.42,186.01h0c.31.75.63,1.49.95,2.23h0c-.32-.74-.64-1.49-.95-2.23Z"/><path class="b" d="M177.63,197.78c.15.05.3.13.45.13-.15,0-.3-.09-.45-.13h0Z"/><path class="b" d="M167.37,188.25h0c.26.61.51,1.21.75,1.83-.24-.61-.5-1.22-.75-1.83Z"/><path class="b" d="M183.56,199.68s.06.02.09.03l.06.06-.06-.06s-.06-.02-.09-.03h0Z"/><path class="b" d="M183.16,197.65c.03-.17.07-.33.1-.5h0c-.03.17-.07.33-.1.5Z"/><path class="b" d="M178.46,198.56c-.25,0-.49.16-.73.24,0,.08-.01.16-.02.23,0-.08.01-.16.02-.23.24-.08.49-.24.73-.24Z"/><path class="b" d="M108.74,205.01c.22.04.44.08.66.13h0c-.22-.04-.44-.08-.66-.13Z"/><path class="b" d="M177.05,198.12s.08.04.11.06c.18.55.37,1.09.55,1.64-.18-.55-.37-1.09-.55-1.64-.03-.02-.08-.04-.11-.06Z"/><path class="b" d="M183.92,198.16c-.04-.49-.07-.95-.11-1.4h0c.04.46.07.92.11,1.4Z"/><path class="b" d="M183.16,185.37c-.19,0-.39,0-.58,0h0c.19,0,.39,0,.58,0,.18-.05.36-.1.54-.15h0l-.54.15Z"/><path class="b" d="M184.3,186.83c0,.06,0,.12.01.19,0-.06,0-.12-.01-.19h0Z"/><path class="b" d="M177.19,184.83c.01-.16.02-.33.03-.5.1,0,.18,0,.25-.03-.07.03-.15.04-.25.03-.01.16-.02.33-.03.5h0Z"/><path class="b" d="M176.97,183.73c0,.11-.03.21-.07.32.04-.11.07-.21.07-.32Z"/><path class="b" d="M104.72,191.59c.16-.07.28-.22.27-.51.1-.05.24-.09.35-.14-.12.05-.25.09-.35.14,0,.29-.11.44-.27.51Z"/><path class="b" d="M176.95,183.57c.08-.08.15-.16.23-.24.02.34.03.67.05,1.01-.02-.34-.03-.67-.05-1.01-.08.08-.15.16-.23.24h0Z"/><polygon class="b" points="176.2 195.87 176.18 195.89 176.2 195.87 176.2 195.87"/><path class="b" d="M177.08,180.53c0,.25,0,.5,0,.74h0c0-.25,0-.5,0-.74Z"/><path class="b" d="M174.39,185.45c-.13,0-.22.02-.28.06.06-.04.14-.06.28-.06h0Z"/><path class="b" d="M104.34,187.74h-.02c-.11.07-.22.12-.33.18.11-.06.22-.11.33-.17h.02Z"/><path class="b" d="M174.39,184.34s-.08-.04-.11-.06c.04.02.08.04.11.06-.02-.39-.04-.79-.06-1.18.02.39.04.79.06,1.18Z"/><path class="b" d="M104.65,187.88h0l-.05.26c.02-.09.04-.17.06-.26Z"/><path class="b" d="M184.18,190.81c-.16-.09-.33-.17-.49-.26l.49.26h0Z"/><path class="b" d="M177.08,191.18s-.04,0-.07,0c.02,0,.04,0,.07,0l.26-.38-.26.38Z"/><path class="b" d="M182.58,185.37h0c-1.28,0-2.56,0-3.84.01,1.28,0,2.56,0,3.84-.01Z"/><rect class="b" x="175.44" y="185.86" height=".01" transform="translate(-78.72 158.92) rotate(-40.6)"/><path class="b" d="M177.07,181.42s0-.1,0-.14h0s0,.1,0,.14h0Z"/><path class="b" d="M176.88,182.68c.07.05.14.11.17.16-.03-.05-.1-.11-.17-.16Z"/><path class="b" d="M176.61,182.35s.06.06.09.09h0s-.07-.05-.09-.09Z"/><path class="b" d="M174.01,186.11c-.15.06-.3.12-.45.18.15-.06.3-.12.45-.18h0Z"/><path class="b" d="M176.45,187.07c0-.35-.09-.77-.24-.94.04-.09.07-.18.11-.27-.04.09-.07.18-.11.27.16.17.25.59.24.94Z"/><path class="b" d="M176.2,189.02c.02-.13.05-.26.05-.39,0,.13-.03.26-.05.39h0Z"/><path class="b" d="M182.91,196.58c.1.16.2.32.29.48-.1-.16-.2-.32-.29-.48-.08-.04-.15-.07-.23-.11.08.04.15.07.23.11Z"/><path class="b" d="M104.04,180.4s-.06,0-.08,0h0s.06,0,.08,0h0Z"/><path class="b" d="M174.45,180.5h0c-.13-.12-.31-.24-.41-.37.1.13.29.24.41.37Z"/><path class="b" d="M165.44,182.24c-.3-.41-.61-.81-.92-1.21h0c.31.4.63.8.92,1.21Z"/><path class="b" d="M164.52,181.02c-.09-.22-.18-.45-.27-.67h0c.09.22.18.45.27.67Z"/><path class="b" d="M159.05,181.33l-.53-.97h0l.53.97Z"/><path class="b" d="M85.45,204.99c-.02-.14-.01-.33,0-.58.03-.17.06-.35.09-.52-.03.17-.06.35-.09.52,0,.25-.01.44,0,.58Z"/><path class="b" d="M86.2,203.93c-.22-.01-.44-.03-.67-.04.22.01.44.03.67.04h0Z"/><path class="b" d="M110.56,194.65c0-.05,0-.11.01-.16h0s0,0,0,0c0,.05,0,.11-.01.16Z"/><path class="b" d="M178.48,214.78c.08.09.17.19.25.28-.08-.09-.17-.19-.25-.28h0Z"/><path class="b" d="M89.43,208.29s-.02-.06-.04-.09c0-.51-.02-1.01-.03-1.52,0,.51.02,1.01.03,1.52.01.03.03.06.04.09Z"/><path class="b" d="M109.01,202.03s-.03.07-.04.1c.01-.03.03-.07.04-.1,0,0,0,0,0,0Z"/><path class="b" d="M89.5,212.27s-.11-.02-.15-.03h0s.1.02.15.03Z"/><path class="b" d="M87.1,203.99c.14-.04.28-.1.41-.15-.14.05-.28.11-.41.15-.3-.02-.6-.04-.9-.05h0c.3.02.6.04.9.05Z"/><path class="b" d="M178.46,213.76c-.09-.07-.2-.11-.36-.11-.53-.16-1.06-.33-1.66-.52.6.19,1.13.35,1.66.52.16,0,.27.04.36.11Z"/><polygon class="b" points="112.71 197.17 112.71 197.17 112.71 197.17 112.71 197.17"/><path class="b" d="M108.17,199.08h0c0,.06,0,.12-.02.19,0-.06.01-.12.02-.19Z"/><path class="b" d="M108.04,200.7s.04-.09.06-.14c0-.32,0-.65,0-.97,0,.32,0,.65,0,.97-.02.05-.04.09-.06.14Z"/><path class="b" d="M107.8,198.56c-.08,0-.18.03-.29.1h0c.12-.07.22-.1.29-.1Z"/><path class="b" d="M108.14,195.25c-.09.1-.17.2-.24.3.06-.11.15-.2.24-.3-.16-.05-.33-.09-.49-.14.16.05.33.09.49.14Z"/><path class="b" d="M175.82,207.44h0c.1.15.2.31.3.46-.1-.15-.2-.31-.3-.46Z"/><path class="b" d="M89.28,215.11h0c.03-.44.06-.88.09-1.32-.03.44-.06.88-.09,1.32Z"/><path class="b" d="M103.92,205.46s.06,0,.08,0t0,0s-.06,0-.08,0Z"/><path class="b" d="M107.41,194.67c0,.07,0,.13,0,.2,0-.07,0-.13,0-.2h0Z"/><path class="b" d="M108.42,200.2l.1.13c.05.12.11.24.16.36h0c-.05-.12-.11-.24-.16-.36l-.1-.13Z"/><path class="b" d="M181.28,208.05c.1-.08.21-.22.31-.22-.1,0-.21.14-.31.22h-.09s.06,0,.09,0Z"/><path class="b" d="M108.87,201.35c.31.02.61-.01.81-.36h0c-.2.35-.5.38-.81.36Z"/><path class="b" d="M105.37,199.43h-1.15c.38,0,.76,0,1.15,0h0Z"/><path class="b" d="M108.14,195.25c.09-.04.18-.09.27-.13h0c-.09.04-.18.09-.27.13Z"/><path class="b" d="M181.2,208.06c-.06,0-.11.01-.16.02.05,0,.11-.01.16-.02h0Z"/><path class="b" d="M104.35,198.53c0,.09,0,.17-.01.26-.04.09-.09.17-.14.26.05-.09.09-.17.14-.26,0-.09,0-.17.01-.26Z"/><path class="b" d="M110.58,195.1c0-.12-.01-.24-.02-.36,0-.03-.01-.06,0-.09,0,.03,0,.06,0,.09,0,.12.01.24.02.36Z"/><path class="b" d="M85.49,213.94h1.2l.23-.13-.23.13h-1.2Z"/><path class="b" d="M86.5,214.92c.06-.06.13-.12.18-.19-.05.06-.11.13-.18.19Z"/><path class="b" d="M87.35,210.21h0c-.13.01-.26.02-.4.03-.12,0-.25,0-.37,0,.12,0,.25,0,.37,0,.13-.01.26-.02.4-.03Z"/><path class="b" d="M87.09,204.25h0c0,.42-.01.73-.04.96.03-.23.03-.55.04-.96Z"/><path class="b" d="M86.81,205.39c0-.35,0-.7.03-1.05-.03.35-.02.7-.03,1.05-.35,0-.61.01-.81,0,.2.01.46,0,.81,0Z"/><path class="b" d="M87.47,205.74s-.07-.06-.1-.1c.02-.19.04-.39.06-.58-.02.19-.04.39-.06.58.03.03.06.07.1.1Z"/><path class="b" d="M87.46,208.96c-.03-.64-.05-1.27-.08-1.91,0-.08,0-.16-.01-.24,0,.08,0,.16.01.24.03.64.05,1.27.08,1.91Z"/><path class="b" d="M87.41,206.77s-.02-.07-.02-.11c0-.07,0-.14.01-.21,0,.07,0,.14-.01.21,0,.04.02.07.02.11Z"/><path class="b" d="M183.92,187.88s0-.01,0-.02c0,0,0,.01,0,.02Z"/><path class="b" d="M85.45,204.99c.02.14.06.23.15.29-.09-.06-.13-.15-.15-.29Z"/><path class="b" d="M87.58,205.83c.07.07.12.13.12.2,0-.07-.05-.13-.12-.2Z"/><path class="b" d="M174.67,180.52h0l.09-.49-.09.49Z"/><path class="b" d="M83.64,210.35c.98-.03,1.96-.07,2.94-.1-.98.03-1.96.07-2.94.1-.06,0-.11.01-.17.02h0c.06,0,.12-.02.17-.02Z"/><path class="b" d="M86.01,205.39c-.18-.01-.3-.04-.39-.09h0c.09.05.21.08.39.09Z"/><polygon class="b" points="87.07 204.03 87.1 203.99 87.07 204.03 87.07 204.03"/><path class="b" d="M86.66,205.83c.24-.09.34-.26.39-.61-.04.35-.14.53-.39.61Z"/><path class="b" d="M85.62,205.3s-.02,0-.02,0c0,0,.02,0,.02,0h0Z"/><path class="b" d="M146.64,205.65h0c-.43-.04-.85-.09-1.28-.13.43.04.85.09,1.28.13Z"/><path class="b" d="M147,205.17s.02-.07.04-.11c-.01.04-.03.07-.04.11h0Z"/><path class="b" d="M146.59,206.03s-.07-.08-.06-.14c0,.06.02.11.06.14Z"/><path class="b" d="M146,205.21s-.06-.03-.09-.05c0,0,0,0,0,0,.03.02.06.04.09.05Z"/><path class="b" d="M142.72,196.83c-.05-.07-.11-.14-.16-.21h0c.05.07.11.14.16.21Z"/><path class="b" d="M145.08,201.1c-.18-.34-.35-.68-.53-1.02-.35-.71-.67-1.44-1.06-2.14.39.69.71,1.42,1.06,2.14.18.34.35.68.53,1.02Z"/><path class="b" d="M148.64,207.95s-.08,0-.12,0c-.12-.28-.23-.58-.35-.86.12.29.23.58.35.86.04,0,.08,0,.12,0Z"/><path class="b" d="M149.12,212.09c-.2-.04-.39-.06-.6-.09h0s0,0,0,0c.2.02.4.05.6.09Z"/><path class="b" d="M141.55,194.11c-.08-.13-.15-.25-.23-.37-.02-.04-.03-.08-.05-.11h0s.03.08.05.11c.08.12.15.25.23.37Z"/><path class="b" d="M149.28,209.22c.02-.14.02-.28.01-.4.01.13,0,.26-.01.4h0Z"/><path class="b" d="M148.52,212c-.04-.12-.09-.25-.13-.37,0-.06,0-.13,0-.19,0,.06,0,.13,0,.19.04.12.09.25.13.37Z"/><path class="b" d="M129.01,203.51c.18.02.41-.08.72-.28h0c-.31.2-.53.3-.72.28Z"/><path class="b" d="M140.23,192.95c-.1.24-.18.45-.27.67h0c.09-.22.17-.43.27-.67Z"/><path class="b" d="M139.88,193.85c.03-.07.06-.16.09-.23h0c-.03.08-.06.16-.09.23h0Z"/><path class="b" d="M147.13,215.19s0,.07,0,.11c0-.04,0-.07,0-.11.03-.03.08-.06.12-.09h0s-.09.06-.12.09Z"/><path class="b" d="M147.25,215.11s.01,0,.02-.01c0,0-.01,0-.02.01h0Z"/><path class="b" d="M145.21,212.09c-.08.27-.29.45-.5.65-.16-.11-.31-.22-.47-.32.16.11.31.22.47.33.21-.2.42-.38.5-.65Z"/><path class="b" d="M127.33,204.8h0s0,0,0,0h0Z"/><path class="b" d="M126.28,211.19s-.1.05-.18.06c.07,0,.13-.02.18-.06Z"/><path class="b" d="M125.83,211.37c0-.06.01-.11.02-.16h0c0,.05-.01.1-.02.16Z"/><path class="b" d="M150.85,212.89h0s-.07-.05-.1-.07c.03.02.07.05.1.07Z"/><path class="b" d="M151.31,215.29c-.02-.5-.08-1-.12-1.5.08-.17.17-.34.25-.51-.08.17-.17.34-.25.51.04.5.1,1,.12,1.5Z"/><path class="b" d="M151.44,213.27c.04.51.09,1.02.12,1.53-.03-.51-.08-1.02-.12-1.53-.2-.13-.4-.26-.59-.39h0c.2.13.4.26.59.39Z"/><path class="b" d="M128.45,180.27h0s-.01.06-.01.09h0s.01-.06.01-.09Z"/><path class="b" d="M128.43,180.35h0c-.02.09-.03.19-.05.28.02-.09.03-.19.05-.28Z"/><path class="b" d="M128.16,202.26s-.02-.09-.04-.1c.02.01.03.06.04.1h0Z"/><path class="b" d="M127.5,205.21s.11-.01.21-.07c.13-.03.25-.07.38-.11-.13.04-.25.07-.38.11-.1.06-.17.07-.21.07Z"/><path class="b" d="M128.86,210.36h.86c.05,0,.1,0,.16,0-.05,0-.1,0-.16,0-.29,0-.57,0-.86,0Z"/><path class="b" d="M128.69,208.95s.02-.07.03-.11c0,.04-.02.07-.03.11-.14.5-.19.79-.08.95-.11-.16-.06-.45.08-.95Z"/><path class="b" d="M128.62,212.23h0c.38-.2.76-.4,1.14-.6-.38.2-.76.4-1.14.6Z"/><path class="b" d="M129.12,212.64c-.17.07-.34.13-.56.22.22-.08.39-.15.56-.22h0Z"/><path class="b" d="M132.95,194.33c-.06-.04-.11-.07-.16-.1-.21-.12-.42-.23-.63-.35.21.12.42.23.63.35.05.03.1.06.16.1Z"/><path class="b" d="M127.99,193.92c-.07-.1-.22-.25-.35-.39.13.14.28.3.35.39Z"/><path class="b" d="M128.46,201.59c-.06,0-.13.02-.19.04.06-.02.13-.03.19-.04,0-1.02,0-2.03,0-3.05,0,1.02,0,2.03,0,3.05Z"/><path class="b" d="M125.75,193.33c.15-.04.29-.09.44-.13h0c-.14.04-.29.09-.44.13Z"/><path class="b" d="M127.1,193.41s.07-.09.1-.18c.05,0,.1-.01.15-.02-.05,0-.1.01-.15.02-.03.09-.07.15-.1.18Z"/><path class="b" d="M127.22,192.3s0,0,0,0c-.06-.09-.12-.19-.19-.29.07.1.13.2.19.29,0,0,0,0,0,0Z"/><path class="b" d="M132.11,194.36c.18.04.37.08.55.12h0c-.18-.04-.37-.08-.55-.12Z"/><path class="b" d="M140.82,192.6c.17.32.3.68.45,1.02h0c-.15-.34-.28-.69-.45-1.02Z"/><path class="b" d="M128.45,195.38c-.05.12-.1.24-.14.36.05-.12.1-.24.14-.36.03-.08.06-.17.09-.25-.03.08-.06.17-.09.25Z"/><path class="b" d="M127.35,193.21s.07.08.11.11c.05.06.11.13.18.2-.07-.07-.13-.14-.18-.2-.04-.04-.07-.07-.11-.11Z"/><path class="b" d="M146.14,215.11c-.05-.06-.1-.12-.15-.19,0,0,0-.01,0-.02,0,0,0,.01,0,.02.05.06.1.13.15.19h0Z"/><path class="b" d="M146.22,215.21s-.05-.07-.08-.1h0s.05.07.08.1Z"/><path class="b" d="M107.48,187.98s-.06-.04-.09-.06c.03.02.06.04.09.06,0,0,0,0,0,0Z"/><path class="b" d="M144.96,215.11v-.31c0,.1,0,.21,0,.31h0Z"/><path class="b" d="M138.41,193.95c-.09.04-.19.1-.28.14-.11-.04-.22-.05-.32-.05.1,0,.21,0,.32.05.09-.04.19-.09.28-.14Z"/><path class="b" d="M137.4,194.1c.11-.04.23-.07.35-.07-.12,0-.24.03-.35.07Z"/><path class="b" d="M144.64,207.79c-.11.18-.21.36-.31.53l-.52.04.52-.04c.1-.18.21-.35.31-.53Z"/><path class="k" d="M107.86,202.61c-.84.06-1.67.13-2.51.2-.08,0-.19.06-.24.03-.58-.42-.82.02-1.17.38-.19.2-.61.17-1.04.28.24.27.44.5.65.73-.59.4-.6.51-.08.8.07-.15.15-.31.25-.5q.15.49-.25.5c.13.26.23.53.38.78.39.6.44.59.93.02.27.38.53.76.79,1.13.02.03.05.09.04.12-.05.12-.09.26-.17.35-.04.05-.08.11-.12.17h1.43l2.91,7.13c.1.23.32.39.57.39h7.71c.21,0,.4-.1.52-.28s.13-.39.05-.58l-4.96-11.65c-1.9.23-3.78-.12-5.66.02ZM103.73,204s.07-.03.1-.04c.04.1.08.2.12.31l-.1.04c-.04-.1-.08-.2-.12-.31ZM104.01,205.47s-.03.02-.05.02c-.01,0-.03-.02-.04-.03.03,0,.06,0,.08,0t0,0h0ZM104.45,205.66c-.07-.04-.11-.07-.16-.11.03-.04.06-.11.1-.12.05,0,.1.04.15.07-.03.05-.05.09-.09.15ZM105.17,204.64c.71.06,1.32.11,2.03.16-.45.48-1.45.39-2.03-.16ZM107.54,205.01c-.05-.01-.1-.05-.15-.07.03-.04.06-.08.08-.12.05.04.09.07.16.12-.04.03-.07.07-.09.07ZM108.34,205.05c-.16-.02-.32-.04-.47-.06l.02-.14c.16.03.31.06.47.09,0,.04,0,.07-.01.11ZM109.4,205.14c-.17,0-.33,0-.5.01-.06,0-.11-.02-.17-.03,0-.04,0-.07.01-.11.22.04.44.08.66.13h0,0ZM111.27,211.41c-.3-.11-.83-.22-.84-.36-.02-.33.16-.7.35-1,.17-.27.5-.22.59.07.13.41.15.85.22,1.33-.17-.02-.25-.02-.32-.04Z"/><path class="k" d="M107.41,188.05s-.04-.02-.04-.03c0-.03.01-.07.02-.1.03.02.06.04.09.06,0,0,0,0,0,0h0s-.04.05-.07.07Z"/><path class="k" d="M90.63,209.15c-.02-.18-.15-.35-.23-.52-.13.19-.32.35-.38.56-.09.29.09.78-.52.53-.05.09-.1.17-.15.26,0,.55.02,1.1.02,1.65.02.03.04.06.05.09,0,0-.03.02-.04.04,0,.17-.01.33-.02.5.04,0,.1.02.15.03.05,0,.09.02.09.02-.07.5-.14.99-.22,1.49-.03.44-.06.88-.09,1.32h.62c.25,0,.48-.15.57-.39l1.96-4.81c-.25.02-.49.05-.74.06-.78.02-1-.06-1.07-.82Z"/><path class="k" d="M106.82,187.31c-.22-.52-.36-1.07-.59-1.58-.1-.23-.31-.52-.51-.56-.26-.06-.57.1-.86.26.51.07,1.14-.15,1.2.68-.01.02-.02.07-.05.09-.46.27-.72-.13-1.08-.27-.35-.13-.83.12-.99-.47-.03-.1-.2-.17-.31-.24-.38-.23-.79-.44-1.14-.71-.09-.07-.09-.34-.04-.5.32-1.23.13-1.63-1-2.12-.36-.16-.69-.38-1.16-.63-.09.16-.19.37-.36.69-.21-.34-.29-.55-.43-.67-.24-.2-.52-.36-.8-.51-.14-.08-.37-.05-.47-.15-.51-.54-.96-.2-1.38.1-.3.22-.46.15-.7-.07-.01-.01-.03-.02-.04-.03l-2.07,4.88c.99.13,1.99.02,2.97.1.66.06,1.34.02,1.97.18.4.11.71.52,1.16.88.06-.36.11-.62.18-1.03.16.28.25.42.33.57.74-.32.96-.2,1.01.62.02.33.15.43.46.44.33.01.66.06.98.15.62.17.73.71.84,1.24,0-.25.02-.49.03-.74.11-.06.22-.11.33-.17h.02c.08,0,.17.01.25.02.02.04.04.07.06.11h0c.1,0,.2,0,.32.02.11,0,.23.01.37.02-.03.32-.05.59-.09.94.22.02.42.03.62.05l.12.26s0,.07,0,.11c.17.14.35.27.52.41.19.17.37.35.66.62.1-.57.16-.98.24-1.38.03-.14.08-.25.13-.36l-.37-.88c-.14-.11-.29-.22-.36-.37ZM103.91,186.51c-.19-.26-.38-.52-.58-.78,0,0,0,0,0,0,0,0,0,0,0,0-.08-.08-.16-.15-.24-.23.05-.03.1-.07.15-.1.03.11.06.22.1.33,0,0,0,0,0,0h0c.36.09.71.2.73.64-.05.05-.1.09-.16.14Z"/><path class="k" d="M107.74,190.74c.02.67.55,1.1,1.18,1.02l-.44-1.03c-.23.05-.49,0-.74,0Z"/><path class="k" d="M109.46,193.04l-.41-.96c-.11,0-.22.01-.32.02.24.31.49.63.73.94Z"/><path class="k" d="M121.92,207.97s.02-.04.03-.06c.48-1.07.51-1.24.38-2.44h.65c-.08-.28-.15-.52-.22-.75.05-.03.09-.06.14-.09.15.11.31.23.6.44.22-.35.39-.75.68-1.02.4-.37.85-.76,1.35-.9.62-.17,1.1-.42,1.36-.99.18-.4.34-.64.84-.47.16.05.35,0,.55-.05.06-.02.13-.03.19-.04,0-1.02,0-2.03,0-3.05.02-.25.05-.5.07-.75,0-.09,0-.18,0-.26-.03-.72-.05-1.43-.08-2.15-.05.12-.1.24-.14.36-.07.18-.15.37-.23.57-.26-.36-.87-.53-.36-1.25.16-.23.05-.72.31-1.05,0-.01,0-.05-.05-.09-.07-.1-.22-.25-.35-.39-.07-.07-.13-.14-.18-.2-.04-.04-.07-.07-.11-.11-.05,0-.1.01-.15.02-.03.09-.07.15-.1.18-.1.1-.19-.04-.28-.19-.21,0-.42-.01-.63-.02-.14.04-.29.09-.44.13.01.26.03.54.05.95-.63-.66-.98-1.18-.7-2.06.08-.26-.54-.9-.97-1.13-.56-.3-1.22-.35-1.62-.98-.09-.15-.6-.06-.91-.01-.1.01-.2.13-.33.27v18.23c.34-.12.57-.26.65-.63ZM124.43,198.59c.04-.18.21-.34.32-.51.14.12.28.23.43.35.17-.02.31-.01.43.02.25.07.42.25.57.52.07.13.13.29.19.46-.29-.06-.48-.09-.67-.13-.37-.08-.76-.12-1.11-.25-.1-.04-.18-.32-.15-.47Z"/><path class="g" d="M149.99,183.8c-.74.12-1.14.66-1.42,1.25-.35.73-.9,1.2-1.6,1.5-.82.36-1.67.64-2.51.95-.08.03-.19.02-.24.08-.58.59-1.28.68-1.99.72v5.32h-.96s.03.08.05.11c.08.12.15.25.23.37.04.09.07.19.11.28.3.74.6,1.49.9,2.23.05.07.11.14.16.21.27.36.55.72.77,1.11.39.69.71,1.42,1.06,2.14.18.34.35.68.53,1.02.19.36.45.7.54,1.08.25,1.06,1.04,1.82,1.42,2.79.01.03,0,.06,0,.1s-.03.07-.04.11c.05.04.11.08.17.14s.15.11.25.2c-.33.06-.56.1-.78.14h0c-.08.1-.11.18-.12.24,0,.06.02.11.06.14.09.07.24.09.36.11.28.06.74-.04.83.11.16.26.29.54.4.83.12.29.23.58.35.86.04,0,.08,0,.12,0,.42.19.61.49.65.87.01.13,0,.26-.01.4.05.12.1.24.16.37.05.13.11.26.17.4-.29.41-.71.18-1.09.12-.04.38-.09.76-.13,1.13,0,.06,0,.13,0,.19,0,.06,0,.13,0,.19.04.12.09.25.13.37h0c.2.03.4.06.6.09.59.11,1.14.31,1.62.73.03.02.07.05.1.07v-29.75c-.16.15-.32.3-.49.44-.11.09-.23.21-.36.23Z"/><path class="g" d="M177.34,190.8c-.05-.47-.13-.95-.14-1.42-.02-1.24,0-2.47,0-3.75h.77c.25,0,.51,0,.76,0,.04,0,.08,0,.13,0l.13-.04c-.08-.07-.17-.13-.25-.2-.09,0-.18,0-.27,0h-1.12s-.01-.05-.01-.05c-.09-.08-.18-.15-.27-.23-.18.12-.37.21-.57.26-.19.06-.39.08-.59.09h0c-.4.02-.81-.02-1.21-.03-.1,0-.2,0-.31.01-.13,0-.22.02-.28.06-.06.04-.08.1-.09.17-.02.13.01.3-.02.43h0c.04.41.08.82.12,1.23.01.33.03.67.03,1,0,.26,0,.52,0,.77.17.12.33.24.47.37-.03-.9-.05-1.8-.09-2.7-.01-.27.33-.53,0-.8.1-.09.19-.26.29-.26.1,0,.2.02.31.05s.2.06.31.09h0c.07.01.14.01.2.01.22-.31.44-.2.67-.01.23.06.47.12.7.19-.06.13-.17.25-.18.38-.02.2.03.41.04.61.02.37.05.74.07,1.11,0,.59,0,1.18,0,1.76,0,.11.08.25.1.36,0,.06,0,.11-.03.16-.04.05-.1.09-.22.12.05.12.09.24.14.36,0,.09,0,.18.01.26h.07s.04,0,.07,0l.26-.38Z"/><path class="g" d="M177.16,198.18s-.08-.04-.11-.06c-.04-.02-.07-.05-.08-.08-.27-.71-.53-1.43-.79-2.15-.06-.06-.11-.12-.17-.18.03-.02.05-.04.08-.06.04.07.07.14.11.21h0c.33.13.67.26,1,.39.01-.46.02-.92.03-1.38-.42-.25-.85-.5-1.39-.81-.03.06-.15.3-.27.53-.07-.04-.14-.08-.21-.13.04-.09.04-.18.05-.26-.67,1.54-2.32,2.43-4.7,2.43h-6.85v-8.39h3.5c-.32-.74-.64-1.49-.95-2.23h0,0c.09-.04.18-.07.27-.11.28.78.54,1.57.85,2.34h3.05c.98,0,1.78.12,2.44.33-.03-.13-.06-.26-.09-.39-.05-.23-.11-.46-.16-.69-.12-.26-.24-.51-.36-.77h0c-.61-1.56-1.22-3.12-1.83-4.67-.24-.57-.47-1.14-.71-1.71h-5.62c.09.22.18.45.27.67.31.4.63.8.92,1.21.06.08.06.22.04.33-.05.25-.14.5-.21.75.1.06.2.12.29.18-.03.03-.07.06-.1.09-.07-.09-.13-.18-.2-.27-.29-.67-.58-1.35-.88-2.02-.14-.31-.28-.62-.42-.94h-2.75c-.39.09-.67.22-.96.53-.22.23-.71.2-1.22.45l-.53-.97h-2.63c-.34,0-.62.28-.62.62v32.18c.84-.18,1.69-.36,2.54-.5.73-.12,1.48-.2,2.22-.21.44,0,.88.18,1.35.29.11-.15.22-.3.29-.39.77-.07,1.5-.13,2.22-.22v-7.74h4.85l4.05,6.05c.82.04,1.77.09,2.82.14-.18-.32-.28-.48-.37-.64.23-.1.46-.21.75-.34.06.35.1.59.17.93.22-.12.39-.21.56-.3-.11-.18-.26-.35-.32-.54-.14-.42-.25-.86-.37-1.29.06-.03.13-.06.19-.09.13.18.29.34.37.54.39.97.76,1.95,1.12,2.93.04.11.07.23.09.35.02.12.03.24.06.36l.04.34c-.1,0-.21.05-.29.01-.43-.21-.49-.57-.19-1.01-.19-.37-.37-.74-.56-1.1-.3.08-.6.17-.89.25h0c.19.11.39.22.69.38-.77.12-.47.54-.42.78.24.18.42.3.59.43-.03.06-.07.11-.1.17h.47s.03.09.04.13c-.22.07-.45.15-.77.25.6.19,1.13.35,1.66.52.16,0,.27.04.36.11.26.2.27.63.52.85.13.11.17.32.23.49h.56c-.1-.23-.2-.45-.29-.68l.23-.11c.14.27.29.53.42.79h3.99s0-.02,0-.02c.27-.52.56-1.03.83-1.55l-3.56-5.21s-.08,0-.11-.01c-.09-.01-.16-.16-.24-.24-.05-.13-.09-.26-.14-.39,0-.02,0-.04,0-.07l-3.29-4.82c.39-.17.75-.37,1.11-.57-.33-.81-.67-1.61-1-2.42-.18-.55-.37-1.09-.55-1.64ZM173.21,201.99c-.07-.18-.17-.34-.24-.52-.05-.13-.08-.27-.12-.41.16.05.41.06.45.15.18.47.3.96.44,1.44-.07.03-.15.05-.22.08-.1-.25-.19-.5-.3-.75ZM174.94,206.25c-.44-1.06-.88-2.11-1.31-3.17.06-.02.11-.05.17-.07.57.75,1.03,1.55,1.03,2.46.17.24.3.42.43.61-.11.06-.21.12-.32.18ZM175.43,206.46s.06.04.09.06c-.05.08-.1.17-.15.25-.04-.02-.08-.05-.12-.07.06-.08.12-.16.18-.24ZM175.52,207.21s-.06,0-.09-.01c-.01,0-.02-.03-.03-.04.02-.01.05-.03.07-.04.01.03.03.06.05.1ZM176.1,208.15c-.02-.07-.03-.13-.05-.2-.03,0-.07-.01-.1-.02-.18-.09-.36-.18-.67-.33.08-.02.14-.04.2-.06.17-.05.25-.08.34-.1h0c.1.15.2.31.3.46.02.08.04.16.07.23-.03,0-.05.01-.08.02ZM179.39,213.85s.06.1.1.16c-.06.03-.11.06-.16.09-.02-.05-.07-.11-.07-.15,0-.04.08-.07.12-.1Z"/><path class="g" d="M182.26,208.82s0-.04,0-.06c.07,0,.14-.02.21-.03,0,.02,0,.05,0,.07-.07,0-.14.01-.21.02Z"/><path class="i" d="M144.12,182.52c.59-.72,1.58-.76,2.22-1.29.74-.61,1.37-.64,2.27-.53.35.04.72-.13,1.12-.34h-6.86c-.34,0-.62.28-.62.62v1.95c.49-.08.98-.17,1.47-.25.14-.02.32-.06.4-.15Z"/><path class="i" d="M160.27,180.88c.3-.31.57-.44.96-.53h-2.72l.53.97c.51-.24,1-.21,1.22-.45Z"/><path class="i" d="M122.39,183.49s.08-.03.11-.05c.94-.48,1.05-.46,1.66.41.07.1.1.23.17.39.31-.4.5-.64.76-.97.09.23.16.37.19.51.19.97.42,1.23,1.42,1.31.58.05.53.48.7.83.12.26-.19.86.54.72.13-.02.33.33.5.5-.03-2.04-.07-4.08-.1-6.13,0-.12.01-.24.04-.37.02-.09.03-.19.05-.28h-6.55c-.34,0-.62.28-.62.62v2.18c.29.41.61.55,1.13.34ZM127.34,180.76c.17.22.34.44.51.66-.06.06-.13.11-.19.17l-.54-.6c.08-.07.15-.15.23-.22Z"/><path class="d" d="M177.66,214.47c.27.07.55.14.82.21-.13-.34-.25-.68-.38-1.02-.53-.16-1.06-.33-1.66-.52.32-.1.54-.18.77-.25-.01-.04-.03-.09-.04-.13h-.47c.03-.06.07-.11.1-.17-.18-.13-.35-.25-.59-.43-.05-.24-.35-.66.42-.78-.3-.17-.5-.27-.69-.38-.07-.04-.14-.09-.2-.13.03-.02.05-.05.08-.07.04.07.08.13.13.2.3-.08.6-.17.89-.25-.04-.17-.09-.34-.13-.51-.17.09-.34.18-.56.3-.06-.34-.1-.58-.17-.93-.29.13-.52.23-.75.34.09.16.18.32.37.64-1.04-.05-2-.1-2.82-.14l2.95,4.4c.11.17.31.27.51.27h1.76c-.14-.18-.29-.35-.43-.53l.1-.1ZM175.93,211.34s-.03-.02-.04-.03c.02,0,.03-.02.05-.02.01,0,.03.02.04.03-.02,0-.03.02-.05.03Z"/><path class="d" d="M179.47,214.43c.1.23.2.45.29.68h.35c-.13-.27-.28-.53-.42-.79l-.23.11Z"/><path class="d" d="M161.37,212.73c-.46-.11-.91-.29-1.35-.29-.74,0-1.49.09-2.22.21-.85.14-1.7.32-2.54.5v1.34c0,.34.28.62.62.62h7.37c.34,0,.62-.28.62-.62v-2.37c-.72.09-1.44.15-2.22.22-.07.09-.18.24-.29.39Z"/><path class="l" d="M107.17,190.3c-.29-.27-.46-.45-.66-.62-.17-.14-.35-.27-.52-.41-.13.49-.21,1-.4,1.46-.03.08-.13.14-.25.19s-.25.09-.35.14c0,.29-.11.44-.27.51s-.37.07-.55.07c-.11,0-.3-.42-.31-.66-.02-.38.07-.77.12-1.16,0-.31,0-.63,0-.94,0-.08,0-.16-.01-.24-.11-.53-.22-1.07-.84-1.24-.32-.09-.65-.14-.98-.15-.32-.01-.44-.11-.46-.44-.05-.82-.27-.94-1.01-.62-.08-.15-.17-.29-.33-.57-.07.41-.12.68-.18,1.03-.45-.36-.76-.77-1.16-.88-.63-.17-1.31-.13-1.97-.18-.99-.08-1.99.02-2.97-.1l-5,11.75c.02.31.04.62.03.93-.01.5-.33.78-.76.77l-1.72,4.03c.48.04.95.09,1.43.13v.22c-.52-.04-1.02-.09-1.53-.13l-.31.72c.3.02.6.04.9.05.14-.04.28-.1.41-.15.14-.05.27-.08.4-.06.52.08,1.02.28,1.52.45.02,0-.06.27-.09.42-.04.25-.08.5-.12.74.04.17.09.34.13.51,0,.26,0,.51.01.77,0,.51.02,1.01.03,1.52.01.03.03.06.04.09,0,.01-.02.03-.03.04l-.06.53c0,.07,0,.14,0,.21.01.22.03.44.04.65.04,0,.08,0,.12,0,.62.25.44-.24.52-.53.06-.21.25-.38.38-.56.08.17.21.34.23.52.07.76.29.84,1.07.82.24,0,.49-.04.74-.06l.94-2.32h11.92c.04-.06.08-.12.12-.17.08-.1.12-.23.17-.35.01-.03-.01-.08-.04-.12-.26-.38-.52-.75-.79-1.13-.49.58-.54.58-.93-.02-.16-.24-.26-.52-.38-.78h0c-.52-.29-.51-.41.08-.81-.21-.23-.41-.46-.65-.73.44-.11.85-.08,1.04-.28.35-.36.59-.8,1.17-.38.05.04.16-.02.24-.03.84-.07,1.67-.13,2.51-.2,1.88-.14,3.76.21,5.66-.02l-.44-1.02c-.91-.08-1.82-.15-2.73-.24-.18-.02-.34-.14-.51-.24-.06-.04-.11-.07-.17-.1-.2.35-.5.38-.81.36-.1,0-.21-.02-.31-.03-.68-.07-1.36-.16-2.04-.24-.25.02-.51.15-.67-.21-.03-.08-.33-.03-.51-.04-.16-.04-.32-.07-.49-.11-.06,0-.13,0-.19,0-.24-.03-.48-.06-.72-.1.21-.1.42-.19.62-.31.11-.07.19-.19.26-.27-.22-.22-.41-.41-.59-.59h0c-.18-.12-.39-.25-.01-.39.05-.09.09-.17.14-.26,0-.09,0-.17.01-.26.26-.16.13-.69.61-.62.08-.08.17-.17.25-.25,0-.04.02-.08.03-.12.03-.05.07-.1.1-.15,0-.04,0-.07.03-.1.07-.09.15-.18.22-.27.47-.61.94-1.23,1.43-1.83.03-.04.09-.05.15-.06.07,0,.14,0,.2-.02,0-.08,0-.16,0-.23,0-.07,0-.13,0-.2h0c.18-.06.36-.17.54-.18.71-.01,1.42,0,2.12,0l-.62-1.45c-.24-.31-.49-.63-.73-.94.09,0,.2-.01.32-.02l-.13-.31c-.63.08-1.15-.35-1.18-1.02.25,0,.5.04.74,0l-.93-2.17c-.06.11-.11.22-.13.36-.08.4-.14.81-.24,1.38ZM96.52,199.84l3.53-8.62,3.53,8.62h-7.06ZM109.01,202.03s0,0,0,0c0,0,0,0,0,0,.03.01.07.03.1.04-.01.03-.02.09-.05.1-.02,0-.07-.02-.1-.04.01-.03.03-.07.04-.1ZM107.89,192.79c-.22-.29-.36-.47-.5-.66-.04.01-.08.03-.11.04.08.26.15.51.23.76-.29.11-.56.21-.83.31.02.06.04.12.05.19.29-.02.58-.05.87-.07.03.05.05.11.08.16-.25.34-.51.68-.78,1.06-.4-.63-.51-1.23-.42-1.91.07-.51-.05-1.04-.1-1.56-.03-.42.2-.64.55-.51.46.18,1.11,1.53.96,2.2Z"/><path class="l" d="M109.54,192.05c0-.06.02-.11.02-.17-.21-.04-.43-.14-.64-.11,0,0,0,0-.02,0l.13.31c.16,0,.32-.02.5-.03Z"/><path class="l" d="M110.57,194.49h0c-.37-.49-.74-.97-1.11-1.45l.62,1.45c.16,0,.33,0,.49,0Z"/><path class="c" d="M103.96,180.51s0-.07,0-.1h0c-.02-.06-.05-.13-.07-.19-.1-.07-.22-.11-.34-.11h-6.8c-.25,0-.47.15-.57.38l-.06.13s.03.02.04.03c.24.22.4.29.7.07.41-.3.87-.64,1.38-.1.1.1.33.08.47.15.28.15.56.31.8.51.15.12.22.33.43.67.17-.32.27-.52.36-.69.46.26.8.47,1.16.63,1.13.49,1.32.89,1,2.12-.04.16-.05.43.04.5.36.27.76.47,1.14.71.11.07.28.14.31.24.16.59.64.34.99.47.36.14.62.54,1.08.27.03-.02.04-.07.05-.09-.06-.83-.69-.6-1.2-.68.28-.16.59-.32.86-.26.2.04.41.33.51.56.23.51.36,1.07.59,1.58.06.15.22.25.36.37l-2.86-6.71c-.17-.11-.64,0-.36-.46Z"/><path class="f" d="M89.08,198.18c0-.31-.01-.62-.03-.93l-.73,1.71c.42,0,.74-.27.76-.77Z"/><path class="c" d="M142.24,205.2v2.68c.4.02.8.05,1.2.09.14.01.25.26.37.4l.52-.04c.1-.18.21-.35.31-.53.11-.18.22-.37.34-.58.15.43.26.75.37,1.08l.46.32c-.04.09-.08.17-.12.26-1.15-.12-2.31-.24-3.46-.36v5.98c0,.34.28.62.62.62h1.22c-.01-.12-.03-.23-.03-.35-.03-.76,0-1.52,0-2.28.07-.02.14-.05.2-.07.16.11.31.22.47.32.21-.2.42-.38.5-.65.03-.09.04-.19.03-.31,0-.16.24-.34.52-.46v1.84c.07.04.13.08.2.12,0-.12.02-.25.03-.38s.02-.27.03-.43c.93.36.14,1.28.72,1.76,0-.45-.02-.85.01-1.24.02-.16.16-.32.24-.48.08-.04.17-.08.25-.12h0c-.24-.12-.49-.23-.76-.36.23-.05.46-.11.71-.17.08-.9-.35-1.95.75-2.73.07.58.11,1.07.2,1.55.03.2.16.38.24.57.04-.38.09-.76.13-1.13h-.06c.4-.19.13-.98.82-.9.02-.14.02-.28.01-.4-.03-.38-.22-.68-.65-.87,0,.16,0,.32,0,.48.12.06.23.11.35.17,0,.05-.02.1-.03.15h-2.8c0-.05-.02-.1-.02-.15.12-.05.24-.1.36-.15.01-.08.03-.16.05-.26.02-.1.04-.23.07-.39.17.18.28.3.38.41.25.08.5.17.75.25-.1-.7.42-.47.77-.51-.12-.28-.23-.58-.35-.86-.12-.29-.25-.56-.4-.83-.09-.15-.55-.04-.83-.11-.12-.03-.27-.05-.36-.11-.04-.03-.07-.08-.06-.14s.04-.14.12-.24c-.43-.04-.85-.09-1.28-.13-1.04-.1-2.09-.21-3.13-.32ZM143.33,214.8c-.07-.01-.15-.02-.22-.03-.01-.21-.09-.45-.02-.62.17-.42.45-.24.75,0-.17.22-.34.43-.52.65Z"/><path class="c" d="M121.88,215.11h6.88v-.45c.28.13.54.24.8.36.18-.11.31-.3.31-.52v-.73c-.15,0-.3.01-.45.02-.23,0-.47-.08-.7-.13,0-.03-.02-.07-.03-.1-.05-.23-.09-.45-.14-.68.22-.08.39-.15.56-.22-.16-.14-.33-.27-.49-.41h0c.07-.37.14-.73.22-1.1-.08-.26-.17-.52-.25-.78.43-.03.86-.06,1.28-.09v-.17c-.13,0-.27,0-.4,0-.49,0-.75-.04-.86-.2s-.06-.45.08-.95c.01-.03.02-.07.03-.11-.03-.44-.05-.89-.09-1.44.41.08.76.14,1.16.21-.02-.09-.04-.19-.07-.3-.25-.07-.5-.13-.75-.2,0-.06.02-.11.03-.17.29.03.58.05.87.08v-3.77s-.1-.03-.14-.04c-.31.2-.53.3-.72.28-.18-.02-.32-.15-.45-.4-.04-.5-.07-1.01-.11-1.51-.06,0-.13.02-.19.04-.19.05-.39.11-.55.05-.5-.16-.66.07-.84.47-.25.57-.74.82-1.36.99-.5.14-.95.53-1.35.9-.29.27-.46.67-.68,1.02-.29-.21-.45-.33-.6-.44-.05.03-.09.06-.14.09.07.23.13.46.22.75h-.65c.13,1.21.11,1.38-.38,2.44,0,.02-.02.04-.03.06-.08.37-.31.5-.65.63v5.89c0,.34.28.62.62.62ZM128.12,202.17s.03.06.04.1h0s-.08.04-.1.03c-.02-.01-.03-.06-.04-.1.03-.01.08-.04.1-.03ZM127.47,204.5c.16.07.33.13.47.23.08.06.1.21.14.31-.13.04-.25.07-.38.11-.1.06-.17.07-.21.07-.14-.02-.08-.27-.15-.37,0,0,0-.02,0-.03h0c0-.17-.02-.32-.03-.47.06.05.12.11.17.16ZM124.9,210.23c.18-.06.43-.24.53-.18.32.2.66.44.84.75.11.19.1.32.02.39-.04.03-.1.05-.18.06s-.16,0-.26-.04c0,.05-.01.1-.02.16,0,.06-.01.13-.02.23-.18-.09-.38-.16-.53-.29-.23-.18-.46-.39-.61-.63-.09-.15-.18-.47.23-.46Z"/><path class="c" d="M148.39,211.25c.04-.38.09-.76.13-1.13-.04.38-.09.76-.13,1.13h0Z"/><path class="c" d="M146.53,205.89c0-.06.04-.14.12-.24h0c-.08.1-.11.18-.12.24Z"/><path class="c" d="M121.59,190.1c.31-.04.82-.13.91.01.4.62,1.06.68,1.62.98.43.23,1.05.87.97,1.13-.27.87.07,1.4.7,2.06-.02-.41-.03-.69-.05-.95.15-.04.29-.09.44-.13.19-.47.38-.95.62-1.55.09.14.16.25.22.36.07.1.13.2.19.29,0,0,0,0,0,0,.05.03.1.05.15.08.06.03.13.07.19.1.17.24.35.47.52.72-.25.05-.44.09-.63.12.05.06.11.13.18.2.13.14.28.3.35.39.04.05.06.08.05.09-.27.34-.15.83-.31,1.05-.51.72.1.89.36,1.25.08-.21.16-.39.23-.57.05-.12.1-.24.14-.36.03-.08.06-.17.09-.25,0-.09,0-.17,0-.26-.02-.09-.05-.18-.08-.26.08-.12.17-.23.25-.35.6,0,1.2,0,1.8-.02.19,0,.39-.08.58-.13-.65-.05-1.3-.1-1.95-.14-.16-.01-.32,0-.57,0,0-.65,0-1.26.01-1.87,0-.04.04-.07.09-.11.05-.03.11-.07.15-.11.35.01.69.03,1.04.04v-.35h-1.39v-4.31s-.03-.08-.04-.12c-.17-.18-.37-.53-.5-.5-.73.14-.42-.46-.54-.72-.16-.35-.11-.78-.7-.83-1-.08-1.23-.34-1.42-1.31-.03-.14-.1-.28-.19-.51-.26.34-.45.58-.76.97-.07-.16-.1-.29-.17-.39-.61-.87-.71-.89-1.66-.41-.04.02-.08.04-.11.05-.52.21-.83.07-1.13-.34v7.21c.13-.14.23-.25.33-.27ZM125.22,186.13c.85.41.96.62.61,1.09-.74-.44-.75-.46-.61-1.09Z"/><path class="c" d="M128.31,195.74c-.07.18-.15.37-.23.57.08-.21.16-.39.23-.57Z"/><path class="f" d="M87.72,205.19c-.09-.06-.18-.14-.27-.19,0,.02,0,.04,0,.06-.02.19-.04.39-.06.58.03.03.06.07.1.1.04.03.07.07.11.1.07.07.12.13.12.2,0,.14-.2.28-.31.42,0,.07,0,.14-.01.21,0,.04.02.07.02.11,0,.01-.03.03-.04.04,0,.08,0,.16.01.24.03.64.05,1.27.08,1.91-.04.16-.07.32-.11.48.08.06.15.13.19.19.08.13.09.26,0,.38-.04.06-.11.13-.19.19-.09.08-.18.17-.28.25-1.24.05-2.47.1-3.71.15l-.81,1.9c.4,0,.8-.02,1.21-.03.54-.01,1.09-.03,1.65-.04,0,0,.02.11.05.23.25.11.5.22.76.33.28.06.59.09.85.2.17.07.38.26.39.42.03.36.05.73.07,1.09,0,.13,0,.26.01.4h1.75c.03-.44.06-.88.09-1.32-.08-.51-.17-1.02-.25-1.54-.21,0-.42,0-.63,0-.21,0-.42,0-.63.02-.1,0-.18,0-.25-.01-.21-.04-.3-.19-.26-.48l-.02-.02c-.79-.44-1.6-.66-2.51-.41-.21.06-.47-.06-.71-.2,1.62-.33,3.25,0,4.89-.18.02.2.04.34.06.54h-1.3c-.01.08-.02.17-.03.25.36.09.72.18,1.07.28.14.04.26.12.39.18.05.01.11.03.16.04h0c0-.17.01-.33.02-.5-.02-.04-.02-.08,0-.12h0c0-.55-.02-1.1-.02-1.65-.03-.09-.05-.17-.08-.26-.14-.08-.27-.16-.44-.26.17-.13.33-.27.5-.4h0c0-.07,0-.14,0-.21-.07-.12-.14-.94-.13-1.05.03-.38.04-.76.06-1.14.03-.25.06-.51.09-.76-.04-.17-.09-.34-.13-.51-.41-.02-.82,0-1.22-.07-.1-.02-.19-.07-.28-.13ZM88.71,209.11s.02.02.03.04c-.04,0-.08.02-.12.02,0,0-.02-.02-.02-.04.04,0,.08-.02.12-.02Z"/><path class="f" d="M89.37,211.63h0c0-.55-.02-1.1-.02-1.65,0,.55.02,1.1.02,1.65h0Z"/><path class="f" d="M89.36,212.25c0-.17.01-.33.02-.5,0,.17-.01.33-.02.5h0Z"/><path class="f" d="M89.33,209.06h0c0-.07,0-.14,0-.21,0,.07,0,.14,0,.21h0Z"/><path class="j" d="M112.86,201.31c0-.07.02-.15.02-.23l-1.6-3.75c-.8.08-1.6.15-2.41.21-.14.04-.28.07-.42.11-.01-.05-.02-.1-.03-.16.12-.02.24-.05.35-.07-.36-.54-.39-1.13-.38-1.72,0-.2.02-.4.02-.6-.09.04-.18.09-.27.13-.09.1-.17.2-.24.3-.05.09-.09.19-.09.3,0,.08.02.17.06.27.07.16.02.37.02.56,0,1.01-.09,1.12-1.08.92-.43-.08-.56.14-.69.44h0s0,0,0,0c.3.2.59.41.89.61.17,0,.33,0,.5,0,.12-.07.22-.1.29-.1.08,0,.14.02.19.07.1.09.14.26.18.45h0s.07-.02.11,0l.61.14c.3-.09.45.02.41.34.22,0,.45-.03.67,0,.08.01.14.17.2.26,0,0,0,0,0,0,0,0,0,0,0,0,.17-.04.34-.08.51-.13,0,0,0,0,0,0,0,0,0,0,0,0,.17-.41.06-.69-.44-.78.03-.06.06-.12.09-.18.44.12.89.25,1.32.37-.04.64-.29.78-.97.59,0,0,0,0,0,0,0,0,0,0,0,0,.08.24.16.49.26.78h-.5v.43c-.56-.31-.53-.67-.27-1.09,0,0,0,0,0,0,0,0,0,0,0,0-.42.12-.85.24-1.27.37-.08.16-.15.33-.23.5l1.01.3h0c.06.03.11.06.17.1.17.11.33.23.51.24.91.1,1.82.17,2.73.24l-.11-.25s-.08,0-.12,0Z"/><polygon class="j" points="110.19 199.82 110.18 199.82 110.18 199.82 110.19 199.82"/><path class="j" d="M109.68,200.98c.06.03.11.06.17.1-.06-.04-.11-.07-.17-.1h0Z"/><path class="h" d="M83.12,215.11h1.94s0-.02,0-.03h0c-.13-.17-.26-.35-.39-.54-.14-.19-.28-.39-.44-.61h2.48l.23-.13c.07-.03.15-.06.26-.11-.35-.25-.66-.48-.98-.7-.25-.11-.5-.22-.76-.33-.39.03-.77.06-1.16.11-.47.06-.95.09-1.4.2-.23.06-.4.05-.52-.03l-.39.91c.11-.1.25-.2.43-.32v1.13c.08.14.17.29.25.43,0,0,0,0,0,0h.15c.11-.02.21-.03.31-.05,0,.02,0,.03,0,.05Z"/><path class="j" d="M87.45,213.62c-.01-.16-.23-.35-.39-.42-.26-.11-.56-.14-.85-.2.31.23.63.45.98.7-.12.05-.19.08-.26.11v1.3h.61c0-.13,0-.26-.01-.4-.01-.36-.03-.73-.07-1.09Z"/><path class="j" d="M87.52,214.71c0,.13,0,.26.01.4h0c0-.13,0-.26-.01-.4Z"/><path class="c" d="M104.22,188.9c-.08,0-.16,0-.25,0,0,.31,0,.63,0,.94.26.21.51.41.77.62.06-.05.13-.1.19-.14.02.25.03.51.05.76.1-.05.24-.09.35-.14s.21-.1.25-.19c.19-.47.28-.97.4-1.46,0-.04,0-.07,0-.11l-.12-.26c-.2-.02-.4-.03-.62-.05.03-.35.06-.62.09-.94-.14,0-.26-.01-.37-.02-.11,0-.21-.01-.32-.02-.02.09-.04.17-.06.26.13.38-.01.63-.38.76Z"/><path class="c" d="M104.65,187.88h0c.1,0,.2,0,.32.02-.11,0-.21-.01-.32-.02Z"/><path class="h" d="M112.98,201.32l-.1-.24c0,.07-.02.15-.02.23.05,0,.08,0,.12,0Z"/><path class="h" d="M113.71,198.55s.03.07.03.11c0-.04-.01-.08-.03-.11h0,0Z"/><path class="j" d="M129.57,203.11c-.05-.04-.1-.07-.13-.06-.76.27-.73-.2-.73-.71.01-2.7,0-5.39,0-8.09-.08.12-.17.23-.25.35.02.09.05.18.08.26,0,.09,0,.17,0,.26,0,.8-.01,1.6-.02,2.4,0,.09,0,.18,0,.26,0,.25.02.51.03.76v4.55h0c.12.25.26.38.45.4.18.02.41-.08.72-.28-.05-.03-.11-.08-.16-.12Z"/><path class="j" d="M128.53,197.53c0,.09,0,.18,0,.26,0-.09,0-.18,0-.26h0Z"/><path class="j" d="M128.57,203.11h0c.12.25.26.38.45.4-.18-.02-.32-.15-.45-.4Z"/><path class="j" d="M128.72,194.25c-.08.12-.17.23-.25.35.08-.12.17-.23.25-.35h0Z"/><path class="c" d="M110.78,210.05c-.19.3-.37.67-.35,1,0,.14.54.24.84.36.07.03.15.02.32.04-.07-.48-.09-.92-.22-1.33-.09-.29-.42-.35-.59-.07Z"/><path class="i" d="M127.03,192c-.07-.11-.14-.22-.22-.36-.24.61-.43,1.08-.62,1.55h0c.21,0,.42.01.63.02.13,0,.25,0,.38.01.05,0,.1-.01.15-.02-.04-.3-.09-.61-.13-.91-.06-.09-.12-.19-.19-.29Z"/><path class="i" d="M126.18,193.2c.21,0,.42.01.63.02-.21,0-.42-.01-.63-.02h0Z"/><path class="c" d="M124.59,199.05c.35.13.74.17,1.11.25-.17-.29-.35-.58-.52-.87h0c-.14-.12-.28-.24-.43-.35-.11.17-.28.32-.32.51-.03.15.05.43.15.47Z"/><path class="c" d="M125.18,198.43h0c-.14-.12-.28-.24-.43-.35.14.12.28.23.43.35h0Z"/><path class="j" d="M125.7,199.3c.19.04.38.07.67.13-.06-.17-.12-.33-.19-.46-.14-.27-.32-.45-.57-.52-.12-.04-.27-.04-.43-.02.17.29.35.58.52.87Z"/><path class="j" d="M126.18,198.97c-.14-.27-.32-.45-.57-.52.25.07.42.25.57.52Z"/><path class="j" d="M125.61,198.45c-.12-.04-.27-.04-.43-.02h0c.17-.02.31-.01.43.02Z"/><path class="j" d="M128.09,193.2c-.18-.24-.35-.48-.52-.72l-.19-.1c-.05-.03-.1-.05-.15-.08,0,0,0,0,0,0,.04.3.09.61.13.91.04.04.07.08.11.11.19-.04.38-.08.63-.12Z"/><path class="j" d="M127.56,192.48c-.06-.03-.13-.07-.19-.1-.05-.03-.1-.05-.15-.08.05.03.1.05.15.08l.19.1Z"/><path class="e" d="M107.2,204.81c-.71-.06-1.33-.11-2.03-.16.58.55,1.58.64,2.03.16Z"/><path class="g" d="M128.57,198.55s-.07,0-.1,0c0,1.02,0,2.03,0,3.05.04.5.07,1.01.11,1.51v-4.55Z"/><path class="g" d="M128.46,201.59c.04.5.07,1.01.11,1.51h0c-.04-.5-.07-1.01-.11-1.51Z"/><path class="c" d="M89.2,212.21s-.05.03-.08.04c.08.51.17,1.02.25,1.54.08-.5.16-.99.22-1.49,0,0-.04,0-.09-.02-.05,0-.11-.02-.15-.03-.05-.01-.11-.03-.16-.04Z"/><path class="c" d="M89.11,212.25c.08.51.17,1.02.25,1.54-.08-.51-.17-1.02-.25-1.54h0Z"/><path class="i" d="M104.6,188.14c-.09-.13-.18-.26-.28-.39-.11.06-.22.11-.33.17.08.33.15.66.23.98.36-.13.5-.38.38-.76Z"/><polygon class="j" points="120.46 210.73 120.46 210.73 120.46 210.73 120.46 210.73"/><polygon class="j" points="120.46 210.73 120.46 210.73 120.46 210.73 120.46 210.73"/><polygon class="j" points="120.46 210.73 120.46 210.73 120.46 210.73 120.46 210.73"/><path class="i" d="M128.53,197.53c0-.8.01-1.6.02-2.4-.03.08-.06.17-.09.25.03.72.05,1.43.08,2.15h0Z"/><path class="i" d="M128.53,197.53c-.03-.72-.05-1.43-.08-2.15.03.72.05,1.43.08,2.15h0Z"/><path class="c" d="M103.33,185.73c.19.26.38.52.58.78.05-.05.1-.09.16-.14-.02-.44-.37-.55-.73-.64Z"/><polygon class="c" points="103.33 185.73 103.33 185.73 103.33 185.73 103.33 185.73"/><path class="f" d="M104.22,188.9c-.08-.33-.15-.66-.23-.98,0,.25-.02.49-.03.74,0,.08,0,.16.01.24.08,0,.16,0,.25,0Z"/><polygon class="e" points="120.46 210.73 120.46 210.73 120.45 210.73 120.45 210.73 120.46 210.73"/><polygon class="e" points="120.46 210.73 120.46 210.73 120.46 210.73 120.46 210.73 120.46 210.73 120.46 210.73"/><polygon class="e" points="120.46 210.73 120.45 210.73 120.46 210.73 120.46 210.73"/><path class="l" d="M103.71,204.52c-.1.2-.17.35-.25.5h0q.4-.01.25-.5Z"/><path class="i" d="M107.86,204.99c.16.02.32.04.47.06,0-.04,0-.07.01-.11-.16-.03-.31-.06-.47-.09l-.02.14Z"/><path class="l" d="M104.29,205.55s.09.06.16.11c.04-.06.06-.11.09-.15-.05-.03-.1-.08-.15-.07-.04,0-.07.08-.1.12Z"/><path class="c" d="M103.09,185.5c.08.08.16.15.24.23-.03-.11-.06-.22-.1-.33-.05.03-.1.07-.15.1Z"/><polygon class="c" points="103.33 185.73 103.33 185.73 103.33 185.73 103.33 185.73"/><path class="l" d="M103.83,203.96s-.07.03-.1.04c.04.1.08.2.12.31l.1-.04c-.04-.1-.08-.2-.12-.31Z"/><path class="e" d="M104.6,188.14l.05-.26s-.04-.07-.06-.11c-.08-.01-.17-.02-.25-.03h-.02c.09.14.18.27.28.4Z"/><path class="i" d="M128.54,197.79c-.02.25-.05.5-.07.75.03,0,.07,0,.1,0-.01-.25-.02-.51-.03-.76Z"/><path class="j" d="M108.73,205.12c.06,0,.11.02.17.03.17,0,.33,0,.5-.01-.22-.04-.44-.08-.66-.13,0,.04,0,.07-.01.11Z"/><path class="j" d="M109.4,205.14h0c-.17,0-.33,0-.5.01.17,0,.34,0,.5-.01Z"/><path class="c" d="M126.82,193.22c.09.16.18.29.28.19.03-.03.07-.09.1-.18-.13,0-.25,0-.38-.01Z"/><path class="c" d="M89.27,209.73c.03.09.05.17.08.26.05-.09.1-.17.15-.26-.04,0-.08,0-.12,0-.04,0-.07,0-.11.01h0Z"/><path class="c" d="M89.27,209.73h0c.03.09.05.17.08.26-.03-.09-.05-.17-.08-.26h0Z"/><path class="e" d="M107.39,204.94s.1.06.15.07c.02,0,.05-.04.09-.07-.06-.05-.11-.09-.16-.12-.03.04-.06.08-.08.12Z"/><path class="c" d="M107.39,187.92s-.02.07-.02.1c0,.01.04.04.04.03.03-.02.05-.04.07-.07-.03-.02-.06-.04-.09-.06Z"/><path class="c" d="M107.41,188.05s.05-.04.07-.07h0s-.04.05-.07.07Z"/><path class="l" d="M103.96,205.49s.03-.01.04-.02c-.03,0-.06,0-.08,0,.01.01.03.03.04.03Z"/><path class="l" d="M104.01,205.47h0s-.03.02-.04.02c.01,0,.03-.01.05-.02Z"/><path class="c" d="M89.37,211.75s.04-.03.04-.04c-.01-.03-.03-.06-.05-.09-.01.04-.01.08,0,.12Z"/><path class="c" d="M89.42,211.71s-.03-.06-.05-.09h0s.04.06.05.09Z"/><path class="e" d="M132.15,194.09c0-.07,0-.14,0-.21.21.12.42.23.63.35.05.03.1.06.16.1.06.04.13.08.22.13-.24.01-.38.02-.51.02h0s0,0,0,0h0s0,0,0,0c.54.27.66.7.64,1.28-.02.59.14,1.19.15,1.79,0,.32-.16.64-.16.96-.01,1.04,0,2.09,0,3.13h2.66c0-.46-.01-.91-.02-1.37,0-.06,0-.12.02-.17.01-.06.03-.12.04-.17-.14-.18-.28-.36-.26-.54.02-.11.09-.21.27-.32,0-.1.01-.21.02-.31,0-.66,0-1.32-.01-1.98-.02-.11-.03-.21-.05-.32-.02-.01-.03-.02-.05-.04.02,0,.03,0,.05,0,.01-.06.03-.13.04-.19-.02-.29-.03-.58-.05-.87s-.03-.61-.05-.93c.29-.02.55-.04.81-.06.23-.08.45-.2.68-.28.11-.04.23-.07.35-.07.02,0,.04,0,.06,0,.1,0,.21,0,.32.05.09-.04.19-.09.28-.14.09-.05.19-.08.28-.09.2-.02.39-.02.59-.02.2,0,.4,0,.59.01.03-.07.06-.16.09-.23h-10.09v-1.7c-.35-.01-.69-.03-1.04-.04-.04.03-.1.07-.15.1-.05.04-.09.07-.09.11-.02.61-.01,1.22-.01,1.87.25,0,.41,0,.57,0,.65.04,1.3.09,1.95.14.35,0,.7,0,1.05,0ZM135.42,198.86c-.51.03-1.01.06-1.52.1,0-.07,0-.15-.01-.22h1.51s.02.08.02.12ZM134.54,196.04c-.37.71-.72.46-1.02-.04q.38-.38,1.02.04Z"/><path class="e" d="M141.27,193.62h-.11c.05.04.11.08.16.11-.02-.04-.03-.08-.05-.11Z"/><path class="e" d="M131.18,192.79c-.33-.03-.66-.06-1.05-.09q.26-.47,1.06-.14c0,.08,0,.16,0,.24Z"/><path class="e" d="M129.87,191.91h0c-.35-.01-.69-.03-1.04-.04-.04.04-.1.07-.15.11.05-.03.11-.07.15-.1.35.01.69.02,1.04.04Z"/><path class="e" d="M129.15,193.96c.65.04,1.3.09,1.95.14h0c-.65-.05-1.3-.1-1.95-.14Z"/><path class="e" d="M130.26,191.93c-.13,0-.26,0-.39-.01h0c.13,0,.26,0,.39.01Z"/><path class="c" d="M144.23,187.58c.05-.05.16-.05.24-.08.84-.31,1.69-.6,2.51-.95.7-.3,1.24-.78,1.6-1.5.28-.58.68-1.12,1.42-1.25.13-.02.25-.14.36-.23.17-.14.33-.29.49-.44v-2.16c0-.34-.28-.62-.62-.62h-.51c-.39.21-.77.38-1.12.34-.89-.11-1.53-.08-2.27.53-.64.53-1.63.57-2.22,1.29-.08.1-.26.13-.4.15-.49.08-.98.17-1.47.25v5.38c.71-.04,1.41-.13,1.99-.72Z"/><path class="e" d="M138.13,194.08c-.11-.04-.22-.05-.32-.05-.02,0-.04,0-.06,0-.12,0-.24.03-.35.07-.23.08-.45.2-.68.28-.56.5-.6,1.19-.72,1.86h0c-.01.06-.03.13-.04.19v.04c.02.11.03.21.05.32v1.98c0,.1,0,.21,0,.31,0,.28,0,.57-.01.85t0,0c-.01.06-.03.12-.04.17-.01.06-.02.12-.02.17,0,.46.01.91.02,1.37h.48c-.03-.47-.05-.94-.07-1.4-.01-.43.12-.88.27-1.29.06-.16.34-.34.53-.35.81-.01,1.62.03,2.43.07.1,0,.2.09.43.21-.26.08-.38.15-.51.15-.73.01-1.46.01-2.19.01-.35,0-.6.5-.58,1.11.02.5.03.99.04,1.49h5.47v3.24c.07-.03.14-.1.19-.25,0-.84,0-1.69,0-2.53,0-.63-.03-1.26,0-1.89.03-1.2.09-2.4.13-3.59h0c-.3-.74-.6-1.49-.9-2.23-.92-.09-1.85-.19-2.77-.28-.25-.02-.5-.02-.75-.03Z"/><path class="h" d="M142.56,196.62c-.3-.74-.6-1.49-.9-2.23.3.74.6,1.49.9,2.23h0Z"/><path class="h" d="M137.75,194.03s.04,0,.06,0c-.02,0-.04,0-.06,0Z"/><path class="h" d="M135.99,199.94h0c-.01.06-.03.12-.04.17.01-.06.03-.12.04-.17t0,0Z"/><path class="h" d="M136,196.25s0,0,0,0c-.01.06-.03.13-.04.19.01-.06.03-.13.04-.19h0Z"/><path class="h" d="M136.01,196.8c0,.66,0,1.32.01,1.98,0,.1-.01.21-.02.31,0-.1.01-.21.02-.31v-1.98Z"/><path class="h" d="M135.96,196.48c.02.11.03.21.05.32-.02-.11-.03-.21-.05-.32h0Z"/><path class="d" d="M175.75,192.42c0-.49-.06-1-.22-1.49-.08,0-.17-.01-.25-.02-.03,0-.06-.01-.09,0,0,0,0,0,0,0l-.15-.08s-.09-.02-.14-.02c-.08,0-.16,0-.23,0h0s-.1.1-.15.15c-.05.05-.08.1-.07.13.18.6.35,1.22.62,1.78.21.44.43.85.35,1.33.22-.5.33-1.06.33-1.69v-.1Z"/><path class="d" d="M184.18,190.81h0c-.17.04-.34.1-.52.14-.17.05-.34.08-.52.09-.53.02-1.05.03-1.58.03-.53,0-1.05,0-1.58,0-.48.07-.97.12-1.45.14s-.97.02-1.46-.04c-.02,0-.04,0-.07,0h-.07c-.08-.06-.17-.12-.25-.18-.39-.02-.77-.05-1.16-.07.16.49.22,1,.22,1.49v.1c0,.63-.12,1.19-.33,1.69-.01.09-.02.17-.05.26.07.04.14.08.21.13.12-.23.23-.46.27-.53.54.32.96.56,1.39.81.04-.04.09-.08.13-.13.06-.07.11-.16.17-.23.06-.08.11-.14.19-.16,1.51-.38,3.03-.38,4.55-.12.44.08.87.24,1.3.37.22-.01.44-.02.66-.03.14-.78.24-1.59.24-2.45v-.1c0-.39-.02-.77-.05-1.15-.08-.02-.16-.05-.24-.07h0Z"/><path class="d" d="M174.52,190.96c.05-.05.11-.11.15-.15h0s-.1.1-.15.15Z"/><path class="h" d="M178.46,198.56c-.25,0-.49.16-.73.24,0,.08-.01.16-.02.23,0,.26,0,.52,0,.77.33.81.67,1.61,1,2.42,1.7-.94,3.06-2.17,4.02-3.69-.05,0-.09,0-.15,0-1.38,0-2.75-.01-4.12.01Z"/><path class="h" d="M183.51,196.52c-.07,0-.13,0-.2,0-.02.21-.03.42-.05.63-.03.17-.07.33-.1.5,0,.02.01.04.02.06.11-.23.24-.45.34-.68,0-.17,0-.34,0-.51h0Z"/><path class="h" d="M177.71,199.82c.33.81.67,1.61,1,2.42h0c-.33-.81-.67-1.61-1-2.42Z"/><path class="h" d="M178.3,183c-.53,0-.66.31-.59.77.04.26-.03.46-.23.53-.07.03-.15.04-.25.03-.01.16-.02.33-.03.5.05.17.09.34.14.51v.05c.39,0,.76,0,1.14,0,.09,0,.18,0,.27,0,1.28,0,2.56,0,3.84-.01-.35-.51-.73-1-1.17-1.44-.95-.95-2.1-1.71-3.42-2.28-.02.35.08.8.31,1.35Z"/><path class="f" d="M172.25,181.59s.04-.05.07-.08c.27.15.54.31.81.47,0,.06,0,.12,0,.18-.5.17-1,.33-1.48.52-.19.07-.35.22-.51.34,0,0,.13.24.15.23.19-.07.37-.17.56-.26.34.45.32.53-.23.9.48-.12.92.49,1.46,0,.11-.1.54.12.81.21.14.05.26.12.39.19.04.02.08.04.11.06-.02-.39-.04-.79-.06-1.18-.02-.4-.03-.79-.03-1.18,0-.19.03-.39.06-.59.03-.2.08-.39.11-.59,0-.06,0-.12,0-.18-1.03-.17-2.11-.26-3.26-.26h-1.33c.24.57.47,1.14.71,1.71.62-.02,1.24-.03,1.98-.05-.18-.26-.24-.35-.3-.43Z"/><path class="h" d="M181.52,190.46c-.09,0-.17,0-.26,0v-4.85c-.13,0-.25,0-.38,0v4.28h-.13v-4.28c-.38,0-.76,0-1.14,0h-.12c-.17-.02-.34-.03-.51-.04l-.13.04s-.08,0-.13,0c-.25,0-.51,0-.76,0-.03.37-.1.74-.09,1.12.04,1.21.11,2.43.17,3.68.05,0,.15,0,.24,0,.43-.04,1.16.02,1.23-.16.18-.48.08-1.07.07-1.62,0-.19-.09-.37-.09-.56-.01-.65,0-1.3.11-1.96.06,1.4.13,2.8.19,4.2.08,0,.15,0,.23,0v-4.33c.08,0,.15,0,.23,0,0,1.19,0,2.39,0,3.58,0,1.09,0,1.08-1.1,1.1-.52,0-1.04.06-1.56.1.55.09,1.1.19,1.66.27.24.03.49.02.74.03.53,0,1.05,0,1.58,0,.53,0,1.05,0,1.58-.03.17,0,.35-.04.52-.09.17-.05.34-.1.52-.14l-.49-.26h-.04c-.35.01-.69.01-1.07.01v-3.79s.1,0,.14-.01c.04,1.16.09,2.32.13,3.48.09,0,.19,0,.28-.01v-3.93c-.13-.24-.25-.48-.4-.7-.4.01-.81.02-1.21.03v4.84ZM178.94,190.16l-.09-.03v-4.1s.06,0,.09,0v4.12ZM181.97,187.47c.07,1.04.14,2.03.21,3.09-.31-.31-.4-1.81-.21-3.09Z"/><path class="h" d="M183.34,190.21c.11-.01.22-.03.32-.04,0-.08,0-.17,0-.26-.03-.58-.08-1.15-.1-1.73,0-.33,0-.66,0-.99-.08-.2-.16-.39-.25-.58,0,1.01,0,2.02,0,3.03,0,.19.02.38.04.57Z"/><path class="h" d="M178.85,185.63l.13-.04h0l-.13.04Z"/><path class="h" d="M179.99,191.08c.53,0,1.05,0,1.58,0-.53,0-1.05,0-1.58,0h0Z"/><path class="h" d="M184.18,190.81h0c-.17.04-.34.1-.52.14.17-.05.34-.1.52-.14Z"/><path class="e" d="M142.43,200.22c-.02.63,0,1.26,0,1.89,0,.84,0,1.69,0,2.53,1.17.25,2.33.53,3.5.73.33.06.71-.13,1.06-.2,0-.04.02-.07.04-.11s.02-.07,0-.1c-.38-.97-1.17-1.73-1.42-2.79-.09-.38-.36-.72-.54-1.08h-1.76c.44-.36.83-.69,1.23-1.02-.35-.71-.67-1.44-1.06-2.14-.22-.39-.5-.74-.77-1.11-.05-.07-.11-.14-.16-.21-.05,1.2-.1,2.4-.13,3.59ZM145.92,205.16l.07-.07s.04.05.05.08c0,0-.03.04-.03.04-.03-.01-.06-.03-.09-.05,0,0,0,0,0,0h0ZM143.34,199.81v.19h-.71s0-.1-.01-.14c.24-.02.48-.03.72-.05Z"/><path class="e" d="M142.72,196.83c.27.36.55.72.77,1.11-.22-.39-.5-.74-.77-1.11Z"/><path class="i" d="M148.39,211.25c-.08-.19-.21-.37-.24-.57-.08-.48-.13-.97-.2-1.55-1.1.78-.68,1.82-.75,2.73-.25.06-.48.12-.71.17.27.13.52.25.76.36.04.87.09,1.74.11,2.61,0,.03-.04.07-.08.1,0,0-.01,0-.02.01h1.37v-1.23c.08,0,.16,0,.24,0,0,.41,0,.83,0,1.24h1.37s.05-.01.08-.02c.28-.32.51-1.03.34-1.38-.04-.09-.18-.16-.29-.18-.9-.17-1.55-.63-1.83-1.54h0c-.06,0-.13.02-.18,0-.15-.06-.29-.14-.43-.21.16-.05.32-.11.48-.16,0-.06,0-.13,0-.19,0-.06,0-.13,0-.19h0Z"/><path class="i" d="M148.39,211.25c0,.06,0,.13,0,.19,0-.06,0-.13,0-.19h0Z"/><path class="i" d="M146.49,212.02c.27.13.52.25.76.36h0c-.24-.12-.49-.23-.76-.36Z"/><path class="e" d="M173.55,186.29c.15-.06.3-.12.45-.18.03-.13,0-.3.02-.43.01-.07.04-.13.09-.17.06-.04.14-.06.28-.06,0-.37,0-.74,0-1.11-.04-.02-.08-.04-.11-.06-.13-.07-.25-.14-.39-.19-.27-.1-.7-.32-.81-.21-.54.5-.98-.11-1.46,0,.55-.36.57-.44.23-.9-.19.09-.37.19-.56.26-.02,0-.16-.22-.15-.23.16-.13.32-.27.51-.34.49-.19.99-.35,1.48-.52,0-.06,0-.12,0-.18-.27-.16-.54-.31-.81-.47-.02.03-.05.05-.07.08.06.09.12.17.3.43-.74.02-1.36.03-1.98.05.61,1.56,1.22,3.12,1.83,4.67l1.14-.45ZM174.27,185.41c-.44-.14-.81-.25-1.29-.41.8-.53,1.15-.42,1.29.41Z"/><path class="e" d="M174.02,185.68c.01-.07.04-.13.09-.17-.06.04-.08.1-.09.17Z"/><path class="e" d="M170.57,182.06c.61,1.56,1.22,3.12,1.83,4.67h0c-.61-1.56-1.22-3.12-1.83-4.67Z"/><path class="e" d="M174.27,184.28c-.13-.07-.25-.14-.39-.19.14.05.26.12.39.19Z"/><path class="i" d="M174.63,189.48c.01.44.03.88.04,1.32.08,0,.16,0,.23,0,.14-.17.28-.28.44-.35-.17-.35-.4-.68-.72-.98Z"/><path class="i" d="M175.34,190.46c.45-.2.96-.03,1.46.1.11-.03.18-.07.22-.12.04-.05.04-.1.03-.16-.02-.12-.09-.25-.1-.36-.35-.42-.35-1.32,0-1.76h0c-.02-.37-.04-.74-.07-1.11-.01-.2-.06-.41-.04-.61.01-.13.12-.25.18-.38-.23-.06-.47-.12-.7-.19-.04.09-.07.18-.11.27.16.17.25.59.24.94,0,.21-.04.4-.12.49-.01.01-.1-.04-.16-.06.02.38.05.75.07,1.13,0,.13-.03.26-.05.39h-.01c-.25.12-.49.23-.82.37-.08-.99-.15-1.8-.22-2.6l-.11.03c.14-.32.27-.64.41-.96-.1-.03-.2-.06-.31-.09s-.2-.05-.31-.05c-.1,0-.19.17-.29.26.32.27-.02.53,0,.8.04.9.06,1.8.09,2.7.31.29.55.63.72.98ZM175.99,189.5s.04.01.04.02c0,.02,0,.03-.02.05-.02,0-.04-.01-.04-.02,0-.02,0-.03.02-.05Z"/><path class="i" d="M174.53,186.78c.04.9.06,1.8.09,2.7h0c-.03-.9-.05-1.8-.09-2.7Z"/><path class="i" d="M176.94,188.15h0c-.02-.37-.04-.74-.07-1.11.02.37.05.74.07,1.11h0Z"/><path class="i" d="M177.05,190.28c0,.06,0,.11-.03.16.04-.05.04-.1.03-.16Z"/><path class="i" d="M174.63,189.48c.01.44.03.88.04,1.32h0c-.01-.44-.03-.88-.04-1.32h0Z"/><path class="i" d="M176.8,190.56c.11-.03.18-.07.22-.12-.04.05-.1.09-.22.12h0Z"/><path class="i" d="M175.44,185.86c-.1-.03-.2-.06-.31-.09.1.03.2.06.31.09h0Z"/><path class="j" d="M184.11,215.11h.28l.76-1.26-.21-.3c-.28.52-.56,1.03-.83,1.55,0,0,0,.02,0,.02Z"/><path class="j" d="M177.21,189.38c0,.47.09.95.14,1.42.08,0,.16-.01.25-.02.52-.03,1.04-.09,1.56-.1,1.11-.02,1.11,0,1.1-1.1,0-1.19,0-2.39,0-3.58-.08,0-.15,0-.23,0v4.33c-.08,0-.15,0-.23,0-.06-1.4-.13-2.8-.19-4.2-.12.65-.12,1.31-.11,1.96,0,.19.09.37.09.56,0,.55.1,1.14-.07,1.62-.07.18-.8.12-1.23.16-.09,0-.19,0-.24,0-.06-1.25-.13-2.47-.17-3.68-.01-.37.06-.74.09-1.12h-.77c0,1.28-.01,2.51,0,3.75Z"/><path class="e" d="M175.91,185.47c.2-.01.4-.04.59-.09.19-.06.38-.14.57-.26-.04-.09-.08-.18-.12-.26-.25-.27-.13-.53-.04-.8.04-.11.07-.21.07-.32,0-.05,0-.11-.02-.16-.08-.16-.16-.33-.24-.49-.59.53-1.35.33-2.02.49.31.08.62.16.93.24,0,.04-.01.08-.02.12-.28.02-.55.05-.9.08v1.43c.4,0,.81.05,1.21.03h0Z"/><path class="e" d="M175.91,185.47c-.4.02-.81-.02-1.21-.03h0c.4,0,.81.05,1.21.03Z"/><path class="e" d="M176.5,185.38c-.19.06-.39.08-.59.09.2-.01.4-.04.59-.09Z"/><path class="j" d="M182.92,197.67c-.1.04-.19.1-.29.14-.1.05-.19.08-.29.09-.24.02-.48.02-.73.02s-.49,0-.73-.01c-.94,0-1.87.02-2.81,0-.15,0-.3-.09-.45-.13h0c-.02-.84-.04-1.69-.06-2.53-.04.42-.06.85-.12,1.27-.03.18-.14.34-.22.51-.02.38-.04.76-.07,1.14.18.55.37,1.09.55,1.64,0-.26,0-.52,0-.77-.26-.78-.18-.88.61-.87,1.25.02,2.49,0,3.74.01.22,0,.43.02.65.03,0,.06,0,.12,0,.17-.21.01-.42.04-.63.04-1.29,0-2.58,0-3.87,0-.27,0-.53,0-.48.39.24-.08.49-.24.73-.24,1.37-.02,2.75,0,4.12-.01.06,0,.1,0,.15,0,.17-.27.31-.56.45-.84,0-.02-.01-.04-.02-.06-.08,0-.16.01-.24.02Z"/><path class="c" d="M150.35,213.54c.11.02.24.09.29.18.18.34-.06,1.05-.34,1.38.3-.04.54-.29.54-.6v-1.6s-.07-.05-.1-.07c-.48-.42-1.03-.61-1.62-.73-.2-.04-.39-.06-.6-.09.28.91.93,1.37,1.83,1.54Z"/><path class="i" d="M174.16,190.99c0-.59,0-1.23,0-1.88-.32-.21-.7-.39-1.14-.53.03.11.05.21.08.33.77.44.44,1.6,1.07,2.09Z"/><path class="i" d="M174.16,188.34c0-.33-.02-.67-.03-1-.45.06-.91.11-1.36.16h0c.05.23.1.45.16.69.03.13.06.26.09.39.44.14.82.32,1.14.53,0-.26,0-.51,0-.77Z"/><path class="i" d="M172.77,187.5h0c.05.23.1.45.16.69-.05-.23-.11-.46-.16-.69h0Z"/><path class="j" d="M167.53,188.25c-.31-.77-.57-1.56-.85-2.34-.09.04-.18.07-.27.11.31.75.63,1.49.95,2.23h.16Z"/><path class="j" d="M166.42,186.01h0c.09-.04.18-.07.27-.11-.09.04-.18.07-.27.11Z"/><path class="c" d="M178.48,214.68s0,.07,0,.1c.08.09.17.19.25.28,0,.01,0,.03,0,.04h.49c-.07-.18-.11-.39-.23-.49-.25-.22-.26-.65-.52-.85-.09-.07-.2-.11-.36-.11.13.34.25.68.38,1.02Z"/><path class="e" d="M185.39,214.78c.11-.2.09-.45-.04-.64l-.2-.3-.76,1.26h.46c.23,0,.44-.13.55-.33Z"/><path class="j" d="M145.93,205.37c-1.18-.2-2.34-.48-3.5-.73-.06.15-.12.22-.19.25v.31c1.04.11,2.09.22,3.13.32.43.04.85.09,1.28.13.22-.04.44-.08.78-.14-.11-.08-.19-.15-.25-.2s-.12-.09-.17-.14h0c-.36.07-.73.25-1.06.2Z"/><path class="j" d="M147.17,205.31c-.07-.05-.12-.09-.17-.14h0c.05.04.11.08.17.14Z"/><path class="c" d="M175.03,186.82l.11-.03c.07.81.13,1.62.22,2.6.33-.14.58-.25.82-.36-.03-.04-.06-.09-.09-.14,0,0,.03-.02.04-.03.02.05.04.1.06.16h0c.02-.13.05-.26.05-.39-.01-.38-.04-.75-.07-1.13.01-.46.02-.91.03-1.37.04-.09.07-.18.11-.27-.23-.19-.45-.3-.67.01.6.55-.09,1.18.1,1.76-.57-.51-.19-1.18-.31-1.76h0c-.14.31-.27.63-.41.95ZM176.01,188.27c-.1.31-.19.59-.29.87-.1-.1-.27-.19-.28-.31-.05-.32-.05-.65.57-.57Z"/><path class="f" d="M173.55,186.29l-1.14.45c.12.26.24.51.36.77.45-.05.91-.11,1.36-.16-.04-.41-.08-.82-.12-1.23-.15.06-.3.12-.45.18Z"/><path class="f" d="M174.01,186.11c.04.41.08.82.12,1.23-.04-.41-.08-.82-.12-1.23h0Z"/><path class="f" d="M172.41,186.74h0c.12.26.24.51.36.77h0c-.12-.26-.24-.51-.36-.77Z"/><path class="f" d="M172.41,186.74h0l1.14-.45-1.14.45Z"/><path class="e" d="M177.39,211.84c.15.22.29.44.44.65-.02-.12-.04-.24-.06-.36-.02-.12-.04-.24-.09-.35-.36-.98-.73-1.96-1.12-2.93-.08-.2-.24-.36-.37-.54-.06.03-.13.06-.19.09.12.43.22.87.37,1.29.07.2.21.36.32.54.04.17.09.34.13.51.19.37.37.74.56,1.1Z"/><path class="e" d="M177.83,212.49c-.02-.12-.04-.24-.06-.36.02.12.03.24.06.36h0Z"/><path class="i" d="M174.47,180.8c-.03.19-.07.39-.11.59-.03.19-.06.39-.06.59,0,.39.01.79.03,1.18.02.39.04.79.06,1.18,0,.37,0,.74,0,1.11h0c.1,0,.2,0,.31-.01h0v-1.43c.35-.03.62-.06.9-.08,0-.04.01-.08.02-.12-.31-.08-.62-.16-.93-.24,0-.09,0-.18,0-.28,0-.11,0-.22,0-.33,0-.47-.01-.95-.02-1.42h0c-.07-.25-.14-.5-.2-.74Z"/><path class="i" d="M174.7,185.44h0c-.1,0-.2,0-.31.01.1,0,.2,0,.31-.01h0Z"/><path class="i" d="M174.47,180.8s0,0,0,0c-.03.2-.07.39-.11.59.03-.19.08-.39.11-.59Z"/><path class="i" d="M174.39,184.34c0,.37,0,.74,0,1.11h0c0-.37,0-.74,0-1.11Z"/><path class="i" d="M174.68,183.57c.31.08.62.16.93.24-.31-.08-.62-.16-.93-.24h0Z"/><path class="f" d="M174.82,205.46c0-.91-.45-1.71-1.03-2.46-.06.02-.11.05-.17.07.44,1.06.88,2.11,1.31,3.17.11-.06.21-.12.32-.18-.13-.18-.26-.37-.43-.61Z"/><path class="e" d="M180.95,207.69s-.04,0-.06,0c.05.13.09.26.14.39.05,0,.11-.01.16-.02l-.25-.37Z"/><path class="i" d="M177.23,197.04c-.01-.09-.03-.18-.04-.27v-.24c.01-.09.01-.17.01-.26-.33-.13-.67-.26-1-.39,0,0-.02.02-.02.02.26.72.52,1.43.79,2.15.01.03.04.06.08.08.04.02.08.04.11.06.02-.38.04-.76.07-1.14Z"/><path class="i" d="M176.2,195.87h0c.33.13.67.26,1,.39-.33-.13-.67-.26-1-.39Z"/><path class="i" d="M178.98,185.59h0c.17.01.34.03.51.04h.12c.38,0,.76,0,1.14,0,.04,0,.09,0,.13,0,.13,0,.25,0,.38,0,.09,0,.17,0,.26,0,.4-.01.81-.02,1.21-.03-.05-.08-.1-.15-.15-.22-1.28,0-2.56,0-3.84.01.08.07.17.13.25.2Z"/><path class="i" d="M178.98,185.59h0c-.08-.07-.17-.13-.25-.2.08.07.17.13.25.2h0Z"/><path class="i" d="M139.88,193.85h0c-.2,0-.4,0-.59-.01-.2,0-.39,0-.59.02-.1,0-.19.05-.28.09-.09.04-.19.1-.28.14.25,0,.5,0,.75.03.93.09,1.85.18,2.77.28-.04-.09-.07-.19-.11-.28-.28-.13-.55-.32-.85-.37-.26-.04-.55.07-.83.11Z"/><path class="i" d="M139.88,193.85c-.2,0-.4,0-.59-.01.2,0,.4,0,.59.01h0Z"/><path class="j" d="M183.76,199.83s-.03-.04-.05-.06c.02.02.03.04.05.06h0Z"/><path class="i" d="M180.95,207.69l-.05-.07s0,.05,0,.07c.02,0,.04,0,.06,0Z"/><path class="f" d="M143.32,201.1h1.76c-.18-.34-.35-.68-.53-1.02-.4.33-.79.66-1.23,1.02Z"/><path class="f" d="M176.94,190.92c-.05-.12-.09-.24-.14-.36h0c-.5-.13-1-.3-1.46-.1.07.15.14.31.19.47.39.03.77.05,1.16.08.08-.03.16-.06.24-.08h0Z"/><path class="f" d="M175.53,190.93c-.05-.16-.12-.31-.19-.47-.15.07-.3.18-.44.35.05,0,.09.02.14.02l.15.08s0,0,0,0c.03,0,.06,0,.09,0,.08,0,.17.01.25.02Z"/><path class="f" d="M176.8,190.56c.05.12.09.24.14.36h0c-.05-.12-.09-.24-.14-.36h0Z"/><path class="f" d="M175.28,190.91s-.06,0-.09,0c.03,0,.06,0,.09,0,.08,0,.17.01.25.02,0,0,0,0,0,0-.08,0-.17-.01-.25-.02Z"/><path class="f" d="M175.53,190.93c.39.02.77.05,1.16.07-.39-.02-.77-.05-1.16-.08,0,0,0,0,0,0Z"/><path class="f" d="M175.04,190.83l.15.08s0,0,0,0c0,0,0,0,0,0l-.15-.08Z"/><path class="j" d="M163.98,180.35c.14.31.28.62.42.94.04-.09.08-.18.12-.26h0c-.09-.22-.18-.45-.27-.67h-.27Z"/><path class="e" d="M164.39,181.29c.29.67.58,1.35.88,2.02h0c.07-.25.15-.5.21-.75.02-.1.02-.25-.04-.33-.3-.41-.61-.81-.92-1.21-.04.09-.08.18-.12.26Z"/><path class="e" d="M164.52,181.02c-.04.09-.08.18-.12.26.04-.09.08-.18.12-.26h0Z"/><path class="i" d="M148.46,210.1h.06c.38.06.79.29,1.09-.11-.06-.14-.12-.27-.17-.4-.05-.13-.11-.25-.16-.37h0c-.69-.09-.42.7-.82.88Z"/><path class="i" d="M149.43,209.59c-.05-.13-.11-.25-.16-.37h0c.05.12.1.24.16.37Z"/><path class="f" d="M139.88,193.85c.28-.04.56-.16.83-.11.29.05.57.24.85.37-.08-.13-.15-.25-.23-.37-.05-.04-.11-.08-.16-.11h-1.19c-.03.08-.06.16-.09.23Z"/><path class="f" d="M175.76,187.64c-.19-.58.5-1.21-.1-1.76-.07,0-.13,0-.2,0h0c.11.58-.26,1.25.31,1.76Z"/><path class="f" d="M175.65,185.87c-.07,0-.13,0-.2,0h0c.07,0,.14,0,.2,0Z"/><path class="e" d="M177.19,196.77c.01.09.03.18.04.27.08-.17.19-.33.22-.51.06-.42.08-.85.12-1.27.03-.05.07-.1.1-.15h0s0,0,0-.02c0,0,0-.02,0-.02.02-.07.04-.15.05-.22,0-.03.01-.06.01-.09h-.37s0,0,0,0c-.04.04-.09.08-.13.13-.01.46-.02.92-.03,1.38v.26c0,.08-.01.16-.01.24Z"/><path class="e" d="M177.36,194.75h0s-.09.08-.13.13c.04-.04.09-.08.13-.13h0Z"/><path class="e" d="M173.29,201.21c-.04-.09-.29-.1-.45-.15.04.14.07.28.12.41.07.18.17.34.24.52.11.25.2.5.3.75.07-.03.15-.05.22-.08-.14-.48-.26-.98-.44-1.44Z"/><path class="c" d="M179.99,191.08c-.25,0-.5,0-.74-.03-.55-.08-1.11-.18-1.66-.27-.08,0-.16.01-.25.02l-.26.38c.49.06.97.06,1.46.04s.97-.08,1.45-.14h0Z"/><path class="c" d="M179.99,191.08c-.48.07-.97.12-1.45.14.48-.02.97-.08,1.45-.14h0Z"/><path class="f" d="M176.95,189.91c0-.59,0-1.18,0-1.76-.35.44-.34,1.35,0,1.76Z"/><path class="f" d="M176.95,189.91c0-.59,0-1.18,0-1.76h0c0,.59,0,1.18,0,1.76Z"/><path class="i" d="M147.76,208.45c.3,0,.6-.02.89-.02,0-.16,0-.32,0-.48-.04,0-.08,0-.12,0-.34.04-.86-.19-.77.51Z"/><path class="d" d="M177.83,212.49c-.15-.22-.29-.44-.44-.65-.3.44-.24.8.19,1.01.08.04.19,0,.29-.01l-.04-.34h0Z"/><path class="d" d="M177.83,212.49l.04.34-.04-.34h0Z"/><path class="c" d="M147.91,211.79c.14.07.28.15.43.21.05.02.12,0,.18,0-.04-.12-.09-.25-.13-.37-.16.05-.32.11-.48.16Z"/><path class="i" d="M175.48,207.54c-.06.02-.12.04-.2.06.31.15.49.24.67.33-.05-.16-.09-.33-.14-.49-.09.03-.17.05-.34.1Z"/><path class="i" d="M175.82,207.44c-.09.03-.17.05-.34.1.17-.05.25-.08.34-.1h0Z"/><path class="j" d="M176.95,184.85c.04.09.08.18.12.26.09.08.18.15.27.23-.05-.17-.09-.34-.14-.51-.08,0-.16.01-.24.02Z"/><path class="j" d="M177.33,185.34c-.05-.17-.09-.34-.14-.51h0c.05.17.09.34.14.51Z"/><path class="e" d="M175.82,207.44h0c.05.16.09.33.14.49.03,0,.07.02.1.02.02-.02.04-.04.06-.06-.1-.15-.2-.31-.3-.46Z"/><path class="f" d="M175.51,206.53s-.06-.04-.09-.06c-.06.08-.12.16-.18.24.04.02.08.05.12.07.05-.08.1-.17.15-.25Z"/><path class="d" d="M179.49,214.01c-.04-.07-.07-.12-.1-.16-.04.03-.11.06-.12.1,0,.05.04.1.07.15.05-.03.09-.05.16-.09Z"/><path class="c" d="M176.95,191.18c0-.09,0-.18-.01-.26-.08.03-.16.06-.24.08.08.06.17.12.25.18h0Z"/><path class="c" d="M176.95,191.18h0c0-.09,0-.18-.01-.26h0c0,.09,0,.18.01.26Z"/><path class="c" d="M176.95,191.18c-.08-.06-.17-.12-.25-.18.08.06.17.12.25.18h0Z"/><path class="i" d="M165.47,183.58s.07-.06.1-.09c-.1-.06-.2-.12-.29-.18h0c.07.09.13.18.2.27Z"/><path class="i" d="M176.09,195.66s-.05.04-.08.06c.06.06.11.12.17.18,0,0,.02-.02.02-.02-.04-.07-.07-.14-.11-.21Z"/><path class="f" d="M175.4,207.16s.02.04.03.04c.02,0,.05,0,.09.01-.02-.04-.03-.07-.05-.1-.02.01-.05.03-.07.04Z"/><path class="e" d="M176.05,207.95c.02.07.03.13.05.2.03,0,.05-.01.08-.02-.02-.08-.04-.16-.07-.23-.02.02-.04.04-.06.06Z"/><path class="h" d="M128.71,190.71c0,.53.19.77.75.73.14-.01.28-.01.41-.02v-10.45c0-.34-.28-.62-.62-.62h-.83c-.02.09-.03.19-.05.28-.02.12-.04.24-.04.37.02,2.04.06,4.08.1,6.13.01.04.03.08.04.12.08.23.21.45.22.68.03.93.02,1.86,0,2.78Z"/><path class="g" d="M174.47,180.8c.07.25.14.5.2.74,0-.17,0-.34,0-.51,0-.12,0-.25,0-.37-.07-.01-.14-.03-.21-.04v.18h0Z"/><path class="g" d="M174.46,180.62s0-.08,0-.11c0,.04,0,.08,0,.11h0Z"/><path class="g" d="M174.47,180.8s0,0,0,0h0v-.18h0c0,.06,0,.12,0,.18Z"/><path class="g" d="M174.67,181.54h0c-.07-.25-.14-.5-.2-.74h0c.07.25.14.5.2.74Z"/><polygon class="g" points="174.47 180.8 174.47 180.8 174.47 180.8 174.47 180.8"/><path class="f" d="M128.38,179.91c.02.12.05.24.06.36h0c-.02-.12-.04-.24-.06-.36Z"/><path class="j" d="M127.85,181.42c-.17-.22-.34-.44-.51-.66-.08.07-.15.15-.23.22l.54.6c.06-.06.13-.11.19-.17Z"/><path class="g" d="M161.11,180.09h0s-.07-.03-.1-.04c.03.01.07.03.1.04Z"/><path class="g" d="M178.72,215.07c-.08-.09-.17-.19-.25-.28h0s0-.07,0-.1c-.27-.07-.55-.14-.82-.21l-.1.1c.14.18.29.36.43.53h.73s0-.03,0-.04Z"/><path class="g" d="M178.48,214.78h0s0-.07,0-.1c0,.03,0,.07,0,.1Z"/><path class="g" d="M175.73,210.86c.07.04.14.09.2.13h0c-.04-.07-.08-.14-.13-.2-.03.02-.05.05-.08.07Z"/><path class="g" d="M175.89,211.3s.03.02.04.03c.02,0,.03-.02.05-.03-.01-.01-.03-.03-.04-.03-.01,0-.03.02-.05.02Z"/><path class="h" d="M106.12,198.04c.13-.3.26-.52.69-.44.99.19,1.09.09,1.08-.92,0-.19.05-.41-.02-.56-.04-.1-.06-.19-.06-.27,0-.11.04-.21.09-.3.06-.11.15-.2.24-.3-.16-.05-.33-.09-.49-.14h-.27c-.06,0-.13,0-.2.02-.07,0-.12.02-.15.06-.49.6-.95,1.22-1.43,1.83-.07.09-.15.18-.22.27-.02.03-.03.06-.03.1-.03.05-.07.1-.1.15-.01.04-.02.08-.03.12.13.13.26.26.4.39.17,0,.34,0,.51,0Z"/><path class="h" d="M107.39,195.1c-.06.01-.13.01-.2.02.07,0,.14,0,.2-.02h0Z"/><path class="h" d="M107.91,195.55c-.05.09-.09.19-.09.3,0-.11.04-.21.09-.3Z"/><path class="k" d="M106.84,200.81c.31-.07.63-.08.95-.11-.05-.38-.11-.75-.16-1.13-.15-.06-.3-.12-.39-.16-.33-.03-.52.98-.86.04-.13,0-.26-.01-.38-.02-.01.11-.02.22-.03.33h-.07c0-.12.01-.23.02-.34-.1,0-.2,0-.3,0-.06.06-.12.12-.19.18-.02-.05-.03-.11-.05-.16h0c-.38,0-.76,0-1.15,0,.19.19.37.37.59.59-.07.07-.15.2-.26.27-.19.12-.41.21-.62.31.24.03.48.07.72.1.06,0,.13,0,.19,0,.07-.11.13-.23.19-.33.01.05.04.12.06.2l.26.17s-.02.05-.02.08c.18.01.48-.03.51.04.16.36.42.23.67.21.11-.09.2-.24.32-.26Z"/><path class="k" d="M106.94,190.59c-.35-.14-.59.08-.55.51.04.52.17,1.06.1,1.56-.09.69.02,1.28.42,1.91.28-.37.53-.72.78-1.06-.03-.05-.05-.11-.08-.16-.29.02-.58.05-.87.07-.02-.06-.04-.12-.05-.19.27-.1.54-.21.83-.31-.07-.25-.15-.5-.23-.76.04-.01.08-.03.11-.04.14.19.29.38.5.66.15-.67-.5-2.02-.96-2.2Z"/><path class="k" d="M86.81,205.39c0-.35,0-.7.03-1.05.01-.11.15-.21.23-.32,0,0,.03-.04.03-.04-.3-.02-.6-.04-.9-.05l-.58,1.36c.09.05.21.08.39.09.2.01.46,0,.81,0Z"/><path class="c" d="M109.68,200.98l-1.01-.3h0c-.05-.12-.11-.24-.16-.36l-.1-.13h0s0-.08,0-.12c.02-.03.03-.05.03-.09-.06-.3-.12-.61-.18-.91h0s-.07-.03-.11,0c0,.06,0,.12-.02.19,0,.06,0,.12-.01.19-.01.05-.02.09-.04.14,0,.32,0,.65,0,.97-.02.05-.04.09-.06.14-.09,0-.17,0-.26,0-.32.03-.64.05-.95.11-.12.03-.21.17-.32.26.68.08,1.36.17,2.04.24.1.01.21.02.31.03.31.02.61-.01.81-.36ZM108.77,201.06s0-.03-.01-.05c.02,0,.05.02.08.03-.03.01-.05.02-.07.02Z"/><path class="c" d="M109.68,200.98l-1.01-.3h0l1.01.3Z"/><path class="c" d="M108.28,199.08h0s-.07-.03-.11,0h0s.07-.02.11,0h0Z"/><path class="e" d="M87.75,204.45c-.14.01-.28.04-.41.07l.1.49h0c.09.06.18.13.27.19.09.06.19.12.28.13.4.07.81.05,1.22.07.04-.25.08-.5.12-.74-.48-.43-1.04-.26-1.58-.21Z"/><path class="e" d="M87.72,205.19c-.09-.06-.18-.14-.27-.19h0c.09.06.18.13.27.19Z"/><path class="j" d="M104.99,191.07c-.02-.25-.03-.51-.05-.76-.06.05-.13.1-.19.14-.26-.21-.51-.41-.77-.62-.05.39-.14.78-.12,1.16.01.24.2.66.31.66.18,0,.39,0,.55-.07s.28-.22.27-.51Z"/><path class="h" d="M107.01,198.66c-.3-.2-.59-.41-.89-.61-.17.36-.34.36-.51,0-.22-.04-.43-.09-.65-.13-.48-.06-.36.47-.61.62l1.01.17c.55-.01,1.1-.03,1.65-.04Z"/><path class="k" d="M87.07,204.03c0,.08.02.15.02.23h0c.08.09.17.17.25.26.14-.02.27-.05.41-.07.54-.05,1.1-.22,1.58.21.03-.15.11-.42.09-.42-.5-.17-1-.37-1.52-.45-.13-.02-.26.01-.4.06-.14.05-.28.11-.41.15,0,0-.03.04-.03.04Z"/><path class="e" d="M88.04,203.12c-.48-.04-.95-.09-1.43-.13l-.1.23c.51.04,1.01.09,1.52.13v-.22Z"/><path class="c" d="M105.25,198.81c-.3,0-.6-.01-.91-.02-.05.09-.09.17-.14.26,0,.13,0,.26.01.39h0c.38,0,.76,0,1.15,0-.04-.21-.08-.41-.12-.62Z"/><path class="f" d="M107.39,195.1h.27c.23-.12.46-.33.7-.34.61-.04,1.21-.03,1.82-.02l-.03-.08c-.91,0-1.82.01-2.74.02h0c0,.07,0,.13,0,.2,0,.08,0,.16,0,.23h0Z"/><path class="f" d="M110.18,194.74c.13,0,.26,0,.38,0,0-.03-.01-.06,0-.09-.14,0-.28,0-.41,0l.03.08Z"/><path class="f" d="M107.39,195.1c0-.08,0-.16,0-.23,0,.08,0,.16,0,.23h0Z"/><path class="k" d="M110.56,194.65c0-.05,0-.11.01-.16-.16,0-.33,0-.49,0l.07.16c.14,0,.28,0,.41,0Z"/><path class="k" d="M110.14,194.66l-.07-.16c-.71,0-1.42-.01-2.12,0-.18,0-.36.12-.54.18.91,0,1.82-.01,2.74-.02Z"/><path class="k" d="M107.95,194.5c-.18,0-.36.12-.54.18h0c.18-.06.36-.17.54-.18Z"/><path class="i" d="M89.2,207.8c0,.11.06.93.13,1.05l.06-.53s0-.09,0-.13c0-.51-.02-1.01-.03-1.52-.03,0-.07,0-.1-.01-.02.38-.03.76-.06,1.14Z"/><path class="i" d="M89.26,206.67c-.02.38-.03.76-.06,1.14.03-.38.04-.76.06-1.14h0Z"/><path class="i" d="M88.83,209.46c.16.1.3.18.44.26.03,0,.07,0,.11-.01-.01-.22-.03-.44-.04-.65-.17.13-.33.27-.5.4Z"/><path class="i" d="M89.37,209.71c-.01-.22-.03-.44-.04-.65h0c.01.22.03.44.04.65Z"/><path class="i" d="M88.83,209.46c.16.1.3.18.44.26h0c-.14-.08-.27-.16-.44-.26Z"/><path class="k" d="M89.26,206.67s.07.01.1.01c0-.26,0-.52-.01-.77-.03.25-.06.51-.09.76h0Z"/><path class="k" d="M89.26,206.67h0c.03-.25.06-.51.09-.76-.03.25-.06.51-.09.76h0Z"/><path class="j" d="M105.62,198.04h0c-.13-.13-.26-.26-.4-.39-.08.08-.17.17-.25.25.22.04.43.09.65.13,0,0,0,0,0,0Z"/><path class="f" d="M105.1,200.58c-.02-.07-.04-.15-.06-.2-.06.1-.13.21-.19.33.16.04.32.07.49.11,0-.03.01-.05.02-.08l-.26-.17Z"/><path class="f" d="M105.36,200.74l-.26-.17c-.02-.07-.04-.15-.06-.2.01.05.04.12.06.2l.26.17Z"/><path class="k" d="M105.25,198.81s.08-.01.11-.02c0-.03,0-.06,0-.09l-1.01-.17c0,.09,0,.17-.01.26.3,0,.6.01.91.02Z"/><path class="k" d="M104.22,199.44c0-.13,0-.26-.01-.39-.38.14-.17.27.01.39Z"/><path class="k" d="M109.11,202.08s-.07-.03-.1-.04c-.01.03-.03.07-.04.1.03.01.07.05.1.04.02,0,.03-.06.05-.1Z"/><path class="k" d="M109.01,202.03s0,0,0,0c.03.01.07.03.1.04-.03-.01-.07-.03-.1-.04Z"/><path class="k" d="M89.39,208.32s.04-.03.03-.04c0-.03-.02-.06-.04-.09,0,.04,0,.09,0,.13Z"/><path class="h" d="M103.89,180.22c.02.06.05.13.07.19.03,0,.06,0,.08,0-.05-.07-.09-.14-.15-.19Z"/><path class="h" d="M103.82,180.03c.02.06.05.13.07.19h0c-.02-.06-.05-.13-.07-.19Z"/><path class="h" d="M103.96,180.41c-.02-.06-.05-.13-.07-.19h0c.02.06.05.13.07.19h0Z"/><path class="e" d="M103.96,180.51c-.28.46.19.35.36.46l-.19-.44c-.06,0-.11-.01-.17-.02Z"/><path class="i" d="M104.11,180.49s-.05-.05-.07-.09c-.03,0-.06,0-.08,0,0,.03,0,.07,0,.1.06,0,.11.01.17.02l-.02-.04Z"/><path class="j" d="M86.58,210.25c.12,0,.25,0,.37,0,.13-.01.26-.02.4-.03h0c.08-.06.15-.13.19-.19.08-.13.08-.26,0-.38-.04-.06-.11-.13-.19-.19-.02.13-.06.23-.11.32-.15.25-.43.3-.82.16-.28-.1-.59-.18-.89-.2-.58-.04-1.17-.07-1.76-.1l-.32.74c.06,0,.11-.02.17-.02.98-.03,1.96-.07,2.94-.1Z"/><path class="j" d="M87.35,210.21h0c.08-.06.15-.13.19-.19-.04.06-.11.13-.19.19h0Z"/><path class="j" d="M87.54,209.64c-.04-.06-.11-.13-.19-.19h0c.08.06.15.13.19.19Z"/><path class="g" d="M183.66,190.17c0,.13,0,.26-.01.39h.04c.12-.19.24-.36.36-.54.1-.15.2-.3.21-.32-.06-.24-.11-.46-.16-.67-.05-.22-.1-.43-.15-.64,0-.04,0-.08,0-.12-.08-.28-.17-.55-.27-.82,0,.82,0,1.64-.02,2.46,0,.09,0,.17,0,.26Z"/><path class="g" d="M183.44,195c.04.17.08.33.13.5.1.14.26.27.28.41,0,.06,0,.13,0,.2.16-.49.28-1,.38-1.53-.22.01-.44.02-.66.03-.04.13-.08.26-.12.39Z"/><path class="e" d="M133.28,201.65c0-1.04,0-2.09,0-3.13,0-.32.17-.65.16-.96-.02-.6-.17-1.19-.15-1.79.02-.58-.11-1.02-.64-1.28-.18-.04-.37-.08-.55-.12v-.1c.1-.01.19-.03.27-.04-.08-.04-.15-.09-.23-.13-.35,0-.7,0-1.05,0h0c-.19.04-.39.12-.58.13-.6.02-1.2.02-1.8.02h0c0,2.7,0,5.39,0,8.09,0,.51-.03.98.73.71.03-.01.08.02.13.06.05.04.11.09.16.12h0s.1.03.14.04v-1.61h3.41ZM132.83,198.96c-1.03.25-1.92.13-2.13-.29.91-.3,1.97-.16,2.13.29ZM129.79,198.63s.08,0,.12,0c.01.12.02.24.03.36h-.16v-.35Z"/><path class="h" d="M128.72,194.25c.6,0,1.2,0,1.8-.02-.6.02-1.2.02-1.8.02h0Z"/><path class="h" d="M129.73,203.23s-.11-.08-.16-.12c.05.04.11.09.16.12h0Z"/><polygon class="h" points="132.66 194.48 132.66 194.48 132.66 194.48 132.66 194.48 132.66 194.48"/><path class="h" d="M132.15,194.09h0c-.35,0-.7,0-1.05,0h0,0c.35,0,.7,0,1.05,0Z"/><path class="e" d="M129.87,211.58v-.29c-.35-.05-.69-.1-1.04-.15h0c-.07.37-.14.73-.22,1.1.38-.2.76-.4,1.14-.6.03-.02.07-.03.11-.05Z"/><path class="e" d="M129.67,210.76s-.02.07-.03.11c.08.05.15.09.23.13v-.24h-.2Z"/><path class="e" d="M128.84,211.13h0c-.07.37-.14.73-.22,1.1h0c.07-.37.14-.73.22-1.1h0Z"/><path class="h" d="M129.87,212.59c-.25.02-.51.04-.76.05-.17.07-.35.13-.56.22.05.23.09.45.14.68.39,0,.79,0,1.18,0v-.95Z"/><path class="h" d="M128.69,208.95c-.14.5-.19.79-.08.95s.37.2.86.2c.13,0,.27,0,.4,0v-1.15c-.39,0-.79,0-1.18,0Z"/><path class="i" d="M129.87,207.34s-.1-.01-.15-.02c.02.1.05.2.07.3-.4-.07-.75-.14-1.16-.21.03.56.06,1,.09,1.44.38,0,.77,0,1.15,0v-1.49Z"/><path class="j" d="M145.81,208.61l-.46-.32-1.03.03-.52.04c-.52-.05-1.04-.11-1.57-.16v.3c1.15.12,2.31.24,3.46.36.04-.09.08-.17.12-.26Z"/><path class="f" d="M129.87,212.59v-1.01s-.07.03-.11.05c-.38.2-.76.4-1.14.6.16.14.33.27.49.41h0,0c.25-.02.51-.04.76-.05Z"/><path class="f" d="M128.62,212.23c.16.14.33.27.49.41h0c-.16-.14-.33-.27-.49-.41Z"/><path class="i" d="M144.74,214.37c.08.15.14.29.21.42,0-.34,0-.68,0-1.02-.08-.35-.17-.69-.25-1.04-.16-.11-.31-.22-.47-.33-.07.02-.14.05-.2.07,0,.76-.02,1.52,0,2.28,0,.12.02.23.03.35h.38c.09-.24.18-.48.28-.73Z"/><path class="f" d="M146.25,215.11h-.12s.05.07.08.1c.01-.03.02-.07.04-.1Z"/><path class="f" d="M145.98,214.9s0,.01,0,.02c.05.06.1.13.15.19h.12c.05-.14.11-.29.16-.44.07.13.14.26.23.42.77-.55.42-1.3.45-1.95,0-.21-.06-.41-.09-.62-.08.16-.23.31-.24.48-.04.4-.01.8-.01,1.24-.58-.48.2-1.4-.72-1.76-.01.16-.02.3-.03.43s-.02.26-.03.38c0,.54.01,1.08.02,1.62Z"/><path class="f" d="M145.99,212.9c0,.13-.02.26-.03.38h0c0-.12.02-.25.03-.38Z"/><path class="f" d="M144.71,212.74c.08.35.17.69.25,1.04.12,0,.24.02.36.02.15-.21.29-.43.44-.64v-1.84c-.28.12-.53.3-.52.46,0,.12,0,.22-.03.31-.08.27-.29.45-.5.65Z"/><path class="f" d="M129.87,211.29v-.28c-.08-.04-.15-.09-.23-.13,0-.04.02-.07.03-.11h.2v-.4h0c-.05,0-.1,0-.16,0h-.86c-.09,0-.18,0-.27,0,.08.26.17.52.25.78.35.05.69.1,1.04.15Z"/><path class="f" d="M128.59,210.36c.08.26.17.52.25.78h0c-.08-.26-.17-.52-.25-.78Z"/><path class="g" d="M145.32,213.8c.27.35.31.68.12,1.12-.02.06-.03.12-.04.18h.59c0-.06,0-.12,0-.19,0,0,0-.01,0-.02,0-.54-.01-1.08-.02-1.62h0c-.07-.04-.13-.08-.2-.13h0c-.15.21-.29.43-.44.64Z"/><path class="g" d="M145.96,213.28h0c-.07-.04-.13-.08-.2-.12h0c.07.04.13.08.2.12Z"/><path class="g" d="M145.96,213.28h0c0,.54.01,1.08.02,1.62,0-.54-.01-1.08-.02-1.62h0Z"/><path class="j" d="M129.87,207.03c-.29-.03-.58-.05-.87-.08,0,.06-.02.11-.03.17.25.07.5.13.75.2.05,0,.1.01.15.02v-.31Z"/><path class="j" d="M147,208.2c-.17.08-.33.16-.5.24h0c-.12.05-.24.1-.36.15,0,.05.02.1.02.15h2.8s.02-.1.03-.15c-.12-.06-.23-.11-.35-.17-.3,0-.6.02-.89.02-.25-.08-.5-.17-.75-.25Z"/><path class="j" d="M146.5,208.45h0c-.12.05-.24.1-.36.15.12-.05.24-.1.36-.15h0Z"/><path class="e" d="M125.85,211.21h0c.1.03.19.04.26.04s.13-.02.18-.06c.08-.07.09-.2-.02-.39-.18-.31-.52-.55-.84-.75-.1-.06-.35.11-.53.18.32.33.63.65.95.98h0Z"/><path class="e" d="M125.85,211.21c.1.03.19.04.26.04-.07,0-.16,0-.26-.04h0Z"/><path class="e" d="M146.64,215.08c-.09-.16-.15-.29-.23-.42-.06.15-.11.3-.16.44h1s.01,0,.02-.01c.05-.03.08-.07.08-.1-.02-.87-.07-1.74-.11-2.61-.08.04-.17.08-.25.12.03.21.1.42.09.62-.03.66.32,1.4-.45,1.95Z"/><path class="e" d="M147.25,212.39h0c.04.87.09,1.74.11,2.61-.02-.87-.07-1.74-.11-2.61Z"/><path class="i" d="M143.8,208.37c-.12-.14-.23-.39-.37-.4-.4-.04-.8-.07-1.2-.09v.33c.52.05,1.05.11,1.57.16Z"/><path class="i" d="M125.28,211.31c.16.13.36.2.53.29,0-.1.02-.17.02-.23,0-.06.01-.11.02-.16-.32-.33-.64-.65-.95-.98-.41-.02-.32.3-.23.46.15.24.38.45.61.63Z"/><path class="i" d="M141.4,211.89c.05-.26.1-.52.15-.78-.05.26-.1.52-.15.78h0Z"/><path class="i" d="M145.35,208.3c-.11-.33-.23-.65-.37-1.08-.12.21-.23.4-.34.58-.11.18-.21.36-.31.53l1.03-.03Z"/><path class="i" d="M128.77,215.11h.49c.12,0,.22-.04.31-.1-.26-.11-.52-.23-.8-.36v.45Z"/><path class="i" d="M129.72,210.36c.05,0,.1,0,.16,0h0v-.1c-.43.03-.86.06-1.28.09.09,0,.18,0,.27,0,.29,0,.57,0,.86,0Z"/><path class="e" d="M129.87,208.95v-.11c-.38,0-.77,0-1.15,0,0,.04-.02.07-.03.11.39,0,.79,0,1.18,0Z"/><path class="e" d="M129.87,213.54c-.39,0-.79,0-1.18,0,.01.03.02.07.03.1.38,0,.77,0,1.15,0v-.11Z"/><path class="e" d="M143.09,214.15c-.07.18,0,.41.02.62.07.01.15.02.22.03.17-.22.34-.43.52-.65-.31-.25-.58-.43-.75,0Z"/><path class="k" d="M129.87,213.65c-.38,0-.77,0-1.15,0,.23.05.47.13.7.13.15,0,.3-.01.45-.02v-.1Z"/><path class="k" d="M129.43,213.77c.15,0,.3-.01.45-.02h0c-.15,0-.3.01-.45.02Z"/><path class="j" d="M127.33,204.8s0,0,0,.01v.03c.13.1.25.2.37.31.13-.03.25-.07.38-.11-.04-.11-.06-.25-.14-.31-.14-.1-.31-.16-.47-.23-.05.1-.1.2-.15.3h0Z"/><path class="j" d="M127.34,204.84v-.03s0,.03,0,.03Z"/><path class="f" d="M147,208.2c-.11-.12-.22-.23-.38-.41-.03.17-.05.29-.07.39-.02.1-.03.18-.05.26.17-.08.33-.16.5-.24Z"/><path class="f" d="M146.55,208.18c-.02.1-.03.18-.05.26h0c.01-.08.03-.16.05-.26Z"/><path class="f" d="M141.4,211.89c0,.16,0,.33,0,.49h0c0-.16,0-.33,0-.49h0Z"/><path class="f" d="M127.34,204.84c.07.1.02.35.15.37.05,0,.11-.01.21-.07-.12-.1-.24-.2-.37-.31Z"/><path class="f" d="M127.47,204.5c-.06-.05-.12-.11-.17-.16,0,.15.02.3.03.46.05-.1.1-.2.15-.3Z"/><path class="f" d="M127.33,204.8c0-.15-.02-.3-.03-.46,0,.15.02.3.03.46h0Z"/><path class="k" d="M128.16,202.26s-.02-.09-.04-.1c-.02-.01-.07.02-.1.03.01.03.02.09.04.1.02.01.07-.02.1-.03Z"/><path class="k" d="M128.16,202.26h0s-.08.04-.1.03c.02.01.07-.02.1-.03Z"/><path class="j" d="M129.46,191.45c-.56.04-.76-.2-.75-.73.02-.93.02-1.86,0-2.78,0-.23-.14-.45-.22-.68v4.31h1.39v-.13c-.14,0-.28.01-.41.02Z"/><path class="j" d="M125.82,187.22c.36-.47.25-.68-.61-1.09-.14.63-.13.65.61,1.09Z"/><path class="h" d="M86.42,209.93c.39.14.67.09.82-.16.05-.08.09-.19.11-.32h0c.04-.16.07-.32.11-.48-.03-.64-.05-1.27-.08-1.91,0-.08,0-.16-.01-.24,0-.05.01-.1.02-.15,0-.07,0-.14.01-.21,0-.27-.01-.54-.02-.81.02-.19.04-.39.06-.58,0-.02,0-.04,0-.06l-.1-.49c-.08-.09-.17-.17-.25-.26,0,.42-.01.73-.04.96-.04.35-.14.53-.39.61-.24.09-.63.09-1.25.09h-.05l-.22.52c.52,0,1.04,0,1.56,0,.03.84.07,1.68.08,2.52,0,.08-.18.23-.27.22-.84-.01-1.67-.05-2.51-.08l-.23.54c.59.03,1.17.06,1.76.1.3.02.6.1.89.2Z"/><path class="h" d="M87.44,205h0s0,.04,0,.06c0-.02,0-.04,0-.06Z"/><path class="h" d="M87.09,204.25h0c.08.09.17.17.25.26-.08-.09-.17-.17-.25-.26Z"/><path class="h" d="M87.24,209.76c.05-.08.09-.19.11-.32h0c-.02.13-.06.23-.11.32Z"/><path class="e" d="M89.11,212.25s.06-.02.08-.04c-.13-.06-.26-.14-.39-.18-.35-.1-.71-.19-1.07-.28.01-.08.02-.17.03-.25h1.3c-.02-.2-.04-.34-.06-.54-1.64.17-3.27-.15-4.89.18.23.13.5.26.71.2.91-.25,1.72-.03,2.51.41.02-.01.04-.03.06-.04-.02.02-.03.04-.04.06h0c-.04.29.05.44.26.48.07.01.15.02.25.01.21-.01.42-.02.63-.02.21,0,.42,0,.63,0h0Z"/><path class="e" d="M87.35,211.76h0c-.04.29.05.44.26.48-.21-.04-.3-.19-.26-.48Z"/><path class="e" d="M89.11,212.25c-.21,0-.42,0-.63,0,.21,0,.42,0,.63,0h0Z"/><path class="c" d="M86.58,210.25c-.98.03-1.96.07-2.94.1-.06,0-.12.01-.17.02l-.1.24c1.24-.05,2.48-.1,3.71-.15-.04-.07-.08-.15-.12-.22-.12,0-.25,0-.37,0Z"/><path class="c" d="M83.36,210.61c1.24-.05,2.48-.1,3.71-.15-1.24.05-2.47.1-3.71.15h0Z"/><path class="e" d="M87.39,206.45c.11-.14.31-.28.31-.42,0-.07-.05-.13-.12-.2-.03-.03-.07-.06-.11-.1-.04-.03-.07-.06-.1-.1,0,.27.01.54.02.81Z"/><path class="i" d="M86.95,210.24c.04.07.08.15.12.22.09-.08.18-.17.28-.25-.13.01-.26.02-.4.03Z"/><path class="i" d="M87.07,210.46c.09-.08.18-.17.28-.25h0c-.09.08-.18.17-.28.25Z"/><path class="i" d="M88.74,209.15s-.02-.04-.03-.04c-.04,0-.08.01-.12.02,0,.01.02.04.02.04.04,0,.08-.01.12-.02Z"/><path class="e" d="M87.37,206.81s.04-.03.04-.04c0-.04-.02-.07-.02-.11,0,.05-.01.1-.02.15Z"/><path class="h" d="M108.42,195.12h0c0,.2-.01.4-.02.6-.02.6.01,1.18.38,1.72.03.04.07.08.1.11.8-.07,1.6-.14,2.41-.21l-.95-2.24c-.64,0-1.28.01-1.91.02Z"/><path class="h" d="M108.42,195.12c0,.2-.01.4-.02.6,0-.2.02-.4.02-.6h0Z"/><path class="i" d="M110.33,195.1l-.15-.36c-.61,0-1.22-.02-1.82.02-.24.02-.47.23-.7.35.16.05.33.09.49.14.09-.04.18-.09.27-.13.64,0,1.28-.01,1.91-.02Z"/><path class="i" d="M110.18,194.74l.15.36c.08,0,.16,0,.24,0,0-.12-.01-.24-.02-.36-.13,0-.26,0-.38,0Z"/><path class="c" d="M105.36,198.79h1.3c.13.38.16.64-.28.67.34.94.53-.07.86-.04.09.04.24.1.39.16l-.11-.91h0c-.17,0-.33,0-.5,0-.55.01-1.1.03-1.65.04,0,.03,0,.06,0,.09Z"/><path class="c" d="M107.51,198.66c-.17,0-.33,0-.5,0,.17,0,.33,0,.5,0h0Z"/><path class="e" d="M107.62,199.57c.05.38.11.75.16,1.13.09,0,.17,0,.26,0,.02-.05.04-.09.06-.14,0-.32,0-.65,0-.97.01-.05.02-.09.04-.14,0-.06.01-.12.02-.19,0-.06.01-.12.02-.19-.03-.19-.08-.36-.18-.45-.05-.05-.11-.07-.19-.07-.08,0-.18.03-.29.1l.11.91Z"/><path class="e" d="M107.8,198.56c.08,0,.14.02.19.07-.05-.05-.11-.07-.19-.07Z"/><path class="e" d="M108.11,199.59s.02-.09.04-.14c0-.06,0-.12.01-.19,0,.06,0,.12-.02.19-.01.05-.02.09-.04.14Z"/><path class="e" d="M111.66,199.1c-.43-.12-.87-.24-1.32-.37-.03.06-.06.12-.09.18.5.09.61.36.44.78.68.19.93.05.97-.59Z"/><polygon class="e" points="110.7 199.69 110.69 199.69 110.7 199.69 110.7 199.69"/><path class="e" d="M110.45,200.91v-.43h.5c-.1-.29-.18-.54-.26-.78-.17.04-.34.08-.51.13-.26.41-.29.78.27,1.09Z"/><polygon class="e" points="110.69 199.69 110.69 199.7 110.7 199.69 110.69 199.69"/><polygon class="e" points="110.19 199.82 110.19 199.82 110.18 199.82 110.19 199.82"/><path class="e" d="M108.91,200.19c.42-.12.85-.24,1.27-.37-.07-.09-.13-.24-.2-.26-.22-.03-.45,0-.67,0-.52-.04-.36.35-.4.62Z"/><path class="e" d="M108.91,200.19c.42-.12.85-.24,1.27-.37h0c-.42.12-.85.24-1.27.37h0Z"/><polygon class="e" points="110.18 199.82 110.19 199.82 110.18 199.82 110.18 199.82"/><path class="f" d="M108.45,199.99s-.02.06-.03.09c0,.04,0,.08,0,.11h0s.07.09.1.14c.05.12.11.24.16.36h0c.08-.16.15-.33.23-.5h0c.03-.27-.13-.67.4-.62.03-.32-.11-.43-.41-.34-.15.26-.29.52-.44.77h0Z"/><path class="f" d="M108.91,200.19c-.08.16-.15.33-.23.5h0c.08-.16.15-.33.23-.5h0Z"/><path class="f" d="M108.45,199.99s0,0,0,0c0,.03-.02.06-.03.09.02-.03.03-.05.03-.09h0Z"/><path class="f" d="M108.42,200.08s0,.08,0,.11h0s0,0,0,0c0-.04,0-.08,0-.11Z"/><path class="i" d="M108.45,199.99c.14-.26.29-.52.44-.77l-.61-.14c.06.3.12.61.18.91Z"/><path class="i" d="M108.89,199.22l-.61-.14h0l.61.14Z"/><path class="i" d="M108.28,199.08h0c.06.3.12.61.18.91,0,0,0,0,0,0-.06-.3-.12-.61-.18-.91Z"/><path class="i" d="M108.42,197.51c.01.05.02.1.03.16.14-.04.28-.07.42-.11-.03-.04-.07-.08-.1-.11-.12.02-.24.05-.35.07Z"/><path class="i" d="M84.21,213.94c.16.22.31.42.44.61s.26.36.39.54c.03-.02.07-.02.1-.01h0s.05.03.08.04h1.08c.06-.07.13-.13.19-.19.06-.06.13-.12.18-.19.17-.21.24-.45.01-.8h-2.48Z"/><path class="f" d="M86.69,213.94c.23.34.16.59-.01.8-.05.06-.11.13-.18.19-.06.06-.13.12-.19.17,0,0,0,0,0,.01h.61v-1.3l-.23.13Z"/><path class="f" d="M86.31,215.09c.06-.06.13-.11.19-.17-.06.06-.13.12-.19.17h0Z"/><path class="j" d="M136.72,194.38c-.26.02-.52.04-.81.06.02.33.03.64.05.93s.03.59.05.87c.11-.67.16-1.37.72-1.86Z"/><path class="j" d="M135.95,195.37c.02.3.03.59.05.87,0,0,0,0,0,0-.02-.29-.03-.57-.05-.87Z"/><path class="f" d="M134.54,196.04q-.65-.42-1.02-.04c.3.5.65.75,1.02.04Z"/><path class="f" d="M133.9,198.95c.51-.03,1.01-.06,1.52-.1,0-.04-.02-.08-.02-.12h-1.51c0,.07,0,.15.01.22Z"/><path class="j" d="M136,199.08c-.18.1-.26.21-.27.32-.03.18.12.36.26.54,0-.28,0-.57.01-.85Z"/><path class="j" d="M135.73,199.4c-.03.18.12.36.26.54h0c-.14-.18-.28-.36-.26-.54Z"/><path class="f" d="M132.4,194.23c.13,0,.26,0,.39,0-.21-.12-.42-.23-.63-.35,0,.07,0,.14,0,.21h0c.08.04.15.09.23.13,0,0,0,0,0,0h0Z"/><path class="f" d="M132.16,193.88c0,.07,0,.14,0,.21h0c0-.07,0-.14,0-.21Z"/><path class="i" d="M132.4,194.23s0,0,0,0l.26.25c.14,0,.27-.01.51-.02-.09-.05-.16-.1-.22-.13-.06-.04-.11-.07-.16-.1-.13,0-.26,0-.39,0Z"/><polygon class="i" points="132.39 194.22 132.39 194.23 132.4 194.23 132.39 194.22"/><path class="j" d="M135.96,196.47v-.04s-.03,0-.05,0c.02.01.03.02.05.04h0Z"/><path class="j" d="M135.96,196.47s-.03-.02-.05-.04c.02.01.03.02.05.04h0Z"/><path class="j" d="M136.73,200.17c-.02-.61.23-1.11.58-1.11.73,0,1.46,0,2.19-.01.13,0,.25-.07.51-.15-.23-.12-.33-.2-.43-.21-.81-.04-1.62-.08-2.43-.07-.18,0-.47.18-.53.35-.15.41-.28.86-.27,1.29.01.47.04.94.07,1.4h.35c-.01-.5-.03-.99-.04-1.49Z"/><path class="i" d="M184.41,190.88c-.07-.89-.22-1.73-.45-2.52,0,.01-.02.02-.02.03h0c.05.21.1.42.15.64.05.22.11.44.16.67,0,.01-.11.17-.21.32-.12.18-.24.35-.36.53.16.09.33.17.49.26.08.02.16.05.24.07Z"/><path class="i" d="M184.18,190.81c.08.02.16.05.24.07h0c-.08-.02-.16-.05-.24-.07Z"/><path class="i" d="M184.41,190.88h0c.05.02.1.03.15.04h0,0c-.05-.01-.1-.03-.15-.04Z"/><path class="i" d="M183.94,188.39h0c.05.21.1.42.15.64-.05-.22-.1-.43-.15-.64h0Z"/><path class="f" d="M177.73,194.76c1.13,0,2.26,0,3.39-.01h0c.27,0,.54,0,.81,0,.27,0,.54,0,.81.01.19,0,.37.13.55.2h0s.08.03.13.05c.04-.13.08-.26.12-.39-.43-.13-.86-.29-1.3-.37-1.52-.26-3.05-.26-4.55.12-.07.02-.13.08-.19.16-.06.08-.11.16-.17.23h.37Z"/><path class="f" d="M177.53,194.52c-.06.08-.11.16-.17.23h0c.06-.07.11-.16.17-.23Z"/><path class="f" d="M177.71,194.36c-.07.02-.13.08-.19.16.06-.08.11-.14.19-.16Z"/><path class="f" d="M177.36,194.75h.37c-.12,0-.25,0-.37,0Z"/><path class="f" d="M183.44,195c.04-.13.08-.26.12-.39-.04.13-.08.26-.12.39h0Z"/><path class="i" d="M183.21,197.06c-.1-.16-.2-.32-.29-.48-.08-.04-.15-.07-.23-.11-.06-.03-.12-.06-.18-.09h0s-.03-.06-.04-.09c0,0,.02-.03.04-.04.14-.01.28-.02.42-.03,0-.07,0-.13,0-.2-.51-.05-1.01-.1-1.52-.14-.17.02-.34.03-.51.05-.09.24-.18.49-.26.71.14.08.4.14.47.29.22.42.54.49.98.49.29,0,.57.16.86.25.08,0,.16-.01.24-.02.03-.17.07-.33.1-.5l-.06-.09Z"/><path class="i" d="M182.92,197.67c.08,0,.16-.01.24-.02-.08,0-.16.01-.24.02h0Z"/><path class="j" d="M183.44,195s-.08-.03-.13-.05c-.27.02-.54.04-.84.06-.05.23-.09.45-.12.62-.35.09-.65.17-.96.25.51.05,1.01.1,1.52.14.08,0,.17,0,.25,0,.04.17.08.33.12.5,0,0,.04-.01.04-.01.07,0,.13,0,.2,0,.02-.01.05-.01.07,0,0-.34,0-.68-.01-1.02-.04-.17-.08-.33-.13-.5h0Z"/><path class="j" d="M183.31,196.51c.07,0,.13,0,.2,0h0c-.07,0-.13,0-.2,0Z"/><path class="j" d="M183.44,195c.04.17.08.33.13.5-.04-.17-.08-.33-.13-.5h0Z"/><path class="j" d="M183.44,195h0s-.08-.03-.13-.05h0,0s.08.03.13.05Z"/><path class="e" d="M178.21,198.42c1.29,0,2.58,0,3.87,0,.21,0,.42-.03.63-.04,0-.06,0-.12,0-.17-.22,0-.43-.03-.65-.03-1.25,0-2.49,0-3.74-.01-.78,0-.86.09-.61.87,0-.08.01-.16.02-.23-.04-.39.21-.39.48-.39Z"/><path class="e" d="M183.52,197.03c.03-.07.05-.15.08-.23,0-.09-.01-.19-.02-.28-.02-.01-.05-.01-.07,0,0,.17,0,.34,0,.51Z"/><path class="e" d="M183.51,196.52h0c0,.17,0,.34,0,.51h0c0-.17,0-.34,0-.51Z"/><path class="e" d="M183.51,196.52h0s.05-.01.07,0h0s-.05-.01-.07,0Z"/><path class="f" d="M183.16,196.03c-.08,0-.17,0-.25,0,0,.07,0,.13,0,.2,0,.12,0,.24,0,.36.1.16.2.32.29.48l.06.09h0c.02-.21.03-.42.05-.63,0,0-.04.01-.04.01-.04-.17-.08-.33-.12-.5Z"/><path class="f" d="M183.26,197.15l-.06-.09.06.09h0Z"/><path class="f" d="M183.27,196.53c-.04-.17-.08-.33-.12-.5-.08,0-.17,0-.25,0,.08,0,.17,0,.25,0,.04.17.08.33.12.5Z"/><path class="j" d="M177.08,181.78c.03.51.06,1.03.1,1.54.02.34.03.67.05,1.01.1,0,.18,0,.25-.03.2-.08.27-.27.23-.53-.06-.46.06-.77.59-.77-.23-.55-.33-1-.31-1.35-.3-.13-.6-.26-.92-.37,0,.05,0,.1,0,.14,0,.12,0,.24,0,.36Z"/><path class="f" d="M176.95,183.57c.02.05.02.11.02.16,0,.11-.03.21-.07.32-.09.27-.21.53.04.8.08,0,.16-.01.24-.02h0c.01-.16.02-.33.03-.5-.02-.34-.03-.67-.05-1.01-.08.08-.15.16-.23.24Z"/><path class="f" d="M176.95,183.57h0c.02.05.02.11.02.16,0-.05,0-.11-.02-.16Z"/><path class="f" d="M177.19,184.83h0c-.08,0-.16.01-.24.02.08,0,.16-.01.24-.02h0Z"/><path class="j" d="M182.85,190.24c-.04-1.16-.09-2.32-.13-3.48-.05,0-.1,0-.14.01v3.79h1.07c0-.13,0-.26.01-.39-.11.01-.22.03-.32.04-.01-.19-.04-.38-.04-.57,0-1.01,0-2.02,0-3.03-.05-.11-.11-.22-.17-.32v3.93c-.09,0-.19,0-.28.01Z"/><path class="j" d="M181.52,190.46v-4.84c-.09,0-.17,0-.26,0v4.85c.09,0,.17,0,.26,0Z"/><path class="j" d="M180.89,189.91v-4.28s-.09,0-.13,0v4.28h.13Z"/><path class="j" d="M178.85,186.85v3.28l.09.03v-4.12s-.06,0-.09,0v.81Z"/><path class="j" d="M183.56,188.19c.01.58.06,1.15.1,1.73,0-.82,0-1.64.02-2.46-.03-.09-.08-.17-.11-.26,0,.33,0,.66,0,.99Z"/><path class="j" d="M181.97,187.47c-.19,1.28-.1,2.79.21,3.09-.07-1.06-.14-2.05-.21-3.09Z"/><path class="f" d="M143.34,200v-.19c-.24.02-.48.03-.72.05,0,.05,0,.1.01.14h.71Z"/><path class="j" d="M146.04,205.18s-.03-.05-.05-.08c-.02.02-.04.05-.07.07.03.02.06.04.09.05,0,0,.04-.03.03-.04Z"/><path class="j" d="M145.92,205.16h0s.04-.05.07-.07l-.07.07Z"/><path class="c" d="M148.63,213.87v1.23h.24c0-.41,0-.83,0-1.24-.08,0-.16,0-.24,0Z"/><path class="f" d="M172.97,185c.48.15.85.27,1.29.41-.14-.82-.5-.93-1.29-.41Z"/><path class="f" d="M176.17,187.5c.05.02.15.07.16.06.08-.09.12-.28.12-.49,0-.35-.09-.77-.24-.94-.01.46-.02.91-.03,1.37Z"/><path class="c" d="M176.03,189.52s-.03-.01-.04-.02c0,.02-.02.03-.02.05,0,0,.03.01.04.02,0-.02.02-.03.02-.05Z"/><path class="c" d="M176.03,189.52s-.03-.01-.04-.02c0,.02-.02.03-.02.05,0-.02,0-.03.02-.05.01,0,.04.01.04.02Z"/><path class="f" d="M174.69,182.96c0,.11,0,.22,0,.33v.28s0,0,0,0c.67-.16,1.44.04,2.02-.49.31-.08.38-.16.34-.24-.03-.05-.1-.11-.17-.16-.04-.03-.07-.05-.1-.08-.06-.05-.1-.11-.07-.16-.03-.03-.07-.05-.09-.09-.17-.25-.33-.5-.49-.75.32-.06.63-.12.95-.18,0-.05,0-.1,0-.14-.75-.27-1.56-.47-2.41-.62,0,.12,0,.25,0,.37,0,.17,0,.34,0,.51,0,.47.01.95.02,1.42Z"/><path class="f" d="M174.68,183.57v-.28c0-.11.01-.22.01-.33,0,.11,0,.22,0,.33,0,.09,0,.18,0,.28h0,0Z"/><path class="f" d="M174.67,180.52h0v.14h0v-.14Z"/><path class="f" d="M174.67,180.66h0c0,.12,0,.25,0,.37,0-.12,0-.25,0-.37Z"/><path class="i" d="M176.95,183.57c.08-.08.15-.16.23-.24-.03-.52-.06-1.03-.1-1.54-.13.22-.25.44-.38.65h0c-.03.05,0,.11.07.16.03.03.07.05.1.08.07.05.14.11.17.16.04.08-.02.16-.34.24.08.16.16.33.24.49h0Z"/><path class="i" d="M176.95,183.57h0c-.08-.16-.16-.33-.24-.49.08.16.16.33.24.49h0Z"/><path class="i" d="M176.71,182.44c-.03.05,0,.11.07.16-.06-.05-.1-.11-.07-.16h0Z"/><path class="g" d="M182.92,197.67c-.29-.09-.57-.25-.86-.25-.43,0-.76-.07-.98-.49-.08-.15-.33-.2-.47-.29.08-.22.17-.47.26-.71-.35-.34-.02-.53.2-.67.23-.15.34-.23.06-.41-1.06.01-2.12.02-3.17.04-.1.06-.2.12-.3.18,0,0,0,0,0,.02,0,0,0,.02,0,.02.01.88.02,1.77.03,2.65.88.02,1.76.04,2.64.06.18,0,.36.06.54.09h0c.24,0,.49,0,.73.01s.49,0,.73-.02c.1,0,.2-.04.29-.09.1-.05.19-.1.29-.14h0Z"/><path class="g" d="M180.88,197.91h0c.24,0,.49,0,.73.01-.24,0-.49,0-.73-.01h0Z"/><path class="g" d="M182.92,197.67c-.1.04-.19.1-.29.14.1-.05.19-.1.29-.14h0Z"/><path class="g" d="M177.67,195.09v.02s0,0,0,0c0,0,0,0,0,0,0,0,0,0,0-.02Z"/><path class="e" d="M180.34,197.82c-.88-.03-1.76-.04-2.64-.06-.02.01-.05.02-.08.03h0c.15.05.3.13.45.13.94,0,1.87,0,2.81,0-.18-.03-.36-.08-.54-.09Z"/><path class="e" d="M178.08,197.91c.94,0,1.87,0,2.81,0h0c-.94,0-1.87.02-2.81,0Z"/><path class="i" d="M177.7,197.76c-.01-.88-.02-1.77-.04-2.65-.03.05-.07.1-.1.15.02.84.04,1.69.06,2.53.03,0,.05-.02.08-.03Z"/><path class="i" d="M177.57,195.25c.02.84.04,1.69.06,2.53h0c-.02-.84-.04-1.69-.06-2.53Z"/><path class="i" d="M177.67,195.1s0,0,0,0c.01.88.02,1.77.04,2.65-.01-.88-.02-1.77-.03-2.65Z"/><path class="i" d="M175.44,188.83c.02.11.19.21.28.31.09-.28.19-.57.29-.87-.62-.08-.62.25-.57.57Z"/><path class="i" d="M176.14,188.87s-.04.03-.04.03c.03.05.06.09.09.14h.01c-.02-.06-.04-.12-.06-.17Z"/><polygon class="i" points="176.18 189.03 176.2 189.02 176.2 189.02 176.18 189.03"/><path class="j" d="M181.14,194.86s0-.07-.01-.11h0c-1.13,0-2.26,0-3.39.01h0s0,.06-.01.09c.08.02.16.03.24.04,1.06-.01,2.12-.02,3.17-.04Z"/><path class="j" d="M181.12,194.75c-1.13,0-2.26,0-3.39.01h0c1.13,0,2.26,0,3.39-.01Z"/><path class="i" d="M177.97,194.89c-.08-.01-.16-.03-.24-.04-.02.07-.03.15-.05.22.1-.06.2-.12.3-.18Z"/><path class="j" d="M105.62,198.04h0c.17.36.34.36.51,0h0,0c-.17,0-.34,0-.51,0,0,0,0,0,0,0Z"/><polygon class="j" points="106.12 198.04 106.12 198.04 106.12 198.04 106.12 198.04"/><polygon class="j" points="106.12 198.04 106.12 198.04 106.12 198.04 106.12 198.04"/><polygon class="j" points="105.62 198.04 105.62 198.04 105.62 198.04 105.62 198.04"/><polygon class="j" points="105.62 198.04 105.62 198.04 105.62 198.04 105.62 198.04"/><path class="e" d="M106.66,198.79h-1.3s-.07.02-.11.02c.04.21.08.41.12.62h0c.08,0,.16,0,.24-.01.1,0,.2,0,.3,0,.03,0,.06,0,.08.01h0c.13,0,.26.01.38.02.45-.02.41-.28.28-.67Z"/><path class="e" d="M105.99,199.43h0c.13,0,.26.01.38.02-.13,0-.26-.01-.38-.02h0Z"/><path class="e" d="M105.25,198.81c.04.21.08.41.12.62h0c-.04-.21-.08-.41-.12-.62Z"/><path class="c" d="M105.42,199.6c.06-.06.12-.12.19-.18-.08,0-.16.01-.24.02.02.05.03.11.05.16Z"/><path class="f" d="M105.91,199.42c0,.11-.01.22-.02.33h.07c.01-.1.02-.21.03-.32-.03-.01-.05-.02-.08-.01Z"/><path class="f" d="M105.96,199.76c.01-.11.02-.22.03-.33h0c-.01.11-.02.22-.03.33Z"/><path class="i" d="M86.81,205.39c-.35,0-.61.01-.81,0-.18-.01-.3-.04-.39-.09l-.15.36c.42,0,.83,0,1.25,0,.03-.09.07-.18.1-.28Z"/><path class="j" d="M86.84,204.34c-.03.35-.02.7-.03,1.05-.03.09-.07.18-.1.28-.42.01-.84.02-1.26.03l-.09.21h.05c.62,0,1.01,0,1.25-.09.24-.09.34-.26.39-.61.03-.23.03-.55.04-.96,0-.08-.02-.15-.02-.23h0c-.08.11-.21.21-.23.32Z"/><path class="j" d="M87.09,204.25c0-.08-.02-.15-.02-.23h0c0,.08.02.15.02.23Z"/><path class="l" d="M108.77,201.06s.04-.01.07-.02c-.04-.01-.06-.02-.08-.03,0,.02,0,.03.01.05Z"/><path class="e" d="M183.93,188.28s0,.08,0,.12c0-.01.02-.02.02-.03,0-.03-.02-.06-.03-.09Z"/><path class="e" d="M183.92,187.86c0-.18,0-.36.02-.53-.02.17-.02.35-.02.53Z"/><path class="e" d="M183.92,187.88c0,.13,0,.26.01.4h0c0-.13-.01-.26-.01-.4Z"/><path class="e" d="M183.94,188.39s0-.08,0-.12h0s0,.08,0,.12h0Z"/><path class="c" d="M183.57,195.5c0,.34,0,.68.01,1.02h0c0,.09.01.19.02.28.09-.23.17-.46.24-.69,0-.06,0-.13,0-.2-.02-.15-.18-.28-.28-.41Z"/><path class="c" d="M183.58,196.52h0c0-.34,0-.68-.01-1.02,0,.34,0,.68.01,1.02h0Z"/><path class="j" d="M132.83,198.96c-.17-.45-1.22-.6-2.13-.29.21.42,1.11.55,2.13.29Z"/><path class="j" d="M129.91,198.62s-.08,0-.12,0v.36h.16c-.01-.13-.02-.25-.03-.37Z"/><path class="e" d="M132.65,194.48h0l-.26-.25s0,0-.01,0c-.09.01-.18.03-.27.04v.1c.18.04.36.08.54.12,0,0,0,0,0,0Z"/><polygon class="e" points="132.66 194.48 132.66 194.48 132.65 194.48 132.66 194.48"/><polygon class="e" points="132.66 194.48 132.66 194.48 132.65 194.48 132.66 194.48"/><path class="e" d="M132.39,194.22s0,0,0,0c0,0,0,0,.01,0h0Z"/><polygon class="e" points="132.66 194.48 132.65 194.48 132.65 194.48 132.66 194.48"/><path class="e" d="M145.39,215.11c0-.06.02-.13.04-.18.19-.44.15-.77-.12-1.12-.12,0-.24-.02-.36-.02,0,.34,0,.68,0,1.02v.31h.44Z"/><path class="c" d="M144.96,215.11v-.31c-.08-.14-.15-.27-.22-.42-.1.25-.19.49-.28.73h.51Z"/><path class="c" d="M144.74,214.37c-.1.25-.19.49-.28.73h0c.09-.24.18-.48.28-.73Z"/><path class="c" d="M144.46,215.11h0c-.04.1-.08.21-.12.31h0c.04-.1.08-.21.12-.31Z"/><path class="k" d="M145.98,214.92c0,.06,0,.13,0,.19h.16c-.05-.06-.1-.12-.15-.19Z"/><path class="e" d="M85.05,206.65l-.24.57c.07.06.15.13.2.17-.05.55-.08.94-.12,1.36-.43,0-.52-.21-.53-.46l-.34.81c.84.03,1.67.07,2.51.08.09,0,.27-.15.27-.22-.01-.84-.05-1.68-.08-2.52-.13.08-.26.22-.39.22-.42.01-.84,0-1.26,0Z"/><path class="e" d="M84.01,209.09c.84.03,1.67.07,2.51.08-.84-.01-1.67-.05-2.51-.08h0Z"/><path class="c" d="M86.31,206.65c.13,0,.26-.15.39-.22-.52,0-1.04,0-1.56,0l-.09.22c.42,0,.84.01,1.26,0Z"/><path class="f" d="M87.39,211.7s-.04.03-.06.04l.02.02s.03-.04.04-.06Z"/><polygon class="f" points="87.33 211.74 87.35 211.76 87.35 211.76 87.33 211.74"/><path class="e" d="M86.32,215.11s0,0,0-.01h-.04s.05.01.05.01Z"/><path class="e" d="M86.31,215.09h-.04s.03,0,.04,0Z"/><path class="e" d="M86.31,215.09s0,0,0,.01h0s0,0,0-.01h0Z"/><path class="e" d="M181.14,194.86c.28.19.17.26-.06.41-.21.13-.54.33-.2.67.17-.02.34-.03.51-.05.31-.08.62-.16.96-.25.03-.17.08-.38.12-.62.3-.02.57-.04.84-.06-.18-.07-.37-.19-.55-.2-.27-.01-.54-.02-.81-.01-.27,0-.54,0-.81,0,0,.04.01.07.01.11Z"/><path class="e" d="M183.31,194.96h0c-.27.02-.54.04-.84.06.3-.02.57-.04.84-.06Z"/><path class="e" d="M182.5,196.39c.06.03.12.06.18.09.08.04.15.07.23.11,0-.12,0-.24,0-.36-.14.01-.28.02-.42.03,0,.04,0,.08,0,.13Z"/><path class="e" d="M182.5,196.39c.06.03.12.06.18.09-.06-.03-.12-.06-.18-.09h0Z"/><path class="f" d="M182.5,196.26s-.04.03-.04.04c0,.03.03.06.05.09h0s0-.08,0-.13Z"/><path class="e" d="M177.08,181.78c0-.12,0-.24,0-.36h0c-.32.06-.63.12-.95.18.16.25.33.5.49.75.02.03.06.06.09.09.13-.22.25-.44.38-.65Z"/><path class="e" d="M177.08,181.78c0-.12,0-.24,0-.36h0c0,.12,0,.24,0,.36Z"/><path class="c" d="M86.71,205.67c-.41,0-.83,0-1.25,0l-.02.04c.42-.01.84-.02,1.26-.03Z"/><path class="c" d="M85.45,205.7c.42-.01.84-.02,1.26-.03-.42.01-.84.02-1.26.03h0Z"/></svg>