<?xml version="1.0" encoding="UTF-8"?><svg id="a" xmlns="http://www.w3.org/2000/svg" width="400" height="400" viewBox="0 0 400 400"><defs><style>.b{fill:#3d3935;}</style></defs><path class="b" d="M255.52,199.68c-.42-1.12-1.02-2.09-1.81-2.91-.79-.82-1.74-1.45-2.87-1.91-1.13-.46-2.4-.68-3.8-.68-1.96,0-3.8.3-5.51.91-1.71.61-3.27,1.53-4.68,2.77l1.26,2.18c.19.34.46.63.8.86.34.23.74.35,1.22.35.54,0,1-.09,1.39-.27.39-.18.79-.38,1.2-.61.41-.22.88-.43,1.4-.61.52-.18,1.2-.27,2.02-.27,1.03,0,1.83.31,2.39.92.56.61.84,1.6.84,2.98-2.66,0-4.87.26-6.62.79-1.75.52-3.14,1.18-4.17,1.95-1.03.78-1.76,1.64-2.18,2.59-.42.95-.63,1.88-.63,2.78,0,1.15.16,2.16.49,3.04.33.88.8,1.61,1.4,2.2.61.59,1.34,1.04,2.21,1.34.87.3,1.83.46,2.9.46.79,0,1.51-.07,2.16-.21.65-.14,1.26-.35,1.84-.64.58-.29,1.13-.63,1.67-1.04.54-.41,1.1-.88,1.68-1.42l.49,1.28c.22.57.5.94.84,1.12.34.18.83.27,1.49.27h3.19v-14.54c0-1.33-.21-2.56-.63-3.68ZM249.37,211.2c-.69.81-1.37,1.4-2.04,1.77-.67.36-1.46.54-2.36.54-.84,0-1.47-.19-1.91-.56-.43-.38-.65-1.03-.65-1.95,0-.47.1-.91.3-1.31.2-.4.57-.76,1.09-1.07.52-.31,1.24-.58,2.13-.79.9-.21,2.04-.31,3.43-.31v3.69Z"/><path class="b" d="M300.45,207.4c.2-.07.36-.21.48-.4.12-.19.2-.46.25-.79.04-.33.07-.75.07-1.28,0-1.68-.26-3.18-.77-4.5-.52-1.32-1.23-2.44-2.15-3.35-.92-.91-2.02-1.61-3.3-2.09-1.28-.48-2.69-.72-4.23-.72-1.78,0-3.38.31-4.79.92-1.41.61-2.62,1.44-3.61,2.49-.99,1.05-1.76,2.27-2.29,3.66-.53,1.39-.8,2.87-.8,4.42,0,2.06.31,3.88.93,5.43.62,1.56,1.47,2.86,2.54,3.9,1.07,1.05,2.32,1.84,3.75,2.37,1.43.53,2.96.8,4.59.8.79,0,1.63-.06,2.5-.17.88-.11,1.75-.31,2.63-.61.88-.29,1.73-.7,2.56-1.21.83-.52,1.6-1.19,2.32-2.01l-2.02-2.49c-.28-.4-.7-.61-1.26-.61-.42,0-.82.1-1.2.29-.38.19-.8.41-1.26.65-.46.24-.98.46-1.56.65-.58.19-1.28.29-2.09.29-1.51,0-2.74-.44-3.7-1.31-.96-.88-1.55-2.29-1.77-4.23h13.42c.31,0,.57-.04.77-.11ZM286.33,203.47c.24-1.42.73-2.51,1.48-3.26.75-.75,1.79-1.13,3.12-1.13.75,0,1.38.13,1.91.38.52.25.95.59,1.27,1,.32.41.55.88.7,1.4.14.52.21,1.06.21,1.62h-8.68Z"/><path class="b" d="M230.61,211.17c-.42,0-.77.11-1.04.31-.28.21-.58.44-.91.68-.33.25-.73.47-1.2.67-.47.2-1.11.3-1.92.3-1.51,0-2.7-.6-3.56-1.8-.86-1.2-1.29-2.91-1.29-5.14,0-1.06.1-2.02.29-2.86.19-.85.49-1.56.9-2.14.4-.58.92-1.03,1.54-1.35.62-.31,1.36-.47,2.21-.47.69,0,1.26.08,1.73.25.46.17.87.35,1.21.55.34.2.65.39.93.55.28.17.59.25.93.25s.64-.08.83-.22c.19-.15.4-.35.61-.61l1.84-2.45c-1.11-1.12-2.35-1.98-3.73-2.56-1.38-.58-2.98-.87-4.8-.87s-3.57.31-5.02.92c-1.44.61-2.66,1.45-3.63,2.52-.98,1.07-1.72,2.33-2.22,3.79-.5,1.46-.75,3.03-.75,4.7,0,1.91.29,3.62.86,5.12.58,1.5,1.35,2.76,2.33,3.78s2.12,1.81,3.41,2.34c1.29.54,2.65.81,4.07.81.79,0,1.61-.06,2.45-.17s1.67-.31,2.5-.61c.83-.29,1.64-.7,2.43-1.21.79-.52,1.55-1.19,2.27-2.01l-2.02-2.49c-.28-.4-.7-.61-1.26-.61Z"/><path class="b" d="M275.33,206.2c-.51-.47-1.09-.87-1.73-1.19-.64-.32-1.3-.6-1.98-.84-.67-.24-1.33-.46-1.97-.65-.64-.19-1.22-.4-1.73-.62-.51-.22-.92-.47-1.22-.75s-.46-.64-.46-1.08c0-.6.24-1.07.71-1.4.47-.34,1.15-.5,2.03-.5.61,0,1.16.07,1.64.21.48.14.91.3,1.29.46.38.16.74.32,1.07.46.33.14.66.21.99.21s.57-.06.77-.18c.2-.12.39-.32.57-.61l1.57-2.45c-.43-.43-.93-.83-1.5-1.2-.57-.37-1.2-.68-1.88-.95-.69-.27-1.42-.48-2.21-.63-.78-.15-1.6-.22-2.43-.22-1.54,0-2.89.2-4.04.59-1.15.4-2.11.93-2.87,1.61-.76.67-1.34,1.46-1.72,2.34-.38.89-.57,1.83-.57,2.82,0,1.06.16,1.97.47,2.72.31.75.73,1.38,1.23,1.9.51.52,1.09.94,1.74,1.28.65.34,1.31.63,1.99.86.67.24,1.34.45,1.99.64.65.19,1.23.39,1.74.61s.92.48,1.23.77c.31.3.47.68.47,1.14,0,.25-.05.5-.16.74-.11.24-.27.46-.49.65-.22.19-.52.35-.9.46-.37.11-.83.17-1.37.17-.76,0-1.39-.09-1.9-.27-.5-.18-.94-.37-1.31-.58-.37-.21-.72-.4-1.04-.58-.32-.18-.68-.27-1.09-.27-.43,0-.79.09-1.05.26-.27.17-.5.41-.7.71l-1.62,2.56c.45.4.99.78,1.62,1.13.63.35,1.31.65,2.05.91.74.26,1.51.46,2.3.61.79.15,1.59.23,2.38.23,1.58,0,2.99-.19,4.21-.58,1.22-.39,2.24-.94,3.07-1.64.83-.7,1.46-1.54,1.87-2.51.42-.97.63-2.03.63-3.19,0-.94-.15-1.75-.46-2.42-.31-.67-.71-1.25-1.22-1.72Z"/><path class="b" d="M112.89,198.49c-.63.57-1.27,1.01-1.94,1.32-.67.31-1.38.47-2.14.47-1.02,0-1.79-.31-2.31-.94-.52-.63-.79-1.52-.79-2.67v-14.77h-6.96v14.77c0,1.29.17,2.47.52,3.55s.85,2.01,1.53,2.81c.67.79,1.5,1.41,2.48,1.85.98.44,2.11.66,3.38.66.75,0,1.44-.07,2.06-.21.63-.14,1.22-.34,1.76-.58.55-.25,1.06-.55,1.54-.9.48-.35.94-.74,1.39-1.18l.43,1.35c.27.78.84,1.17,1.71,1.17h4.31v-23.27h-6.96v16.58Z"/><path class="b" d="M215.19,187.34l.9-5.12c-.64-.51-1.5-.76-2.56-.76-1.26,0-2.42.38-3.48,1.14-1.06.76-2.02,1.8-2.87,3.12l-.38-2.18c-.06-.3-.13-.55-.21-.76-.08-.21-.2-.38-.36-.5-.16-.13-.35-.22-.58-.28-.23-.06-.52-.09-.86-.09h-4.13v23.27h6.96v-11.23c0-.93.08-1.76.25-2.5.17-.74.43-1.36.78-1.87.35-.51.8-.9,1.34-1.18.54-.27,1.19-.41,1.93-.41.52,0,.96.03,1.3.1.34.07.64.1.9.1.3,0,.54-.06.72-.19.18-.13.3-.35.36-.66Z"/><path class="b" d="M196.14,194.68c.2-.07.36-.21.48-.4.12-.19.2-.46.25-.79.04-.33.07-.75.07-1.28,0-1.68-.26-3.18-.77-4.5-.52-1.32-1.23-2.44-2.15-3.35-.92-.91-2.02-1.61-3.3-2.09-1.28-.48-2.69-.72-4.23-.72-1.78,0-3.38.31-4.79.92-1.41.61-2.62,1.44-3.61,2.49-.99,1.05-1.76,2.27-2.29,3.66-.53,1.39-.8,2.87-.8,4.42,0,2.06.31,3.88.93,5.43.62,1.56,1.47,2.86,2.54,3.9,1.07,1.05,2.32,1.84,3.75,2.37,1.43.53,2.96.8,4.59.8.79,0,1.63-.06,2.5-.17.88-.11,1.75-.31,2.63-.61.88-.29,1.73-.7,2.56-1.21.83-.52,1.6-1.19,2.32-2.01l-2.02-2.49c-.28-.4-.7-.61-1.26-.61-.42,0-.82.1-1.2.29-.38.19-.8.41-1.26.65-.46.24-.98.46-1.56.65-.58.19-1.28.29-2.09.29-1.51,0-2.74-.44-3.7-1.31-.96-.88-1.55-2.29-1.77-4.23h13.42c.31,0,.57-.04.77-.11ZM182.01,190.75c.24-1.42.73-2.51,1.48-3.26.75-.75,1.79-1.13,3.12-1.13.75,0,1.38.13,1.91.38.52.25.95.59,1.27,1,.32.41.55.88.7,1.4.14.52.21,1.06.21,1.62h-8.68Z"/><path class="b" d="M171.57,188.34c-.43-1.47-1.01-2.72-1.76-3.74-.75-1.02-1.64-1.79-2.67-2.33s-2.15-.81-3.37-.81c-.81,0-1.55.08-2.23.25-.68.16-1.32.39-1.91.68-.59.29-1.14.64-1.66,1.04-.52.4-1,.85-1.45,1.35l-.52-1.71c-.12-.39-.33-.68-.62-.88-.29-.19-.65-.29-1.09-.29h-4.31v36h4.59c.46,0,.85-.1,1.16-.31.31-.21.53-.52.66-.93l.36-1.2c.12-.41.19-.83.19-1.25v-10.58c.67.58,1.42,1.05,2.25,1.39.82.34,1.84.52,3.05.52,1.48,0,2.83-.31,4.05-.92,1.22-.61,2.27-1.47,3.14-2.56.87-1.09,1.56-2.38,2.04-3.86.49-1.48.73-3.1.73-4.85,0-1.87-.21-3.54-.64-5.02ZM164.69,196.63c-.22.9-.54,1.63-.93,2.19-.4.56-.86.97-1.4,1.22-.54.25-1.13.38-1.77.38s-1.32-.12-1.93-.35c-.61-.23-1.18-.64-1.71-1.22v-9.87c.3-.36.6-.68.9-.95.3-.28.62-.5.98-.68.35-.18.73-.32,1.14-.41.41-.1.87-.15,1.38-.15.55,0,1.05.11,1.5.34.45.22.83.59,1.16,1.11.32.52.57,1.19.75,2.03.18.84.27,1.87.27,3.1,0,1.29-.11,2.38-.34,3.28Z"/><path class="b" d="M144.21,184.6c-.75-1.02-1.64-1.79-2.67-2.33-1.03-.54-2.15-.81-3.37-.81-.81,0-1.55.08-2.23.25-.68.16-1.32.39-1.91.68-.59.29-1.14.64-1.66,1.04-.52.4-1,.85-1.45,1.35l-.52-1.71c-.12-.39-.33-.68-.62-.88-.29-.19-.65-.29-1.09-.29h-4.31v36h4.59c.46,0,.85-.1,1.16-.31.31-.21.53-.52.66-.93l.36-1.2c.12-.41.19-.83.19-1.25v-10.58c.68.58,1.42,1.05,2.25,1.39.82.34,1.84.52,3.05.52,1.48,0,2.83-.31,4.05-.92,1.22-.61,2.27-1.47,3.14-2.56.88-1.09,1.56-2.38,2.04-3.86.49-1.48.73-3.1.73-4.85,0-1.87-.21-3.54-.64-5.02-.43-1.47-1.01-2.72-1.76-3.74ZM139.1,196.63c-.22.9-.53,1.63-.93,2.19-.4.56-.86.97-1.4,1.22-.54.25-1.13.38-1.77.38s-1.32-.12-1.93-.35c-.61-.23-1.18-.64-1.71-1.22v-9.87c.3-.36.6-.68.9-.95.3-.28.62-.5.98-.68.35-.18.73-.32,1.14-.41.41-.1.87-.15,1.38-.15.55,0,1.05.11,1.5.34.45.22.83.59,1.16,1.11.32.52.57,1.19.75,2.03.18.84.27,1.87.27,3.1,0,1.29-.11,2.38-.34,3.28Z"/></svg>