<?xml version="1.0" encoding="UTF-8"?><svg id="a" xmlns="http://www.w3.org/2000/svg" width="400" height="400" viewBox="0 0 400 400"><defs><style>.b{fill:#010101;}.c{fill:#ffc628;}</style></defs><path class="b" d="M212.73,170.22c-.1-.11-.31-.15-.58-.15-.57,0-1.37.18-1.65.22-2.18.34-4.31,1.12-6.48,1.57-2.62.54-5.45,1.42-8.23,1.46-.04,0-.08,0-.12,0-2.03,0-4.86-.79-7.96-.81h-.12c-3.41,0-7.6.82-9.15.82-.05,0-.1,0-.15,0-2.82-.12-5.56-.9-8.31-1.47-2.17-.45-4.3-1.23-6.48-1.57-.28-.04-1.08-.22-1.65-.22-.27,0-.48.04-.58.15-.59.67.93,1.45,1.33,1.96,2.21,2.86,2.53,6.42,2.91,9.81.76,6.93-.16,14.85,4.43,20.78,2.48,3.21,5.42,5.82,7.37,9.44.44.81,1.4,1.89,2.02,2.54.63.67,1.26.93,1.96,1.58,1.08.99,1.68,1.96,2.69,2.7.42.31,1.68.76,3.25.76s2.53-.53,2.99-.89c.91-.72,1.51-1.64,2.52-2.57.7-.65,1.3-.94,1.96-1.58.65-.63,1.58-1.73,2.02-2.54,1.96-3.62,4.89-6.23,7.38-9.44,4.59-5.93,3.67-13.85,4.43-20.78.37-3.39.7-6.96,2.91-9.81.4-.51,1.92-1.29,1.33-1.96Z"/><path class="b" d="M141.4,195.46c0-9.51,3.05-12.56,12.56-12.56h9.77c-.02-.23-.03-.48-.06-.71l-.03-.32c-.35-3.18-.68-6.19-2.48-8.55-.06-.05-.19-.16-.28-.24-.43-.35-1.03-.84-1.35-1.53h-7.92c-16.08,0-23.9,7.82-23.9,23.9s7.82,23.9,23.9,23.9h15.72v-11.34h-13.37c-9.51,0-12.56-3.05-12.56-12.56Z"/><path class="b" d="M261.5,200.28h-9.81c.35-3.19,1.91-4.49,5.37-4.49h14.16v-7.2h-13.07c-10.18,0-15.34,5.3-15.34,15.75s5.34,15.75,15.43,15.75,14.61-3.58,14.61-10.62c0-6.09-3.82-9.17-11.35-9.17ZM258.87,213.02c-4.75,0-6.9-1.64-7.19-5.5v-.13s8.55,0,8.55,0c3.44,0,3.88,1.44,3.88,2.7,0,1.45-.62,2.93-5.24,2.93Z"/><path class="b" d="M245.36,171.56h-30.91c-.32.69-.92,1.18-1.35,1.53-.09.07-.23.18-.28.24-1.8,2.36-2.13,5.37-2.47,8.55l-.03.32c-.03.23-.04.47-.06.71h7.42v36.46h13.14v-36.46h14.56v-11.34Z"/><path class="c" d="M183.15,199.51c-.24.03-.4.23-.55.42-.24.3-.47.64-.79.87-.51.36-1.13.62-1.76.62-1.67,0-3.17-.71-4.22-2.01-.27-.33-.48-.73-.69-1.1-.23-.43-.2-.87-.32-1.32-.1-.38-.14-.79-.12-1.18.02-.36.24-1.17-.32-1.11,2.1.22,4.11.36,5.76,1.75,1.19,1,3.32,2.87,3.61,4.43"/><path class="b" d="M177.85,195.29c.26,1.28.16,3.44,1.48,4.83.62-.76.54-2.4.64-3.4,0-.04-.25-.3-.28-.33-.18-.15-.32-.26-.48-.39-.2-.15-.41-.32-.64-.42-.3-.13-.42-.18-.72-.3"/><path class="b" d="M179.3,196.03c-.02-.18-.04-.23-.05-.14,0,.02,0,.04,0,.06-.01.02.03.05.02.07,0,.01.07-.02.06-.08-.02-.32-.17.1-.04.1"/><path class="c" d="M174.41,194.99s.08,0,.12.01c.18.05.14.26.12.46-.03.22-.04.43-.04.65,0,.6.15,1.24.28,1.83.25,1.12,1.15,2.19,2.09,2.82.97.64,2.07.95,3.23.86.62-.05,1.28-.28,1.75-.7.2-.18.37-.39.54-.61.18-.23.32-.48.58-.6.28.4.51.83.62,1.29.07.29.2-.09.18-.22-.16-.89-.71-1.65-1.29-2.32-.64-.73-1.35-1.39-2.09-2.02-.81-.69-1.69-1.2-2.72-1.49-1.05-.29-2.14-.39-3.22-.5-.04-.01-.09-.02-.14-.01-.18,0-.19.55-.01.57M174.91,195.05c1.93.21,3.82.49,5.36,1.8.7.6,1.4,1.22,2.02,1.9.21.23.43.48.63.74-.41.24-.62.77-1,1.06-.51.39-1.19.72-1.84.69-1.17-.05-2.4-.48-3.32-1.22-.54-.44-.98-.95-1.32-1.56-.21-.38-.33-.71-.4-1.13-.05-.33-.15-.66-.18-.99-.04-.43.08-.86.04-1.29"/><path class="c" d="M190.83,199.51c.24.03.4.23.55.42.24.3.47.64.79.87.51.36,1.13.62,1.76.62,1.67,0,3.17-.71,4.22-2.01.27-.33.48-.73.69-1.1.23-.43.2-.87.32-1.32.1-.38.14-.79.12-1.18-.02-.36-.24-1.17.32-1.11-2.1.22-4.11.36-5.76,1.75-1.19,1-3.32,2.87-3.61,4.43"/><path class="b" d="M196.13,195.29c-.26,1.28-.16,3.44-1.48,4.83-.62-.76-.54-2.4-.64-3.4,0-.04.25-.3.28-.33.18-.15.32-.26.48-.39.2-.15.41-.32.64-.42.3-.13.42-.18.72-.3"/><path class="b" d="M194.68,196.03c-.02-.18-.04-.23-.05-.14,0,.02,0,.04,0,.06-.01.02.03.05.02.07,0,.01.07-.02.06-.08-.02-.32-.17.1-.04.1"/><path class="c" d="M199.56,194.42c-.05,0-.1,0-.14.01-1.08.11-2.16.22-3.22.5-1.03.28-1.91.79-2.72,1.49-.74.63-1.45,1.29-2.09,2.02-.58.67-1.12,1.43-1.29,2.32-.03.14.11.51.18.22.1-.46.34-.89.62-1.29.26.12.4.37.58.6.17.22.34.42.54.61.47.42,1.13.66,1.75.71,1.16.09,2.26-.22,3.23-.86.94-.63,1.84-1.7,2.09-2.82.13-.59.27-1.22.28-1.83,0-.22-.01-.43-.04-.65-.02-.2-.07-.41.12-.46.04,0,.08,0,.12-.01.18-.02.16-.57-.01-.57M199.11,196.34c-.03.33-.13.66-.18.99-.07.42-.19.76-.4,1.13-.34.61-.78,1.12-1.32,1.56-.91.74-2.15,1.17-3.32,1.22-.65.03-1.33-.3-1.84-.69-.37-.29-.59-.81-1-1.06.2-.26.42-.51.63-.75.62-.69,1.31-1.3,2.02-1.9,1.54-1.31,3.43-1.59,5.36-1.8-.04.43.08.86.04,1.29"/></svg>