<?xml version="1.0" encoding="UTF-8"?><svg id="a" xmlns="http://www.w3.org/2000/svg" width="400" height="400" viewBox="0 0 400 400"><defs><style>.b{fill:#3f3e29;}</style></defs><path class="b" d="M270.77,171.82c-.62-.44,2.55,3.96-.89,6.82-2.92,2.43-11.46,3.04-11.71,2.63-.26-.41,7.77-5.39,10.93-13.74,1.44-3.79,2.45-11.81,1.8-10.86-.65.95-2.51,8.77-8.46,15.49-1.41,1.59-8.27,7.81-11.72,9.47-3.45,1.65-8.27.75-12.77.9-4.51.15-3.3-4.06-1.5-9.62,1.8-5.56,10.88-12.5,15.18-18.33,4.3-5.82,5.56-16.23,5.86-18.48.3-2.25-.43-2.7-.61-2.1-.91,3.1-1.36,5.39-3.82,10.95-2.61,5.91-5.79,8.73-9.7,13.24-3.9,4.51-5.86,5.56-8.41,4.96-2.56-.6-2.91-7.07-3.15-9.76-.24-2.65-.6-13.22-.75-17.73-.15-4.51-1.2-13.67-1.35-15.02-.15-1.35-1.2-4.62-1.5-1.35-.17,1.82-.14,9.74-.45,15.18-.33,5.82.15,10.67.3,16.52.15,5.86,1.95,13.67,1.95,17.43s.15,6.46-1.05,10.52c-1.2,4.06-4.81,5.11-6.91,6.31-2.1,1.2-4.21,1.96-3.91,1.05.3-.9.3-5.41.6-6.46.3-1.05,1.5-1.35.9-1.95-3.31.3-3,2.85-3.91,4.81-.9,1.95-.6,4.35-1.35,6.01-.75,1.65-1.65,3.31-1.65,3.31,0,0-1.95-.3-4.51-.45-2.55-.15-7.51-5.56-7.51-5.56.15-2.71-2.59-12.82-2.25-14.44.4-1.88-1.5-1.79-2.4-1.48-.9.3-1.96,1.65-2.55,3.75,0,0-.59,1.64-1.41,4.18-5.34-3.14-4.72-8.39-3.22-10.18,1.5-1.8,6.01-3,14.43-5.26,8.41-2.25,12.61-6.17,14.27-7.81,2.05-2.03,4.42-6.72,4.24-7.25-.18-.53-3.2,3.1-7.41,6.1-4.21,3-7.35,3.44-10.37,3.79-3.46.41-.44-8.5.91-11.81,1.35-3.31,4.51-9.77,6.01-12.32,1.5-2.55-.5-1.5-1.95-.15-.8.75-4.66,6.76-5.41,8.41-.75,1.65-4.06,10.22-4.51,12.32-.45,2.1-1.2,3.46-2.4,4.66-1.2,1.2-5.11,2.25-7.51,3.15-2.4.9-3.16.9-5.41-1.5-2.25-2.4-4.09-8.87-5.14-13.68-1.05-4.8-.6-10.51.75-17.42,1.35-6.91,2.8-11,4.67-14.03,1.91-3.09,5.58-6.59,5.88-7.04.3-.45,2.64-2.77-.21-1.12-2.85,1.65-4.33,2.23-7.34,5.81-3.83,4.56-8.06,16.92-8.71,16.83-.66-.09-1.88-8.25-1.02-13.17,1.35-7.76,4.84-10.18,7.27-12.69,2.62-2.71,4.42-4.94,3.97-5.08-.45-.15-2.85,1.2-5.26,3.01-2.4,1.8-8.11,6.31-9.92,13.97-1.8,7.66.15,17.58,1.65,22.23,1.5,4.66,3.9,12.92,6.61,20.58,2.7,7.67,3.75,9.77,5.11,14.12,1.35,4.36,1.2,4.36,3.76,6.76,1.92,1.81,3.84,3.36,4.68,4.02-1.09,3.89-2.19,8.42-2.73,12.51-.6,3.31.6,6.46.6,6.46-4.21,2.1-7.96,6.01-10.66,10.22-2.71,4.21-6.76,10.52-7.21,11.12-.45.61-2.46-.13-3.13-.18-1.65-.13-3.43.06-5.15.31-1.64.23-2.41.92-3.97,2.48-1.71,1.71-4.13,1.61-6.09,3.42-1.95,1.8-8.11,13.82-9.77,20.89-1.65,7.06,1.3,12.08,1.61,14.03.3,1.95-.1,4.14-.55,5.65-.45,1.5.9,4.36,2.4,7.06,1.5,2.7,3.3,5.41,5.56,7.51,2.25,2.11,4.96,2.25,9.01,3.76,4.06,1.5,2.1,4.96,3.46,6.46,1.35,1.5,5.37,1.81,5.37,1.81,0,0,2.44,0,3.79.59,1.35.6,3.31.45,5.86-.45,2.55-.9,7.31-6.75,9.17-10.67.34-.73,2.4-1.05,3.45-1.35,1.05-.3,4.21-.9,4.96-1.35.75-.45,3.61-5.71,5.11-10.06,1.5-4.36,1.35-16.23,1.35-16.23,0,0,4.81-5.41,7.06-9.47,2.25-4.06,4.96-13.07,5.71-15.47.75-2.41,1.5-3.16,3.91-3.91,2.4-.75,10.97-1.5,13.07-1.05,2.1.45,5.45.4,7.06-.3,1.81-.79,1.65-1.22,1.65-1.22,0,0-.24-.28.68-.53,1.07-.29,2.46-2.44,3.2-3.98.76-1.58.47-4.63-1.03-6.29-1.5-1.65-11.15-10.08-12.47-10.97-1.32-.88-3.63-1.94-5.28-3.19-1.43-1.09-4.83-3.71-5.96-6.07-1.12-2.36,2.18-3.77,4.25-5.72,2.07-1.95,6.19-1.77,8.67-1.59,2.48.18,7.93.2,7.93.2,0,0,9.62-.75,16.38-1.8,6.76-1.05,13.58-4.01,15.08-6.86.93-1.76-.36-5.94-2.08-7.15ZM212.74,205.05c-2.7-.05-3.29-2.67-3.29-2.67,0,0,1.87-1.56,5.65-.52,3.79,1.03,3.27,2.89,3.53,5.83-1.58-3.73-3.19-2.6-5.89-2.65Z"/><path class="b" d="M192.06,290.35v-1.07h.71c.38,0,.82.06.82.49,0,.52-.4.57-.84.57h-.69ZM192.06,290.86h.57l.96,1.53h.69l-1.04-1.58c.56-.06.97-.33.97-.99,0-.75-.46-1.04-1.35-1.04h-1.4v3.61h.62v-1.53ZM195.98,290.53c0-1.98-1.51-3.27-3.28-3.27s-3.28,1.29-3.28,3.27c0,1.85,1.38,3.28,3.28,3.28,1.77,0,3.28-1.31,3.28-3.28ZM195.26,290.53c0,1.6-1.12,2.7-2.56,2.7-1.58,0-2.56-1.22-2.56-2.7,0-1.6,1.13-2.71,2.56-2.71s2.56,1.12,2.56,2.71Z"/></svg>