<?xml version="1.0" encoding="UTF-8"?><svg id="a" xmlns="http://www.w3.org/2000/svg" width="400" height="400" viewBox="0 0 400 400"><defs><style>.b{fill:#4e6438;}.c{fill:#9cae53;}</style></defs><path class="c" d="M191.81,163.18c-.27,3.96-1.5,10.91-3,16.23l-7.5,26.6c-.54,1.78-1.36,5.6-2.46,10.92l-1.7,6.02-1.71-6.02c-1.09-5.32-1.91-9.14-2.46-10.92l-7.5-26.6c-1.5-5.32-2.73-12.28-3-16.23h-20.19c1.91,5.05,3.82,10.64,5.73,16.92l15.01,48.43c2.18,6.96,2.73,9,3.55,12.96h21.15c.68-3.82,1.36-6.41,3.41-12.96l15.14-48.43c3.55-11.32,3.82-12.41,5.59-16.92h-20.05"/><path class="b" d="M235.6,163.18c-.27,3.96-1.5,10.91-3,16.23l-7.5,26.6c-.54,1.78-1.36,5.6-2.46,10.92l-1.7,6.02-1.71-6.02c-1.09-5.32-1.91-9.14-2.46-10.92l-4.63-16.43-8.73,27.94,3.41,11c2.18,6.96,2.73,9,3.55,12.96h21.15c.68-3.82,1.36-6.41,3.41-12.96l15.14-48.43c3.55-11.32,3.82-12.41,5.59-16.92h-20.05Z"/></svg>