<?xml version="1.0" encoding="UTF-8"?><svg id="a" xmlns="http://www.w3.org/2000/svg" width="400" height="400" viewBox="0 0 400 400"><path d="M192.52,211.46c0-.55-.09-1.55-.63-2.4-.54-.85-1.53-1.59-3.45-1.59h-1.28c-.06,0-.12.02-.17.07-.04.04-.07.11-.07.17v7.75c0,.06.03.12.07.17.04.04.1.07.17.07h1.68c1.64,0,2.53-.65,3.04-1.48l-.2-.13h0l.2.12c.51-.84.64-1.9.64-2.71h0s0-.01,0-.01h0,0v-.02ZM217.2,176.02c-1.18,0-2.67.39-3.86,1.61-1.19,1.22-2.12,3.3-2.12,6.74s.93,5.52,2.12,6.74c1.19,1.22,2.68,1.61,3.86,1.61s2.66-.39,3.86-1.61c1.19-1.22,2.12-3.3,2.12-6.74,0-3.44-.93-5.51-2.12-6.74-1.2-1.22-2.68-1.61-3.86-1.61M264.37,199.99c0,.06-.03.12-.07.16-.04.05-.11.07-.17.07h-9.37c-.08,0-.16-.05-.21-.12l-8.79-15.66c-.05-.09-.16-.14-.27-.11-.1.03-.18.12-.18.23v15.43c0,.06-.02.12-.07.17-.04.04-.1.07-.17.07h-9.11c-.06,0-.13-.03-.17-.07-.04-.04-.07-.11-.07-.17v-31.26c0-.06.03-.12.07-.17.04-.04.11-.07.17-.07h9.85c.09,0,.16.05.21.12l8.31,15.26c.05.09.16.14.26.12.1-.03.18-.12.18-.23v-15.04c0-.06.03-.12.07-.17.04-.04.1-.07.17-.07h9.11c.06,0,.12.03.17.07.04.04.07.11.07.17v31.26ZM233.28,184.37h0c0,4.82-1.61,8.98-4.43,11.92l.17.16-.17-.16c-2.82,2.95-6.85,4.68-11.65,4.68h-.02c-4.8,0-8.83-1.73-11.65-4.68-2.82-2.94-4.42-7.09-4.43-11.9,0-.01,0-.02,0-.02h0s0,0,0,0h0s0-.01,0-.01c0-4.82,1.61-8.98,4.43-11.92,2.82-2.95,6.85-4.68,11.65-4.68h0s.02,0,.02,0h0c4.8,0,8.83,1.73,11.65,4.68,2.82,2.95,4.43,7.1,4.43,11.92,0,0,0,0,0,.01M225.25,220.49c0,.06-.03.12-.07.17-.04.04-.11.07-.16.07h-5.34c-.08,0-.17-.05-.21-.12l-4.64-8.26c-.05-.09-.16-.14-.26-.11-.1.03-.18.12-.18.23v8.03c0,.06-.03.12-.07.17-.04.04-.11.07-.17.07h-5.19c-.06,0-.12-.03-.17-.07-.04-.04-.07-.11-.07-.17v-17.83c0-.06.03-.12.07-.17.04-.04.1-.07.17-.07h5.62c.09,0,.16.05.21.12l4.36,8.01c.05.09.16.14.26.12.1-.03.18-.12.18-.23v-7.78c0-.06.03-.13.07-.17.04-.04.11-.07.17-.07h5.19c.06,0,.12.03.17.07.04.04.07.11.07.17v17.83ZM206.35,220.49c0,.06-.03.12-.07.17-.04.04-.1.07-.17.07h-5.49c-.06,0-.12-.03-.17-.07-.05-.04-.07-.1-.07-.16v-17.83c0-.06.03-.12.07-.16.04-.04.1-.07.16-.07h5.5c.06,0,.12.03.17.07.04.04.07.11.07.17v17.83ZM198.82,190c0,4.12-1.94,6.91-4.73,8.6l.12.2-.12-.2c-2.8,1.71-6.45,2.37-9.96,2.37-1.8,0-5.24-.32-8.28-1.91-3.04-1.58-5.67-4.5-5.7-9.57h0s0,0,0,0c0-.06.02-.12.07-.17.05-.05.1-.07.17-.07h9.63c.06,0,.12.02.17.07.05.05.07.1.07.17,0,.76.13,1.44.34,1.98.32.87.96,1.39,1.75,1.7.8.32,1.74.42,2.62.42t.01,0c.76,0,1.72-.13,2.46-.53.74-.39,1.27-1.02,1.27-2.08,0-.71-.26-1.14-1.21-1.62-.98-.49-2.67-.99-5.36-1.75-2.47-.7-5.14-1.39-7.22-2.72-2.07-1.32-3.55-3.33-3.55-6.52,0-.02,0-.03,0-.04,0-.02,0-.03,0-.03,0-3.67,1.59-6.33,3.99-8.04,2.4-1.72,5.6-2.5,8.85-2.5,3.42,0,6.66.65,9.1,2.28,2.44,1.63,4.05,4.28,4.18,8.14h0c0,.07-.02.13-.07.17-.04.05-.11.07-.17.07h-9.11c-.07,0-.13-.03-.18-.08-.04-.04-.06-.1-.06-.15,0-.01,0-.02,0-.03.02-.15.03-.29.03-.42,0-.85-.43-1.43-1.08-1.87-.72-.52-1.76-.74-2.68-.74,0,0-.02,0-.03,0,0,0,0,0-.01,0-.64,0-1.46.09-2.11.38-.64.28-1.09.73-1.09,1.47v.03c.05.46.31.84.77,1.18.48.35,1.17.66,2.01.93,1.67.55,3.89.97,6.11,1.59,2.22.62,4.45,1.45,6.15,2.87,1.69,1.41,2.82,3.44,2.82,6.35,0,0,0,.02,0,.04v.02ZM166.95,199.99c0,.06-.02.12-.07.17-.04.05-.1.07-.17.07h-9.63c-.06,0-.12-.03-.17-.07-.04-.04-.07-.11-.07-.17v-31.26c0-.06.03-.12.07-.17.04-.04.11-.07.17-.07h9.63c.06,0,.12.03.17.07.04.04.07.11.07.17v31.26ZM274.51,181.69c.01-.06.02-.12.02-.17,0-.26-.09-.47-.12-.59.02-.22.03-.44.05-.66v-.06c-.06-.35-.17-.7-.22-1.05-.03-.2-.05-.4-.05-.59,0-.23.03-.44.08-.61.02-.1.19-.32.2-.64,0-.04,0-.08,0-.12v-.05c-.1-.23-.19-.46-.28-.69.07-.11.15-.26.15-.46,0-.06,0-.12-.02-.18-.09-.31-.32-.42-.37-.51-.4-.5-.85-.95-.97-1.55-.01-.06-.02-.14-.02-.23,0-.28.06-.65.06-.98,0-.23-.01-.48-.25-.66-.12-.08-.24-.12-.37-.12-.22.02-.39.12-.51.22-.01-.1-.04-.19-.07-.29-.07-.22-.34-.41-.65-.4,0,0-.02,0-.03,0-.08,0-.15,0-.2,0,0-.07,0-.15,0-.23,0-.32.04-.7.04-1.07,0-.15,0-.31-.03-.46-.03-.49-.07-.99-.11-1.5-.08-.41-.22-.75-.3-1.03-.03-.25-.06-.5-.09-.75-.1-.49-.26-.88-.44-1.25-.06-.11-.14-.44-.27-.73-.13-.28-.34-.63-.77-.64-.09,0-.19.02-.29.05-1.01.44-.92,1.92-1.13,2.74-.04.19-.06.35-.09.47-.19-.18-.39-.37-.58-.55-.32-.22-.64-.24-.75-.34-.15-.11-.26-.34-.45-.58-.49-.6-1.12-1-1.7-1.43-.12-.13-.24-.27-.37-.4l-.04-.04c-.14-.09-.3-.11-.43-.11-.18,0-.35.03-.49.03-.07,0-.13,0-.18-.02-.2-.02-.33-.47-.83-.69-.09-.03-.18-.04-.26-.04-.23,0-.4.07-.51.06-.06,0-.09,0-.13-.03-.18-.11-.37-.42-.58-.68-.33-.39-.72-.65-1.1-.93-.11-.07-.35-.4-.79-.41-.09,0-.19.02-.28.05-.28.13-.37.36-.43.48-.47-.09-.9-.69-1.83-.71-.11,0-.23,0-.36.03-.25.05-.58.22-.92.38-.16.08-.32.16-.43.22-.06.03-.11.05-.14.07,0,0,0,0,0,0-.68-.16-1.27-.79-2.06-1.07-.09-.03-.18-.05-.27-.05-.45,0-.79.38-.79.83,0,.07,0,.15.03.22.07.23.17.34.23.41-.09.07-.17.13-.26.2-.03,0-.06.01-.09.01-.14.01-.33-.13-.67-.14-.06,0-.12,0-.19.02l-.05.02c-.2.11-.41.22-.61.32-.16.01-.33.02-.5.03l-.07.02c-.21.08-.31.27-.35.37-.03.07-.05.11-.06.14-.06,0-.17-.05-.32-.08-.08-.01-.16-.02-.23-.02-.52.01-1.01.23-1.25.53-.2.27-.29.71-.4,1.13-.05.21-.1.41-.15.55-.02.07-.05.13-.07.17,0,.01-.01.02-.02.03-.04.01-.17.04-.32.04-.13,0-.27-.01-.38-.04-.05-.01-.1-.03-.13-.04,0,0,0,0,0,0-.06-.17-.12-.35-.17-.52-.19-.44-.44-.75-.63-1.06-.05-.14-.1-.28-.16-.42l-.02-.03c-.47-.82-1.04-1.6-1.6-2.32-.33-.42-.72-.7-.95-1.08-.08-.27-.16-.54-.24-.81-.22-.6-.49-1.3-.88-1.79-.25-.32-.61-.38-.85-.38-.1,0-.2,0-.26,0-.05,0-.08,0-.1,0,0,0,0,0,0,0-.66-.81-1.36-1.51-2.08-2.23-.3-.3-.59-.61-.89-.91-.42-.33-.84-.55-1.19-.82-.18-.18-.38-.37-.58-.57-.61-.48-1.29-.93-1.91-1.32l-.03-.02c-.35-.15-.7-.3-1.05-.46h-.04c-.26-.08-.52-.15-.78-.21-.24-.29-.49-.58-.73-.87l-.04-.04c-.41-.3-.91-.4-1.31-.56-.4-.19-.81-.39-1.22-.59-.62-.37-1.28-.73-1.91-1.12-.1-.05-.25-.26-.58-.32-.05,0-.09-.01-.14-.01-.27-.01-.47.19-.53.35-.03.07-.06.14-.08.21-.15-.07-.3-.14-.44-.22l-.05-.02c-.32-.07-.65-.14-.97-.22-.08-.05-.27-.3-.63-.32-.06,0-.12,0-.18.02-.2.07-.32.2-.39.28-.5-.12-1.03-.48-1.61-.66-.77-.2-1.54-.4-2.3-.6-.19-.06-.88-.53-1.36-.54-.03,0-.08,0-.13.02-.29.06-.38.34-.4.48-.03.16-.06.21-.06.21-.02.02-.07.04-.18.04-.23,0-.58-.09-.77-.13-.11-.02-.23-.03-.34-.03-.87.02-1.93.45-1.99,1.33l.03.11c.2.34.54.44.82.52.23.06.42.13.53.21-.02.05-.05.1-.07.13-.26,0-.52-.01-.78-.02h-.06c-.58.14-.73.46-.92.69-.09-.05-.19-.1-.28-.15l-.05-.02c-.81-.23-1.66-.12-2.45-.24-.27-.01-.52-.03-.77-.04h-.09c-.12.05-.24.1-.36.14-.27.06-.76-.08-1.1.31-.09.13-.14.27-.14.41,0,.32.21.52.36.69.09.1.16.19.2.25-.27.04-.64.07-.91.24-.13.11-.2.23-.23.31-.73-.24-1.44-.4-2.28-.55-.15-.03-.39-.09-.65-.09-.07,0-.15,0-.23.02-.25.05-.5.1-.75.15l-.06.02c-.16.09-.33.17-.5.26-.01,0-.02,0-.03,0-.09,0-.2-.07-.41-.12-.1-.02-.2-.03-.3-.03-.26,0-.51.04-.68.07-.3-.03-.6-.06-.89-.09h-1.31c-.11-.03-.27-.09-.46-.09-.11,0-.25.03-.37.11l-.06.06c-.06.09-.12.18-.18.27-.25-.01-.56-.05-.84-.1-.45-.08-1.32-.24-2.06-.24-.34,0-.66.03-.92.13-.26.09-.5.33-.49.66,0,.2.08.41.22.64-.35.11-.7.21-1.05.32-.22.02-.45.05-.67.07l-.06.02c-.42.17-.74.41-1.05.59-.18.06-.36.13-.55.19-.48.24-.91.53-1.3.77-.63.38-1.43.56-2.21.88l-.03.02c-.65.39-1.3.78-1.95,1.17-.32.24-.52.53-.75.6-.3.12-.71.11-1.17.21-.59.13-1.2.32-1.79.44-.15,0-.34.02-.52.03h-.06c-.47.18-.93.34-1.4.51l-.07.04c-.16.13-.2.29-.24.38-.03.08-.04.1-.06.11-1.01.24-2.02.48-3.03.72h-.04c-.32.15-.64.28-.96.41-1.7.53-3.31,1.06-4.9,1.75-.47.21-.95.51-1.4.69-.86.36-1.66.72-2.45,1.18-.35.21-.9.65-1.19.73-.15-.01-.29-.02-.44-.03h-.06c-.41.07-1.14.18-1.83.33-.64.15-1.23.29-1.58.54-.64-.05-1.43-1.05-2.49-1.08-.1,0-.2,0-.3.03-.85.2-1.13.97-1.58,1.24-.14.05-.28.1-.42.16-.77.34-1.64.72-2.42,1.02-.79.3-1.53.47-2.34.81-.52.22-1.14.53-1.66.74-.16.04-.32.08-.48.12l-.07.03c-.15.1-.31.19-.46.29-.23.06-.46.12-.69.17h-.04c-.22.11-.44.22-.65.32-.22.06-.45.12-.67.18-.23.09-.43.18-.63.28-.1.05-.15.15-.13.25.02.1.1.18.21.2,2.96.33,4.91,1.36,6.16,2.68,1.52,1.62,1.97,3.64,1.97,5.28v.06c0,2.8-1.26,4.54-3.15,5.79-.07.05-.11.13-.11.21,0,.09.06.16.14.2,2.5,1.14,4.68,3.44,4.69,7.62,0,.01,0,.03,0,.06h0c0,3.2-1.4,5.65-3.49,7.27-2.1,1.63-4.88,2.45-7.69,2.45h-13.18c-.12,0-.22.09-.23.21-.03.28-.05.57-.05.88v.81c.02.1.04.21.06.31.02.1.09.17.18.19,1.27.27,2.18.78,2.79,1.43.89.95,1.15,2.13,1.15,3.08,0,.02,0,.04,0,.06,0,1.47-.63,2.45-1.57,3.17-.06.05-.1.13-.09.21,0,.08.05.15.12.19,1.32.71,2.43,2.03,2.43,4.27,0,.01,0,.03,0,.05h0c0,1.86-.82,3.29-2.03,4.23-1.22.95-2.83,1.42-4.44,1.42h-.11c-.07,0-.13.03-.17.07-.05.05-.07.11-.06.17.01.23.02.45.04.68,0,.08,0,.18,0,.28,0,1.12.26,2.16.43,3.18.02.45.05.93.07,1.41v.03c.16.82.3,1.76.46,2.63.01.06.01.11.01.17,0,.26-.11.56-.11.96,0,.09,0,.19.03.3.28,1.53.65,3.07.91,4.61,0,.38.01.76.02,1.15v.07c.1.26.2.52.29.78.16.68.08,1.46.25,2.29.18.85.41,1.62.64,2.39.36,1.18.57,2.4,1.19,3.43.26.41.77.79,1.02,1.12.31.42.63.84.94,1.26l.05.05c.25.18.47.17.63.24.18.12.36.24.53.36l.04.02c.15.06.29.08.43.08.41,0,.73-.2.97-.41,0,.02,0,.05,0,.07,0,.49-.21.97-.29,1.5v.08c.03.12.06.25.09.37,0,.14-.01.27-.02.41v.09c.1.26.2.52.29.78.11.46.03.89.5,1.26.78.6,1.66.86,2.61,1.22.42.18.85.36,1.28.54h.03c.5.14.99.27,1.49.39.22.09.47.19.72.28h.03c.32.09,1.1.32,1.6.32.07,0,.13,0,.19-.01h.04c.18-.08.35-.15.53-.21.1-.04.32-.05.49-.26.1-.15.14-.31.14-.46,0-.35-.16-.71-.26-.97.12.02.25.04.38.04.16,0,.36-.04.5-.21.12-.16.17-.34.17-.51,0-.44-.26-.83-.36-1.04-.12-.22-.18-.58-.37-.92-.35-.63-.8-1.14-1.14-1.69-.08-.2-.16-.4-.25-.6l-.09-.11c-.14-.09-.28-.18-.42-.27-.1-.14-.2-.27-.3-.4l-.1-.08c-.13-.05-.25-.11-.38-.16-.1-.13-.21-.26-.31-.39l-.03-.03c-.13-.12-.27-.23-.4-.35-.58-.74-1.16-1.45-1.73-2.19-.26-.27-.5-.52-.74-.77-.13-.24-.27-.48-.4-.72-.31-.41-.68-.72-.93-1.03-.42-.52-.87-1.14-1.2-1.71-.26-.43-.29-1.09-.49-1.74-.13-.33-.26-.64-.39-.95-.36-1.15-.55-2.33-.8-3.63v-.6c-.07-.41-.12-.92-.12-1.41,0-.39.03-.76.11-1.06-.02-.06.2-.15.31-.5.01-.07.02-.13.02-.19-.02-.32-.14-.45-.13-.56,0-.02,0-.05.01-.08.11-.34.23-.69.34-1.05.28-.92.41-1.77.74-2.51.27-.5.55-1.02.83-1.53.35-.85.44-1.83.61-2.77.03-.42.05-.82.08-1.21.04-.18.12-.36.22-.56.05-.1.02-.23-.07-.29-.16-.12-.32-.24-.46-.36-1.41-1.26-2.11-3.17-2.11-5.67h0v-10.96c0-.06.03-.12.07-.17.04-.04.11-.07.17-.07h5.49c.06,0,.12.03.17.07.04.04.07.11.07.17v9.87c0,.07,0,.15,0,.23,0,.1.07.19.16.22.1.03.2,0,.26-.09.09-.12.18-.25.27-.37.36-.61.61-1.18.97-1.68.13-.2.58-.74.55.39,0,.49.01.99.02,1.48v.05c.05.2.1.4.15.6,0,.01,0,.04,0,.07,0,.21-.14.54-.21.83v.04c0,.2-.02.4-.02.6-.06.3-.12.67-.17,1.03-.01.07,0,.13.05.18.04.05.1.08.17.09.07,0,.14.01.23.01,1.22,0,1.76-.51,2.06-1.21.28-.69.31-1.6.31-2.46v-9.9c0-.06.03-.12.07-.17.04-.04.1-.07.17-.07h5.49c.06,0,.12.03.17.07.04.04.07.11.07.17v10.96c0,2.5-.69,4.4-2.09,5.67-1.41,1.26-3.5,1.86-6.26,1.86-.7,0-1.36-.04-1.97-.12-.11-.01-.21.05-.25.15-.08.22-.17.43-.25.65-.13.43-.26.84-.39,1.26-.22.52-.58,1.09-.78,1.75-.08.38-.15.73-.22,1.09-.07.14-.14.29-.21.43v.04c-.1.3-.17.91-.17,1.43,0,.2,0,.37.04.53.1.46.21,1.17.48,1.63l.03.04c.17.17.34.35.5.52.08.16.16.32.24.48l.04.06c.19.21.39.41.58.62.39.54.81,1.11,1.22,1.67l.04.04c.11.09.22.18.33.27.23.26.49.54.74.82.11.09.19.16.28.23.4.52.75,1.08,1.19,1.61.34.38.85.51,1,.78.38.58.57,1.19.87,1.95.24.61.55,1.25.76,1.87.1.36.2.73.31,1.1.12.31.24.59.35.87l.02.04c.11.17.22.35.33.53.51,1.24,1.13,2.49,1.89,3.53.52.7,1.32,1.14,1.92,1.61.27.2.52.72,1.11.88h.05c.13.01.25.02.38.02.2.08.41.16.62.24h.04c.07.02.13.03.2.03.47-.01.81-.28,1.03-.57.03.18.07.35.1.53-.02.2-.07.48-.07.76,0,.13,0,.26.04.39v.04c.07.12.13.24.19.37.04.15,0,.3.13.53.12.19.23.37.34.56.15.38.17.79.63,1.09.99.63,2.98.79,4.2,1.02h.04c.24,0,.47.02.71.02.36.06,1.18.21,1.65.21.06,0,.12,0,.18-.01h1.57c.29-.09.45-.27.59-.34.08-.06.27-.09.42-.31.07-.11.1-.23.09-.34,0-.31-.16-.58-.3-.82-.07-.11-.13-.21-.18-.3.02,0,.04,0,.06,0,.05,0,.1,0,.16,0,.17,0,.43,0,.6-.24.09-.13.13-.28.13-.42-.01-.49-.38-.87-.53-1.05-.21-.24-.35-.58-.61-.92-.28-.3-.55-.59-.81-.87-.16-.13-.3-.24-.44-.36-.14-.17-.35-.59-.59-.79l-.05-.03c-.16-.07-.33-.14-.49-.2-.14-.12-.28-.24-.43-.36l-.11-.05c-.13-.02-.25-.04-.37-.07-.45-.29-.92-.67-1.36-1.02-.11-.12-.24-.27-.37-.41l-.03-.03c-.69-.54-1.4-1.02-2.07-1.55-.19-.22-.38-.44-.57-.66l-.04-.03c-.52-.39-1.04-.78-1.54-1.18-.15-.17-.32-.37-.5-.57-.18-.17-.35-.31-.51-.46-.32-.42-.47-1.02-.81-1.6-.53-.9-1.13-1.91-1.55-2.89-.14-.32-.16-.66-.3-1.12-.27-.9-.63-1.84-.87-2.73-.02-.09-.03-.16-.03-.24-.01-.37.29-.7.45-1.18v-.04c.03-.21.06-.42.08-.63.04-.08.21-.22.27-.52,0-.05.01-.1.01-.14-.01-.31-.15-.47-.17-.58v-1.25c0-.44-.01-.89-.01-1.32,0-.73.04-1.41.2-1.93.23-.76.79-1.29,1.16-2.09.29-.66.62-1.32.96-1.96.04-.07.04-.16,0-.23-.04-.07-.12-.11-.2-.11h-.07c-.06,0-.12-.03-.16-.07-.05-.05-.07-.11-.07-.17v-17.83c0-.06.03-.12.07-.17.04-.04.11-.07.17-.07h5.49c.06,0,.12.03.17.07.04.04.07.11.07.17v10.35c0,.1.07.19.17.22.1.03.2,0,.26-.09.3-.43.41-.79.72-1.13.23-.19.39-.06.61.03s.43.08.62.06c.07,0,.13-.01.18-.06.05-.05.08-.11.08-.18v-9.22c0-.06.03-.12.07-.17.04-.04.11-.07.17-.07h5.49c.06,0,.12.02.17.07.04.04.07.1.07.17v12.79c0,.06.02.12.07.17.04.04.1.07.17.07h7.42c.06,0,.12.03.17.07.04.04.07.1.07.17v.51c0,.08.04.16.11.2.07.04.15.05.22.02.01,0,.04,0,.09,0,.06,0,.21-.03.28-.13.01-.01.01-.01.01-.01.03,0,.14,0,.26-.04.23-.04.47-.08.7-.12.11-.02.2-.12.2-.23v-13.46c0-.06.03-.12.07-.17.04-.04.11-.07.17-.07h9.01s.02,0,.03,0c3.01,0,5.1,1.14,6.4,2.85,1.31,1.72,1.84,3.99,1.84,6.27h0c0,2.78-.74,5.08-2.29,6.68-1.55,1.61-3.9,2.49-7.05,2.49h-3.08l-.11.03c-.36.18-.71.5-.72.99,0,0,0,.01,0,.04l.02.07c.16.31.49.43.81.43.13,0,.26-.02.39-.05.36-.1.78-.13,1.26-.21.21,0,.42.01.63.02h.05c.37-.06.85-.13,1.26-.13.03,0,.05,0,.08,0-.02.07-.04.16-.04.25,0,.12.04.27.13.39.18.17.28.14.49.2.47.1,1.25.19,1.67.26-.02.04-.03.08-.05.13v.04c-.03.1-.04.19-.04.28,0,.26.11.49.3.61.18.12.39.15.61.15.54,0,1.18-.22,1.47-.27.53,0,1.05.01,1.58.02h.04c.28-.06.53-.19.69-.18h0c-.01.49-.35,1.37-.47,1.8v.04c-.02.17-.03.35-.04.52-.08.36-.19.78-.27,1.13v.04c-.02.23-.03.46-.04.69-.07.29-.27.87-.28,1.33,0,.15.02.31.12.45.14.2.37.28.58.28.3,0,.57-.14.74-.38.31-.49.33-1.12.45-1.61.03-.11.06-.22.09-.32.16.54.38,1.21.77,1.62.13.13.36.36.72.37.13,0,.26-.04.38-.12.46-.35.41-.95.56-1.26.07-.13.15-.28.23-.44l.02-.04c.06-.2.08-.38.11-.48.03-.06.04-.09.05-.1.39.31.85,1.2,1.02,1.75.04.12.07.36.15.59.07.22.27.5.62.49.07,0,.13,0,.2-.03.4-.13.55-.46.66-.69.15.53.18,1.5.27,2.1,0,.21.01.42.02.63v.06c.15.4.53.62.7.78.04.04.1.06.16.06.14,0,.26-.04.34-.08.02.06.02.12.02.19,0,.06,0,.14,0,.22,0,.13.01.3.09.48l.02.04c.19.3.37.61.56.92.15.37.31,1.32.46,1.8.19.62.3.95.42,2.57,0,.05.06.89.06.94,0,.3-.18.58-.27.96-.02.09-.03.18-.03.27,0,.54.27,1.04.34,1.34.08.33.07,1.4.19,1.77.14.42.28.83.42,1.25.1.24.02.75.42,1.07.16.11.33.13.5.13.35,0,.73-.11.9-.11.04,0,.05,0,.05,0,.1.04.24.39.38.77.14.37.4.84.98.84.1,0,.19-.01.29-.03l.07-.03c.16-.09.32-.18.48-.27.62.55.69,1.77,1.05,2.86.08.22.16.44.24.66l.03.06c.23.28.55.26.81.28.27,0,.5.03.57.09.02,0,.05.13.14.34.07.14.27.52.48.87.24.36.38.67.67.81.07.03.14.03.2.03.17,0,.29-.05.34-.04.17.04.35.08.54.13h.05s.43,0,.43,0c.44.07.92.13,1.41.13.25,0,.5-.02.74-.05.33,0,.67-.01,1-.02h.04c.62-.14,1.2-.37,1.79-.5.05-.01.12-.02.19-.02.35,0,.86.15,1.3.16.19,0,.39-.03.56-.17.18-.15.22-.37.22-.54,0-.26-.08-.5-.08-.66.19-.03.41-.07.61-.15.26-.09.54-.33.54-.71,0-.05,0-.1-.01-.15-.13-.63-.8-.91-.98-1.17-.46-.57-.96-1.06-1.4-1.61-.21-.25-.46-.39-.58-.56-.06-.03-.03-.36-.22-.66-.18-.21-.47-.31-.79-.44-.32-.12-.65-.22-.82-.26h-.04c-.15-.03-.31-.04-.46-.06-.68-.27-1.2-.76-1.81-1.2-.22-.14-.43-.27-.65-.41-.05-.03-.1-.16-.23-.34l-.05-.05c-.11-.08-.23-.17-.34-.25-.46-.59-.74-2.13-.98-3-.1-.34-.31-.72-.31-1.03,0-.05,0-.09.01-.13.08-.13.17-.26.25-.39l.11-.68c.01-.15.01-1.08.02-1.23,0-.04-.05-.79-.05-.84-.02-.47-.26-.71-.23-.9,0-.02,0-.04,0-.05.07-.49.24-.93.36-1.38.09-.55.17-1.08.26-1.61.05-.15.1-.3.16-.45v-.05s.02-.05.02-.08c-.02-.3-.18-.46-.22-.53v-.41c-.03-.17-.04-.32-.04-.47,0-.07,0-.14,0-.21,0,.04.01.08.02.12.01.05.04.1.09.13.21.16.42.24.63.24.51-.01.8-.43,1.03-.82.22-.4.39-.85.52-1.05.32-.52.77-.96,1.16-1.5.62-.88,1.21-1.76,1.94-2.49.16-.17.4-.48.62-.71-.14.31-.36.64-.52.9-.3.52-.4,1.09-.64,1.54-.07.16-.43.56-.44,1.03,0,.14.04.29.14.42.15.2.37.23.56.23.24,0,.46-.06.64-.18.43-.36.37-.89.54-1.11.3-.49.77-.93,1.17-1.42,1.48-1.85,3.28-3.45,4.78-5.35.21-.26.51-.52.8-.75.48-.39.84-.85,1.27-1.18l.04-.04c.05-.06.09-.11.14-.17.07-.09.07-.23-.01-.31-.08-.09-.16-.15-.21-.22-1.51-1.71-2.34-4.05-2.34-6.64,0,0,0-.02,0-.02,0-3.44,1.22-5.89,2.97-7.46,1.75-1.57,4-2.27,6.06-2.27.03,0,.05,0,.08,0,4.58.01,7.57,2.6,8.37,6.86,0,.01,0,.03,0,.04,0,.05-.02.11-.06.15-.04.05-.11.08-.18.08h-5.27c-.12,0-.22-.08-.23-.2l-.23.04.23-.04c-.18-1.18-1.18-2.02-2.36-2.02-1.68,0-2.49.8-2.93,1.78-.44.98-.48,2.14-.48,2.86,0,.02,0,.04,0,.07,0,.08,0,.17,0,.25,0,0,0,0,0,.01,0,.81.17,1.91.72,2.79.55.87,1.47,1.55,3.06,1.56.27,0,.54-.04.79-.09.07-.02.13-.07.16-.14.13-.3.26-.61.4-.91.04-.07.05-.16,0-.24-.04-.08-.12-.12-.2-.12h-1.99c-.06,0-.12-.03-.17-.07-.05-.04-.07-.11-.07-.17v-3.82c0-.06.03-.12.07-.17.04-.05.11-.07.17-.07h8.56c.06,0,.12.03.17.07.04.04.07.11.07.17v.26c0,.06.02.11.06.16.04.05.09.09.13.14.14.22.27.44.41.66l.08.08c.17.11.34.21.52.32.05.12.04.37.08.69v.03c.13.36.25.73.37,1.09l.02.05c.46.69,1.14.73,1.33,1.28.1.31.2.64.3.97.24.56.59,1.03.7,1.58.04.19.05.61.08.99.05.4.04.75.32,1.01.15.11.31.18.48.18.24,0,.41-.14.53-.3,0,.48.03.95.15,1.39.04.09-.03.28.13.53.15.19.33.23.46.27.14.04.19.09.19.08,0,0,.01.03.01.09,0,.16-.09.43-.13.63-.07.38-.04.69-.1.93-.1.41-.3.82-.42,1.25-.05.19-.15.51-.15.82,0,.21.05.48.31.62.08.04.17.07.26.07.14,0,.25-.05.33-.07-.13.66-.73,1.14-.97,1.9-.02.08-.03.16-.03.23,0,.23.06.39.06.53,0,.38,0,.68.2.97.03.05.08.08.13.09.07.02.14.03.21.03.62-.03.87-.63.97-1.04.05-.27.04-.42.08-.45.38-.58.91-1.16,1.3-1.82.12-.26.23-.49.34-.73.31-.49.63-1.01.95-1.53.03-.06.06-.12.08-.18.13.12.3.2.5.21.17,0,.36-.09.48-.25l.03-.05c.07-.17.15-.34.22-.51.13-.32.44-.88.71-1.21,0,.05,0,.1-.01.15-.01.16.07.39.27.51.08.06.18.08.28.08.41-.03.69-.36.97-.67.27-.33.49-.67.57-.83.32-.64.22-1.36.37-1.99.04-.17.09-.35.14-.54v-.06s0-.86,0-.86c.07-.24.14-.48.21-.72.05-.3.07-.57.07-.84,0-.92-.22-1.81-.36-2.52-.07-.35-.03-.66-.11-1.13-.07-.4-.22-.71-.27-.98-.06-.25-.04-.48-.13-.77-.17-.53-.49-.97-.61-1.42.24.06.27.21.63.44.38.18.74.34,1.1.5.54.22,1.07.31,1.61.31.45,0,.9-.06,1.37-.15.19-.04.4-.05.62-.05.13,0,.25,0,.38,0,.32,0,.64-.01.95-.13.26-.1.62-.24.88-.44l.03-.03c.23-.25.45-.5.68-.75,1.03-.8,2.25-1.43,2.72-2.99.03-.1.04-.21.04-.3,0-.23-.05-.42-.05-.58,0-.05,0-.1.01-.14.09-.56.33-1,.45-1.66.1-.58.01-1.07.14-1.45.38-1.22,1.36-2.03,1.89-3.34.18-.46.34-1.14.34-1.79,0-.11,0-.23-.01-.34-.02-.22-.09-.4-.09-.57,0-.04,0-.08,0-.12.17-.98.36-2,.53-2.94v-.04s0-1.95,0-1.95c0-.24.04-.52.04-.84,0-.16-.01-.32-.05-.49v-.04c-.03-.06-.06-.12-.08-.19.28-.13.68-.38.69-.9,0-.08-.01-.16-.03-.25-.05-.16-.1-.31-.15-.46.04-.27.08-.54.12-.8.02-.19.41-.35.56-.86.02-.1.03-.19.03-.28,0-.44-.18-.85-.17-1.02,0-.03,0-.05,0-.05,0,0,.04-.04.15-.09.1-.05.28-.14.37-.35.08-.19.1-.37.1-.55,0-.43-.14-.82-.13-1.17,0-.09,0-.17.02-.25.08-.43.35-.82.46-1.34M135.92,192.31h5.2c.98,0,1.86-.15,2.48-.55l-.13-.2.13.2c.61-.4,1.01-1.05,1.01-2.19,0-.88-.25-1.51-.75-1.94-.5-.43-1.28-.68-2.39-.68h-5.57c-.06,0-.12.03-.17.07-.04.04-.07.11-.07.17v4.88c0,.06.03.12.07.17.04.04.1.07.17.07M128.59,202.29c.03-.08.07-.15.1-.22l.02-.06c.03-.18.06-.35.09-.53.09-.31.13-.63.19-.97.01-.07,0-.14-.05-.19-.04-.05-.11-.08-.18-.08h-2.93c-.09,0-.17.05-.21.13-.28.54-.61,1.03-.96,1.54-.04.07-.07.13-.1.18-.04.07-.04.16,0,.24.04.07.12.12.2.12h3.57s.01,0,.05,0c.09,0,.18-.06.22-.14M135.92,180.67h4.61s.03,0,.03,0c.98,0,1.74-.15,2.24-.5l-.14-.19.14.19c.49-.34.78-.9.78-1.85,0-.71-.29-1.17-.78-1.46-.52-.31-1.29-.45-2.24-.45,0,0-.02,0-.05,0h-4.59c-.06,0-.12.02-.17.07-.04.04-.07.1-.07.17v3.79c0,.06.03.12.07.17.04.04.1.07.17.07"/></svg>