<?xml version="1.0" encoding="UTF-8"?><svg id="a" xmlns="http://www.w3.org/2000/svg" width="400" height="400" viewBox="0 0 400 400"><defs><style>.b{fill:#71b1e0;}.c{fill:#f37137;}</style></defs><path class="b" d="M198.08,167.78c1.6,0,3.06-.59,4.36-1.76,1.34-1.2,2.01-2.76,2.01-4.61s-.68-3.41-2.01-4.61c-1.3-1.17-2.77-1.76-4.36-1.76s-3.06.59-4.36,1.76c-1.34,1.2-2.01,2.76-2.01,4.61s.68,3.41,2.01,4.61c1.3,1.17,2.77,1.76,4.36,1.76"/><path class="b" d="M193.72,243.9c1.3,1.17,2.77,1.76,4.36,1.76s3.06-.59,4.36-1.76c1.34-1.2,2.01-2.75,2.01-4.61s-.68-3.41-2.01-4.61c-1.3-1.17-2.77-1.76-4.36-1.76s-3.06.59-4.36,1.76c-1.34,1.2-2.02,2.76-2.02,4.61s.68,3.41,2.02,4.61"/><path class="c" d="M233.82,195.61l-30.75-71.62c-.19-.45-.64-.75-1.13-.75h-7.5c-.49,0-.93.29-1.13.74l-30.95,71.62c-.17.39-.12.85.13,1.2.25.35.66.55,1.1.51,2.73-.21,5.63-.4,8.6-.57.47-.03.89-.32,1.07-.76l8.94-21.59,10.49,25.7c.04.09.09.16.14.24-.05.07-.11.15-.14.23l-10.49,25.7-8.35-20.16c-.18-.44-.6-.73-1.07-.76-2.98-.16-5.86-.35-8.57-.55-.43-.03-.85.16-1.09.51-.25.35-.3.81-.13,1.2l30.33,70.17c.2.45.64.74,1.13.74h7.5c.49,0,.94-.29,1.13-.74l30.13-70.17c.17-.4.12-.85-.13-1.2-.25-.35-.66-.54-1.09-.51-2.8.21-5.73.4-8.73.57-.47.02-.88.32-1.07.75l-5.73,13.65-2.54,6.22-10.32-25.42c-.04-.09-.09-.16-.14-.24.05-.07.1-.15.14-.24l10.32-25.42,2.55,6.23,6.32,15.08c.18.43.6.73,1.07.75,2.99.17,5.94.36,8.75.58.03,0,.06,0,.09,0,.4,0,.77-.19,1-.51.25-.35.3-.81.13-1.2ZM208.74,238.48l-10.77,25.95-10.5-25.32,10.72-27.93,10.55,27.3ZM198.19,189.52l-10.72-27.93,10.5-25.32,10.77,25.95-10.55,27.3Z"/></svg>