<?xml version="1.0" encoding="UTF-8"?><svg id="a" xmlns="http://www.w3.org/2000/svg" width="400" height="400" viewBox="0 0 400 400"><defs><style>.b{fill:#717275;}.c{fill:#4d4d4f;}.d{fill:#231f20;}.e{fill:#d7d8da;}.f{fill:#909295;}.g{fill:#b2b4b7;}</style></defs><rect class="d" x="180.66" y="197" width="8.98" height="8.98"/><rect class="f" x="132.75" y="197" width="8.98" height="8.98"/><rect class="g" x="116.79" y="197" width="8.98" height="8.98"/><rect class="e" x="100.82" y="197" width="8.98" height="8.98"/><rect class="c" x="164.69" y="197" width="8.98" height="8.98"/><rect class="b" x="148.72" y="197" width="8.98" height="8.98"/><path class="d" d="M281.92,196.41h2.99c.8.52.32,1.11.12,1.69-.46.22-.92.44-1.42.68-.11.49-.24,1.03-.4,1.71-.83.77-1.77,1.64-2.59,2.4-.81.12-1.43.21-2.08.3v.72c.4.11.87.41,1.22.3.98-.29,1.95-.16,2.93-.24.06,0,.12-.11.18-.18.37.13.75.26,1.13.39.06-.06.12-.12.19-.19.12.11.23.22.35.34.11.46-.08.96.26,1.41.1.14-.12.51-.2.81.23.43.28.82,0,1.39-.92,1.92-.7,1.31-2.7,3.33-.61-.54-1.01.07-1.64.26-.27-.04-.75.2-1.11-.19-.64.45-1.37.09-1.89.2-.63-.43-1.15-.78-1.79-1.21q-.82-1.9-.51-3.9c.35-.26.68-.5,1-.73-.44-.58-.13-1.22-.27-1.87.27-.22.56-.46.79-.64v-.61c-.42-.42-.84-.84-1.25-1.25-.07-.31.05-.62-.16-.95-.36-.57-.01-1.2.19-1.73.25-.69.64-1.36,1.1-1.93.27-.34.76-.61,1.2-.71,1.16-.28,2.34-.68,3.54-.11.14.07.32.06.45.13.14.08.24.23.39.37ZM278.12,206.27c-.39.39-.74.74-1.18,1.18.09.47.19,1.01.26,1.41,1.2.89,2.43,1.01,3.68.93.31-.24.64-.45.91-.72.28-.29.5-.63.76-.97v-1.24c-.39-.27-.79-.55-1.31-.91-.96.1-2.05.21-3.12.33ZM277.76,201.08c.57.48,1.24.38,1.73.38,1.63-.54,1.26-1.8,1.25-2.86-.04-.91-.86-.83-1.36-1.16-.56.26-1.12.52-1.61.75v2.89Z"/><path class="d" d="M229.35,206.52c-.22-.22-.4-.4-.61-.61v-.82c.47-.12.92-.23,1.45-.36,0-.71.74-1.38.05-2.14.08-.09.17-.18.26-.28-.06-.39-.58-.77-.06-1.2.07-.06.08-.26.04-.35-.5-1.07-.16-2.21-.24-3.31-.05-.8-.04-1.6,0-2.4.05-1.13-.56-1.8-1.5-2.33v-.78c.74-.37,1.44-.8,2.14-.61.65-.24,1.17-.42,1.59-.58.4.49.7.86,1.04,1.28v.7c-.16.17-.33.35-.49.52v2.78c.13.13.25.25.44.44.39-.16.82-.33,1.27-.51.29.05.63.14.97.14.32,0,1.41.09,1.71.31.5.35,1.25.49,1.18,1.38-.02.22.27.47.41.68-.06.26-.24.56-.16.76.38,1.01.23,2.04.22,3.06,0,.74.11,1.44.34,2.14.39.28.78.57,1.17.85v.87c-.23.12-.44.22-.68.34-.22-.07-.48-.17-.74-.24-.26-.07-.53-.12-.79-.17-.45.08-.92.15-1.39.23-.31-.35-.59-.66-.93-1.04.05-.09.13-.26.26-.5,0-.5-.01-1.09,0-1.68.01-.56-.13-1.15.25-1.66-.36-.52.24-1.04-.01-1.55-.22-.42-.43-.83-.6-1.16-.89-.95-1.72-.48-2.65.08-.3.66-.44,1.52-.52,2.38-.02.22.11.45.19.75-.05.29-.2.68-.18,1.06.01.34.2.67.39,1.24.03.02.28.17.53.33-.04.03-.07.07-.11.1.3.09.59.19.9.29v1.23c-.28.41-.74.47-1.16.24-.33-.18-.55-.18-.88,0-.27.14-.73.21-.95.07-.57-.37-1.05-.19-1.58.02-.15.06-.33,0-.57,0Z"/><path class="d" d="M217.82,203.98c.6.55,1.21,1.11,1.87,1.71-.1.27-.2.52-.31.79h-1.14c-.25-.13-.49-.26-.75-.4-.33.12-.68.24-1.06.38,0,0-.07-.05-.13-.1-.24-.23-.71.1-.86-.36-.12-.37-.3-.73-.35-1.11-.06-.41,0-.84-.02-1.26-.01-.18-.13-.36-.19-.53.51-1.09.48-2.27.44-3.48-.26-.9-1.08-1.13-1.88-1.46-.75.29-1.56.54-1.88,1.41-.08.22.07.52.12.87.04-.04-.03.01-.08.08-.21.33.18.75.11.83-.23.27-.28.62-.16.81.39.64.2,1.22-.1,1.88.38.32.56.85,1.2.72q.55,1.11-.05,1.79c-.37-.09-.75-.19-1.14-.27-.35-.07-.76.16-1.04-.23-.46.4-1.12,0-1.5.26-.79.52-1.17-.09-1.68-.37v-.74c.52-.33,1.02-.65,1.54-.98-.11-.99.13-1.93-.25-2.86-.11-.27.19-.67.21-1.02.04-.59.01-1.18.01-1.81-.48-.13-.96-.27-1.47-.42-.06-.39-.16-.8.36-1.19,1.01.15,1.93-.5,3.12-.75.21.1.56.27,1.02.5.74.09,1.53-.21,2.35-.41.46-.11.98,0,1.47.05.28.02.55.1.95.18.24.28.56.66.88,1.03.37.34,0,.87.4,1.33.24.27-.09.85.26,1.28.16.2.13.69,0,.98-.38.88-.17,1.79-.26,2.89Z"/><path class="d" d="M286.38,197.28v-1.41c.63.15,1.21-.14,1.83.19.25.14.76-.06,1.09-.23.91-.47,1.6.02,2.34.38v1.02c-.34.26-.68.53-1,.77.33,1.42.8,2.73,1.44,4.09.22-.18.48-.3.5-.44.08-.79.87-1.41.54-2.33.21-.15.41-.3.55-.41v-1.07c-.33-.25-.66-.48-.98-.72v-.91c.29-.18.59-.37.82-.52.45.08.84.19,1.23.19.35,0,.68.02,1.06-.17.59-.28,1.16.06,1.65.52-.1.37-.2.74-.32,1.17-.69.23-1.11.81-1.28,1.52-.15.62-.68,1.06-.74,1.72-.03.31-.15.61-.27,1.04-.36.4-.92.81-.94,1.62,0,.3-.34.62-.56.89-.41.49-.98.91-.45,1.65-.16.39-.26.81-.48,1.15-.3.47-.57.96-.72,1.47-.17.59-.56.97-.95,1.37-.47.48-.95.95-1.46,1.46-.81.01-1.68.17-2.42-.63.01-.22-.01-.5.05-.78.06-.26.2-.51.34-.87.2-.12.5-.31.84-.52.33.17.67.35,1.16.6.13-.25.29-.55.44-.84.14-.42.35-.89.67-1.4.27-.42.43-.93.07-1.56-.43-.76-.33-1.79-1.05-2.46.09-.93-.56-1.62-.78-2.45-.18-.67-.45-1.35-.84-1.91-.34-.48-.9-.81-1.38-1.21Z"/><path class="d" d="M197.26,200.17c.55.03,1.05.04,1.55.08.1,0,.19.14.25.19.59-.2,1.15-.39,1.85-.63.08-.08.29-.29.54-.54-.17-.33-.35-.67-.5-.97-.48-.33-1.09.14-1.4-.32-.99.17-1.15,1.19-1.81,1.71h-.76c-.2-.21-.41-.42-.63-.63v-1.21c.63-1.04,1.93-.93,2.75-1.74.23.08.49.16.8.27.76-.32,1.92-.28,2.63.01,1.04.42,1.42,1.36,1.89,2.23.07.13.04.34,0,.5-.07.35-.26.7-.22,1.03.04.34.3.65.23,1.03-.07.39.18.85-.25,1.16.02.69-.15,1.4.27,1.98.52.33,1.02.65,1.46.93v1.28c-.71-.11-1.41.15-2.12-.2-.21.11-.48.25-.74.38-.32-.16-.67-.33-1.07-.52-.1-.18-.24-.41-.4-.69-.74.41-1.45.81-2.27,1.26-.67-.15-1.48-.33-2.41-.54-.23-.25-.56-.56-.81-.93-.22-.32-.37-.69-.51-1.05-.16-.42.2-.76.26-1.15.17-1.07.51-2.08,1.39-2.91ZM200.39,204.49c1.53-.55,1.66-1.67,1.41-2.8-.08-.2-.17-.39-.27-.63-1.06.84-2.49.73-3.17,1.92.09.16.17.29.22.39-.09.15-.17.28-.23.38.17.29.3.52.43.74h1.6Z"/><path class="d" d="M272.17,198.86c.11.6-.02,1.19.23,1.81.26.66-.15,1.41-.37,2.08-.22.67-.55,1.29-.88,1.91-.09.17-.19.34-.3.53-.43.2-1.02.29-1.33.64-.5.58-1.22.34-1.77.67-.1.06-.35-.13-.6-.23-1.05.73-2.06-.22-3.21-.27-1.51-1.54-2.31-3.44-2.07-5.63.09-.81.48-1.64.99-2.36.42-.59.79-1.22,1.51-1.5.8-.31,1.61-.62,2.43-.84.62-.17,1.24.22,1.85.38.41.1.79.32,1.23.39.37.06.94.19,1.02.69.06.39.42.18.52.4.09.21.15.44.27.65.12.21.28.4.48.67ZM269.41,203.69c0-.43-.11-.85.02-1.17.35-.84.22-1.61,0-2.46-.22-.88-.47-1.65-1.34-2.08-.32-.16-.59-.39-.85-.56-1.74-.16-2.33,1.04-2.91,2.31.08.11.16.24.24.35-.08.09-.16.19-.21.25.46,1.57.38,3.34,1.83,4.34.54.09,1.01.16,1.68.27.41-.34.97-.8,1.52-1.25Z"/><path class="d" d="M241.86,201.39c.49-.54.14-1.19.26-1.71.36-.55.75-1.02.99-1.55.45-.99,1.23-1.47,2.22-1.81.9-.31,1.79-.52,2.72-.4.51.06.98.4,1.39.22.35.22.58.37.82.52.72.44,1.25,1.06,1.71,1.75.73,1.1.57,2.32.41,3.53-.03.23-.12.46-.14.69-.03.25,0,.5,0,.71-.95,1.62-1.46,2-2.52,2.67-1,.63-2.11.51-3.19.5-.85-.01-1.54-.54-2.31-.81-.9-.31-1.1-1.2-1.59-1.84-.54-.7-.36-1.6-.74-2.47ZM249.7,203.48c0-1.02-.03-1.94,0-2.86.04-.92-.41-1.6-.95-2.25-.52-.62-1.21-.76-1.98-.7-.17.01-.33,0-.52,0-.33.56-1.18.57-1.36,1.27.11.49.2.95.33,1.51-.24.13-.46.26-.68.38.53.68.27,1.36.32,1.72.32.66.45,1.15.75,1.49.34.38.83.62,1.27.94h1.48c.45-.51.91-1.03,1.32-1.51Z"/><path class="d" d="M255.76,193.77c-.41-.63-1.35-.77-1.54-1.74.17-.18.39-.41.65-.69.99.15,1.94-.16,2.83-.52.64.18.76.76,1.14,1.27-.07.49-.15,1.08-.24,1.73.03.03.11.12.21.23-.27.59-.51,1.19,0,1.83-.09.15-.19.32-.3.51.04.09.09.19.16.34-.04.2-.09.44-.15.69-.05.23-.12.45-.23.84.09.24.52.68-.05,1.11.39.69.38,1.39.14,2.11-.06.19-.18.47-.1.57.5.65.09,1.38.29,2.14.23.19.54.44.93.77.06.31.68.77-.15,1.3-.33,0-.78-.01-1.23,0-.45.02-.91.01-1.34.12-.33.08-.73-.34-.99.13-.42-.08-.84-.17-1.28-.25v-1.12c.45-.42.88-.81,1.24-1.15,0-1.02.01-1.9,0-2.78,0-.33-.23-.72-.11-.97.2-.42.08-.81.12-1.21.03-.38,0-.76.01-1.13.01-.27-.06-.54.18-.81.37-.43-.29-.78-.2-1.25.04-.24-.21-.51-.21-.77s.17-.51.23-.78c.04-.16,0-.33,0-.5Z"/><path class="d" d="M221.91,196.98c-.06-.97-.06-1.74.37-2.6.46-.44.94-1.14,1.92-1.3.21.18.44.4.72.65v2.55c.22.22.4.4.62.62h1.52c.13.13.22.22.35.35v1.1c-.33.3-.72.63-1.22.57-.32-.04-.6.4-.92.05-.44.41-.57.92-.62,1.52-.1,1.17.32,2.27.31,3.42.47.54,1,.4,1.66.16.2.11.49.28.78.45.2.91-.25,1.49-.88,2.01-.62.1-1.26.21-1.95.32-.16-.23-.3-.44-.42-.62h-1.3c-.24-.75-.48-1.49-.69-2.24-.03-.11.13-.27.22-.43-.31-.62-.34-2.76-.04-3.69-.17-.55-.38-.98-1.1-1-.24,0-.46-.43-.63-.6.51-.51.95-.95,1.3-1.3Z"/><path class="f" d="M197.73,213.18l-1.03-2.73h.49l.59,1.63c.06.18.12.36.18.55.04-.14.1-.32.17-.52l.61-1.67h.47l-1.03,2.73h-.45Z"/><path class="f" d="M200.67,209.94v-.53h.46v.53h-.46ZM200.67,213.18v-2.73h.46v2.73h-.46Z"/><path class="f" d="M202.71,212.36l.46-.07c.02.18.1.32.21.42.12.1.28.15.49.15s.37-.04.47-.13c.1-.09.15-.19.15-.31,0-.1-.05-.19-.14-.25-.06-.04-.22-.09-.47-.16-.34-.09-.57-.16-.7-.22-.13-.06-.23-.15-.3-.26-.07-.11-.1-.23-.1-.37,0-.12.03-.23.08-.34.06-.1.13-.19.23-.26.07-.05.17-.1.29-.14s.26-.05.4-.05c.21,0,.4.03.56.09.16.06.28.14.36.25.08.1.13.25.16.42l-.45.06c-.02-.14-.08-.25-.18-.33-.1-.08-.24-.12-.42-.12-.21,0-.36.04-.45.11-.09.07-.14.15-.14.25,0,.06.02.11.06.16.04.05.1.09.18.12.05.02.18.06.41.12.33.09.56.16.69.21.13.06.23.14.31.24.07.11.11.24.11.4s-.05.3-.14.43c-.09.14-.22.24-.39.32-.17.07-.36.11-.57.11-.35,0-.62-.07-.81-.22-.19-.15-.3-.37-.36-.66Z"/><path class="f" d="M208.36,213.18v-.4c-.21.31-.5.46-.87.46-.16,0-.31-.03-.45-.09-.14-.06-.24-.14-.31-.23-.07-.09-.11-.21-.14-.34-.02-.09-.03-.24-.03-.43v-1.69h.46v1.51c0,.24,0,.41.03.49.03.12.09.22.19.29s.21.1.35.1.27-.04.39-.11c.12-.07.21-.17.26-.29.05-.12.08-.3.08-.53v-1.46h.46v2.73h-.41Z"/><path class="f" d="M212.34,212.83c-.17.15-.33.25-.49.31-.16.06-.33.09-.52.09-.3,0-.54-.07-.7-.22-.16-.15-.25-.33-.25-.56,0-.13.03-.25.09-.37.06-.11.14-.2.24-.27.1-.07.21-.12.34-.15.09-.02.23-.05.42-.07.38-.04.66-.1.83-.16,0-.06,0-.1,0-.12,0-.19-.04-.32-.13-.39-.12-.1-.3-.15-.53-.15-.22,0-.38.04-.49.11-.11.08-.18.21-.23.41l-.46-.07c.04-.19.11-.35.2-.47.1-.12.23-.21.41-.28.18-.06.38-.1.62-.1s.42.03.57.08c.15.05.25.12.32.21.07.08.12.19.14.31.02.08.02.22.02.43v.62c0,.43,0,.7.03.81.02.11.06.23.11.33h-.48c-.05-.1-.08-.21-.09-.35ZM212.32,211.81c-.17.07-.43.13-.77.17-.19.03-.33.06-.41.09-.08.03-.14.08-.19.15-.04.06-.07.14-.07.22,0,.12.05.23.14.31.1.08.24.12.42.12s.34-.04.48-.12c.14-.08.24-.18.31-.32.05-.11.08-.26.08-.46v-.17Z"/><path class="f" d="M214.52,213.18v-3.77h.46v3.77h-.46Z"/><path class="f" d="M218.69,214.23l.08-.39c.09.02.17.04.22.04.09,0,.16-.03.21-.1.05-.06.07-.22.07-.47v-2.87h.46v2.87c0,.34-.04.57-.13.7-.11.17-.3.26-.55.26-.12,0-.24-.02-.36-.05ZM219.27,209.94v-.53h.46v.53h-.46Z"/><path class="f" d="M221.32,211.81c0-.5.14-.88.42-1.12.24-.2.52-.3.86-.3.38,0,.68.12.92.37.24.24.36.58.36,1.02,0,.35-.05.63-.16.83-.1.2-.26.36-.46.47-.2.11-.42.17-.66.17-.38,0-.69-.12-.93-.37-.24-.24-.35-.6-.35-1.06ZM221.8,211.81c0,.35.08.61.23.78.15.17.34.26.58.26s.42-.09.57-.26c.15-.18.23-.44.23-.8,0-.34-.08-.59-.23-.76-.15-.17-.34-.26-.57-.26s-.42.09-.58.26c-.15.17-.23.43-.23.78Z"/><path class="f" d="M227.27,213.18v-.4c-.21.31-.5.46-.87.46-.16,0-.31-.03-.45-.09-.14-.06-.24-.14-.31-.23-.07-.09-.12-.21-.14-.34-.02-.09-.03-.24-.03-.43v-1.69h.46v1.51c0,.24,0,.41.03.49.03.12.09.22.19.29.1.07.21.1.35.1s.27-.04.39-.11c.12-.07.21-.17.26-.29.05-.12.08-.3.08-.53v-1.46h.46v2.73h-.41Z"/><path class="f" d="M229.46,213.18v-2.73h.41v.42c.11-.19.2-.32.29-.38.09-.06.19-.09.29-.09.16,0,.31.05.47.14l-.16.43c-.11-.06-.22-.09-.33-.09-.1,0-.19.03-.27.09-.08.06-.14.15-.17.25-.05.16-.08.34-.08.54v1.43h-.46Z"/><path class="f" d="M232.27,213.18v-2.73h.41v.39c.2-.3.49-.44.87-.44.16,0,.32.03.46.09.14.06.24.14.31.23.07.1.12.21.14.34.02.08.03.23.03.45v1.68h-.46v-1.66c0-.19-.02-.33-.06-.42-.04-.09-.1-.17-.19-.22-.09-.06-.2-.08-.32-.08-.2,0-.37.06-.51.19-.14.12-.22.36-.22.71v1.49h-.46Z"/><path class="f" d="M238.04,212.83c-.17.15-.33.25-.49.31-.16.06-.33.09-.51.09-.3,0-.54-.07-.7-.22-.16-.15-.24-.33-.24-.56,0-.13.03-.25.09-.37.06-.11.14-.2.24-.27.1-.07.21-.12.34-.15.09-.02.23-.05.42-.07.38-.04.65-.1.83-.16,0-.06,0-.1,0-.12,0-.19-.04-.32-.13-.39-.12-.1-.3-.15-.53-.15-.22,0-.38.04-.49.11-.1.08-.18.21-.23.41l-.46-.07c.04-.19.11-.35.2-.47.1-.12.23-.21.41-.28.18-.06.39-.1.62-.1s.42.03.57.08c.15.05.25.12.32.21.07.08.12.19.15.31.02.08.02.22.02.43v.62c0,.43.01.7.03.81.02.11.06.23.11.33h-.48c-.05-.1-.08-.21-.09-.35ZM238.02,211.81c-.17.07-.43.13-.77.17-.19.03-.33.06-.41.09-.08.03-.14.08-.19.15-.04.06-.06.14-.06.22,0,.12.05.23.14.31.09.08.23.12.42.12s.34-.04.48-.12c.14-.08.24-.18.31-.32.05-.11.08-.26.08-.46v-.17Z"/><path class="f" d="M240.22,213.18v-3.77h.46v3.77h-.46Z"/><path class="f" d="M242.28,212.36l.46-.07c.03.18.1.32.21.42.12.1.28.15.49.15s.37-.04.47-.13c.1-.09.15-.19.15-.31,0-.1-.05-.19-.14-.25-.06-.04-.22-.09-.47-.16-.34-.09-.57-.16-.7-.22-.13-.06-.23-.15-.3-.26-.07-.11-.1-.23-.1-.37,0-.12.03-.23.08-.34.06-.1.13-.19.23-.26.07-.05.17-.1.29-.14.12-.04.26-.05.4-.05.21,0,.4.03.56.09.16.06.28.14.36.25.08.1.13.25.16.42l-.45.06c-.02-.14-.08-.25-.18-.33-.1-.08-.24-.12-.42-.12-.21,0-.36.04-.45.11-.09.07-.14.15-.14.25,0,.06.02.11.06.16.04.05.1.09.18.12.05.02.18.06.41.12.33.09.55.16.69.21.13.06.23.14.31.24.07.11.11.24.11.4s-.04.3-.13.43c-.09.14-.22.24-.39.32-.17.07-.36.11-.57.11-.35,0-.62-.07-.81-.22-.18-.15-.3-.37-.36-.66Z"/><path class="c" d="M197.73,213.18l-1.03-2.73h.49l.59,1.63c.06.18.12.36.18.55.04-.14.1-.32.17-.52l.61-1.67h.47l-1.03,2.73h-.45Z"/><path class="c" d="M200.67,209.94v-.53h.46v.53h-.46ZM200.67,213.18v-2.73h.46v2.73h-.46Z"/><path class="c" d="M202.71,212.36l.46-.07c.02.18.1.32.21.42.12.1.28.15.49.15s.37-.04.47-.13c.1-.09.15-.19.15-.31,0-.1-.05-.19-.14-.25-.06-.04-.22-.09-.47-.16-.34-.09-.57-.16-.7-.22-.13-.06-.23-.15-.3-.26-.07-.11-.1-.23-.1-.37,0-.12.03-.23.08-.34.06-.1.13-.19.23-.26.07-.05.17-.1.29-.14s.26-.05.4-.05c.21,0,.4.03.56.09.16.06.28.14.36.25.08.1.13.25.16.42l-.45.06c-.02-.14-.08-.25-.18-.33-.1-.08-.24-.12-.42-.12-.21,0-.36.04-.45.11-.09.07-.14.15-.14.25,0,.06.02.11.06.16.04.05.1.09.18.12.05.02.18.06.41.12.33.09.56.16.69.21.13.06.23.14.31.24.07.11.11.24.11.4s-.05.3-.14.43c-.09.14-.22.24-.39.32-.17.07-.36.11-.57.11-.35,0-.62-.07-.81-.22-.19-.15-.3-.37-.36-.66Z"/><path class="c" d="M208.36,213.18v-.4c-.21.31-.5.46-.87.46-.16,0-.31-.03-.45-.09-.14-.06-.24-.14-.31-.23-.07-.09-.11-.21-.14-.34-.02-.09-.03-.24-.03-.43v-1.69h.46v1.51c0,.24,0,.41.03.49.03.12.09.22.19.29s.21.1.35.1.27-.04.39-.11c.12-.07.21-.17.26-.29.05-.12.08-.3.08-.53v-1.46h.46v2.73h-.41Z"/><path class="c" d="M212.34,212.83c-.17.15-.33.25-.49.31-.16.06-.33.09-.52.09-.3,0-.54-.07-.7-.22-.16-.15-.25-.33-.25-.56,0-.13.03-.25.09-.37.06-.11.14-.2.24-.27.1-.07.21-.12.34-.15.09-.02.23-.05.42-.07.38-.04.66-.1.83-.16,0-.06,0-.1,0-.12,0-.19-.04-.32-.13-.39-.12-.1-.3-.15-.53-.15-.22,0-.38.04-.49.11-.11.08-.18.21-.23.41l-.46-.07c.04-.19.11-.35.2-.47.1-.12.23-.21.41-.28.18-.06.38-.1.62-.1s.42.03.57.08c.15.05.25.12.32.21.07.08.12.19.14.31.02.08.02.22.02.43v.62c0,.43,0,.7.03.81.02.11.06.23.11.33h-.48c-.05-.1-.08-.21-.09-.35ZM212.32,211.81c-.17.07-.43.13-.77.17-.19.03-.33.06-.41.09-.08.03-.14.08-.19.15-.04.06-.07.14-.07.22,0,.12.05.23.14.31.1.08.24.12.42.12s.34-.04.48-.12c.14-.08.24-.18.31-.32.05-.11.08-.26.08-.46v-.17Z"/><path class="c" d="M214.52,213.18v-3.77h.46v3.77h-.46Z"/><path class="c" d="M218.69,214.23l.08-.39c.09.02.17.04.22.04.09,0,.16-.03.21-.1.05-.06.07-.22.07-.47v-2.87h.46v2.87c0,.34-.04.57-.13.7-.11.17-.3.26-.55.26-.12,0-.24-.02-.36-.05ZM219.27,209.94v-.53h.46v.53h-.46Z"/><path class="c" d="M221.32,211.81c0-.5.14-.88.42-1.12.24-.2.52-.3.86-.3.38,0,.68.12.92.37.24.24.36.58.36,1.02,0,.35-.05.63-.16.83-.1.2-.26.36-.46.47-.2.11-.42.17-.66.17-.38,0-.69-.12-.93-.37-.24-.24-.35-.6-.35-1.06ZM221.8,211.81c0,.35.08.61.23.78.15.17.34.26.58.26s.42-.09.57-.26c.15-.18.23-.44.23-.8,0-.34-.08-.59-.23-.76-.15-.17-.34-.26-.57-.26s-.42.09-.58.26c-.15.17-.23.43-.23.78Z"/><path class="c" d="M227.27,213.18v-.4c-.21.31-.5.46-.87.46-.16,0-.31-.03-.45-.09-.14-.06-.24-.14-.31-.23-.07-.09-.12-.21-.14-.34-.02-.09-.03-.24-.03-.43v-1.69h.46v1.51c0,.24,0,.41.03.49.03.12.09.22.19.29.1.07.21.1.35.1s.27-.04.39-.11c.12-.07.21-.17.26-.29.05-.12.08-.3.08-.53v-1.46h.46v2.73h-.41Z"/><path class="c" d="M229.46,213.18v-2.73h.41v.42c.11-.19.2-.32.29-.38.09-.06.19-.09.29-.09.16,0,.31.05.47.14l-.16.43c-.11-.06-.22-.09-.33-.09-.1,0-.19.03-.27.09-.08.06-.14.15-.17.25-.05.16-.08.34-.08.54v1.43h-.46Z"/><path class="c" d="M232.27,213.18v-2.73h.41v.39c.2-.3.49-.44.87-.44.16,0,.32.03.46.09.14.06.24.14.31.23.07.1.12.21.14.34.02.08.03.23.03.45v1.68h-.46v-1.66c0-.19-.02-.33-.06-.42-.04-.09-.1-.17-.19-.22-.09-.06-.2-.08-.32-.08-.2,0-.37.06-.51.19-.14.12-.22.36-.22.71v1.49h-.46Z"/><path class="c" d="M238.04,212.83c-.17.15-.33.25-.49.31-.16.06-.33.09-.51.09-.3,0-.54-.07-.7-.22-.16-.15-.24-.33-.24-.56,0-.13.03-.25.09-.37.06-.11.14-.2.24-.27.1-.07.21-.12.34-.15.09-.02.23-.05.42-.07.38-.04.65-.1.83-.16,0-.06,0-.1,0-.12,0-.19-.04-.32-.13-.39-.12-.1-.3-.15-.53-.15-.22,0-.38.04-.49.11-.1.08-.18.21-.23.41l-.46-.07c.04-.19.11-.35.2-.47.1-.12.23-.21.41-.28.18-.06.39-.1.62-.1s.42.03.57.08c.15.05.25.12.32.21.07.08.12.19.15.31.02.08.02.22.02.43v.62c0,.43.01.7.03.81.02.11.06.23.11.33h-.48c-.05-.1-.08-.21-.09-.35ZM238.02,211.81c-.17.07-.43.13-.77.17-.19.03-.33.06-.41.09-.08.03-.14.08-.19.15-.04.06-.06.14-.06.22,0,.12.05.23.14.31.09.08.23.12.42.12s.34-.04.48-.12c.14-.08.24-.18.31-.32.05-.11.08-.26.08-.46v-.17Z"/><path class="c" d="M240.22,213.18v-3.77h.46v3.77h-.46Z"/><path class="c" d="M242.28,212.36l.46-.07c.03.18.1.32.21.42.12.1.28.15.49.15s.37-.04.47-.13c.1-.09.15-.19.15-.31,0-.1-.05-.19-.14-.25-.06-.04-.22-.09-.47-.16-.34-.09-.57-.16-.7-.22-.13-.06-.23-.15-.3-.26-.07-.11-.1-.23-.1-.37,0-.12.03-.23.08-.34.06-.1.13-.19.23-.26.07-.05.17-.1.29-.14.12-.04.26-.05.4-.05.21,0,.4.03.56.09.16.06.28.14.36.25.08.1.13.25.16.42l-.45.06c-.02-.14-.08-.25-.18-.33-.1-.08-.24-.12-.42-.12-.21,0-.36.04-.45.11-.09.07-.14.15-.14.25,0,.06.02.11.06.16.04.05.1.09.18.12.05.02.18.06.41.12.33.09.55.16.69.21.13.06.23.14.31.24.07.11.11.24.11.4s-.04.3-.13.43c-.09.14-.22.24-.39.32-.17.07-.36.11-.57.11-.35,0-.62-.07-.81-.22-.18-.15-.3-.37-.36-.66Z"/></svg>