<?xml version="1.0" encoding="UTF-8"?><svg id="a" xmlns="http://www.w3.org/2000/svg" width="400" height="400" viewBox="0 0 400 400"><defs><style>.b{fill:#231f20;}</style></defs><path class="b" d="M272.38,154.3c-13.92,15.3-17.36,43.06-3.73,59.52.15.18,1.68,2.07,2.02,1.78.35-.29-1.26-2.12-1.4-2.3-6.29-7.59-6.31-20.17-4.97-29.34,1.35-9.3,5.15-18.59,11.51-25.58.54-.6-3.17-4.36-3.42-4.08Z"/><path class="b" d="M186.29,212.46c0,1.93-1.81,3.5-4.05,3.5s-4.05-1.57-4.05-3.5,1.81-3.51,4.05-3.51,4.05,1.57,4.05,3.51Z"/><path class="b" d="M257.94,212.46c0,1.93-1.81,3.5-4.05,3.5s-4.05-1.57-4.05-3.5,1.81-3.51,4.05-3.51,4.05,1.57,4.05,3.51Z"/><path class="b" d="M206.31,212.16c-3.84-1-9.94-2.72-11.83-6.57-1.49-3.01-.64-6.42,1.13-9.07,4.43-6.62,14.13-8.7,21.5-9.12,4.79-.27,9.62.38,14.19,1.79,3.97,1.22,8.98,3.29,10.03,7.68,2,8.38-8.49,13.4-14.83,15.15.1-.03,2.02,3.93,3.06,3.64,8.62-2.38,19.55-9.85,12.95-19.71-5.94-8.87-16.13-12.12-26.42-12.24-8.33-.09-24.3,3.11-25.38,13.74-.98,9.63,10.63,16.31,18.4,18.33-.27-.07-1.57-3.31-2.8-3.63Z"/><path class="b" d="M158.38,184.85c-7.86-2.53-22.63-1.73-28.67,5.62-.37-1.27-.87-2.51-1.52-3.67-.59-1.06-1.51-2.08-2.42-2.88-.71-.63-.86-.41-.43.36,1.96,3.52,2.08,8.33,1.78,12.39-.03.32-.07.64-.08.98-.03.82,1.4,2.15,1.89,2.69.11.12,1.53,1.63,1.57,1.11.19-5.47,4.63-9.12,9.22-11.3,6.15-2.92,13.52-3.15,20.06-1.69,2.92.65,5.73,1.85,8.21,3.51,2.45,1.64,2.99,4.53,2.55,7.32-.74,4.69-5.33,7.59-9.31,9.31-5.85,2.53-12.21,2.34-18.23,4.1-4.77,1.4-8.8,4.41-11.55,8.54-6.11,9.18-5.57,23.15-1.35,32.83.47,1.07,1.42,2.07,2.23,2.88.16.16,1.46,1.36,1.03.38-4.78-10.98-4.37-27.36,4.91-36.04,9.48-8.86,25.86-3.24,34.07-14.19,6.96-9.27-6.21-19.74-13.97-22.24Z"/></svg>