<?xml version="1.0" encoding="UTF-8"?><svg id="a" xmlns="http://www.w3.org/2000/svg" width="400" height="400" viewBox="0 0 400 400"><defs><style>.b{fill:#ec008c;}.c{fill:#fff;}.d{fill:none;stroke:#000;stroke-linejoin:round;stroke-width:.1px;}.e{fill:#fff200;}</style></defs><path class="b" d="M243.29,257.5h-87.52c-7.59,0-13.74-6.15-13.74-13.74v-87.53c0-7.59,6.15-13.74,13.74-13.74h87.52c7.59,0,13.74,6.15,13.74,13.74v87.53c0,7.59-6.15,13.74-13.74,13.74"/><path class="e" d="M164.28,231.36c0-1.08.87-1.95,1.95-1.95s1.95.87,1.95,1.95v.15c.9-1.15,2.08-2.2,4.05-2.2,1.79,0,3.15.79,3.87,2.18,1.2-1.41,2.64-2.18,4.51-2.18,2.9,0,4.64,1.74,4.64,5.05v7.15c0,1.08-.87,1.95-1.95,1.95s-1.95-.87-1.95-1.95v-5.87c0-1.85-.82-2.79-2.28-2.79s-2.36.95-2.36,2.79v5.87c0,1.08-.87,1.95-1.95,1.95s-1.95-.87-1.95-1.95v-5.87c0-1.85-.82-2.79-2.28-2.79s-2.36.95-2.36,2.79v5.87c0,1.08-.87,1.95-1.95,1.95s-1.95-.87-1.95-1.95v-10.15Z"/><path class="e" d="M198.97,236.51v-.05c0-2.02-1.46-3.79-3.61-3.79s-3.56,1.72-3.56,3.74v.05c0,2.02,1.46,3.79,3.61,3.79s3.56-1.72,3.56-3.74M187.95,236.51v-.05c0-3.95,3.18-7.15,7.46-7.15s7.41,3.15,7.41,7.1v.05c0,3.95-3.18,7.15-7.46,7.15s-7.41-3.15-7.41-7.1"/><path class="e" d="M205.74,247.12c-.56-.2-1.23-.67-1.23-1.61s.74-1.59,1.54-1.59c.31,0,.49.05.64.1.33.1.54.15.82.15.69,0,1.02-.13,1.38-.82l.13-.31-4.69-10.87c-.1-.26-.2-.64-.2-.9,0-1.1.85-1.87,1.92-1.87.97,0,1.54.54,1.87,1.46l2.97,7.99,2.87-7.97c.31-.82.87-1.49,1.87-1.49s1.85.77,1.85,1.79c0,.31-.1.74-.18.92l-4.79,11.51c-1.15,2.79-2.31,3.84-4.64,3.84-.87,0-1.49-.13-2.13-.36"/><path class="e" d="M229.83,236.51v-.05c0-2.02-1.46-3.79-3.61-3.79s-3.56,1.72-3.56,3.74v.05c0,2.02,1.46,3.79,3.61,3.79s3.56-1.72,3.56-3.74M218.81,236.51v-.05c0-3.95,3.18-7.15,7.46-7.15s7.41,3.15,7.41,7.1v.05c0,3.95-3.18,7.15-7.46,7.15s-7.41-3.15-7.41-7.1"/><path class="d" d="M155.76,142.5h87.52c7.58,0,13.74,6.16,13.74,13.74v87.52c0,7.58-6.16,13.74-13.74,13.74h-87.53c-7.58,0-13.74-6.16-13.74-13.74v-87.53c0-7.58,6.16-13.74,13.74-13.74Z"/><path class="c" d="M215.11,218.79c-1.2,0-2.39-.46-3.31-1.37-1.83-1.83-1.83-4.79,0-6.61l18.9-18.9c5.76-5.76,5.76-15.12,0-20.88-2.79-2.79-6.5-4.32-10.44-4.32s-7.65,1.54-10.44,4.32c-.88.88-1.64,1.85-2.26,2.9-1.68,2.82-4.76,4.57-8.04,4.57s-6.36-1.75-8.04-4.57c-.63-1.05-1.39-2.03-2.26-2.9-2.79-2.79-6.5-4.32-10.44-4.32s-7.65,1.54-10.44,4.32c-2.78,2.78-4.32,6.49-4.32,10.44s1.53,7.66,4.32,10.44l18.9,18.9c1.83,1.83,1.83,4.79,0,6.61s-4.79,1.83-6.61,0l-18.9-18.9c-9.4-9.4-9.4-24.7,0-34.11,4.55-4.56,10.61-7.06,17.05-7.06s12.5,2.51,17.05,7.06c1.42,1.42,2.66,3.02,3.69,4.73,1.02-1.72,2.26-3.31,3.69-4.73,4.56-4.56,10.61-7.06,17.05-7.06s12.5,2.51,17.05,7.06c9.4,9.4,9.4,24.7,0,34.11l-18.9,18.9c-.91.91-2.11,1.37-3.31,1.37"/></svg>