<?xml version="1.0" encoding="UTF-8"?><svg id="a" xmlns="http://www.w3.org/2000/svg" width="400" height="400" viewBox="0 0 400 400"><defs><style>.b{fill:gray;}.c{fill:#f05858;}</style></defs><path class="c" d="M196.32,217.82v-10.83c0-2.09,1.37-3.01,3.64-4,7.83-3.37,9.38-3.91,15.57-6.55,4.82-2.09,6.83-4,6.83-8.37v-13.56c0-5.37-4.28-9.65-9.74-9.65h-15.02c-5.37,0-9.56,4.28-9.56,9.65v7.07h8.37v-5.25c0-2.18,1.64-3.82,3.82-3.82h9.83c2.28,0,3.91,1.64,3.91,3.82v10.01c0,2.09-1.18,2.91-3.55,3.91-5.55,2.28-7.37,3-14.2,5.73-4.91,2-8.28,3.73-8.28,9.1v20.39h34.68v-7.64h-26.31Z"/><path class="c" d="M234.93,224.29l3.44-10.39v-37.59c0-2.18,1.64-3.82,3.82-3.82h9.9l2.53-7.64s-.02,0-.03,0h-15.04c-5.37,0-9.56,4.28-9.56,9.65v41.32c0,3.68,1.97,6.85,4.93,8.48"/><path class="c" d="M259.35,166.04l-3.39,10.23s0,.02,0,.03v37.68c0,2.18-1.64,3.82-3.82,3.82h-9.94l-2.53,7.65h14.93c5.46,0,9.74-4.28,9.74-9.65v-41.32c0-3.66-1.99-6.81-4.99-8.45"/><path class="b" d="M175.92,219.55h0v-44.59c0-5.92-4.28-10.1-10.1-10.1h-19.2c-5.73,0-10.01,4.19-10.01,10.1v40.4c0,5.82,4.28,10.1,10.01,10.1h19.53l-2.87-5.91h-15.02c-3.28,0-5.28-2-5.28-5.28v-38.22c0-3.28,2-5.28,5.28-5.28h16.01c3.28,0,5.28,2,5.28,5.28v43.49s0,0,0,0l7.58,15.61h6.33l-7.55-15.61Z"/></svg>