<?xml version="1.0" encoding="UTF-8"?><svg id="a" xmlns="http://www.w3.org/2000/svg" width="400" height="400" viewBox="0 0 400 400"><defs><style>.b{fill:#231f20;}</style></defs><path class="b" d="M200.47,142.3c1.58-3.22,3.15-6.44,4.71-9.63,3.17-1.53,6.33-2.98,9.48-4.34-3.17-1.8-6.34-3.55-9.5-5.21-1.57-3.27-3.13-6.52-4.68-9.75-1.55,3.23-3.1,6.48-4.66,9.75-3.16,1.66-6.32,3.41-9.5,5.21,3.15,1.37,6.31,2.82,9.48,4.34,1.56,3.2,3.11,6.41,4.69,9.63M215.24,140.1c-4.84,9.73-9.77,19.76-14.73,29.86-4.98-10.1-9.93-20.13-14.8-29.86-4.83.29-9.67.73-14.5,1.31-.24,16.78-.38,33.55-.41,50.32,4.02-.07,8.03-.12,12.05-.16.01-10.84.05-21.66.11-32.49,4.36,8.91,8.77,18.04,13.2,27.24,2.91,0,5.81,0,8.72,0,4.4-9.2,8.79-18.33,13.12-27.24.08,10.83.15,21.66.18,32.49,3.99.04,7.98.1,11.97.16-.03-16.78-.17-33.55-.41-50.32-4.83-.58-9.67-1.02-14.5-1.31M218.02,235.91c-4.34-8.93-8.74-18.08-13.15-27.28h-8.72c-4.43,9.2-8.85,18.35-13.23,27.28-.05-10.83-.09-21.66-.09-32.49-4.02-.02-8.03-.04-12.05-.07.02,16.78.13,33.55.35,50.32,4.84.53,9.69.93,14.54,1.2,4.88-9.75,9.84-19.8,14.83-29.9,4.97,10.11,9.9,20.15,14.76,29.9,4.84-.27,9.69-.67,14.54-1.2.22-16.78.34-33.55.35-50.32-3.99.03-7.98.05-11.98.07-.03,10.83-.09,21.66-.16,32.49M184.14,285.83c10.87,1.08,21.74,1.08,32.61,0-5.29-10.69-10.74-21.86-16.27-33.2-5.55,11.34-11.02,22.5-16.34,33.19"/></svg>