<?xml version="1.0" encoding="UTF-8"?><svg id="a" xmlns="http://www.w3.org/2000/svg" width="400" height="400" viewBox="0 0 400 400"><defs><style>.b{fill:#cd1b20;fill-rule:evenodd;}</style></defs><path class="b" d="M172.07,255.14c-3.11-7.88-4.78-17.18-6.25-26.64-.79-5.13-2-10.33-2.33-15.55-.11-1.7.34-3.31.24-4.98-.06-1.05-.55-1.88-.66-2.96-.47-4.27.25-8.72-.4-12.9-.57-3.65-2.15-7.47-2.43-11.44-.27-3.67-.5-8.75-.39-12.89.09-3.78-.62-8.94.56-11.69,1.32-3.11,8.17-7.55,13.31-8.62,1.1-.23,2.62-.41,3.56-.57,1.33-.24,2.01-.61,3.21-.84,2.04-.39,3.5-.32,5.55-.58,1.44-.18,3.44-.6,4.69-.67,2.04-.12,4.2.1,6.25-.11,3.03-.3,6.36-.33,9.61-.98,7.68-1.5,10.97-1.69,23.16-1.41.99-.04,2.38,7.93.83,10.28-1.56,2.34-6.06,1.61-10.85,1.74-4.39.12-7.14.07-10.54.21-8.07.31-13.74,2.55-21.54,2.82-1.17.04-4.01-.38-4.97-.25-1.35.19-3.05,1.12-5.04,1.7-1.97.58-3.81.98-4.36,2.08-1.05,2.13,0,7.56.18,10.11.68,10.5,2.31,23.13,3.66,34.62,1.25,10.58,3.21,21.52,4.69,34.1.24,2.02.34,6.47,3.01,5.15,1.62-.8,0-7.22-.35-9.67-.57-3.89-.79-8.6-1.07-10.47-1.15-7.66-2.01-12.05-2.79-18.53-.77-6.4-1.61-14.25-2.2-19.22-.95-7.99-3.76-17.62-.92-24.71,2.07-1.09,3.82-.54,5.98-.7,7.79-.57,17.17-2.42,24.89-3.95,5.42-1.07,10.24-1.32,15.67-.83,3.04.26,6.46.84,7.94,4.96,1.51,4.18.63,13.77,1.12,19.09.29,3.15.78,5.99,1.15,8.74.37,2.87,1.25,5.52,1.75,8.48,2.34,13.71,4.86,25.03,5.24,35.36.07,1.9-.26,4.84-.25,7.56.02,5.14.03,8.37-3.02,10.58-5.36,2-11.51,1.56-18.08,2.97-8.73,1.88-16.45,1.42-23.94,2.36-8.66,1.1-17.26,1.94-23.85-1.73"/></svg>