<?xml version="1.0" encoding="UTF-8"?><svg id="a" xmlns="http://www.w3.org/2000/svg" width="400" height="400" xmlns:xlink="http://www.w3.org/1999/xlink" viewBox="0 0 400 400"><defs><style>.c{fill:url(#b);}</style><linearGradient id="b" x1="117.71" y1="197.2" x2="278.97" y2="197.2" gradientUnits="userSpaceOnUse"><stop offset="0" stop-color="#fbc926"/><stop offset=".25" stop-color="#fffbcc"/><stop offset=".3" stop-color="#f8efba"/><stop offset=".41" stop-color="#e7d18d"/><stop offset=".55" stop-color="#cca246"/><stop offset=".6" stop-color="#c3922e"/><stop offset=".87" stop-color="#eed688"/><stop offset="1" stop-color="#fffbcc"/></linearGradient></defs><polygon points="249.34 181.32 245.76 203.22 240.2 209.44 257.14 212.21 253.86 204.54 255.36 195.37 262.98 213.17 274.56 215.06 279.28 186.22 284.83 180 267.92 177.23 271.18 184.85 270.17 191.03 264.64 176.69 246.06 173.65 249.34 181.32"/><path d="M177,188.08l2.62,6.35-4.26.22,1.64-6.57ZM207.16,178.32l-.96,22.17-4.2,6-4.73-3.85-13.57-30.63-16.33.86,3.89,5.11-7.41,26.49-4.53,5.1,17.73-.89-2.76-2.73-1.41-1.4.69-2.78,8.87-.47.95,2.3-3.02,4.9,21.67-1.14,16.52.71-4.17-7.23.4-9.28,9.68,16.76,11.73.51,1.26-29.2,4.78-6.84-17.12-.74,4.15,7.18-.27,6.25-7.19-13.58-18.81-.81,4.17,7.23Z"/><path d="M155.36,188.26l-2.07-17.77s-2.93,5.55-3.07,5.82c-1.77-.65-3.64-1.23-5.61-1.54-1.67-.26-3.36-.4-5.03-.4-2.4,0-4.75.27-6.97.81-1.16.28-2.28.67-3.34,1.16-1.13.52-2.79,1.42-4.28,2.71-4.63,4.03-7.12,10.95-6.34,17.63.61,5.25,3,9.7,7.1,13.21,2.99,2.56,6.92,4.08,11.36,4.4.37.03.74.04,1.12.04,3.43,0,6.58-1.11,9.62-2.18,2.38-.84,4.63-1.63,6.96-1.9.32-.04.76-.07,1.28-.1l1.82-.1-1.92-16.42,3.28-5.83-3.9.46ZM137.29,190.37l4.55,4.94c.21,1.8.86,7.41.87,7.49.04.36-.06.53-.16.65-.25.28-.9.59-1.95.59-.45,0-.93-.06-1.41-.17-4.72-1.12-6.55-6.31-6.26-10.66.1-1.47.4-2.85.83-3.76,1.78-3.8,6.59-5.25,10.5-5.35.13,0,.27,0,.4,0,1.83,0,3.37.31,4.56.94,1.13.59,2.52,1.83,2.96,2.25l1.23,1.2-16.13,1.88Z"/><path d="M217.65,218.12l.33.41c-.29-.43-.47-.9-.53-1.39-.14-1.34.78-2.56,1.69-3.25.87-.66,2.02-1.06,2.74-1.2,1.15-.23,2.39-.34,3.69-.34,1.52,0,3.12.16,4.66.46l2.23-2.41v7.44s-1.72-1.54-1.72-1.54c-.28-.25-.9-.39-1.4-.49l-.1-.02c-.64-.14-1.31-.23-2.07-.27h-.23c-.24-.03-.49-.04-.73-.04-.18,0-.34,0-.46.02.16.05.36.1.61.15.4.09.8.15,1.23.21.77.11,1.56.24,2.36.52.55.19,1.03.46,1.44.78.64.51,1.08,1.18,1.26,1.92.39,1.58-.51,3.03-1.4,3.8-.94.81-2.08,1.08-3.18,1.29-1.06.21-2.17.31-3.32.31-1.58,0-3.21-.19-4.86-.57l-2.24,2.53v-8.31ZM219.45,220.34c.4.28,2.19.72,2.77.8l.21.03c.43.05,1.07.13,1.71.13.91,0,1.26-.16,1.37-.23-.02-.02-.05-.05-.09-.07-.73-.39-1.63-.44-2.58-.49-1.03-.06-2.09-.12-3.14-.58-.53-.23-.99-.56-1.35-.94l1.1,1.36ZM194.95,224.95c-2.48,0-3.67-1.62-4.55-2.8-.35-.48-.69-.93-1.04-1.21-.11-.09-.23-.16-.36-.21v.99l1.65,2.27h-10.37l1.65-2.27v-6.91l-1.65-2.27h11.89c1.56,0,3.32.59,4.4,1.46.93.75,1.4,1.85,1.26,2.94-.13,1-.67,1.86-1.62,2.55-.23.17-.48.31-.75.43.52.53,1.15,1,1.94,1,.13,0,.27-.01.41-.04l1.64-.31-.46,1.6c-.12.4-.32.8-.65,1.26-.68.94-1.84,1.38-2.7,1.48-.23.03-.47.04-.69.04M189,217.14h1.6c.49,0,.91-.3.91-.66s-.41-.66-.9-.66h-1.6s0,1.31,0,1.31ZM207.84,224.54c-4.78,0-8.52-2.64-8.52-6s3.74-6,8.52-6,8.51,2.64,8.51,6-3.74,6-8.51,6M207.84,216.25c-1.02,0-1.86,1.03-1.86,2.29s.83,2.29,1.86,2.29,1.86-1.03,1.86-2.29-.83-2.29-1.86-2.29M235.55,224.51c-1.17,0-2.11-.95-2.11-2.11s.95-2.11,2.11-2.11,2.11.95,2.11,2.11-.95,2.11-2.11,2.11M162.28,223.98l1.65-2.27v-6.91l-1.65-2.27h12.77c2.96,0,4.31,1.61,4.31,3.11,0,.79-.38,1.45-.97,1.95.91.72,1.51,1.73,1.51,2.77,0,2.14-2.32,3.63-4.4,3.63h-13.23ZM171,220.91h1.6c.49,0,.91-.3.91-.66s-.41-.66-.91-.66h-1.6v1.31ZM172.6,216.55c.42,0,.73-.25.73-.47s-.31-.47-.73-.47h-1.6v.94h1.6Z"/><path d="M218.46,219.5l.33.41c-.29-.42-.47-.9-.53-1.39-.15-1.34.77-2.56,1.68-3.25.87-.66,2.02-1.06,2.74-1.2,1.15-.23,2.39-.34,3.69-.34,1.52,0,3.12.16,4.66.47l2.23-2.41v7.44s-1.72-1.54-1.72-1.54c-.28-.25-.9-.39-1.4-.49l-.1-.02c-.64-.14-1.31-.23-2.07-.27h-.23c-.24-.03-.49-.04-.73-.04-.18,0-.34,0-.46.02.16.05.36.1.61.15.4.09.8.15,1.23.21.77.12,1.56.23,2.36.52.54.19,1.03.46,1.44.78.64.51,1.08,1.18,1.26,1.92.39,1.58-.51,3.03-1.4,3.8-.94.81-2.08,1.08-3.17,1.29-1.06.21-2.17.31-3.32.31-1.58,0-3.21-.19-4.86-.57l-2.24,2.53v-8.31ZM220.25,221.71c.4.28,2.19.72,2.77.8l.22.03c.43.05,1.07.13,1.71.13.91,0,1.26-.16,1.37-.23-.02-.02-.05-.05-.1-.07-.73-.39-1.63-.44-2.57-.49-1.03-.06-2.09-.12-3.14-.58-.53-.24-.99-.56-1.35-.94l1.1,1.36ZM195.76,226.32c-2.48,0-3.67-1.62-4.55-2.8-.35-.48-.69-.93-1.04-1.21-.11-.09-.23-.16-.36-.21v.99l1.65,2.27h-10.37l1.65-2.27v-6.91l-1.65-2.27h11.89c1.56,0,3.32.59,4.4,1.46.93.75,1.4,1.85,1.26,2.94-.13,1-.67,1.86-1.62,2.55-.23.17-.48.31-.75.43.52.53,1.15,1,1.94,1,.13,0,.27-.01.41-.04l1.64-.31-.46,1.6c-.12.4-.32.8-.65,1.26-.68.94-1.84,1.38-2.7,1.48-.23.03-.46.04-.68.04M189.81,218.51h1.6c.49,0,.9-.3.9-.66s-.41-.66-.9-.66h-1.6v1.31ZM208.64,225.91c-4.78,0-8.52-2.64-8.52-6s3.74-6,8.52-6,8.51,2.63,8.51,6-3.74,6-8.51,6M208.64,217.63c-1.02,0-1.86,1.03-1.86,2.29s.83,2.29,1.86,2.29,1.86-1.03,1.86-2.29-.83-2.29-1.86-2.29M236.35,225.89c-1.17,0-2.11-.95-2.11-2.11s.95-2.11,2.11-2.11,2.11.95,2.11,2.11-.95,2.11-2.11,2.11M163.09,225.35l1.65-2.27v-6.91l-1.65-2.27h12.77c2.97,0,4.31,1.61,4.31,3.11,0,.79-.38,1.45-.97,1.95.91.72,1.51,1.73,1.51,2.77,0,2.14-2.32,3.63-4.4,3.63h-13.23ZM171.8,222.29h1.6c.49,0,.91-.3.91-.66s-.41-.66-.91-.66h-1.6v1.31ZM173.4,217.92c.42,0,.73-.25.73-.47s-.31-.47-.73-.47h-1.6s0,.94,0,.94h1.6Z"/><polygon points="265.41 174.77 268.67 182.39 267.66 188.57 262.13 174.23 243.55 171.19 246.83 178.86 243.25 200.76 237.69 206.98 254.63 209.75 251.35 202.08 252.85 192.91 260.47 210.7 272.05 212.6 276.77 183.75 282.32 177.53 265.41 174.77"/><path d="M222.61,169.59l4.15,7.18-.27,6.26-7.2-13.58-18.81-.81,4.17,7.23-.96,22.17-4.19,6-4.73-3.85-13.57-30.63-16.33.86,3.89,5.11-7.41,26.49-4.53,5.11,17.73-.89-2.76-2.73-1.41-1.4.7-2.78,8.87-.47.95,2.3-3.02,4.9,21.67-1.14,16.52.71-4.17-7.23.4-9.28,9.68,16.76,11.73.51,1.26-29.2,4.78-6.84-17.12-.74ZM172.85,192.18l1.64-6.57,2.62,6.35-4.26.22Z"/><path d="M152.85,185.8l-2.07-17.77s-2.93,5.55-3.07,5.82c-1.77-.65-3.64-1.23-5.6-1.54-1.67-.26-3.36-.4-5.03-.4-2.4,0-4.75.27-6.97.81-1.16.28-2.28.67-3.34,1.16-1.13.52-2.79,1.42-4.28,2.71-4.63,4.03-7.11,10.95-6.34,17.63.61,5.25,3,9.7,7.1,13.21,2.99,2.56,6.92,4.08,11.36,4.4.37.03.74.04,1.11.04,3.43,0,6.58-1.11,9.62-2.18,2.38-.84,4.63-1.63,6.96-1.9.32-.04.76-.07,1.28-.1l1.82-.1-1.92-16.42,3.28-5.83-3.9.46ZM134.78,187.91l4.55,4.94c.21,1.8.86,7.41.87,7.49.04.36-.06.53-.16.65-.25.28-.9.59-1.95.59-.45,0-.93-.06-1.41-.17-4.72-1.12-6.55-6.31-6.26-10.66.1-1.47.4-2.85.83-3.76,1.78-3.8,6.59-5.25,10.5-5.35.13,0,.27,0,.4,0,1.83,0,3.36.32,4.56.94,1.13.59,2.52,1.83,2.96,2.25l1.23,1.2-16.13,1.88Z"/><path class="c" d="M234.46,222.4c0,.6.49,1.09,1.09,1.09s1.09-.49,1.09-1.09-.49-1.09-1.09-1.09-1.09.49-1.09,1.09M204.95,218.54c0-1.83,1.29-3.31,2.88-3.31s2.88,1.48,2.88,3.31-1.29,3.32-2.88,3.32-2.88-1.48-2.88-3.32M200.35,218.54c0,2.75,3.35,4.97,7.49,4.97s7.49-2.23,7.49-4.97-3.35-4.97-7.49-4.97-7.49,2.23-7.49,4.97M169.97,218.57h2.62c1.07,0,1.93.75,1.93,1.68s-.86,1.68-1.93,1.68h-2.62v-3.37ZM169.97,214.58h2.62c.97,0,1.76.67,1.76,1.5s-.79,1.5-1.76,1.5h-2.62v-2.99ZM173.13,213.56h-8.83l.66.91v7.58l-.66.91h11.22c1.66,0,3.37-1.15,3.37-2.6s-1.74-2.79-3.4-2.79c1.36,0,2.86-.77,2.86-1.92s-1.21-2.08-3.29-2.08h-1.93ZM187.97,214.8h2.62c1.07,0,1.93.75,1.93,1.68s-.86,1.68-1.93,1.68h-2.62v-3.37ZM182.29,213.56l.66.91v7.58l-.66.91h6.34l-.66-.91v-2.44c.38-.05,1.24-.1,2.02.53,1.56,1.24,2.17,4.12,5.52,3.75.72-.08,1.54-.45,1.97-1.06.33-.46.45-.75.5-.95-2.59.49-3.94-2.28-4.52-2.59,1.13-.04,1.74-.36,2.12-.64.69-.51,1.12-1.12,1.21-1.85.08-.66-.17-1.43-.89-2.01-.92-.75-2.49-1.23-3.75-1.23h-3.14s-6.73,0-6.73,0ZM230.6,213.94c-2.71-.61-5.79-.78-8.52-.24-.67.13-1.65.51-2.32,1.02-.68.52-1.38,1.41-1.28,2.32.1.9.85,1.6,1.64,1.95,1.83.81,3.99.16,5.77,1.1.44.23.79.7.64,1.23-.4,1.42-3.49.95-4.44.84-.27-.03-2.95-.55-3.41-1.13v2.71l.86-.97c2.7.7,5.61.93,8.34.4.95-.18,1.95-.42,2.7-1.06.76-.65,1.33-1.74,1.07-2.77-.14-.57-.47-1.02-.91-1.36-.34-.27-.73-.47-1.14-.62-1.13-.4-2.31-.44-3.47-.69-.61-.13-2.65-.59-1.69-1.65.63-.71,1.94-.55,2.78-.51.75.04,1.5.13,2.24.29.65.14,1.46.3,1.97.76v-2.51l-.84.91ZM130.49,174.38c-1.03.25-2.06.6-3.02,1.05-1.35.62-2.75,1.47-3.87,2.45-4.42,3.85-6.43,10.44-5.76,16.14.56,4.83,2.73,8.87,6.51,12.1,2.92,2.5,6.58,3.72,10.37,3.99,6.1.44,11.44-3.34,17.37-4.04.35-.04.82-.08,1.39-.11l-1.77-15.16,1.9-3.38-15.3,1.78,2.65,2.88s.93,7.99.94,8.04c.29,2.52-2.52,3.66-5.61,2.93-5.58-1.32-7.93-7.16-7.58-12.44.09-1.41.38-3.08.99-4.37,2.08-4.44,7.45-6.22,12.01-6.33,1.97-.05,4.03.21,5.79,1.13,1.61.84,3.37,2.55,3.37,2.55l-1.16-9.9-1.21,2.29c-2.17-.85-4.37-1.63-6.68-1.99-1.57-.25-3.16-.38-4.76-.38-2.22,0-4.43.25-6.57.76M248.6,178.64l-3.74,22.88-3.81,4.27,3.03.5,4.72.77,3.03.49-2.25-5.26,2.53-15.46,9.56,22.33,4.24.69,4.72.77.83-5.05,3.69-22.59,3.81-4.27-10.76-1.76,2.23,5.22-2.11,12.89-7.45-19.3-6.79-1.11-4.72-.77-3.03-.5,2.25,5.26ZM174.09,180.16l5.52,13.39-8.98.47,3.46-13.86ZM168.18,171.93l2.45,3.21-7.74,27.69-2.09,2.35,9.78-.49-.04-.04-2.06-2.04,1.24-4.96,11.34-.59,1.74,4.22-1.77,2.86,14.94-.79-2.6-2.12-13.26-29.93-11.93.63ZM206.38,175.43l-1,23.16-3.28,4.69,3.07.13,4.78.21,3.07.13-2.86-4.96.68-15.65,12.15,21.04,4.3.19,4.78.21.22-5.12.99-22.87,3.28-4.69-10.9-.47,2.84,4.92-.56,13.05-9.69-18.28-6.87-.3-4.78-.21-3.07-.13,2.86,4.96Z"/><path d="M192.57,251.67c-.76,0-1.42.5-2.18,1.26-.63.66-1.71,1.9-2.54,2.93-.08,0-.15,0-.22.01-.13,0-.26.02-.43.02h-.17c-.41.04-.77.06-.83.38-.03.15.02.24.07.3.12.14.3.14.5.14.13,0,.23-.02.33-.02-.39.37-.85.82-1.3,1.24-.06.04-.12.09-.17.13h-.01c-.61.59-1.21,1.08-1.76,1.43-.04.02-.07.05-.1.07.04-.09.08-.18.12-.27.28-.78.29-1.63.03-2.53-.09-.31-.09-.45.02-.56.08-.07.18-.13.31-.2.1-.06.21-.13.33-.21.44-.31.62-.6.54-.86-.07-.22-.29-.32-.66-.32-.2,0-.58.05-.97.38l-.02.02c-.13.14-.37.46-.46.62-.57.5-1.13.97-1.61,1.34-.2.14-.39.28-.57.42-.22.17-.43.32-.61.44-.06.04-.1.07-.14.11-.16-.11-.36-.17-.57-.17h0c-.57-.03-1.24.41-1.53,1.13-.27.21-.55.42-.81.6-.87.61-1.75.97-2.4.97-.02,0-.05,0-.08,0-.26,0-.38-.13-.38-.41,0-.1.05-.23.1-.37.64-.16,1.72-.47,2.59-.89.87-.44,1.87-1.06,1.94-2,.02-.25-.07-.5-.25-.69-.17-.18-.48-.39-1.05-.39h-.03c-1.25,0-2.86.75-3.83,1.44-.13.1-.26.2-.38.3,0,0-.01,0-.01,0,0,0-.02.02-.05.07-.31.28-.58.59-.79.91-.66.66-1.68,1.48-2.99,1.9-.19.06-.69.08-.77.29-.3.79,1.02.44,1.36.35.69-.19,1.26-.47,1.82-.87,0,.34.12.63.34.86.34.35.91.53,1.69.53.04,0,.07,0,.11,0,1.1-.03,2.43-.52,3.57-1.32.07-.05.14-.1.21-.16.06.29.2.56.41.79.28.31.83.68,1.81.68s1.94-.28,2.55-.51c.78-.3,1.42-.63,1.91-.98.43-.3.85-.66,1.19-.97-.27.53-.41.97-.42,1.35,0,.7.49,1.12,1.3,1.12,1.24,0,2.31-.84,2.88-1.29h.01c.66-.51,1.39-1.23,1.69-1.54.11-.12.46-.48.22-.72-.06-.07-.15-.1-.24-.1-.15,0-.29.08-.47.27-.14.12-.32.28-.51.45-.26.23-.54.49-.81.72-.5.42-1.03.74-1.2.84-.3.14-.42.11-.43.11-.03-.02-.05-.21.1-.5.35-.77,1.34-2.29,1.92-3.04.57-.02.96-.02,1.54-.02.03,0,.07,0,.11,0,.05,0,.09,0,.14,0,.33,0,.45-.16.49-.29.04-.11.03-.22-.03-.31-.04-.05-.14-.2-.57-.2h0c-.35-.02-.66-.03-1.05-.02.41-.53.8-1.02,1.28-1.6l.09-.11c.73-.9,1.34-1.59,1.63-1.85l.2-.17-.18-.19c-.16-.17-.42-.25-.82-.25M175.89,257.45c.78-.81,1.16-.88,1.26-.88.03,0,.05,0,.05,0,0,.01,0,.04,0,.09-.04.28-.36.89-1.09,1.42-.35.26-.76.48-1.24.66.31-.47.71-.97,1.01-1.29M182.26,257.34c-.23.62-.51,1.38-.84,1.96-.54.9-1.09,1.38-1.58,1.38-.24,0-.52-.08-.52-.44,0-.27.29-.54.45-.66.39-.27.6-.57.63-.91,0-.03,0-.06,0-.09.06-.02.13-.05.2-.09.25-.12.86-.55,1.23-.84.11-.09.23-.19.35-.29.04-.03.08-.06.11-.09,0,.02-.02.05-.03.07"/><path d="M192.76,259.14h-.03c-.58,0-1.28.1-1.53.82-.19.47-.17,1.11.06,1.43l.08.12h.14c.42-.05,1.3-.47,1.79-1.07.34-.46.27-.78.19-.94-.12-.23-.37-.36-.7-.36"/><path d="M202.35,260.12l.1-.15c.83-1.22,2.16-3.15,4.2-5.72.42-.54.64-.84.51-1.1-.05-.09-.15-.21-.4-.21-.13,0-.55,0-2.02.88-.71.46-1.65,1-2.45,1.41-.69.37-1.1.55-1.34.65-.26.11-.53.23-.41.53v.02c.1.19.32.19.41.19.36,0,1.01-.15,1.58-.45.17-.09.34-.18.51-.28-1.15,1.31-2.58,3.07-3.46,4.25-.53.72-.72,1.02-.59,1.27.05.09.15.2.38.2.07,0,.15,0,.26-.02,1.89-.31,2.03-.43,2.73-1.46"/><path d="M213.08,254.79c-.12-1.02-.91-1.72-1.95-1.76-.08,0-.16,0-.25,0-1.28,0-3.12.67-4.13,2.15-.63.93-.8,1.93-.45,2.68.25.54.74.88,1.38.96.58.08,1.15-.09,1.73-.5-.74,1.09-2.04,2.59-3.21,3.5-1.39,1.07-2.55,1.6-3.56,1.6h-.03c-.49,0-.96-.24-1.13-.58,0-.02-.02-.04-.02-.06-.04-.1-.13-.29-.34-.29-.04,0-.07,0-.11.02-.22.08-.29.35-.18.69v.02c.27.61.91.98,1.83,1.05.11,0,.22.01.33.01,2.59,0,6.38-2.26,8.45-5.03,1.12-1.5,1.78-3.28,1.65-4.44M211.36,254.39c-.07.71-.44,1.55-1.35,2.98,0-.01-.02-.03-.03-.04-.06-.08-.14-.12-.24-.12-.14,0-.24.09-.36.19-.04.04-.09.08-.14.12-.35.28-.72.44-.98.44-.05,0-.1,0-.15-.02-.04-.01-.09-.04-.13-.14-.11-.3.03-1.02.59-1.88.85-1.28,1.83-2.1,2.48-2.1.03,0,.07,0,.1,0h.02c.07,0,.1.03.12.06.07.09.1.28.07.51"/><path d="M220.44,253.15c-.05-.09-.15-.21-.4-.21-.13,0-.55,0-2.02.88-.71.47-1.65,1-2.44,1.41-.69.37-1.1.55-1.34.65-.27.12-.53.23-.41.53v.02c.1.19.32.19.41.19.36,0,1.01-.15,1.58-.45.17-.09.34-.18.51-.28-1.15,1.31-2.58,3.07-3.46,4.25-.53.72-.72,1.02-.59,1.27.05.09.15.2.38.2.07,0,.15,0,.26-.03,1.89-.31,2.03-.43,2.72-1.46l.1-.15c.83-1.22,2.16-3.15,4.2-5.72.43-.56.63-.84.51-1.1"/><path d="M227.4,253.47c-.02-.08-.08-.14-.15-.18-.04-.02-.09-.03-.14-.03-.11,0-.19.05-.26.1-.02.01-.04.03-.07.04-.25.09-.49.15-.67.15-.3,0-.69-.05-1.01-.13-.39-.11-.64-.24-.98-.43l-.02-.02c-.18-.14-.29-.23-.42-.23h-.03c-.27,0-.39.23-.44.33-.42.7-.83,1.32-1.44,2.04-.43.52-.92,1.04-1.45,1.54-.12.12-.41.42-.41.72,0,.12.05.22.14.3.08.07.17.1.27.1.22,0,.39-.17.54-.32.18-.18.32-.3.49-.39.19-.1.38-.15.59-.15.03,0,.07,0,.11,0,.21.01.4.11.52.26.14.17.18.41.13.69-.27,1.55-1.67,2.86-3.05,2.86-.35,0-.56-.12-.58-.23.02-.12.11-.23.28-.36.17-.12.58-.4.58-.89.01-.27-.07-.51-.23-.68-.19-.19-.47-.31-.8-.31-.84,0-1.54.63-1.63,1.47-.04.41.07.77.33,1.06.4.44,1.14.7,2.03.7,1.98,0,5.08-1.13,5.48-3.19.1-.56-.01-1.07-.34-1.46-.44-.53-1.22-.83-2.15-.83-.22,0-.44.03-.66.07.37-.42.7-.82.95-1.14.39.19.99.33,1.58.35.63.03,1.36-.15,1.83-.44.39-.2.8-.58.95-.88.13-.24.16-.38.13-.51"/><path d="M142.88,231.32c-1-.57-2.45-.85-4.37-.85h-9.49v3.56h1.63v9.4h-1.63v3.56h9.6v-3.56h-1.93v-2.31h1.94c.97,0,1.86-.08,2.67-.25.94-.19,1.77-.58,2.5-1.19,1.12-.93,1.67-2.22,1.67-3.88,0-2-.87-3.49-2.6-4.48M139.22,237.01c-.32.38-.83.57-1.53.57h-1v-3.55h1c.7,0,1.21.19,1.53.57.26.32.39.73.39,1.21s-.13.88-.39,1.2"/><path d="M163.95,241.87c0-1.04-.25-1.77-.76-2.18-.48-.35-1.34-.62-2.57-.8.86-.27,1.54-.56,2.04-.88,1.04-.68,1.56-1.67,1.56-2.99,0-.73-.17-1.4-.49-2.03-.49-.93-1.3-1.61-2.43-2.03-.86-.32-2.17-.48-3.92-.48h-9.97v3.56h1.63v9.4h-1.63v3.56h9.31v-3.56h-1.63v-3h1.03c1.13,0,1.8.41,2,1.22.04.18.06.54.06,1.08v4.26h7.23v-3.56h-1.43v-1.56ZM155.96,237.26h-.89v-3.23h.89c1.6,0,2.41.54,2.41,1.62s-.8,1.61-2.41,1.61"/><polygon points="167.82 234.03 169.46 234.03 169.46 243.43 167.82 243.43 167.82 246.99 177.13 246.99 177.13 243.43 175.5 243.43 175.5 234.03 177.13 234.03 177.13 230.47 167.82 230.47 167.82 234.03"/><polygon points="191.01 234.03 192.64 234.03 192.64 239.18 187.27 230.47 180.17 230.47 180.17 234.03 181.8 234.03 181.8 243.43 180.17 243.43 180.17 246.99 187.27 246.99 187.27 243.43 185.64 243.43 185.64 237.87 191.19 246.99 196.1 246.99 196.1 234.03 197.73 234.03 197.73 230.47 191.01 230.47 191.01 234.03"/><polygon points="200.14 237.31 203.7 237.31 203.7 234.03 205.33 234.03 205.33 243.43 203.4 243.43 203.4 246.99 213.29 246.99 213.29 243.43 211.38 243.43 211.38 234.03 212.99 234.03 212.99 237.31 216.55 237.31 216.55 230.47 200.14 230.47 200.14 237.31"/><polygon points="219 234.03 220.63 234.03 220.63 243.43 219 243.43 219 246.99 228.31 246.99 228.31 243.43 226.68 243.43 226.68 234.03 228.31 234.03 228.31 230.47 219 230.47 219 234.03"/><polygon points="242.12 234.03 243.75 234.03 243.75 239.18 238.38 230.47 231.28 230.47 231.28 234.03 232.91 234.03 232.91 243.43 231.28 243.43 231.28 246.99 238.38 246.99 238.38 243.43 236.75 243.43 236.75 237.87 242.31 246.99 247.21 246.99 247.21 234.03 248.84 234.03 248.84 230.47 242.12 230.47 242.12 234.03"/><path d="M263.5,238.41h-3.67v3.3h1.83c-.19,1.54-.86,2.3-2.03,2.3-.71,0-1.27-.29-1.66-.88-.49-.71-.73-2.09-.73-4.14,0-1.46.13-2.62.41-3.49.39-1.21,1.18-1.82,2.36-1.82.39,0,.75.08,1.05.23.53.26.89.62,1.11,1.09.2.44.32,1.01.38,1.73h3.56v-6.27h-3.56v.94c-1.17-.85-2.55-1.27-4.15-1.27-1.27,0-2.44.25-3.49.76-1.05.52-1.93,1.25-2.64,2.21-1.17,1.6-1.76,3.54-1.76,5.82,0,3.31,1.22,5.69,3.67,7.14,1.39.83,3.04,1.25,4.95,1.25,1.62,0,3.08-.29,4.37-.88.11-.05.22-.11.33-.17v.7h3.21v-8.57h-3.56Z"/></svg>