<?xml version="1.0" encoding="UTF-8"?><svg id="a" xmlns="http://www.w3.org/2000/svg" width="400" height="400" viewBox="0 0 400 400"><defs><style>.b{fill:#231f20;}</style></defs><path class="b" d="M154.23,171.41v-2.04h-2.18l-9.5,23.52h3l8.68-21.48ZM116.83,256.19v2.04h2.18l9.5-23.52h-3l-8.68,21.48ZM96.33,201.56c-7.49,0-11.14,6-11.14,12.19,0,7.73,4.32,12.29,11.28,12.29,6.38,0,8.93-4.13,9.65-5.86v-1.2h-1.2c-.86,3.07-3.98,5.62-8.45,5.62-5.52,0-9.46-3.46-9.7-10.61h19.82s.1-.62.1-2.11c0-5.71-3.84-10.32-10.37-10.32ZM86.82,212.55c.53-6.05,4.22-9.55,9.5-9.55s8.78,3.36,8.78,9.55h-18.29ZM120.89,225.56l9.41-22.37v-1.15h-1.15l-8.98,21.21-8.98-21.21h-1.25v1.25l9.5,22.27h1.44ZM130.27,225.56h1.58l9.5-23.52h-1.58l-9.5,23.52ZM77.59,207.51c-1.73-4.7-5.71-5.95-9.31-5.95-6.05,0-11.23,4.85-11.23,12.19s4.9,12.29,11.23,12.29c3.7,0,7.06-1.58,9.17-5.81l.48,5.33h1.25v-36h-1.58v17.95ZM68.28,224.6c-4.22,0-9.65-3.26-9.65-10.85,0-6.05,4.08-10.75,9.7-10.75,5.95,0,9.26,4.66,9.26,10.75,0,8.16-5.28,10.85-9.31,10.85ZM268.84,202.04h-2.29v18.19l.48,5.33h2.52v-17.66l-.14-5.85h-.56ZM286.93,201.56c-4.61,0-7.58,2.69-8.45,6.34l-.14-5.86h-1.25v23.52h1.58v-12.91c0-6.24,3.41-9.65,8.06-9.65,5.52,0,7.3,3.55,7.3,9.7v12.86h1.58v-13.58c0-6.43-2.4-10.42-8.69-10.42ZM312.29,201.56c-7.49,0-11.14,6-11.14,12.19,0,7.73,4.32,12.29,11.28,12.29,6.38,0,8.93-4.13,9.65-5.86v-1.2h-1.2c-.86,3.07-3.98,5.62-8.45,5.62-5.52,0-9.46-3.46-9.7-10.61h19.82s.1-.62.1-2.11c0-5.71-3.84-10.32-10.37-10.32ZM302.79,212.55c.53-6.05,4.22-9.55,9.5-9.55s8.78,3.36,8.78,9.55h-18.29ZM336.79,213.46l-2.64-.62c-3.41-.82-5.38-1.92-5.38-4.9s2.59-4.94,6.53-4.94,6.24,1.49,7.01,4.99h1.2v-1.2c-.62-3.22-3.74-5.23-8.21-5.23s-8.11,2.64-8.11,6.38c0,3.98,2.98,5.42,6.29,6.19l3.02.72c3.6.86,5.81,2.02,5.81,5.04,0,2.64-2.4,4.7-6.48,4.7s-6.86-1.87-8.02-5.42h-1.2v1.2c1.39,3.55,4.46,5.66,9.22,5.66,5.52,0,8.06-2.64,8.06-6.14,0-4.08-3.46-5.57-7.1-6.43ZM178.94,224.6c-3.7,0-5.33-2.5-5.33-6.48v-14.64h9.41v-1.44h-9.41v-6.48h-1.25l-.14,6.48h-4.08v1.44h3.89v15.07c0,5.09,3.12,7.49,6.86,7.49s5.62-2.59,6.05-5.14v-1.2h-1.2c-.24,2.4-1.44,4.9-4.8,4.9ZM198.9,201.56c-7.49,0-11.14,6-11.14,12.19,0,7.73,4.32,12.29,11.28,12.29,6.38,0,8.93-4.13,9.65-5.86v-1.2h-1.2c-.86,3.07-3.98,5.62-8.45,5.62-5.52,0-9.46-3.46-9.7-10.61h19.82s.1-.62.1-2.11c0-5.71-3.84-10.32-10.37-10.32ZM189.4,212.55c.53-6.05,4.22-9.55,9.5-9.55s8.78,3.36,8.78,9.55h-18.29ZM257.42,225.56h1.58v-36h-1.58v36ZM154.94,201.56c-6.86,0-8.35,4.85-8.35,4.85v1.2h1.2s.91-4.61,7.1-4.61c4.66,0,6.91,2.74,6.91,7.63v2.11s-2.98-.58-6.67-.58c-7.01,0-9.79,2.93-9.79,6.86s2.59,7.01,8.35,7.01c4.08,0,6.96-2.3,8.3-6.19l.14,5.71h1.25v-14.83c0-6-2.93-9.17-8.45-9.17ZM161.8,215.77c0,4.13-2.45,8.88-8.06,8.88-4.51,0-6.91-2.11-6.91-5.62,0-2.83,1.82-5.47,8.26-5.47,4.03,0,6.72.58,6.72.58v1.63ZM234.52,207.51c-1.73-4.7-5.71-5.95-9.31-5.95-6.05,0-11.23,4.85-11.23,12.19s4.9,12.29,11.23,12.29c3.7,0,7.06-1.58,9.17-5.81l.48,5.33h1.25v-36h-1.58v17.95ZM225.21,224.6c-4.22,0-9.65-3.26-9.65-10.85,0-6.05,4.08-10.75,9.7-10.75,5.95,0,9.26,4.66,9.26,10.75,0,8.16-5.28,10.85-9.31,10.85Z"/></svg>