<?xml version="1.0" encoding="UTF-8"?><svg id="a" xmlns="http://www.w3.org/2000/svg" width="400" height="400" viewBox="0 0 400 400"><defs><style>.b{fill:#95d4e9;}.c{fill:#023347;}.d{fill:#b4d500;}.e{fill:#ff4e4f;}.f{fill:none;stroke:#023347;stroke-miterlimit:10;stroke-width:3.3px;}</style></defs><path class="f" d="M161.05,204.83l-.28-6.27c-1.01-.57-2.53-1.36-3.64-1.33l-.02-.73c1.13-.02,2.41.55,3.61,1.21l-.21-4.63c-3.52.64-6.74,2.16-9.22,4.4,2.2,3.36,5.67,5.94,9.75,7.34ZM156.54,217.54l-.05-.73c1.56-.1,5.15-2.93,6.53-4.8l-1.71-1.2-.19-4.18c-.91-.28-1.79-.62-2.64-1.01-4.02,4.23-6.65,9.43-7.4,14.84,2.5.83,5.17,1.25,7.96,1.25,4.51,0,9.02-1.1,13.22-3.2l-8.65-6.08c-1.47,1.99-5.14,4.99-7.08,5.11ZM237.83,214.21c-.19-.32-.39-.64-.59-.95-.06-.09-.12-.18-.18-.28-.25-.37-.51-.74-.79-1.1-.26-.33-.53-.65-.8-.97l-.34,4.03-1.64,1.89c.22.99.86,2.15,1.49,3.28.56,1,1.08,1.94,1.33,2.78l-.7.21c-.23-.77-.74-1.67-1.27-2.64-.56-.99-1.12-2.02-1.43-2.97l-4.41,5.09c3.39,3.1,7.59,4.96,11.83,5.17.91-4.37.03-9.16-2.38-13.37-.04-.06-.07-.13-.11-.19ZM242.17,198.72l-6.18,6.04-.1,1.17c3.34-.5,9.2,1.09,11.04,3.59l-.59.43c-1.71-2.32-7.48-3.82-10.51-3.27l-.16,1.95c.69.69,1.35,1.42,1.95,2.21,1.46,1.88,2.59,3.94,3.39,6.07,5.88-.15,11.42-2,15.73-5.26-2.88-5.73-8.12-10.34-14.56-12.93Z"/><polygon class="b" points="118.74 196.39 120.08 196.67 120.48 194.71 125.96 195.82 126.23 194.46 120.76 193.35 121.16 191.39 119.81 191.11 118.74 196.39"/><polygon class="b" points="123.64 179.29 126.13 180.26 125.1 182.92 122.61 181.95 122.11 183.25 128.6 185.77 129.1 184.47 126.38 183.41 127.41 180.75 130.13 181.81 130.64 180.51 124.15 177.99 123.64 179.29"/><polygon class="b" points="128 170.23 133.97 173.81 136.53 169.54 135.36 168.84 133.52 171.92 132.07 171.05 133.1 169.33 131.94 168.64 130.91 170.35 129.88 169.73 131.65 166.78 130.49 166.08 128 170.23"/><path class="b" d="M149.89,154.11l-1.45-.77-1.87,1.73.65,1.51-1.1,1.01-2.76-6.92.99-.92,6.67,3.32-1.13,1.04ZM146,152.07c-.38-.21-.77-.42-.99-.56.12.24.31.64.48,1.03l.53,1.23,1.17-1.08-1.19-.63Z"/><polygon class="b" points="156.57 148.85 152.76 143.02 153.93 142.26 156.99 146.94 159.91 145.03 160.66 146.18 156.57 148.85"/><path class="b" d="M169.68,141.59l-2.9,1.27-2.8-6.38,2.93-1.28c1.24-.54,2.28-.29,2.76.8.24.55.18,1.1-.13,1.53.61,0,1.2.3,1.5,1,.59,1.34,0,2.46-1.36,3.06M167.37,136.4l-1.62.71.53,1.21,1.69-.74c.53-.23.61-.56.46-.92-.18-.4-.5-.51-1.05-.27M168.47,138.71l-1.69.74.72,1.65,1.69-.74c.62-.27.77-.73.55-1.23-.24-.55-.65-.69-1.27-.42"/><polygon class="b" points="178.71 138.35 177.01 131.59 181.7 130.41 182.04 131.74 178.7 132.57 178.99 133.74 180.93 133.25 181.26 134.57 179.32 135.05 179.73 136.68 183.21 135.81 183.54 137.13 178.71 138.35"/><path class="b" d="M194.64,135.67l-1.43-2.4-1.4.11.19,2.5-1.39.11-.54-6.94,3.23-.25c1.31-.1,2.44.54,2.56,2.01.08,1.04-.31,1.73-1.17,2.15l1.54,2.59-1.6.12ZM193.38,130.14l-1.81.14.14,1.78,1.81-.14c.64-.05.97-.37.92-.98-.05-.62-.45-.85-1.06-.8"/><polygon class="b" points="206.56 130.29 206.1 135.86 204.71 135.74 205.17 130.17 203.18 130 203.29 128.64 208.66 129.08 208.55 130.45 206.56 130.29"/><rect class="b" x="213.13" y="133.32" width="6.96" height="1.39" transform="translate(37.71 315.34) rotate(-77.13)"/><path class="b" d="M227.91,141.26l-.99-4.47c-.06-.3-.15-.71-.17-.91-.1.24-.4,1.06-.54,1.42l-1.12,2.85-1.28-.5,2.55-6.48,1.24.49.95,4.33c.06.3.15.71.17.91.1-.24.4-1.06.54-1.42l1.08-2.74,1.28.5-2.55,6.48-1.16-.45Z"/><path class="b" d="M239.7,147.49l.35-1.61-2.17-1.33-1.28,1.03-1.27-.78,5.92-4.53,1.15.71-1.4,7.31-1.31-.8ZM240.61,143.19c.09-.42.2-.85.27-1.11-.19.18-.53.47-.86.74l-1.04.84,1.36.83.28-1.31Z"/><path class="b" d="M255.86,161.64l1.24-3.65-1.72.05-1.53,1.37-.93-1.04,5.19-4.65.93,1.04-1.47,1.32c-.19.17-.67.58-.84.72.19-.03.59-.05.89-.06l3.07-.13,1.12,1.25-3.15.09-1.69,4.94-1.11-1.24Z"/><polygon class="b" points="260.99 168.35 266.88 164.63 269.46 168.71 268.31 169.44 266.47 166.53 265.45 167.18 266.52 168.87 265.38 169.59 264.31 167.9 262.89 168.8 264.81 171.83 263.65 172.56 260.99 168.35"/><path class="b" d="M268.52,182.64l1.83-2.12-.54-1.29-2.31.97-.54-1.29,6.43-2.69,1.25,2.99c.51,1.21.25,2.49-1.11,3.07-.96.4-1.74.24-2.41-.44l-1.98,2.27-.62-1.48ZM273.38,179.71l-.7-1.68-1.65.69.7,1.68c.25.6.66.8,1.22.57.58-.24.67-.69.43-1.26"/><path class="b" d="M272.19,194.88l2.17-1.77-.31-1.37-2.44.55-.31-1.36,6.79-1.54.72,3.16c.29,1.28-.18,2.5-1.62,2.83-1.02.23-1.76-.06-2.29-.85l-2.34,1.9-.36-1.56ZM277.48,192.83l-.4-1.78-1.75.4.4,1.78c.14.63.51.9,1.1.77.61-.14.78-.57.64-1.17"/><path class="d" d="M170.05,256.36h4.18c.23,0,.39-.16.39-.39h0s-4.57,0-4.57,0v.39Z"/><path class="d" d="M173.06,243.73v.78c0,.23.16.39.39.39h2.35c.23,0,.39-.16.39-.39h0s-2.32,0-2.32,0c-.23,0-.39-.16-.39-.39v-.78s-3.42,0-3.42,0v.39s3.01,0,3.01,0Z"/><path class="d" d="M209.85,243.73h.78s0,20.15,0,20.15c.12-.11.26-.19.41-.24v-20.3s-.78,0-.78,0c-.23,0-.39-.16-.39-.39v-2.15s-.02,0-.02,0c-.23,0-.39.16-.39.39v2.15c0,.23.16.39.39.39"/><path class="d" d="M159.18,247.84h0s-2.32,0-2.32,0c-.23,0-.39-.16-.39-.39v-3.72c0-.23-.16-.39-.39-.39h-3.81s0,.39,0,.39h3.4c.23,0,.39.16.39.39v3.71c0,.24.16.39.39.39h2.35c.23,0,.39-.16.39-.39"/><path class="d" d="M220.02,244.12v7.64s.41,0,.41,0v-8.03c0-.24-.16-.39-.39-.39h-3.81s0,.39,0,.39h3.4c.24,0,.39.16.39.39"/><path class="d" d="M156.44,261.52c-.23,0-.39.16-.39.39v1.66s.41,0,.41,0v-2.05s-.02,0-.02,0Z"/><path class="d" d="M163.67,243.73h.78s0,20.15,0,20.15c.12-.11.26-.19.41-.24v-20.3s-.78,0-.78,0c-.23,0-.39-.16-.39-.39v-2.15s-.02,0-.02,0c-.23,0-.39.16-.39.39v2.15c0,.23.16.39.39.39"/><path class="d" d="M287.27,260.15v3.42s.41,0,.41,0v-3.81s-9.11-9.11-9.11-9.11c-.2-.19-.27-.43-.27-.66v-7.62c0-.24.08-.47.27-.66l.08-.08v-.02s-.5.49-.5.49c-.19.19-.27.43-.27.66v7.62c0,.24.08.47.27.67l9.11,9.11Z"/><polygon class="d" points="136.05 250.92 136.66 254.89 137.14 254.89 136.29 249.38 136.05 250.92"/><path class="d" d="M270.65,243.73v.78c0,.23.16.39.39.39h2.35c.23,0,.39-.16.39-.39h0s-2.32,0-2.32,0c-.24,0-.39-.16-.39-.39v-.78s-3.42,0-3.42,0v.39s3.01,0,3.01,0Z"/><path class="d" d="M287.66,248.23h2.35c.24,0,.39-.16.39-.39h0s-2.32,0-2.32,0c-.23,0-.39-.16-.39-.39v-3.72c0-.23-.16-.39-.39-.39h-3.81s0,.39,0,.39h3.4c.23,0,.39.16.39.39v3.71c0,.23.16.39.39.39"/><path class="d" d="M253.84,260.15v3.42s.41,0,.41,0v-3.81s-9.11-9.11-9.11-9.11c-.2-.19-.27-.43-.27-.66v-7.62c0-.24.08-.47.27-.66l.08-.08v-.02s-.5.49-.5.49c-.19.19-.27.43-.27.66v7.62c0,.24.08.47.27.67l9.11,9.11Z"/><path class="d" d="M267.65,256.36h4.18c.23,0,.39-.16.39-.39h0s-4.57,0-4.57,0v.39Z"/><path class="d" d="M236.64,243.73c.23,0,.39.16.39.39v19.45s.41,0,.41,0v-19.84c0-.24-.16-.39-.39-.39h-3.81s0,.39,0,.39h3.4Z"/><path class="d" d="M261.27,243.73h.78s0,20.15,0,20.15c.12-.11.26-.19.41-.24v-20.3s-.78,0-.78,0c-.23,0-.39-.16-.39-.39v-2.15s-.02,0-.02,0c-.23,0-.39.16-.39.39v2.15c0,.23.16.39.39.39"/><path class="d" d="M254.23,248.23h2.35c.24,0,.39-.16.39-.39h0s-2.32,0-2.32,0c-.23,0-.39-.16-.39-.39v-3.72c0-.23-.16-.39-.39-.39h-3.81s0,.39,0,.39h3.4c.23,0,.39.16.39.39v3.71c0,.23.16.39.39.39"/><path class="d" d="M230.01,268.56c-.23,0-.51-.08-.66-.27l-1.02-1.02c-.2-.16-.27-.43-.27-.66v-24.24c0-.24.08-.47.27-.66l.08-.08v-.02s-.49.49-.49.49c-.19.2-.27.43-.27.66v24.24c0,.24.08.51.27.67l1.02,1.02c.16.19.43.27.66.27h8.6c.24,0,.47-.08.67-.27l.29-.29c-.17.12-.36.18-.55.18h-8.6Z"/><path class="d" d="M220.24,268.17l-3.48-11.42h-.53s0,.39,0,.39h.11s3.48,11.42,3.48,11.42c.04.24.19.39.47.39h3.64c.23,0,.39-.16.39-.39h0s-3.61,0-3.61,0c-.27,0-.43-.16-.47-.39"/><path class="d" d="M163.7,268.17v-2.15s-.02,0-.02,0c-.23,0-.39.16-.39.39v2.15c0,.24.16.39.39.39h12.12c.24,0,.39-.16.39-.39h0s-12.1,0-12.1,0c-.24,0-.39-.16-.39-.39"/><path class="d" d="M209.87,268.17v-2.15s-.02,0-.02,0c-.23,0-.39.16-.39.39v2.15c0,.24.16.39.39.39h4.69c.23,0,.39-.16.39-.39h0s-4.67,0-4.67,0c-.24,0-.39-.16-.39-.39"/><path class="d" d="M280.26,268.56c-.23,0-.51-.08-.66-.27l-1.02-1.02c-.2-.16-.27-.43-.27-.66v-5.08s-.02,0-.02,0c-.23,0-.39.16-.39.39v5.08c0,.24.08.51.27.67l1.02,1.02c.16.19.43.27.66.27h8.6c.24,0,.47-.08.67-.27l.29-.29c-.17.12-.36.18-.55.18h-8.6Z"/><path class="d" d="M246.83,268.56c-.23,0-.51-.08-.66-.27l-1.02-1.02c-.2-.16-.27-.43-.27-.66v-5.08s-.02,0-.02,0c-.23,0-.39.16-.39.39v5.08c0,.24.08.51.27.67l1.02,1.02c.16.19.43.27.66.27h8.6c.23,0,.47-.08.67-.27l.29-.29c-.17.12-.36.18-.55.18h-8.6Z"/><path class="d" d="M261.29,268.17v-2.15s-.02,0-.02,0c-.23,0-.39.16-.39.39v2.15c0,.24.16.39.39.39h12.12c.24,0,.39-.16.39-.39h0s-12.1,0-12.1,0c-.24,0-.39-.16-.39-.39"/><path class="d" d="M119.49,244.12v7.64s.41,0,.41,0v-8.03c0-.24-.16-.39-.39-.39h-3.81s0,.39,0,.39h3.4c.24,0,.39.16.39.39"/><path class="d" d="M109.32,243.73h.78s0,20.15,0,20.15c.12-.11.26-.19.41-.24v-20.3s-.78,0-.78,0c-.23,0-.39-.16-.39-.39v-2.15s-.02,0-.02,0c-.23,0-.39.16-.39.39v2.15c0,.23.16.39.39.39"/><path class="d" d="M109.35,268.17v-2.15s-.02,0-.02,0c-.23,0-.39.16-.39.39v2.15c0,.24.16.39.39.39h4.69c.24,0,.39-.16.39-.39h0s-4.67,0-4.67,0c-.24,0-.39-.16-.39-.39"/><path class="d" d="M149.03,268.56c-.23,0-.51-.08-.66-.27l-1.02-1.02c-.2-.16-.27-.43-.27-.66v-24.24c0-.24.08-.47.27-.66l.08-.08v-.02s-.49.49-.49.49c-.19.2-.27.43-.27.66v24.24c0,.24.08.51.27.67l1.02,1.02c.16.19.43.27.66.27h8.6c.24,0,.47-.08.67-.27l.29-.29c-.17.12-.36.18-.55.18h-8.6Z"/><path class="d" d="M129.1,263.57l3.51-22.76c-.24.02-.38.17-.41.38l-3.45,22.38h.35Z"/><path class="d" d="M139.18,268.17l-1.29-8.29h-3.25s-.06.39-.06.39h2.89s1.29,8.29,1.29,8.29c.04.24.16.39.47.39h3.91c.23,0,.39-.16.39-.39h0s-3.89,0-3.89,0c-.31,0-.43-.16-.47-.39"/><path class="d" d="M127.14,268.56c-.23,0-.39-.16-.39-.39v-2.15s-.02,0-.02,0c-.24,0-.39.16-.39.39v2.15c0,.24.16.39.39.39h3.91c.27,0,.43-.16.43-.39h0s-.01,0-.02,0h-3.91Z"/><path class="d" d="M119.71,268.17l-3.48-11.42h-.53s0,.39,0,.39h.11s3.48,11.42,3.48,11.42c.04.24.19.39.47.39h3.64c.23,0,.39-.16.39-.39h0s-3.61,0-3.61,0c-.27,0-.43-.16-.47-.39"/><path class="c" d="M125.41,264.81v2.15c0,.24-.16.39-.39.39h-3.64c-.27,0-.43-.16-.47-.39l-3.48-11.42h-2.58s0,8.88,0,8.88h.78c.24,0,.39.16.39.39v2.15c0,.24-.16.39-.39.39h-4.69c-.24,0-.39-.16-.39-.39v-2.15c0-.23.16-.39.39-.39h.78s0-22.29,0-22.29h-.78c-.24,0-.39-.16-.39-.39v-2.15c0-.24.16-.39.39-.39h11.34c.23,0,.47.12.66.27l1.02,1.02c.16.2.27.43.27.67v12.43c0,.23-.12.47-.27.66l-1.02.98c-.2.19-.43.31-.66.31h-1.64s2.7,8.88,2.7,8.88h1.68c.24,0,.39.16.39.39M120.72,252.61c.23,0,.39-.16.39-.39v-9.7c0-.24-.16-.39-.39-.39h-5.87s0,10.48,0,10.48h5.86Z"/><path class="c" d="M145.15,264.81v2.15c0,.23-.16.39-.39.39h-3.91c-.31,0-.43-.16-.47-.39l-1.29-8.29h-5.12s-1.29,8.29-1.29,8.29c0,.24-.16.39-.43.39h-3.91c-.23,0-.39-.16-.39-.39v-2.15c0-.23.16-.39.39-.39h1.64s3.83-24.83,3.83-24.83c.04-.24.2-.39.47-.39h4.54c.27,0,.43.16.47.39l3.83,24.83h1.64c.24,0,.39.16.39.39M138.66,255.74l-2.11-13.61-2.11,13.61h4.22Z"/><path class="c" d="M157.67,246.24v-3.71c0-.24-.16-.39-.39-.39h-5.47c-.24,0-.39.16-.39.39v21.5c0,.24.16.39.39.39h5.47c.23,0,.39-.16.39-.39v-3.72c0-.23.16-.39.39-.39h2.35c.24,0,.39.16.39.39v5.08c0,.23-.12.51-.27.66l-1.02,1.02c-.19.2-.43.27-.66.27h-8.6c-.24,0-.51-.08-.66-.27l-1.02-1.02c-.2-.16-.27-.43-.27-.66v-24.24c0-.23.08-.47.27-.66l1.02-1.02c.16-.16.43-.27.66-.27h8.6c.24,0,.47.12.66.27l1.02,1.02c.16.2.27.43.27.67v5.08c0,.24-.16.39-.39.39h-2.35c-.24,0-.39-.16-.39-.39"/><path class="c" d="M174.68,242.91v-.78s-5.47,0-5.47,0v9.7s6.65,0,6.65,0c.24,0,.39.12.39.39v2.15c0,.23-.16.39-.39.39h-6.65s0,9.66,0,9.66h5.47s0-.78,0-.78c0-.23.16-.39.39-.39h2.35c.23,0,.39.16.39.39v3.32c0,.24-.16.39-.39.39h-12.12c-.23,0-.39-.16-.39-.39v-2.15c0-.23.16-.39.39-.39h.78s0-22.29,0-22.29h-.78c-.24,0-.39-.16-.39-.39v-2.15c0-.24.16-.39.39-.39h12.12c.23,0,.39.16.39.39v3.32c0,.23-.16.39-.39.39h-2.35c-.24,0-.39-.16-.39-.39"/><path class="c" d="M225.94,264.81v2.15c0,.24-.16.39-.39.39h-3.64c-.27,0-.43-.16-.47-.39l-3.48-11.42h-2.58s0,8.88,0,8.88h.78c.23,0,.39.16.39.39v2.15c0,.24-.16.39-.39.39h-4.69c-.24,0-.39-.16-.39-.39v-2.15c0-.23.16-.39.39-.39h.78s0-22.29,0-22.29h-.78c-.24,0-.39-.16-.39-.39v-2.15c0-.24.16-.39.39-.39h11.34c.23,0,.47.12.66.27l1.02,1.02c.16.2.27.43.27.67v12.43c0,.23-.12.47-.27.66l-1.02.98c-.2.19-.43.31-.66.31h-1.64s2.7,8.88,2.7,8.88h1.68c.24,0,.39.16.39.39M221.24,252.61c.23,0,.39-.16.39-.39v-9.7c0-.24-.16-.39-.39-.39h-5.87s0,10.48,0,10.48h5.86Z"/><path class="c" d="M241.77,241.15v24.24c0,.24-.12.51-.27.66l-1.02,1.02c-.19.2-.43.27-.67.27h-8.6c-.24,0-.51-.08-.66-.27l-1.02-1.02c-.19-.16-.27-.43-.27-.66v-24.24c0-.23.08-.47.27-.66l1.02-1.02c.16-.16.43-.27.66-.27h8.6c.24,0,.47.12.66.27l1.02,1.02c.16.19.27.43.27.66M238.64,242.52c0-.23-.16-.39-.39-.39h-5.47c-.23,0-.39.16-.39.39v21.51c0,.23.16.39.39.39h5.47c.24,0,.39-.16.39-.39v-21.51Z"/><path class="c" d="M255.46,246.24v-3.71c0-.24-.16-.39-.39-.39h-5.47c-.24,0-.39.16-.39.39v5.47s9.11,9.11,9.11,9.11c.2.2.27.43.27.67v7.62c0,.23-.12.51-.27.66l-1.02,1.02c-.19.2-.43.27-.66.27h-8.6c-.24,0-.51-.08-.66-.27l-1.02-1.02c-.2-.16-.27-.43-.27-.66v-5.08c0-.24.16-.39.39-.39h2.35c.23,0,.39.16.39.39v3.71c0,.24.16.39.39.39h5.47c.23,0,.39-.16.39-.39v-5.47s-9.11-9.11-9.11-9.11c-.19-.2-.27-.43-.27-.66v-7.63c0-.23.08-.47.27-.66l1.02-1.02c.16-.16.43-.27.66-.27h8.6c.23,0,.47.12.66.27l1.02,1.02c.16.2.27.43.27.67v5.08c0,.24-.16.39-.39.39h-2.35c-.24,0-.39-.16-.39-.39"/><path class="c" d="M272.27,242.91v-.78s-5.47,0-5.47,0v9.7s6.65,0,6.65,0c.24,0,.39.12.39.39v2.15c0,.23-.16.39-.39.39h-6.65s0,9.66,0,9.66h5.47s0-.78,0-.78c0-.23.16-.39.39-.39h2.35c.23,0,.39.16.39.39v3.32c0,.24-.16.39-.39.39h-12.12c-.23,0-.39-.16-.39-.39v-2.15c0-.23.16-.39.39-.39h.78s0-22.29,0-22.29h-.78c-.24,0-.39-.16-.39-.39v-2.15c0-.24.16-.39.39-.39h12.12c.23,0,.39.16.39.39v3.32c0,.23-.16.39-.39.39h-2.35c-.24,0-.39-.16-.39-.39"/><path class="c" d="M288.89,246.24v-3.71c0-.24-.16-.39-.39-.39h-5.47c-.24,0-.39.16-.39.39v5.47s9.11,9.11,9.11,9.11c.19.2.27.43.27.67v7.62c0,.23-.12.51-.27.66l-1.02,1.02c-.19.2-.43.27-.66.27h-8.6c-.24,0-.51-.08-.66-.27l-1.02-1.02c-.2-.16-.27-.43-.27-.66v-5.08c0-.24.16-.39.39-.39h2.35c.24,0,.39.16.39.39v3.71c0,.24.16.39.39.39h5.47c.23,0,.39-.16.39-.39v-5.47s-9.11-9.11-9.11-9.11c-.19-.2-.27-.43-.27-.66v-7.63c0-.23.08-.47.27-.66l1.02-1.02c.16-.16.43-.27.66-.27h8.6c.23,0,.47.12.66.27l1.02,1.02c.16.2.27.43.27.67v5.08c0,.24-.16.39-.39.39h-2.35c-.24,0-.39-.16-.39-.39"/><polygon class="d" points="202.78 264.16 202.78 267.61 191.2 267.61 202.78 264.16"/><polygon class="d" points="184.49 242.26 184.49 238.81 196.07 238.81 184.49 242.26"/><path class="c" d="M188.28,245.05v-.3c-.69.17-1.38.3-2.07.39v3.67c.84-.11,1.68-.28,2.52-.51.09-.02.15,0,.15.11v.81c0,.09-.06.16-.15.19-.84.22-1.68.4-2.51.51v3.65c.1-.01.2-.03.3-.04.09-.01.15.04.15.13v.81c0,.09-.06.16-.15.17-.59.09-1.18.14-1.77.15-.09,0-.15-.06-.15-.15v-.81c0-.09.06-.15.15-.15.1,0,.2,0,.3,0v-8.43c-.1,0-.2,0-.3,0-.09,0-.15-.06-.15-.15v-.81c0-.09.06-.15.15-.15,1.53-.03,3.06-.34,4.59-.78.09-.03.15.02.15.1v1.26c0,.09-.06.16-.15.19-.3.09-.59.17-.89.24-.09.02-.15-.02-.15-.11"/><path class="c" d="M195.85,241.81v9.17c0,.09-.04.21-.1.29-.13.17-.26.35-.38.52-.07.1-.16.16-.25.19-1.08.39-2.17.81-3.25,1.2-.09.03-.19.04-.25-.01-.13-.08-.26-.17-.38-.25-.08-.03-.1-.13-.1-.22v-9.17c0-.09.03-.19.1-.29.13-.17.26-.35.38-.52.06-.08.16-.16.25-.19,1.09-.39,2.17-.81,3.26-1.2.09-.03.18-.02.25.01.13.08.26.16.39.25.06.05.1.13.1.22M194.66,242.75c0-.09-.06-.13-.15-.09-.69.25-1.38.51-2.07.77-.09.03-.15.11-.15.2v8.14c0,.09.06.13.15.09.69-.25,1.38-.51,2.07-.77.09-.03.15-.11.15-.2v-8.14Z"/><path class="c" d="M202.78,249.3v.81c0,.09-.06.15-.15.15-.46,0-.92.04-1.38.09-.1.01-.16-.04-.18-.13-.44-1.39-.88-2.75-1.32-4.1-.22.05-.45.1-.67.15v3.36c.1-.02.2-.05.3-.07.09-.02.15.03.15.12v.81c0,.09-.06.16-.15.18-.59.13-1.18.29-1.77.47-.09.03-.15-.01-.15-.1v-.81c0-.09.06-.17.15-.19.1-.03.2-.06.3-.09v-8.43c-.1.03-.2.06-.3.09-.09.03-.15-.01-.15-.1v-.81c0-.09.06-.17.15-.19,1.33-.4,2.66-.71,3.98-.83.09,0,.18.03.25.08.13.12.26.24.38.36.06.07.1.16.1.25v4.7c0,.09-.04.18-.1.26-.13.13-.26.26-.39.39-.07.08-.16.13-.25.14-.21.02-.41.04-.62.07.34,1.07.68,2.16,1.02,3.26.21-.01.42-.02.64-.02.09,0,.15.06.15.15M201,244.8c.09-.01.15-.08.15-.17v-3.67c0-.09-.06-.14-.15-.13-.64.08-1.28.21-1.91.36v3.96c.64-.15,1.28-.28,1.91-.36"/><path class="c" d="M189.52,255.51v1.26c0,.09-.06.16-.15.19-.3.09-.59.17-.89.24-.09.02-.15-.02-.15-.11v-.3c-.25.06-.49.12-.74.17v8.43c.1-.02.2-.04.3-.06.09-.02.15.03.15.11v.81c0,.09-.06.16-.15.18-.59.13-1.18.24-1.78.31-.09.01-.15-.04-.15-.13v-.81c0-.09.06-.15.15-.17.1-.01.2-.02.3-.04v-8.43c-.25.03-.49.06-.74.09v.3c0,.09-.06.15-.15.16-.3.02-.59.04-.89.04-.09,0-.15-.06-.15-.15v-1.26c0-.09.06-.15.15-.15,1.58-.02,3.16-.34,4.73-.8.09-.02.15.02.15.11"/><path class="c" d="M195.95,254.2v8.43c.1-.03.2-.07.3-.1.09-.03.15,0,.15.1v.81c0,.09-.06.17-.15.2-.59.2-1.18.42-1.78.64-.09.03-.15,0-.15-.09v-.81c0-.09.06-.17.15-.2.1-.04.2-.07.3-.11v-3.65c-.79.29-1.58.59-2.37.88v3.65c.1-.04.2-.07.3-.11.09-.03.15,0,.15.09v.81c0,.09-.06.17-.15.2-.59.22-1.18.43-1.77.63-.09.03-.15,0-.15-.1v-.81c0-.09.06-.17.15-.2.1-.03.2-.07.3-.1v-8.43c-.1.03-.2.07-.3.1-.09.03-.15,0-.15-.1v-.81c0-.09.06-.17.15-.2.59-.2,1.18-.41,1.77-.63.09-.03.15,0,.15.09v.81c0,.09-.06.17-.15.2-.1.04-.2.07-.3.11v3.67c.79-.29,1.58-.59,2.37-.88v-3.67c-.1.04-.2.07-.3.11-.09.03-.15,0-.15-.09v-.81c0-.09.06-.17.15-.2.59-.22,1.18-.43,1.78-.63.09-.03.15,0,.15.1v.81c0,.09-.06.17-.15.2-.1.03-.2.07-.3.1"/><path class="c" d="M201.57,253.13v-.3c-.69.06-1.38.18-2.07.33v3.67c.84-.18,1.68-.31,2.51-.36.09,0,.15.04.15.14v.81c0,.09-.06.15-.15.16-.84.05-1.68.18-2.51.36v3.65c.69-.15,1.38-.26,2.07-.33v-.3c0-.09.06-.15.15-.16.3-.02.59-.04.89-.04.09,0,.15.06.15.15v1.26c0,.09-.06.15-.15.15-1.53.02-3.06.32-4.59.76-.09.03-.15-.02-.15-.11v-.81c0-.09.06-.16.15-.19.1-.03.2-.05.3-.08v-8.43c-.1.03-.2.05-.3.08-.09.03-.15-.02-.15-.11v-.81c0-.09.06-.17.15-.19,1.53-.44,3.06-.74,4.59-.76.09,0,.15.06.15.15v1.26c0,.09-.06.15-.15.15-.3,0-.59.02-.89.04-.09,0-.15-.05-.15-.14"/><path class="d" d="M161.05,204.83l-.28-6.27c-1.01-.57-2.53-1.36-3.64-1.33l-.02-.73c1.13-.02,2.41.55,3.61,1.21l-.21-4.63c-3.52.64-6.74,2.16-9.22,4.4,2.2,3.36,5.67,5.94,9.75,7.35"/><path class="d" d="M163.62,212.43c-1.47,1.99-5.14,4.99-7.08,5.11l-.05-.73c1.56-.1,5.15-2.93,6.53-4.8l-1.71-1.2-.19-4.18c-.91-.28-1.79-.62-2.63-1.01-4.02,4.23-6.65,9.43-7.4,14.84,2.5.83,5.17,1.25,7.96,1.25,4.51,0,9.02-1.1,13.22-3.2l-8.65-6.08Z"/><path class="d" d="M237.83,214.21c-.19-.32-.39-.64-.59-.95-.06-.09-.12-.18-.18-.27-.25-.37-.51-.74-.79-1.1-.26-.33-.53-.65-.8-.97l-.34,4.03-1.64,1.89c.22.99.86,2.15,1.49,3.28.56,1,1.08,1.94,1.33,2.78l-.7.21c-.23-.77-.74-1.67-1.27-2.64-.56-.99-1.12-2.02-1.43-2.97l-4.41,5.09c3.38,3.1,7.59,4.96,11.83,5.17.91-4.37.03-9.16-2.38-13.37-.04-.06-.07-.13-.11-.19"/><path class="d" d="M242.17,198.72l-6.18,6.04-.1,1.17c3.34-.5,9.2,1.09,11.04,3.59l-.59.43c-1.71-2.32-7.48-3.82-10.51-3.27l-.16,1.95c.69.69,1.35,1.42,1.95,2.21,1.46,1.88,2.59,3.94,3.39,6.07,5.88-.15,11.42-2,15.73-5.26-2.88-5.73-8.12-10.34-14.56-12.93"/><polygon class="c" points="232.25 170.59 227.7 172.57 222 153.76 209.05 155.08 200.18 149.44 171.78 156.04 164.2 176.01 168.13 179.06 160.34 189.18 161.32 210.81 179.03 223.27 188.95 222.19 192.13 225.57 221.68 230.45 235.13 214.95 235.98 204.76 246.88 194.12 232.25 170.59"/><polygon class="e" points="220.31 202.7 199.78 198.79 193.05 182.76 187.3 186.01 193.47 204.19 217.42 206.27 220.31 202.7"/><polygon class="e" points="178.83 172.31 171.67 187.97 182.44 204.63 198.43 209.88 197.24 206.22 192.22 205.78 185.23 185.22 188.44 183.41 188.44 183.41 187.35 179.4 193.09 167.87 178.83 172.31"/><polygon class="e" points="212.77 174.87 201.56 176.43 201.67 182.14 203.61 182.61 209.86 177.48 213.18 186.65 201.71 183.9 201.88 192.3 208.66 195.43 215.97 186.25 212.77 174.87"/><polygon class="e" points="234.12 206.58 222.99 217.46 200.34 215.71 199.09 211.88 181.34 206.06 177.75 200.51 176.04 206 192.97 223.98 221.02 228.62 233.48 214.25 234.12 206.58"/><polygon class="e" points="173.09 180.76 177.6 170.91 194.14 165.76 198.95 156.11 206.32 155.36 199.87 151.26 173.05 157.49 166.24 175.44 173.09 180.76"/><polygon class="e" points="200.99 197.29 214 199.77 199.15 192.91 200.99 197.29"/><polygon class="e" points="176.55 198.65 169.73 188.11 172.37 182.35 169.47 180.1 162.06 189.73 162.98 209.9 179.48 221.51 187.49 220.64 174.12 206.44 176.55 198.65"/><polygon class="e" points="220.78 155.6 200.05 157.71 189.16 179.58 189.96 182.55 192.42 181.17 191.62 179.07 199.15 167.97 208.01 173.81 214 172.98 214.97 176.43 217.39 177.07 226.13 173.25 220.78 155.6"/><polygon class="e" points="205.68 183.11 210.51 184.26 209.08 180.32 205.68 183.11"/><polygon class="e" points="234.34 203.99 234.34 203.99 244.72 193.85 231.58 172.73 220.03 177.77 224.27 178.89 224.24 190.11 220.28 192.7 218.59 200.64 223.42 201.56 218.18 208.04 199.08 206.38 201.6 214.1 222.35 215.7 234.34 203.99 234.34 203.99"/><polygon class="e" points="222.57 180.2 215.51 178.33 217.85 186.63 210.25 196.16 211.19 196.6 222.54 189.19 222.57 180.2"/><polygon class="e" points="193.52 179.3 194.26 181.24 198.18 190.59 200.16 191.5 199.83 174.95 205.46 174.17 199.62 170.31 193.52 179.3"/><polygon class="e" points="217.13 199.34 218.26 194.02 213.01 197.44 217.13 199.34"/></svg>