<?xml version="1.0" encoding="UTF-8"?><svg id="a" xmlns="http://www.w3.org/2000/svg" width="400" height="400" viewBox="0 0 400 400"><defs><style>.b{fill:#231f20;}</style></defs><path class="b" d="M291.79,233.28H110.03c-.11,0-.21-.09-.21-.21v-2.11c0-.11.09-.21.21-.21h181.76c.11,0,.21.09.21.21v2.11c0,.11-.09.21-.21.21"/><path class="b" d="M128.65,193.11c0,1.95-1.28,2.88-3.57,3.03-.39.03-.74-.26-.79-.65-.28-2.1-1.23-4.15-4.33-4.15-2.47,0-4.08,1.23-4.08,3.17,0,2.15,1.45,3.16,5.47,5.52,5.09,3,8.42,5.1,8.42,9.87,0,5.53-5.85,7.35-10.78,7.35-5.8,0-9.17-1.45-9.17-4.61,0-2.18,1.79-3.61,3.95-3.52.4.02.72.33.73.73.04,2.02.47,4.72,4.82,4.72,3.22,0,5.63-.8,5.63-3.43,0-2.36-1.61-3.59-6.81-6.6-3.65-2.09-6.97-4.29-6.97-8.74,0-5.2,5.15-7.03,9.34-7.03,3.06,0,8.15.75,8.15,4.34"/><path class="b" d="M136.97,202.17c0-5.74-.11-9.55-3.92-9.55h-.9c-.12,0-.22-.1-.22-.22v-1.52c0-.17.12-.32.29-.35,1.35-.24,6.95-1.23,8.08-1.23,1.02,0,1.77.64,1.77,2.25s-.21,4.88-.21,10.62v3.81c0,4.88,1.18,7.56,4.34,7.56,2.78,0,5.15-.72,7.56-1.95.1-.05.17-.15.18-.27.1-1.44.2-5.05.2-7.97v-2.74c0-5.74-.27-7.99-4.08-7.99h-.83c-.16,0-.29-.13-.29-.29v-1.5c0-.14.1-.26.24-.29,1.27-.22,7.14-1.24,8.29-1.24,1.02,0,1.77.64,1.77,2.25s-.21,4.88-.21,10.62v2.79c0,4.02.11,8.91,2.25,8.91.4,0,1.73-.31,2.06-.38.14-.03.28.05.33.19l.29.9c.05.17,0,.35-.13.47-.28.29-.65.57-.98.77-1.35.8-3.3,1.42-4.51,1.42-2.16,0-3.39-1.63-4-3.09-.04-.09-.15-.13-.24-.08-3.9,2.19-7.33,3.18-10.02,3.18-4.67,0-7.08-3.16-7.08-7.62v-7.46Z"/><path class="b" d="M172.47,215.54c-.15-.1-.35-.1-.5,0-.69.47-1.58,1.27-2.02,1.67-.16.14-.39.17-.58.08l-1.88-.97c-.14-.07-.22-.24-.17-.39.18-.67.62-2.53.62-4.75v-25.59c0-5.74,0-9.12-2.68-9.12h-2.01c-.23,0-.41-.18-.43-.4l-.06-1.06c-.01-.24.14-.45.38-.51,1.55-.39,7.13-1.78,8.24-1.78,1.02,0,1.77.64,1.77,2.25s-.21,4.88-.21,10.62v7.12c0,.25.32.35.46.15,1.39-1.95,4.13-4.1,8.18-4.1,6.22,0,11,4.77,11,12.5,0,10.19-5.95,15.99-14.38,15.99-1.82,0-4.36-.76-5.72-1.7M172.94,209.63c-.02,3.26,1.88,4.93,5.2,4.93,5.2,0,8.58-4.72,8.58-11.53,0-4.88-1.66-10.41-7.08-10.41-3.22,0-5.51,2.08-6.65,4.55-.04.08-.05.16-.05.25,0,1.13.02,9.34,0,12.21"/><path class="b" d="M203.76,209.2c0,2.9,1.61,4.05,4.02,4.02,1.6-.02,3.84-.69,4.15-.76.12-.03.25.01.33.11l.29.35c.09.11.1.27.02.38-.22.3-.75.92-1.31,1.39-1.53,1.3-4.23,2.55-6.85,2.55-3.38,0-6.06-2.04-6.06-6.38,0-4.68.31-14.35.32-18.81,0-.07-.06-.13-.13-.13l-3.58-.07c-.08,0-.15-.07-.16-.15l-.02-1.15c-.01-.11.03-.22.12-.28.49-.39,2.24-1.82,3.88-3.65,2.95-3.27,3.33-4.34,4.29-4.34.43,0,.7.32.7,1.07v5.9c1.86-.1,6.56-.32,7.46-.37.08,0,.15.06.14.14l-.14,2.73c0,.19-.16.34-.35.34h-7.11v17.11Z"/><path class="b" d="M283.13,209.2c0,2.9,1.61,4.05,4.02,4.02,1.6-.02,3.84-.69,4.15-.76.12-.03.25.01.33.11l.29.35c.09.11.1.27.02.38-.22.3-.75.92-1.31,1.39-1.53,1.3-4.23,2.55-6.85,2.55-3.38,0-6.06-2.04-6.06-6.38,0-4.68.31-14.35.32-18.81,0-.07-.06-.13-.13-.13l-3.58-.07c-.08,0-.15-.07-.16-.15l-.02-1.15c-.01-.11.03-.22.12-.28.49-.39,2.24-1.82,3.88-3.65,2.95-3.27,3.32-4.34,4.29-4.34.43,0,.7.32.7,1.07v5.9c1.92-.1,6.88-.34,7.54-.37.04,0,.07.03.07.07l-.14,2.88c0,.15-.13.27-.28.27h-7.18v17.11Z"/><path class="b" d="M226.58,217.24c-6.65,0-12.66-4.18-12.66-13.09s5.31-15.39,13.68-15.39c3.81,0,9.23,2.25,9.23,10.25,0,1.66-1.45,2.47-3,2.52l-14.66.43c-.05,0-.09.05-.09.1.03,8.03,4.04,10.79,8.74,10.79,3.69,0,5.57-1.32,6.74-2.45.33-.32.77-.79.98-1.02.08-.09.2-.13.32-.11l1.03.19c.15.03.25.16.23.31-.05.44-.73,2.97-2.01,4.24-1.94,1.92-5.11,3.24-8.53,3.24M219.3,199.31c0,.06.04.12.11.12l9.85-.58c1.5-.11,2.2-.86,2.2-1.72,0-4.13-2.15-5.63-4.77-5.63-3.83,0-6.76,3.37-7.39,7.82"/><path class="b" d="M254.22,205.64s-.04-.02-.06,0l-4.53,5.49c-.64.75-.96,1.45-.96,2.04,0,.55.43.98,1.09,1.24.31.12,1.35.2,1.94.24.22.01.4.2.4.42l.03,1.16c0,.27-.21.48-.47.48h-11.51c-.24,0-.43-.19-.43-.43v-1.12c0-.22.16-.41.38-.45.42-.07,1.08-.2,1.49-.34,1.45-.5,2.8-1.47,4.73-3.73l6.2-7.11s.04-.12,0-.17l-4.71-5.92c-3.11-4.12-4.52-5.23-6.08-5.7-.45-.13-1.31-.28-1.78-.36-.19-.03-.34-.2-.34-.39l-.04-1.41c0-.16.12-.29.28-.29h12.92c.16,0,.29.13.28.29l-.03,1.21c0,.22-.17.4-.38.43-.3.04-.7.1-.89.14-.89.19-1.2.49-1.2,1.15,0,.37.27.86.64,1.39l4.59,6.18s.04.02.06,0l4.64-6.13c.32-.43.48-.91.48-1.29,0-.68-.5-1.19-1.5-1.4-.17-.04-.63-.07-.95-.09-.19-.01-.34-.17-.35-.36l-.04-1.23c0-.17.13-.3.3-.3h11.27c.16,0,.3.13.3.3v1.26c0,.18-.15.34-.33.36-.47.06-1.34.18-1.65.28-1.63.5-2.74,1.37-3.88,2.69l-6.63,7.86s-.04.12,0,.17l5.03,6.35c2.87,3.65,4.27,4.95,6.05,5.59.49.17,1.68.38,2.25.47.19.03.32.19.33.38v1.35c.01.2-.15.36-.35.36h-14.23c-.2,0-.36-.15-.37-.35l-.06-1.21c0-.19.13-.35.32-.36.5-.03,1.44-.1,1.85-.2.97-.22,1.41-.65,1.41-1.16,0-.37-.11-.7-.54-1.29l-4.96-6.51Z"/></svg>