<?xml version="1.0" encoding="UTF-8"?><svg id="a" xmlns="http://www.w3.org/2000/svg" width="400" height="400" viewBox="0 0 400 400"><polygon points="139.76 187.95 139.76 206.73 148.76 206.73 148.76 212.05 133.62 212.05 133.62 187.95 139.76 187.95"/><path d="M163.33,200.1c0,4.42,1.68,7.12,5.24,7.12s5.24-2.7,5.24-7.12-1.72-7.16-5.24-7.16-5.24,2.74-5.24,7.16M156.95,200.02c0-8.1,4.34-12.56,11.62-12.56s11.62,4.46,11.62,12.56-4.34,12.52-11.62,12.52-11.62-4.46-11.62-12.52"/><path d="M211.01,206.85c-2.21,3.81-5.03,5.69-10.6,5.69-6.63,0-11.21-4.58-11.21-12.6s4.38-12.48,11.95-12.48c5.16,0,8.31,2.33,10.07,6.22l-5.98,2.91c-.65-2.25-1.68-3.68-4.26-3.68-3.4,0-5.48,2.7-5.48,7.2s1.88,7,5.65,7c1.92,0,3.64-1.1,4.5-3.31l5.36,3.07Z"/><path d="M227.63,202.44h5.36l-.65-1.84c-1.43-4.01-1.92-7.04-1.92-7.04h-.16s-.61,3.07-1.96,7l-.65,1.88ZM234.79,207.55h-8.88l-1.51,4.5h-6.43l8.72-24.1h7.49l8.8,24.1h-6.59l-1.6-4.5Z"/><polygon points="258.32 187.95 258.32 206.73 267.33 206.73 267.33 212.05 252.19 212.05 252.19 187.95 258.32 187.95"/><path d="M294.03,165.78c0-.06-.05-.1-.1-.1H107.02c-.06,0-.1.04-.1.1v68.44c0,.06.04.1.1.1h186.91c.06,0,.1-.04.1-.1v-68.44ZM113.06,228.28c-.06,0-.1-.05-.1-.1v-56.36c0-.06.05-.1.1-.1h174.83c.06,0,.1.05.1.1v56.36c0,.06-.04.1-.1.1H113.06Z"/></svg>