<?xml version="1.0" encoding="UTF-8"?><svg id="a" xmlns="http://www.w3.org/2000/svg" width="400" height="400" viewBox="0 0 400 400"><defs><style>.b{fill:#435451;}</style></defs><path class="b" d="M112.86,232.77h3.09c2.84,0,4.49,1.64,4.49,3.95v.02c0,2.3-1.68,4.01-4.54,4.01h-3.05v-7.98ZM115.07,234.72v4.07h.9c1.33,0,2.21-.73,2.21-2.02v-.02c0-1.28-.88-2.03-2.21-2.03h-.9Z"/><path class="b" d="M126.72,232.77h6.42v1.87h-4.23v1.22h3.83v1.75h-3.83v1.27h4.29v1.88h-6.48v-7.98Z"/><path class="b" d="M138.86,239.57l1.23-1.47c.8.63,1.67.96,2.59.96.6,0,.92-.21.92-.55v-.02c0-.34-.26-.51-1.36-.78-1.7-.39-3.01-.87-3.01-2.5v-.02c0-1.48,1.18-2.55,3.09-2.55,1.36,0,2.42.36,3.28,1.06l-1.11,1.56c-.73-.52-1.53-.79-2.24-.79-.54,0-.8.22-.8.51v.02c0,.37.27.52,1.39.78,1.82.4,2.96.99,2.96,2.49v.02c0,1.63-1.29,2.6-3.23,2.6-1.41,0-2.75-.45-3.74-1.32Z"/><path class="b" d="M152.08,232.77h2.21v7.98h-2.21v-7.98Z"/><path class="b" d="M160.62,236.78v-.02c0-2.33,1.83-4.15,4.29-4.15,1.4,0,2.39.42,3.24,1.15l-1.3,1.57c-.57-.48-1.13-.75-1.93-.75-1.15,0-2.04.96-2.04,2.18v.02c0,1.3.9,2.22,2.17,2.22.55,0,.96-.11,1.28-.33v-.97h-1.56v-1.62h3.66v3.58c-.84.71-2.01,1.24-3.47,1.24-2.49,0-4.33-1.71-4.33-4.13Z"/><path class="b" d="M174.78,232.77h2.06l3.28,4.22v-4.22h2.19v7.98h-1.93l-3.42-4.38v4.38h-2.19v-7.98Z"/><path class="b" d="M196.88,236.78v-.02c0-2.33,1.78-4.15,4.2-4.15,1.63,0,2.68.68,3.39,1.65l-1.67,1.29c-.46-.56-.98-.94-1.75-.94-1.12,0-1.9.96-1.9,2.12v.02c0,1.2.79,2.13,1.9,2.13.83,0,1.32-.39,1.8-.97l1.67,1.19c-.75,1.04-1.77,1.8-3.52,1.8-2.28,0-4.12-1.74-4.12-4.13Z"/><path class="b" d="M210.35,236.78v-.02c0-2.29,1.85-4.15,4.31-4.15s4.29,1.84,4.29,4.13v.02c0,2.29-1.85,4.15-4.31,4.15s-4.29-1.84-4.29-4.13ZM216.68,236.78v-.02c0-1.16-.82-2.16-2.04-2.16s-2.03.98-2.03,2.13v.02c0,1.15.83,2.16,2.05,2.16s2.02-.98,2.02-2.13Z"/><path class="b" d="M225.21,232.77h2.34l1.91,3.09,1.9-3.09h2.34v7.98h-2.2v-4.58l-2.04,3.12h-.05l-2.03-3.11v4.57h-2.17v-7.98Z"/><path class="b" d="M240.24,232.77h3.43c2.01,0,3.31,1.04,3.31,2.79v.02c0,1.89-1.45,2.89-3.42,2.89h-1.11v2.28h-2.21v-7.98ZM243.51,236.74c.78,0,1.27-.42,1.27-1.05v-.02c0-.68-.49-1.04-1.28-1.04h-1.05v2.11h1.06Z"/><path class="b" d="M255.8,232.71h2.13l3.4,8.04h-2.37l-.57-1.44h-3.09l-.57,1.44h-2.31l3.39-8.04ZM257.74,237.59l-.89-2.26-.9,2.26h1.79Z"/><path class="b" d="M267.23,232.77h2.06l3.28,4.22v-4.22h2.19v7.98h-1.93l-3.42-4.38v4.38h-2.19v-7.98Z"/><path class="b" d="M283.63,237.77l-3.05-5h2.52l1.64,2.91,1.65-2.91h2.47l-3.03,4.96v3.02h-2.21v-2.99Z"/><path class="b" d="M82.49,229.68c-3.51,0-6.15-1.7-7.58-3.02-.55.27-1.04,1.04-1.04,1.92,0,.33-.06.93-.77.93-.88,0-.88-.6-.88-.88v-10.22c0-.49.22-.88.82-.88.77,0,.82.44.82.88,0,5.33,3.51,8.84,8.84,8.84,3.57,0,7.3-2.31,7.3-6.59,0-4.01-3.02-6.04-6.21-6.92l-2.14-.6c-6.26-1.87-9.06-5.71-9.06-10.93,0-5.93,5.22-9.61,9.99-9.61,3.3,0,5.55,1.1,6.81,2.47.38-.27.93-.88.93-1.54,0-.33.05-.88.77-.88.88,0,.88.55.88.82v8.9c0,.44-.16.88-.82.88-.71,0-.82-.49-.82-.88,0-3.18-1.59-7.58-7.58-7.58-3.73,0-6.64,2.47-6.64,6.54,0,3.73,2.64,5.6,5.38,6.37l2.64.82c5.55,1.59,9.72,4.72,9.72,10.65,0,6.37-5.11,10.49-11.37,10.49Z"/><path class="b" d="M107.05,218.78c2.64,0,2.97-.05,3.51-.05.44,0,.82.38.82.99s-.38.93-.82.93c-.55,0-.88-.27-5.33-.27h-.27c-4.45,0-4.78.27-5.33.27-.44,0-.82-.33-.82-.93s.38-.99.82-.99c.55,0,.88.05,3.51.05v-19.06c-2.64,0-2.97.05-3.51.05-.44,0-.82-.33-.82-.93s.38-.99.82-.99c.6,0,.82.27,4.78.27,1.87,0,2.75-.05,4.72-.05,6.04,0,9.28,2.8,9.28,6.7s-3.24,6.76-9.28,6.76h-2.09v7.25ZM107.05,209.99h2.09c3.95,0,5.38-1.43,5.38-5.22s-1.43-5.11-5.38-5.11h-2.09v10.32Z"/><path class="b" d="M140.67,214.61c0,2.31-.16,2.58-.16,3.73,0,.88.33,1.43.99,1.43.71,0,.82-.49.82-1.15,0-.49.38-.88.82-.88.49,0,.88.38.88.82,0,1.7-1.59,2.53-2.75,2.53-2.75,0-4.5-1.26-4.5-6.48,0-3.63-.6-5.05-4.61-5.05h-2.14v9.23c2.64,0,2.97-.05,3.51-.05.44,0,.82.38.82.99s-.38.93-.82.93c-.55,0-.88-.27-5.33-.27h-.27c-4.45,0-4.78.27-5.33.27-.44,0-.82-.33-.82-.93s.38-.99.82-.99c.55,0,.88.05,3.51.05v-19.06c-2.64,0-2.97.05-3.51.05-.44,0-.82-.33-.82-.93s.38-.99.82-.99c.55,0,.88.27,5.05.27,1.1,0,3.13-.11,4.5-.11,5.88,0,8.51,2.47,8.51,5.33,0,2.53-2.58,4.61-5.22,5.16,3.46.88,5.22,3.51,5.22,6.1ZM131.56,199.67h-1.54v8.29h1.21c3.51,0,5.38-1.1,5.38-4.45,0-2.64-1.26-3.84-5.05-3.84Z"/><path class="b" d="M159.46,218.94c3.35,0,5.44-1.92,5.44-5.05v-14.17c-2.31,0-2.53.05-3.08.05-.38,0-.82-.33-.82-.93s.44-.99.82-.99c.55,0,.82.27,4.01.27h.05c3.24,0,3.46-.27,4.01-.27.38,0,.82.38.82.99s-.44.93-.82.93c-.55,0-.82-.05-3.08-.05v14.17c0,4.78-3.79,7.03-8.35,7.03s-8.29-2.25-8.29-7.03v-14.17c-2.69,0-2.97.05-3.51.05-.44,0-.82-.33-.82-.93s.38-.99.82-.99c.55,0,.82.27,5.33.27h.22c4.5,0,4.83-.27,5.38-.27.38,0,.82.38.82.99s-.44.93-.82.93c-.55,0-.88-.05-3.51-.05v14.83c0,3.13,2.53,4.39,5.38,4.39Z"/><path class="b" d="M192.14,220.76c-.71,0-.77-.55-.77-1.04,0-.38-.27-.93-.55-1.1-1.32,1.32-2.8,2.31-5.93,2.31-5.71,0-10.54-4.67-10.54-11.64s4.83-11.7,10.54-11.7c3.08,0,4.72,1.21,5.93,2.36.27-.22.55-.77.55-1.1,0-.49.22-1.04.77-1.04.66,0,.82.38.82.99v6.81c0,.44,0,1.04-.77,1.04-.82,0-.82-.6-.82-1.04,0-3.41-2.69-6.21-6.15-6.21-4.17,0-6.48,2.64-6.48,9.88s2.31,9.89,6.48,9.89c3.46,0,6.15-2.8,6.15-6.26,0-.33.11-1.04.82-1.04.55,0,.77.6.77,1.04v6.86c0,.55-.22.99-.82.99Z"/><path class="b" d="M209.05,207.96c1.32,0,2.42-1.04,2.42-2.64,0-.49.11-.93.71-.93s.6.44.6.93c0,.55-.11,1.26-.11,3.18v.55c0,1.92.11,2.64.11,3.18,0,.49,0,.93-.6.93s-.71-.44-.71-.93c0-1.59-1.1-2.64-2.42-2.64h-1.87v9.28h5.27c3.13,0,4.01-1.04,4.01-4.94,0-.44.27-.82.88-.82s.82.38.82.82c0,.55-.22,2.03-.22,4.28v1.54c0,.55-.44.93-.82.93-.49,0-2.2-.22-3.08-.22l-8.95-.11c-4.45,0-4.78.27-5.33.27-.44,0-.82-.33-.82-.93s.38-.99.82-.99c.55,0,.88.05,3.51.05v-19.06c-2.64,0-2.97.05-3.51.05-.44,0-.82-.33-.82-.93s.38-.99.82-.99c.55,0,.88.27,5.33.27l7.96-.05c.88,0,2.58-.27,3.08-.27.44,0,.82.38.82.99v1.48c0,2.25.22,3.79.22,4.34,0,.38-.22.82-.82.82-.55,0-.82-.44-.82-.82,0-3.95-.88-4.94-4.06-4.94h-4.28v8.29h1.87Z"/><path class="b" d="M245.43,209.28c0,6.48-4.72,11.31-9.89,11.31-1.54,0-5.88-.27-6.75-.22-4.45,0-4.78.27-5.33.27-.44,0-.82-.33-.82-.93s.38-.99.82-.99c.55,0,.88.05,3.51.05v-19.06c-2.64,0-2.97.05-3.51.05-.44,0-.82-.33-.82-.93s.38-.99.82-.99c.55,0,.88.27,5.33.27,1.65-.05,5.22-.16,6.75-.16,5.16,0,9.89,4.78,9.89,11.31ZM241.32,209.28c0-7.3-2.09-9.61-6.15-9.61-2.31,0-4.28.05-4.28.05v19.06s1.76.11,4.28.11c4.06,0,6.15-2.36,6.15-9.61Z"/><path class="b" d="M291.07,218.94c3.35,0,5.44-1.92,5.44-5.05v-14.17c-2.31,0-2.53.05-3.08.05-.38,0-.82-.33-.82-.93s.44-.99.82-.99c.55,0,.82.27,4.01.27h.06c3.24,0,3.46-.27,4.01-.27.38,0,.82.38.82.99s-.44.93-.82.93c-.55,0-.82-.05-3.08-.05v14.17c0,4.78-3.79,7.03-8.35,7.03s-8.29-2.25-8.29-7.03v-14.17c-2.69,0-2.97.05-3.51.05-.44,0-.82-.33-.82-.93s.38-.99.82-.99c.55,0,.82.27,5.33.27h.22c4.5,0,4.83-.27,5.38-.27.38,0,.82.38.82.99s-.44.93-.82.93c-.55,0-.88-.05-3.51-.05v14.83c0,3.13,2.53,4.39,5.38,4.39Z"/><path class="b" d="M328.72,203.75c0,6.15-4.28,10.32-12.25,10.32h-3.73v12.96c2.64,0,3.19-.05,3.73-.05.38,0,.82.38.82.99s-.44.93-.82.93c-.55,0-1.1-.27-5.6-.27h-.66c-4.5,0-5.05.27-5.6.27-.38,0-.82-.33-.82-.93s.44-.99.82-.99c.55,0,1.1.05,3.73.05v-31.85c-2.64,0-3.18.05-3.73.05-.38,0-.82-.38-.82-.99,0-.55.44-.93.82-.93.55,0,1.1.27,5.6.27,2.75-.05,3.62-.11,6.26-.11,7.96,0,12.25,4.06,12.25,10.27ZM312.74,212.1h3.73c5.49,0,7.41-2.09,7.41-8.35s-1.92-8.24-7.41-8.24h-3.73v16.59Z"/><path class="b" d="M265.19,222.99c-4.78,0-4.69.22-5.41.22-.49,0-1.04-.44-1.04-1.26,0-.77.55-1.21,1.04-1.21.71,0,.68.22,5.41.22h.38v-8.84c0-4.78-.22-5.16-.22-5.88,0-.49.44-1.04,1.21-1.04s1.26.55,1.26,1.04c0,.71-.22,1.15-.22,5.88v8.84c0,1.92-.27,2.03-2.03,2.03h-.38Z"/><path class="b" d="M267.73,190.11c.25-.48,0-1.15-.63-1.52-.7-.31-1.31-.07-1.56.46-.31.59-1.26,2.9-3.25,6.97l-4.39,8.83c-1.37,2.84-2.51,4.54-2.82,5.18-.19.48-.07,1.21.69,1.52.69.37,1.32.07,1.56-.35.31-.7,1.02-2.58,2.39-5.42l4.39-8.83c2.05-4.18,3.25-6.14,3.62-6.84"/><path class="b" d="M267.73,175.43c.25-.48,0-1.15-.63-1.52-.7-.31-1.31-.07-1.56.46-.31.59-1.26,2.9-3.25,6.97l-4.39,8.83c-1.37,2.84-2.51,4.54-2.82,5.18-.19.48-.07,1.21.69,1.52.69.37,1.32.07,1.56-.35.31-.7,1.02-2.58,2.39-5.42l4.39-8.83c2.05-4.18,3.25-6.14,3.62-6.84"/><path class="b" d="M267.73,160.75c.25-.48,0-1.15-.63-1.52-.7-.31-1.31-.07-1.56.46-.31.59-1.26,2.9-3.25,6.97l-4.39,8.83c-1.37,2.84-2.51,4.54-2.82,5.18-.19.48-.07,1.21.69,1.52.69.37,1.32.07,1.56-.35.31-.7,1.02-2.58,2.39-5.42l4.39-8.83c2.05-4.18,3.25-6.14,3.62-6.84"/></svg>