<?xml version="1.0" encoding="UTF-8"?><svg id="a" xmlns="http://www.w3.org/2000/svg" width="400" height="400" xmlns:xlink="http://www.w3.org/1999/xlink" viewBox="0 0 400 400"><defs><style>.c{fill:url(#b);}.d{fill:#72b2e0;}.e{fill:#ef723e;}</style><linearGradient id="b" x1="199.53" y1="219.81" x2="199.53" y2="263.13" gradientUnits="userSpaceOnUse"><stop offset="0" stop-color="#72b2e0" stop-opacity="0"/><stop offset="1" stop-color="#72b2e0"/></linearGradient></defs><path class="c" d="M197.52,248.7h.8c.4,0,.81,0,1.21,0s.81,0,1.21,0h.8c.34,0,.61-.28.61-.62v-26.97c0-.16-.07-.32-.18-.44-.12-.12-.27-.18-.43-.18h0c-1.34,0-2.68,0-4.02,0h0c-.16,0-.32.06-.43.18-.12.12-.18.27-.18.44v26.97c0,.34.27.61.61.62ZM162.79,219.81h-4.73c-.25,0-.47.15-.57.38l-4.99,12.01c-7.1-.66-14.13-1.48-20.89-2.44l-3.96-9.57c-.1-.23-.32-.38-.57-.38h-4.67c-.21,0-.4.1-.51.28s-.13.39-.05.58l18.17,42.05c.09.2.28.34.5.37l.3.03s.05,0,.07,0h3.86c.25,0,.47-.15.57-.37l17.97-41.86.1-.22c.08-.19.06-.41-.05-.58-.11-.17-.31-.28-.52-.28ZM142.54,256.17l-8.59-20.7c5.36.72,10.87,1.35,16.4,1.89l-7.82,18.81ZM224.17,220.33c-.1-.24-.34-.4-.6-.38-1.5.07-3.01.14-4.52.19-.24,0-.46.16-.55.38l-11.13,27.28c-.08.19-.05.41.06.58.11.17.31.27.51.27,0,0,0,0,0,0,1.51-.02,3.02-.05,4.53-.09.25,0,.47-.16.56-.39l8.37-21.8,8.15,21.09c.1.25.35.41.61.39,1.4-.08,2.8-.17,4.2-.26.2-.01.38-.12.48-.29.1-.17.12-.38.05-.56l-10.72-26.41ZM277.18,220.09c-.11-.17-.31-.28-.51-.28h-4.67c-.25,0-.47.15-.57.38h0c-.06.07-.11.14-.15.22l-3.93,9.37c-6.77.96-13.79,1.77-20.89,2.43l-4.8-11.55c0-.09-.01-.17-.05-.25l-.09-.22c-.1-.23-.32-.38-.57-.38h-4.67c-.21,0-.4.1-.51.28s-.13.39-.05.58l18.19,42.08c.1.23.32.37.57.37h3.75s.04,0,.07,0l.42-.04c.22-.03.41-.17.5-.37l17.95-41.81.1-.22c.08-.19.06-.41-.05-.58ZM256.41,256.17l-7.81-18.8c5.51-.53,11.02-1.16,16.39-1.88l-8.58,20.68ZM180.62,220.52c-.09-.22-.3-.37-.55-.38-1.52-.06-3.02-.12-4.53-.19-.26-.01-.5.14-.6.38l-10.78,26.4c-.07.18-.06.39.05.56s.28.28.48.29c1.45.1,2.9.19,4.37.27.27.02.51-.14.61-.39l8.1-21.1,8.43,21.81c.09.23.31.39.56.39,1.45.03,2.9.06,4.35.08,0,0,0,0,0,0,.2,0,.39-.1.51-.27.12-.17.14-.39.06-.58l-11.07-27.27ZM201.9,256.35s0,0,0,0c-.71-.63-1.5-.96-2.36-.96s-1.66.32-2.36.96c-.72.65-1.09,1.49-1.09,2.5s.37,1.85,1.09,2.5c.71.63,1.5.96,2.36.96s1.66-.32,2.36-.96c.72-.65,1.09-1.49,1.09-2.5s-.37-1.85-1.09-2.5Z"/><path class="e" d="M279.8,191.68l-2.66-6.16h0l-17.95-41.82c-.09-.2-.28-.34-.5-.37l-.41-.04s-.05,0-.07,0h-3.75c-.25,0-.47.15-.57.37l-18.45,42.69c-.08.18-.06.39.04.56.1.17.28.28.48.29,1.52.11,3.03.23,4.53.35.26.02.52-.13.62-.38l.49-1.19c.03-.08.05-.17.05-.25l4.8-11.55c7.11.66,14.13,1.48,20.89,2.43l3.93,9.37c.03.08.08.15.15.21l2.09,5.06c.08.2.26.34.47.37,1.7.28,3.43.58,5.14.88.04,0,.07,0,.11,0,.19,0,.36-.08.48-.23.14-.18.17-.42.08-.63ZM248.6,169.04l7.81-18.8,8.58,20.68c-5.37-.72-10.87-1.35-16.39-1.88ZM145.29,143.66c-.1-.23-.32-.37-.57-.37h-3.86s-.05,0-.07,0l-.3.03c-.22.03-.41.17-.49.37l-20.74,47.99c-.09.21-.06.45.08.63.12.15.3.23.48.23.04,0,.07,0,.11,0,1.72-.31,3.45-.6,5.14-.88.21-.03.39-.18.47-.37l6.06-14.63c6.76-.96,13.79-1.78,20.89-2.44l5.39,12.98c.1.25.35.4.62.38,1.52-.13,3.05-.25,4.59-.36.2-.01.38-.12.48-.29.1-.17.12-.38.04-.56l-18.33-42.69ZM133.95,170.94l8.59-20.7,7.82,18.81c-5.54.54-11.05,1.17-16.4,1.89ZM201.54,157.71h-.8c-.81,0-1.62,0-2.42,0h-.8c-.34,0-.61.28-.61.62v26.97c0,.16.07.32.18.44.12.12.27.18.43.18h0c1.34,0,2.68,0,4.02,0h0c.16,0,.32-.06.43-.18.12-.12.18-.27.18-.44v-26.97c0-.34-.27-.61-.61-.62ZM201.89,145.07h0c-.7-.63-1.5-.96-2.36-.96s-1.66.32-2.36.96c-.72.65-1.09,1.49-1.09,2.5s.37,1.85,1.09,2.5c.7.63,1.5.96,2.36.96s1.66-.32,2.36-.96c.72-.65,1.09-1.49,1.09-2.5s-.37-1.85-1.09-2.5Z"/><path class="e" d="M284.23,203.8c-.09-.16-.24-.28-.42-.32-25.14-5-54.28-7.65-84.27-7.65s-59.37,2.67-84.59,7.71c-.18.04-.34.15-.42.32s-.09.36-.02.53l4.12,9.52c.1.23.32.37.57.37.04,0,.08,0,.12-.01,23.96-4.63,51.7-7.07,80.23-7.07s56.06,2.42,79.94,7.01c.29.06.57-.1.68-.36l4.09-9.53c.07-.17.07-.37-.02-.53ZM136.75,208.7c-.34.2-.73.33-1.18.39-.41.06-.8.05-1.18-.04-.38-.09-.72-.24-1.02-.45-.3-.21-.55-.48-.76-.81s-.34-.71-.4-1.13c-.06-.43-.04-.84.06-1.21.1-.37.27-.7.5-.99.23-.29.51-.53.85-.71s.71-.31,1.12-.37c.42-.06.82-.05,1.21.03.39.08.73.22,1.01.41l-.92,1.51c-.12-.12-.26-.2-.43-.25-.16-.05-.34-.06-.53-.03-.15.02-.29.07-.42.14-.13.07-.23.17-.31.28-.08.12-.14.25-.18.4-.03.15-.04.32-.01.5.03.18.08.33.16.47.08.13.17.24.29.33.11.09.24.15.38.18.14.03.28.04.43.02.21-.03.38-.1.52-.21.14-.11.24-.23.31-.36l1.31,1.18c-.21.28-.48.52-.82.72ZM154.22,206.72l-1.23-1.84h-.05s.19,1.95.19,1.95l-1.78.17-.53-5.45,2.35-.23c.27-.03.53-.02.8,0,.27.03.51.1.74.22.22.12.41.28.56.5.15.22.24.5.28.84.03.33-.02.63-.16.9-.14.27-.36.49-.65.66l1.6,2.07-2.1.2ZM175.58,203.61c-.13.37-.33.69-.59.96-.26.27-.57.48-.93.64s-.76.25-1.19.27c-.43.02-.84-.02-1.22-.14-.38-.12-.71-.3-.99-.54-.28-.24-.51-.54-.69-.89s-.27-.75-.3-1.18c-.02-.44.03-.84.17-1.2.14-.36.33-.67.59-.93.26-.26.57-.47.93-.62.36-.15.76-.24,1.19-.27.43-.02.84.02,1.22.14.38.11.71.29,1,.52.29.23.52.52.69.86.17.34.27.73.3,1.17.02.44-.03.84-.17,1.21ZM191.67,200.99c.09.04.22.09.42.15.2.06.4.13.62.21.22.08.42.18.6.31.18.13.34.29.46.48s.18.42.19.71c0,.33-.06.62-.18.86-.13.25-.3.45-.51.62s-.45.29-.72.37-.54.13-.82.13c-.22,0-.44-.01-.65-.05-.21-.04-.42-.09-.62-.16-.2-.07-.39-.16-.56-.25-.18-.1-.34-.21-.48-.33l1.1-1.24c.13.14.3.26.52.36.22.1.44.16.66.15.1,0,.2-.02.28-.06.08-.04.13-.11.12-.2,0-.05-.02-.1-.04-.13-.03-.04-.08-.07-.15-.11-.07-.04-.17-.08-.3-.12-.13-.04-.29-.1-.48-.16-.19-.06-.37-.13-.54-.21-.17-.08-.32-.18-.46-.31-.13-.12-.24-.27-.32-.44-.08-.17-.12-.38-.13-.62,0-.34.06-.63.2-.87.14-.24.31-.44.53-.59.22-.16.46-.27.73-.34s.54-.11.81-.11c.36,0,.73.06,1.1.19.38.13.71.33.99.59l-1.13,1.18c-.13-.15-.28-.27-.46-.34-.18-.08-.34-.11-.49-.11-.13,0-.24.02-.32.06-.08.04-.12.1-.12.19,0,.08.04.14.13.18ZM209.87,201.03c.08.04.22.1.41.16.19.07.4.14.61.23.21.09.41.2.59.33.18.14.33.3.44.49.11.19.17.43.16.71,0,.33-.08.62-.21.86-.14.24-.31.44-.53.6-.22.16-.46.27-.73.35-.27.07-.54.11-.82.1-.22,0-.44-.03-.65-.07-.21-.04-.42-.1-.61-.18-.2-.08-.38-.17-.55-.27-.17-.1-.33-.22-.46-.34l1.15-1.19c.13.14.29.27.51.38.21.11.43.17.66.18.1,0,.2-.01.28-.05.09-.03.13-.1.13-.2,0-.05-.01-.1-.04-.13-.03-.04-.08-.08-.15-.12-.07-.04-.17-.08-.3-.13-.13-.05-.28-.11-.47-.17-.18-.07-.36-.14-.53-.23-.17-.09-.32-.2-.45-.32-.13-.13-.23-.28-.3-.45-.07-.17-.11-.38-.1-.63,0-.34.08-.63.23-.86.14-.23.33-.43.55-.57.22-.15.47-.25.74-.31.27-.06.55-.09.81-.08.36,0,.73.08,1.1.23.37.15.69.35.97.62l-1.17,1.14c-.12-.16-.27-.28-.45-.36s-.34-.13-.48-.13c-.13,0-.24.01-.33.05-.08.04-.13.1-.13.19,0,.08.04.15.12.19ZM227.9,205.42l-1.85-.1.31-5.46,1.85.1-.31,5.46ZM247.22,206.95l-1.87-.18-1.26-2.74h-.03s-.17,2.6-.17,2.6l-1.74-.17.52-5.45,1.82.17,1.29,2.91h.03s.19-2.77.19-2.77l1.74.17-.52,5.45ZM263.61,207.12c.16.27.46.43.89.49.08.01.16.02.24.02.08,0,.15-.01.2-.03l.06-.41-.87-.13.21-1.43,2.49.36-.43,2.96c-.14.06-.3.11-.47.15-.18.04-.36.07-.55.09-.19.02-.39.03-.6.03-.21,0-.41-.02-.62-.05-.43-.06-.82-.18-1.16-.37-.35-.18-.63-.42-.87-.71-.23-.29-.4-.62-.5-.99-.1-.37-.12-.78-.06-1.21.06-.43.2-.81.4-1.14.2-.33.46-.6.76-.81.3-.21.64-.36,1.02-.44s.77-.1,1.18-.04c.42.06.82.19,1.18.38.36.19.64.43.85.7l-1.25,1.13c-.09-.15-.21-.27-.35-.37-.14-.1-.32-.17-.55-.2-.15-.02-.3-.01-.45.03-.15.04-.28.11-.41.2-.12.09-.23.21-.32.36-.09.14-.15.31-.17.5-.05.38,0,.7.16.96Z"/><path class="e" d="M173.44,201.67c-.1-.1-.22-.17-.36-.22-.13-.05-.28-.07-.43-.06-.15,0-.3.04-.43.11-.13.06-.24.15-.33.25-.09.11-.16.23-.2.38-.05.15-.06.31-.05.49,0,.18.05.34.11.49.06.15.14.27.24.37.1.1.22.18.36.23s.28.07.44.07c.15,0,.3-.05.42-.11.13-.07.24-.16.33-.27.09-.11.16-.25.21-.4.05-.15.06-.32.05-.5,0-.18-.05-.33-.11-.48-.06-.14-.14-.26-.25-.36Z"/><path class="e" d="M153.53,202.79c-.06-.02-.12-.03-.19-.04-.07,0-.13,0-.18,0l-.43.04.09.88.36-.03c.06,0,.13-.02.2-.04.07-.02.14-.05.2-.08s.11-.09.15-.15c.04-.06.05-.14.04-.24,0-.1-.03-.17-.08-.23s-.09-.09-.15-.11Z"/><path class="d" d="M191.12,157.77s0,0,0,0c-1.45.02-2.9.05-4.35.08-.25,0-.47.16-.56.39l-8.43,21.81-8.1-21.1c-.1-.25-.34-.41-.61-.39-1.46.08-2.91.17-4.37.27-.2.01-.38.12-.48.29s-.12.38-.05.56l10.78,26.4c.1.23.32.38.57.38,0,0,.02,0,.03,0,1.5-.07,3.01-.13,4.53-.19.24,0,.46-.16.55-.38l11.07-27.27c.08-.19.05-.41-.06-.58-.12-.17-.31-.27-.51-.27Z"/><path class="d" d="M234.36,158.84c-1.39-.09-2.79-.18-4.2-.26-.27-.02-.51.14-.61.39l-8.15,21.09-8.37-21.8c-.09-.23-.31-.39-.56-.39-1.51-.04-3.02-.07-4.53-.09-.21-.03-.4.1-.52.27s-.14.39-.06.58l11.13,27.28c.09.22.31.37.55.38,1.52.06,3.02.12,4.53.19,0,0,.02,0,.03,0,.25,0,.48-.15.57-.38l10.72-26.41c.07-.18.06-.39-.05-.56-.1-.17-.28-.27-.48-.29Z"/></svg>