<?xml version="1.0" encoding="UTF-8"?><svg id="a" xmlns="http://www.w3.org/2000/svg" width="400" height="400" viewBox="0 0 400 400"><path d="M227.66,139.48c-.23-.92-.59-1.82-1.12-2.61-.51-.8-1.21-1.49-2.02-1.99-.82-.5-1.76-.77-2.71-.84-.95-.07-1.91.06-2.83.32-.93.25-1.76.82-2.34,1.59-.58.77-.91,1.71-1,2.66-.1.94.05,1.96.61,2.76.28.39.67.72,1.11.92.45.2.96.27,1.44.14.48-.12.9-.43,1.17-.84.28-.41.41-.9.43-1.38.01-.49-.1-.98-.37-1.4-.14-.21-.34-.38-.58-.47-.19-.08-.39-.12-.6-.12.16-.41.43-.77.81-.99.41-.25.91-.32,1.39-.29.96.07,1.91.53,2.53,1.27.61.76.86,1.75.94,2.72.04.49.04.98-.05,1.46-.08.48-.24.95-.45,1.38-.43.88-1.11,1.62-1.9,2.19-.79.58-1.69,1.01-2.62,1.34-1.79.65-3.71.82-5.61.76.39-.57.5-1.27.48-1.92-.03-.74-.24-1.47-.63-2.11-.38-.63-1.01-1.18-1.77-1.3-.19-.03-.38-.04-.57-.02-.1,0-.19.02-.28.04h-.07s-.04.02-.04.02h-.02s-.02.01-.03.01c-.06.03-.12.08-.14.16h-.09s.08.03.08.03c0,.02,0,.03,0,.05,0,.03.02.06.03.08l.02.03.03.06s.04.08.06.12c.04.08.07.16.1.24.06.16.11.33.14.5.06.33.02.68-.14.97-.16.29-.43.51-.73.65-.31.15-.65.23-1,.28-.35.05-.7.07-1.05.05-.7-.05-1.39-.25-2.07-.48-.35-.11-.7-.22-1.07-.28-.27-.04-.55-.06-.83-.01,0-.06.01-.12,0-.17-.05-.18-.18-.29-.29-.37-.12-.08-.24-.13-.37-.17.35-.21.63-.5.88-.8.34-.41.62-.84.93-1.24.16-.2.32-.39.49-.56.04-.02.11-.15.06-.24-.02-.05-.05-.09-.09-.11-.04-.02-.08-.03-.09-.03l-.18-.04c-.12-.03-.24-.06-.37-.1-.49-.14-.97-.32-1.45-.5-.97-.35-1.96-.72-3.02-.77-.53-.03-1.06,0-1.58.17-.33.1-.63.26-.91.46,0-.02.01-.04.02-.06.05-.21.08-.43.09-.65.02-.44-.05-.87-.18-1.28-.13-.41-.31-.81-.54-1.17-.22-.37-.49-.71-.8-1-.61-.6-1.37-1.06-2.2-1.29-.42-.11-.85-.16-1.28-.14-.22.02-.43.04-.64.1-.11.02-.21.05-.31.09h-.01s-.08,0-.08,0h.04s-.1.05-.1.05l-.08.03h-.04s-.05.04-.06.06c0,0,0,0,0,0l-.03.02s-.09.08-.09.13c0,.05,0,.1.03.16.04.06.14.08.19.06l.24-.05.24-.02.24.02c.32.05.62.19.86.41.49.43.75,1.1.76,1.76.01.67-.3,1.3-.79,1.75-.49.46-1.11.76-1.76.97-1.3.42-2.7.46-4.07.48-1.38.02-2.77-.03-4.16.05-.69.04-1.39.12-2.07.23-.69.1-1.37.24-2.05.39-1.35.31-2.68.74-3.96,1.28-2.54,1.08-4.9,2.69-6.64,4.86-.04.01-.07.04-.07.04l-.05.05s-.07.06-.1.09c-.06.06-.12.13-.18.2-.12.14-.22.28-.32.43-.2.3-.38.61-.55.92-.33.62-.7,1.24-.87,1.95-.36,1.42.35,3,1.63,3.71.63.35,1.39.51,2.1.3.7-.2,1.31-.66,1.71-1.26.2-.3.35-.64.42-.99.07-.36.04-.73-.05-1.08-.09-.35-.23-.69-.45-.98-.11-.14-.24-.28-.4-.38-.12-.07-.26-.12-.41-.12.86-1.05,1.95-1.9,3.18-2.46,1.27-.59,2.68-.86,4.08-.86,1.4,0,2.81.26,4.05.92,1.25.65,2.25,1.68,3.18,2.71.95,1.02,1.78,2.21,2.98,2.98.6.39,1.29.61,1.99.7.7.09,1.41.06,2.11-.02,1.4-.18,2.75-.6,4.13-.85.69-.12,1.39-.19,2.1-.17.35,0,.7.05,1.04.12.17.04.34.08.51.13l.25.08.13.04s.01,0,.02,0l.51.23-.46-.38s0,0,0,0c-.01-.03-.02-.04-.03-.06l-.06-.1-.13-.2c-.09-.13-.18-.26-.28-.38l-.58-.75c-.28-.38-.58-.75-.87-1.12-.15-.2-.31-.4-.47-.6-.33-.42-.65-.84-1.02-1.23-.42-.45-.87-.88-1.34-1.28,1.21.18,2.36.63,3.46,1.16.56.27,1.11.55,1.65.83.22.12.44.24.65.36.09.05.17.1.26.16.07.04.14.08.2.13.16.1.31.21.46.32.15.11.29.22.42.34.06.05.11.1.16.15.08.07.15.14.23.22.07.06.13.13.2.19.02.02.04.04.06.06.51.52.99,1.09,1.47,1.64.8.9,1.63,1.81,2.63,2.5.5.35,1.04.64,1.61.84.58.2,1.19.27,1.79.26h.23s.11-.02.11-.02c.03,0,.08,0,.11-.04.03-.03.03-.08.02-.12-.02-.04-.05-.07-.07-.09-.05-.05-.11-.11-.15-.17-.19-.24-.3-.52-.39-.81-.17-.56-.22-1.16-.42-1.72.39.29.87.45,1.36.5.25.03.5.03.75.02.08,0,.13-.08.13-.15,0-.07-.02-.13-.04-.19l-.07-.32c.6.38,1.3.55,2,.58.72.04,1.44-.05,2.14-.21.7-.17,1.38-.43,1.97-.86.29-.21.55-.47.76-.77.05-.08.1-.15.14-.23l.06-.12s.05-.08.04-.14c0-.06-.05-.1-.1-.12l-.12-.05-.09-.04c.42.02.84-.02,1.25-.11.46-.12.91-.29,1.33-.51.84-.45,1.59-1.05,2.25-1.72.33-.34.65-.69.95-1.06.3-.37.59-.75.82-1.16.24-.41.44-.84.6-1.29.17-.44.29-.91.39-1.37.2-.93.27-1.88.27-2.83-.01-.95-.09-1.9-.33-2.82M197.47,148.27c-.16-.03-.33-.06-.49-.08-.04,0-.07-.01-.11-.02-.2-.03-.4-.04-.6-.05-.19-.16-.4-.31-.6-.47.2.15.4.3.6.47-.21-.18-.44-.35-.66-.52-.02-.01-.04-.03-.06-.04-1.02-.75-2.14-1.36-3.3-1.84-1.45-.6-2.97-1.01-4.52-1.28-.77-.13-1.55-.23-2.34-.27s-1.57-.03-2.35,0c-1.57.05-3.14.16-4.68.48-1.54.33-3.01.94-4.33,1.81-.66.43-1.27.93-1.84,1.47l-.42.42-.4.43-.38.45-.09.11-.02.03s-.03.05-.01.08c.02.06.11.05.13.01l.2-.21c1.07-1.14,2.31-2.12,3.69-2.87,1.37-.75,2.87-1.25,4.41-1.51,1.55-.1,3.11.2,4.59.68,1.48.5,2.84,1.29,4.15,2.13,1.32.84,2.61,1.73,3.97,2.5,1.36.77,2.75,1.5,4.17,2.16l.27.12.13.06.07.03s0,0,.05.01c.04,0,.08-.02.09-.05.01-.02.02-.05,0-.08,0-.03-.04-.05-.05-.06l-.52-.27-1.03-.56c-.69-.38-1.37-.76-2.04-1.16-.67-.4-1.34-.8-2-1.22-.65-.43-1.29-.88-1.94-1.32-1.28-.89-2.62-1.75-4.08-2.34-1.11-.46-2.29-.79-3.48-.92.4-.03.79-.05,1.19-.07l1.17.15h.07s-.01.01.04,0c.04,0,.07-.05.08-.08,0-.03,0-.06-.03-.08,1.4.03,2.79.17,4.15.46,1.73.38,3.41.99,4.98,1.82.78.41,1.54.88,2.25,1.41.7.54,1.35,1.14,1.96,1.79.61.64,1.15,1.34,1.69,2.05.44.56.89,1.12,1.41,1.62-.52-.16-1.06-.24-1.59-.26-.72-.02-1.43.08-2.13.21-1.4.26-2.76.69-4.15.84-.7.07-1.4.07-2.08-.06-.68-.13-1.31-.45-1.85-.89-.54-.43-1.01-.96-1.47-1.49-.46-.53-.91-1.08-1.39-1.61-.94-1.06-2-2.07-3.3-2.7-1.3-.62-2.76-.84-4.19-.79-1.43.06-2.85.41-4.13,1.07-1.26.66-2.37,1.61-3.17,2.79-.16.05-.31.13-.43.23l-.03.02h-.01s-.03.03-.04.05c-.05.08,0,.19.05.22.03.02.07.03.1.03h.03s.06,0,.06,0c.08,0,.16,0,.24,0,.32,0,.61.09.78.32.35.49.39,1.19.28,1.78-.16.59-.63,1.08-1.15,1.43-.52.35-1.19.41-1.78.23-.6-.17-1.12-.58-1.45-1.11-.34-.53-.51-1.16-.49-1.79.02-.63.24-1.24.54-1.81.3-.57.67-1.1,1.04-1.64,1.72-2.13,3.96-3.83,6.45-4.95,2.5-1.13,5.21-1.77,7.94-2.01,1.37-.13,2.74-.11,4.12-.13,1.38-.03,2.77-.09,4.14-.39.68-.15,1.36-.39,1.96-.76.3-.19.59-.4.83-.68.24-.27.43-.59.55-.93.24-.68.22-1.45-.05-2.12-.18-.44-.48-.85-.87-1.14.87.15,1.7.58,2.34,1.2.41.38.76.85,1.02,1.34.25.5.38,1.06.38,1.62,0,.56-.13,1.12-.42,1.59-.28.47-.71.86-1.2,1.11-.12.07-.26.11-.38.16l-.05.02s-.05.02-.08.05c-.03.03-.05.08-.05.12,0,.08.04.13.1.16.03.02.06.03.1.02h.03c.08-.01.15-.01.23-.03.3-.05.6-.17.86-.33.49-.3.88-.74,1.16-1.24,0,0,.01,0,.02,0,.01,0,.02,0,.03-.01h0s.01,0,.01,0h.02s.08-.06.08-.06l.16-.1c.11-.06.22-.12.33-.18.22-.12.44-.22.67-.29.46-.15.95-.17,1.45-.13.99.09,1.96.38,2.92.67.48.15.97.3,1.46.43.07.02.11.03.19.05.02,0,.04,0,.06,0l-.05.05c-.16.2-.33.39-.49.59-.6.8-1.15,1.69-2.12,1.95l-.18.02h-.05s-.04.01-.06.03c-.03.02-.05.04-.06.06-.03.05-.03.1-.02.15.01.06.09.12.15.11.08,0,.14-.01.21-.02l.17-.02c.14,0,.29.02.44.06.15.04.3.08.4.14.11.08.13.13.08.23-.03.05-.07.1-.12.15-.03.02-.05.05-.08.07-.02.02-.01,0-.08.07-.01.02-.02.04-.02.06,0,0,0,0,0,0-.02.02-.04.06-.04.09,0,.06.01.12.07.16.03.02.07.03.1.03h.04s.15-.04.15-.04c.1-.02.21-.03.31-.04.21-.01.42,0,.63.02.42.05.84.17,1.25.3.42.13.84.27,1.27.37.44.1.89.14,1.34.13.45-.02.89-.08,1.33-.21.43-.13.85-.33,1.19-.65.34-.32.56-.78.57-1.25.01-.38-.09-.74-.24-1.08.06.02.11.04.16.06.13.06.26.14.37.22.11.09.22.19.3.3.04.06.08.12.12.18.02.03.03.06.05.09,0,.02.01.03.02.05v.02s0,0,.04.06c.05.05.1.05.14.03.04-.01.09-.06.09-.12,0-.01,0-.03,0-.04h0s0-.01,0-.01v-.03s-.02-.06-.02-.06c0-.04-.02-.08-.03-.12-.03-.08-.06-.16-.1-.23-.08-.15-.18-.29-.29-.4-.05-.05-.11-.1-.17-.14.11.04.23.09.33.15.31.19.57.46.77.78.4.62.6,1.38.6,2.12,0,.37-.07.74-.21,1.08-.15.34-.37.63-.66.86-.14.11-.3.2-.47.28l-.26.1s-.04.01-.06.04c-.03.02-.04.07-.04.1,0,.06.03.1.08.13.02.01.06.02.08.02h.02s.04,0,.04,0c.05,0,.1,0,.15-.02.38-.05.75-.21,1.04-.47,1.04.21,2.11.18,3.15.03,1.06-.15,2.1-.41,3.11-.76,1.01-.36,1.98-.85,2.83-1.51.42-.33.82-.7,1.16-1.12.34-.42.62-.89.82-1.4.41-1.01.5-2.12.35-3.19-.14-1.07-.58-2.12-1.33-2.91-.37-.39-.83-.72-1.34-.92-.5-.2-1.05-.27-1.58-.24.64-.08,1.3.05,1.88.31.61.27,1.13.7,1.58,1.21.44.5.81,1.08,1.04,1.7.25.62.38,1.29.4,1.96.01.33,0,.67-.05,1-.05.33-.15.65-.26.97-.24.64-.47,1.28-.81,1.87-.17.29-.35.58-.57.84-.05.06-.11.13-.16.19l-.02.02h-.01s0,.02,0,.02c-.01.01-.02.04-.02.06,0,.04.02.06.05.08.02.02.08.02.11,0,.02-.02.02-.02.03-.03l.09-.1c.11-.13.24-.25.34-.39.87-1.07,1.46-2.37,1.64-3.74.09-.61.07-1.22-.03-1.82,0-.01,0-.03,0-.04-.03-.15-.06-.29-.09-.44-.01-.04-.02-.09-.03-.13-.04-.13-.08-.26-.12-.38-.02-.05-.03-.09-.05-.14-.05-.14-.12-.28-.18-.42-.01-.03-.02-.05-.04-.08-.08-.17-.17-.34-.28-.5-.09-.14-.18-.27-.28-.4-.02-.02-.04-.04-.05-.07-.07-.09-.15-.18-.23-.27-.06-.06-.12-.13-.18-.19-.03-.03-.07-.07-.1-.1-.67-.64-1.51-1.11-2.43-1.3-.67-.14-1.39-.12-2.04.12-.33.11-.64.28-.92.49-.15.09-.26.22-.4.34l-.1.09s-.04.04-.03.09c.01.05.04.06.07.07.03.01.09-.02.08-.02l.03-.02.22-.13c.23-.13.46-.25.7-.36-.11.06-.22.13-.32.21-.44.34-.75.83-.89,1.37l.02-.04c-.05.06-.06.13-.05.19,0,.08.05.14.1.18.03.02.07.04.11.05.04,0,.08,0,.09,0h.13c.09.02.18.03.26.06.17.06.31.17.42.3.23.28.33.65.35,1.02.02.37-.06.75-.23,1.07-.17.32-.47.57-.82.67-.35.11-.73.07-1.08-.05-.35-.12-.66-.34-.89-.63-.45-.6-.59-1.39-.58-2.14.02-.76.17-1.53.5-2.21.33-.69.88-1.25,1.53-1.64.66-.39,1.4-.61,2.16-.71.76-.09,1.54-.09,2.29.07,1.51.29,2.81,1.31,3.62,2.61.83,1.3,1.24,2.83,1.33,4.37.09,1.54-.1,3.1-.55,4.57-.23.74-.52,1.46-.95,2.1-.42.64-.93,1.22-1.48,1.76-.85.44-1.81.64-2.77.65-.96,0-1.93-.17-2.81-.55l-.16-.07-.04-.02h-.02s-.08,0-.1.02c-.02.02-.03.06,0,.1,0,.02.03.03.03.03h0s.08.05.08.05c.11.06.22.12.33.17.22.1.46.19.69.26.47.14.96.22,1.45.26.49.04.98.05,1.47.01.35-.03.7-.08,1.04-.18-.52.42-1.09.79-1.7,1.05-.74.32-1.55.47-2.35.41-.3-.13-.6-.26-.91-.37-.16-.06-.31-.11-.47-.16-.04-.01-.07-.02-.13-.04-.09,0-.17.06-.16.16,0,.05.06.1.07.1l.05.03.11.06c.56.31,1.16.53,1.74.78-.34.59-.92,1.02-1.54,1.3-.65.29-1.36.47-2.07.56-.71.08-1.45.08-2.13-.12-.34-.1-.67-.26-.94-.48l-.1-.09s-.1-.09-.17-.06c-.07.02-.11.08-.13.13,0,.03-.01.06,0,.1l.02.07c.03.11.05.22.07.33-.56-.62-1.17-1.2-1.73-1.82l-1.78-2.04v-.02s-.08-.03-.1,0c-.01.01-.02.04,0,.05.01.02,0,.01.01.02l.03.03.05.07.11.13.21.27.41.54.82,1.08c.54.68,1.1,1.35,1.75,1.93-.6-.02-1.2-.17-1.71-.5-.11-.21-.25-.41-.43-.56-.09-.08-.19-.15-.3-.2-.06-.03-.11-.05-.17-.08-.09-.03-.17.08-.13.16.03.04.06.05.08.07l.07.05s.09.07.13.11c.09.08.17.16.24.25.15.18.26.39.35.6.18.43.25.9.36,1.37.1.44.25.89.55,1.25-.76.05-1.52-.07-2.22-.37-.71-.3-1.35-.78-1.91-1.31-1.13-1.07-2.03-2.35-3.12-3.48-1.08-1.14-2.49-1.88-3.89-2.55-1.02-.49-2.08-.95-3.19-1.19-.02,0-.03,0-.05-.01M212.34,148.84s-.01,0,0,0h0ZM195.73,142.94s-.01,0-.01,0h.01ZM195.07,147.23c.13.09.27.18.4.27-.13-.09-.26-.18-.4-.27M212.74,144.23s0,0,0,0M202.58,150.83s.07.04.1.07c-.03-.02-.07-.04-.1-.07M203.62,151.6s.06.05.09.08c-.03-.03-.06-.05-.09-.08M204.1,152.04s.01.01.02.02c0,0-.01-.01-.02-.02"/><polygon points="218.38 138.67 218.37 138.66 218.37 138.66 218.38 138.67"/><path d="M218.27,138.49s0,0,0,0c0,0,0,0,0-.01v.02Z"/><path d="M194.22,149.89s0-.02-.01-.02c0,0,.01.01.01.02,0,0,0-.01-.01-.02-.85-.39-1.65-.88-2.42-1.39-.77-.52-1.52-1.08-2.29-1.61-.77-.53-1.56-1.04-2.4-1.45-.22-.1-.43-.2-.65-.29-.22-.08-.44-.17-.67-.24-.23-.06-.45-.14-.68-.19l-.35-.07-.17-.04-.09-.02h-.02s0,0-.02,0c-.03,0-.09.01-.12.05-.06.07-.06.14-.02.21.02.03.06.06.09.06h.01c.9.16,1.78.48,2.61.88.83.4,1.63.88,2.42,1.38.78.5,1.56,1.02,2.35,1.51.4.25.8.48,1.21.7.21.1.41.22.62.32l.32.14.16.07.08.04s0,0,0,0c0,0,0,0,0,0,0,0,0,0,0,0,0,0,.01,0,.02,0,0,0,0,0,.01-.01,0,0,0,0,0,0,0,0,0,0,0-.01M194.19,149.92s0,0,0,0c0,0,0,0,0,0"/><path d="M204.2,150.34l.12.14v.02s.04.03.05,0c.01-.05-.01-.04-.02-.06l-.05-.08c-.07-.1-.13-.2-.2-.3-.14-.2-.28-.39-.44-.58-.31-.38-.64-.73-.99-1.06-.71-.66-1.5-1.23-2.33-1.71.7.31,1.41.62,2.11.92,0,0,0,0,0,0h0s0,0,0,0c0,0,0,0,0,0,0,0,0,0,0,0l.03.02.07.05.13.09.26.18.48.41.44.46.4.49c.51.67.94,1.4,1.39,2.12.45.72.9,1.44,1.47,2.09l.45.46.5.42.54.36.29.15.15.07.07.04.04.02h.02s0,.01,0,.01c-.02,0,.03.02.1,0,.06-.02.09-.07.1-.12,0-.04,0-.1-.05-.14-.06-.04-.03-.02-.04-.02h0s-.02-.01-.02-.01l-.03-.02-.07-.04-.13-.07-.27-.15-.5-.36-.46-.42-.42-.46c-.54-.64-1-1.35-1.46-2.06-.46-.71-.92-1.43-1.48-2.07-.53-.62-1.18-1.16-1.92-1.5,1.92.82,3.86,1.59,5.88,2.15l.35.31s.02.03.07.04c.04-.01.05-.05.04-.08-.04-.04-.06-.06-.09-.09l-.1-.1,1.41.33c.25.07.51.1.76.14l.76.12c.91.52,1.76,1.13,2.65,1.69l.08.05.04.03s0,0,.04.02c.03,0,.05,0,.06-.03.01-.02.01-.06,0-.08-.02-.02-.02-.01-.03-.02l-.04-.03-.08-.06-.32-.23-.62-.48c-.36-.28-.73-.55-1.13-.79l.78.05c.84.42,1.53,1.09,2.3,1.65.39.28.8.54,1.25.71.45.17.95.23,1.43.17h.09s.01,0,.01,0c0,0,.04,0,.06-.03.03-.05.01-.1-.04-.12-.01,0-.02,0-.03,0h-.04s-.17,0-.17,0c-.12,0-.23,0-.35-.02-.12,0-.23-.03-.34-.06-.11-.02-.22-.06-.33-.1-.44-.15-.84-.4-1.23-.68-.68-.49-1.31-1.08-2.06-1.49,1.55,0,3.1-.23,4.58-.69.79-.25,1.56-.56,2.3-.93.37-.18.73-.38,1.09-.59l.13-.08.03-.02s.02,0,.05-.04c.06-.06.02-.16-.02-.19-.04-.04-.12-.05-.17-.02l-.07.04-.13.08c-.18.1-.35.21-.53.3-1.44.78-3.01,1.32-4.63,1.59-1.62.27-3.27.24-4.89-.03l-.21-.07-.11-.04h-.03s-.07-.02-.1,0c0,0,0,.01-.01.01-1.09-.21-2.17-.51-3.22-.87.42,0,.85-.02,1.27-.08.65-.09,1.3-.27,1.89-.57.59-.3,1.12-.73,1.51-1.27.2-.27.36-.56.48-.87.03-.08.06-.15.09-.23l.04-.12.02-.06v-.03s.01,0,.01,0c0-.01,0-.04,0-.06,0-.04-.04-.08-.08-.09-.04-.01-.1,0-.13.04-.03.05-.02.03-.02.04v.03s-.04.05-.04.05l-.05.11c-.03.07-.07.14-.11.21-.3.56-.74,1.04-1.25,1.41-.52.37-1.11.63-1.72.79-.91.25-1.85.28-2.79.18.29-.02.58-.08.86-.15.41-.11.8-.26,1.19-.42l.58-.25.14-.06h.02s.05-.05.06-.07c.02-.06,0-.11-.03-.15-.03-.04-.13-.04-.14-.02h-.02s-.07.03-.07.03l-.29.11c-.78.27-1.59.46-2.4.5-.81.05-1.61-.15-2.44-.3l-5.44-2.34c.35-.03.7-.11,1.03-.22.26-.09.51-.2.74-.34.12-.07.23-.14.34-.23.06-.04.11-.08.16-.13l.04-.03.02-.02h0s.03-.04.04-.06c.01-.02.01-.05.01-.07,0-.04-.02-.09-.09-.12-.07-.03-.15.02-.13.01h-.02s-.04.04-.04.04c-.45.26-.94.43-1.45.55-.5.12-1.01.18-1.52.26l-.36-.15c.29-.11.57-.26.83-.41.37-.21.73-.44,1.09-.65.36-.21.73-.41,1.11-.53.19-.07.39-.11.59-.14.1-.01.2-.02.3-.02h.04s.02,0,.02,0c.01,0,0,0,.06,0,.1-.04.15-.13.1-.23-.03-.05-.1-.08-.13-.08h-.02s-.16,0-.16,0c-.04,0-.08,0-.13,0,.25-.04.5-.07.75-.1l1-.11.5-.06.25-.04h.03s.09-.02.12-.08c.03-.06.02-.12-.02-.17-.02-.02-.05-.04-.08-.05-.03,0-.06,0-.05,0h-.02s-.03,0-.03,0h-.12c-1.32.14-2.7.04-4.03.42-.67.18-1.28.5-1.87.85-.55.35-1.15.59-1.78.77-.3-.12-.6-.21-.9-.31l-.57-.19c.06-.02.13-.05.19-.08.09-.04.18-.08.27-.13l.07-.04.03-.02h.02s.04-.04.06-.07c.03-.05.03-.11,0-.16-.02-.05-.09-.09-.15-.09-.07.01-.06.02-.07.02h-.03s-.54.21-.54.21c-.17.05-.35.09-.53.13l-.98-.27c.58-.1,1.14-.33,1.63-.63.36-.22.69-.47.99-.77.15-.15.29-.3.42-.46.06-.08.13-.16.19-.25l.09-.13.04-.07s.04-.05.02-.11c-.01-.06-.05-.09-.11-.11-.06-.02-.13.04-.14.05h-.01c-.48.65-1.14,1.13-1.86,1.49-.35.18-.74.29-1.13.39l-.18.04c.19-.06.37-.13.55-.21.67-.3,1.32-.69,1.8-1.26.48-.57.76-1.29.87-2.02.05-.37.06-.73.04-1.1,0-.18-.03-.37-.05-.55l-.02-.14v-.07s-.02-.03-.02-.03v-.02s0,0,0,0c0,0,0,0-.01-.04-.03-.06-.11-.07-.15-.04-.02.01-.04.04-.05.06,0,.03,0,.05,0,.04h0s0,.02,0,.02v.03s0,.07,0,.07v.13c.03.71-.04,1.43-.29,2.09-.24.66-.67,1.25-1.22,1.69-.55.45-1.21.73-1.9.93-.68.22-1.38.29-2.1.37-3.68-.68-7.5-.77-11.16.1-.91.22-1.81.5-2.68.85-.87.35-1.71.78-2.51,1.28l-.3.19-.07.05s-.02.01-.04.03c-.02.02-.04.04-.05.07-.03.12.04.22.17.24.03,0,.06-.01.08-.02l.04-.02.08-.04.16-.08.32-.15c.42-.2.85-.39,1.27-.58.86-.37,1.73-.69,2.63-.95,1.79-.51,3.65-.76,5.51-.84,1.86-.08,3.73.04,5.58.33,1.84.29,3.66.74,5.43,1.33,1.77.59,3.5,1.31,5.21,2.05,1.61,1.06,3.1,2.32,4.34,3.8M203.25,148.23s-.05-.04-.08-.06c.03.02.05.04.08.06M202.46,147.65h0M202.57,147.73l-.07-.04-.03-.02s0,0,0,0c.14.08.27.17.39.26l-.16-.11-.13-.09ZM209.2,155.1h0s0,0,0,0M211.01,150s.03.03.03.05c-.01,0-.03,0-.04-.01v-.04ZM201.12,144.45h0s0,0,0,0M201.58,142.89s0,0,0,0M198.95,143.58c-.38.2-.74.42-1.11.61-.17.09-.34.16-.51.22.33-.15.63-.34.93-.52.29-.17.58-.34.87-.47.25-.11.52-.2.78-.28-.34.13-.66.28-.97.44"/><path d="M125.37,260.87v3.38h-1.14v-8.65h3.19c.95,0,1.69.24,2.22.72.54.48.8,1.12.8,1.92,0,.84-.26,1.49-.79,1.94s-1.28.68-2.25.68h-2.04ZM125.37,259.93h2.05c.61,0,1.08-.14,1.4-.43.32-.29.49-.7.49-1.25s-.16-.93-.49-1.24c-.32-.31-.77-.47-1.34-.48h-2.11v3.4Z"/><path d="M141.22,260.21c0,.85-.14,1.59-.43,2.22-.28.63-.69,1.11-1.21,1.45-.52.33-1.13.5-1.83.5s-1.28-.17-1.81-.5c-.53-.33-.94-.81-1.23-1.43-.29-.62-.44-1.34-.45-2.15v-.62c0-.83.14-1.57.43-2.2.29-.64.7-1.13,1.23-1.46.53-.34,1.13-.51,1.81-.51s1.3.17,1.83.5.94.82,1.22,1.46c.28.64.43,1.37.43,2.22v.55ZM140.09,259.65c0-1.03-.21-1.81-.62-2.36-.41-.55-.99-.82-1.73-.82s-1.29.27-1.7.82c-.41.55-.63,1.31-.64,2.28v.64c0,.99.21,1.77.63,2.34.42.57.99.85,1.72.85s1.31-.27,1.71-.8.61-1.31.62-2.31v-.64Z"/><path d="M148.78,260.75h-2.03v3.5h-1.15v-8.65h2.86c.97,0,1.72.22,2.25.66.52.44.79,1.09.79,1.94,0,.54-.15,1.01-.44,1.41-.29.4-.7.7-1.21.9l2.03,3.67v.07h-1.22l-1.88-3.5ZM146.75,259.82h1.75c.57,0,1.02-.15,1.35-.44.33-.29.5-.69.5-1.18,0-.54-.16-.95-.48-1.23-.32-.29-.78-.43-1.38-.43h-1.75v3.28Z"/><polygon points="161.27 256.54 158.49 256.54 158.49 264.25 157.35 264.25 157.35 256.54 154.58 256.54 154.58 255.61 161.27 255.61 161.27 256.54"/><polygon points="166.37 263.32 170.47 263.32 170.47 264.25 165.23 264.25 165.23 255.61 166.37 255.61 166.37 263.32"/><path d="M179.33,261.99h-3.62l-.81,2.26h-1.18l3.3-8.65h1l3.31,8.65h-1.17l-.83-2.26ZM176.05,261.06h2.94l-1.47-4.04-1.47,4.04Z"/><polygon points="191.81 264.25 190.66 264.25 186.31 257.59 186.31 264.25 185.17 264.25 185.17 255.61 186.31 255.61 190.68 262.3 190.68 255.61 191.81 255.61 191.81 264.25"/><path d="M196.51,264.25v-8.65h2.44c.75,0,1.42.17,1.99.5.58.33,1.02.81,1.34,1.42.31.61.47,1.32.48,2.11v.55c0,.82-.16,1.53-.47,2.14-.32.61-.76,1.08-1.35,1.41-.58.33-1.26.5-2.04.5h-2.39ZM197.65,256.54v6.78h1.2c.88,0,1.56-.27,2.05-.82.49-.55.73-1.33.73-2.34v-.51c0-.98-.23-1.75-.69-2.29-.46-.54-1.12-.82-1.96-.83h-1.33Z"/><path d="M206.35,265.97l-.62-.43c.37-.52.57-1.05.58-1.6v-.99h1.07v.86c0,.4-.1.8-.29,1.2-.2.4-.44.72-.74.96"/><path d="M223.95,260.21c0,.85-.14,1.59-.43,2.22-.28.63-.69,1.11-1.21,1.45-.52.33-1.13.5-1.83.5s-1.28-.17-1.81-.5c-.53-.33-.94-.81-1.23-1.43-.29-.62-.44-1.34-.45-2.15v-.62c0-.83.14-1.57.43-2.2.29-.64.7-1.13,1.23-1.46.53-.34,1.13-.51,1.81-.51s1.3.17,1.83.5c.53.33.94.82,1.22,1.46.28.64.43,1.37.43,2.22v.55ZM222.82,259.65c0-1.03-.21-1.81-.62-2.36-.41-.55-.99-.82-1.73-.82s-1.29.27-1.7.82c-.41.55-.63,1.31-.64,2.28v.64c0,.99.21,1.77.63,2.34.42.57.99.85,1.72.85s1.31-.27,1.71-.8.61-1.31.62-2.31v-.64Z"/><path d="M231.51,260.75h-2.03v3.5h-1.15v-8.65h2.86c.97,0,1.72.22,2.25.66.52.44.79,1.09.79,1.94,0,.54-.15,1.01-.44,1.41-.29.4-.7.7-1.21.9l2.03,3.67v.07h-1.22l-1.88-3.5ZM229.48,259.82h1.75c.57,0,1.02-.15,1.35-.44.33-.29.5-.69.5-1.18,0-.54-.16-.95-.48-1.23-.32-.29-.78-.43-1.38-.43h-1.75v3.28Z"/><polygon points="243.39 260.26 239.64 260.26 239.64 263.32 243.99 263.32 243.99 264.25 238.5 264.25 238.5 255.61 243.93 255.61 243.93 256.54 239.64 256.54 239.64 259.32 243.39 259.32 243.39 260.26"/><path d="M254.47,263.12c-.29.42-.7.73-1.23.94-.52.21-1.14.31-1.83.31s-1.33-.17-1.88-.5c-.55-.33-.97-.8-1.27-1.41-.3-.61-.45-1.32-.46-2.12v-.75c0-1.3.3-2.31.91-3.03.61-.72,1.46-1.07,2.56-1.07.9,0,1.63.23,2.18.69.55.46.89,1.12,1.01,1.96h-1.14c-.21-1.15-.89-1.72-2.04-1.72-.76,0-1.34.27-1.74.81-.39.54-.59,1.31-.6,2.33v.71c0,.97.22,1.74.66,2.31.44.57,1.04.86,1.8.86.43,0,.8-.05,1.12-.14.32-.1.59-.25.8-.48v-1.94h-2v-.93h3.13v3.17Z"/><path d="M265.69,260.21c0,.85-.14,1.59-.43,2.22-.29.63-.69,1.11-1.21,1.45-.52.33-1.13.5-1.83.5s-1.28-.17-1.81-.5c-.53-.33-.94-.81-1.23-1.43-.29-.62-.44-1.34-.45-2.15v-.62c0-.83.14-1.57.43-2.2.29-.64.7-1.13,1.23-1.46.53-.34,1.13-.51,1.81-.51s1.3.17,1.83.5c.53.33.94.82,1.22,1.46.28.64.43,1.37.43,2.22v.55ZM264.56,259.65c0-1.03-.21-1.81-.62-2.36-.41-.55-.99-.82-1.73-.82s-1.29.27-1.7.82c-.41.55-.63,1.31-.64,2.28v.64c0,.99.21,1.77.63,2.34.42.57.99.85,1.72.85s1.31-.27,1.71-.8.61-1.31.62-2.31v-.64Z"/><polygon points="276.72 264.25 275.58 264.25 271.23 257.59 271.23 264.25 270.08 264.25 270.08 255.61 271.23 255.61 275.59 262.3 275.59 255.61 276.72 255.61 276.72 264.25"/><polygon points="128.52 146.05 124.83 146.05 124.83 149.07 129.12 149.07 129.12 149.99 123.7 149.99 123.7 141.46 129.06 141.46 129.06 142.38 124.83 142.38 124.83 145.13 128.52 145.13 128.52 146.05"/><path d="M134.71,146.19c-.96-.28-1.67-.62-2.11-1.02-.44-.4-.66-.9-.66-1.5,0-.67.27-1.23.81-1.67.54-.44,1.24-.66,2.09-.66.59,0,1.11.11,1.57.34.46.23.81.54,1.07.94.25.4.38.83.38,1.31h-1.13c0-.52-.16-.92-.49-1.22-.33-.3-.79-.44-1.39-.44-.55,0-.99.12-1.3.37-.31.24-.47.58-.47,1.02,0,.35.15.64.44.88.29.24.8.46,1.51.66.71.2,1.26.42,1.66.66.4.24.7.52.89.84.19.32.29.7.29,1.13,0,.69-.27,1.24-.81,1.66-.54.42-1.26.62-2.16.62-.59,0-1.13-.11-1.64-.34-.51-.22-.9-.53-1.17-.92-.28-.39-.41-.83-.41-1.33h1.13c0,.52.19.92.57,1.22.38.3.89.45,1.53.45.59,0,1.05-.12,1.36-.36.32-.24.47-.57.47-.99s-.15-.74-.44-.97c-.29-.23-.82-.45-1.59-.68"/><polygon points="146.89 142.38 144.15 142.38 144.15 149.99 143.03 149.99 143.03 142.38 140.29 142.38 140.29 141.46 146.89 141.46 146.89 142.38"/><path d="M148.41,149.42c0-.19.06-.34.17-.47.11-.12.28-.19.5-.19s.39.06.51.19c.12.12.17.28.17.47s-.06.33-.17.45c-.11.12-.28.18-.51.18s-.39-.06-.5-.18c-.11-.12-.17-.27-.17-.45"/><polygon points="248.42 150.05 247.33 150.05 247.33 142.82 245.14 143.63 245.14 142.64 248.25 141.48 248.42 141.48 248.42 150.05"/><path d="M257.42,146.3c-.23.27-.5.49-.81.65-.31.16-.66.25-1.03.25-.49,0-.92-.12-1.29-.36-.36-.24-.65-.58-.85-1.02-.2-.44-.3-.92-.3-1.46,0-.57.11-1.08.33-1.54.22-.46.52-.81.92-1.05.4-.24.86-.36,1.39-.36.84,0,1.51.32,1.99.95.49.63.73,1.49.73,2.58v.32c0,1.66-.33,2.87-.98,3.63-.66.76-1.65,1.15-2.97,1.17h-.21v-.92h.23c.89-.02,1.58-.25,2.06-.7s.74-1.16.78-2.14M255.75,146.3c.36,0,.7-.11,1-.33.31-.22.53-.5.67-.83v-.43c0-.71-.15-1.29-.46-1.73-.31-.45-.7-.67-1.17-.67s-.86.18-1.15.55-.43.85-.43,1.44.14,1.06.42,1.44c.28.38.65.56,1.12.56"/><path d="M267.27,150.05h-5.59v-.78l2.95-3.28c.44-.5.74-.9.9-1.21.17-.31.25-.63.25-.96,0-.45-.13-.81-.4-1.1-.27-.29-.63-.43-1.08-.43-.54,0-.96.15-1.26.46-.3.31-.45.73-.45,1.28h-1.08c0-.78.25-1.42.76-1.9.51-.48,1.18-.73,2.03-.73.79,0,1.42.21,1.88.62.46.42.69.97.69,1.66,0,.84-.54,1.84-1.61,3l-2.28,2.48h4.28v.88Z"/><polygon points="275.61 142.13 272.07 150.05 270.94 150.05 274.46 142.41 269.84 142.41 269.84 141.52 275.61 141.52 275.61 142.13"/><path d="M126.48,182.39c1.27,1.59,3.07,2.99,4.64,4.28,2.09,1.67,4.21,3.85,4.02,6.66.04,1.92-1.07,3.65-2.89,4.44.89-.21,1.68-.64,2.3-1.26.83-.85,1.27-1.97,1.25-3.17.18-2.79-2-4.91-3.92-6.44l-.54-.44c-1.41-1.15-3-2.45-4.15-3.89l-.15-.18h0c-1.84-2.36-2.29-5.2-1.19-7.65.75-1.68,2.16-2.93,3.95-3.61-5.15,1.33-6.86,6.97-3.33,11.26h0Z"/><path d="M124.76,198.63l-.08.08-.17-.38c-.08-.17-.08-.36-.08-.56.05-.89.11-1.69.16-2.36-.09-.26-.16-.52-.2-.8-.07-.49-.1-.73-.13-.97-.03-.26-.15-.24-.17.01-.04.45-.2,2.06-.31,4.11,0,.2,0,.34.06.45h0,0c.05.11.14.2.31.29.54.24,1.11.44,1.69.61-.29-.1-.58-.22-.86-.34-.07-.04-.14-.08-.2-.13"/><path d="M137.59,187.16h0c-1.52-1.91-3.59-3.37-5.48-4.91-1.92-1.5-3.63-3.48-3.45-5.55-.02-2.77,2.05-4.36,4.65-4.24,1.77.03,2.9.37,3.6.74.36.2.71.43.94.76.4.62.44,1.24.48,1.61.02.26.04.39.05.49.02.17.17.18.19.07.02-.12.19-3.39.23-4.13,0-.09-.06-.17-.15-.19-1.69-.37-3.21-.75-5.34-.66-6.63.26-9.24,6.74-5.29,11.55h0c1.27,1.59,3.07,2.99,4.64,4.29,2.09,1.67,4.21,3.85,4.03,6.66.06,2.94-2.55,5.44-6.34,4.78-.81-.14-1.68-.34-2.46-.71-1.13-.53-1.78-1.56-1.97-2.81-.07-.49-.1-.73-.13-.97-.03-.26-.15-.24-.17.01-.04.45-.2,2.06-.31,4.11,0,.2,0,.34.06.45,0,0,0,0,0,0h0s0,0,0,0c.05.11.14.2.31.29,3.39,1.51,7.53,1.54,10.61-.48,3.92-2.97,3.91-8.01,1.31-11.17"/><path d="M197.76,171.51h-6.7c-.44,0-.55.11-.55.15t0,0c0,.07.15.11.37.11.04,0,.1,0,.16,0,.15.14.25.33.26.55.06.58-.21,1.23-.38,1.77-.77,2.41-4.62,12.57-7.08,18.52-2.1-5.43-7.59-19.08-7.44-19.97,0-.28.11-.59.38-.71.54-.23,2.05-.15,2.37-.16.22,0,.22-.26-.18-.26h-9.84c-.51,0-.51.25-.26.26.5.01.94.03,1.33.06.48.27.87.76,1.18,1.43.69,1.41,9.72,22.9,10.97,25.86.05.13.23.13.29,0,.05-.11.11-.25.17-.4-1.73-4.12-10.08-23.99-10.74-25.33-.41-.88-.92-1.35-1.75-1.54,1.31.14,2.03.52,2.59,1.73.69,1.41,9.72,22.9,10.97,25.86.05.13.23.13.29,0,1.17-2.73,9.04-21.13,10.01-23.53.7-1.52,1.18-3.69,3.04-4.1.35-.07.75,0,1.08-.06.06-.02.09-.05.09-.08s-.11-.15-.62-.15M192.45,174.4c-.84,2.63-5.37,14.55-7.73,20.08-.03.08-.15.07-.18-.01-.08-.24-.22-.61-.4-1.08,2.43-5.78,6.66-16.94,7.44-19.39.03-.1.06-.2.1-.3.15-.46.31-.93.27-1.35-.01-.26-.21-.48-.48-.54-.09-.02-.21-.03-.37-.04.3,0,.77.02,1.02.07.38.08.69.39.71.79.06.58-.21,1.23-.38,1.77"/><path d="M215.74,173.41c3.21,1.19,6.15,3.9,7.54,7.28,1.63,3.97.86,11.04-2.12,13.87-1.15,1.15-2.58,2.04-4.18,2.62.01,0,.03,0,.05,0,1.88-.54,3.58-1.51,4.88-2.82,2.96-2.81,3.6-9.8,2.06-13.56-1.44-3.52-4.7-6.4-8.21-7.39"/><path d="M228.91,184.99c-.18-7.46-4.35-11.56-10.57-12.95h0c-3.49-.69-6.1-.49-8.78-.5-1.44.02-8.01.11-8.53.14-.34.02-.4.31.1.31.31,0,.58,0,.83.03.61.36.73,1,.85,1.73.62,3.82.52,11.54.57,17.49.03,2.92.37,5.87-1.84,6.91.66-.13,1.18-.39,1.56-.78,1.04-1.07,1-3.05.95-5.15,0-.33-.01-.65-.02-.98-.01-1.1-.02-2.26-.02-3.45-.02-5.11-.05-10.91-.55-14-.15-.91-.26-1.54-1.37-1.77,1.95.17,2.06.92,2.24,2.04.62,3.82.52,11.54.57,17.49.03,3.62.56,7.28-3.91,7.31-.27,0-.33.33.08.33,1.1,0,10.54.36,12.56.34h0c9.62.02,14.64-5.73,15.24-13.75h0c.01-.26.02-.52.02-.78M222.69,194.87c-1.35,1.35-3.09,2.34-5.03,2.9h0c-2.04.39-6.29.89-8.93-.19-1.28-.52-1.21-1.55-1.32-2.67h0,0c-.16-1.72-.12-9.64-.12-13.36,0-1.99.02-4.43.03-6.18,0-.62.01-1.7.01-2.2,0-.16.12-.29.28-.29.42-.02,1.26-.04,2.25-.04,1.77,0,4.03.13,5.24.32,3.99.57,8.03,3.7,9.72,7.84,1.63,3.97.86,11.04-2.12,13.87"/><path d="M261.78,172.75c2.43.91,4.52,2.73,5.74,5.05,1.24,2.29,1.79,4.68,1.82,7.82-.03,7.55-3.39,10.7-6.58,11.89,1.11-.3,2.37-.86,3.53-1.85,2.44-2.09,3.68-5.47,3.7-10.05-.03-3.07-.58-5.44-1.79-7.68-1.36-2.58-3.74-4.45-6.43-5.19"/><path d="M248.7,195.68h0c-3.84-4.14-5.03-10.5-2.98-15.93,1.51-3.98,4.48-6.85,8.41-8.24-10.94,3.17-12.99,16.91-5.97,24.18h0c1.52,1.56,3.42,2.62,5.48,3.23-1.83-.67-3.44-1.69-4.74-3.02l-.2-.2Z"/><path d="M272.61,177.78h0c-2.64-4.75-8.32-6.91-13.56-6.57h0c-13.86,1.09-17.06,16.82-9.36,24.78h0c3.37,3.46,8.63,4.47,13.24,3.57h0c7.02-1.4,11.45-7.49,11.45-14.66,0-2.74-.64-5.13-1.77-7.12M260.64,198.47c-7.36-.05-11.75-6.92-11.58-14.01,0-8.01,4.57-12.04,10.68-12.04,3.87-.04,7.51,2.29,9.3,5.69,1.24,2.29,1.79,4.68,1.82,7.82-.04,10.73-6.81,12.57-10.23,12.55"/><path d="M142.48,171.71c-.12,1.08-.44,4.16-.44,4.16-.06.32.2.42.27.06.14-.7.3-1.28.55-1.7.1-.92.21-2.01.28-2.56.01-.07.02-.12.02-.16,0-.05.01-.13.04-.2-.33,0-.52,0-.53,0-.18.01-.14.13-.18.4"/><path d="M166.45,176.09s-.32-3.08-.44-4.16c-.05-.27,0-.39-.18-.4-.07,0-5.47.12-10.88.12s-10.95-.12-11.02-.12c-.18.02-.14.13-.18.4-.12,1.08-.44,4.16-.44,4.16-.06.32.2.42.27.06.3-1.55.72-2.47,2.03-2.57,2.08-.12,4.19-.1,6.28-.13.03,2.68.22,20.79.07,23.1-.07.98-.35,1.72-.86,2.09.15,0,.29-.02.41-.06.85-.22,1.06-1.38,1.1-2.06.16-2.33-.04-20.57-.07-23.09.27,0,.54,0,.81-.02.04,0,.07.02.07.06.01,1.25.23,20.96.07,23.38-.08,1.24-.52,2.11-1.32,2.32-.33.08-.77.07-1.1.07-.27-.01-.36.12-.25.15h-.03s.15.11.57.11h7.05c.42,0,.54-.06.57-.11h-.03c.1-.03.02-.16-.25-.15-.33,0-.77.01-1.1-.07-.8-.21-1.23-1.08-1.32-2.32-.16-2.42.06-22.12.07-23.38,0-.04.03-.06.07-.06,2.57.06,5.17,0,7.74.15,1.31.1,1.72,1.02,2.03,2.57.07.36.33.26.27-.06"/><path d="M241.82,199.08h0c-2.04.05-2.8-.14-3-2.42-.18-1.54-.18-21.11-.11-22.28.07-.92.16-2.13,1.21-2.38.37-.07.66-.07.95-.07.22,0,.41-.03.4-.12h-.02.02c-.02-.07-.2-.14-.58-.14h-7.05c-.38,0-.57.07-.58.14t0,0h0c-.01.08.13.11.32.12.58.46.66,1.4.71,2.14.07,1.17.07,20.75-.11,22.28-.1,1.17-.35,1.78-.85,2.1.95-.1,1.36-.52,1.5-2.13.19-1.64.17-21.27.11-22.24-.08-1.05-.21-1.93-.99-2.11-.12-.02-.22-.04-.33-.04.01,0,.02,0,.03,0,.29,0,.59,0,.95.07,1.05.25,1.14,1.46,1.21,2.38.07,1.17.07,20.75-.11,22.28-.2,2.28-.96,2.47-3,2.42-.26,0-.44.28.14.28h9.04c.58,0,.4-.28.14-.28"/><path d="M152.72,213.47h-6.7c-.44,0-.55.11-.55.15,0,0,.01,0,.02,0h0s-.01,0-.02,0c0,.07.15.11.37.11.04,0,.1,0,.16,0,.15.14.25.33.26.55.06.58-.21,1.23-.38,1.77-.77,2.41-4.62,12.57-7.08,18.52-2.1-5.43-7.59-19.08-7.44-19.97,0-.28.11-.59.38-.71.54-.23,2.05-.15,2.37-.16.22,0,.22-.26-.18-.26h-9.84c-.51,0-.51.25-.26.26.49.01.93.03,1.31.06.48.26.84.68,1.15,1.34.69,1.41,9.76,22.98,11.01,25.95.05.13.23.13.29,0,.05-.11.11-.25.17-.4-1.73-4.12-10.12-24.07-10.78-25.41-.41-.88-.89-1.27-1.7-1.46,1.31.14,2.03.52,2.59,1.73.69,1.41,9.72,22.9,10.97,25.86.05.13.23.13.29,0,1.17-2.73,9.04-21.13,10.01-23.53.7-1.52,1.18-3.69,3.04-4.1.35-.07.75,0,1.08-.06.06-.02.09-.05.09-.08s-.11-.15-.62-.15M147.41,216.36c-.84,2.63-5.37,14.55-7.73,20.08-.03.08-.15.07-.18-.01-.08-.24-.22-.61-.4-1.08,2.43-5.78,6.66-16.94,7.44-19.39.03-.1.06-.2.1-.3.15-.46.31-.93.27-1.35-.01-.26-.21-.48-.48-.54-.09-.02-.21-.03-.37-.04.3,0,.77.02,1.02.07.38.08.69.39.71.79.06.58-.21,1.23-.38,1.77"/><path d="M206.87,215.37c3.21,1.19,6.15,3.9,7.54,7.28,1.63,3.97.86,11.04-2.12,13.87-1.15,1.15-2.58,2.04-4.18,2.62.01,0,.03,0,.05,0,1.88-.54,3.57-1.51,4.88-2.82,2.95-2.81,3.6-9.8,2.06-13.56-1.44-3.52-4.7-6.4-8.21-7.39"/><path d="M220.04,226.95c-.18-7.46-4.35-11.56-10.57-12.95h0c-3.49-.69-6.1-.49-8.78-.5h0c-1.44.02-8.01.11-8.52.14-.34.02-.4.31.1.3.31,0,.58,0,.83.03.61.36.71.93.82,1.67.62,3.82.54,11.61.6,17.56.03,2.92.37,5.87-1.84,6.91.66-.13,1.18-.39,1.56-.78,1.04-1.07,1-3.05.95-5.15,0-.33-.01-.65-.02-.98-.01-1.1-.02-2.26-.02-3.45-.02-5.12-.07-10.98-.57-14.07-.15-.91-.25-1.47-1.33-1.7,1.93.17,2.05.93,2.22,2.03.62,3.82.52,11.54.57,17.49.04,3.62.56,7.28-3.91,7.31-.27,0-.33.33.08.33,1.1,0,10.54.36,12.56.34h0c9.62.02,14.64-5.73,15.25-13.75h0c.01-.26.02-.52.02-.78ZM213.81,236.83c-1.35,1.35-3.08,2.34-5.03,2.9h0c-2.04.39-6.29.89-8.93-.19-1.28-.52-1.21-1.55-1.32-2.67h0c-.16-1.72-.12-9.64-.12-13.36,0-1.99.02-4.43.03-6.18,0-.62.01-1.7.01-2.2,0-.16.12-.29.28-.29.42-.02,1.26-.04,2.25-.04,1.77,0,4.03.12,5.24.32,3.99.57,8.03,3.7,9.72,7.84,1.63,3.97.86,11.04-2.12,13.87"/><path d="M187.19,238.15c.15-.91.27-1.74.29-1.89.04-.25-.22-.37-.32.03-.42,1.79-.86,2.69-1.71,3.13.82-.13,1.33-.47,1.74-1.27"/><path d="M188.7,236.6c-.84,3.56-1.73,3.61-5.81,3.46-2.32-.08-4.75-.94-4.91-2.96-.29-3.65-.96-19.67.22-22.31.43-.97,1.71-.92,2.38-.93.44,0,.43-.27.05-.27h-8.96c-.42,0-.33.27,0,.27.19,0,.37,0,.55.01.4.25.65.64.76,1.26.46,2.76.25,7.92.2,15.2-.06,7.32-.11,9.38-1.08,10.03,1.63-.23,1.67-1.15,1.74-10.04.01-1.73.04-3.34.06-4.82.07-4.76.09-8.25-.25-10.33-.13-.77-.48-1.15-1.32-1.3,1.32.07,2.03.45,2.22,1.61.46,2.76.23,7.87.18,15.15-.08,10.1-.16,10.19-2.64,10.38-.15.01-.39.23.01.23,1.82-.04,11.32.1,13.94.1,1.13,0,1.74-.04,2.01-.24.12-.09.2-.21.24-.38.29-1.1.69-3.88.73-4.18.04-.25-.22-.37-.32.03"/><path d="M238.77,238.45c.14-1.6-.04-20.1-.08-24.65l-.41-.44c-.09-.09-.24-.03-.24.1.03,2.94.23,23.32.08,25.01-.1,1.17-.22,1.75-.64,2.05,1.03-.11,1.16-.46,1.3-2.08"/><path d="M266.32,213.78c-1.1,0-6.46,0-8.25,0-.47,0-.3.25,0,.26.29,0,.67,0,1.07.01.25.16.44.38.53.7.41,1.08.51,15.57.55,20.36l-20.4-21.43c-.09-.09-.24-.03-.24.1.03,2.94.23,23.32.08,25.01-.18,2.17-.45,2.33-2.52,2.4-.27,0-.39.26-.01.26,1.1,0,6.35,0,8.14,0,.44,0,.35-.28.04-.29-1.66,0-2.75.11-3.12-1.87-.33-1.23-.44-14.35-.49-18.57l19.8,20.36c.11.11.29.04.29-.12,0-.04,0-.09,0-.14l-20.11-20.67c0-.14,0-.27,0-.37,0-.13.15-.19.24-.1l21.11,21.7c.11.11.29.04.29-.12.03-3.3.26-25.27.37-25.72.1-1.57,1.43-1.47,2.7-1.51.26,0,.3-.26-.07-.26M261.5,236.47l-.64-.67c0-.31,0-.8,0-1.14-.09-12.41-.27-19.13-.52-19.8-.12-.44-.49-.67-.97-.79.81.07,1.62.29,1.83,1.07.46,1.2.52,18.56.55,21.24,0,.13-.15.19-.24.1"/><path d="M268.66,232.45c-2.18-7.17-.09-14.4,5.09-17.57.87-.53,1.81-.98,2.81-1.33-1.22.35-2.44.86-3.6,1.58-5.15,3.16-7.06,10.34-4.96,17.24,1.23,4.04,4.03,7.09,8.62,8.35-3.96-1.36-6.72-4.19-7.96-8.26"/><path d="M295.55,227.58h-8.84c-.42,0-.44.25-.11.26.21,0,.5,0,.8.02.45.44.82,1.39.98,2.72.38,3.06.13,7.1.13,7.1-.01.76-.17,1.1-.41,1.28.16-.03.3-.06.41-.09.37-.09.64-.16.66-1.2,0-.05.24-4.06-.13-7.06-.22-1.82-.77-2.61-1.19-2.73.22.01.41.02.55.04.71.06,1.29,1.14,1.52,2.97.38,3.06.13,7.1.13,7.1-.02,1.18-.39,1.35-.88,1.47-1.14.29-4.85.79-7.35.42-6.3-.93-10.01-6.33-10.25-13.69-.05-8.09,5.34-12.21,11.76-12,3.16.08,6.66.46,8.58,2.81.74.91.68,2.19.7,2.5.02.31.3.36.35-.05.14-1.32.24-4.62.27-5.01,0-.07,0-.13-.04-.18,0,0,0,0,0,0h0c-.03-.06-.1-.11-.22-.11-.66,0-1.45.05-3.32-.32-2.59-.51-9.48-1.88-15.16,1.6-5.15,3.16-7.06,10.34-4.96,17.24,1.55,5.11,5.63,8.64,12.66,8.96,4.28.19,9.27-1.09,9.95-1.42.38-.18.63-.56.64-.99.05-1.85.18-6.97.3-8.94.07-1.14.13-1.99.92-2.32.28-.12,1.12-.11,1.73-.13.22,0,.2-.26-.18-.26"/><path d="M165.79,241.04h0c-2.04.05-2.8-.14-3-2.42-.18-1.54-.18-21.11-.11-22.28.07-.92.16-2.13,1.21-2.38.37-.07.66-.07.95-.07.22,0,.41-.03.4-.12h-.03.02c-.02-.07-.2-.14-.58-.14h-7.05c-.38,0-.57.07-.58.14h.02-.02c-.01.08.13.11.31.12.59.46.66,1.4.71,2.14.07,1.17.07,20.75-.11,22.28-.1,1.17-.35,1.78-.85,2.1.95-.1,1.36-.52,1.5-2.13.19-1.64.17-21.27.11-22.24-.08-1.05-.21-1.93-.99-2.11-.12-.02-.22-.04-.33-.05.01,0,.02,0,.03,0,.29,0,.59,0,.95.07,1.05.25,1.14,1.46,1.21,2.38.07,1.17.07,20.75-.11,22.28-.2,2.28-.96,2.47-3,2.42h0c-.26,0-.44.28.14.28h9.04c.58,0,.4-.28.14-.28"/><path d="M232.51,241.04h0c-2.04.05-2.8-.14-3-2.42-.18-1.54-.18-21.11-.11-22.28.07-.92.16-2.13,1.21-2.38.37-.07.66-.07.95-.07.22,0,.41-.03.4-.12h-.02.02c-.02-.07-.2-.14-.58-.14h-7.05c-.38,0-.57.07-.58.14h.02-.02c-.01.08.13.11.32.12.59.46.66,1.4.71,2.14.07,1.17.07,20.75-.11,22.28-.1,1.17-.35,1.78-.85,2.1.95-.1,1.36-.52,1.5-2.13.19-1.64.17-21.27.11-22.24-.08-1.05-.21-1.93-.99-2.11-.12-.02-.22-.04-.33-.05.01,0,.02,0,.03,0,.29,0,.59,0,.95.07,1.05.25,1.14,1.46,1.21,2.38.07,1.17.07,20.75-.11,22.28-.2,2.28-.96,2.47-3,2.42h0c-.26,0-.44.28.14.28h9.04c.58,0,.4-.28.14-.28"/><path d="M115.45,227c3.38,1.29,4.8,4.55,4.2,8.02-.43,2.48-1.65,3.82-3.11,4.44,1.49-.34,3.23-1.41,3.77-4.49.68-3.92-1.22-7.04-4.86-7.97"/><path d="M117.88,225.73c-.1-.03-.13-.15-.06-.23.41-.43.83-.87,1.21-1.33h0c1.19-1.35,2.11-3.17,2.07-5.1h0c-.1-3.74-3.63-5.48-6.99-5.48-.11,0-.22,0-.33,0h-8.12c-.42,0-.57.06-.59.15,0,.07.15.11.48.11.28,0,.52.02.73.04.48.35.75,1.15.78,2.83.04,2.01.25,7.56.18,12.81-.09,7.26-.34,10.03-1.16,10.82.11,0,.21-.02.33-.03,1.06-.07,1.39-2.49,1.49-10.8.05-4.16-.07-8.53-.14-11.14-.02-.68-.03-1.25-.04-1.66-.04-2.08-.41-2.6-1.12-2.8.02,0,.05,0,.08.01,1.21.18,1.87.35,1.92,3.09.04,2.01.25,7.56.18,12.81-.11,8.79-.45,11-1.76,11.09-.41.03-.77.07-1.1.07-.27.01-.32.06-.28.15h0s.16.11.57.11c1.1,0,7.95.13,8.67.11h0c4.32-.07,7.09-2.1,8.33-4.66h0c.03-.06.05-.11.07-.17,2.34-5.02-1.48-9.57-5.42-10.8M111.16,214.98s.04-.08.08-.09c.26-.03.61-.05.96-.07.88-.04,1.67,0,2.38.12,1.84.77,2.86,2.42,2.89,4.61.02,1.49-.77,4.25-3.13,5.28,2.87-.64,3.81-3.72,3.79-5.28-.03-2.34-1.21-3.97-3.4-4.59,2.76.5,4.24,2.19,4.27,4.89.02,1.85-1.19,5.64-5.11,5.69-1.14.02-2.24-.03-2.59-.07-.07,0-.11-.06-.11-.13-.03-2.17-.04-9.51-.04-10.38M121.18,235.33c-.66,3.78-3.13,4.92-5.49,4.86-.88,0-3.06-.11-3.96-1.05-.47-.57-.41-1.37-.48-2.07-.06-.74-.08-8.5-.04-10.41,0-.07.05-.12.12-.12.61-.01,3.4.13,4.73.46,4.05,1.01,5.79,4.54,5.13,8.32"/></svg>