<?xml version="1.0" encoding="UTF-8"?><svg id="a" xmlns="http://www.w3.org/2000/svg" width="400" height="400" viewBox="0 0 400 400"><defs><style>.b{fill:#2c2a27;}</style></defs><path class="b" d="M279.51,249.84c2.87,0,4.51-2.48,4.51-5.97s-1.68-6.02-4.51-6.02h-2.63v11.98h2.63ZM279.54,235.35c4.55,0,7.09,3.6,7.09,8.5s-2.48,8.55-7.09,8.55h-5.28v-17.05h5.28ZM261.44,252.4h-2.65v-17.1h.9l8.55,10.94-.1-4.68v-6.21h2.68v17.07h-.88l-8.6-11.01.1,4.8v6.19ZM248.44,250.12c2.53,0,4.68-2.12,4.68-6.21s-2.12-6.24-4.65-6.24-4.72,2.17-4.72,6.24,2.12,6.21,4.7,6.21M248.39,252.67c-3.99,0-7.36-2.95-7.36-8.77s3.51-8.77,7.4-8.77,7.38,3,7.38,8.77-3.04,8.77-7.43,8.77M231.76,235.11c3.02,0,5.87,1.68,6.6,5.75h-2.56c-.75-2.53-2.22-3.24-4.04-3.26-2.8,0-4.68,2.24-4.68,6.31,0,3.85,1.85,6.19,4.65,6.19,1.92,0,3.46-1,4.09-3.51h2.61c-.66,4.36-3.7,6.04-6.67,6.04-3.9,0-7.38-2.85-7.38-8.72s3.48-8.79,7.38-8.79M215.39,242.34h5.92v2.41h-5.92v5.11h6.43v2.53h-8.99v-17.05h8.84v2.39h-6.28v4.6ZM200.45,247.48c.07,1.92,1.73,2.63,3.24,2.63s3.12-.39,3.12-2.51c0-2.24-1.9-2.48-3.46-2.68-2.63-.27-5.26-1.41-5.26-4.82s2.61-4.99,5.46-4.99c3,0,5.43,1.46,5.46,4.94h-2.51c-.12-1.83-1.51-2.41-2.95-2.41-1.29,0-2.83.46-2.83,2.39s1.49,2.19,3.09,2.46c3,.39,5.67,1.22,5.67,5.14s-3,5.02-5.77,5.02c-2.85.07-5.82-1.58-5.87-5.16h2.61ZM177.23,244.84v7.6h-2.68v-17.05h2.68v6.84h6.19v-6.84h2.7v17.05h-2.7v-7.6h-6.19ZM171.41,235.39v2.51h-4.04v14.54h-2.63v-14.54h-4.07v-2.51h10.74ZM146.3,246.73v-11.35h2.68v11.28c0,2.24,1.36,3.48,3.04,3.48s3-1.24,3-3.48v-11.28h2.65v11.35c0,3.8-2.58,5.94-5.65,5.94s-5.72-2.14-5.72-5.94M135.77,250.12c2.53,0,4.68-2.12,4.68-6.21s-2.12-6.23-4.65-6.23-4.72,2.17-4.72,6.23,2.12,6.21,4.7,6.21M135.72,252.68c-3.99,0-7.36-2.95-7.36-8.77s3.51-8.77,7.4-8.77,7.38,3,7.38,8.77-3.04,8.77-7.43,8.77M116.93,247.51c.07,1.92,1.73,2.63,3.24,2.63s3.12-.39,3.12-2.51c0-2.24-1.9-2.48-3.46-2.68-2.63-.27-5.26-1.41-5.26-4.82s2.61-4.99,5.46-4.99c3,0,5.43,1.46,5.46,4.94h-2.51c-.12-1.83-1.51-2.41-2.95-2.41-1.29,0-2.82.46-2.82,2.39s1.49,2.19,3.09,2.46c3,.39,5.67,1.22,5.67,5.14s-3,5.02-5.77,5.02c-2.85.07-5.82-1.58-5.87-5.16h2.61Z"/><path class="b" d="M201.31,206.63s-.08,0-.12-.01c-2.18-.28-4.21-1.12-5.87-2.45-1.5-1.2-2.66-2.78-3.42-4.63-.09-.21-.33-.3-.53-.21l-2.82,1.3c-.19.09-.28.31-.2.5,1.38,3.48,4.37,5.79,8.15,6.27,1.69.21,3.35.03,4.84-.5.14-.05.12-.26-.03-.28"/><path class="b" d="M201.57,179.75c-.2-.14-.39-.26-.57-.38-2.23-1.53-4.72-3.42-6.23-5.85-1.81-2.92-1.85-6.06-.1-9.32.01-.02.04-.07.07-.13.05-.1-.05-.21-.15-.17-.08.03-.15.07-.22.1-1.34.63-2.45,1.65-3.2,3-1.58,2.86-1.59,5.48-.03,8,1.37,2.2,3.7,3.97,5.81,5.41.18.12.36.25.56.38,2.49,1.69,6.66,4.52,9.36,8.35,3.35,4.76,3.53,9.71.51,14.72h0c-.08.13.06.28.19.21,1.41-.76,2.6-1.85,3.43-3.22,1.46-2.43,2.09-4.84,1.88-7.19-.18-1.98-.96-3.98-2.34-5.93-2.55-3.61-6.57-6.34-8.98-7.98"/><path class="b" d="M199.4,161.95c2.72.47,5.07,2.01,6.38,4.19.1.17.32.24.5.15l2.81-1.3c.22-.1.29-.38.16-.58-1.29-1.95-3.64-3.25-6.27-3.38-1.3-.07-2.53.16-3.61.64-.13.06-.11.25.03.27"/><path class="b" d="M212.26,201.6c-1.51,2.52-4.07,4.24-7.02,4.86-.1.02-.2.07-.28.13-1.94,1.53-4.44,2.38-7.09,2.38-.52,0-1.04-.03-1.56-.1-2.18-.28-4.21-1.12-5.87-2.45-1.81-1.45-3.14-3.46-3.84-5.81l-.04-.13c-.08-.28.05-.57.31-.69l5.16-2.39c.32-.15.7.02.8.36l.05.17c1.19,4,4.36,6.7,8.48,7.23.97.12,1.94.11,2.86-.02.13-.02.26-.08.35-.17.59-.55,1.11-1.18,1.53-1.88,1.46-2.43,2.09-4.84,1.88-7.19-.18-1.98-.96-3.98-2.34-5.93-2.55-3.61-6.57-6.34-8.98-7.98-.2-.14-.39-.26-.57-.38-2.23-1.53-4.72-3.42-6.23-5.85-1.85-2.97-1.85-6.17,0-9.49,1.33-2.41,3.61-3.96,6.32-4.36.14-.02.27-.08.38-.18,1.7-1.51,3.98-2.3,6.47-2.17,3.63.19,6.81,2.27,8.11,5.31l.06.14c.12.29,0,.62-.29.76l-5.16,2.38c-.3.14-.65,0-.78-.3l-.06-.15c-1.07-2.52-3.75-4.26-6.83-4.42-.23-.01-.47-.01-.7,0-.2,0-.39.1-.53.25-.31.36-.59.76-.83,1.2-1.58,2.86-1.59,5.48-.03,8,1.37,2.2,3.7,3.97,5.81,5.41.18.12.36.25.56.38,2.49,1.69,6.65,4.52,9.36,8.35,3.35,4.76,3.53,9.71.51,14.72M234.51,169.88c-1.86-4.4-4.52-8.35-7.92-11.74-3.39-3.39-7.34-6.06-11.74-7.92-4.55-1.93-9.39-2.9-14.38-2.9s-9.82.98-14.38,2.9c-4.4,1.86-8.35,4.52-11.74,7.92-3.39,3.39-6.06,7.34-7.92,11.74-1.93,4.55-2.9,9.39-2.9,14.38s.98,9.82,2.9,14.38c1.86,4.4,4.52,8.35,7.92,11.74,3.39,3.39,7.34,6.06,11.74,7.92,4.55,1.93,9.39,2.9,14.38,2.9s9.82-.98,14.38-2.9c4.4-1.86,8.35-4.52,11.74-7.92,3.39-3.39,6.06-7.34,7.92-11.74,1.93-4.55,2.9-9.39,2.9-14.38s-.98-9.82-2.9-14.38"/></svg>