<?xml version="1.0" encoding="UTF-8"?><svg id="a" xmlns="http://www.w3.org/2000/svg" width="400" height="400" viewBox="0 0 400 400"><defs><style>.b{fill:#231f20;}</style></defs><path class="b" d="M140.72,208.75c0,11.31,5.88,20.1,16.24,20.1,1.96,0,10.47-1.46,10.47-5.99v-15.34c0-1.62-1.01-2.13-2.07-3.02v-.62h8.73v.62c-1.68,1.34-2.13,1.29-2.13,3.92v13.21c0,1.46,1.01,2.13,2.13,3.02-1.23,1.34-8.9,6.27-18.31,6.27-12.99,0-20.77-10.64-20.77-21.95s7.78-21,21-21c1.12,0,13.44,1.29,14.5,3.92v2.69c0,1.12-.11,2.63,0,3.3h-.95c-1.29-.9-5.66-8.12-11.7-8.12-1.12-.22-1.46-.28-2.74-.28-10.36,0-14.39,9.57-14.39,19.26Z"/><path class="b" d="M189.87,208.69c-.78.5-3.19,3.14-5.32,3.14s-3.7-2.02-3.7-4.53c0-5.21,7.11-7.17,9.01-7.78v9.18ZM196.09,213.78c-.78-1.01-1.68-1.23-1.68-2.3v-12.37c0-8.73-.45-10.75-6.49-10.75-8.9,0-10.41,6.49-10.41,6.49,0,.06.45,2.8,2.24,2.8,4.93,0-.56-7.84,6.77-7.84,3.08,0,3.64,2.01,3.64,5.32,0,1.68.11,1.85,0,2.07-1.23,2.46-14.05,2.58-14.05,11.48,0,3.36,2.13,5.93,5.93,5.93,4.25,0,6.44-3.08,8.12-3.64v2.8h5.93Z"/><path class="b" d="M197.99,230.75c.73-1.06,1.57-2.01,1.57-3.19v-33.42c0-1.74-1.06-2.13-2.24-2.58v-.95c4.25-.78,4.03-2.58,6.72-3.19v37.9c0,2.41.56,3.97,1.62,5.43h-7.67Z"/><path class="b" d="M208.07,220.87c.73-1.06,1.57-2.01,1.57-3.19v-33.42c0-1.74-1.06-2.13-2.24-2.58v-.95c4.25-.78,4.03-2.58,6.72-3.19v37.9c0,2.41.56,3.98,1.62,5.43h-7.67Z"/><path class="b" d="M233.37,213c0,1.62-2.35,1.12-4.31,1.12-1.57,0-4.92.17-6.66-.11.67-1.62.9-8.23,5.77-8.23,1.74,0,5.21,2.01,5.21,7.22ZM238.52,226.33v-.62h-1.12c-2.58,2.02-4.48,2.63-6.66,2.63-5.82,0-8.62-5.21-8.62-10.69,0-.95.22-.95.56-1.46h15.56v-2.07c-1.68-5.04-2.97-9.74-9.8-9.74-7.73,0-10.69,7.61-10.69,14.11,0,5.99,2.85,12.76,10.69,12.76,4.48,0,6.94-1.57,10.08-4.93Z"/><path class="b" d="M256.88,227.06c-6.33,17.3-7.5,20.32-12.15,20.32-2.91,0-4.7-1.4-4.7-3.75,0-1.96.84-2.52,2.46-2.52,2.07,0,2.18,2.85,4.09,2.85,3.08,0,6.21-11.53,6.21-11.65,0-.06-7.17-19.48-12.76-27.77h8.73c-.45.67-.9.56-1.29,2.46l7.56,18.81c.67-.56,3.42-6.05,3.42-7.84,0,0,2.85-5.82,2.85-9.41,0-3.08-.45-1.06-1.57-4.03h7.17c-5.38,7.95-6.05,11.65-10.02,22.51Z"/><path class="b" d="M146,173.01v-1.69c-.65,0-.77.06-1.69.03-1.9-.09-5.25-.03-10.4-.03,0,3.5-.09,5.01,0,11.38,0,.68.68.77,1.16,1.16v.44h-4.98l-.09-.62s1.25-.06,1.25-1.3v-18.91c0-.59-.42-1.13-1.16-1.84h4.8c-.77.77-1.19.27-1.07,5.16v3.64s11.5-.09,12.21,0v-7.32c0-.8-.59-.8-1.18-1.48h4.83c-.56.74-1.01.65-1.01,1.48v19.26c0,1.1,1.16,1.3,1.16,1.3v.44h-4.89v-.44s1.1-.3,1.1-.98l-.03-9.69Z"/><path class="b" d="M158.27,181.28c-.41.27-1.69,1.66-2.82,1.66s-1.96-1.07-1.96-2.4c0-2.76,3.77-3.79,4.77-4.12v4.86ZM161.56,183.97c-.41-.53-.89-.65-.89-1.21v-6.55c0-4.62-.24-5.69-3.44-5.69-4.71,0-5.51,3.44-5.51,3.44,0,.03.24,1.48,1.19,1.48,2.61,0-.3-4.15,3.58-4.15,1.63,0,1.93,1.07,1.93,2.82,0,.89.06.98,0,1.1-.65,1.3-7.44,1.36-7.44,6.08,0,1.78,1.13,3.14,3.14,3.14,2.25,0,3.41-1.63,4.3-1.93v1.48h3.14Z"/><path class="b" d="M169.59,173.31c-.09,0-1.75-.62-2.16-.62-1.01,0-1.72,1.07-1.72,1.54v8.71c0,.59.38.83.92,1.39h-4.18c.41-.36,1.1-.68,1.1-1.39v-9.48c0-.92-.71-.92-1.25-1.24v-.47c1.66-.06,1.99-.59,2.79-1.39h.47c.09.41-.03,1.04,0,1.33,0,.33.12.35,0,.68h.47c1.07-.35,1.72-1.87,3.56-1.87.95,0,1.39.92,1.39,1.39,0,.44-.65,1.42-1.39,1.42Z"/><path class="b" d="M182.1,177.19c0,3.71-1.24,6.25-3.85,6.25-3.26,0-3.05-3.47-3.05-6.1v-4.95c0-.92,1.33-1.78,2.52-1.78,3.74,0,4.39,5.9,4.39,6.58ZM175.19,170.13v-7.88c-.15-.12.12-.3-.47-.3-.8,0-.24.92-3.05,1.63v.47c.83.47.8,0,.8,1.1v19.26h.98c.12-.3.3-.95.62-1.45,1.93.86,1.57,1.6,4,1.6,5.96,0,6.91-6.05,6.91-7.71,0-3.62-1.84-7.35-5.78-7.35-3.02,0-2.79.89-4,.62Z"/><path class="b" d="M196.06,177.69c0,2.7-.89,5.99-3.82,5.99-3.11,0-4-3.71-4-6.76,0-2.67.98-5.81,3.85-5.81s3.97,2.82,3.97,6.58ZM198.67,177.07c0-3.94-3.11-6.88-6.76-6.88s-6.25,3.62-6.25,7.35,2.22,6.91,6.43,6.91c4.83,0,6.58-4.45,6.58-7.38Z"/><path class="b" d="M207.11,173.31c-.09,0-1.75-.62-2.16-.62-1.01,0-1.72,1.07-1.72,1.54v8.71c0,.59.38.83.92,1.39h-4.18c.41-.36,1.1-.68,1.1-1.39v-9.48c0-.92-.71-.92-1.25-1.24v-.47c1.66-.06,1.99-.59,2.79-1.39h.47c.09.41-.03,1.04,0,1.33,0,.33.12.35,0,.68h.47c1.07-.35,1.72-1.87,3.56-1.87.95,0,1.39.92,1.39,1.39,0,.44-.65,1.42-1.39,1.42Z"/><path class="b" d="M242.18,184.94c.08,5.61-3.87,10.99-9.48,10.99-6.48,0-9.72-6.13-9.72-13.52,0-8.58,3.28-13.51,9.48-13.51,5.69,0,9.48,5.02,9.72,9.92v6.13ZM246.65,181.98c0-8.89-6.6-14.78-13.75-14.78-10.28,0-14.15,9.44-14.15,15.61,0,12.21,10.24,14.82,14.35,14.82,7.43,0,13.55-7.39,13.55-15.65Z"/><path class="b" d="M258.9,197.23c1.5-1.86,1.46-2.73,1.46-6.84v-7.63c-.08-1.15-1.27-2.09-2.93-2.09-1.15,0-5.37.99-5.37,3.32.04,1.74-.08,6.48,0,9.09.12,3,.43,3.08,1.26,4.35h-5.38c.79-1.3,1.23-1.11,1.23-2.06v-12.41c0-1.11-.79-1.27-1.42-1.9l4.11-2.65c.44,1.74-.08,2.88.83,2.88.28,0,3.72-2.29,7.43-2.29,2.29,0,3.12,1.3,3.12,2.93v14.07c.67.63.71.51,1.22,1.22h-5.57Z"/><path class="b" d="M276.33,184.86c0,1.15-1.66.79-3.04.79-1.11,0-3.48.12-4.7-.08.47-1.15.63-5.81,4.07-5.81,1.22,0,3.67,1.42,3.67,5.1ZM279.96,194.27v-.43h-.79c-1.82,1.42-3.16,1.86-4.7,1.86-4.11,0-6.09-3.68-6.09-7.55,0-.67.16-.67.4-1.03h10.99v-1.46c-1.19-3.56-2.09-6.88-6.92-6.88-5.45,0-7.55,5.38-7.55,9.96,0,4.23,2.01,9.01,7.55,9.01,3.16,0,4.9-1.11,7.11-3.48Z"/></svg>