<?xml version="1.0" encoding="UTF-8"?><svg id="a" xmlns="http://www.w3.org/2000/svg" width="400" height="400" viewBox="0 0 400 400"><defs><style>.b{fill:#231f20;}.c{fill:none;stroke:#d9af7e;stroke-linecap:round;stroke-linejoin:round;stroke-width:.46px;}.d{fill:#fff;}</style></defs><circle class="b" cx="201.26" cy="200" r="67.5"/><path class="d" d="M163.35,176.94c0-.73.6-1.33,1.33-1.33h3.42c.73,0,1.33.6,1.33,1.33v14.93s0,6.06-7.82,6.06c-7.33,0-8.03-5.9-8.03-5.9-.09-.73.44-1.32,1.17-1.32h2.76c.73,0,1.44.59,1.57,1.31,0,0,.09.48,2.04.48s2.04-.58,2.04-.58c.1-.72.19-1.91.19-2.65v-12.33ZM179.87,197.55c.73,0,1.54-.56,1.79-1.25l.44-1.2c.25-.69,1.06-1.25,1.79-1.25h5.87c.73,0,1.56.55,1.84,1.23l.51,1.23c.28.68,1.1,1.23,1.84,1.23h3.86c.73,0,1.07-.54.74-1.19l-9.63-19.55c-.32-.66-1.19-1.19-1.92-1.19h-.38c-.73,0-1.59.54-1.91,1.2l-9.38,19.54c-.32.66.02,1.2.75,1.2h3.8ZM186.34,184.34c.31-.66.81-.66,1.12,0l1.76,3.78c.31.66-.04,1.21-.77,1.21h-3.09c-.73,0-1.08-.54-.77-1.21l1.76-3.78ZM207,176.83c-.29-.67-1.13-1.22-1.86-1.22h-3.86c-.73,0-1.07.54-.74,1.19l9.63,19.55c.32.66,1.19,1.19,1.92,1.19h.38c.73,0,1.59-.54,1.91-1.2l9.38-19.54c.32-.66-.02-1.2-.75-1.2h-3.8c-.73,0-1.57.55-1.86,1.22l-4.66,10.63c-.29.67-.77.67-1.06,0l-4.61-10.62ZM190.04,207.07c0-.73-.6-1.33-1.33-1.33h-3.41c-.73,0-1.33.6-1.33,1.33v19.28c0,.73.6,1.33,1.33,1.33h3.41c.73,0,1.33-.6,1.33-1.33v-19.28ZM219.92,207.07c0-.73-.6-1.33-1.33-1.33h-16.75c-.73,0-1.33.6-1.33,1.33v2.27c0,.73.6,1.33,1.33,1.33h4.01c.73,0,1.33.6,1.33,1.33v14.35c0,.73.6,1.33,1.33,1.33h3.41c.73,0,1.33-.6,1.33-1.33v-14.35c0-.73.6-1.33,1.33-1.33h4.01c.73,0,1.33-.6,1.33-1.33v-2.27ZM228.6,205.74c-.73,0-1.04.52-.69,1.16l6.7,12.16c.35.64.64,1.76.64,2.49v4.79c0,.73.6,1.33,1.33,1.33h3.58c.73,0,1.33-.6,1.33-1.33v-4.95c0-.73.29-1.85.65-2.49l6.76-12.01c.36-.64.05-1.16-.68-1.16h-4.24c-.73,0-1.6.53-1.94,1.18l-3.03,5.89c-.33.65-.9.66-1.26.02l-3.35-5.94c-.36-.64-1.25-1.16-1.98-1.16h-3.83ZM170.55,221c-.57-.46-1.48-.44-2.03.05,0,0-1.78,1.58-3.74,1.58-3.19,0-5.78-2.59-5.78-5.78s2.59-5.78,5.78-5.78c1.95,0,3.72,1.56,3.72,1.56.55.48,1.46.5,2.03.04l2.26-1.84c.57-.46.57-1.23.01-1.7,0,0-4.33-3.63-8.01-3.63-6.27,0-11.35,5.08-11.35,11.35s5.08,11.35,11.35,11.35c3.71,0,8.06-3.68,8.06-3.68.56-.47.55-1.23-.02-1.69l-2.27-1.82ZM230.3,197.55c.73,0,1.54-.56,1.79-1.25l.44-1.2c.25-.69,1.06-1.25,1.79-1.25h5.87c.73,0,1.56.55,1.84,1.23l.51,1.23c.28.68,1.1,1.23,1.84,1.23h3.86c.73,0,1.07-.54.74-1.19l-9.63-19.55c-.32-.66-1.19-1.19-1.92-1.19h-.38c-.73,0-1.59.54-1.91,1.2l-9.38,19.54c-.32.66.02,1.2.75,1.2h3.8ZM236.77,184.34c.31-.66.81-.66,1.12,0l1.76,3.78c.31.66-.04,1.21-.77,1.21h-3.09c-.73,0-1.08-.54-.77-1.21l1.76-3.78Z"/><path class="c" d="M173.54,240.18l-.92-1.74c-.24-.45-.72-.52-1.07-.15l-2.14,2.22c-.35.37-.64,1.08-.64,1.59v2.35c0,.51.39,1.07.86,1.26l.66.26c.47.18,1.25.2,1.73.03l.95-.33c.48-.16,1.16-.6,1.51-.97l.63-.67c.35-.37.88-1,1.19-1.41l2.92-3.84c.31-.4.97-.79,1.47-.85,0,0,.31-.04,1.04.8.73.84.82,2.86.82,2.86.02.51-.18,1.28-.45,1.71l-1.36,2.21c-.27.43-.9.79-1.41.79h-1.7c-.51,0-.96-.41-1-.92l-.25-2.86"/><path class="c" d="M228.72,240.18l-.92-1.74c-.24-.45-.72-.52-1.07-.15l-2.14,2.22c-.35.37-.64,1.08-.64,1.59v2.35c0,.51.39,1.07.86,1.26l.66.26c.47.18,1.25.2,1.73.03l.95-.33c.48-.16,1.16-.6,1.51-.97l.63-.67c.35-.37.88-1,1.19-1.41l2.92-3.84c.31-.4.97-.79,1.47-.85,0,0,.31-.04,1.04.8.73.84.82,2.86.82,2.86.02.51-.18,1.28-.45,1.71l-1.36,2.21c-.27.43-.9.79-1.41.79h-1.7c-.51,0-.96-.41-1-.92l-.25-2.86"/><path class="c" d="M178.46,239.78l.58,2.34c.12.49.52,1.19.88,1.54l2.02,1.98c.36.36,1.05.51,1.53.35,0,0,3.04-1.05,2.77-1.14-.28-.09,3.04-4.75,3.04-4.75.3-.41.71-1.13.92-1.59l.61-1.35c.21-.46.24-1.23.08-1.71l-.77-2.2c-.17-.48-.46-.49-.64-.01l-2.07,5.24c-.19.47-.42,1.26-.52,1.76l-1.87,9.31c-.1.5,0,1.28.2,1.74l.45.98c.21.46.66.52.98.13l.83-.98c.33-.39.57-1.12.53-1.63l-.33-4.86c-.03-.51.32-1.09.78-1.29l4.82-2.12c.46-.2.93-.78,1.03-1.27l.73-3.59c.1-.5.44-1.23.75-1.63l1.52-1.94c.31-.4.7-.33.85.15l.44,1.36c.16.48.06,1.23-.21,1.66l-4.07,6.51c-.27.43-.58,1.19-.69,1.68l-1.16,5.26c-.11.5.01,1.26.27,1.7l.53.89c.26.44.75.48,1.09.11l1.15-1.29c.34-.38.52-1.09.41-1.59l-1.06-4.71c-.11-.5.2-.99.7-1.1l3.52-.79c.49-.11,1.12-.55,1.38-.99l1.51-2.45c.27-.43.86-.96,1.33-1.16l.79-.36c.46-.21,1.11-.06,1.43.33l.65.78c.33.39.27.97-.12,1.29l-2.15,1.76c-.39.32-1.12.48-1.61.36l-.5-.13c-.49-.12-.76.17-.59.65l.5,1.46c.17.48.69,1,1.17,1.17l1,.34c.48.16,1.24.1,1.69-.14l1.95-1.03c.45-.24.93-.83,1.07-1.32l.95-3.27c.14-.49.58-1.15.98-1.47l1.41-1.13c.39-.32.97-.25,1.27.16l.82,1.09c.3.41.34,1.09.07,1.52l-.96,1.55c-.27.43-.9.84-1.4.91l-1.57.21c-.5.07-.78.52-.61,1l.32.92c.17.48.71.93,1.22,1l1.29.18c.5.07,1.21-.16,1.58-.51l2.27-2.18"/><path class="c" d="M238.54,246.3q.12,0,0,0h-.55q-.12,0,0,0h.55Z"/><path class="c" d="M193.95,156.3c-.57-.04-1.03.45-1.03,1.09,0,.64.02,1.67.02,2.29,0,.62.02,1.64.02,2.27,0,.62.33,1.45.71,1.83.38.39,1.01,1.02,1.39,1.41.38.39,1,1.04,1.37,1.44.37.4,1.02,1.04,1.43,1.41.42.37,1.18.67,1.7.67.52,0,1.37.02,1.89.05.52.03,1.38.03,1.9,0,.52-.03,1.39-.03,1.92,0,.53.04,1.4-.45,1.92-1.08.52-.63,1.29-1.61,1.7-2.17.42-.56,1.13-1.45,1.59-1.99.46-.54.8-1.45.77-2.03-.03-.58-.03-1.52,0-2.1.03-.57.05-1.52.04-2.11,0-.59-.47-1.06-1.04-1.05-.57.01-1.5,0-2.06-.02-.56-.02-1.47,0-2.03.03-.56.04-1.47.04-2.03,0-.56-.03-1.47-.06-2.03-.06-.56,0-1.47.03-2.03.06s-1.47.06-2.03.05c-.56,0-1.47,0-2.03.02-.56.01-1.49,0-2.06-.04Z"/><path class="c" d="M193.38,156.66s.36.31.79.68c.43.38,1.14.99,1.57,1.37.43.38.4,1.08-.05,1.55-.46.48-1.2,1.26-1.65,1.74-.45.48-.82.88-.82.88"/><path class="c" d="M196.04,159.3s.43.02.96.04c.53.02,1.39.05,1.92.07.53.01,1.39.03,1.92.05.53.01,1.39.06,1.92.09.53.04.96.07.96.07"/><path class="c" d="M198.48,168.35s-.11-.43-.24-.95c-.13-.52-.36-1.38-.51-1.9-.15-.52-.39-1.37-.54-1.89-.15-.52-.38-1.37-.51-1.9-.13-.53-.36-1.38-.51-1.9-.15-.52-.27-.94-.27-.94"/><path class="c" d="M211.24,161.4s-.43-.11-.95-.25c-.52-.14-1.38-.37-1.9-.51-.52-.14-1.38-.38-1.9-.52-.52-.14-1.38-.38-1.91-.54-.53-.15-.82.24-.65.87.17.63.46,1.64.65,2.26.19.62.47,1.63.64,2.25.16.62.43,1.64.59,2.27.16.62.29,1.13.29,1.13"/><path class="c" d="M211.23,160.99c0-.86.37-1.71.85-1.88.48-.17,1.25-.46,1.71-.65.47-.18,1.03-.09,1.25.21.22.3.4,1.13.4,1.83,0,.71-.19,1.68-.41,2.16-.22.48-.78.77-1.25.64-.47-.13-1.23-.35-1.69-.49-.46-.14-.85-.97-.86-1.83Z"/><path class="c" d="M210.62,156.47s-.44.22-.99.5c-.54.27-1.45.68-2.02.91-.57.23-1.48.61-2.04.87-.56.25-1.46.67-2.01.93-.55.26-1.45.69-2,.95-.55.26-1.46.66-2.03.89-.57.23-1.49.63-2.06.9-.57.27-.58.72-.03,1.01.55.29,1.42.79,1.94,1.11.51.32,1.36.83,1.89,1.13.53.3,1.39.78,1.92,1.08.53.29,1.4.76,1.94,1.04.54.28.98.51.98.51"/><path class="c" d="M196.05,159.34s.35-.23.78-.5c.43-.28,1.12-.74,1.54-1.03.42-.29,1.11-.75,1.55-1.01.43-.26,1.17-.12,1.63.31.47.43,1.23,1.15,1.69,1.59.46.44.84.81.84.81"/><line class="c" x1="193.64" y1="152.88" x2="196.27" y2="153.99"/><line class="c" x1="195.59" y1="149.98" x2="197.61" y2="152"/><line class="c" x1="198.49" y1="148.03" x2="199.6" y2="150.66"/><line class="c" x1="202.03" y1="147.32" x2="202.03" y2="150.17"/><line class="c" x1="205.58" y1="148.03" x2="204.47" y2="150.66"/><line class="c" x1="208.47" y1="149.98" x2="206.45" y2="152"/><line class="c" x1="210.42" y1="152.88" x2="207.8" y2="153.99"/></svg>