<?xml version="1.0" encoding="UTF-8"?><svg id="a" xmlns="http://www.w3.org/2000/svg" width="400" height="400" viewBox="0 0 400 400"><defs><style>.b{fill:#fff;}.c{fill:#f55653;}</style></defs><rect class="c" x="142.5" y="142.5" width="115" height="115" rx="28.63" ry="28.63"/><path class="b" d="M223.4,198.9c-1.74-1.08-3.23-1.81-4.99-2.44-4.03-1.67-7.81-2.46-11.85-2.49h0s-.19,0-.19,0h-12.77c-2.08,0-3.9-.32-5.49-.79v-9.09c1.6-.47,3.42-.79,5.49-.79h11.64c5.34,0,9.01,2.1,11.44,3.48l.39.22,5.72-1.2v-9.29h0s-.56-.35-.56-.35c-1.56-.97-2.92-1.65-4.46-2.24-.18-.07-.35-.13-.53-.2-3.64-1.51-7.07-2.3-10.67-2.46v-.03h-14.29v.03c-3.6.16-7.03.95-10.67,2.46-1.76.63-3.25,1.36-4.99,2.44l-.56.35v24.23l.56.35c1.74,1.08,3.23,1.81,4.99,2.44,4.04,1.67,7.81,2.46,11.85,2.49h0s.19,0,.19,0h12.77c2.08,0,3.9.32,5.49.79v9.09c-1.6.47-3.42.79-5.49.79h-12.81c-5.34,0-9.01-2.1-11.44-3.48l-.39-.22-5.72,1.2v9.29l.56.35c1.74,1.08,3.23,1.81,4.99,2.44,4.02,1.66,7.77,2.45,11.79,2.49v.08c0,4.12.79,7.95,2.49,12.05.63,1.76,1.36,3.25,2.44,4.99l.35.56h9.29l1.2-5.72-.22-.39c-1.39-2.43-3.48-6.1-3.48-11.44v-.11h1.12c4.04-.03,7.82-.82,11.85-2.49,1.76-.63,3.25-1.36,4.99-2.44l.56-.35v-24.23l-.56-.35ZM199.41,166.76c3.64,0,6.59-2.95,6.59-6.59s-2.95-6.59-6.59-6.59-6.59,2.95-6.59,6.59,2.95,6.59,6.59,6.59Z"/></svg>