<?xml version="1.0" encoding="UTF-8"?><svg id="a" xmlns="http://www.w3.org/2000/svg" width="400" height="400" viewBox="0 0 400 400"><defs><style>.b{fill:#231f20;}.c{fill:#ed1c24;}.d{fill:#fff;}</style></defs><rect class="c" x="176.82" y="183.6" width="113.3" height="32.8"/><path class="d" d="M178.97,209.94c-.15,0-.22-.15-.22-.44,0-.42,0-1.03.02-1.86.01-.82.02-1.44.02-1.86.04-.09.07-.13.09-.13h1.77s.05.04.07.11c.03.08.06.11.1.11.06,0,.13-.02.2-.05.44-.21.88-.32,1.3-.32.81,0,1.49.18,2.04.54h.09c.7-.36,1.37-.54,2.01-.54.71,0,1.24.13,1.61.39.42.3.63.79.63,1.48v2.38c0,.12-.1.18-.31.18-.18,0-.44,0-.79-.02-.35-.01-.62-.02-.79-.02-.09-.09-.13-.16-.13-.22,0-.17,0-.42.02-.75.02-.33.02-.58.02-.75,0-.4-.04-.69-.13-.88-.13-.27-.37-.41-.72-.41-.51,0-.86.21-1.05.64l-.07.16v1.82c0,.2-.08.34-.24.41-.12.05-.29.07-.53.06-.5-.03-.68-.04-.56-.04h-.55c-.12-.08-.18-.19-.18-.33,0-.12,0-.3.02-.53.01-.24.02-.42.02-.53,0-.53-.03-.89-.09-1.08-.12-.39-.39-.58-.79-.58-.27,0-.5.06-.71.19-.23.15-.35.35-.36.61,0,.18,0,.3,0,.37-.02,1.01-.04,1.51-.04,1.49,0-.01,0,.04,0,.15,0,.06,0,.1-.02.14-.04.08-.28.12-.73.12-.48,0-.82,0-1.02-.01Z"/><path class="d" d="M189.86,205.92c.51-.28,1.26-.42,2.23-.42.34,0,.55,0,.62,0,.74.05,1.35.27,1.82.66.53.44.79,1.01.79,1.72,0,.1,0,.16,0,.16,0,.14,0,.19,0,.16-.07.1-.16.16-.27.16h-3.4l-.53.06c0,.19.12.34.37.43.18.07.38.11.62.11.13,0,.31-.04.54-.13.23-.09.38-.13.46-.13h2.08s.05.02.05.06c0,.24-.12.48-.36.71-.22.21-.45.36-.7.44-.5.16-1.18.25-2.04.25s-1.48-.1-1.96-.3c-.63-.27-1.05-.74-1.27-1.43-.06-.2-.09-.4-.09-.61,0-.9.34-1.53,1.03-1.89ZM191.44,207.24h.7c.3,0,.61-.02.93-.05.03-.01.05-.04.05-.06,0-.15-.14-.27-.42-.36-.22-.07-.43-.11-.62-.11-.16,0-.35.04-.58.13-.28.1-.42.22-.42.34,0,.08.12.11.36.11Z"/><path class="d" d="M196.99,209.91c-.48-.15-.86-.41-1.13-.78-.24-.32-.36-.63-.38-.92,0-.07,0-.18,0-.35,0-.8.27-1.4.8-1.82.49-.38,1.14-.57,1.95-.57h.13c.12,0,.16,0,.13,0,.24.08.44.12.57.13.5.15.75.23.74.23.08,0,.13-.03.13-.1v-1.41s.04-.05.11-.08c.06-.03.11-.05.14-.05h1.63l.09.08c.02.4.04.79.04,1.17,0,1.23.01,1.8.01,1.72v1.29c0,.61-.02,1.07-.06,1.39-.04.06-.08.08-.13.08h-1.73c-.05-.07-.11-.13-.18-.17-.13,0-.32.05-.57.15-.25.1-.41.16-.49.16-.23,0-.36,0-.41,0-.57,0-1.03-.05-1.39-.16ZM197.99,208.48c.21.15.46.23.75.23.22,0,.45-.05.69-.16.3-.13.45-.28.45-.47v-.53c0-.2-.16-.37-.47-.52-.27-.13-.52-.19-.74-.19-.28,0-.52.09-.73.28-.21.19-.31.42-.31.69s.12.49.36.66Z"/><path class="d" d="M203.03,209.97c-.35-.02-.61-.02-.78-.02-.09,0-.15-.04-.17-.12,0-.03,0-.11,0-.23l.04-3.4c0-.15,0-.26,0-.33,0-.16.06-.25.14-.25h1.04c.14,0,.38.01.73.04l.09.09c.03,1.59.04,2.48.04,2.67,0,.77-.03,1.27-.09,1.48-.02.07-.1.1-.25.1-.17,0-.43,0-.78-.02ZM202.11,205.08c0-.17,0-.26,0-.26,0-.03,0-.08,0-.14,0-.05,0-.09,0-.11,0-.22.06-.34.17-.38,0,0,.17-.01.48-.03.21,0,.38-.01.51-.01.28,0,.44,0,.47,0,.24.02.37.08.37.17v.84l-.09.08c-.11,0-.18,0-.21,0-.23,0-.77-.02-1.61-.05-.03-.02-.06-.06-.09-.13Z"/><path class="d" d="M204.62,207.78c.22-.25.58-.43,1.06-.52.11-.02.52-.06,1.23-.12.51-.04,1.02-.07,1.53-.08l.04-.04s0-.04,0-.06c0-.15-.29-.22-.86-.22s-.98.03-1.22.09c-.49.12-.77.18-.84.18s-.11,0-.13,0c-.23-.29-.43-.59-.62-.88-.03-.04-.04-.09-.04-.13,0-.1.28-.21.84-.33.43-.09.77-.15,1.01-.17.29-.02.6-.04.92-.04.86,0,1.52.08,1.96.23.73.25,1.1.72,1.1,1.41,0,.18,0,.45.02.8.02.35.02.62.02.8.04.07.12.13.25.19.07.04.11.15.11.33,0,.48-.06.71-.18.71h-1.86c-.06,0-.14-.04-.22-.13-.09-.09-.16-.13-.21-.13-.04,0-.1.02-.18.05-.67.26-1.25.4-1.73.4-.62,0-1.13-.1-1.53-.29-.53-.25-.8-.66-.8-1.22,0-.3.11-.57.33-.83ZM207.2,208.83c.29,0,.56-.04.81-.11.37-.11.56-.27.56-.48v-.03l-.04-.09c-.15-.03-.28-.05-.41-.05h-.27c-.9,0-1.36.13-1.36.38s.24.38.71.38Z"/><path class="d" d="M211.15,208.35l.04-.08c.4-.03.62-.05.67-.05h.71s.19.02.47.05l.05.04c.03.17.04.29.04.35v1.2c-.04.09-.07.13-.09.13h-1.9v-1.63Z"/><path class="d" d="M217.19,209.94c-.15,0-.22-.15-.22-.44,0-.42,0-1.03.02-1.86.01-.82.02-1.44.02-1.86.04-.09.07-.13.09-.13h1.77s.05.04.07.11c.03.08.06.11.1.11.06,0,.13-.02.2-.05.44-.21.88-.32,1.3-.32.81,0,1.49.18,2.04.54h.09c.7-.36,1.37-.54,2.01-.54.71,0,1.24.13,1.61.39.42.3.63.79.63,1.48v2.38c0,.12-.1.18-.31.18-.18,0-.44,0-.79-.02s-.62-.02-.79-.02c-.09-.09-.13-.16-.13-.22,0-.17,0-.42.02-.75.02-.33.02-.58.02-.75,0-.4-.04-.69-.13-.88-.13-.27-.37-.41-.72-.41-.51,0-.86.21-1.05.64l-.07.16v1.82c0,.2-.08.34-.24.41-.12.05-.29.07-.53.06-.5-.03-.68-.04-.56-.04h-.55c-.12-.08-.18-.19-.18-.33,0-.12,0-.3.02-.53.02-.24.02-.42.02-.53,0-.53-.03-.89-.09-1.08-.12-.39-.39-.58-.79-.58-.27,0-.5.06-.71.19-.23.15-.35.35-.36.61,0,.18,0,.3,0,.37-.02,1.01-.04,1.51-.04,1.49,0-.01,0,.04,0,.15,0,.06,0,.1-.02.14-.04.08-.28.12-.73.12-.48,0-.82,0-1.02-.01Z"/><path class="d" d="M227.39,207.78c.22-.25.58-.43,1.06-.52.11-.02.52-.06,1.23-.12.51-.04,1.02-.07,1.53-.08l.04-.04s0-.04,0-.06c0-.15-.29-.22-.86-.22s-.98.03-1.22.09c-.49.12-.77.18-.84.18s-.11,0-.13,0c-.23-.29-.43-.59-.62-.88-.03-.04-.04-.09-.04-.13,0-.1.28-.21.84-.33.43-.09.77-.15,1.01-.17.29-.02.6-.04.92-.04.86,0,1.52.08,1.96.23.73.25,1.1.72,1.1,1.41,0,.18,0,.45.02.8.02.35.02.62.02.8.04.07.12.13.25.19.07.04.11.15.11.33,0,.48-.06.71-.18.71h-1.86c-.06,0-.14-.04-.22-.13-.09-.09-.16-.13-.21-.13-.04,0-.1.02-.18.05-.67.26-1.25.4-1.73.4-.62,0-1.13-.1-1.53-.29-.53-.25-.8-.66-.8-1.22,0-.3.11-.57.33-.83ZM229.97,208.83c.29,0,.56-.04.81-.11.37-.11.56-.27.56-.48v-.03l-.04-.09c-.15-.03-.28-.05-.41-.05h-.27c-.91,0-1.36.13-1.36.38s.24.38.71.38Z"/><path class="d" d="M233.92,205.75l.08-.09h1.77s.07.04.1.11c.04.08.07.11.1.11l.4-.14c.41-.15.79-.22,1.12-.22.57,0,.97.13,1.22.4.25.26.37.68.37,1.25,0,.1,0,.15,0,.15,0,.13,0,.18,0,.15-.03.05-.07.08-.11.1-.14.04-.39.08-.75.12-.34.03-.6.05-.78.05-.12,0-.21-.02-.26-.05-.06-.25-.12-.42-.19-.52-.11-.16-.27-.23-.47-.23-.16,0-.3.06-.41.18-.11.12-.16.27-.16.44v2.21s-.05.06-.1.11-.09.07-.12.07h-1.5c-.1,0-.17-.02-.21-.05-.03-.06-.07-.11-.11-.17v-3.98Z"/><path class="d" d="M239.23,209.63l.02-2.66c.01-1.18.02-2.06.02-2.64.03-.05.08-.08.13-.08.53-.04.98-.06,1.36-.06.26,0,.39.04.4.11.03.23.05.65.05,1.26,0,.41.01.82.04,1.26v.03s.04.01.04.01c.06,0,.28-.2.67-.57.31-.3.54-.52.7-.66h2.43s.04.03.05.05v.04l-.49.49c-.27.23-.46.39-.56.48-.29.25-.44.42-.46.49l.13.27,1.02,1.5c.25.38.42.66.53.84v.13c-.31.03-.66.04-1.06.04h-1.11c-.08,0-.21-.12-.37-.35-.09-.16-.18-.31-.28-.46-.17-.27-.32-.49-.46-.64-.03-.03-.08-.05-.16-.05-.08,0-.19.06-.32.19-.13.13-.22.23-.28.29,0,.09,0,.25-.03.48,0,.11-.02.23-.02.35-.03.13-.1.19-.22.19-.19,0-.48,0-.86-.02-.38-.01-.67-.02-.86-.02-.06-.02-.09-.11-.09-.27Z"/><path class="d" d="M246.5,205.92c.51-.28,1.26-.42,2.23-.42.34,0,.55,0,.62,0,.74.05,1.35.27,1.82.66.53.44.79,1.01.79,1.72,0,.1,0,.16,0,.16,0,.14,0,.19,0,.16-.07.1-.16.16-.27.16h-3.4l-.53.06c0,.19.12.34.37.43.18.07.38.11.62.11.13,0,.31-.04.54-.13.23-.09.38-.13.46-.13h2.08s.05.02.05.06c0,.24-.12.48-.36.71-.22.21-.45.36-.7.44-.5.16-1.18.25-2.04.25s-1.48-.1-1.96-.3c-.63-.27-1.05-.74-1.27-1.43-.06-.2-.09-.4-.09-.61,0-.9.34-1.53,1.03-1.89ZM248.08,207.24h.7c.3,0,.61-.02.93-.05.03-.01.05-.04.05-.06,0-.15-.14-.27-.42-.36-.22-.07-.43-.11-.62-.11-.16,0-.35.04-.58.13-.28.1-.42.22-.42.34,0,.08.12.11.36.11Z"/><path class="d" d="M252.91,209.77c-.25-.19-.39-.52-.4-.98,0-.17,0-.29,0-.36l-.03-1.1c0-.18,0-.3-.01-.36,0-.05-.06-.1-.18-.13-.11-.03-.17-.06-.17-.09v-1.02s.06-.07.19-.11c.12-.03.19-.07.19-.11v-.23c-.01-.13-.01-.23,0-.31,0-.11.02-.17.04-.19.06-.05.36-.14.89-.28.49-.12.76-.18.82-.18.14,0,.22.02.23.06.05.17.08.55.08,1.13,0,.02.07.06.18.1.11.04.17.08.17.12v.98c-.22.09-.33.18-.35.26,0,.04-.01.4-.01,1.08,0,.36.02.59.06.69,0,.03.08.07.2.12.1.04.16.11.16.19v.66c0,.11-.14.19-.43.25-.21.04-.39.06-.56.06-.47,0-.82-.09-1.04-.26Z"/><path class="d" d="M256.04,209.97c-.35-.02-.61-.02-.78-.02-.09,0-.15-.04-.17-.12,0-.03,0-.11,0-.23l.04-3.4c0-.15,0-.26,0-.33,0-.16.06-.25.14-.25h1.04c.14,0,.38.01.73.04l.09.09c.03,1.59.04,2.48.04,2.67,0,.77-.03,1.27-.09,1.48-.02.07-.1.1-.25.1-.17,0-.43,0-.78-.02ZM255.12,205.08c0-.17,0-.26,0-.26,0-.03,0-.08,0-.14,0-.05,0-.09,0-.11,0-.22.06-.34.17-.38,0,0,.17-.01.48-.03.21,0,.38-.01.51-.01.28,0,.44,0,.47,0,.24.02.37.08.37.17v.84l-.09.08c-.11,0-.18,0-.21,0-.23,0-.77-.02-1.61-.05-.03-.02-.06-.06-.09-.13Z"/><path class="d" d="M257.33,208.19c.02-.64.02-1.12.02-1.44v-.55c0-.27,0-.38,0-.32,0-.15.05-.23.13-.23h1.73s.08.04.11.11c.03.08.06.11.11.11.03,0,.31-.09.85-.27.26-.06.54-.09.84-.09.53,0,.99.11,1.38.33.48.27.74.64.78,1.12.01.34.02.58.02.71.02.79.03,1.25.03,1.39,0,.52-.08.81-.23.87h-.86c-.19,0-.48-.01-.86-.04-.06-.03-.09-.08-.09-.13v-2.17c0-.23-.09-.41-.28-.54-.17-.11-.37-.17-.61-.17-.26,0-.5.08-.71.23-.24.17-.35.37-.35.62v.86c0,.76-.04,1.19-.13,1.29-.04.04-.1.06-.18.06h-1.54c-.12,0-.18-.11-.18-.32,0-.32,0-.8.02-1.44Z"/><path class="d" d="M263.71,210.05c.13-.28.24-.42.34-.42.08,0,.19.03.3.08.16.08.26.13.3.13.49.15,1.01.23,1.55.23.37,0,.63-.01.78-.04.31-.05.54-.15.71-.3.1-.1.16-.16.18-.2v-.06c-.1,0-.22.02-.36.06-.11.03-.23.07-.35.1-.25.06-.55.09-.91.09-.78,0-1.41-.13-1.9-.4-.61-.34-.91-.87-.91-1.59s.28-1.32.83-1.71c.49-.34,1.12-.51,1.9-.51.15,0,.39.03.74.09.33.06.6.12.81.18.21.06.23.09.06.09.08,0,.13-.04.16-.13.03-.09.06-.13.1-.13h1.73c.08,0,.12.06.13.18.03.49.05,1.41.05,2.78,0,.33,0,.49,0,.49,0,.07,0,.16,0,.28,0,.1,0,.17,0,.21l-.04.05c-.11.7-.51,1.17-1.18,1.41-.43.16-1.08.23-1.95.23-.49,0-.8,0-.94-.01-.34-.02-.55-.04-.62-.04-.19,0-.5-.06-.93-.17-.5-.13-.75-.26-.75-.38s.06-.32.17-.57ZM266.1,208.31c.22.11.5.16.85.16.23,0,.45-.08.66-.25.21-.17.31-.36.31-.58,0-.27-.12-.48-.36-.63-.2-.12-.45-.18-.74-.18s-.56.06-.77.17c-.26.14-.39.35-.39.64,0,.31.15.53.44.67Z"/><path class="d" d="M270.09,208.35l.04-.08c.4-.03.62-.05.67-.05h.71s.19.02.47.05l.05.04c.03.17.04.29.04.35v1.2c-.04.09-.07.13-.09.13h-1.9v-1.63Z"/><path class="b" d="M111.43,203.91c-.4-.01-.6-.42-.6-1.21,0-1.14.02-2.85.06-5.12.04-2.27.06-3.97.06-5.12.12-.25.2-.37.25-.37h4.87c.06,0,.13.1.2.31.07.21.16.31.26.31.17,0,.35-.05.55-.14,1.22-.58,2.42-.87,3.59-.87,2.24,0,4.11.49,5.61,1.48h.25c1.92-.99,3.77-1.48,5.54-1.48,1.95,0,3.42.36,4.43,1.07,1.16.83,1.73,2.19,1.73,4.07v6.57c0,.32-.29.49-.86.49-.49,0-1.22-.02-2.19-.06-.97-.04-1.7-.06-2.19-.06-.25-.25-.37-.45-.37-.6,0-.47.02-1.16.07-2.08.04-.92.07-1.61.07-2.08,0-1.1-.12-1.91-.35-2.42-.35-.75-1.01-1.13-1.99-1.13-1.41,0-2.37.59-2.88,1.75l-.19.45v5.01c0,.56-.22.94-.66,1.13-.33.14-.81.2-1.46.18-1.38-.07-1.89-.1-1.54-.1h-1.52c-.33-.23-.49-.53-.49-.9,0-.32.02-.82.06-1.47.04-.66.06-1.15.06-1.47,0-1.46-.08-2.45-.25-2.98-.34-1.07-1.06-1.6-2.18-1.6-.74,0-1.39.18-1.95.53-.62.42-.95.97-.99,1.68-.01.49-.02.83-.02,1.01-.06,2.79-.1,4.17-.1,4.11,0-.04,0,.1,0,.41.01.16,0,.29-.06.39-.1.22-.78.33-2.01.33-1.32,0-2.25-.01-2.81-.04Z"/><path class="b" d="M140.03,197.96c.61-.7,1.59-1.18,2.92-1.42.3-.05,1.43-.16,3.39-.33,1.4-.12,2.81-.19,4.21-.22l.12-.1c.01-.05.02-.1.02-.16,0-.4-.79-.61-2.36-.61s-2.7.08-3.37.25c-1.35.34-2.13.5-2.32.5s-.31,0-.35-.02c-.62-.8-1.2-1.62-1.72-2.43-.08-.12-.12-.24-.12-.37,0-.27.77-.58,2.32-.92,1.2-.26,2.12-.42,2.79-.47.81-.06,1.65-.1,2.53-.1,2.38,0,4.18.21,5.4.62,2.01.69,3.02,1.98,3.02,3.88,0,.49.02,1.23.07,2.2.05.97.07,1.71.07,2.2.12.18.34.36.68.53.19.1.29.41.29.92,0,1.31-.16,1.97-.49,1.97h-5.13c-.17,0-.37-.12-.61-.37-.24-.25-.43-.37-.57-.37-.1,0-.27.05-.51.14-1.85.73-3.44,1.09-4.78,1.09-1.72,0-3.13-.27-4.23-.8-1.47-.7-2.2-1.82-2.2-3.35,0-.82.31-1.58.92-2.28ZM147.15,200.86c.79,0,1.54-.1,2.24-.31,1.03-.31,1.54-.76,1.54-1.33v-.08l-.12-.23c-.4-.09-.78-.14-1.13-.14h-.74c-2.5,0-3.74.35-3.74,1.04s.65,1.06,1.95,1.06Z"/><path class="b" d="M162.69,203.84c-1.33-.4-2.37-1.12-3.12-2.16-.65-.88-1-1.73-1.05-2.54-.01-.18-.02-.51-.02-.97,0-2.2.73-3.87,2.2-5.01,1.34-1.05,3.13-1.58,5.38-1.58h.35c.32.01.45.02.37.02.68.21,1.2.33,1.58.37,1.39.42,2.07.62,2.03.62.23,0,.35-.09.35-.27v-3.9c.03-.06.12-.14.29-.22.17-.08.3-.13.39-.13h4.5l.23.23c.06,1.09.1,2.17.12,3.24.03,3.38.04,4.96.04,4.74v3.57c0,1.68-.05,2.95-.16,3.82-.1.16-.22.23-.35.23h-4.76c-.13-.19-.29-.36-.49-.49-.36,0-.88.14-1.56.43-.68.29-1.13.43-1.36.43-.62.01-1,.02-1.13.02-1.57,0-2.85-.15-3.84-.45ZM165.48,199.88c.59.42,1.27.62,2.07.62.6,0,1.24-.14,1.91-.43.83-.35,1.25-.78,1.25-1.29v-1.46c0-.55-.44-1.02-1.31-1.42-.75-.35-1.44-.53-2.05-.53-.77,0-1.44.26-2.01.77-.57.51-.86,1.15-.86,1.9s.33,1.36.99,1.83Z"/><path class="d" d="M178.28,203.91c-.4-.01-.6-.42-.6-1.21,0-1.14.02-2.85.06-5.12.04-2.27.06-3.97.06-5.12.12-.25.2-.37.25-.37h4.87c.06,0,.13.1.2.31.07.21.16.31.26.31.17,0,.35-.05.55-.14,1.22-.58,2.42-.87,3.59-.87,2.24,0,4.11.49,5.61,1.48h.25c1.92-.99,3.77-1.48,5.54-1.48,1.95,0,3.42.36,4.43,1.07,1.16.83,1.73,2.19,1.73,4.07v6.57c0,.32-.29.49-.86.49-.49,0-1.22-.02-2.19-.06-.97-.04-1.7-.06-2.19-.06-.25-.25-.37-.45-.37-.6,0-.47.02-1.16.07-2.08.04-.92.07-1.61.07-2.08,0-1.1-.12-1.91-.35-2.42-.35-.75-1.01-1.13-1.99-1.13-1.41,0-2.37.59-2.88,1.75l-.19.45v5.01c0,.56-.22.94-.66,1.13-.33.14-.81.2-1.46.18-1.38-.07-1.89-.1-1.54-.1h-1.52c-.33-.23-.49-.53-.49-.9,0-.32.02-.82.06-1.47s.06-1.15.06-1.47c0-1.46-.08-2.45-.25-2.98-.34-1.07-1.06-1.6-2.18-1.6-.74,0-1.39.18-1.95.53-.62.42-.95.97-.99,1.68-.01.49-.02.83-.02,1.01-.06,2.79-.1,4.17-.1,4.11,0-.04,0,.1,0,.41.01.16,0,.29-.06.39-.1.22-.78.33-2.01.33-1.32,0-2.25-.01-2.81-.04Z"/><path class="d" d="M215.1,191.34c.49,0,.94,0,1.33.02.21.04.37.08.49.12,1.49.23,2.42.4,2.77.49,1.23.31,2.16.75,2.79,1.31.62.56,1.19,1.44,1.7,2.65.21.49.31.99.31,1.5,0,2.91-1.23,4.91-3.7,6-1.04.46-1.92.7-2.63.72-.39.01-.99.02-1.81.02-3.07,0-5.37-.32-6.9-.97-2.31-.97-3.47-2.79-3.47-5.44,0-4.28,3.05-6.41,9.14-6.41ZM212.94,199.96c.6.52,1.38.78,2.34.78.87,0,1.59-.28,2.15-.84.57-.56.85-1.27.85-2.15,0-1.07-.4-1.89-1.21-2.48-.36-.26-.66-.39-.88-.39h-.92c-.96,0-1.73.23-2.3.7-.62.51-.94,1.23-.94,2.17s.3,1.68.9,2.2Z"/><path class="d" d="M225.36,203.54c.05-.12.09-.2.12-.23l4.64-5.38c.17-.2.25-.36.25-.49v-.08c-.09-.27-.81-1.11-2.16-2.52-.65-.68-1.47-1.53-2.48-2.54-.01-.04-.02-.07-.02-.1,0-.13.05-.22.14-.25h.39c.35,0,.48,0,.39,0h2.46c.84,0,1.84.05,2.98.14.12.01.44.29.97.82l.97,1.01h.37l1.81-1.83c1.56-.09,2.53-.14,2.9-.14h2.44c-.1,0,.02,0,.37,0h.39c.09.04.14.12.14.23,0,.13-.08.29-.25.49l-3.9,4.51v.49l5.36,5.74v.26c-.62.09-1.22.14-1.77.14h-2.92c-.7,0-1.24,0-1.63-.02-.38-.01-.89-.41-1.53-1.18-.64-.77-1.14-1.16-1.52-1.16-.1,0-.19,0-.27.02-.87.96-1.51,1.7-1.93,2.22l-.25.12h-1.46c-.56,0-1.39-.02-2.5-.06-1.1-.04-1.94-.06-2.5-.06v-.14Z"/><path class="d" d="M247.16,203.98c-.96-.05-1.67-.07-2.15-.07-.25,0-.4-.11-.47-.33-.01-.08-.02-.29-.02-.64l.12-9.38c0-.4,0-.71-.02-.92.03-.45.16-.68.39-.68h2.87c.38,0,1.05.04,2.01.12l.25.25c.08,4.38.12,6.84.12,7.37,0,2.13-.08,3.49-.25,4.07-.05.18-.28.27-.68.27-.48,0-1.2-.02-2.15-.07ZM244.64,190.5c0-.47,0-.7,0-.7,0-.09,0-.22-.02-.39,0-.14,0-.24,0-.29,0-.6.16-.95.47-1.05.03-.01.47-.04,1.33-.08.57-.03,1.04-.04,1.4-.04.78,0,1.21,0,1.31.02.68.05,1.01.21,1.01.47v2.32l-.25.23c-.3.01-.49.02-.57.02-.64,0-2.11-.04-4.43-.13-.09-.05-.18-.18-.25-.37Z"/><path class="d" d="M253.97,192.84c1.42-.77,3.47-1.15,6.16-1.15.94,0,1.51,0,1.72.02,2.04.13,3.72.73,5.03,1.81,1.46,1.21,2.18,2.79,2.18,4.75,0,.29,0,.43,0,.43-.01.39-.02.53-.02.43-.18.29-.43.43-.74.43h-9.38l-1.46.18c0,.53.34.93,1.03,1.19.49.2,1.06.29,1.7.29.35,0,.84-.12,1.48-.37.64-.25,1.06-.37,1.27-.37h5.73c.09,0,.14.06.14.18,0,.66-.33,1.32-.99,1.97-.6.59-1.24.99-1.93,1.21-1.39.46-3.26.68-5.61.68s-4.09-.28-5.4-.84c-1.74-.74-2.9-2.05-3.49-3.94-.17-.55-.25-1.1-.25-1.68,0-2.47.95-4.21,2.85-5.23ZM258.32,196.46h1.93c.83,0,1.69-.05,2.58-.14.09-.04.14-.1.14-.18,0-.42-.39-.75-1.17-1-.61-.2-1.18-.29-1.72-.29-.43,0-.96.12-1.6.35-.77.29-1.15.6-1.15.94,0,.21.33.31.99.31Z"/><path class="d" d="M269.92,199.52l.12-.23c1.09-.09,1.71-.14,1.85-.14h1.97c.1,0,.53.05,1.29.14l.14.12c.08.47.12.79.12.96v3.29c-.12.25-.2.37-.25.37h-5.22v-4.5Z"/></svg>