<?xml version="1.0" encoding="UTF-8"?><svg id="a" xmlns="http://www.w3.org/2000/svg" width="400" height="400" viewBox="0 0 400 400"><defs><style>.b{fill:#fff;}.c{fill:#d5b9a7;}.d{fill:#503629;}</style></defs><path class="d" d="M262.97,224.4c.07,2.12-.38,4.56-.26,7.12.24,5.35-.26,10.75.13,15.44.22,2.58.05,5.1-.25,7.43-1.53,3.15-4.26,3.98-5.79,4.47-4.24,1.36-11.41,1.14-22.06,1.02-9.06-.09-18.47-.2-26.52.13-4.72.19-8.93-.64-13.32-.39-4.3.24-8.83.68-13.2,1.32-4.27.62-8.94.85-13.33,1.19-4.6.36-9.04-.59-12.53-1.85-1.22-.44-5.13-3.5-5.67-4.75-1.21-2.77-1.26-9.66-1.45-13.59-.24-4.97-1.14-9.28-1.45-13.59-.34-4.71-1.04-9.65-1.58-13.46-.58-4.09-.96-8.38-1.32-13.46-.66-9.18-3.63-16.43-4.88-25.2-.56-3.93-1.36-8.53-1.45-13.33-.11-5.65-.25-14.04,3.04-16.89,1.85-1.61,5.88-2.36,9.89-2.51,2.09-.08,4.13.09,6.07-.13,3.73-.43,6.86-1.24,10.69-1.71,1.95-.25,3.83.07,5.67-.27,1.89-.35,3.62-.4,5.41-.53,1.8-.13,3.54.07,5.27,0,3.7-.15,7.3-.93,10.95-.79,2,.07,3.73.35,5.54.13,1.62-.2,3.23-.63,4.88-.92,6.76-1.21,13.92-.94,21.77-1.45,3.88-.25,8.18.41,11.75.4,6.63-.03,16.17-1.78,19.13,2.77,1.04,1.6,1.53,5.7,1.71,8.45.19,2.78.76,5.96.79,8.71.07,5.98.87,12.54.93,18.34.02,2.94-.53,6-.53,8.97,0,3.13.51,6.34.66,9.5.16,3.38.1,6.76.13,10.16.06,6.56,1.01,13.04,1.19,19.27"/><path class="c" d="M219.37,171.37c.37-.45,1.11-.09,1.45-.62.15.12.2.34.41.41l.08-.33c.31-.08.27.17.41.25.26.06.16-.23.41-.17-.04-.39-.11-.54.25-.66-.09-.39.1-.42,0-.99.2.1.42.18.49.41l.08-.25c.59.09.53.39,1.07.58.02.19-.24.09-.25.25,0,.14.06.21.17.25.27.1.06-.26.33-.16-.09.21.39.32,0,.33.81.58,1.01,1.29,1.4,2.23h-.41c.16.35.27.3.25.74h.41c.07.31.24.73.66.9-.03.19-.22.19-.33.08.05.33.35.42.33.82.19-.02.31-.13.58-.08.03.41-.02.27-.33.25.03.41.35.53.82.49.05.44.62.73.41,1.16-.19-.05-.13-.36-.49-.25-.01.15.1.17.08.33h.58c.33.69.49,1.54,1.15,1.9-.06.18-.29.21-.41.33.05.25.18.43.25.66.45-.1.47-.03.58.33.24-.07-.05-.27,0-.41.16.06.22.22.25.41-.27-.07-.17.22-.34.25.11.14.34.17.41.33-.02.18-.22-.12-.33.08.05.55.4.81.9.9.05.32-.15.4-.08.74.08.23.15-.22.41-.08v.33h-.33c0,.47.25.69.33,1.07.17.04.16-.12.16-.25.55.23.36.84.99,1.07-.01.21-.12.32-.33.33.34.05.44.33.74.41,0,.16-.22.1-.16.33l-.16-.16-.16.16c.1.12.29.16.49.16.14.11,0,.5.25.5-.06.2-.25-.27-.41,0,.09.38.67.27.58.82.2-.01.4-.01.5.08-.08.2-.03.52-.33.49-.09-.18,0-.27-.16-.49-.32-.07-.34.32-.58.08.12.48.59.99.5,1.4-.2-.53-.55-.66-1.08-.33-.06.23.17.17.17.33.23-.01.1-.39.41-.33-.04.26.23.22.25.41-.07.33-.31.65.16.74.13-.12-.14-.7.17-.82.21-.01.26.13.41.16.11-.52-.6-.39-.33-.82.34-.05.47.08.74.08.06.22-.17.16-.24.25.11.13.07.43.24.49.23-.33.33-.71.25-1.16.17-.04.16-.25.33-.08.06-.3-.29-.2-.41-.33.47-.57.89-1.38.58-2.14.19-.09.41-.13.58-.25-.03-.27.27-.86.74-.91-.55-.5.11-.96.33-1.4.34.2.39-.25.66.08.09-.3-.31-.13-.25-.41.45.09.47-.24.58-.49.14.02.19.14.16.33.4.12.07-.47.41-.41-.02-.23-.14-.35-.41-.33.22-.46.83-.54.99-1.07l-.08-.16-.22.02c.1-.31-.05-.98.47-1.01-.12-.8.21-1.16.74-1.32.33-1.04.93-1.82,1.81-2.31.07-.29-.15-.35,0-.49.21-.04.41,0,.66-.16-.04.3-.13.53-.41.58.42.25-.22.15-.08.58.3,0,.27-.34.49-.41.05.14-.17.49.08.74.32-.14-.04-.45.17-.66.36.15.62-.23.98-.49-.04-.51-.33-.91-.16-1.4-.1-.12-.28-.15-.49-.16.14-.1.22-.28.49-.25-.02.19.02.31.16.33.17.04.22-.06.33-.08.06-.36-.11-.49-.08-.82.16-.15.15.05.41,0-.15.3-.26,1.27.33.99.02.22-.11.27-.33.25-.03.2.15.18.08.41.32.07.29-.2.49-.25-.29-.77.75-.9.58-1.57.15.09.32.59.49.17.13.22,0,.5,0,.74.12.13.41.09.5.25.19-.26.39-.42.24-.82.35.05.58-.03.5-.41.22.08.16.45.58.33-.14.42-.26.84-.66.99-.02.33.37.49-.16.49.14.44.74.41.83.91.2.01.25-.13.41-.17-.1-.21-.4-.52-.16-.82h.33c-.09.34.29.21.33.41l.16-.08c0-.54-.23-.36-.41-.66-.02-.26.46-.04.33-.41.54.37.38-.58.82-.58.14.18-.16.45-.25.66.08.15.2.24.25.41.2.03.18-.15.41-.08-.17.21-.32.52-.17.82-.27.14-.41.41-.74.49.2.28-.08.76-.41.49-.04.26.22.22.24.41.21-.12.33-.2.58-.08.24-.2.35-.52.58-.74.26.1,0,.73.41.68-.42.12-.58.7-1.07.48.37.28-.11.77-.41.58-.26.15-.12.7-.58.66,0-.14-.06-.21-.17-.25-.18.61-.7.9-1.15,1.24v-.49c.17.03.22-.06.33-.08-.25-.3-.31.28-.66.16-.01-.2.13-.26.16-.41-.2-.18-.36.19-.49.33.02.15.14.19.33.16-.04.51-.37.73-.74.91-.41-.3.47-.93-.08-1.32-.12.5-.83,1.77-.25,2.47h-.25c.12.64.19.82.25,1.49-.07,0-.45-.61-.25-.91-.03-.1-.1-.17-.25-.17-.31.41-.33,1.1-.91,1.24.15-.18.13-.52.33-.66-.03-.16-.38,0-.25-.33-.33-.05-.24.32-.25.58-.71-.09-.75.99-.41,1.24.22.06.16-.17.25-.25-.05-.25-.52-.58.08-.58-.07.35.1.45.25.58-.19.25-.2.68-.58.74.16.21.5-.09.74-.08-.12.41-.35.54-.83.41,0,.25.15.35.33.41.04.57-.49.81-.33,1.24-.31.06-.18-.31-.41-.33-.36.12.15.41.17.66-.22.22-.39-.03-.58-.08-.32.14.25.5.33.25-.05.26-.3,1.02-.66,1.24-.09-.1-.09-.29-.08-.5-.45.36.04.76-.17,1.4-.34.08-.57.25-.66.58-.27.1-.06-.27-.33-.16-.24.19.34.26.25.58-.17.18-.23-.04-.49,0v-.33c-.14-.02-.14.08-.25.08.29.46-.02.88.16,1.4-.1-.11-.4-.13-.41.08-.04.18.12.16.25.16-.1.46-1.22.66-.66,1.24-.11.24-.34.28-.49.08.11-.33.36-.51.49-.82-.01-.18-.2-.18-.41-.17-.11.06-.15.18-.16.33-.33.01-.49-.37-.5.16.02.18.22-.12.33.08-.27.26.01.55-.17.9h-.41v.25c.06.25.18-.08.33,0-.22.46-.46.92-.66,1.4-.19.03-.32-.02-.41-.08.06-.31.29,0,.41-.17-.16-.2-.35-.36-.08-.58-.18-.07-.18-.31-.41-.33-.35.26.25.55-.33.58.54.54.05,1.28.82,1.56,0,.21-.3.13-.41.25.21.2.46.37.82.41-.04.22-.12.38-.25.5.21.2.48.34.49.74-.15.06-.06.25-.25.08.23.21.09.8.58.74-.07.48.24.58.33.91.28.07.34-.15.49,0,.01.36-.23-.04-.33.16-.03.2.15.18.08.41.2.04.18-.15.41-.08-.04.26.17.27.41.25-.04.16-.24.15-.17.41.27.18.45.43.74.58-.28.48.1.61-.08,1.15-.36-.1-.49.24-.33.41.31-.1.44-.38.74-.5-.2.34.05.44.25.58.49-.21-.19-.67,0-.83.19.11.26.34.41.49,0,.19-.14.25-.08.49-.13.03-.14-.07-.25-.08.09.39.75.04,1.07.25-.25.17-.75.08-.74.5.49-.07,1.24.55.66,1.07-.37-.05-.29-.54-.58-.66-.18-.01-.03.29-.08.41.37.15.45.59.66.9.16-.18.02-.67.41-.41.02-.28-.07-.67.08-.82.19.08,0,.55.33.49-.17.63.47,1.04.82,1.4.24-.12-.18-.49.08-.66.58.97.22,2.27.99,2.8.22.03.27-.11.25-.33.36.2.16,1.26.99.91.22.74.51,1.57,1.15,1.65-.21.29,0,.73,0,1.07-.19.04-.42.16-.57,0-.16.15.06.21,0,.49l.33.08c.05.43-.35.42-.58.58.02.25.25.29.16.66-.17-.02-.16-.23-.33-.25-.18.24-.08.9,0,1.16-.2,0-.24-.14-.5-.08.02.34.4.32.5.58,0,.27-.49.06-.41.41-.25-.08-.33-.33-.74-.25,0,.37.19.1.33.25-.11.44-.11.99-.74.91.03.27.19.67,0,.9-.23.01-.19-.25-.41-.25-.25.42-.76.37-1.15.16-.06.25.29.1.16.41-.4.06-.69.12-.99-.08-.02-.19.02-.31.17-.33-.7-.24-1.16-1.05-1.73-1.65-.01-.32.07-.03.25-.08-.08-.14-.26-.19-.5-.16-.48-.97-1.32-1.59-1.98-2.39l.17-.33c-.12-.26-.51-.26-.83-.33.18-1.23-1.36-1.69-1.23-2.89-.15-.01-.18.1-.33.08-.02-.13.08-.14.09-.25-.65-.06-.4-.66-.99-.66.07-1-1.12-1.1-.83-2.06-.24.01-.88-.32-.66-.74-.09-.36-.38-.1-.58-.25-.03-.19.01-.32.08-.41-.16-.21-.36.1-.58-.08-.01-.61-.34-1.56-.99-1.81-.16.11-.28.27-.33.49-.18-.06-.21-.29-.33-.41-.37.13.05.37.08.58-.05.23-.09.46-.41.41.14-.34-.06-.79-.08-1.4-.42.36-.82.16-1.24.08.08.39.14.8.25,1.16.36-.2.09-.45.16-.66.59.18.45.69.99.99-.11.3-.72.9-.91.58-.42.16-.04.25-.08.66-.3.06-.73-.02-.74.33-.26.06-.16-.23-.41-.16-.25.1.12.31-.08.41-.26-.11-.52-.06-.74,0-.02.13.08.14.08.25.33-.02.45-.26.91-.16-.06.32-.6.18-.83.33.3.77-1.09.82-.82,1.57-.37-.04-.57.08-.5.49-.15,0-.28-.05-.33-.16.04-.26.32-.28.49-.41-.21-.16-.53.15-.74.08-.07.26.07.31.16.41.03.39-.59.13-.41.66-.51-.04-.47.25-.82,0-.25.11.09.29,0,.5-.15-.01-.18.1-.33.08.22.28-.36.31-.17.82-.29.13-.05-.28-.25-.25-.23-.05-.35.41-.16.49-.75.33-1.03,1.12-1.73,1.48l-.16-.08c-.34.06.12-.31-.24-.33-.18.27.1.69-.17.9-.25.06-.16-.23-.41-.16-.39.06.13.53-.25.58-.25.08-.15-.18-.16-.33-.16.17-.33.19-.58.08.14-.14.06-.48.08-.74-.3-.03-.08.47-.5.33-.06.36.31.78-.25.74-.06.31.43.06.33.41-.2.05-.6.31-.66,0-.18.01-.18.21-.17.41-.2.03-.18-.15-.41-.08-.06.22.17.17.17.33.16,0,.11-.22.33-.16-.03.38-.63.19-.58.66-.91.17-1.13.97-2.06.74l.08-.25c-.2.13-.31.35-.33.66-.29.05-.43-.07-.49-.25-.35.14-.07.42-.33.58-.33.01-.22-.21-.17-.41-.34.1-.63.25-.9.41-.17-.05.11-.32.33-.25.03-.13-.08-.14-.08-.25-.31.03-.31.38-.66.16-.04.32.38.17.25.58-.47-.25-.8.18-1.24,0-.24.34.4.19.41.41-.47-.08-.62.15-.83.33-.39-.21-.42-.1-.74.08-.58-.46-1.4.41-2.14.16-.2-.11.09-.3-.08-.33-.21.04-.22.34-.49.5-.22.03-.27-.12-.25-.33-.43-.13-.33.28-.5.41-.33.01-.22-.21-.16-.41h-.82c-.31-.16.39.02.33-.17-.19-.35-.5.24-.74-.16-.09.31.21.24.16.49-.17.13-.63.02-.66-.25-.3.19-.41.29-.66,0v.25c-.03.22.46-.08.33.25-.39-.3-.99.44-1.15-.16-.68.05-1.92.02-2.55-.08v-.33c-.38-.02-.34.38-.74.33-.07-.09-.11-.22-.08-.41-.34-.07-.32.22-.49.33-.18-.42-1.31-.11-1.65-.33-.25-.15-.05-.25-.08-.58-.11.17-.26.29-.33.5-.48-.27-1.12.13-1.24-.5-.25-.06-.16.23-.41.16.09-.49-.43-.12-.5-.74-.23.11-.45.12-.49-.16l-.08.33.25.08c-.11.34-.39-.17-.82,0-.04-.16-.18-.21-.17-.41-.17,0-.11.23-.33.16.21-.76-1.33-.32-1.23-1.23-.08-.22-.15.22-.41.08-.06-.48-.89-.21-.74-.91-.33.14-.17.22-.08.49-.42,0-.25-.57-.74-.49-.02-.19.24-.09.25-.25-.54-.04-.68-.47-.91-.82-.27-.1-.06.27-.33.16.05-.37-.44-.22-.41-.58.12-.09.2-.09.25.08.18-.06.27-.39.16-.5-.25.03-.29.26-.66.16-.08-.6-.78-.59-.66-1.4-.28-.19-.45-.17-.83-.08-.28-.03-.02-1.02-.41-.66-.23-.12-.15-.35,0-.49-.09-.33-.5.08-.66-.25-.03-.28.35-.15.33-.41-.17-.22-.24.22-.49,0,.28-.11.17-.54-.25-.41-.02-.4.25-.52.41-.74-.2-.31-.43-.67-.74-.66.03-.48-.41-.99-.17-1.65-.25-.14-.41-.35-.58-.58.09-.42.04-.68,0-1.24-.07-.22-.18.25-.33,0-.07-.95.26-2.37-.41-2.8-.04-.3-.1-.44.16-.58-.1-.23-.09-.57-.08-.9-.28-.07-.34.09-.49.16-1.51,1.53-2.91,3.2-4.53,4.61.01-.15-.1-.17-.08-.33-.17.11-.31.24-.41.41.23.38-.02.65-.16.91-.66,1.16-2.45,2.08-1.4,4.04.12-.12.4.02.57.08l-.08.08v.16c-.19-.02-.31-.13-.58-.08-.08.32.32.34.08.58-.27.07-.17-.21-.33-.24-.04.39.45.27.33.74.26.04.21-.28.41-.08-.12.26-.32.52-.16.82.26.07.26-.12.41-.16.11-.39-.26-.54-.08-.74.56,0,.28.82.58,1.07-.49-.07-.61,0-1.07.08.04-.26-.12-.32-.16-.49-.18.17-.59.4-.33.74.17-.05.23-.2.49-.17-.16.38-.06.53-.33.74,0,.24.19.31.33.41.46-.15.82-.59.49-1.07h.41c-.03.62-.09,1.03.16,1.48.26-.19-.02-.9.33-.99,0,.52-.07,1.72-.66,1.32-.03.2-.13.31-.08.58-.22-.16-.46-.39-.33-.66-.13.12-.21.28-.25.49-.01.42.54.28.74.5-.03.16-.23.15-.16.41.26.01.28-.21.33-.41.3,0,.17.43.33.58-.06.28-.57-.07-.66.33.15.3.26-.11.33-.16.23.54.78.5.99.9-.42-.13-.44-.17-.74.09.01-.15-.1-.17-.08-.33-.34.1-.05.32,0,.5.15,0,.18-.1.33-.08-.1.68.19.96.16,1.57.28-.18.4-.07.66-.17-.27-.26.06-.51-.08-.74.2.04.24,1.05.17,1.48-.17-.07-.25-.24-.25-.49-.16.02-.16.22-.25.33-.09.31.31.13.25.41-.19.03-.18-.15-.41-.08-.07.35.16.39.16.66-.37.15-.14-.29-.33-.33-.22.08.12.26,0,.49.18.12.43.18.41.5-.46-.11-.41.3-.66.41.18.1.24.31.49.33-.01.16-.27.06-.25.25,0,.15.1.18.08.33.14,0,.21-.06.25-.16.24.12-.02.41-.08.49-.1-.04-.17-.1-.16-.25-.14.2-.18.48-.41.58.29-.12.87.6,1.07,0,.17.05.02.42.33.33-.09.18-.42.13-.5.33-.27.06-.13-.17-.08-.25-.33.03-.26.46-.49.58-.03.28.41.09.25.5.5-.21.89-.12,1.24.08.32.61-.64,1.84.16,2.31-.3.21-.38.87-.16,1.16-.01.16-.28.05-.33.16l.33.08c-.19.42.03.85-.25,1.07l.33.25c-.17.16-.29.37-.41.58.26.13.56.22.49.66-.15,0-.05-.27-.25-.25-.19.09-.3.25-.33.49l.33.08-.17.41h-.41c0,.23.14.17,0,.33l.33.25c-.07.24-.21-.11-.41,0v.25c.08.23.22-.12.33.08l-.16.25c.05.13.4-.28.5.08.19-.05-.02-.51.16-.58.34.08-.08.4.25.5-.09.69-1.02-.19-.99.66-.12-.05-.43.09-.41-.08-.29.46-.2.99-.16,1.49.36-.16.87-.23,1.07.16.18-.07.14-.36.25-.49.21.01.32.12.33.33-.33-.05-.33.22-.33.49-.77-.18-1.12-.6-1.57.08.07.07.09.19.08.33h.33c.14-.11.13-.36.25-.49.26.23.42.57.66.82-.27-.1-.06.27-.33.17.01-.5-.63.05-.74-.41-.65.2-.36,1.18-.25,1.73l-.16-.25c-.14.45-.37,1.16,0,1.4-.5.15-.26.79-.49,1.32l-.25-.41c-.21.01-.17.28-.17.5-.26-.07-.26.13-.33.25-.15-.28,0-.45.08-.74l-.17-.16c.08.24-.64,1.02.08,1.15-.21.1-.32.29-.66.25.54.14,0,.92.57.91-.08.25-1.27-.27-1.57.16.2.35-.09.59-.41.66-.04.26.26.19.16.49-.09.17-.77-.43-.66.25-.38-.03-.19-.47-.16-.74l-.33-.08c-.05.26.25.19.16.49-.25.06-.16-.23-.41-.16.04.32.4.32.58.5-.24.43.29.52.16,1.07.25.06.3-.08.49-.08v.33c-.66-.25-.82.65-1.56.58v-.25c-.53-.11-.5.33-.91.33-.26.04-.23-.21-.33-.33-.11.05-.15.18-.17.33.02.17.36.02.41.16.01.49-.35.3-.16.82-.65-.08-.42,1-1.07.66.12-.21.45-.21.33-.66-.29-.02-.3.25-.58.25l.17-.33c-.45-.06-.35.42-.41.74.3.17.74.2,1.07.33-.3.23-.7-.06-.99.08-.36.18.09.41-.08.58-.44-.11-.5.15-.74.25-.03-.32-.09-.29.08-.49-.03-.13-.26-.07-.16-.33-.85.07-.29.48-.58,1.07l.33.25c-.11.24-.37-.06-.49-.08-.07-.29.12-.32.08-.58-.33-.03-.21.39-.41.49-.15-.09-.18-.32-.33-.41-.65.15.29.89-.33.99-.05.3.24.25.49.25-.24.19-.43.45-.82.49v-.33c-.83-.01-1.75.16-2.06-.58-.23-.11-.21.44-.33.16-.28.01.02-.29-.25-.41-.41.02-.67-.1-.74-.41-.77-.09-1.52-.81-1.9-1.56-.35-.06-.65-.17-.66-.58-.3,0-.48-.13-.74-.16-.23-.53-.78-1.29-.66-2.06-.49-.04-.23.25-.25.58-.59-.48-.92-1.22-1.23-1.98-.66-.61-1.27-1.26-1.65-2.14.27,0,.14.41.49.33.12-.08-.03-.13.17-.25.01-.18-.29-.04-.41-.08-.16-.05.05-.49-.25-.41-.25-.1.23-.1.25,0-.05-.36-.18-.64-.41-.82.49-.35-.23-.55-.25-.9h.33c.1-.45,0-.36-.17-.66.17.03.22-.05.33-.08-.11-.25-.33-.39-.25-.82.23.02.15.35.33.41.15,0,.05-.27.16-.33-.15-.23-.39-.37-.41-.74.2.16.32.39.57.49.23-.13-.04-.45-.08-.58h-.58c.08-.48.25-1.36-.33-1.65.23-.65.3-1.45-.08-2.14.18-.15.16-.5.25-.74-.02-.18-.22.12-.25-.17.4-.41,1.16-1.29.17-1.57.16-.26.15-.73.58-.74.03-.46.12-.78-.08-1.15.07-.16.36-.22.49-.08.11-.06.15-.18.16-.33-.08-.22-.19.25-.33,0,.36-.49.77-.93,1.07-1.48.08.15.23.41.33.08-.26-.23-.21-.41-.25-.82-.23.16-.3.47-.58.58-.01-.56.42-.68.58-1.07.12.02.03.25.16.25.07-.25.26-.4.33-.66-.12-.22-.37.37-.58.08.09-.3.4-.37.74-.41-.1-.42-.61-.44-1.07-.5.15-.25.54-.09.82-.08.19-.03.08-.45-.08-.41.26-.07.21-.45.49-.49.04-.26-.15-.29-.08-.58.36.28.08-.5.41-.66.39.15.93-.39,1.4-.16.07-.31-.39-.1-.58-.16.06-.36.22-.6.33-.91-.25-.06-.1.28-.41.17-.05.45-.2.79-.57.91.3-1.1.69-2.23,1.56-2.97.02-.45-.34-.4-.66-.33.07-.55.83.11.82-.49.35-.03.06.27.08.41h.25c.02-.23.1-.45.33-.66-.07-.31-.29,0-.41-.17.04-.4.33-.73-.17-.82.15-.21.15-.56.5-.58-.4-.43.59-.37.74-.74-.04-.12-.11.03-.25,0,.15-.25-.08-.37.08-.58.26-.07.25.13.41.16.01-.37.17-.6.33-.82.22-.06-.06.39.16.33.28-.18.03-.24,0-.49.18-.04.16.12.17.25.28-.01.36-.24.41-.49l-.25-.08c.14-.24.24-.53.49-.66-.09-.1-.24-.15-.17-.41.31.08.67.11.91.25.2-.18.17-.6.41-.74.26.08.36.25.66.08v-.41c-.12.07-.26.12-.24.33-.31-.08-.22-.18-.58-.08.02-.21-.03-.35-.25-.33.48-.84.84-1.42,1.24-2.23.21.06-.2.47.16.49.14-.43.7-.72.41-1.32.25-.11.31-.4.66-.41l-.08-.25c.15,0,.17.1.33.08-.14-.33.22-.65-.24-.66.04-.23.32-.23.49-.33-.37-.3.22-.61-.16-.91-.06-.25.23-.15.16-.41.15.02.19.14.16.33.25-.22-.02-.63-.08-.82.19.03.32-.01.41-.08-.23-.44.23-.63-.08-.99-.28.2-.45.03-.66.25-.34-.36.07-1.21-.49-1.15.04-.7-.56-1.83-.33-2.72.07.26.34.32.33.66.25.03.17-.27.25-.41-.24-.31-.56-.46-.91-.25-.19-.24.13-.61-.08-.91.21-.04.28-.45.49-.25.19-.43.33-.43-.08-.57-.21.3-.49.32-.66.49-.27-.45.29-1.55-.33-1.48.04-.7-.56-1.83-.33-2.72.08.26.34.32.33.66.25.03.17-.27.25-.41-.24-.3-.55-.46-.9-.25-.19-.24.13-.61-.08-.91.22-.04.28-.45.49-.25.18-.43.33-.43-.08-.57-.21.3-.49.32-.66.5-.22-.74.22-1.54-.49-1.81.33-.38-.07-.95-.41-1.16.07-.09.11-.22.08-.41-.08-.11-.22-.16-.25-.33-.21-.01-.25.13-.41.16.08.34.09.43-.16.57.03.33.25-.06.33.17.07.39-.59.72-.83,1.07h.11c-.17.35-.36,1.16-.44,1.73-.2.08-.17.03-.49.08.06.26.22.11.41.08.08.39-.33.28-.25.66-.26.09-.22.04-.41-.08.09.34,0,.62-.16.91-.24-.07.11-.21,0-.41-.66-.19-.21.73-.74.66l.16.33.09-.17c.41.66-1.13.73-1.24,1.4.07.24.12.09.33.08-.35.27-.85.3-1.24,0l-.17.08c-.09.26.13.2.17.33-.05.03-.95-.47-1.15-.82-.06-.26.22-.16.16-.41-.2-.08-.33-.21-.41-.41-.26-.04-.23.21-.33.33-.35.02-.44-.21-.82-.16l-.17-.41c-.13.12-.35.15-.41.33-.16-.29-.23-.03-.49,0-.26-.22-.43-.55-.08-.82-.05-.12-.39.16-.41.33-.27.05-.39-.05-.57-.08-.04-.2.15-.18.08-.41-.47-.1-.28.46-.5,0l-.08.25c.02.17.36.02.41.16-.24.56-.5-.23-.99.08.81-2.24,2.88-4.36,3.63-6.68.89-1.12,1.44-2.57,2.14-3.87l-.17-.17c.48.15.2-.81.74-.82.03-.14-.06-.16-.16-.17.01-.2.28-.02.33,0-.22-.22-.29-.54.16-.49-.09-.75.39-1.63.9-2.06-.33-.1.1-.56.17-.91h-.17c-.21-.02.12-.14,0-.33.15-.01.18.1.33.08l-.16-.08c.7-.76.74-2.92,2.14-2.23.18.05.12-.16.25-.16.41-.03.05.25.25.33.08-.09.07-.67.41-.74.02.26.06.49.33.5.24-.04-.13-.12-.17-.17.08-.17.25-.25.5-.25.01.15-.1.18-.08.33.36-.02.72-.05.66-.49.22.05.21.35.49.33-.28.2-.12.35-.33.66.25.27.54-.11.74-.17.04-.2-.15-.18-.08-.41.36.12.63.24.98.17l-.25-.08c.01-.29.27-.33.58-.33-.03.27-.24.37-.17.74.53-.07.71-.49.82-.99.09.32.15.67.49.74-.02.17-.36.02-.41.16,0,.22.03.47-.08.58.18.15.44-.11.74-.08.15.2.21.48.08.74-.22-.05-.2-.34-.49-.33-.15.2,0,.32-.08.66-.07-.13-.25-.63-.58-.41.02.72.75.74.74,1.48-.38-.09-.58.09-.99.08.08.39.46.1.66.25-.03.3-.13.4,0,.66-.42,0-.44-.38-.82-.41-.22-.06.06.39-.16.33.4.2.17.61.08.99.11.13.61.3.66,0-.06-.15-.39-.25-.41,0-.18-.18.13-.58.17-.82.27.2.17.76.66.74.15.36-.21.72.33.66.03.32.09.29-.08.49-.32-.14-.46-.48-.74-.66-.3-.06-.35.14-.66.08,0,.3.12.21.33.17.03.31.01.56-.25.58.11.33.17-.02.41,0,.02.3-.33.22-.33.49.12.36.19-.09.49,0,.2.22.25.59.58.66.18-.16.38-.87.25-1.32.24-.23.21.27.58.17-.12.41-.5,1.18.08,1.4-.41.33.31.42-.08.74.12.24.49-.18.66.08-.11.47-.19.97-.49,1.23.07.25.26-.05.41,0,.02.32-.45.41-.66.25.06.33.06.33,0,.66.37-.02.37-.39.82-.33-.02.26-.21.34-.33.5-.06.28.34.1.25.41.36-.12-.13-.22,0-.58h.33c.07.29-.19.4,0,.58.2-.31.66.09.66-.33.44.34.3.81.66,1.15-.23.05-.5.09-.74-.08-.05-.3.18-.32.16-.58l-.08-.16c-.57-.08-.64.35-.66.82h-.33c.09-.18.02-.53.25-.58-.4-.25-1,.21-.58.82.25.06.25-.14.5-.08v.41c-.51.04-.42.53-.08.66l.17-.09c0-.14-.06-.21-.17-.25.31-.36.61.21.82-.25l-.25-.08c-.02-.27.09-.4.33-.41.25.38.32.94.49,1.4.21-.43.26-1,.24-1.65.24.35.34,1.21,0,1.73.29.07.26.46.41.66-.16.15-.15-.05-.41,0-.12.02-.02.25-.16.25.81.7.78,2.01,1.4,2.88h-.25c-.16.44.35.2.25.58.18-.06.03-.46.08-.66.24.35.33,1.21,0,1.73.29.07.25.46.41.66-.16.15-.15-.05-.41,0-.12.02-.03.25-.17.25.65.71,1.08,1.73,1.15,3.21.32-.24.61-.63.99-.58,0-.14-.06-.21-.16-.25.06-.33.71-.06.66-.49.15.02.41-.08.33.17.38-.14-.17-.39-.08-.74.21.05.3-.03.25-.25.59.15.57-.31.66-.66l.08.33c.26-.07.28-.33.16-.57.76.25.69-1,1.32-1.15l.16.25c.34-.08.11-.5.66-.49-.07-.12-.26-.12-.41-.16.37-.29.61-1.31,1.16-.91.2-.14.02-.56.66-.41.03-.27-.36-.14-.49-.25.13-.29.73-.73.9-.25.11-.05.16-.18.17-.33.01-.18-.07-.26-.25-.25.42-.21.65-1.36.99-.9.23-.18-.08-.38.08-.58.43.11.36-.29.66-.33.35-1.36,1.62-1.79,2.15-2.97.19-.03.34-.1.49-.17-.14-.28.12-.49.33-.66.15,0,.17.1.33.08v.5c.16,0,.06-.27.25-.25-.3-.12-.13-.57.25-.5-.26-.3-.32.28-.66.16-.21-.34.22-.25.16-.66.47.12.83-.53,1.24-.74-.02-.17-.3-.07-.33-.25.04-.28.22-.44.41-.58v.49c.04-.08.42-.36.08-.33.07-.17.36-.13.49-.24.04-.2-.15-.18-.08-.41.22.08.51.18.41-.25.27.13.44-.43.49,0l.16-.16c-.88-.44.18-.77.08-1.57.48.13.91-.44,1.24-.74-.02-.17-.31-.07-.33-.25.05-.28.22-.44.41-.58v.5c.12-.26.45-.32.58-.58-.07-.21-.1-.44-.08-.74.4-.25.43-.75.99-.66-.02-.12-.26-.35-.38-.22.21-.32.77-.89,1.2-1.19-.26-.92.88-1.07,1.07-1.81.14.02.19.14.16.33.45.04.1-.48.25-.58.17-.04.22.06.33.08.06-.21.05-.71.58-.66v.74c.21-.28.31-.68.33-1.16h.33c.22-.74.83-1.08,1.48-1.4.19-.84.91-.96,1.57-1.16.18.01.04-.29.08-.41h.33c-.06.31.14.35.08.66.23.19.51.15.82.08.21-.34.46-.64.58-1.07.52-.08.58-.12,1.24-.08.44.82,1.23,1.3,1.48,2.31-.36-.08-.38.17-.58.25.06.17.22.22.41.25.12-.07.12-.26.16-.41.18.21.02.75.24.91.3.08.12-.32.17-.49.31.08.54.23.49.66.32.14.3.6.5.91.17.27.55.43.66.74v.41c.36.74.94,1.21.9,1.98,0,.26.25.35-.08.58.31.43.92.57,1.32.91-.2.03-.18-.15-.41-.08l-.16.16c.09.63,1.05,1.34.66,2.14.28.06.42.24.66.33-.08-.27.23-.68-.08-.99.06-.25.18.08.33,0,.06.31-.1.39-.08.66.18.09.26.28.33.49h.58c-.12.21-.28.38-.58.41.01.27.31.25.33.5-.64-.06-.76.88-.16.99.01.18-.29.04-.41.08-.15-.29-.27-.61-.49-.82-.28-.04-.25.25-.41.33.13.25.26.52.58.58-.07.28-.19.01-.33.16.01.16.28.05.33.17-.38.14-.17.5-.08.82-.25.08-.26.4-.58.41v-.33c-.24.03-.42.13-.58.25-.02.25.18.25.16.5-.22-.06-.17-.38-.41-.41-.32.05.06.32-.16.49-.17-.02-.17-.22-.25-.33-.04.26-.27.33-.41.49.18.36.24.72,0,.99-.13-.17-.03-.58-.49-.41-.21-.36-.26-.55-.41-.82-.33.36.23.87.41,1.15-.76.29-1.29-.27-1.82-.49.4.33-.12.56.33.82-.01.34-.39-.22-.66-.16.07-.38-.18-.43-.5-.41.14-.27-.39-.4,0-.41.01-.18-.29-.04-.41-.08.15-.3.03-.64-.08-.91l-.33.04c-.06-.49-.66-.73-.33-1.11-.79-.44-1.07-2.05-2.06-2.55l.16-.17c-.02-.17-.36-.02-.41-.17.04-.1.11-.17.25-.16-.16-.33-.73-.26-.83-.66-.61.52-1.24.53-1.73,1.07.13.3.4,0,.57.17-.09.18-.65.5-.66.08l-.25.25c-.06.26.23.16.16.41-.37-.01-.43.29-.82.24,0,1.22-.88,1.2-1.15,2.23l.17.08c-.11.44-.38.73-.83.82.23.08.23.72-.33.66.04.46-.13.69-.58.66-.05.73-.14,1.11-.25,2.06-.33.13-.03-.35-.25-.33-.25.11.15.37-.08.5-.44.09-.34-.35-.25-.58l-.17-.16c-.2.07-.22.33-.25.58,0,.31.32,0,.33.17.07.26-.27.11-.25.33.01.24.34.15.58.17-.32.35-.7,1.11-.41,1.56-.27.1.04.89-.66.74.27.16.16.68.5,1.07-.19.03-.09-.23-.25-.25-.1.16,0,.33-.08.66-.15-.01-.05-.28-.17-.33-.35.15-.09.78.17.82-.16.12-.42.13-.49.33.02.22.14-.11.33,0,0,.36-.24.48-.41.66.03-.32.09-.29-.08-.5-.12.5-.69,1.19-.5,1.48.23-.12.42-.29.42-.66h.57c.12.38-.58.53,0,.66-.2.18-.25.53-.49.66.1-.25.02-.28-.08-.49-.25,0-.54-.05-.5.24.04.19.43,0,.5.17-.36.44-.37,1.25,0,1.73-.27.32-.34.55-.25,1.07h.25c.21-.43.21-1.28.25-1.65.19-.03.31.01.41.08-.34.27-.28.69-.33,1.07l.33.08c-.11.46-.24.8-.25,1.16-.34-.01.06-.37-.16-.58-.19.02-.34.16-.5,0v.25c.07.12.26.12.41.16-.12.38-.5.49-.66.82.21.24.64.19.82.25-.05.36-.74.08-.74.49.1.13.41-.22.66,0,.03.19-.01.32-.08.41.08.39.95-.01,1.15.25-.17.44-.92-.09-1.07.25-.09.45.2.52.25.82.26.04.32-.18.49,0,.08.31-.17.27-.25.41l.25.08c-.21.57-.54.57-.66,1.15.31-.22.49-.16.58-.49-.02.55.49.75.66,1.32-.23.06-.16-.16-.33-.16-.2.15-.21.88,0,1.07.27,0,.28-.52.58-.25.01.18-.07.26-.25.25.01.21.12.32.33.33.19-.25.08-.9-.16-.99.03-.22.25-.25.25-.5.18.21.12.81.08,1.07.01.18.21.18.41.16-.19.57.31.88.66,1.15-.02.19-.36.05-.41,0l-.25.33c.44-.06.53.02.82-.16.19.11.41.2.41.49h-.49c-.05.38.2.45.25.74.25-.05.29-.31.66-.25.22.18-.25.27,0,.49.19-.17.27-.34.49-.08-.51.22.13.68-.33.91.09.04.42,0,.58.16l.08-.33c.4-.04.15.57.41.66.25-.19.59.08.74.25l.09-.33c.28,0,.47.07.41.41.35.08.42-.13.49-.33.2.05.38.12.66.08.06.31-.43.06-.33.41,0,.18.35.03.49.08.14-.07.15-.29.25-.41.2.05.18.31.25.49.22-.39.54.25.74-.16.39.31,1.35-.06,1.73.41,2.98.43,5.29-.42,7.66-.66.08-.32.79-.58,1.32-.58.12-.31-.37-.01-.25-.33.56.24.65-.36,1.15,0,.38-.26.49-.46.58-.82.3-.03.38-.28.74-.25.07-.26-.27-.11-.33-.24.07-.17.13-.37.25-.5.18.01.03.35.08.5.39-.09.51.02.91-.08.06-.25-.08-.3-.08-.5.54.44.98-.38.91-.82.52.15.4-.31.74-.33.18.42.6-.23.99.08.27-.19.14-.8.66-.74-.47-.87.77-1.12.99-1.81.15-.01.18.1.33.08.21-.53.49-1,.74-1.48.75.49.73-.88,1.48-.91-.13-.65.53-.51.58-.99.29-.02.16.39.49.33-.37-.42-.52-.81.08-1.07.17.05.27.18.41.25-.08-.31.59-.63.17-1.07.52-.64.9-1.41,1.56-1.89-.15.21-.34.38-.08.58.32-.26.13-2.1.82-1.15.22-.12-.3-.18-.17-.49.61.11.32-.87,1.07-.83.04-.64.63-.81.82-1.07-.13-.15-.49-.06-.57-.25-.03-.17.05-.22.08-.33-.63.24-.04-.79-.74-.66,0-.33.32-.34.49-.49-.22-.22-.54.16-.91.08-.02-.91-.49-1.37-1.07-1.73.08-.22.18-.51-.25-.41,0-.94-.82-1.04-1.07-1.73.46-.37-.41-.88.16-1.07-.07-.2-.58.02-.66-.16.08-.79-.43-.63-.41-1.24-.14-.01-.17.1-.33.08-.39-.47-.66-1.04-.91-1.65.27-.07.17.22.33.25.2-.34.16-.65.08-.99l-.49-.91c-.12-.08-.36.06-.25-.33-.27-.05-.25.16-.41,0,.1-.3.07-.56,0-.9l-.25.25c-.33-.32-.2-.76-.66-.82-.02-.27.32-.18.33-.41-.29-.29-.6-.55-.74-.99l.24.08c.05-.59-.4-.69-.57-1.07.12.09.2.09.25-.08-.53-.15-.67-.71-.91-1.16-.22,0-.47.03-.58-.08-.08-.72-.31-.76-.08-1.48.08.07.19.09.33.08l.08-.33c-.07-.12-.26-.12-.41-.17-.02.25-.52.03-.41.41-.07-.09-.3-.02-.25-.25-.12-.31.37-.02.25-.33-.07-.22-.29.15-.41-.08.06-.11.18-.15.33-.16-.2-.48-.17-.78-.25-1.15-.03-.14-.23-.23-.25-.33l.25-.25c.04-.27-.32-.31-.58-.5l.08-.16c-.21-.18-.38-.15-.58-.41l-.08.33c-.18-.18-.23-.48-.33-.74.12.26.54.22.74.41.19.03.1-.23.25-.25-.03-.27-.25.32-.33,0,.06-.35.49-.34.41-.82.78-.02-.19.71.33.9.3-.07.01-.2.08-.49.27-.05.3.14.33.33.31-.47-.5-.54-.41-1.07.17-.03.22.06.33.08.2-.13.04-.58,0-.74.26.1.2-.13.33-.17.23,0,.39.21.28.38M248.84,174.54c-.08.17-.29.42.08.41-.05-.12.1-.43-.08-.41M248.34,174.7c0,.28,0,.55.33.5-.01-.26-.06-.49-.33-.5M248.1,175.53c.03-.21-.03-.35-.25-.33-.02.21.03.36.25.33M247.44,176.52c.27-.06.45-.64.41-.74-.1.17-.49.06-.58.25.2.05.34.32.16.49M247.36,177.59c.14-.14.06-.48-.25-.41-.07.28.07.36.25.41M246.61,178.33c.28.06.52-.35.33-.49-.15.13-.44.11-.33.49M246.2,177.1c.27-.05.45-.21.41-.58-.37-.06-.64.29-.41.58M246.45,212.04c.26.13.26-.54,0-.41v.41ZM246.45,177.59l.16-.25c-.11-.02-.16-.12-.33-.08-.02.19.02.31.16.33M245.54,175.12c.12.13.47.12.41-.16l-.25-.08-.16.25M245.87,178c.07-.24-.22-.54-.33-.33.2.1-.32.42-.08.58.31.09.13-.31.41-.25M245.71,174.79c.02-.23.01-.45-.25-.41-.12.12,0,.43.25.41M244.8,173.88c.22.03.27-.11.25-.33h-.25v.33ZM244.88,179.32c.06-.28-.08-.36-.25-.41-.1.13-.26.32-.08.49.16.02.18-.09.33-.08M244.8,177.34c.02-.23.01-.45-.25-.41-.16.16-.08.5.25.41M244.63,176.44c.12-.18-.16-.51-.33-.66l-.16.25c.05.24.3.56.49.41M244.14,180.88c.3,0,.36-.24.33-.57l-.33.08c.22.07-.12.26,0,.49M244.31,206.27c0-.33-.29-.37-.33-.66-.26-.04-.32.12-.49.16.15.43.09,1.36.82,1.07-.21-.01-.14-.31-.25-.41-.15-.08-.27.25-.33,0,.01-.23.34-.15.58-.17M244.06,181.71c.03-.13.26-.07.16-.33h-.25l.08.33M244.06,207.75c.09-.51-.51-.32-.41.08.23.07.21-.12.41-.08M243.56,178.74c.3.24.43-.24.49-.49-.2.13-.43.22-.49.49M243.4,176.19h-.66c.07.15,0,.44.24.41.05-.23.39-.16.41-.41M243.32,175.94c-.04-.15.11-.49-.17-.41-.13.12-.12.47.17.41M243.48,174.54c-.03-.19-.06-.38-.33-.33-.06.26-.06.16,0,.41.15,0,.26-.02.33-.08M242.99,179.32c.1-.1.38-.43.16-.57-.18.23-.25.57-.41.82.19.06.39.13.57,0-.11-.08-.3-.08-.33-.25M242.82,177.1c.06-.28-.08-.36-.25-.41-.11.11-.14.5.08.5l.16-.08M242.82,215.41c.03-.31-.18-.38-.33-.49.05.23.16.39.33.49M242.74,179.07c-.26-.04-.37.07-.33.33.21-.01.32-.12.33-.33M242.57,184.68c.07-.23-.12-.21-.08-.41-.53.29-.85,1.24-1.07,1.56.2-.08.51-.08.74,0,.14-.43.2-.66-.25-.82.15-.34.39-.26.66-.33M242,177.26c-.22.1-.38.52.08.49-.06-.27.03-.62-.08-.49M242,181.63v-.33h-.33c.01.21.12.32.33.33M241.75,186.65c-.48.13-.34-.37-.49-.58-.06.41-.26.3-.41.5.19-.02.31.02.33.16-.03.19-.25.18-.33.33.36-.09.27,0,.58.08-.07-.32.29-.13.33-.5M241.5,177.34l-.24-.08-.17.25c.27-.01.4.19.41-.16M241.42,187.56h-.25c-.11.11-.16.57.08.57.18-.23.11-.21.16-.57M240.93,203.46c-.06.26.32.5.41.33-.17-.08-.13-.36-.41-.33M241.17,178c-.04-.16-.03-.35-.25-.33-.03.16-.24.15-.17.41.2.02.32-.01.41-.08M240.76,177.34c.19.02.31-.02.33-.16-.11-.02-.16-.12-.33-.08v.25ZM241.17,185.34c-.07-.26-.2-.45-.41-.58.07.27.19.47.41.58M240.76,180.8c.12-.3.07-.88-.33-.91.1.25-.14.85.33.91M240.52,213.36c.38.16.3-.52.08-.5.06.25-.09.3-.08.5M240.19,187.31c.12-.05.42.09.41-.08-.19-.02-.05-.39-.33-.33.04.2-.15.18-.08.41M240.35,179.49c.03-.31.04-.6.25-.91-.41-.37-1.48.12-1.15.74-.19-.02-.32.02-.41.08-.04.2.15.18.08.41.25,0,.43-.3.66-.08.04-.12-.1-.43.08-.42.19.18.38-.12.5.17M240.27,181.46c.08-.11.22-.16.25-.33-.2-.15-.47-.21-.66,0,.23.02.23.27.41.33M240.1,181.79v-.25c-.14,0-.26.02-.33.09-.08.24.18.15.33.16M239.94,205.44c-.23.04-.08-.3-.24-.33-.07.1-.11.23-.08.41l.33-.08M239.77,204.79c.11-.13,0-.54-.33-.5-.03.31.06.48.33.5M239.44,189.54c-.22-.61.31-1.01.16-1.65h-.25c.03.5-.07.86-.24,1.15.07.2.07.48.33.5M239.44,182.29c-.2-.11-.26.33-.33.08.02-.32.47-.47,0-.66.02.22-.17.21-.33.25.1.61.14.93.33,1.32.11-.32.23-.65.33-.99M239.36,200.25c.05-.29-.06-.42-.24-.5-.15.16-.02.51.24.5M239.2,186.08c.06.23-.16.17-.16.33.3.13.38-.62.08-.58l.08.25M238.95,189.95c-.22-.37.18-.97-.08-1.15-.13.26-.2.72-.58.49-.16.21.07.33-.08.58.32.13.51-.04.74.08M239.03,181.05c-.2-.5-.07-.96-.58-1.24-.22.31-.02,1.17.33,1.4l.25-.17M238.54,182.04c.03-.31-.38-.42-.5-.33.05.23.23.33.5.33M238.62,190.36c-.34-.25-.56.18-.74.33.18.03,0,.44.16.49.2.03.32-.01.41-.08-.03-.38-.16-.6.17-.74M238.45,192.42c.02-.21-.11-.27-.33-.25-.02.34.1.33.33.25M238.04,205.11v-.33h-.25c-.03.21-.03.41.25.33M236.48,188.96c.34.09.43-.47.17-.49-.07.15-.14.3-.17.49M236.23,191.18c-.15-.27.43-.72.08-.9-.19.12-.41.78-.08.9M235.82,185.83c.03-.11.12-.16.09-.33h-.25c-.02.19.02.31.16.33M234.83,193.33c.02-.19-.02-.31-.17-.33-.02.11-.12.16-.08.33h.25ZM232.69,191.18c.39.14.46-.47.08-.41-.07.1-.11.22-.08.41M230.96,191.93l.08-.25c-.21-.04-.29-.2-.41-.33-.16.3.03.53.33.58M230.71,187.81c.02-.22-.17-.21-.33-.25-.02.11-.12.16-.08.33.2.03.18-.15.41-.08M230.79,201.65c-.22-.23-.34.07-.58.08.01-.2.01-.4-.16-.41-.04.16-.18.21-.17.41.16.04.35.03.33.25.31,0,.56-.03.58-.33M230.38,182.78c-.03-.15.12-.5-.16-.41-.13.12,0,.34.16.41M229.97,190.44c.05.2.07.43.33.41,0-.24-.19-.31-.33-.41M230.21,185.01c.03-.36-.11-.54-.33-.66-.14.18-.04.65.17.75l.16-.08M229.97,196.13c0-.27-.11-.43-.25-.57.03.25-.01.56.25.57M229.39,204.79c.05-.49.35.03.5-.17-.14-.02-.19-.14-.17-.33-.3.39-.47-.07-.74.25.14.07.24.2.41.25M229.8,182.53v-.41h-.25c-.02.24,0,.45.25.41M229.47,181.79c.12-.31-.09-.89-.33-.66.3.05-.11.62.33.66M229.31,191.35c.04-.26-.07-.37-.33-.33v.33h.33ZM229.14,191.93c.07-.1.11-.22.09-.41-.15,0-.26.02-.33.08-.01.21.13.26.25.33M228.81,205.11c-.07-.29.12-.32.08-.58-.57-.03-1.62.87-.83,1.15.12-.17-.29-.55.17-.66.11.11.36.08.58.08M228.81,187.15c.04-.21-.3-.47-.41-.25.15.08.11.34.41.25M228.32,183.69c.27-.01.78-.5.25-.58.03.31-.33.22-.25.58M228.32,180.8c.01-.18-.07-.26-.25-.25.02.16-.09.18-.08.33.16.02.18-.09.33-.08M227.74,183.19c-.04.3.53.5.49.09-.25.06-.3-.09-.49-.09M227.58,206.27c-.07.29.27.14.25,0-.23-.01-.23-.27-.41-.33l.08.41.09-.08M227.58,198.85c.07-.14.23-.21.16-.49-.33-.09-.48.43-.16.49M227.49,190.94c.01-.42-.16-.66-.49-.74.15.26.07.75.49.74M227.41,182.04c.08,0,.04-.58-.25-.5.11.14-.03.53.25.5M226.09,206.93c.26.94.63-.3,1.15,0-.26-.73-.7.39-1.15,0M226.67,199.51c.02-.21-.11-.27-.33-.25-.08.27.11.27.33.25M226.34,180.23c.15-.14-.02-.25-.17-.33-.13.12-.09.37.17.33M226.09,202.73c.22.03.27-.12.25-.33h-.25v.33ZM226.01,200.99l.25-.25c-.05-.28-.27-.38-.25-.74h-.25c.02.54.06.75.25.99M225.27,208.33c.27.06.3-.14.33-.33-.11,0-.11-.1-.25-.08.04.2-.15.18-.08.41M224.2,209.23c-.13.38.43.29.33,0h-.33ZM223.95,171.99c-.04-.26.19-.34-.08-.41l-.17.08c-.01.21.18.2.25.33M224.03,179.07c-.29-.17-.06-.33,0-.58-.11,0-.12-.1-.25-.08.2.58-.39.38-.33.83.21.08.47.06.58-.17M223.62,202.48c.32.05.36-.18.41-.41-.24.04-.37.18-.41.41M223.05,173.72c-.04.26.07.37.33.33,0-.21-.12-.32-.33-.33M223.29,203.71c-.24-.01.07-.56-.16-.58-.11.27-.28.83.16.58M223.05,179.65c.44.02.27-.81-.16-.66-.06.33.26.29.16.66M222.71,206.43c.18-.1.67-.46.33-.58-.13.18-.34.27-.33.58M222.55,210.97c.12.13.47.12.41-.17-.2-.01-.4-.01-.41.17M222.06,171.49c.21.02.4.42.49.08-.09-.06-.38-.32-.49-.08M222.22,210.72c.36.07.29-.53,0-.49v.49ZM221.73,181.13c.02-.21-.12-.27-.33-.25-.07.3.17.41.33.25M220.74,172.81c-.07.27.14.67.33.41-.19-.06-.02-.47-.33-.41M220.33,206.68c.24-.28-.13-.48-.25-.66-.11.25.06.49.25.66M220.33,206.93c-.17-.09-.32.05-.49-.16-.01.23-.35.14-.33.41.25-.11.73.02.82-.25M219.99,171.74l.08-.17c0-.25-.15-.35-.33-.41-.13.26.06.42.24.58M219.75,178c.02-.13.32-.39.08-.5-.34-.13-.8.46-.08.5M219.5,173.22c.21.01.4.02.41-.17l-.33-.16c-.03.11-.12.16-.08.33M219.58,174.62c.02-.23-.02-.42-.16-.49-.03.16-.24.15-.17.41.16-.02.18.09.33.08M219.42,172.73c.3,0,.57-.04.57-.33-.23.07-.49.11-.57.33M219.5,211.62c.02-.23.01-.45-.25-.41-.02.12-.12.16-.08.33.14,0,.26.02.33.08M219.5,208.58c-.05-.12.09-.43-.08-.41-.02.16-.22.16-.25.33.11.03.16.12.33.08M218.51,208.33c-.04-.31.16-.38.25-.58-.15-.07-.21-.23-.49-.16.23.25-.24.72.25.74M217.36,208.66c.36.46.75-.35.25-.49-.1.15-.06.43-.25.49M216.61,210.14c-.14.02-.49-.3-.33-.08.23.18-.03.57-.08.74.2-.04.18.15.41.08-.02-.38-.09-.4,0-.74M216.2,209.56c.3.13.46-.3.25-.41.04.26-.22.22-.25.41M213.98,210.97c.3.12.46-.3.25-.41.04.26-.22.22-.25.41M210.19,182.62c.19.02.31-.02.33-.16-.11-.03-.16-.12-.33-.08v.25ZM210.27,184.43c.09-.39-.26-.35-.16-.74l-.5-.17c.1-.1.08-.57-.16-.57-.02.44.08.49,0,.82.37.12.49.5.82.66M208.95,183.52c-.11.37.26,1.01.58.91-.14-.35-.27-.72-.58-.91M208.87,185.34h.33c-.02-.54-.84-.72-.99-.25.26.04.32-.12.5-.16l.16.41M209.12,184.84c0-.25.05-.54-.25-.5-.18.19-.03.52.25.5M207.8,179.9c-.01.24,0,.45.25.41-.08-.14,0-.44-.25-.41M207.96,182.21c.18-.18.03-.45-.17-.5-.12.13-.14.57.17.5M207.3,185.5c.39.08.52-.52.41-.66-.12.23-.36.35-.41.66M207.72,175.36c-.01-.26-.18-.36-.49-.33.02.26.29.26.49.33M207.06,186.57c.02-.32-.03-.57-.41-.5.02.28.1.5.41.5M206.81,184.18l-.08-.25c0,.23-.39.2-.49.08.02.4.33.3.58.16M205.82,174.38c0-.31-.03-.57-.16-.74-.04.2,0,.64.16.74M205.32,172.23c.01-.3.12-.21.33-.16-.21-.18-.56-.55-.82-.41.19.17.35.37.49.58M204.01,170.58c.02-.22-.11-.27-.33-.25-.03.22.11.27.33.25M201.21,212.61c-.15,0-.26-.02-.33-.09v.33h.17l.16-.25M198.57,173.3c-.05.34.32.55.49.41-.1-.2-.17-.43-.49-.41M198.07,215.58c.11-.26.39.18.41-.16l-.16-.17c-.07.31-.31.04-.41-.08-.01.2-.01.4.16.41M198.16,173.96c.37.04.27-.43,0-.41v.41ZM197.83,183.19c.2-.03.39-.05.33-.33-.26-.04-.23.21-.33.33M196.59,185.99c-.12-.13-.42-.07-.66-.08.02.44.07.49,0,.9h.33c.07-.26-.13-.25-.16-.41.15-.15.38-.22.49-.41M195.68,184.76c-.03.39,0,.71.41.66-.02-.33-.06-.63-.09-.74-.01.12-.2.08-.33.08M195.85,208.08c-.05-.33.22-.33.16-.66-.1,0-.11-.1-.25-.08-.05.3-.14.55.08.74M195.11,207.75h.33c-.07-.26.13-.26.17-.41-.25.06-.5.11-.49.41M195.11,208.66c0,.22-.07.52.25.41,0-.21-.02-.42-.25-.41M195.03,209.07c-.14,0-.26-.02-.33-.08v.33h.16l.17-.25M194.78,208.25c-.17.05-.57-.13-.49.16.22,0,.48.05.49-.16M194.12,191.6c.49-.19.52-1.29.66-1.56-.11.17-.13.42-.41.41.02.37.14.79-.33.82-.02.16.09.18.08.33M194.53,212.61c.25-.32-.29-.39-.5-.5.04.12-.09.43.08.41l.25-.08c.01.1.02.19.16.16M194.53,207.67c-.05-.14.1-.49-.08-.49-.11.11-.15.49.08.49M194.7,208.74c-.1-.09-.29-.09-.5-.08-.12.42.46.24.5.08M194.04,192.75c.05-.32-.12-.42-.25-.58-.14.39-.31-.04-.58,0-.03.56.59.67.25,1.07.26-.09.2.13.33.16.12-.23-.09-.53.25-.66M193.71,207.51c-.1-.33,0-.87-.33-.99-.21.42.05.82.33.99M193.38,194.98c.02-.19-.02-.31-.17-.33-.05.05-.19.39,0,.41l.17-.08M193.29,197.29v-.33h-.25c.05.22-.04.3-.25.25-.06.25.14.24.08.5-.25,0-.54-.05-.5.24.42-.05.63.07.74-.16-.18-.01-.18-.21-.16-.41.11-.02.16-.12.33-.08M193.21,203.22h-.33c-.02.19.02.31.17.33l.16-.33M192.97,204.87c-.11-.38.22-.76-.08-1.07-.16.47-.44.8.08,1.07M192.64,195.72l.08.08c-.11-.35.07-.63-.16-.74-.16.45-.31.51-.33.99.35.1.22-.27.41-.33M192.64,201.08l-.08-.33v.16c-.15.02-.18-.09-.33-.08.09.32-.29.29-.08.49.36.11.17-.32.49-.25M192.47,203.79c.36-.04.3-.8.08-.99-.09.26-.36.36-.41.66.1.12.44,0,.33.33M191.89,202.23c.39.11.28-.27.66-.17-.05-.27-.24-.28-.08-.58-.22.08-.42.09-.58-.08-.11-.35.36-.55,0-.66-.02.2-.28.15-.25.41.2.39.38.51.25,1.07M192.22,200.58l.25-.08c-.29-.34.38-1.17-.25-.91.17.28-.01.85,0,.99M192.22,202.89c.03-.19-.01-.31-.08-.41-.57-.02-.63-.04-1.08.08v.33c.25-.21.41.14.5,0-.22-.07.18-.2.25-.25.2.03.16.29.41.25M192.14,197.29c0-.23-.2-.24-.41-.25-.01.25.29.37.41.25M191.81,181.79c-.56-.13.35-.49.16-.5-.26.05-.35.25-.57.33.36-.12,0,.49.24.49-.06-.22.16-.16.16-.33M191.65,204.54c.04-.26-.1-.34-.24-.41,0,.22-.08.52.24.41M191.48,203.63c-.08-.14,0-.44-.25-.41-.03.11-.12.16-.08.33.14,0,.26.02.33.08M190.58,194.89c.31-.1.78-.05.74-.49-.36,0-.57.14-.74.49M190.91,197.78l.16-.25c-.11-.02-.15-.12-.33-.08-.02.19.02.31.16.33M190.58,199.34c.02-.19.28-.15.25-.41-.17,0-.47.29-.25.41M190.74,203.05c.19-.39-.13-.9-.41-.5.24.07.05.55.41.5M190.41,199.68c.22.02.36-.03.33-.25-.22-.02-.35.03-.33.25M190.58,206.27c.22.03.21-.17.25-.33l-.25-.16c.08.24.08.25,0,.49M190.08,198.11c0-.23-.2-.24-.41-.25-.01.26.29.37.41.25M189.09,207.26c.1-.14.07-.68-.25-.66,0,.29.04.57.25.66M188.93,207.92c.14,0,.26-.02.33-.08,0-.21-.12-.32-.33-.33v.41M187.69,187.31c-.1-.26.27-.06.16-.33l-.25-.08.08.41M186.87,189.54c.03-.11.11-.17.25-.16-.07-.21-.11-.44-.41-.41.1.15.01.48.16.58M186.54,188.55c-.1-.26.27-.06.17-.33l-.25-.09.08.41M185.96,190.94c.2-.19.13-.26.08-.58h-.25c.1.15.01.48.17.58M182.91,197.2c.35-.07.1-.57.25-.66-.27.04-.2.41-.25.66M182.75,193.41c-.1-.26.27-.06.16-.33l-.25-.08.08.41M182.25,195.39c.35.09.74-.31.41-.41-.04.24-.35.19-.41.41M181.84,223.33c.34.02.41-.52.25-.74-.47.01-.64.74-.99.16-.03.19.01.32.08.41.38.08.28-.33.66-.25.05.26-.15.26,0,.41M181.92,223.82c.03-.11.12-.16.08-.33-.11-.02-.16-.12-.33-.08-.02.24-.01.45.25.41M181.84,225.06c-.07-.39.13-.53.08-.91-.4.05-.5.13-.58-.25-.58.04-.41.15-.9,0,.27.55.43,1.22.66,1.81-.19.03-.09-.23-.25-.25-.13.26.05.36.08.66.26.08.17-.21.33-.25.08.09.31.03.25.25-.45.13-.52.64-.91.83.05.23.23.32.49.33-.02-.19-.17-.35.08-.41.08.14.26.25.41.08.06-.38-.31-.11-.33-.25.36-.2.56-1.02.25-1.4.16-.03.07-.32.33-.25M181.68,195.8c-.07.25.08.67.25.41-.26-.08.04-.28.08-.33-.11-.02-.16-.12-.33-.08M181.18,231.16c.33.19.36-.51.08-.41.03.2-.15.18-.08.41M180.85,232.72c-.05-.17.11-.54-.08-.58-.11.22-.35.31-.41.58.46.11-.42.98.33.91-.02-.28.06-.67-.08-.82l.25-.08M180.69,232.06c.38-.46.41-1.57.08-2.14-.13.21.06.56-.16.82h-.33c.04-.34,0-.61-.25-.66.34-.12-.05-.44.08-.5-.01.14.54.17.41-.08-.38.08-.49-.11-.74-.16.03.97.07,1.86.17,2.47.4.12.17-.38.49-.33.13.14.04.51.25.58M180.69,217.72c.35.06.28-.44,0-.41v.41ZM180.69,218.88l.08-.25c-.22-.23-.2-.07-.49,0-.12-.37.05-.37.17-.66-.26.04-.19-.25-.49-.16-.04.83.09,1.35-.17,2.06.16.15.15-.05.41,0-.03-.31-.12-.32.16-.41.07-.26-.13-.25-.16-.41.15-.07.21-.23.49-.17M180.69,221.84c-.05-.15.1-.49-.08-.5-.16.16-.41.5.08.5M180.36,223.33c.18.03.45-.25.25-.33-.05.25-.44.16-.5.41.06.17.41.42.5.08-.13,0-.29.01-.25-.16M180.19,236.59c.3-.83.42-2.13.41-2.8h-.25c-.13.45-.27,1.05,0,1.32-.29.35-.37,1.23-.16,1.48M180.52,220.69c.18-.2-.11-.44-.16-.66-.01.11-.26.64.16.66M180.44,225.8c.14-.34.03-.89-.25-1.07.08.26-.44.33-.16.5.27-.27.09.63.41.58M180.27,215.83c.04-.53-.32-.16-.58-.33,0,.31.32.28.58.33M180.19,237.34c-.05-.17.1-.54-.08-.58-.16.11-.21.51.08.58M180.11,215.99c-.37-.06-.52.08-.49.41.41.11.4-.21.49-.41M180.03,215.25c.02-.49-.64-.29-.99-.41-.2.21-.22.7.25.66.27-.16-.2-.35,0-.41.34-.04.5.36.74.16M179.78,233.54c.45-.1.51-1.13.17-1.31-.1.22-.43,0-.58,0-.11.15-.28.5,0,.57.26-.11-.18-.39.17-.41.25.03.5.05.57.25-.1.06-.22.11-.41.08.02.28-.06.67.08.82M179.37,235.61c.36-.16.46.36.58.16-.15-.43-.13-.76-.25-1.07h-.33c.12.41-.18.44,0,.91M179.86,224.89c.22-.24-.23-.32-.41-.41.03.26.37.18.41.41M179.61,237.34c.06-.13.26-.12.25-.33-.15.02-.18-.09-.33-.08-.05.37-.44-.12-.5.25.2.06.36-.01.58.16M179.78,233.71c-.43-.04-.12.65-.41.74.16.07.3.14.49.16-.17-.32-.3-.48-.08-.91M179.7,225.38c-.01-.15-.05-.27-.16-.33-.18.24-.56.27-.66.58.47.02.36-.47.82-.25M179.2,230.25c.18.18.07,1.08.41.82-.35-.25.11-.54-.08-.9-.15-.01-.26.02-.33.08M179.53,213.6c.12.29-.23.53,0,.66,0-.3.2-.4.25-.66-.11-.08-.78-.16-.49.08l.25-.08M179.12,229.26c-.01-.23.54.1.41-.25-.13-.27-.76.05-.41.25M179.45,228.27c-.04-.26.15-.29.08-.58h-.25c.01.23-.07.56.16.58M179.37,236.43c.15-.08.18-.26.17-.49-.97-.07-.6.21-.17.49M178.87,198.77c.35.08.74-.31.41-.41-.04.24-.35.2-.41.41M179.2,214.67c-.07-.23.12-.21.08-.41.02-.19-.24-.09-.25-.25.01-.1.15-.19,0-.25-.12.18-.09.52-.33.58.03-.19-.24-.09-.25-.25.1-.11.11-.31-.08-.33l-.25.09c-.06.39.12.54.25.74.36-.06.46.14.82.08M179.12,224.89c.49,0,.08-.56-.08-.16l.08.16M178.96,212.86c.26.01.28-.21.33-.41-.16-.08-.48-.34-.58,0,.15.08.29.15.25.41M178.96,211.96c.01-.21-.13-.26-.25-.33-.12.19-.17.15-.08.41.16.02.19-.09.33-.08M178.96,225.96h-.25c.13.41-.29.26-.25.58.4.05.35-.36.49-.58M179.04,235.52c-.11-.19.01-.61-.33-.58-.11.15.1.51.33.58M178.79,232.47c-.27.07-.12-.27-.33-.24-.16.14-.03.57-.33.57.23-.26-.28-.27-.33-.5.05-.2.12-.37.08-.66-.68-.07-.03.79-.66.66v.33c.2.03.18-.15.41-.09.11.32-.04.43.08.66.38.06.11-.32.25-.33.14.23.22.08.5.08-.03.19,0,.32.08.41.24.02.42-.02.49-.16-.19-.18-.39-.45-.24-.74M178.71,229.09c.11-.24,0-.4-.16-.57-.12.13-.17.65.16.57M178.71,209.56v-.33c-.52-.14-.49.44,0,.33M178.21,234.04c.36-.06.55.07.58-.41-.1-.09-.29-.09-.5-.08,0,.2-.14.25-.08.49M178.71,238.73c-.03-.17-.14-.67-.33-.41.12.02.07.2.08.33-.32-.12-.16.23-.41.16-.2.04.04-.37-.25-.25-.24.07.05.27,0,.41.19.11.31-.21.33,0,.09.33-.25.41-.41.25.04.28.53.39.74.25-.12-.36-.27-.68.25-.74M178.38,229.18c.01-.42-.46-.49-.58-.17.37-.1.34.39.58.17M178.21,209.15c.23.06.16-.16.33-.16,0-.21-.12-.32-.33-.33v.49ZM178.13,238.49c-.07-.23.12-.21.08-.41-.25.06-.3-.08-.49-.08.03.2-.15.18-.08.41.16.02.18-.09.33-.08.01.1.03.2.16.17M178.21,197.61c-.61-.05-.66.44-.74.91h.33c-.05-.33.12-.7.41-.91M177.72,211.21c.26-.06.72-.54.41-.66.03.39-.48.23-.41.66M177.88,215.41c.28.11.34-.42.16-.49-.05.17-.21.24-.16.49M178.05,237.75v-.49c-.32.11-.52-.13-.58.16.25-.11.17.38.58.33M177.55,234.86c.16.15.51.02.5-.25-.29-.04-.43.07-.5.25M177.72,231.48v-.58c-.28.07-.28-.13-.17-.25-.15.02-.18-.09-.33-.08-.24.41.19.77.49.91M177.64,217.97c-.56.01-.12-.52-.58-.66.03.33-.23.38-.33.58.11.34.54.78.91.58-.26-.01-.49-.06-.49-.33.22,0,.48.05.49-.16M177.55,209.48c-.12,1.49.53-.56-.16-.58-.01.1-.02.19-.16.16-.02.27.32.18.33.41M177.47,236.35c.14-.13.24-.38-.08-.41.05.12-.09.43.08.41M177.06,220.61c.24-.12.44-.28.41-.66-.2-.03-.18.15-.41.08.07.3-.19.4,0,.58M177.14,212.12c-.04-.31.38-.17.25-.58-.28-.01-.61.45-.25.58M176.81,207.01c.26-.1.46.25.58,0-.14-.18-.41-.19-.58,0M176.73,225.06h.41c-.14-.4-.14-.96-.41-1.24-.06.52.01.78,0,1.24M176.98,238.9c.41.01.34-.45.08-.58-.06.18-.2.46-.08.58M177.06,208.91v-.17c-.22.06-.16-.16-.33-.16-.04.2.15.18.08.41l.25-.08M176.9,213.68c.63.14.23-.88-.08-.49.23.14.08.21.08.49M177.23,218.79c-.26-.11-.28-.02-.58,0,0,.22.03.47-.08.58.31-.11.59-.23.66-.58M176.9,226.05h.16c-.03-.22-.26-.23-.16-.58-.3-.06-.2.62,0,.58M176.65,236.59c-.02-.32.3-.3.25-.66-.11,0-.11-.1-.25-.08-.1.11-.16.65,0,.74M176.65,230.99c-.15-.02-.18.09-.33.08.04.21.15.34.25.5-.05-.27.05-.38.08-.58M175.99,215c.25,0,.5.01.5-.25-.25,0-.42.08-.5.25M176.32,228.93c.49.11.36-.55,0-.5.07.29-.15.35,0,.5M176.15,218.71c.2-.06.54-.73.17-.82.1.25-.32.58-.17.82M176.07,224.48l.17-.16c-.03-.16-.03-.35-.25-.33-.04.18-.19.44.08.49M176.07,211.79c.03-.22-.03-.36-.25-.33l-.08.08c-.03.22.11.27.33.25M175.99,195.64h-.25c-.11.33-.18.7-.25,1.07.27-.04.18-.42.49-.41-.06-.33-.06-.33,0-.66M176.48,229.92c-.43-.14-.78-.69-.41-1.16-.53-.36.23-1.52-.41-1.81.02.53-.08.56-.16,1.23l.33.09c-.04.23-.53.02-.41.41.07.16.29-.25.41.08-.47.52-.2,1.28-.17,1.89.25-.27.53-.52.82-.74M175.49,234.12c-.09-.47.38-.39.25-.9-.2-.04-.18.15-.41.08l-.08-.08c-.11.38-.14.34-.16.74.16.14.1,0,.33,0l.08.16M175.83,232.72c-.15-.46.01-.73-.25-1.07-.05.56-.1.74-.33,1.24.28.03.51.02.58-.16M175.66,224.97c.09-.34.02-.36,0-.74-.36-.11-.26.23-.41.33-.02-.07-.16-.42-.24-.17.1.03.17.11.16.25-.48.05-.46.72-.58.91.01-.18-.29-.04-.41-.08-.05-.19-.12-.37-.09-.66.11.1.31.11.33-.09-.35.08-.23-.32-.41-.41.39-.13.29-.76.74-.82-.46-.06-.27-.71-.33-.91.31-.08.13.31.41.25.08-.46-.18-.59-.33-.82-.25-.11-.45.25-.57,0,.12-.13.43-.07.41-.33-.13-.58-.27-1.16-.66-1.48.3.03.08-.47.5-.33.14.27-.4.4,0,.41.39,0,.43-.82.16-.99-.04.27-.69.14-.66-.16,0-.25.29-.19.25-.49-.51.12-.45-.98-.25-1.4-.5-.7-.43-1.87-.25-3.13-.42-.08-.58-.15-.58-.49-2.69,3.37-4.74,7.39-6.43,11.95-.04.26.15.29.08.57-.37,0-.41.36-.33.58-.14,0-.26.02-.33.08,0,.28.16.43-.08.58-.2.04-.18-.15-.41-.08-.07.23.12.22.08.41.33.08.25-.24.58-.17-.16,1.28-.11,3.92-.25,5.52l.17-.08c-.05.47.15.68.17,1.07l-.25.08c-.2-.05-.12-.37-.33-.41-.19.34.13.48.24.74.2.03.18-.15.41-.08-.05.85.88,2.03.49,2.97.19-.02.31.02.33.16.24.77.51,1.35.78,1.94l.05.12.16.34c.04-.14-.07-.25-.16-.34l-.05-.12.04-.04c.21.12.47.19.5.5l-.25.08c.42.18-.17.37.08.66.32-.05.09-.63.58-.5l.09.17c-.01.16-.27.06-.25.25.49.33,1.05.59,1.4,1.07h-.41c.15.24.17.32.08.66.49.13.64.56.66.74-.05-.42.68-.09.82-.58-.24-.17-.7-.13-.74-.49.32.12.62.27.91.41.09-.29.28-.49.58-.57.2-1.09.88-1.7,1.4-2.48-.03-.49.05-1.38.58-1.56-.37-.36.06-.49.16-.82-.42-.33.06-1.07-.08-1.9.58-.27.23-1.71.16-2.22.22,0,.49.05.5-.16-.12-.05-.43.09-.41-.09.38-.25.23-.3.16-.82l.41-.16c-.07-.65.05-.8-.08-1.24-.04.16-.03.36-.25.33-.29-.18-.04-1.02.33-1.07-.26.04-.23-.2-.33-.33.2-.23.36-.13.58,0-.07-.38-.68-.4-.25-.82-.17-.21-.53-.23-.58-.58l.16-.16c-.02.18.07.26.25.25.05-.3.19-.78,0-.82-.32-.05-.07.48-.33.49-.04-.36.13-.95-.17-1.07.22-.2.41.08.74,0-.17-.3-.13-.19.17-.33-.14-.88-.09-1.56.66-1.24M176.15,236.1c-.04-.31-.38-.34-.58-.49-.04.4.24.48.58.49M175.49,234.95c.17-.05-.12-.31-.08-.49-.34.13-.51.05-.66.25.49-.16.47.04.74.25M175.41,195.72c.13-.22-.15-.63-.49-.66.04.35.44.33.49.66M175.33,242.69c.18-.24-.08-.74-.25-.9.05.2-.06.68.25.9M175.25,192.92c.07-.1.11-.22.08-.41-.17-.05-.27-.17-.41-.25.02.16-.09.18-.08.33.35-.11.26.23.41.33M175,194.4c.26.04.36-.07.33-.33h-.33v.33ZM175,220.11c.33.06.24-.31.24-.58-.4-.13-.39.41-.24.58M174.75,220.61c-.15.4.53.3.41,0h-.41ZM175,235.44c.26.12.39-.47.08-.41-.07.1-.11.22-.08.41M175,222.17c.1-.23.07-.54-.17-.66.05.3-.28.65.17.66M174.92,196.3c-.11-.21.24-.34,0-.42-.17.27-.11-.37-.33-.33.08.23.08.34,0,.57.16,0,.11.23.33.17M174.92,217.15c.06-.33-.17-.38-.25-.58,0,.14-.46.24-.17.41.11-.23.21.22.41.16M174.92,193.58c-.11.01-.31-.28-.33-.08.24.07-.11.21,0,.41.26.04.23-.21.33-.33M174.67,215.66c.03-.1.11-.17.25-.16-.07-.21-.11-.44-.41-.41.1.15.02.48.17.58M174.83,234.2c.13-.12.12-.47-.16-.41-.01.21-.01.4.16.41M174.67,190.2h-.25c-.11.33-.18.7-.25,1.07.43-.29.48-.42.49-1.07M174.67,197.37c-.13-.29.16-.64-.25-.74-.02.15-.14.19-.33.17.12.27.47.3.58.57M174.5,218.05c.62.05.24-.82-.08-.82.1.39-.06.54.08.82M174.59,221.1c0-.15.02-.26.08-.33-.17,0-.11-.22-.33-.16,0,.25.07.42.25.5M174.34,214.67c-.11-.27.27-.06.16-.33l-.24-.08.08.41M174.5,218.79c-.3-.03-.34.21-.41.41.24-.03.38-.17.41-.41M174.42,244.09c.03-.27-.22-.43-.41-.25-.01.26.29.37.41.25M174.42,193.16c-.27.11-.06-.26-.33-.16-.14.08-.18.26-.25.41.22-.05.42-.13.58-.25M174.26,237.91l.16-.16c-.04-.16-.03-.35-.25-.33-.06.21-.12.38.08.49M174.18,192.26c-.15-.29.28-.42.08-.49-.06.22-.39-.18-.41.16.28-.06.14.3.33.33M174.18,218.55c-.07-.23.12-.21.08-.41-.21.01-.26-.13-.41-.16l-.16.33c.18.08.24.25.5.25M174.26,238.65v-.41h-.25c-.01.24,0,.45.25.41M174.26,217.89v-.33c-.32-.06-.32.4,0,.33M174.09,190.28c.13-.23-.15-.64-.49-.66.04.35.44.33.49.66M174.09,239.48c.03-.21-.03-.35-.25-.33v.33h.25ZM173.68,188.96c.26.04.37-.07.33-.33h-.33v.33ZM173.68,216.98c.33.06.58-.48.25-.58-.1.18-.35.2-.25.58M173.6,190.86c-.1-.2.24-.34,0-.41-.17.27-.11-.37-.33-.33.08.23.08.34,0,.58.16,0,.1.23.33.16M173.6,188.14c-.11.01-.3-.27-.33-.08.24.07-.11.21,0,.41.26.04.23-.21.33-.33M173.18,196.87c-.04-.37,0-.61.33-.41-.16-.33-.52-.48-.66-.82-.15.38.1.98.33,1.23M173.18,240.72c.33.19.37-.5.08-.41.04.2-.15.18-.08.41M173.35,191.93c-.02-.34-.07-.5,0-.74-.33-.08-.25.25-.57.17.12.27.43.34.57.58M173.35,193.08c-.15-.31.13-.53-.16-.66-.04.29-.1.52.16.66M172.94,244.92c-.02-.15.08-.41-.16-.33-.03.11-.12.16-.08.33h.25ZM172.44,184.27c-.03-.2.15-.18.09-.41-.1-.07-.22-.1-.41-.08-.13.27-.05.52.33.5M172.44,242.86h-.25v.33c.22.03.21-.17.25-.33M171.87,191.43c-.04-.38,0-.61.33-.41-.16-.33-.51-.48-.66-.82-.15.38.1.98.33,1.24M172.03,187.64c-.15-.31.13-.53-.16-.66-.05.29-.1.52.16.66M171.71,186.9c-.03-.18.03-.52-.08-.82-.29.21-.07.6.08.82M171.29,183.93c-.31-.48.22-.62,0-1.32h-.25c-.04.43.02.95-.33,1.07.31-.03.22.33.58.24M171.21,201.32c.07-.1.11-.22.08-.41-.3-.08-.33.41-.08.41M170.71,194.65c.27.07.68-.14.41-.33-.02.23-.3.19-.41.33M171.04,243.27c.06-.28-.14-.3-.33-.33-.04.26.07.37.33.33M170.63,185.75c.31.06.37-.13.33-.41h-.25c-.06.09-.11.22-.08.41M170.96,192.51c.07-.31-.21-.28-.33-.41.05.19.11.38.33.41M170.96,198.28l.08-.25c-.1-.11-.41-.13-.41.08.17,0,.11.23.33.17M170.88,177.84c.02-.22-.11-.27-.33-.25-.07.29.17.41.33.25M170.63,185.01c.4-.01.54-.51.17-.66-.05.23-.4.41-.17.66M170.96,245.49c-.34-.22-.92-.07-.9.33.39.2.55-.25.9-.33M170.63,186.41c-.02-.27.32-.18.33-.41-.16-.03-.2-.18-.41-.16-.15.15-.05.46.08.58M169.81,182.12c.42-.03.35-.52,0-.58.07.3-.19.4,0,.58M169.4,189.21c.27.07.68-.14.41-.33-.02.23-.3.19-.41.33M170.06,179.65c-.81.23-.46.57,0,0M169.64,192.83l.08-.25c-.1-.11-.4-.13-.41.08.17,0,.11.23.33.16M169.48,177.18c-.3-.02-.57-.02-.49.33.24-.03.4-.14.49-.33M169.4,182.62c-.02-.15.08-.41-.16-.33-.03.12-.12.16-.08.33h.25ZM169.56,177.75c-.18-.09-.61-.03-.99.08-.06.28.3.14.33.33,0,.23-.39.2-.49.08.1.34.44.3.74.25.13-.26.31-.46.41-.74M169.07,241.21c.01.1.02.2.16.17,0-.57-.91-.22-.58.16,0-.26.21-.28.41-.33M169.07,179.73c.02-.19-.02-.31-.17-.33-.03.12-.12.16-.08.33h.24ZM168.65,211.38c.38-.06.41-.48.49-.82-.31-.11-.4.03-.66-.17-.01.29.08.6.17.99M168.9,216.57c.02-.22-.03-.36-.25-.33l-.08.08c-.02.21.11.27.33.25M168.82,177.34c.07-.31-.37-.29-.5-.16-.03.27.36.3.5.16M168.24,189.7c.12-.12.37-.12.33-.41l-.33-.16c0,.15-.22.48,0,.57M168.99,213.6c-.26.07-.46.21-.66.33.06.31-.14.35-.08.66.18-.4.57-.59.74-.99M168.41,178.09v-.33c-.15,0-.26.02-.33.08-.03.22.11.27.33.25M168.33,214.92l-.25-.17c-.03.16-.32.06-.25.33.18.18.45.03.5-.16M168.08,188.8v-.33c-.05-.05-.39-.19-.41,0,.44-.02-.02.35.41.33M167.58,212.78c.35.08.74-.32.41-.41-.04.24-.35.2-.41.41M167.66,210.72c.1-.1.09-.29.09-.49-.36-.06-.46.15-.58.33.26-.04.19.25.49.16M167.34,215.91c.02.15.35.41.41.25l-.09-.25h-.33ZM167.25,187.31c-.02.32.04.57.41.49-.02-.28-.1-.51-.41-.49M167.25,213.6c-.25-.26.41-.3.25-.74-.46-.13-.7.96-.25.74M167.25,187.15c-.03-.2-.13-.31-.08-.58-.23.04-.37.17-.41.41.35-.22.22.11.49.17M166.6,186.16c.42-.18.07.42.41.33-.05-.31.04-.75-.25-.82.04.26-.12.32-.17.5M166.92,214.35c-.04-.16.12-.5-.16-.41-.13.12-.08.43.16.41M166.92,242.61c-.05-.17.14-.57-.16-.49-.02.24.02.42.16.49M166.6,243.43c-.01-.32-.19-.47-.41-.58.11.22.15.51.41.58M165.69,240.14c-.11-.2.24-.34,0-.41-.06.22-.38.17-.41.41h.41ZM165.52,239.81c.07-.31-.18-.32-.33-.41-.06.48-.14.18-.49.16.09.31.08.47,0,.66.16-.02.19.09.33.08.03-.2-.15-.18-.08-.41.22,0,.47.03.58-.08M165.69,215.41c-.11-.02-.16-.12-.33-.08-.02.19-.18.36.08.41.02-.17.22-.16.25-.33M165.28,234.62c-.06-.3.18-.32.16-.58-.34.25-.71-.16-1.07.25.1.23.1.43,0,.66.52.09.46-.59.91-.33M164.86,214.43c0,.25.49.34.41,0h-.41ZM165.19,218.05c-.04-.12.1-.43-.08-.41-.03.27-.44.17-.41.49.13.14.32-.03.49-.08M165.03,176.68c-.19-.23.18-.54-.17-.66-.3.2-.22.55.17.66M164.7,236.18c.08-.33-.23-.25-.41-.33v.25c.26-.09.21-.04.41.08M164.37,177.84c.02-.25.41-.14.33-.49-.37-.15-.41.46-.33.49M164.62,182.45c0-.23.14-.17,0-.33-.32-.07-.32.4,0,.33M164.45,216.65c-.15-.15.08-.58-.08-.41.01.18-.29.04-.41.08-.07.18-.21.28-.16.58.22-.08.42-.19.66-.25M164.04,240.63c-.11.49.62.36.33,0h-.33ZM164.04,240.22c.24-.12.31.09.41-.17-.23-.01-.23-.27-.41-.33.02.19.16.34,0,.49M164.37,217.89c-.19,0-.24.14-.49.08.02.3-.49.31-.25.58.3-.17.62-.31.74-.66M163.63,233.79c.17.23.44.14.41-.25-.17-.17-.42,0-.41.25M163.95,217.39c-.27-.02-.4.1-.41.33.32.07.32-.18.41-.33M162.97,236.76c.17.32.9.53.82-.16-.16.37-.63.1-.82.16M163.46,235.93c-.11,0-.11-.1-.25-.08-.07.09-.11.22-.08.41.21,0,.32-.12.33-.33M163.3,223.16c-.18-.4-.43.18-.74.16.03.19.09.36.25.41.12-.23.42-.29.49-.57M162.97,221.43c.07-.06.22-.57-.08-.49-.05.17-.17.27-.25.41.15-.02.18.09.33.08M162.81,236.26c.07-.31-.18-.32-.33-.41.06.2.11.38.33.41M162.81,219.87c-.43-.18-.54.75-.16.41-.19-.06.14-.29.16-.41M162.31,233.54c.28.03.34-.38.25-.49h-.25v.49M162.14,238.32c.23-.27-.08-.53-.41-.49.07.23.19.42.41.49M161.9,232.47c-.01.24-.01.45.25.41-.07-.14,0-.44-.25-.41M161.82,226.05h.49c-.02-.23-.14-.35-.41-.33-.03.11-.12.16-.08.33M161.9,223.24c.05-.11.38-.57,0-.58-.08.15-.32.51,0,.58M161.41,194.48c.1-.28-.32-.43-.42-.24l.08.24h.33ZM161.41,233.38c.01-.2.01-.4-.17-.41-.09.08-.08.43.17.41M161.41,238.24c.01-.23,0-.45-.25-.41-.02.23,0,.45.25.41M161.16,235.69c.03-.26.32-.5-.08-.57-.07.24-.07.25,0,.49-.11,0-.11-.1-.25-.08-.08.25.18.15.33.16M161.16,234.12c-.28-.03-.35.48,0,.41,0-.2-.15-.25,0-.41M160.5,235.93c.14-.34-.35-.58,0-.99-.25,0-.39.1-.57.17.12.35.26.67.57.82M160.17,233.63c.02-.21-.03-.35-.25-.33-.02.22.03.36.25.33M160.17,230.99c-.44-.11-.46.2-.58.41.34.21.18.44,0,.66.28-.04.25.25.41.33.19-.68-.04-.9.17-1.4M159.84,192.83c-.37-.04-.22.38-.08.5.08-.2.03-.18.08-.5M158.85,193.25c.02-.29-.12-.43-.41-.41-.07.06-.22.57.08.5,0-.14.06-.21.16-.25.01.1.02.2.16.16"/><path class="c" d="M166.84,154.19c.6.16-.15,1.05.25,1.32-.22,1.24-.36,2.22-.33,3.46-.38.2.14.81-.17.99l.25.08c-.46.32.28,1.12-.41,1.23.21.62.59,1.91,0,2.47.3-.02.35.64.17.82h.25c.09.56-.15,2.14-.33,2.97-.12-.07-.18-.2-.16-.41-.54.23-.79.75-1.23,1.07.02-.19.16-.34,0-.49-.3.12-.4.26-.66.25-.03.16.02.26.17.25-.03.19-.09.36-.25.41-.21-.01-.32-.12-.33-.33-.31,0-.23.09-.49,0-.15.01-.05.28-.16.33-.34-.34-.87.17-1.48.08.03-.21.27-.23.16-.58-.22-.02-.06.32-.33.25l-.16-.08c-.06-.22.17-.16.25-.25-.04-.26-.74.14-.66-.25-.12.1-.16.28-.17.5-.22-.23-.21.07-.33.16-.15.23.07-.21,0-.41-.06-.21-.22.16-.42.08-.1-.35.28-.22.33-.41-.03-.11-.21-.07-.33-.08-.01-.2.05-.34.17-.41-.19-.31-.72.08-.83-.41-.22-.02.08.46-.24.33.05-.3.13-.47-.17-.58.05-.31.49-.28.74-.17.28-.07.04-.15.08-.41.15.01.18-.1.33-.08-.09-.35-.16-.72-.33-.99-.08.3-.34.43-.66.49,0,.14.06.21.16.25-.12.15-.26.29-.41.41-.28-.05-.38-.28-.41-.58.36.09.37-.18.5-.33-.2,0-.24.15-.5.08.04-.22-.09-.76.41-.83-.33-.15-.29-.36-.5-.49.25-.13.69-.08.75-.41-.08-.11-.08-.3-.25-.33-.21.01-.16.28-.16.49-.25-.05-.16-.44-.41-.49.02-.17.22.12.33-.08,0-.22-.26-.18-.25-.41h.25c-.22-.31-.06-.49-.08-.99.23-.07.22.12.41.08-.05-.19-.36-.13-.25-.49.17.2.33-.11.49.08.11-.36,0-.34-.16-.58-.18.06-.45.05-.49.25-.21.04.23-.41-.17-.33.04-.19.49.04.33-.33.16.15.15-.05.41,0,.04-.26-.12-.32-.17-.49-.08.06-.09.19-.25.16.18-.89-.59-.63-.17-1.32.16.01.06.28.25.25.16-.17.1-.42.41-.25-.05-.29.1-.4.16-.58-.07-.17-.24-.25-.49-.25-.04.26.25.19.16.5l-.08.16h-.41c-.02-.46.35-.53.25-1.07.17-.12.55.29.66-.16-.05-.17-.34-.39,0-.49l-.33-.25c-.13.04.03.11,0,.25-.71-.5,1.15-1.12.24-1.65.52-.1.85-.19,1.16-.33l-.33-.08c.14-.23,1.16.03,1.57.08-.07.46.31.34.66.49.02-.44.96-.62,1.31-.25.1-.12.24-.2.25-.41.07.07.19.09.33.08.04.18-.12.16-.25.17,0,.24.47.19.57.08-.12-.1,0-.43-.33-.33.06-.3.33.02.66-.08,0,.13-.04.32.08.33.12-.11.71-.66.74-.08h.33c.04-.26-.07-.37-.33-.33.04-.53.69.08.82-.33M166.6,166.22c-.2.03-.4-.36-.58-.08l.25.16v.25c.21-.01.32-.12.33-.33M166.18,165.39c.18-.14.16-.38,0-.58-.02.21-.35.47,0,.58M164.53,167.54v-.41h-.25c-.07.1-.11.22-.08.41h.33ZM164.29,161.19v-.33c-.2.05-.42.07-.41.33.16.16.15-.05.41,0M163.46,165.06c.02-.21.15-.56-.17-.66.03.19-.24.09-.25.25.25.03.3.25.41.41M163.46,164.24c-.12-.15,0-.54-.17-.66-.25.22-.32.63.17.66M161.32,154.93c-.13.25.43.21.41.08-.14-.07-.24-.26-.41-.08M160.58,164.65c-.02-.14.08-.41-.17-.33-.03.11-.12.16-.08.33h.25Z"/><path class="b" d="M206.38,221.53l.14,4.87c.03,1.11-.85,1.61-1.79,1.64-1.86.05-1.96-.72-2-2.16l1.36-.04c.01.51-.08,1.27.62,1.25.3,0,.5-.29.49-.56l-.15-4.96"/><path class="b" d="M210.54,226.94c0,.28.05.56.09.83l-1.15.03-.07-.59h-.02c-.25.46-.6.69-1.14.71-.86.03-1.2-.61-1.22-1.38-.04-1.47,1.09-1.56,2.24-1.58v-.34c-.02-.38-.08-.65-.53-.64-.43.01-.46.34-.45.69l-1.22.04c-.01-.54.14-.89.43-1.1.28-.22.68-.31,1.15-.32,1.58-.05,1.8.63,1.82,1.44M208.24,226.45c0,.32.07.7.47.69.73-.02.59-1,.58-1.49-.62.05-1.08,0-1.05.8"/><polyline class="b" points="210.62 223.32 211.88 223.28 212.6 226.6 212.62 226.6 213.17 223.24 214.39 223.21 213.29 227.69 211.93 227.73"/><path class="b" d="M218.02,226.72c0,.27.05.55.08.82l-1.15.04-.07-.59h-.02c-.25.47-.61.7-1.14.71-.86.02-1.2-.61-1.22-1.38-.04-1.47,1.09-1.56,2.24-1.58v-.34c-.02-.38-.08-.65-.53-.64-.43.01-.46.34-.45.69l-1.22.04c-.01-.54.15-.89.43-1.1.27-.22.68-.31,1.15-.32,1.57-.05,1.8.63,1.82,1.43M215.71,226.23c.01.32.07.7.48.69.73-.02.59-1,.57-1.49-.61.04-1.08,0-1.05.8"/><path class="b" d="M225.94,221.11l.03.98-1.24.03-.03-.97M226.12,227.33l-1.24.04-.13-4.44,1.24-.04.13,4.45Z"/><path class="b" d="M231.45,222.72l-.58,3.14h-.02l-.73-3.11-1.9.05-.04-1.26-1.23.59.02.71h-.5s.02.78.02.78l.5-.02.08,2.74c0,.27.16.98,1.24.95.3,0,.47-.04.64-.06l-.02-.77-.22.03c-.4.01-.4-.21-.41-.54l-.07-2.38.87-.02,1.11,3.68-.43,1.66,1.3-.04,1.54-6.17"/><path class="b" d="M223,225.37c0,.5,0,1.2-.57,1.21-.75.02-.86-.68-.91-2.31-.05-1.63.03-2.34.78-2.35.38-.01.54.28.57,1.05l1.31-.04c-.02-1.3-.59-2-1.91-1.96-2.19.06-2.14,1.66-2.09,3.34.04,1.66.09,3.28,2.28,3.22,1.21-.03,1.87-.58,1.85-2.2"/><path class="b" d="M200.12,223.63l-.58,3.14h-.02l-.72-3.1-1.23.04.23.76,1.11,3.68-.43,1.66,1.3-.04,1.54-6.17M196.93,223.91c-.29-.2-.7-.27-1.17-.26-.2,0-.38.02-.54.05l-.03-1.19-1.24.04.16,5.7,1.24-.04v-.03c.16.02.34.02.54.02.48-.01.88-.1,1.15-.32.28-.21.44-.56.43-1.1l-.05-1.8c-.02-.54-.19-.87-.49-1.07M196.25,226.81c.01.35-.02.68-.44.69-.31,0-.44-.12-.49-.33l-.07-2.47c.04-.21.15-.35.47-.35.43-.01.48.31.48.66l.05,1.79Z"/><polyline class="c" points="250.5 172.17 252.52 172.1 252.53 172.4 251.7 172.43 251.77 174.62 251.43 174.63 251.36 172.43 250.52 172.47"/><path class="c" d="M254.97,174.52l-.06-1.47c0-.07,0-.39,0-.62h0l-.63,2.1-.34.02-.77-2.07h-.01c.01.23.02.54.03.62l.05,1.47h-.33s-.07-2.48-.07-2.48h.47s.77,2.07.77,2.07h0s.65-2.13.65-2.13l.48-.02.08,2.49"/></svg>