<?xml version="1.0" encoding="UTF-8"?><svg id="a" xmlns="http://www.w3.org/2000/svg" width="400" height="400" viewBox="0 0 400 400"><defs><style>.b{fill:#231f20;}</style></defs><polygon class="b" points="180.59 195.19 180.59 193.78 176.01 202.23 175.99 202.77 180.59 213.53 180.59 211.81 176.67 202.64 176.68 202.41 180.59 195.19"/><polygon class="b" points="121.09 205.7 116.79 224.31 117.48 224.31 121.09 208.69 121.09 205.7"/><path class="b" d="M125.15,199.07h-.16l-1.31,5.36c.24,0,.47,0,.69,0l1.31-5.36c-.18,0-.35,0-.53,0Z"/><polygon class="b" points="121.09 215.03 118.83 224.31 119.52 224.31 121.09 217.87 121.09 215.03"/><path class="b" d="M196.53,198.29l.02-.03c.12-.26.23-.54.34-.84,0,0,0-.01,0-.02l-.4-.29-.71,1.1.31.93c.15-.25.29-.53.43-.83h0Z"/><path class="b" d="M181.39,198.25c-.25,0-.5,0-.77,0l-1.73,3.11v.54s1.7,4.15,1.7,4.15v-1.77l-1.03-2.5v-.23s1.84-3.29,1.84-3.29Z"/><polygon class="b" points="117.88 187.73 115.11 201.61 115.11 205.05 118.46 188.26 119.03 188.09 115.11 206.87 115.11 210.17 119.92 187.12 117.88 187.73"/><polygon class="b" points="174.61 219 177.08 224.31 177.82 224.31 174.61 217.41 174.61 219"/><path class="b" d="M166.82,205.69l1.21,2.54c.02-.48.04-.96.06-1.45l-.52-1.09.56-1.15v.5s.01.06.01.06c.02-.76.04-1.51.06-2.25l-1.38,2.83Z"/><polygon class="b" points="174.61 212.73 179.86 224.31 180.59 224.31 180.59 224.28 174.61 211.1 174.61 212.73"/><path class="b" d="M240.36,221.02l.42,2.65.84.64h1.01l-.25-1.72-2.02-1.57ZM241.41,223.29l-.11-.7.46.35.1.68-.44-.34Z"/><path class="b" d="M138.2,184.67l-5.44,18.82c.28-.11.55-.23.8-.36l4.8-16.59c-.03-.66-.08-1.28-.16-1.87Z"/><path class="b" d="M159.71,218.85l2.6,4.86c.2-.1.4-.21.59-.32l-2.69-5.05c-.15.18-.31.35-.49.51Z"/><path class="b" d="M135.74,182.42l-2.01.6-1.34,5.03c.03.73.04,1.55.04,2.46l1.85-6.95.48-.14-2.33,8.37c0,1.18-.02,2.16-.13,3l3.44-12.36Z"/><polygon class="b" points="174.61 224.31 175.11 224.31 174.61 223.25 174.61 224.31"/><polygon class="b" points="232.65 223.56 232.65 224.31 233.66 224.31 232.65 223.56"/><path class="b" d="M166.29,205.56l1.93-3.95c0-.54.01-1.07.02-1.57l-2.58,5.29-.05.6,2.3,4.84c.02-.46.05-.94.07-1.43l-1.69-3.55v-.23Z"/><path class="b" d="M161.84,211.3l4.33,8.57c.13-.25.25-.51.36-.78l-4.62-9.14c-.02.46-.05.9-.08,1.35Z"/><path class="b" d="M128.26,198.9l-1.46,5.5c.25,0,.48-.01.7-.02l1.5-5.64c-.23.06-.48.11-.74.15Z"/><polygon class="b" points="232.65 220.7 232.65 221.55 232.91 221.74 233.06 222.55 232.65 222.25 232.65 223.08 234.04 224.11 233.52 221.36 232.65 220.7"/><path class="b" d="M137.51,181.89l-1.18.35-6.1,21.95c.26-.04.5-.08.74-.13l5.92-21.28.67-.2-6.18,21.38c.26-.07.51-.15.77-.24l5.85-20.24c-.12-.55-.28-1.08-.48-1.6Z"/><path class="b" d="M278.94,223.01l.3.77.54.53h.99l.07-1.22-1.82-1.84-.08,1.75ZM279.63,222.82l.53.53-.02.35-.52-.52.02-.37Z"/><polygon class="b" points="265.26 224.31 265.94 224.31 265.92 223.75 266.18 223.99 266.18 223.08 265.2 222.19 265.26 224.31"/><polygon class="b" points="247.02 175.76 245.94 175.76 246.5 176.37 247.02 175.76"/><polygon class="b" points="226.46 181.19 226.66 180.93 226.74 181.01 226.74 180.09 226.57 179.92 225.61 181.19 226.46 181.19"/><polygon class="b" points="226.53 179.33 226.74 179.05 226.74 177.93 226.45 178.32 226.14 178.03 226.71 177.25 226.74 177.28 226.74 176.34 226.63 176.23 225.24 178.11 226.53 179.33"/><path class="b" d="M246.1,179.99l1.56-1.77-1.15-1.25-1.55,1.81,1.15,1.21ZM246.52,177.99l.23.25-.67.76-.22-.23.66-.77Z"/><polygon class="b" points="262.7 175.76 261.77 175.76 261.31 176.24 260.96 175.83 261.02 175.76 260.19 175.76 260.19 175.97 261.27 177.25 262.7 175.76"/><polygon class="b" points="246.68 181.19 246.11 180.59 245.57 181.19 246.68 181.19"/><polygon class="b" points="260.19 176.6 260.19 178.37 260.99 177.54 260.19 176.6"/><path class="b" d="M183.64,198.24c-.25,0-.5,0-.78,0l-1.48,2.6v.54s.66,1.67.66,1.67h.73l-.72-1.8v-.23s1.59-2.79,1.59-2.79Z"/><path class="b" d="M194.45,201l-.59-1.67,1.38.98h0c.15-.15.29-.33.43-.52l-2.38-1.69-.38.6.97,2.73h0c.2-.12.39-.25.59-.41l-.03-.02Z"/><polygon class="b" points="211.55 223.37 211.83 224.31 212.54 224.31 211.55 221.06 211.55 223.37"/><path class="b" d="M186,198.2c-.24,0-.51.02-.79.02l-1.13,1.93v.54s.91,2.37.91,2.37h.63l8.25,21.25h.1l-9.22-23.73v-.23s1.26-2.15,1.26-2.15Z"/><path class="b" d="M193.35,201.53l-2.8-1.95,1.02,2.78c.19-.05.41-.11.65-.19l-.3-.82.87.61v.02c.21-.08.41-.17.62-.27l-.03-.07-.04-.1Z"/><polygon class="b" points="253.06 179.67 253.96 180.67 253.96 178.7 253.06 179.67"/><path class="b" d="M247.93,177.92l1.48-1.68-.43-.48h-1.43l-.78.9,1.16,1.25ZM248.5,176.24l-.59.67-.24-.26.58-.68.25.27Z"/><polygon class="b" points="252.72 175.99 252.51 175.76 251.61 175.76 251.81 175.99 251.23 176.64 250.85 176.23 251.26 175.76 250.36 175.76 249.95 176.23 251.23 177.65 252.72 175.99"/><path class="b" d="M247.24,181.19h.8l1.17-1.3-1.27-1.38-1.56,1.77.86.91ZM247.94,179.52l.35.38-.66.73-.34-.36.66-.74Z"/><polygon class="b" points="212.41 215.62 213.14 216.13 215.43 224.31 216.13 224.31 213.75 215.83 213.72 215.71 211.55 214.2 211.55 215.08 214.25 224.31 214.95 224.31 212.41 215.62"/><polygon class="b" points="215.56 217.82 216 218.12 217.53 223.77 217.53 221.19 216.62 217.83 216.59 217.71 214.41 216.19 216.68 224.31 217.38 224.31 215.56 217.82"/><path class="b" d="M186.01,200.53l1.37-2.35.11.08-.72,1.2v.54s9.12,24.31,9.12,24.31h.72l-9.17-24.42v-.23s.96-1.59.96-1.59l-.13-.09c-.42.1-.95.16-1.66.2l-1.34,2.3,9.26,23.84h.72l-9.24-23.78Z"/><polygon class="b" points="188.7 199.85 189.02 199.32 189.24 199.48 198.3 224.31 199.02 224.31 190.02 199.66 190.48 199.52 188.81 198.36 187.95 199.78 197.17 224.31 197.89 224.31 188.7 199.85"/><polygon class="b" points="192.16 203.98 199.58 224.31 200.26 224.31 192.16 203.98"/><path class="b" d="M188.51,181.66c.4.12.74.29,1.08.5.19.12.36.25.52.39l.24-.43-1.47-1.14-.37.69Z"/><path class="b" d="M150.34,177.51l2.15-.64.5-1.45-1.91.55c-.08.03-.17.07-.25.1l-.48,1.44Z"/><polygon class="b" points="264.92 212.69 266.18 213.9 266.18 212.97 265.59 212.4 265.57 211.79 266.18 212.39 266.18 211.44 264.85 210.13 264.92 212.69"/><polygon class="b" points="264.83 209.55 266.18 210.88 266.18 209.93 265.5 209.26 265.47 208.49 266.18 209.2 266.18 208.25 264.75 206.8 264.83 209.55"/><polygon class="b" points="240.35 200.55 240.95 201.1 240.96 201.13 241.64 201.13 241.59 200.76 239.42 198.79 239.76 201.13 240.44 201.13 240.35 200.55"/><path class="b" d="M236.94,196.54l-1.2-1.09-1.49,1.66,2.1,1.87-.21-1.31.15-.42.65-.7ZM235.75,196.84l-.22.52-.33-.3.59-.65.2.18-.23.25Z"/><path class="b" d="M186.21,181.33c.26.01.51.03.74.05l.4-.76.26.2-.32.59c.26.03.49.07.71.11l.48-.88-1.34-1.04-.92,1.73Z"/><path class="b" d="M260.31,202.31l.15,2.92,2.2,2.17-.11-2.83-2.23-2.26ZM261.12,204.94l-.04-.9.81.82.03.87-.8-.79Z"/><path class="b" d="M264.74,209.46l-.08-2.75-2.02-2.05.11,2.83,1.99,1.97ZM263.99,207l.02.8-.61-.6-.03-.83.62.62Z"/><path class="b" d="M160.54,217.89l2.79,5.23c.19-.13.37-.26.55-.4l-2.96-5.56c-.11.25-.23.5-.38.72Z"/><path class="b" d="M244.98,221.85l.33,2.46h1.42l-.15-1.18-1.61-1.28ZM245.95,224.01l-.08-.6.08.07.07.59-.07-.06Z"/><path class="b" d="M161.79,185.02l1.75-4.26-1.6-1.11-1.05,2.63c.16.26.29.53.4.82l.96-2.41.46.32-1.16,2.84c.11.39.19.78.25,1.18Z"/><path class="b" d="M119.31,180.55l-.36,1.81,2.08-.57.06-.27v-.26h.05l.26-1.27-2.1.56ZM120.46,181.25l-.63.17.07-.33.63-.17-.07.32Z"/><polygon class="b" points="265.18 221.63 266.18 222.53 266.18 221.62 265.85 221.33 265.84 221.2 266.18 221.51 266.18 220.58 265.12 219.61 265.18 221.63"/><path class="b" d="M160.08,178.35l-.9,2.34c.21.11.41.23.58.36l.63-1.65.27.19-.66,1.65c.19.16.36.33.52.52l.97-2.42-1.42-.99Z"/><path class="b" d="M157.67,176.2l.43-1.14c-.23-.02-.46-.03-.71-.04l-.05.13-.14-.1-.19.18-.07-.22h.04c-.07-.01-.14-.02-.21-.02-.19,0-.36,0-.54.01l-.3.84.52-.15.15.51-.9.27-1.43,3.97c.25-.09.51-.16.79-.21l1.15-3.21.47-.14-1.23,3.27c.23-.03.48-.04.74-.05l1.23-3.29.09-.25-.55-.38.28-.27.4.28Z"/><path class="b" d="M217.4,199.41l.13.1v-2.66l-.96-.78h0s-1.36-1.11-1.36-1.11l-1.28,1.69,2.78,2.22-.52-2.12.51-.15.7,2.81ZM215.59,197.11l-.72-.57.46-.61.34.28-.28.09.2.82Z"/><path class="b" d="M246.8,220.73l.29,2.29,1.61,1.28h.19l-.24-2.06-1.86-1.51ZM247.73,222.67l-.04-.35.34.28.04.34-.33-.27Z"/><path class="b" d="M158.69,180.47l.94-2.44-1.65-1.15-1.21,3.23c.24.01.48.02.7.05l.84-2.23.5.35-.77,1.99c.23.05.44.12.65.2Z"/><path class="b" d="M127.64,181.41c.41.05.76.11,1.07.18l.36-1.47-2.21.61-.14.6c.24.01.47.03.68.05l.02-.1.71-.2-.05.2-.45.13Z"/><path class="b" d="M245.83,180.3l-1.14-1.21-1.44,1.68.41.42h1.39l.79-.9ZM244.16,180.74l.56-.65.21.22-.56.64-.2-.21Z"/><path class="b" d="M269.24,179.38l-1.55,1.51.31.38c.31,0,.6,0,.88,0l-.28-.33.57-.56.45.55-.36.35c.35,0,.66,0,.96.01l.32-.3-1.3-1.6Z"/><path class="b" d="M129.59,198.56l-1.55,5.81c.25-.01.49-.02.71-.04l1.65-6.21c-.26.17-.53.31-.81.43Z"/><polygon class="b" points="208.89 175.92 208.34 176.76 207.85 176.33 208.21 175.76 207.41 175.76 206.97 176.46 208.49 177.78 209.77 175.8 209.73 175.76 208.72 175.76 208.89 175.92"/><polygon class="b" points="219.79 181.19 219.88 181.06 218.51 179.82 217.54 181.19 218.37 181.19 218.62 180.83 218.98 181.15 218.96 181.19 219.79 181.19"/><polygon class="b" points="251.35 201.13 252.11 201.13 252.11 200.87 251.25 200.03 251.35 201.13"/><path class="b" d="M185.99,175.77c-.25,0-.5,0-.75,0l-.37.72-.41-.32.2-.41h-.75l-.3.6,1.48,1.15.9-1.75Z"/><polygon class="b" points="247.37 200.54 247.76 200.91 247.78 201.13 248.46 201.13 248.4 200.59 246.49 198.78 246.76 201.13 247.44 201.13 247.37 200.54"/><polygon class="b" points="252.11 200.3 252.11 199.16 251.51 199.73 252.11 200.3"/><polygon class="b" points="236.94 175.8 236.35 176.53 236.04 176.21 236.4 175.76 235.54 175.76 235.14 176.26 236.4 177.54 237.84 175.76 237.84 175.76 236.9 175.76 236.94 175.8"/><polygon class="b" points="232.65 176.67 233.25 175.88 233.72 176.35 233.03 177.21 232.65 176.83 232.65 177.78 233.1 178.22 234.61 176.3 234.08 175.76 232.65 175.76 232.65 176.67"/><path class="b" d="M267.58,177.33l-1.22-1.5-1.55,1.58,1.22,1.46,1.55-1.55ZM266.31,176.84l.36.44-.6.6-.36-.43.59-.61Z"/><path class="b" d="M192.43,198.93l.15-.42.4-.63-1.17-.83-1.26,2.06,2.58,1.8-.7-1.97ZM191.8,199.15l-.34-.23.55-.9.06.04-.36.87.08.22Z"/><path class="b" d="M191.4,196.76l-.67-.48c-.29.41-.64.78-1.07,1.07-.14.09-.27.17-.4.25l-.26.43,1.13.79,1.27-2.06ZM189.91,197.84l.55-.92.04.03-.56.92-.03-.02Z"/><polygon class="b" points="212.65 211.9 211.55 211.11 211.55 211.94 212.07 212.31 212.4 213.51 211.63 212.97 211.55 212.67 211.55 213.73 213.56 215.13 212.65 211.9"/><polygon class="b" points="211.55 219.37 212.99 224.31 213.69 224.31 211.55 216.97 211.55 219.37"/><path class="b" d="M183.32,201.21l1.69-2.98c-.24,0-.5,0-.78.01l-1.66,2.92.76,1.9h.73l-.74-1.85Z"/><polygon class="b" points="217.53 217.9 217.53 216.57 217.41 216.11 217.53 216.2 217.53 215.37 216.26 214.47 217.11 217.61 217.53 217.9"/><path class="b" d="M216.43,217.13l-.85-3.15-2.24-1.6.9,3.22,2.19,1.52ZM214.99,214.39l.31,1.13-.47-.33-.32-1.15.49.35Z"/><polygon class="b" points="217.53 218.36 217.27 218.18 217.53 219.15 217.53 218.36"/><path class="b" d="M221.66,178.59l1.42-1.97-.9-.85h-.81l-1.09,1.55,1.38,1.28ZM222.19,176.7l-.63.88-.39-.36.62-.89.4.37Z"/><path class="b" d="M242.8,177.09l-1.26-1.33h-.09l-1.4,1.7,1.31,1.35,1.45-1.72ZM240.94,177.42l.58-.7.37.39-.58.69-.37-.38Z"/><polygon class="b" points="240.93 175.76 240.06 175.76 239.72 176.16 239.34 175.76 238.4 175.76 239.76 177.17 240.93 175.76"/><polygon class="b" points="223.86 181.19 223.33 180.7 222.96 181.19 223.86 181.19"/><polygon class="b" points="235.04 175.76 234.65 175.76 234.87 175.98 235.04 175.76"/><polygon class="b" points="232.65 178.35 232.65 178.79 232.84 178.54 232.65 178.35"/><path class="b" d="M244.41,178.8l-1.34-1.41-1.44,1.71,1.34,1.38,1.45-1.68ZM242.54,179.07l.57-.67.4.42-.57.66-.4-.41Z"/><path class="b" d="M224.72,178.17l-1.35-1.28-1.42,1.97,1.34,1.25,1.43-1.94ZM222.84,178.77l.62-.87.36.34-.63.85-.35-.33Z"/><polygon class="b" points="243.09 181.19 242.98 181.08 242.88 181.19 243.09 181.19"/><path class="b" d="M265.74,179.16l-1.21-1.46-1.53,1.57,1.21,1.43,1.54-1.53ZM264.48,178.71l.34.41-.58.58-.34-.4.58-.59Z"/><path class="b" d="M263.92,180.98l-1.21-1.42-1.52,1.55,1.2,1.39,1.52-1.52ZM262.67,180.56l.33.38-.57.57-.32-.37.57-.58Z"/><polygon class="b" points="260.19 184.43 260.19 184.69 260.32 184.57 260.19 184.43"/><path class="b" d="M262.11,182.78l-1.2-1.38-.71.73v1.69l.41.46,1.51-1.5ZM260.88,182.39l.31.36-.55.55-.31-.34.55-.56Z"/><path class="b" d="M273.04,175.82c-.05,0-.1,0-.15,0l-1.51,1.47,1.31,1.64,1.59-1.52-1.24-1.59ZM272.3,177.34l.61-.6.47.6-.61.58-.47-.59Z"/><path class="b" d="M275.61,176.14c-.27-.05-.55-.1-.83-.14l-.14.13-.13-.17c-.31-.04-.62-.07-.93-.1l.99,1.27,1.04-.99Z"/><path class="b" d="M268.99,179.06l-1.15-1.42-1.55,1.54,1.15,1.39,1.55-1.51ZM267.78,178.65l.29.36-.59.57-.29-.35.58-.58Z"/><path class="b" d="M272.66,179.52l-1.57,1.5.24.29c.33.01.63.03.91.05l-.23-.28.58-.56.27.34-.54.51c.33.03.62.06.88.1l.57-.54-1.12-1.4Z"/><path class="b" d="M267.49,181.26l-.08-.1-.1.09c.06,0,.12,0,.18,0Z"/><path class="b" d="M271.4,175.76l-.2.2-.16-.2c-.09,0-.17,0-.26,0h-.61l.96,1.2,1.21-1.18c-.31-.01-.63-.02-.94-.02Z"/><path class="b" d="M246.23,176.68l-.85-.92h-.95l-1.1,1.31,1.34,1.42,1.56-1.81ZM244.24,177.05l.68-.8.42.45-.68.79-.41-.44Z"/><polygon class="b" points="260.19 180.57 260.19 181.55 260.64 181.09 260.19 180.57"/><polygon class="b" points="226.35 175.96 226.14 175.76 225.17 175.76 225.45 176.03 224.87 176.83 224.49 176.47 225 175.76 224.17 175.76 223.6 176.55 224.96 177.84 226.35 175.96"/><polygon class="b" points="243.92 175.76 243.04 175.76 243.03 175.77 243.02 175.76 242.09 175.76 243.06 176.78 243.92 175.76"/><polygon class="b" points="223.69 175.76 222.76 175.76 223.32 176.29 223.69 175.76"/><path class="b" d="M270.85,177.25l-1.16-1.45-1.57,1.57,1.16,1.42,1.57-1.54ZM269.63,176.8l.31.39-.61.59-.3-.37.61-.6Z"/><path class="b" d="M262.45,179.25l-1.19-1.4-1.06,1.11v1l.73.84,1.52-1.55ZM261.23,178.85l.31.36-.58.59-.3-.35.58-.6Z"/><path class="b" d="M271.1,177.56l-1.57,1.53,1.31,1.6,1.57-1.5-1.3-1.64ZM270.44,179.15l.6-.58.46.57-.6.57-.46-.56Z"/><polygon class="b" points="269.15 175.76 268.2 175.76 267.91 176.04 267.68 175.76 266.82 175.76 267.86 177.05 269.15 175.76"/><polygon class="b" points="265.86 175.76 264.92 175.76 264.59 176.1 264.31 175.76 263.43 175.76 264.55 177.1 265.86 175.76"/><path class="b" d="M264.26,177.39l-1.19-1.43-1.53,1.6,1.19,1.4,1.54-1.57ZM263.04,176.97l.32.39-.59.61-.32-.38.59-.62Z"/><path class="b" d="M224.45,181.19h.67l1.16-1.54-1.29-1.22-1.43,1.94.88.82ZM225.09,179.45l.3.28-.63.83-.29-.27.62-.84Z"/><polygon class="b" points="253.96 176.79 253.96 175.76 253.46 175.76 253.26 175.99 253.96 176.79"/><polygon class="b" points="252.57 181.19 252.78 180.97 252.98 181.19 253.89 181.19 252.79 179.97 251.66 181.19 252.57 181.19"/><path class="b" d="M252.79,179.37l1.17-1.27v-.7l-.98-1.11-1.49,1.65,1.29,1.43ZM253.37,177.75l-.58.63-.39-.43.58-.64.39.44Z"/><polygon class="b" points="249.48 181.19 249.48 181.19 249.49 181.19 250.4 181.19 249.48 180.19 248.57 181.19 249.48 181.19"/><path class="b" d="M249.48,179.59l1.48-1.64-1.28-1.41-1.48,1.67,1.28,1.38ZM249.68,177.55l.36.4-.58.64-.36-.39.58-.65Z"/><polygon class="b" points="249.83 175.76 249.52 175.76 249.68 175.93 249.83 175.76"/><path class="b" d="M250.95,181.19h.16l1.4-1.52-1.29-1.42-1.48,1.64,1.21,1.31ZM251.23,179.25l.37.41-.57.62-.37-.4.57-.63Z"/><path class="b" d="M188.53,176.95l-1.21,2.29,1.35,1.05,1.23-2.26-1.36-1.08ZM188.45,179.27l-.27-.21.57-1.07.28.22-.58,1.06Z"/><path class="b" d="M216.56,192.53l-1.22-1.02-1.4,1.89,1.21.99,1.41-1.86ZM214.86,193.29l.59-.8.18.15-.6.79-.17-.14Z"/><polygon class="b" points="217.53 195.16 216.97 195.88 217.53 196.34 217.53 195.16"/><path class="b" d="M217.53,194.52v-1.18l-.67-.56-1.41,1.86,1.22.99.86-1.12ZM216.38,194.53l.59-.78.18.15-.6.77-.18-.14Z"/><path class="b" d="M215.04,191.27l-1.27-1.05-1.38,1.92,1.25,1.02,1.4-1.89ZM213.3,192.02l.59-.82.22.18-.6.81-.21-.17Z"/><path class="b" d="M190.82,176.32c-.22-.06-.45-.11-.68-.16l-.27.49-.29-.23.18-.33c-.23-.04-.47-.08-.7-.11l-.33.62,1.36,1.08.74-1.36Z"/><polygon class="b" points="211.55 191.97 211.55 192.65 211.86 192.22 211.55 191.97"/><path class="b" d="M213.47,189.97l-1.33-1.1-.6.85v1.74l.54.44,1.39-1.93ZM211.68,190.7l.59-.85.28.23-.6.83-.27-.22Z"/><polygon class="b" points="238.7 204.07 238.7 203.18 238.14 202.7 238.02 201.91 238.7 202.52 238.7 201.62 237.06 200.15 237.52 203.04 238.7 204.07"/><polygon class="b" points="260.47 215.27 260.19 215.02 260.19 217.1 260.58 217.45 260.47 215.27"/><path class="b" d="M262.78,210.62l-.1-2.63-2.19-2.16.14,2.71,2.15,2.08ZM262.01,208.28l.03.69-.76-.73-.04-.71.77.76Z"/><path class="b" d="M264.83,212.61l-.07-2.56-1.99-1.96.1,2.63,1.96,1.9ZM264.09,210.33l.02.64-.58-.56-.02-.65.58.58Z"/><path class="b" d="M234.22,200.71l-1.58-1.37v2.89l2.15,1.84-.57-3.35ZM233.26,201.86l-.24-1.3.58.5.22,1.28-.56-.48Z"/><path class="b" d="M236.44,199.61l-2.21-1.97.51,3,2.16,1.88-.46-2.91ZM235.36,200.28l-.15-.86.6.53.13.84-.58-.51Z"/><polygon class="b" points="232.65 205.21 232.65 205.38 232.68 205.41 232.65 205.21"/><path class="b" d="M183.71,180.2l1.2-2.33-1.48-1.15-1.19,2.36,1.47,1.12ZM183.66,177.75l.39.31-.57,1.12-.39-.29.57-1.13Z"/><polygon class="b" points="175.64 175.76 174.9 175.76 174.76 176.06 174.61 175.95 174.61 176.79 175.02 177.1 175.64 175.76"/><polygon class="b" points="183.32 175.76 182.84 175.76 183.19 176.03 183.32 175.76"/><path class="b" d="M155.65,175.04c-.73.04-1.4.12-2.04.23l-.5,1.42,2.17-.65.36-1.01Z"/><path class="b" d="M183.95,180.87l-.2.4c.26,0,.51,0,.74,0l-.53-.41Z"/><polygon class="b" points="174.61 177.28 174.61 178.01 174.86 177.46 174.61 177.28"/><path class="b" d="M124.9,175.69h-2.06l-.29,1.38,2.17-.55.18-.84ZM124.15,175.98l-.72.18.05-.24.72-.17-.05.23Z"/><path class="b" d="M127.48,175.73c-.65-.03-1.33-.04-2.05-.04l-.15.69,2.17-.55.02-.11Z"/><path class="b" d="M192.93,190.5l1.15-1.92-1.3-.99-.77,1.32c0,.25,0,.5,0,.74,0,.05,0,.11,0,.16l.92.69ZM192.97,188.59l.22.17-.46.76-.21-.16.45-.77Z"/><polygon class="b" points="180.59 187.42 180.15 188.27 180.59 188.58 180.59 187.42"/><path class="b" d="M196.4,196.56l1.19-1.85c.01-.07.02-.14.03-.2l-1.4-1.05-1.29,2.04,1.46,1.07ZM196.41,194.43l.38.29-.57.88-.38-.28.56-.89Z"/><path class="b" d="M197.31,191.04l-1.23-.94-1.16,1.88,1.21.91,1.17-1.86ZM195.82,191.82l.45-.73.15.11-.45.72-.14-.1Z"/><polygon class="b" points="176.77 189.97 174.61 194.28 174.61 195.78 177.02 190.97 177.31 191.17 174.61 196.44 174.61 197.91 178.18 190.96 176.77 189.97"/><polygon class="b" points="174.61 209.84 180.59 223.02 180.59 221.39 174.61 208.21 174.61 209.84"/><polygon class="b" points="174.61 214.58 174.61 216.17 178.39 224.31 179.13 224.31 174.61 214.58"/><path class="b" d="M180.59,186.27v-.8l-1.14-.83-1.16,2.31,1.43,1.02.87-1.69ZM179.15,186.73l.54-1.08.33.24-.55,1.07-.33-.23Z"/><path class="b" d="M179.54,188.31l-1.43-1.02-1.17,2.34,1.42.99,1.19-2.31ZM177.81,189.41l.56-1.11.31.22-.57,1.1-.31-.21Z"/><path class="b" d="M195.67,189.8l-1.19-.91-1.15,1.91,1.18.88,1.16-1.89ZM194.23,190.63l.45-.75.11.08-.45.74-.1-.07Z"/><path class="b" d="M238.11,224.31h.12l-.41-2.4-1.89-1.44.46,2.56,1.72,1.28ZM237.2,222.28l.1.58-.29-.22-.11-.59.3.23Z"/><path class="b" d="M237.73,221.34l-.46-2.73-1.94-1.51.5,2.8,1.9,1.44ZM236.64,218.98l.13.79-.33-.25-.15-.81.34.26Z"/><path class="b" d="M235.32,219.99l-1.78-1.35.5,2.62,1.74,1.3-.46-2.57ZM234.65,220.87l-.12-.63.17.13.11.63-.16-.12Z"/><polygon class="b" points="240.87 224.23 240.88 224.31 240.98 224.31 240.87 224.23"/><polygon class="b" points="238.43 222.37 238.76 224.31 239.44 224.31 239.38 223.94 239.65 224.14 239.68 224.31 240.36 224.31 240.27 223.77 238.43 222.37"/><polygon class="b" points="212.51 202.62 211.55 201.89 211.55 202.74 211.92 203.02 212.21 204.08 211.58 203.62 211.55 203.49 211.55 204.43 213.37 205.79 212.51 202.62"/><path class="b" d="M216.37,208.04l-.8-3.09-2.36-1.8.85,3.16,2.31,1.73ZM214.97,205.34l.26,1-.58-.44-.28-1.02.6.46Z"/><path class="b" d="M197.39,195.71l-.69,1.07.32.24c.13-.39.25-.82.37-1.3Z"/><polygon class="b" points="232.91 218.16 232.65 217.96 232.65 220.22 233.41 220.79 232.91 218.16"/><polygon class="b" points="217.53 208.91 217.53 207.72 217.39 207.19 217.53 207.29 217.53 206.45 216.25 205.47 217.05 208.55 217.53 208.91"/><path class="b" d="M118.27,183.11l-2.06.57-.34,1.8,2.04-.58.36-1.78ZM117.34,184.35l-.6.17.06-.31.6-.17-.06.31Z"/><polygon class="b" points="174.61 220.48 174.61 222.04 175.69 224.31 176.43 224.31 174.61 220.48"/><path class="b" d="M120.42,184.73l-2.06.59-.36,1.82,2.05-.61.38-1.8ZM119.47,186l-.59.18.06-.32.59-.17-.07.32Z"/><polygon class="b" points="116.12 181.4 115.11 181.67 115.11 182.37 115.26 182.33 115.19 182.71 115.11 182.73 115.11 183.43 115.77 183.24 116.12 181.4"/><path class="b" d="M158.98,219.34c-.19.1-.4.2-.62.28l2.54,4.67c.22-.07.43-.15.64-.23l-2.57-4.71Z"/><path class="b" d="M138.39,187.47l-4.7,15.59c.31-.16.6-.35.87-.54l3.85-12.79c0-.81,0-1.55-.02-2.26Z"/><path class="b" d="M136.41,200.56l1.82-6.04c.1-.92.15-1.89.18-2.92l-3.1,10.3c.42-.4.79-.85,1.11-1.34Z"/><path class="b" d="M161.75,212.74c-.03.41-.06.84-.1,1.27l3.71,7.18c.15-.2.3-.41.43-.63l-4.04-7.82Z"/><path class="b" d="M167.7,214.04c.04-.44.08-.87.11-1.31l-2.93-5.95h.01s-.03-.03-.03-.03l3.38-7.1c0-.1,0-.21,0-.3,0-.23,0-.68,0-1.29l-4.03,8.48-.5-.18,4.54-9.54c0-.48,0-1.02,0-1.58l-5.46,11.48h-.04s4.63,9.42,4.63,9.42c.07-.38.13-.76.19-1.15l-3.86-7.85.5-.15,3.47,7.06Z"/><path class="b" d="M162.17,207.82l6.1-13.21c0-.51,0-1.05,0-1.59l-6.2,13.43c-.03.83-.06,1.66-.09,2.48l4.82,9.54c.11-.3.2-.61.29-.92l-4.91-9.72Z"/><polygon class="b" points="121.09 184.54 120.98 184.57 120.61 186.36 121.09 186.22 121.09 184.54"/><path class="b" d="M120.91,182.38l-2.08.57-.36,1.78,2.06-.59.37-1.76ZM119.97,183.6l-.61.17.06-.29.61-.17-.06.28Z"/><path class="b" d="M130.73,197.9l-1.79,6.42c.26-.02.49-.04.72-.06l2.13-7.66c-.25.49-.59.92-1.06,1.3Z"/><path class="b" d="M132.28,186.41l.86-3.22-1.6.48c.11.19.21.4.29.62l.35-.1-.18.66c.12.46.21.98.28,1.58Z"/><path class="b" d="M238.76,201.13h.48l-.42-2.9-1.58-1.43-.6.66.33,2.06,1.8,1.61ZM238.18,198.58l.19,1.31-.78-.7-.21-1.34.8.73Z"/><path class="b" d="M264.65,203.48l-1.01-1.04-1.06.91.03.72,2.03,2.05-.06-2.03h.09s.06,2.12.06,2.12l1.44,1.46v-.96l-.78-.79-.02-.73.8.83v-.97l-1.52-1.57h0ZM263.28,203.78v-.14s.32-.28.32-.28l.3.31.02.76-.64-.65Z"/><path class="b" d="M279.9,196.19l-1.01-1.22-1.5,1.23,1.01,1.19,1.51-1.2ZM278.8,195.92l.15.17-.46.37-.14-.17.46-.37Z"/><path class="b" d="M281.3,197.88l-1.14-1.38-1.5,1.2,1.15,1.35,1.5-1.18ZM280.06,197.44l.28.34-.44.35-.28-.33.44-.36Z"/><path class="b" d="M278.63,194.67l-1.18-1.42-.06.05c-.06.36-.13.72-.22,1.07l.2-.17.31.38-.47.39-.16-.19c-.08.25-.17.48-.28.71l.36.42,1.51-1.24Z"/><polygon class="b" points="266.03 197.51 266.18 197.66 266.18 197.39 266.03 197.51"/><path class="b" d="M265.39,200.93l-1.44,1.23,1,1.04,1.44-1.21-1.01-1.06ZM264.93,202.21l.41-.35.07.08-.41.34-.07-.07Z"/><path class="b" d="M265.73,197.78l-1.52,1.33,1.2,1.27,1.51-1.3-1.2-1.3ZM265.19,199.15l.5-.44.28.3-.5.43-.28-.29Z"/><path class="b" d="M279.04,201.68c.5-.26,1.03-.61,1.53-1.1l-.82-.97-1.49,1.17.78.9ZM279.91,200.85l-.42.33-.26-.3.42-.33.26.3Z"/><path class="b" d="M187.09,175.8c-.17,0-.34-.01-.51-.02l-1.06,2.06,1.39,1.08,1.22-2.3-1.03-.82ZM186.68,177.9l-.31-.24.57-1.11.32.26-.58,1.09Z"/><path class="b" d="M272.69,201.97l-.99-1.09-1.45,1.19.92.99h.03l.02.06h0s1.46-1.15,1.46-1.15ZM271.63,201.81l.07.08-.41.33-.07-.08.4-.33Z"/><path class="b" d="M283.06,217.31l-.55-1.38-1.09-1.18-.14,2.37,1.67,1.76.11-1.57ZM282.38,217.3l-.41-.44.03-.49.42.45-.03.48Z"/><path class="b" d="M282.91,219.43l-1.66-1.76-.13,2.24,1.64,1.7.15-2.18ZM282.19,220.05l-.39-.4.02-.39.39.41-.03.38Z"/><polygon class="b" points="272.43 206.23 272.54 206.14 272.74 206.36 272.6 206.47 272.59 206.66 273.24 208.32 273.26 206.81 273.74 206.45 272.61 205.22 272.17 205.57 272.43 206.23"/><path class="b" d="M274.11,203.54l-1.15-1.27-1.45,1.16,1.16,1.25,1.45-1.14ZM272.88,203.19l.24.27-.39.31-.24-.26.39-.31Z"/><path class="b" d="M281.08,220.46l-.13,2.17,1.62,1.64.14-2.12-1.64-1.7ZM282.01,222.74l-.36-.36.02-.34.36.38-.02.33Z"/><polygon class="b" points="280.86 224.31 282.04 224.31 280.93 223.18 280.86 224.31"/><polygon class="b" points="283.13 217.5 283.03 218.97 284.21 220.21 283.13 217.5"/><path class="b" d="M279.03,191.4l-1.05-1.3-.38.33c0,.29,0,.6-.02.91l.32-.28.2.24-.5.42-.04-.04c-.02.32-.04.64-.08.96l.03.03,1.52-1.28Z"/><path class="b" d="M215.09,187.73l-1.33-1.14-1.38,1.96,1.33,1.1,1.38-1.92ZM213.29,188.42l.59-.84.3.26-.6.83-.29-.24Z"/><path class="b" d="M213.46,186.33l-1.36-1.17-.55.8v1.89l.53.44,1.38-1.96ZM211.63,187.04l.6-.88.33.28-.61.86-.32-.27Z"/><path class="b" d="M216.66,189.07l-1.28-1.09-1.38,1.92,1.27,1.05,1.39-1.88ZM214.92,189.78l.58-.81.24.21-.59.8-.24-.2Z"/><path class="b" d="M185.15,181.29c.17,0,.33,0,.49.01l1.08-2.03-1.39-1.08-1.19,2.32,1.01.77ZM185.56,179.23l.3.23-.58,1.09-.29-.22.56-1.1Z"/><polygon class="b" points="211.55 188.37 211.55 189.06 211.85 188.62 211.55 188.37"/><path class="b" d="M188.5,175.91c-.24-.03-.48-.05-.73-.07l.54.43.19-.36Z"/><path class="b" d="M217.53,191.25v-1.43l-.57-.49-1.38,1.87,1.23,1.02.73-.97ZM216.49,191.09l.58-.78.2.17-.58.77-.19-.16Z"/><path class="b" d="M234.22,194.07l-1.49,1.68,1.21,1.08,1.49-1.66-1.22-1.11ZM233.9,195.89l-.21-.19.59-.67.22.2-.59.66Z"/><polygon class="b" points="260.29 211.84 260.19 211.75 260.19 214.47 260.44 214.69 260.29 211.84"/><path class="b" d="M241.29,198.58l.5-.15.31,2.25.5.45h1.23l-.19-1.53-1.93-1.8v.11s-.12-.14-.12-.14l.04-.04-1.16-1.08-1.29,1.38,2.32,2.11-.21-1.56ZM243,199.93l.09.74-.36-.33-.1-.76.37.34ZM240.59,198.4l-.45-.4.36-.39.16.15h-.01s.22.24.22.24l-.33.1.04.3Z"/><path class="b" d="M262.17,200.91l-1.43,1.26,1.73,1.74.03-1.02.86-.74-1.19-1.23ZM261.97,202.45l-.25-.25.41-.36.25.26-.41.35Z"/><path class="b" d="M240.18,196.38l-.81-.75h-.67v-.41l-1.19,1.29,1.38,1.25,1.3-1.38ZM238.46,196.47l.38-.41.38.35-.38.4-.38-.35Z"/><path class="b" d="M265.11,200.64l-1.2-1.26-1.44,1.26,1.2,1.24,1.44-1.24ZM263.87,200.31l.26.28-.42.36-.26-.27.42-.37Z"/><polygon class="b" points="233.66 197.41 233.74 197.19 232.65 196.22 232.65 197.12 232.98 197.42 233.14 198.34 232.65 197.91 232.65 198.81 234.12 200.09 233.66 197.41"/><path class="b" d="M238.51,194.83l-1.21-1.13-1.3,1.44,1.2,1.09,1.3-1.41ZM236.96,195.1l.39-.43.22.2-.39.43-.21-.19Z"/><polygon class="b" points="217.53 191.89 217.1 192.47 217.53 192.82 217.53 191.89"/><path class="b" d="M282.69,196.79c.06-.21.12-.43.18-.66l-.89-1.09-1.52,1.21,1.15,1.38,1.07-.84ZM281.89,195.98l.29.35-.46.36-.29-.35.46-.37Z"/><path class="b" d="M280.85,200.29c.15-.16.29-.34.43-.53l-.25-.3.43-.34.14.17c.12-.2.24-.41.35-.63l-.39-.47-1.5,1.18.79.93Z"/><path class="b" d="M281.73,194.73l-1.02-1.25-1.52,1.24,1.02,1.22,1.52-1.22ZM280.62,194.43l.16.2-.47.38-.16-.19.47-.39Z"/><polygon class="b" points="266.18 196.85 266.18 195.95 265.81 196.27 265.51 195.95 265.96 195.54 266.18 195.78 266.18 194.77 266.02 194.59 264.55 195.9 265.76 197.21 266.18 196.85"/><path class="b" d="M264.25,196.17l-1.52,1.36,1.21,1.28,1.52-1.34-1.21-1.31ZM263.69,197.58l.51-.46.29.31-.51.45-.29-.31Z"/><path class="b" d="M280.46,193.16l-1.18-1.45-1.52,1.28,1.18,1.42,1.52-1.25ZM279.19,192.67l.33.4-.48.4-.33-.39.48-.4Z"/><path class="b" d="M193.81,184.79l-1.34-1.05-.82,1.45c.1.39.17.79.22,1.21l.69.53,1.25-2.14ZM192.11,185.74l.56-.98.26.2-.57.97-.25-.19Z"/><path class="b" d="M263.24,220.41l.1,2.66,1.38,1.23h.45l-.06-2.2-1.87-1.7ZM264.01,222.76l-.03-.77.47.43.02.76-.46-.41Z"/><path class="b" d="M277.26,212.88l.09-2.52-1.94-2.1-.07,2.6,1.92,2.02ZM276.04,209.93l.63.68-.02.64-.62-.65.02-.66Z"/><polygon class="b" points="269.04 203.06 270.61 203.06 269.93 202.33 269.04 203.06"/><polygon class="b" points="277.07 218.19 277.14 216.38 275.85 215.05 277.07 218.19"/><path class="b" d="M275.47,207.72l1.44-1.09-1.13-1.25-1.44,1.11,1.14,1.23ZM275.92,206.54l-.37.28-.22-.24.36-.28.22.25Z"/><path class="b" d="M275.48,214.08l1.68,1.74.09-2.37-1.91-2.02-.05,2.14.2.51ZM275.96,213.08l.6.63-.02.51-.59-.61v-.52Z"/><path class="b" d="M270.26,199.28l-1.46,1.22,1.18,1.27,1.46-1.2-1.17-1.3ZM269.77,200.56l.42-.35.26.29-.42.34-.26-.29Z"/><path class="b" d="M276.27,199.1l-1-1.15-1.48,1.21,1,1.12,1.48-1.18ZM275.19,198.89l.11.13-.43.35-.11-.12.43-.35Z"/><path class="b" d="M273.21,199.12l-.84-.95c-.25.02-.52.03-.83.04l-.97.82,1.18,1.3,1.47-1.2ZM271.96,198.73l.28.31-.43.35-.28-.31.43-.36Z"/><path class="b" d="M275.83,204.84l1.46-1.12-1.13-1.28-1.46,1.15,1.13,1.25ZM276.3,203.62l-.39.3-.23-.26.39-.31.23.26Z"/><path class="b" d="M277.68,200.73l-1.15-1.32-1.48,1.18,1.15,1.3,1.47-1.16ZM276.44,200.34l.26.3-.42.33-.26-.29.42-.34Z"/><polygon class="b" points="274.48 211.51 274.56 211.6 274.56 211.72 275.19 213.35 275.24 211.34 273.83 209.85 274.48 211.51"/><path class="b" d="M275,197.65l-.08-.09c-.52.3-1.07.47-2.06.57l.65.74,1.48-1.22Z"/><polygon class="b" points="278.86 222.8 278.94 221.17 277.76 219.98 278.86 222.8"/><polygon class="b" points="279.32 207.92 278.9 208.23 279.87 209.3 279.32 207.92"/><polygon class="b" points="279.17 207.54 278.91 206.89 278.72 207.03 278.5 206.78 278.78 206.57 278.52 205.92 277.5 206.69 278.63 207.93 279.17 207.54"/><polygon class="b" points="260.19 223.31 260.19 224.2 260.24 224.25 260.24 224.31 260.92 224.31 260.9 223.93 260.19 223.31"/><path class="b" d="M277.18,206.93l-1.44,1.08,1.64,1.77.02-.95.9-.66-1.12-1.24ZM276.95,208.33l-.21-.23.35-.26.21.23-.35.26Z"/><path class="b" d="M279.07,218.38l-1.85-1.91-.07,1.93.24.63,1.57,1.59.11-2.24ZM278.37,219.05l-.54-.55.02-.43.55.57-.02.41Z"/><polygon class="b" points="263.36 223.63 263.39 224.31 264.12 224.31 263.36 223.63"/><path class="b" d="M279.35,212.52l-1.92-2.07-.09,2.52,1.89,1.99.12-2.44ZM278.64,213.35l-.61-.64.02-.6.61.66-.03.58Z"/><path class="b" d="M279.21,215.52l-1.88-1.99-.08,2.37,1.86,1.92.11-2.3ZM278.5,216.24l-.57-.59.02-.48.58.61-.02.46Z"/><path class="b" d="M263.27,223.55l-1.99-1.77.1,2.04.56.48h1.36l-.03-.76ZM262.05,223.5v-.15s.56.51.56.51v.13s-.56-.49-.56-.49Z"/><path class="b" d="M268.49,200.76l-1.51,1.27.98,1.03h.45l1.25-1.03-1.17-1.27ZM267.96,202.08l.47-.39.25.27-.47.38-.25-.26Z"/><polygon class="b" points="249.23 222.71 249.41 224.31 250.09 224.31 250.09 224.28 250.12 224.31 250.9 224.31 250.87 224.05 249.23 222.71"/><polygon class="b" points="247.16 223.58 247.25 224.31 248.07 224.31 247.16 223.58"/><path class="b" d="M273.32,208.54l.12.31,1.82,1.92.07-2.6-1.31-1.42-.67.51-.02,1.29ZM274.01,207.73l.63.69-.02.7-.63-.66v-.72Z"/><path class="b" d="M252.55,219.78l-1.05-.9h-.66l.19,1.77,1.74,1.44-.21-2.31ZM251.67,220.3l-.05-.44.28.24.04.42-.28-.23Z"/><path class="b" d="M244.74,223.92l-.35-2.54-1.88-1.5.38,2.6,1.85,1.44ZM243.76,221.74l.09.64-.33-.26-.1-.65.34.27Z"/><polygon class="b" points="252.5 219.21 252.47 218.88 252.11 218.88 252.5 219.21"/><polygon class="b" points="238.7 210.41 238.7 207.93 238.22 207.52 238.68 210.39 238.7 210.41"/><path class="b" d="M236.6,214.68l-.45-2.64-2.04-1.66.49,2.71,1.99,1.59ZM235.53,212.4l.11.65-.42-.33-.12-.67.43.35Z"/><path class="b" d="M281,220.37l-1.84-1.91-.11,2.24,1.82,1.84.13-2.17ZM280.29,221l-.55-.56.02-.38.55.57-.02.37Z"/><polygon class="b" points="244.31 220.82 244.05 218.88 243.37 218.88 243.42 219.24 243.05 218.95 243.04 218.88 242.36 218.88 242.42 219.31 244.31 220.82"/><path class="b" d="M238.66,213.57l-.49-3.09-2.04-1.7.54,3.16,2,1.63ZM237.54,210.84l.17,1.1-.43-.35-.19-1.12.45.37Z"/><polygon class="b" points="254.51 220.93 254.51 218.9 254.51 218.88 253.84 218.88 253.89 219.51 253.7 219.35 253.66 218.88 252.98 218.88 253.05 219.68 254.51 220.93"/><path class="b" d="M274.06,206.2l1.45-1.11-1.13-1.25-1.45,1.14,1.13,1.22ZM274.52,205l-.38.29-.22-.24.38-.3.22.24Z"/><path class="b" d="M263.25,223l-.1-2.66-2.03-1.84.14,2.73,1.99,1.78ZM262.49,220.64l.03.8-.6-.53-.04-.82.61.55Z"/><polygon class="b" points="180.59 184.16 180.48 184.08 180.59 183.87 180.59 182.37 179.63 184.29 180.59 184.99 180.59 184.16"/><path class="b" d="M274.47,200.54l-.99-1.12-1.46,1.2.99,1.09,1.47-1.17ZM273.4,200.35l.09.1-.42.33-.09-.1.42-.34Z"/><polygon class="b" points="266.18 220.04 266.18 219.11 265.77 218.74 265.75 217.94 266.18 218.34 266.18 217.41 265.03 216.33 265.11 219.04 266.18 220.04"/><path class="b" d="M254.51,223.55v-2.09l-1.41-1.21.21,2.3,1.2,1ZM254.09,221.98l.03.36-.16-.13-.03-.37.16.14Z"/><path class="b" d="M269.32,198.24c-.26,0-.52,0-.8,0l-1,.86,1.02,1.1,1.46-1.23-.67-.74ZM268.48,199.16l.43-.37.11.12-.43.36-.11-.12Z"/><polygon class="b" points="254.51 224.06 253.37 223.11 253.48 224.31 254.51 224.31 254.51 224.06"/><polygon class="b" points="260.77 221.32 260.19 220.8 260.19 222.78 260.87 223.37 260.77 221.32"/><path class="b" d="M270.89,198.22c-.32,0-.66.01-1.04.01l.44.49.6-.5Z"/><path class="b" d="M275.89,202.14l-1.15-1.3-1.46,1.17,1.16,1.28,1.46-1.15ZM274.66,201.77l.25.28-.4.32-.25-.28.4-.32Z"/><path class="b" d="M263.13,219.77l-.08-2.1-2.06-1.92.11,2.17,2.03,1.85ZM262.39,217.98v.21s-.63-.58-.63-.58v-.23s.63.6.63.6Z"/><path class="b" d="M263.03,217.1l-.11-2.77-2.11-1.99.14,2.84,2.07,1.93ZM262.26,214.63l.03.87-.67-.63-.04-.89.69.65Z"/><path class="b" d="M197.7,194.07c.05-.31.09-.64.13-.97l-.1.15-.39-.29.45-.71.12.09c.02-.26.05-.52.07-.8l-.36-.28-1.17,1.85,1.26.95Z"/><polygon class="b" points="211.55 199.05 211.55 201.4 212.35 202.01 211.55 199.05"/><path class="b" d="M198.04,189.89c0-.31.02-.61.02-.93s0-.59-.01-.88l-.49-.38-1.27,2.07,1.23.94.52-.82ZM197.18,189.61l.56-.9.18.14-.57.89-.17-.13Z"/><polygon class="b" points="217.53 205.95 217.53 205.11 216.68 204.46 216.35 203.19 217.27 203.9 217.53 204.95 217.53 203.25 215.21 201.44 216.09 204.86 217.53 205.95"/><path class="b" d="M215.41,204.34l-.89-3.43-2.43-1.89.95,3.52,2.37,1.8ZM213.92,201.3l.34,1.32-.64-.49-.37-1.35.66.51Z"/><polygon class="b" points="232.65 216.77 232.65 217.47 232.8 217.59 232.65 216.77"/><path class="b" d="M191.92,186.94c.03.32.05.65.06.99l.38-.65-.44-.33Z"/><path class="b" d="M197.15,187.39l-1.21-.94-1.26,2.1,1.19.91,1.27-2.07ZM195.57,188.38l.56-.93.13.1-.57.92-.12-.09Z"/><path class="b" d="M195.54,186.14l-1.32-1.03-1.25,2.14,1.31,1,1.26-2.1ZM193.85,187.07l.56-.96.24.19-.57.95-.24-.18Z"/><path class="b" d="M236.05,211.45l-.54-3.17-2.09-1.74.58,3.24,2.04,1.67ZM234.89,208.63l.2,1.16-.46-.37-.21-1.18.47.39Z"/><path class="b" d="M251.09,221.21l.29,2.74.44.36h1.16l-.15-1.66-1.73-1.44ZM252.02,223.6l-.09-.81.24.2.07.8-.23-.18Z"/><path class="b" d="M242.3,222.03l-.38-2.62-.67-.53h-1.22l.25,1.58,2.02,1.57ZM241.28,219.77l.1.69-.49-.38-.11-.71.5.4Z"/><path class="b" d="M240.18,223.21l-.42-2.66-1.89-1.47.46,2.72,1.85,1.41ZM239.14,220.92l.12.74-.3-.23-.13-.75.31.24Z"/><polygon class="b" points="239.67 219.98 239.5 218.88 238.7 218.88 238.7 218.37 238.4 218.14 238.27 217.37 238.62 217.65 238.7 218.15 238.7 216.85 237.31 215.75 237.78 218.51 239.67 219.98"/><polygon class="b" points="242.97 223.05 243.16 224.31 244.59 224.31 242.97 223.05"/><path class="b" d="M235.21,219.42l-.51-2.81-1.82-1.42.54,2.87,1.79,1.36ZM234.09,216.99l.15.85-.2-.15-.16-.86.21.16Z"/><path class="b" d="M234.09,213.19l-1.44-1.15v1.92l.12.66,1.83,1.42-.52-2.85ZM233.39,214.24l-.17-.88.25.2.16.87-.24-.18Z"/><path class="b" d="M238.7,216.35v-2.23l-1.94-1.58.45,2.62,1.49,1.19ZM238.12,214.52l.09.58-.39-.31-.1-.6.4.32Z"/><path class="b" d="M237.17,218.03l-.47-2.77-1.99-1.58.51,2.84,1.94,1.51ZM236.07,215.63l.14.81-.37-.29-.15-.82.38.3Z"/><path class="b" d="M265.03,219.52l-1.89-1.76.08,2.09,1.87,1.7-.06-2.03ZM263.88,219.54v-.18s.49.46.49.46v.16s-.49-.45-.49-.45Z"/><path class="b" d="M281.16,217.58l-1.87-1.97-.11,2.3,1.85,1.91.13-2.24ZM280.45,218.25l-.58-.6.02-.43.58.61-.02.41Z"/><path class="b" d="M178.64,180.29l-1.43-1.07-1.16,2.44,1.41,1.03,1.18-2.41ZM176.9,181.45l.57-1.19.32.24-.58,1.18-.31-.23Z"/><path class="b" d="M177.29,183.05l-1.41-1.03-1.14,2.39,1.4.99,1.15-2.36ZM175.59,184.19l.55-1.15.3.22-.55,1.13-.29-.2Z"/><path class="b" d="M179.87,177.76l-1.44-1.1-1.05,2.2,1.43,1.07,1.06-2.18ZM178.22,178.66l.45-.96.34.26-.46.95-.34-.25Z"/><path class="b" d="M181.64,179.11l-1.34-1.02-1.06,2.17,1.33,1,1.08-2.14ZM180.09,180.05l.45-.93.25.19-.46.92-.24-.18Z"/><path class="b" d="M168,185.56l-5.89,13.1c0,.23,0,.46,0,.69,0,.3,0,.61,0,.92l5.97-13.28c-.03-.51-.06-.99-.1-1.43Z"/><path class="b" d="M190.77,182.43l-.27.49c.16.18.32.38.45.58l.03-.06.2.16-.09.16c.13.24.25.5.34.76l.62-1.09-1.28-1Z"/><path class="b" d="M166.13,183.38l.22.15-4.3,9.85c0,.55.01,1.09.02,1.64l5.12-11.73-1.35-.94-3.81,9c0,.56.02,1.12.02,1.68l4.08-9.65Z"/><path class="b" d="M168.21,189.69c-.01-.52-.03-1.04-.05-1.53l-6.02,13.39c0,.55,0,1.1-.01,1.67l6.08-13.52Z"/><polygon class="b" points="174.63 188.49 174.61 188.47 174.61 188.54 174.63 188.49"/><polygon class="b" points="175.96 185.76 174.61 184.79 174.61 186.26 174.84 185.78 175.11 185.98 174.61 187 174.61 188 174.8 188.14 175.96 185.76"/><path class="b" d="M197.99,191.07c0-.15.02-.3.02-.45l-.2.32.18.14Z"/><path class="b" d="M281.33,214.66l-1.89-2.05-.12,2.44,1.87,1.98.14-2.37ZM280.61,215.44l-.6-.64.03-.55.61.66-.03.53Z"/><path class="b" d="M163.99,181.07l-2.07,5.06c.04.56.06,1.11.07,1.61l2.31-5.64.26.18-2.56,6.06c0,.56.01,1.12.02,1.68l3.38-7.98-1.4-.98Z"/><path class="b" d="M214.36,200.29l-.91-3.52-1.25-1-.65.87v.37l.37,1.37,2.44,1.9ZM212.32,196.73l.53.42.36,1.38-.7-.54-.3-1.11.11-.15Z"/><path class="b" d="M197.99,186.99l-.23.38.26.2c0-.2-.02-.39-.03-.58Z"/><path class="b" d="M217.53,202.75v-.61l-.65-2.65-2.74-2.18.91,3.5,2.49,1.93ZM216.28,199.88l.32,1.29-.96-.74-.34-1.33.98.78Z"/><polygon class="b" points="281.5 213.39 281.45 214.19 282.09 214.89 281.5 213.39"/><polygon class="b" points="233.49 209.87 232.65 209.18 232.65 210.05 232.87 210.23 233 210.96 232.72 210.73 232.65 210.35 232.65 211.54 233.98 212.6 233.49 209.87"/><path class="b" d="M193.49,180.9l-1.29-1.03-1.23,2.22,1.28,1,1.24-2.19ZM191.83,181.9l.56-1.02.22.18-.57,1.01-.21-.17Z"/><path class="b" d="M197.92,186.14c-.07-.69-.16-1.34-.28-1.95l-.23-.18-1.26,2.1,1.21.94.56-.92ZM197.03,185.95l.56-.93.15.12-.57.92-.14-.11Z"/><path class="b" d="M281.42,213.2l-1.13-2.84-.7-.78v.02s-1.01-1.12-1.01-1.12l-.8.59h-.28s-.03.81-.03.81h0s0,.25,0,.25l.14-.1,1.78,1.93.1-2.11.1-.07-.11,2.27,1.9,2.06.05-.91ZM278.78,210.31l-.64-.69.34-.25.33.36-.02.58ZM280.78,212.48l-.63-.69.03-.54.64.7-.03.53Z"/><path class="b" d="M195.26,182.3l-1.36-1.08-1.24,2.18,1.35,1.05,1.25-2.15ZM193.53,183.23l.56-.99.29.23-.57.98-.28-.22Z"/><path class="b" d="M197.01,183.69l-1.34-1.07-1.25,2.14,1.33,1.03,1.26-2.11ZM195.29,184.6l.56-.96.27.22-.57.95-.26-.2Z"/><path class="b" d="M119.67,176.14l-2.13.51-.33,1.77,2.12-.53.35-1.74ZM118.74,177.34l-.68.17.06-.3.68-.16-.06.29Z"/><polygon class="b" points="119.28 175.69 117.71 175.69 117.64 176.08 119.28 175.69"/><polygon class="b" points="117.19 175.69 116.38 175.69 115.77 175.84 115.8 175.69 115.11 175.69 115.11 175.71 115.11 176.69 117.09 176.22 117.19 175.69"/><path class="b" d="M121.87,177.79l-2.11.53-.33,1.65,2.1-.56.34-1.62ZM120.95,178.87l-.65.17.03-.17.65-.16-.03.16Z"/><path class="b" d="M124.11,179.28l-2.14.57-.3,1.41c.45,0,.88,0,1.29,0l.76-.21.39-1.78ZM123.15,180.51l-.67.18.06-.3.67-.18-.07.3Z"/><path class="b" d="M116.98,176.79l-1.88.45v1.71l1.54-.39.33-1.77ZM116.07,178.01l-.72.18.06-.33.72-.17-.06.33Z"/><path class="b" d="M150.44,196.99l-6.03,16.07c.03.57.07,1.11.11,1.62l5.91-15.76c0-.69,0-1.33,0-1.92Z"/><path class="b" d="M144.67,184.97l1.63-4.98c-1.08,1.8-1.47,3.71-1.63,4.98Z"/><path class="b" d="M147.18,179.01l-2.66,8.17c-.03.69-.06,1.52-.08,2.43l3.28-10.05.75-.22-4.08,12.12c-.02.73-.03,1.49-.05,2.25l5.18-15.39-2.34.7Z"/><path class="b" d="M149.97,212.1l.22.73.39.7c-.05-.91-.06-1.85-.06-2.77l-.51,1.23-.05.11Z"/><path class="b" d="M126.29,180.9l-1.38.38c.47,0,.9.02,1.28.03l.1-.41Z"/><path class="b" d="M134.58,177.77c-.44-.36-.91-.65-1.41-.9l-.29.08-.43,1.7,2.05-.56.08-.31ZM133.94,177.54l-.56.15.05-.19.56-.15-.05.18Z"/><path class="b" d="M147.9,222.58l-2.84-4.69c.42,1.51,1.21,3.29,2.84,4.69Z"/><path class="b" d="M131.71,179.4l-2.07.57-.41,1.69,2.06-.59.43-1.67ZM130.73,180.53l-.57.16.04-.17.57-.16-.04.17Z"/><path class="b" d="M134.34,178.68l-2.04.56-.42,1.66,2.03-.58.44-1.65ZM133.35,179.78l-.53.15.04-.15.53-.15-.04.14Z"/><path class="b" d="M132.3,177.11l-2.09.55-.42,1.72,2.08-.57.43-1.71ZM131.31,178.26l-.59.16.05-.22.59-.16-.05.21Z"/><path class="b" d="M152.04,218.36c-.36-.42-.63-.92-.84-1.46l-2-3.49,1.32-3.3c0-.31,0-.62-.02-.93,0-.3-.01-.56-.02-.8l-2.03,5.09,6.6,11.51c.27,0,.54.01.79.01l-3.8-6.63Z"/><path class="b" d="M154.01,219.66l2.96,5.31c.25-.01.5-.03.75-.05l-2.82-5.05c-.32-.05-.62-.12-.89-.21Z"/><path class="b" d="M147.99,213.2l2.47-6.19c-.02-1.13-.02-1.84-.02-3.6l-4.44,11.55-.06.15,5.5,9.33c.31.09.61.17.92.23l-5.68-9.63.65-1.69.16.54,6.31,11c.28.03.55.05.81.06l-6.5-11.33-.13-.43Z"/><path class="b" d="M129.83,182.04c.14.08.27.16.41.25.23.15.43.31.62.49l.28-1.11-1.31.37Z"/><path class="b" d="M161.32,215.96l3.2,6.19c.17-.17.33-.35.49-.53l-3.47-6.72c-.06.36-.13.71-.21,1.06Z"/><path class="b" d="M156.16,219.97c-.28,0-.54-.02-.8-.04l2.76,4.94c.25-.03.49-.06.72-.1l-2.68-4.81Z"/><path class="b" d="M157.18,219.91l2.56,4.7c.23-.05.46-.11.68-.17l-2.54-4.66c-.22.06-.45.1-.7.13Z"/><path class="b" d="M133.74,180.93l-2.02.58-.43,1.68,2.01-.6.44-1.66ZM132.74,182.05l-.5.15.04-.15.5-.14-.04.15Z"/><path class="b" d="M136.36,180.18l-2.03.58-.44,1.65,2.02-.6.45-1.63ZM135.36,181.27l-.51.15.03-.12.51-.14-.03.12Z"/><path class="b" d="M145.46,214.85l4.97-12.92c0-.66,0-1.29,0-1.88l-5.68,14.77.22.73,4.89,8.29c.34.16.69.31,1.04.43l-5.3-9-.13-.43Z"/><path class="b" d="M136.83,180.48l-.32,1.15.8-.24c-.14-.31-.3-.61-.48-.92Z"/><path class="b" d="M135.85,179.07l-.41.12.03-.12.31-.09c-.16-.2-.33-.39-.5-.56l-.36.1-.44,1.64,1.8-.51s-.05-.07-.07-.1c-.12-.17-.24-.32-.36-.48Z"/><path class="b" d="M168.22,190.23l-6.09,13.2c0,.55-.02,1.11-.03,1.67l6.15-13.32c0-.52-.02-1.04-.03-1.55Z"/><path class="b" d="M180.39,181.6l-1.33-.99-1.17,2.4,1.31.96,1.19-2.37ZM178.74,182.8l.57-1.17.22.17-.58,1.15-.21-.15Z"/><path class="b" d="M179.02,184.32l-1.31-.96-1.15,2.35,1.29.92,1.16-2.31ZM177.43,185.5l.54-1.11.19.14-.55,1.1-.18-.13Z"/><polygon class="b" points="175.07 188.79 174.61 189.73 174.61 191.27 175.33 189.79 175.47 189.89 174.61 191.61 174.61 193.11 176.34 189.67 175.07 188.79"/><path class="b" d="M177.69,186.98l-1.29-.92-1.16,2.38,1.27.88,1.18-2.34ZM176.1,188.22l.56-1.14.17.12-.57,1.13-.16-.11Z"/><polygon class="b" points="116.54 179.13 115.11 179.49 115.11 180.19 115.69 180.04 115.64 180.28 115.11 180.42 115.11 181.12 116.23 180.82 116.54 179.13"/><path class="b" d="M119.2,178.46l-2.11.53-.32,1.68,2.09-.56.33-1.66ZM118.29,179.58l-.65.17.04-.21.66-.17-.04.2Z"/><path class="b" d="M118.75,180.7l-2.09.55-.34,1.84,2.07-.57.36-1.82ZM117.81,181.98l-.63.17.07-.36.63-.17-.07.35Z"/><polygon class="b" points="211.55 195.26 211.55 195.99 211.89 195.53 211.55 195.26"/><path class="b" d="M196.33,180.46c-.33-.59-.7-1.11-1.11-1.57l-1.13,1.98,1.36,1.08.87-1.5ZM194.97,180.7l.54-.95.31.25-.55.94-.3-.24Z"/><path class="b" d="M213.4,193.48l-1.25-1.02-.61.84v1.45l.58.46,1.28-1.73ZM211.81,194.1l.48-.66.19.16-.48.65-.19-.15Z"/><path class="b" d="M197.37,183.08c-.08-.3-.17-.59-.27-.86l-.08.13-.29-.23.21-.35c-.1-.27-.22-.52-.34-.76l-.75,1.28,1.35,1.07.16-.27Z"/><path class="b" d="M214.91,194.71l-1.21-.99-1.28,1.73,1.2.96,1.28-1.7ZM213.36,195.33l.47-.64.16.13-.47.63-.15-.12Z"/><path class="b" d="M193.08,177.2c-.56-.3-1.15-.54-1.76-.73l-.83,1.54,1.49,1.18,1.11-1.99ZM191.35,177.83l.55-1.02.43.35-.56,1-.42-.34Z"/><path class="b" d="M191.78,179.54l-1.48-1.18-1.22,2.26,1.47,1.15,1.23-2.22ZM189.94,180.43l.57-1.05.41.32-.57,1.03-.4-.31Z"/><path class="b" d="M181.9,181.26l.4-.8.37.28-.27.52c.26,0,.51,0,.76,0l.37-.72-1.47-1.12-.92,1.83c.26,0,.51,0,.75,0Z"/><path class="b" d="M194.85,178.5c-.41-.4-.85-.74-1.32-1.04l-1.14,2.05,1.3,1.03,1.16-2.05ZM193.26,179.34l.55-.98.24.2-.55.97-.23-.19Z"/><polygon class="b" points="260.6 218.02 260.19 217.65 260.19 220.26 260.74 220.75 260.6 218.02"/><path class="b" d="M234.9,204.67l-2.15-1.84.56,3.09,2.1,1.74-.51-3ZM233.93,205.57l-.18-.99.52.45.16.96-.51-.42Z"/><polygon class="b" points="246.16 219.69 246.05 218.88 245.15 218.88 246.16 219.69"/><path class="b" d="M248.59,221.68l-.32-2.8h0s-1.7,0-1.7,0l.16,1.29,1.86,1.52ZM247.64,219.22l.1.89-.37-.3-.11-.91.38.32Z"/><path class="b" d="M250.52,220.75l-1.68-1.4.32,2.8,1.65,1.35-.29-2.75ZM249.8,221.8l-.1-.86.18.15.09.85-.17-.14Z"/><polygon class="b" points="250.47 220.18 250.33 218.88 248.89 218.88 250.47 220.18"/><path class="b" d="M244.9,221.28l1.62,1.29-.29-2.3-1.65-1.35.32,2.37ZM245.59,220.61l.05.4-.11-.09-.05-.4.12.09Z"/><path class="b" d="M237.52,206.39l-.52-3.27-2.15-1.87.57,3.34,2.11,1.8ZM236.37,203.47l.19,1.22-.53-.45-.21-1.24.55.48Z"/><polygon class="b" points="238.7 207.4 238.7 206.21 238.57 205.38 238.7 205.5 238.7 204.6 237.61 203.66 238.13 206.91 238.7 207.4"/><path class="b" d="M238.07,209.89l-.46-2.89-2.1-1.79.51,2.98,2.05,1.7ZM236.99,207.35l.14.88-.48-.4-.15-.9.49.42Z"/><polygon class="b" points="232.79 206.02 232.65 205.9 232.65 208.67 233.38 209.27 232.79 206.02"/><path class="b" d="M150.57,187.86c.01-.25.03-.53.05-.83l-6.38,17.75c0,.64,0,1.3,0,1.98l6.25-17.39c.02-.51.04-.97.07-1.51Z"/><path class="b" d="M144.28,197.67l6.39-18.99.54-.16-6.94,19.88c0,.78-.01,1.49-.02,2.1l8.02-23.01-2.14.64-5.83,17.33c-.01.76-.02,1.5-.03,2.21Z"/><path class="b" d="M150.16,176.39c-1.07.55-1.93,1.22-2.63,1.96l2.18-.65.44-1.31Z"/><path class="b" d="M162.7,176.31l-.39-.28c-.37-.16-.76-.31-1.18-.44l-.92,2.38,1.42.99,1.06-2.66ZM161.04,177.73l.54-1.4.31.22-.55,1.38-.29-.2Z"/><path class="b" d="M150.44,193.54l-3.74,9.97,3.74-10.42c0-.83,0-1.49.02-2.04l-6.2,17.25c.01,1.16.04,2.32.08,3.41l6.09-16.24c0-.72,0-1.37,0-1.93Z"/><path class="b" d="M160.62,175.45c-.22-.06-.44-.11-.66-.15l-.51,1.32-.52-.36.4-1.07c-.22-.03-.45-.06-.69-.09l-.53,1.41,1.65,1.15.85-2.21Z"/><path class="b" d="M127.32,176.42l-2.17.55-.35,1.58,2.16-.57.36-1.55ZM126.4,177.43l-.7.18.02-.09.69-.17-.02.08Z"/><path class="b" d="M129.63,177.81l-2.23.59-.4,1.75,2.21-.61.42-1.73ZM128.65,179l-.74.2.06-.25.74-.2-.06.24Z"/><path class="b" d="M130.6,176.05l-.25,1.02,2.04-.54c-.56-.21-1.16-.36-1.79-.48Z"/><path class="b" d="M183.01,176.39l-.81-.63h-.77l-.96,1.97,1.35,1.03,1.19-2.37ZM181.32,177.53l.57-1.16.27.21-.58,1.15-.26-.2Z"/><path class="b" d="M130.08,175.96c-.2-.03-.39-.06-.6-.08l-1.6.4-.36,1.54,2.24-.6.31-1.27ZM129.22,176.68l-.77.21v-.05s.78-.19.78-.19v.04Z"/><polygon class="b" points="178.27 175.76 177.89 175.76 178.17 175.98 178.27 175.76"/><path class="b" d="M178,176.33l-.75-.57h-1.02l-.77,1.67,1.49,1.12,1.05-2.21ZM176.3,177.21l.45-.98.4.31-.46.97-.4-.3Z"/><path class="b" d="M176.78,178.9l-1.49-1.11-.68,1.48v1.35l1.01.74,1.16-2.45ZM174.99,180.05l.57-1.23.38.28-.58,1.21-.37-.27Z"/><polygon class="b" points="180.85 175.76 180.1 175.76 179.8 176.37 179.44 176.1 179.6 175.76 178.85 175.76 178.6 176.3 180.05 177.4 180.85 175.76"/><path class="b" d="M162.11,197.96l5.8-13.31c-.03-.28-.08-.6-.13-.94l-.15-.1-5.54,12.71c0,.55.01,1.09.02,1.64Z"/><path class="b" d="M164.76,177.78l-1.61-1.15-1.06,2.66,1.6,1.11,1.07-2.62ZM162.91,179.03l.54-1.36.48.34-.55,1.35-.47-.33Z"/><polygon class="b" points="174.61 181.09 174.61 183.47 175.45 181.71 174.61 181.09"/><path class="b" d="M166.4,179.67c-.3-.52-.66-1.03-1.1-1.51l-.09-.07-1.07,2.61,1.41.98.85-2.02ZM164.96,180.46l.54-1.33.29.21-.56,1.31-.28-.2Z"/><path class="b" d="M167.53,182.52c-.08-.33-.18-.66-.3-1l-.18.41-.24-.16.27-.64c-.11-.28-.23-.57-.37-.85l-.73,1.73,1.36.95.19-.43Z"/><path class="b" d="M276.81,196.16l-.24-.28c-.32.58-.74,1.08-1.3,1.46l.04.05,1.5-1.23Z"/><path class="b" d="M266.71,198.25l.52.56.66-.57c-.37,0-.76,0-1.18,0Z"/><path class="b" d="M267.2,199.37l-1.51,1.3,1.01,1.07,1.51-1.27-1.01-1.1ZM266.67,200.72l.48-.41.09.1-.48.41-.09-.09Z"/><path class="b" d="M278.08,197.65l-1.01-1.18-1.5,1.23,1,1.16,1.5-1.2ZM276.99,197.41l.13.15-.45.36-.13-.14.45-.37Z"/><path class="b" d="M279.49,199.3l-1.15-1.35-1.5,1.2,1.15,1.33,1.49-1.17ZM278.25,198.89l.27.32-.44.34-.27-.31.44-.35Z"/><polygon class="b" points="265.23 203.49 266.18 204.47 266.18 203.06 267.4 203.06 266.67 202.29 265.23 203.49"/><path class="b" d="M264.92,215.67l-.07-2.49-1.96-1.89.1,2.55,1.93,1.83ZM264.18,213.48l.02.58-.55-.52-.02-.6.55.53Z"/><path class="b" d="M265.02,218.96l-.08-2.72-1.93-1.82.11,2.77,1.9,1.77ZM264.27,216.54l.02.83-.52-.48-.03-.84.52.5Z"/><polygon class="b" points="266.18 215.93 265.68 215.46 265.66 214.91 266.18 215.4 266.18 214.47 264.94 213.27 265.01 215.75 266.18 216.86 266.18 215.93"/><path class="b" d="M277.24,206.39l1.13-.85-.43-1.08-.39-.44-1.45,1.12,1.14,1.26ZM277.7,205.2l-.38.28-.24-.26.38-.29.24.27Z"/><path class="b" d="M277.5,203.35l-.39-.97c.1-.03.22-.06.34-.09h0s.4-.32.4-.32l.14.16c.21-.07.44-.15.67-.26l-.72-.83-1.47,1.16,1.03,1.16Z"/><path class="b" d="M262.9,213.76l-.1-2.55-2.15-2.08.13,2.63,2.11,2ZM262.14,211.5l.02.63-.72-.68-.03-.65.73.7Z"/><path class="b" d="M150.82,185.34c.17-1,.47-2.05,1.03-2.95l1.58-4.53.55-.16-1.33,3.71c.28-.26.6-.48.96-.67l1.46-4.07-2.16.64-8.66,24.82c0,.64,0,1.33,0,2.05l6.57-18.84Z"/><path class="b" d="M126.83,178.56l-2.15.57-.39,1.77,2.13-.59.41-1.75ZM125.86,179.77l-.67.18.06-.28.67-.18-.06.27Z"/><path class="b" d="M122.31,175.69h-.76l-1.33.32-.35,1.74,2.12-.53.32-1.52ZM121.41,176.67l-.67.17.05-.27.67-.16-.05.26Z"/><path class="b" d="M124.59,177.11l-2.16.54-.34,1.61,2.15-.57.35-1.59ZM123.67,178.15l-.69.18.03-.13.69-.17-.03.12Z"/><path class="b" d="M206.76,176.8l-1.34,2.12,1.51,1.29,1.35-2.1-1.52-1.32ZM206.77,179.2l-.48-.41.61-.97.48.42-.62.96Z"/><polygon class="b" points="204.78 181.19 205.35 180.28 205.82 180.68 205.49 181.19 206.29 181.19 206.7 180.55 205.2 179.27 203.98 181.19 204.78 181.19"/><polygon class="b" points="206.74 181.19 207.45 181.19 206.99 180.8 206.74 181.19"/><polygon class="b" points="215.36 175.76 214.64 175.76 215.09 176.17 215.36 175.76"/><polygon class="b" points="218.08 175.81 218.03 175.76 217.04 175.76 217.19 175.91 216.66 176.68 216.26 176.32 216.63 175.76 215.82 175.76 215.37 176.42 216.78 177.7 218.08 175.81"/><path class="b" d="M206.47,176.55l-.91-.79h-.67l-1.09,1.78,1.33,1.14,1.34-2.13ZM204.67,177.4l.61-.99.31.27-.62.98-.3-.26Z"/><polygon class="b" points="204.29 175.76 203.5 175.76 203.24 176.18 203.01 175.98 203.14 175.76 202.36 175.76 202.33 175.8 202.33 176.29 203.4 177.21 204.29 175.76"/><path class="b" d="M219.76,177.38l-1.4-1.3-1.3,1.89,1.4,1.27,1.3-1.85ZM217.95,177.85l.52-.76.4.37-.52.75-.4-.36Z"/><path class="b" d="M249.65,197.93l1.42-1.39-.92-.9h-.38l-1.23,1.23,1.1,1.07ZM250.11,196.53l-.46.45-.14-.13.46-.46.14.14Z"/><polygon class="b" points="238.7 182.58 238.16 183.22 238.7 183.75 238.7 182.58"/><polygon class="b" points="260.22 188.18 260.19 188.21 260.19 189.16 260.57 189.58 260.19 189.94 260.19 190.87 261.51 189.61 260.22 188.18"/><path class="b" d="M252.11,198.6v-1.04l-.75-.74-1.42,1.39,1.28,1.24.89-.85ZM251.36,197.77l.32.31-.45.43-.31-.3.45-.44Z"/><path class="b" d="M238.7,181.96v-.77h.65l.05-.06-1.3-1.32-1.52,1.84,1.3,1.29.82-.98ZM237.49,181.61l.65-.79.35.35-.65.77-.35-.34Z"/><path class="b" d="M237.62,183.25l-1.3-1.28-1.41,1.71,1.3,1.26,1.41-1.68ZM235.82,183.62l.54-.66.33.33-.55.65-.33-.32Z"/><polygon class="b" points="234.36 183.71 232.99 182.38 232.65 182.8 232.65 183.87 233.05 183.38 233.44 183.76 232.89 184.42 232.65 184.19 232.65 185.12 232.95 185.41 234.36 183.71"/><polygon class="b" points="232.65 185.67 232.65 185.78 232.7 185.72 232.65 185.67"/><path class="b" d="M236.03,181.69l-1.38-1.36-1.41,1.74,1.37,1.33,1.41-1.71ZM234.16,182.01l.55-.68.41.4-.56.67-.41-.39Z"/><path class="b" d="M192.83,194.43l-1.09-.8c-.16.83-.41,1.63-.81,2.32l.67.47,1.23-2ZM191.35,195.42l.52-.86.06.04-.53.86-.05-.04Z"/><path class="b" d="M180.83,201.71l1.92-3.46c-.25,0-.5,0-.77,0l-1.9,3.42.58,1.39h.73l-.56-1.35Z"/><path class="b" d="M194.43,195.6l-1.19-.87-1.22,1.99,1.17.84,1.24-1.96ZM192.92,196.54l.51-.83.09.07-.52.83-.08-.06Z"/><polygon class="b" points="211.61 208.17 211.55 208.12 211.55 210.64 212.49 211.31 211.61 208.17"/><polygon class="b" points="175.46 203.07 180.56 193.44 180.59 193.46 180.59 192.63 180.32 192.45 174.71 203.04 180.59 216.45 180.59 214.77 175.46 203.07"/><polygon class="b" points="115.31 188.49 115.11 189.58 115.11 193.23 115.9 189.02 116.44 188.86 115.11 195.52 115.11 198.96 117.32 187.9 115.31 188.49"/><polygon class="b" points="177.95 202.58 180.59 197.7 180.59 196.28 177.2 202.54 180.59 210.48 180.59 208.76 177.95 202.58"/><polygon class="b" points="121.09 209.97 117.59 224.31 118.29 224.31 121.09 212.82 121.09 209.97"/><path class="b" d="M215.42,213.4l-.82-3.04-2.3-1.68.88,3.12,2.25,1.6ZM214.01,210.76l.27.99-.52-.37-.28-1.02.54.39Z"/><polygon class="b" points="121.09 218.33 119.56 224.31 120.26 224.31 121.09 221.06 121.09 218.33"/><polygon class="b" points="285.51 223.49 285.42 223.39 285.43 223.27 284.87 221.86 284.72 223.64 285.37 224.31 285.84 224.31 285.51 223.49"/><path class="b" d="M217.53,214.9v-2.4s-2.24-1.63-2.24-1.63l.82,3.02,1.42,1.01ZM216.93,212.9l.24.92-.47-.34-.25-.94.49.36Z"/><path class="b" d="M263.28,187.92l-1.3-1.46-1.48,1.45,1.3,1.43,1.48-1.42ZM261.95,187.43l.4.45-.51.49-.4-.44.51-.5Z"/><path class="b" d="M281.68,180.06c-.12-.2-.25-.38-.38-.56l-.47.42-.31-.41.46-.42c-.15-.17-.3-.34-.45-.5l-.91.84,1.13,1.48.94-.84Z"/><path class="b" d="M282.72,182.31c-.08-.23-.16-.46-.25-.68l-.2.17-.38-.5.31-.28c-.1-.21-.21-.42-.32-.62l-.91.81,1.2,1.57.55-.48Z"/><path class="b" d="M280.22,178.31c-.17-.15-.34-.3-.52-.44l-.25.23-.45-.59.08-.07c-.2-.12-.41-.24-.62-.35l-.36.34,1.27,1.66.86-.79Z"/><path class="b" d="M279.07,179.37l-1.27-1.66-1.61,1.5,1.27,1.63,1.6-1.47ZM277.72,178.71l.44.58-.61.56-.44-.56.61-.57Z"/><path class="b" d="M282.86,182.73l-.44.38.79,1.04c-.1-.5-.22-.97-.36-1.42Z"/><path class="b" d="M265.08,186.2l-1.3-1.5-1.5,1.46,1.3,1.47,1.5-1.43ZM263.74,185.69l.41.47-.53.51-.41-.46.53-.52Z"/><path class="b" d="M275.9,179.48l-1.58,1.48,1.06,1.33c.09.06.18.13.27.2l1.51-1.39-1.27-1.62ZM275.24,181.03l.59-.55.43.55-.59.54-.43-.54Z"/><path class="b" d="M266.18,185.15v-1.52l-.59-.69-1.52,1.48,1.3,1.5.81-.77ZM265.54,183.93l.42.5-.55.52-.42-.49.55-.53Z"/><polygon class="b" points="266.18 185.71 265.64 186.23 266.18 186.85 266.18 185.71"/><polygon class="b" points="261.72 186.15 260.58 184.87 260.19 185.26 260.19 186.21 260.55 185.85 260.79 186.12 260.26 186.63 260.19 186.55 260.19 187.56 260.23 187.6 261.72 186.15"/><path class="b" d="M263.51,184.4l-1.14-1.32-1.5,1.5,1.14,1.29,1.5-1.47ZM262.34,184.07l.25.29-.54.53-.25-.28.54-.54Z"/><polygon class="b" points="252.11 196.09 251.65 196.54 252.11 196.99 252.11 196.09"/><path class="b" d="M265.32,182.64l-1.14-1.35-1.52,1.51,1.14,1.32,1.52-1.48ZM264.14,182.28l.27.31-.56.55-.26-.3.56-.55Z"/><path class="b" d="M266.18,181.8v-.54c.19,0,.37,0,.55,0l.42-.41-1.15-1.38-1.53,1.53,1.15,1.35.56-.55ZM265.95,180.47l.28.34-.57.56-.28-.33.57-.57Z"/><path class="b" d="M239.5,177.49l-1.39-1.44-1.43,1.77,1.39,1.4,1.44-1.74ZM237.59,177.77l.57-.71.44.46-.58.7-.44-.44Z"/><polygon class="b" points="240.85 181.07 241.4 180.42 241.79 180.82 241.46 181.19 242.35 181.19 242.7 180.79 241.37 179.41 239.94 181.11 240.02 181.19 240.97 181.19 240.85 181.07"/><polygon class="b" points="252 195.63 250.73 195.63 251.36 196.25 252 195.63"/><path class="b" d="M241.09,179.12l-1.31-1.35-1.43,1.73,1.31,1.32,1.43-1.7ZM239.26,179.47l.56-.68.36.37-.57.67-.36-.36Z"/><path class="b" d="M273.69,181.55c.29.06.54.14.77.24l-.44-.55-.33.31Z"/><path class="b" d="M278.07,176.9c-.18-.08-.37-.16-.55-.23l.33.44.22-.21Z"/><polygon class="b" points="266.18 182.37 265.88 182.66 266.18 183.01 266.18 182.37"/><path class="b" d="M274.53,177.73l-1.58,1.51,1.12,1.4,1.58-1.48-1.12-1.44ZM273.86,179.3l.6-.57.28.36-.6.56-.28-.35Z"/><path class="b" d="M277.55,177.38l-.72-.94c-.25-.07-.49-.14-.75-.2l-1.27,1.21,1.12,1.44,1.61-1.51ZM276.35,176.92l.29.39-.63.59-.29-.38.62-.6Z"/><path class="b" d="M237.81,179.54l-1.38-1.4-1.52,1.88,1.38,1.36,1.52-1.84ZM235.82,179.96l.66-.82.43.43-.66.8-.42-.42Z"/><polygon class="b" points="232.65 182.05 232.65 182.18 232.7 182.11 232.65 182.05"/><polygon class="b" points="234.37 180.05 233.13 178.82 232.65 179.42 232.65 180.51 233.19 179.83 233.46 180.1 232.9 180.79 232.65 180.55 232.65 181.49 232.96 181.79 234.37 180.05"/><polygon class="b" points="221.3 180.9 221.81 180.2 222.14 180.51 221.64 181.19 222.48 181.19 223.04 180.43 221.7 179.18 220.4 180.99 220.63 181.19 221.63 181.19 221.3 180.9"/><path class="b" d="M236.15,177.85l-1.26-1.27-1.51,1.92,1.25,1.23,1.52-1.88ZM234.28,178.44l.67-.85.3.3-.67.83-.29-.29Z"/><path class="b" d="M220.12,180.73l1.3-1.81-1.38-1.28-1.3,1.85,1.37,1.25ZM220.15,178.66l.38.35-.51.72-.37-.34.51-.73Z"/><polygon class="b" points="206.97 175.76 206.17 175.76 206.69 176.21 206.97 175.76"/><polygon class="b" points="220.9 175.76 220.07 175.76 219.89 176.02 219.61 175.76 218.62 175.76 219.99 177.04 220.9 175.76"/><polygon class="b" points="115.11 186.24 115.11 186.78 115.21 186.21 115.11 186.24"/><polygon class="b" points="115.66 183.83 115.11 183.98 115.11 185.69 115.32 185.63 115.66 183.83"/><path class="b" d="M283.61,190.58c.02-.38.02-.78.03-1.18l-.63-.81-1.56,1.31,1.18,1.49.98-.8ZM282.9,189.56l.35.45-.52.43-.35-.44.52-.44Z"/><path class="b" d="M283.58,191.12l-.7.58.6.76c.04-.43.07-.88.1-1.34Z"/><path class="b" d="M117.8,185.48l-2.03.58-.35,1.85,2.01-.6.37-1.83ZM116.85,186.78l-.57.17.07-.36.57-.16-.07.35Z"/><polygon class="b" points="121.06 187.49 121.09 187.48 121.09 186.77 120.49 186.95 115.11 212.71 115.11 216.01 121.06 187.49"/><path class="b" d="M124.44,199.07h-.69l-1.31,5.36c.24,0,.46,0,.69,0l1.31-5.36Z"/><path class="b" d="M247.97,196.86l-1.13-1.09-1.41,1.44,1.13,1.07,1.42-1.42ZM246.38,197.19l.47-.47.16.15-.47.47-.15-.14Z"/><polygon class="b" points="121.09 224.31 121.09 223.18 120.8 224.31 121.09 224.31"/><path class="b" d="M126.7,199.04c-.23,0-.46.02-.7.02l-1.37,5.37c.24,0,.47,0,.7,0l1.37-5.38Z"/><path class="b" d="M262.14,197.51l-1.06-1.12-.89.82v1.08l.5.52,1.45-1.29ZM261.05,197.34l.13.13-.45.4-.12-.13.44-.41Z"/><path class="b" d="M127.97,198.94c-.23.03-.46.05-.71.07l-1.38,5.41c.25,0,.47,0,.7-.01l1.39-5.47Z"/><path class="b" d="M282.75,188.27l-1.07-1.37-1.56,1.34,1.06,1.34,1.56-1.31ZM281.59,187.88l.23.3-.54.45-.23-.29.53-.46Z"/><polygon class="b" points="260.19 198.87 260.19 199.25 260.39 199.08 260.19 198.87"/><path class="b" d="M237.25,190.03l-1.08-1.02-1.48,1.72,1.07,1,1.49-1.69ZM235.62,190.67l.59-.69.1.09-.6.68-.09-.08Z"/><polygon class="b" points="178.62 191.26 174.61 199.06 174.61 200.53 178.86 192.25 179.02 192.36 174.61 200.68 174.61 202.12 179.89 192.15 178.62 191.26"/><polygon class="b" points="238.7 188.99 237.81 190 238.7 190.85 238.7 188.99"/><path class="b" d="M238.7,188.38v-.48l-.87-.84-1.4,1.64,1.09,1.03,1.18-1.34ZM237.36,188.65l.52-.6.12.12-.53.6-.11-.11Z"/><polygon class="b" points="174.61 205.8 180.59 219.43 180.59 217.75 174.61 204.12 174.61 205.8"/><polygon class="b" points="246.4 195.63 245.46 195.63 245.11 195.99 244.95 195.83 245.14 195.63 244.21 195.63 243.99 195.86 245.13 196.94 246.4 195.63"/><polygon class="b" points="115.42 224.31 121.09 198.55 121.09 195.41 115.11 222.57 115.11 224.31 115.42 224.31"/><path class="b" d="M279.98,184.72l-1.2-1.54-1.57,1.41,1.2,1.51,1.57-1.38ZM278.7,184.17l.36.46-.56.49-.36-.46.56-.5Z"/><polygon class="b" points="122.08 199.07 121.39 199.07 115.56 224.31 116.25 224.31 122.08 199.07"/><path class="b" d="M277.25,185.28c.12.51.2,1.05.25,1.61l.61-.53-.86-1.08Z"/><polygon class="b" points="121.09 189.86 115.11 217.02 115.11 220.15 121.09 192.99 121.09 189.86"/><path class="b" d="M261.38,193.07l-1.19,1.11v.68l.91.96,1.53-1.4-1.25-1.35ZM260.81,194.53l.54-.51.33.36-.54.5-.33-.35Z"/><path class="b" d="M281.44,186.59l-1.21-1.55-1.57,1.38,1.21,1.52,1.57-1.35ZM280.14,186.01l.38.48-.55.47-.38-.47.55-.48Z"/><path class="b" d="M264.4,192.81l-1.25-1.39-1.47,1.37,1.25,1.36,1.47-1.34ZM263.1,192.38l.34.38-.48.44-.34-.37.48-.45Z"/><path class="b" d="M266.18,191.18l-1.26-1.42-1.48,1.38,1.26,1.39,1.48-1.36ZM264.87,190.73l.36.4-.49.45-.36-.39.49-.46Z"/><polygon class="b" points="266.18 189.55 266.15 189.53 266.18 189.51 266.18 188.58 265.21 189.48 266.18 190.57 266.18 189.55"/><path class="b" d="M122.62,199.07l-1.24,5.36c.24,0,.47,0,.69,0l1.24-5.36h-.69Z"/><polygon class="b" points="244.23 200.15 244.35 201.13 245.28 201.13 244.23 200.15"/><path class="b" d="M243.68,198.45l1.17-1.23-1.14-1.08-1.51,1.57,1.3,1.21.17-.48ZM243.16,197.69l.57-.59.15.14-.58.59-.15-.14Z"/><polygon class="b" points="238.7 193.54 238.52 193.37 238.7 193.17 238.7 192.16 237.58 193.41 238.7 194.46 238.7 193.54"/><path class="b" d="M245.87,201.13h.37l-.23-2.05.2-.56-1.08-1.02-1.11,1.13.11.9,1.73,1.61ZM245.16,198.45l.27.26-.11.3.09.79-.63-.59-.04-.33.41-.42Z"/><polygon class="b" points="240.88 195.63 239.96 195.63 240.46 196.09 240.88 195.63"/><path class="b" d="M235.49,192.02l-1.07-.99-1.3,1.51,1.06.96,1.31-1.48ZM234.07,192.48l.41-.48.07.07-.42.48-.07-.06Z"/><path class="b" d="M237.01,193.44l-1.23-1.14-1.3,1.48,1.23,1.11,1.3-1.45ZM235.43,193.72l.4-.46.23.22-.41.45-.23-.21Z"/><path class="b" d="M238.7,191.56v-.16l-1.16-1.1-1.49,1.69,1.23,1.14,1.42-1.57ZM236.99,191.95l.59-.67.25.24-.6.66-.25-.23Z"/><path class="b" d="M277.72,189.79l-.13-.16s0,.01,0,.02c0,.08,0,.17,0,.25l.13-.11Z"/><polygon class="b" points="266.18 193.91 266.18 193 266.1 193.08 265.92 192.88 266.18 192.64 266.18 191.73 264.97 192.83 266.05 194.02 266.18 193.91"/><path class="b" d="M265.74,194.29l-1.07-1.19-1.47,1.34,1.07,1.16,1.47-1.31ZM264.63,194.06l.16.18-.47.42-.16-.17.47-.43Z"/><polygon class="b" points="260.19 209.84 260.19 211.19 260.26 211.26 260.19 209.84"/><path class="b" d="M280.88,189.84l-1.06-1.33-1.55,1.33,1.06,1.3,1.55-1.3ZM279.73,189.48l.21.27-.52.44-.21-.26.52-.45Z"/><path class="b" d="M279.57,188.2l-1.21-1.52-.82.72c.03.53.04,1.06.05,1.6l.43.53,1.55-1.33ZM278.27,187.65l.36.46-.53.46-.36-.45.53-.47Z"/><path class="b" d="M262.91,194.72l-1.53,1.4,1.06,1.12,1.53-1.37-1.07-1.15ZM262.34,196.15l.53-.48.15.16-.53.47-.14-.15Z"/><path class="b" d="M261.89,200.62l-1.21-1.25-.48.43v1.82l.26.26,1.43-1.26ZM260.64,200.3l.27.28-.42.37-.27-.27.42-.38Z"/><path class="b" d="M263.63,199.08l-1.21-1.28-1.44,1.29,1.22,1.26,1.44-1.27ZM262.38,198.74l.28.3-.43.38-.28-.29.43-.39Z"/><polygon class="b" points="232.87 192.84 232.65 193.1 232.65 194.13 232.93 193.81 232.98 193.86 232.65 194.23 232.65 195.25 233.92 193.8 232.87 192.84"/><path class="b" d="M243.42,195.87l-.25-.24h-1.73l-.69.73,1.16,1.08,1.51-1.57ZM241.7,196.33l.58-.61.18.17-.58.61-.18-.17Z"/><polygon class="b" points="217.53 188.55 217.19 189 217.53 189.29 217.53 188.55"/><path class="b" d="M215.07,184.04l-1.38-1.2-1.37,2,1.37,1.17,1.38-1.97ZM213.22,184.72l.6-.87.35.3-.61.86-.34-.29Z"/><path class="b" d="M213.41,182.59l-1.38-1.2-.48.72v2.06l.49.42,1.37-2ZM211.56,183.3l.6-.9.35.3-.61.88-.34-.29Z"/><path class="b" d="M216.71,185.47l-1.35-1.17-1.38,1.96,1.34,1.14,1.39-1.93ZM214.89,186.14l.6-.85.32.28-.6.84-.31-.27Z"/><path class="b" d="M217.53,187.89v-1.71l-.53-.46-1.39,1.93,1.28,1.1.63-.86ZM216.52,187.54l.6-.83.27.23-.6.82-.26-.22Z"/><polygon class="b" points="211.55 184.7 211.55 185.3 211.81 184.92 211.55 184.7"/><path class="b" d="M283.3,193.99l-1,.8.69.85c.11-.51.22-1.05.31-1.65Z"/><path class="b" d="M283.37,193.42c.02-.13.03-.25.05-.39l-.86-1.07-1.54,1.27,1.02,1.26,1.33-1.06ZM282.47,192.91l.18.22-.5.4-.18-.22.49-.4Z"/><path class="b" d="M282.14,198.26c.11-.24.21-.5.31-.77l-.57.45.27.32Z"/><path class="b" d="M282.32,191.64l-1.18-1.48-1.55,1.3,1.18,1.45,1.54-1.27ZM281.04,191.12l.34.42-.51.42-.34-.41.51-.43Z"/><path class="b" d="M235.88,188.73l-1.31-1.24-1.47,1.75,1.3,1.21,1.48-1.72ZM234.02,189.18l.6-.71.32.31-.6.7-.32-.3Z"/><path class="b" d="M262.87,191.12l-1.09-1.21-1.47,1.4,1.09,1.18,1.47-1.38ZM261.75,190.88l.18.2-.49.46-.18-.2.49-.47Z"/><path class="b" d="M277.42,181.43l-1.46,1.34c.4.41.7.89.93,1.41l.07.09,1.58-1.41-1.12-1.44ZM276.76,182.94l.57-.53.28.36-.58.51-.28-.35Z"/><polygon class="b" points="260.19 191.79 260.19 193.63 261.11 192.77 260.19 191.79"/><path class="b" d="M266.18,188.03v-.56l-.83-.96-1.5,1.43,1.1,1.24,1.23-1.15ZM265.3,187.48l.21.25-.52.49-.21-.24.52-.49Z"/><path class="b" d="M248.18,199.82l.26-.72.92-.9-1.1-1.06-1.42,1.41,1.34,1.27ZM248.27,198.09l.13.12-.46.45-.12-.12.46-.45Z"/><polygon class="b" points="260.19 195.45 260.19 196.66 260.81 196.1 260.19 195.45"/><polygon class="b" points="248.97 201.13 248.97 201.13 248.98 201.13 248.97 201.13"/><path class="b" d="M249.57,201.13h1.27l-.09-.97.17-.45-1.26-1.22-.87.85.12,1.17.66.62ZM249.65,199.43l.48.46-.07.18.06.66-.58-.55-.06-.6.17-.16Z"/><path class="b" d="M283.63,188.07l-.32.27.33.42c0-.23,0-.46-.01-.69Z"/><path class="b" d="M280.44,181.16l-1.13-1.47-1.6,1.47,1.12,1.44,1.6-1.43ZM279.22,180.69l.3.39-.6.54-.3-.38.6-.55Z"/><path class="b" d="M283.61,187.56c-.01-.29-.03-.57-.05-.84l-.4.33-.24-.31.56-.48.05.06c-.03-.31-.06-.61-.1-.9l-1.43,1.23,1.07,1.37.55-.46Z"/><path class="b" d="M281.88,183.05l-1.19-1.56-1.6,1.43,1.2,1.54,1.6-1.4ZM280.59,182.47l.37.49-.59.51-.37-.48.59-.52Z"/><path class="b" d="M283.33,184.96l-1.21-1.59-1.59,1.4,1.21,1.56,1.59-1.37ZM282.02,184.36l.39.51-.57.49-.39-.5.57-.5Z"/><polygon class="b" points="249.2 195.63 248.25 195.63 248.25 195.64 248.25 195.63 247.28 195.63 248.26 196.58 249.2 195.63"/><polygon class="b" points="234.13 190.76 232.84 189.55 232.65 189.77 232.65 190.82 232.9 190.52 233.2 190.81 232.77 191.31 232.65 191.19 232.65 192.1 232.83 192.27 234.13 190.76"/><path class="b" d="M264.65,189.46l-1.1-1.24-1.48,1.41,1.1,1.21,1.48-1.39ZM263.51,189.19l.2.22-.5.47-.2-.22.5-.48Z"/><polygon class="b" points="238.7 186.06 238.1 186.76 238.7 187.34 238.7 186.06"/><polygon class="b" points="202.33 180.72 202.33 181.19 202.91 181.19 202.33 180.72"/><path class="b" d="M204.91,179.02l-1.33-1.14-1.25,2.04v.28l1.19.99h.01l1.37-2.17ZM203.74,178.91l.29.24-.66,1.04-.28-.23.65-1.05Z"/><polygon class="b" points="202.33 176.82 202.33 178.95 203.19 177.55 202.33 176.82"/><path class="b" d="M208.55,178.37l-1.35,2.09.86.73h.92l1.02-1.56-1.46-1.27ZM208.09,180.33l.61-.94.42.37-.61.93-.42-.36Z"/><path class="b" d="M211.51,177.35l-1.46-1.3-1.28,1.98,1.46,1.27,1.28-1.95ZM209.66,177.9l.53-.83.44.39-.54.81-.44-.38Z"/><polygon class="b" points="212.55 175.76 211.75 175.76 211.6 175.99 211.34 175.76 210.33 175.76 211.73 177.01 212.55 175.76"/><polygon class="b" points="234.28 187.22 232.98 185.99 232.65 186.4 232.65 187.45 233.04 186.98 233.35 187.27 232.74 187.99 232.65 187.9 232.65 188.82 232.8 188.97 234.28 187.22"/><polygon class="b" points="217.53 181.21 217.11 181.81 217.53 182.19 217.53 181.21"/><path class="b" d="M238.7,185.44v-1.12l-.8-.79-1.41,1.67,1.32,1.27.89-1.04ZM237.41,185.16l.53-.63.36.35-.54.62-.35-.34Z"/><path class="b" d="M237.55,186.79l-1.32-1.27-1.4,1.67,1.31,1.24,1.41-1.64ZM235.75,187.13l.53-.63.34.33-.53.62-.34-.32Z"/><path class="b" d="M235.94,185.24l-1.3-1.25-1.4,1.7,1.3,1.23,1.41-1.67ZM234.16,185.62l.54-.65.32.31-.54.64-.32-.3Z"/><path class="b" d="M214.86,176.5l-.82-.74h-1.04l-.99,1.5,1.46,1.3,1.39-2.06ZM212.9,177.15l.62-.95.46.41-.63.94-.45-.4Z"/><path class="b" d="M216.55,178.03l-1.4-1.27-1.39,2.06,1.39,1.24,1.4-2.03ZM214.65,178.71l.62-.93.39.35-.63.91-.38-.34Z"/><path class="b" d="M218.23,179.56l-1.4-1.27-1.4,2.03,1.39,1.24,1.4-2ZM216.33,180.21l.62-.9.38.35-.63.89-.38-.34Z"/><polygon class="b" points="271.62 204.15 272.02 205.18 272.34 204.93 271.62 204.15"/><polygon class="b" points="282.81 222.24 282.66 224.31 283.56 224.31 283.35 224.1 283.38 223.8 283.87 224.31 284.58 224.31 284.6 224.09 282.81 222.24"/><polygon class="b" points="284.68 224.18 284.67 224.31 284.81 224.31 284.68 224.18"/><path class="b" d="M284.62,221.23l-1.62-1.71-.15,2.18,1.8,1.86.15-1.88-.18-.44ZM284.09,222.01l-.55-.57.02-.35.56.59-.03.33Z"/><path class="b" d="M214.92,180.39l-1.39-1.24-1.28,1.9,1.38,1.2,1.28-1.87ZM213.15,180.94l.51-.77.37.33-.52.75-.36-.32Z"/><polygon class="b" points="180.59 191.94 180.5 192.11 180.59 192.17 180.59 191.94"/><path class="b" d="M217.53,184.33v-1.61l-.65-.58-1.28,1.82,1.35,1.18.58-.81ZM216.5,183.86l.5-.71.34.3-.5.7-.33-.29Z"/><polygon class="b" points="217.53 184.99 217.24 185.4 217.53 185.65 217.53 184.99"/><path class="b" d="M216.59,181.89l-1.38-1.23-1.28,1.86,1.38,1.2,1.29-1.83ZM214.82,182.4l.51-.74.36.33-.51.73-.36-.31Z"/><path class="b" d="M192,190.29c0,.58-.02,1.21-.07,1.86l.79-1.32-.72-.54Z"/><polygon class="b" points="211.74 181.14 210.3 179.88 209.44 181.19 210.24 181.19 210.44 180.9 210.77 181.19 211.55 181.19 211.55 181.44 211.74 181.14"/><path class="b" d="M213.25,178.9l-1.46-1.3-1.28,1.94,1.45,1.26,1.28-1.91ZM211.4,179.42l.52-.8.43.39-.53.78-.43-.38Z"/><path class="b" d="M180.59,190.83v-1.78l-.62-.44-1.18,2.3,1.28.89.52-.98ZM179.66,190.7l.56-1.08.18.13-.57,1.07-.17-.12Z"/><polygon class="b" points="217.53 209.39 217.2 209.15 217.53 210.41 217.53 209.39"/><path class="b" d="M217.37,211.9l-.85-3.26-2.3-1.72.9,3.34,2.24,1.64ZM215.93,209.04l.31,1.21-.53-.38-.33-1.23.55.41Z"/><path class="b" d="M214.44,209.76l-.91-3.36-1.99-1.49v1.07l.58,2.08,2.31,1.69ZM212.94,206.8l.35,1.28-.57-.42-.37-1.3.59.44Z"/><polygon class="b" points="236.5 223.58 236.63 224.31 237.46 224.31 236.5 223.58"/><path class="b" d="M234.14,221.82l.47,2.48h1.48l-.21-1.18-1.74-1.3ZM235.28,224.17l-.15-.77.13.1.14.76-.13-.09Z"/><path class="b" d="M194.31,192.02l-1.17-.88-1.26,2.11,1.16.85,1.28-2.08ZM192.77,193.07l.56-.94.08.06-.57.93-.07-.05Z"/><path class="b" d="M195.93,193.23l-1.21-.91-1.27,2.07,1.19.87,1.29-2.04ZM194.34,194.22l.56-.91.12.09-.57.9-.11-.08Z"/><path class="b" d="M195.13,198.94l.33-.92.73-1.14-1.46-1.07-1.24,1.96,1.63,1.16ZM194.92,196.79l.37.27-.41.63-.08.18-.39-.28.51-.81Z"/><path class="b" d="M260.19,175.76v.34h15.22c-1.48-.28-3.06-.34-4.63-.34h-10.59Z"/><polygon class="b" points="271.5 203.83 275.15 213.23 281.43 213.23 277.69 203.83 271.5 203.83"/><path class="b" d="M277.59,189.65c0,1.13,0,2.55-.25,3.91h6.01c.18-1.36.29-2.91.29-4.59,0-.88-.04-1.69-.1-2.46h-6.08c.12,1.01.13,2.09.13,3.14Z"/><polygon class="b" points="232.65 176.1 246.55 176.1 246.55 181.19 251.83 181.19 251.83 176.1 253.96 176.1 253.96 175.76 232.65 175.76 232.65 176.1"/><polygon class="b" points="202.33 181.19 207.47 181.19 207.47 176.1 226.74 176.1 226.74 175.76 202.33 175.76 202.33 181.19"/><rect class="b" x="211.55" y="187.78" width="5.98" height="36.52"/><rect class="b" x="260.19" y="223.51" width="5.98" height=".8"/><polygon class="b" points="279.45 224.31 285.84 224.31 285.52 223.51 279.14 223.51 279.45 224.31"/><polygon class="b" points="254.51 223.51 251.83 223.51 251.83 218.88 238.7 218.88 238.7 201.13 251.83 201.13 251.83 195.63 238.7 195.63 238.7 187.78 234.53 187.78 234.53 223.51 232.65 223.51 232.65 224.31 254.51 224.31 254.51 223.51"/><path class="b" d="M115.11,179.41c2.02-1.57,4.39-2.85,7.15-3.72h-7.15v3.72Z"/><path class="b" d="M174.61,175.76v.34h12.82c1.08,0,2.18.06,3.28.19-1.73-.44-3.62-.53-5.5-.53h-10.59Z"/><polygon class="b" points="193.86 224.31 200.26 224.31 199.94 223.51 193.55 223.51 193.86 224.31"/><polygon class="b" points="180.59 207.55 180.17 206.79 175.81 206.79 175.81 223.51 174.61 223.51 174.61 224.31 180.59 224.31 180.59 207.55"/><path class="b" d="M147.1,178.85c1.69,1.2,3.16,2.6,4.41,4.16.76-1.62,2.18-2.92,4.91-2.92,2.24,0,3.56.82,4.35,2v-5.99h1.69c-1.46-.67-3.32-1.1-5.7-1.1-5.02,0-7.94,1.73-9.66,3.85Z"/><rect class="b" x="175.81" y="186.04" width="4.78" height="11.01"/><path class="b" d="M121.09,223.38c-2.2-.8-4.21-1.88-5.98-3.21v4.14h5.98v-.93Z"/><path class="b" d="M121.02,199.94c0,1.64.15,3.14.43,4.5,7.5,0,8.89-.01,11.18-.89,4.68-1.72,5.78-6.46,5.78-13.06,0-.52,0-1.02,0-1.5-1.72-1.7-3.91-2.49-6.14-2.64.13,1.2.16,2.7.16,4.62,0,3.71,0,5.64-1.79,7.01-1.31.96-2.82,1.1-5.5,1.1h-4.06v-.91c-.04.57-.06,1.16-.06,1.78Z"/><path class="b" d="M146.36,220.82c.69,1.05,1.66,2.05,3.05,2.8,2.27,1.24,4.74,1.38,6.53,1.38,2.92,0,5.11-.56,6.77-1.49h-1.94v-6.04c-.74,1.45-2.07,2.51-4.55,2.51-3.09,0-4.5-1.43-5.14-3.44-1.33,1.61-2.9,3.06-4.72,4.29Z"/></svg>