<?xml version="1.0" encoding="UTF-8"?><svg id="a" xmlns="http://www.w3.org/2000/svg" width="400" height="400" viewBox="0 0 400 400"><defs><style>.b{fill:#231f20;}.c{fill:#6a3021;}.d{fill:#fff;}.e{fill:#d23528;}</style></defs><path class="d" d="M283.56,205.96c-.1-.87-.35-1.6-.57-2.12-.22-.52-.42-.85-.42-.85l-3.07-4.52c-7.11-10.46-13.28-15.9-19.44-18.67l-.75-3.12-.5-2c-5.87-23.81-24.69-36.69-48.85-38.51-8.74-.65-17.05.55-24.59,2.25-7.24,1.65-14.08,3.84-20.34,5.54-3.12.85-6.22,1.92-9.26,2.85-2.87.87-5.27,1.45-7.51,1.62-3.62.3-6.29-.1-8.71-.77-2.95-.82-5.54-2.02-8.39-3.12,0,0-7.01-3.47-8.59-2.6-1.92,1.07-1.17,11.93-.82,13.45l.1.42s-2.15.45-3.49.2c-5.67-1.07,2.05,12.8,3.47,14.78-.27.67-.42,1.35-.55,2.22-.27,1.9.4,4.89.4,4.89l2.72,1.8c.72.47,1.47,1.1,2.37,1.95,1,.92,1.95,1.95,2.92,2.95,2.05,2.12,4.77,4.97,8.21,7.09.97.6,1.9,1,2.62,1.27.57.22,1.2.42,1.8.62.45.15.6.2.75.27.07.12.22.32.37.7.45.95.77,2.1,1.15,3.39.5,1.72,1,3.47,1.62,5.07.7,1.8,1.77,4.04,3.62,5.97,1.7,1.77,3.67,2.9,4.84,3.54.52.3,1.07.57,1.57.9.42.25.62.4.72.47,7.24,5.92,13.5,16.1,18.87,25.76l1.85,3.32,3.79.27c9.06.62,16.5,2.87,23.46,5.82,7.39,3.14,14.1,6.99,21.19,10.43l9.19,4.47.87-10.18c.27-3.05.8-6.14,1-9.16.15-2.42.17-5.14-.4-8.01,18.65-5.02,41.58-20.39,44.5-24.29l.4-.45c1.7-2.02,2.02-4.24,1.8-5.92"/><path class="d" d="M235.39,270.19c-.92,0-1.85-.2-2.72-.62l-9.19-4.47c-2.6-1.27-5.17-2.6-7.64-3.87-4.49-2.32-8.71-4.49-13.25-6.41-7.51-3.19-14.13-4.84-21.47-5.34l-3.79-.27c-2.1-.15-3.97-1.35-4.99-3.17l-1.85-3.32c-4.89-8.79-10.78-18.5-17.22-23.84-.02,0-.05-.05-.1-.07-.3-.17-.62-.35-.95-.55-.17-.1-.32-.17-.5-.27-1.27-.72-3.92-2.2-6.29-4.67-2.05-2.15-3.64-4.77-4.92-7.99-.67-1.75-1.2-3.52-1.7-5.24l-.1-.35c-.07-.27-.17-.57-.25-.87-.02,0-.05,0-.1-.02-1.37-.52-2.57-1.1-3.69-1.8-4.14-2.57-7.31-5.89-9.41-8.09l-.3-.3c-.85-.87-1.62-1.7-2.4-2.45-.62-.6-1.12-1.02-1.5-1.27l-2.75-1.8c-1.35-.87-2.3-2.25-2.65-3.82-.22-.95-.87-4.32-.5-7.11,0-.12.02-.22.05-.35-.87-1.55-1.87-3.47-2.7-5.29-1.95-4.37-3.62-9.38-1.15-13.3.9-1.42,2.22-2.45,3.77-3v-1.75c0-4.94.57-9.78,4.44-11.96,3.1-1.72,6.71-.72,10.16.6,1.72.67,3.32,1.42,3.94,1.72.8.3,1.55.62,2.3.92,1.82.75,3.54,1.42,5.29,1.92,1.5.42,3.47.82,6.54.57,1.55-.12,3.44-.55,6.22-1.4,1.07-.32,2.15-.67,3.29-1.02,2-.62,4.04-1.3,6.14-1.85,2.05-.55,4.17-1.17,6.41-1.82,4.52-1.3,9.19-2.67,14.18-3.79,9.88-2.25,18.27-3,26.41-2.4,13.38,1,25.33,5.24,34.57,12.26,9.96,7.56,16.65,17.97,19.84,30.95l.5,2v.05l.07.32c6.61,3.72,12.8,9.98,19.19,19.39l3.07,4.52s.05.07.07.12c.15.22.52.85.92,1.77.52,1.22.87,2.5,1.02,3.79h0c.47,3.84-.67,7.64-3.22,10.66,0,0-.02.02-.05.05l-.3.35c-2.82,3.54-11.41,9.26-18,13.13-5.22,3.07-14.73,8.26-24.61,11.66.02,1.27,0,2.6-.1,3.99-.12,1.85-.35,3.64-.57,5.39-.17,1.35-.32,2.62-.45,3.89l-.87,10.18c-.17,2.05-1.35,3.84-3.12,4.87-.95.55-2,.8-3.07.8v.02Z"/><path class="c" d="M223.6,174.49c6.39,2.07,17.35,3.79,23.89,7.26-.6,10.93-11.43,7.59-15.9,7.36,8.51,6.39,19.72,3.17,18.74-8.69-6.81-4.27-15.48-4.74-23.31-5.67l-3.42-.25v-.02ZM248.56,182.45s-.02-.02-.05-.02c0,0,.02,0,.05.02Z"/><path class="c" d="M219.74,178.18h0l-.22-.82c-6.24-3.14-22.21-.8-28.5-.17-7.31.87-15.38,1.9-22.71,2-2.55,0-5.07,0-7.59-.22h0c-8.01-.4-16.15-2.05-24.49-6.02,22.24,16.9,72.33,2.17,81.02,7.21h0c3.92,12.26,20.29,23.21,31.27,13.15-11.13,8.19-25.36-1.97-28.78-15.13Z"/><path class="c" d="M184.32,174.47c20.69-2.65,45.9-4.89,64.77.95-31.82-20.72-87.01,8.19-112.17-7.04-.5-.27-1.12-.75-1.6-1.07,0,0-.47-.37-.65-.5,2.8,3.99,13.15,12.38,49.65,7.69v-.02Z"/><path class="e" d="M256.03,202.6s9.98.7,14.65,1.3c-5.97-9.14-9.93-11.93-10.41-12.03.2.2-5.97,8.94-8.21,11.91,1.15,1.07,10.03,9.14,10.26,9.09,1.55-.42,3.17-1.32,5.04-2.42,2.02-1.2,4.22-2.9,4.87-3.54.07-.07-16.25-4.29-16.25-4.29h.05ZM199.32,148.61c-7.39.6-15.67,2.8-23.81,5.04-14.05,4.62-26.83,10.26-41.11,5.77,1.37,2.47,5.89,4.34,7.59,6.46-1.97.6-5.34.15-7.46-.67h0c.55.52,1.15,1,1.75,1.45,21.64,15.92,72.11-10.73,105.93,1.05l-.15-.05.15.05c-7.74-15.25-26.86-20.44-42.91-19.12l.02.02ZM216.34,231.55c-12.63-10.73-10.46-25.18-13.5-39.81h0c-.07-.3-.12-.62-.2-.92-6.41-2.47-15.45-5.14-22.79-7.71l-.75-.27c-1.27.05-2.55.07-3.82.07-10.51.02-21.47-.7-31.35-4.47-.42-.15-.82-.32-1.22-.47h0c-.47-.2-.97-.4-1.45-.62-.15-.07-.27-.12-.42-.2-.25-.12-.5-.22-.75-.35.02,0,.07.02.1.05-1.45-.7-2.87-1.45-4.24-2.32,3.59,5.42,9.21,5.84,14.4,9.09,4.47,3.14,3.77,11.43,7.21,15.87,1.55,2,4.57,2.8,6.49,4.32,5.77,5.57,13.8,13.7,18.02,20.54,1.15,2.02,2.1,5.19,3.59,6.14,2.27,1.42,7.29,1.3,10.46,1.8,11.31,1.82,19.19,6.96,27.41,9.73.02-.25.05-.52.05-.77h0v-.45c-.27-4.44-4.34-6.56-7.24-9.24Z"/><path class="b" d="M281.76,211.88c1.7-2.02,2.02-4.24,1.8-5.92-.1-.87-.35-1.6-.57-2.12-.22-.52-.42-.85-.42-.85l-3.07-4.52c-6.44-9.46-12.11-14.83-17.72-17.8h0s-4.19,1.07-6.41,4.32l-2.1,3c-1.92,3.67-3.52,5.49-3.54,5.52h0c-3.32,4.22-9.31,5.42-14.45,4.72-8.81-1.37-16.07-8.26-19.42-16.32-1.07-.42-2.2-.62-3.32-.72-.57-.02-1.12-.05-1.7-.07-1.3,0-2.6,0-3.89.05-1.17,0-2.35.07-3.54.12-3.57.22-7.14.5-10.73.77.27.07.55.15.82.22h.05c5.09,1.42,10.93,2.77,15.5,4.59,2.4,15.82,2.02,28.63,10.08,38.59,3.05,3.74,8.51,5.92,10.11,10.11,2.1,5.54.52,11.66,0,17.67-14.4-7.01-27.23-15.55-47.25-16.95-5.32-9.53-12.13-20.89-20.54-27.76-1.9-1.55-4.69-2.45-6.49-4.32-3.74-3.92-3.24-12.46-7.56-15.87-1.65-1.3-4.04-1.45-5.77-2.52-5.19-3.22-8.61-8.79-13.35-11.91.17-1.62,2.12-1.47,2.9-2.52-1.75-3.17-5.12-4.74-5.42-9.38,1.35-.45,3.27-.35,4.32-1.07-1.1-3.12-1.95-5.82-1.45-9.73,15.77,6.94,21.42,4.94,38.24-.37,12.33-3.32,26.98-8.74,42.56-7.56,21.74,1.62,37.54,12.88,42.56,33.17,0,0,.85,4.94,7.79,2.32h0l-.47-2.02-.5-2c-5.87-23.81-24.69-36.69-48.85-38.51-8.74-.65-17.05.55-24.59,2.25-7.24,1.65-14.08,3.84-20.34,5.54-3.12.85-6.22,1.92-9.26,2.85-2.87.87-5.27,1.45-7.51,1.62-3.62.3-6.29-.1-8.71-.77-2.95-.82-5.54-2.02-8.39-3.12,0,0-7.01-3.47-8.59-2.6-1.92,1.07-1.17,11.93-.82,13.45l.1.42s-2.15.45-3.49.2c-5.67-1.07,2.05,12.8,3.47,14.78-.27.67-.42,1.35-.55,2.22-.27,1.9.4,4.89.4,4.89l2.72,1.8c.72.47,1.47,1.1,2.37,1.95,1,.92,1.95,1.95,2.92,2.95,2.05,2.12,4.77,4.97,8.21,7.09.97.6,1.9,1,2.62,1.27.57.22,1.2.42,1.8.62.45.15.6.2.75.27.07.12.22.32.37.7.45.95.77,2.1,1.15,3.39.5,1.72,1,3.47,1.62,5.07.7,1.8,1.77,4.04,3.62,5.97,1.7,1.77,3.67,2.9,4.84,3.54.52.3,1.07.57,1.57.9.42.25.62.4.72.47,7.24,5.92,13.5,16.1,18.87,25.76l1.85,3.32,3.79.27c9.06.62,16.5,2.87,23.46,5.82,7.39,3.14,14.1,6.99,21.19,10.43l9.19,4.47.87-10.18c.27-3.05.8-6.14,1-9.16.15-2.42.17-5.14-.4-8.01,18.65-5.02,41.58-20.39,44.5-24.29l.4-.45.1-.05ZM276.35,209.56c-1.25,1.42-3.12,3.14-5.49,4.62-3.69,2.3-5.87,3.19-6.34,3.39-.62.3-3.27,1.12-5.89-1-4.54-3.82-9.86-8.79-13.5-12.21,2.47-3,11.81-16.72,13.28-18.89l1.62.3c4.24.75,11.78,10.03,16.92,18.45.85,1.6.9,3.54-.62,5.34h.02Z"/><path class="b" d="M213.45,181.2c.82.12,1.65.32,2.42.65-.07-.02-.15-.07-.22-.1-.7-.3-1.42-.45-2.2-.55Z"/><path class="b" d="M215.52,181.7s.07.02.12.05c.07.02.15.05.22.1-.12-.05-.22-.1-.35-.15Z"/></svg>