<?xml version="1.0" encoding="UTF-8"?><svg id="a" xmlns="http://www.w3.org/2000/svg" width="400" height="400" viewBox="0 0 400 400"><defs><style>.b{fill:#cd1b20;}.c{fill:#3b0000;}</style></defs><path class="c" d="M269.68,171.24c-.06-.06-.02-.13-.08-.15-.18-.49-.25-.77-.36-1.24-.08-.36-.13-.59-.26-.95-.1-.29-.13-.56-.21-.8l-.06-.09c-.04-.09-.06-.18-.09-.28-.1-.33-.11-.65-.18-.99v.02s-.02-.12-.02-.12l-.06-.15-.02-.04c-.23-.22-.02-.37-.26-.69.09.13-.07-.14,0-.17v-.04s0-.03,0-.03v-.04s-.01-.04-.01-.04l-.04-.08v-.07c-.04-.14-.02-.28-.17-.47v-.02s0-.01,0-.01l-.05-.09c-.11-.17-.16-.39-.28-.64-.06-.07,0-.14-.26-.25-.08-.02-.16-.03-.24-.03-.16,0-.3.04-.44.1-.43.16-.51.28-.8.46l-.13.06-.15.08s-.11.04-.17.06h0c-.09.06-.18.11-.27.16h0s-.03,0-.03,0l-.02.02c-.17.1-.34.21-.49.32l-.05.04h0s-.04.04-.04.04l-.04.03c-.17.13-.32.27-.44.4-.02.06-.05.12-.09.18l-.1.15-.07.1c-.03.13-.07.25-.1.38l-.05.16c-.05.08-.08.16-.07.25v.08s0,.07,0,.14l.05.15c.05.08.07.13.07.22v.06s.03.07.03.07v.19s.13.28.13.28h-.01s0,.02,0,.02v.02s.02.05.02.05l.05.09c-.02.18-.02.14.08.32h-.01s0,.03,0,.03v.07s0,.01,0,.01v.04c.04.12.11.2.14.29,0,.18.15.48.1.56v.06s0,.02,0,.02c-.03.15.13.61.16.78.03.21.09.39.15.61.14.46.19.83.39,1.26.14.31.1.68.19,1.02.04.17,0,.28.03.44.04.17.14.24.14.42,0,.02.01.07.01.13,0,.15.08.26.12.4.07.23.14.45.2.68.03.11.03.3.11.39.08.1.08.14.12.26.04.11.08.11.07.22-.01.11.05.23.09.33.02.06.09.18.03.24l-.12.02-.05-.03-.18-.08-.15-.05c-.15-.01-.24-.1-.35-.07-.14.04-.18.01-.51-.04l-.07-.05-.09-.04c-.13.02-.15.08-.42,0l-.11-.03-.15-.03-.28-.11c-.09-.02-.42.01-.5.02-.26,0-.51.03-.77.05-.44.02-.93.11-1.1.15-.2.05-.4.1-.6.16-.13.04-.53.12-.56.18l-.17.16-.08.05-.09.03h-.01s-.09.02-.09.02l-.1.07c-.4.28-1.02.8-1.42,1.06l-.06.06c-.19.2-.24.32-.39.48l-.06.04c-.6.59-.92,1.32-1.28,1.85-.04.19-.17.63-.2.86-.21.43-.16.21-.36.86-.04.18-.02.31-.04.53v.05s0,.02,0,.02h0c0,.07,0,.14-.01.19h0s.01.09.01.09l-.02.03v.07c-.03.19-.02.38-.06.56,0,.05-.08.27-.1.33.02.26.05.51.09.76h-.01s0,.07,0,.07v.12s0,.05,0,.05c-.04.19-.02.58.05.89h0s-.01.14-.01.14c0,.15.16.85.19.98.04.14.05.31.13.43.07.1.08.16.11.3.04.21.09.63.21.83l.04.06h0s0,.02,0,.02v.04s0,.02,0,.02h0c.14.55.13.74.26,1.19h.01s0,.02,0,.02v.02c.08.02.1.27.2.38.08.37.17.79.35,1.21.05.09.13.05.18.12.07.1.02.26.08.36v.04s.01,0,.01,0v.04c.12.22.25.44.4.65.15.21.33.38.46.6.14.22.33.43.49.63.29.39.61.86,1.08,1.05l-.03-.02c.19.11.38.21.58.3.06.04.08.06.08.07l.02.02.03.05.04.04h0c.54.24.84.49,1.36.59.32.33,1.3.39,1.92.5.06-.01.13-.02.19-.01h.1s.07-.01.07-.01h.03s.02,0,.02,0c1.32,0,2.72-.13,4.02-.55.45-.16.19-.32.72-.47h.05s.02-.01.02-.01h.06c.78-.46,1.52-.81,2.13-1.45l.02-.02.12-.13h0s.05,0,.05,0l.08-.04h.03c.15-.17.25-.34.26-.4.11-.05.06,0,.15-.05.17-.14.26-.47.38-.52h.03c.1-.18.12-.3.16-.36.24-.29.32-.63.49-.88,0-.21.24-.51.22-.65.06-.03.23-.51.25-.79v-.07c.05-.09.11-.09.13-.18h0c.03-.23.04-.41-.02-.38.22-.43.02-.89.14-1.17v-.06s.02-.02.02-.02v-.15c-.05-.71-.17-1.37-.32-1.99v-.04s0-.05,0-.05h0s0-.05,0-.05c-.03-.07-.04-.14-.03-.21-.06-.19-.12-.38-.16-.62v-.04s-.01-.15-.01-.15h0s0-.05,0-.05v-.07s-.01-.05-.01-.05c-.13-.49-.27-.95-.51-1.41-.12-.22-.14-.58-.11-.83l-.02-.1-.02-.11-.02-.04v-.04s-.05-.11-.08-.25l-.02-.08v-.03c-.05-.12-.1-.25-.13-.44h.01s0-.01,0-.01l-.02-.09h0s0-.04,0-.04v-.04s0-.02,0-.02v-.05c-.02-.21-.19-.46-.25-.67-.06-.22-.06-.44-.08-.67-.02-.23-.13-.48-.22-.7-.06-.17-.17-.3-.23-.47-.07-.2-.04-.42-.08-.62-.03-.15-.11-.29-.14-.44-.03-.22-.05-.44-.11-.66-.08-.24-.1-.47-.14-.72-.06-.38-.24-.73-.26-1.12-.03-.45-.23-.87-.33-1.31h0s0-.03,0-.03v-.02s-.02-.03-.02-.03c-.13-.06-.04-.37-.12-.62l-.02-.02v-.06s.02-.08.02-.08c-.07-.39-.15-.65-.35-1.22l-.02-.05c-.02-.24-.09-.51-.14-.76M266.84,184.31v.04c.01.38.05.61.16.98.04.12.04.27.07.39.04.16.02.34.12.47l.04.09c0,.2.07.29.15.48l.02.08c0,.31.08.41.16.64v.03s.04.06.04.06v.03s.04.11.04.11l.04.09v.04c.07.02.15.81.32,1.02,0,.21.06.59.06.72,0,.28-.07.56-.21.81-.1.19-.22.39-.32.62,0-.06-.31.33-.33.35-.15.14-.35.34-.53.44-.11.06-.29.12-.41.18-.12.06-.19.07-.31.12-.38.16-.71.17-1.11.27-.19-.03-.28-.06-.41-.07-.24,0-.32-.01-.53-.12-.17-.08-.57-.17-.75-.25-.28-.23-.3-.36-.49-.64-.2-.31-.24-.56-.37-.89-.07-.18-.39-1.14-.54-1.16.05-.19-.02-.42-.08-.6-.02-.07-.2-.42-.19-.45.04-.11-.07-.35-.1-.47-.07-.28-.17-.56-.25-.83l-.08-.14s-.06-.31-.06-.38c0-.25-.06-.35-.15-.57-.13-.31-.1-.65-.2-.94-.07-.2-.05-.42-.12-.63-.06-.19-.04-.35-.06-.55-.02-.21.03-.36.03-.57,0-.25.11-.45.14-.73,0-.06.1-.16.15-.24.04-.06.01-.15.06-.22.09-.14.32-.42.47-.48h.06c.1,0,.33-.28.48-.39.09-.04.17-.09.25-.15.28-.08.71-.24.97-.31.18-.05.37-.1.56-.14.18-.04.29.02.46.01.28-.02.46-.05.74.01.18.04.49.17.62.28.27.22.36.55.46.86.04.13.14.24.19.37.04.09.14.28.16.35.06.21.06.41.13.61.02.07.11.16.13.25.08.32.3.75.34,1.08"/><path class="c" d="M289.28,182.18l-.02-.04c-.2-.19-.27-.46-.47-.7l-.02-.03-.11-.11.09.07c-.13-.08-.2-.4-.27-.53-.09-.17-.21-.28-.35-.41-.36-.25-.71-.77-1.33-.97-.32-.13-.73-.16-1.03-.32-.13-.07-.17-.14-.33-.16-.15-.01-.3-.07-.44-.08l-.04-.02h-.03s-.15-.05-.15-.05c-.18-.05-.25-.04-.44-.08-.07,0-.15-.03-.22-.04-.58-.12-.09-.15-.79-.19-.32-.02-.69-.03-1-.15-.18-.07-.53-.16-.56-.16-.11-.01-.3-.03-.51-.03-.22,0-.41-.03-.61,0-.19.02-.34-.04-.52-.07-.19-.03-.36-.01-.54-.02-.17,0-.37-.06-.53-.11-.24-.07-.45-.06-.66-.19l-.06-.08c-.09-.05-.18-.09-.21-.14l-.03-.02-.03-.03-.05-.05-.14-.11c-.05-.05-.09-.11-.13-.17-.1-.16-.19-.36-.15-.55.04-.19.21-.34.32-.5.06-.02.07-.05.09-.04.05-.02.03-.06.09-.06l.2-.15c.19-.06.19-.12.4-.19.16-.05.31-.11.46-.19.3-.16.75-.17,1.1-.24.13-.03.25-.07.38-.08.18-.02.4-.06.6-.07.18,0,.36.01.57.04.52.07.93.11,1.42.29.26.1.7.5.84.47.2-.05.27-.08.73-.11h0s.03,0,.03,0h.06s.1-.02.1-.02l.09-.02.05-.05c.05-.06.12-.11.28-.24h.01s.14-.12.14-.12c.02-.05-.02.04.08-.14l.04-.06.03-.07.02-.03.05-.08.04-.14.04-.15c.03-.1.05-.2.08-.3.05-.21.1-.42.15-.64.02-.07.03-.14.05-.22l.05-.08.08-.14c.07-.35.18-.68.19-1.17,0-.05,0-.08-.02-.14-.01-.1-.2-.26-.2-.25l-.14-.08-.27-.15c-.18-.1-.36-.19-.53-.27l-.27-.04h-.07s-.05-.01-.05-.01l-.05-.02-.09-.02h-.07s-.06-.06-.06-.06l-.08-.04c-.52-.11-1.3-.27-1.79-.43-.06-.02-.12-.03-.18-.04-.18,0-.29.04-.51,0-.06,0-.13,0-.2,0l-.06-.03c-.83-.1-1.68-.03-2.33-.02h-.01s-.16-.01-.16-.01c-.23.06-.46.13-.68.18h-.02s-.13.08-.13.08c-.02,0-.47.09-.54.1-.14.03-.3.06-.43.12-.08.03-.28.18-.45.28-.09.05-.2.1-.29.14-.14.06-1,.57-1.16.53-.22.16-.39.3-.58.48l-.16.07h0s-.07.09-.07.09l-.03.05c-.2.09-.54.39-.75.69l-.03.02-.09.09-.09.06c-.27.36-.41.78-.59,1.19l-.06.16v.15c.01.06.04.12.04.18l-.02.15c0,.1,0,.16-.07.23-.06.07-.05.18-.13.25-.09.08-.13.34-.13.35,0,0-.02.14,0,.21v.02s-.01.06-.01.06c-.03.67.03.94.11,1.49v.09s.04.06.04.06c.04.07.07.23.14.34l.02.18c0,.06.02.13.03.19.02.14.05.27.08.41.06.23.19.49.32.73l.07.08c.05.13.09.26.12.33v.05s0,.02,0,.02c.25.39.38.58.77.94h.02s.02.01.02.01l.04.02h.05s.06.05.06.05c.1.08.15.17.14.2l.03.04c.68.51,1.59,1.17,2.3,1.26.24.04.48.07.72.08.09.02.11.03.11.03l.06.04h.03s.11.03.11.03c.66.02,1,.15,1.59.08.5.1,1.44-.02,2.1.08h.01s.09.01.09.01h.05s.03,0,.03,0h0s.12-.01.12-.01h.06s.04,0,.04,0h.01c.68.03,1.4.18,1.99.48.58.33.8.74.6,1.29l-.02.03-.05.1-.04.16c-.05.1-.06.21-.33.37v-.02s-.05.04-.05.04l-.04.02-.09.03c-.6.55-1.42.81-2.21.94h-.02c-.14.06-.31.02-.45-.01l-.04-.02c-.16.01-.29.04-.3.06-.16-.01-.14-.03-.2-.05-.2-.05-.45,0-.55-.09h-.05s-.07-.04-.07-.04c-.08-.01-.16-.03-.22-.04l-.09.03h-.01s-.02,0-.02,0h-.02s-.02-.01-.02-.01h0c-.33-.1-.65-.16-.91-.28-.22.01-.54-.16-.71-.19-.21-.04-.75-.37-.84-.39-.2-.15-.42-.25-.58-.32-.23-.09-.43-.17-.67-.25-.09-.03-.17-.06-.24-.1-.09.01-.18.02-.28.01-.08.04-.19.09-.34.17v.02s-.05.12-.05.12c.07.85.12,1.63.16,2.39h0s0,.05,0,.05c.04.07.02.13-.03.17.03.25.04.51.03.83l-.02.06-.02.05h0s-.02.12-.02.12c0,.22,0,.44,0,.65v.25s0,.12,0,.12v.06s0,.03,0,.03c.18.43.05.12.09.22l.03.03c.12.09.22.15.31.19l.07.03h.01s.01.01.01.01h.08c.31-.1.74.34.96.49.21.14.47.15.71.21.76.19,1.55.21,2.3.42.41.11.85.05,1.26.06.17-.07.17-.09.37-.09.1,0,1.04-.05,1.03,0h.04s.11.02.11.02h.05c.14-.01.31-.04.45-.07.02-.04.06-.06.12-.06h.07s.04-.03.04-.03l-.03.02h.01s.02,0,.02,0h.08s.02-.02.02-.02h.03s.08-.01.08-.01h.02l.08-.03h0s.05-.03.05-.03h.02s.07,0,.07,0h.04s.04,0,.04,0h.04c.48-.09.89-.3,1.31-.44h.03s.16.02.16.02c.42-.23.82-.52,1.2-.78l.07-.06h0s.03-.05.03-.05c.02-.13.32-.21.53-.39v-.03s.09-.06.09-.06l.02-.02v.02s0,0,0,0h.1s.02-.03.02-.03c.3-.28.56-.65.87-1.17v.02s.05-.03.05-.03h.02c.16-.21.34-.52.47-.73,0-.09.08-.14.05-.2.29-.34.42-.76.48-1.12.05-.4.05-.78.14-1.15v-.02s0-.01,0-.01c-.02-.09-.03-.18-.04-.26l-.02-.07h0s-.05-.15-.07-.26c-.03-.17.04-.34,0-.5-.02-.12-.06-.22-.08-.35-.05-.43-.22-.83-.26-1.25v-.04s.01-.01.01-.01c-.04-.08-.07-.15-.11-.23"/><path class="c" d="M194.69,187.84c-.12-.23-.23-.36-.37-.56,0-.1-.08-.17-.25-.43-.13-.33-.03-.23-.26-.56,0-.06-.08-.22-.17-.41-.12-.25-.3-.36-.4-.46-.33-.36-1.07-.51-1.16-.6-.13,0-.63-.04-.98-.04-.14-.04-.15-.02-.54,0-.2.02-.29-.03-.52.05-.14.05-.14.02-.2.03-.38.29-1.44.87-2.03,1.44.03-.03-.13.08-.07.04-.37.28-.27.16-.51.34.01.1-.49.61-.7.94-.29.25-.42.4-.5.51-.31.3-.19.2-.38.34-.03.13-.22.34-.35.68-.18.26-.22.28-.26.31l-.06.09-.02.03c-.69-.24-.38-.23-.56-.34-.52-.15-.9-.15-1.29-.2l-.08-.03c-.66-.02-1.34-.08-1.98.05-.23.05-.45.13-.66.22-.07.03-.08.03-.15.02h-.16s-.07-.02-.07-.02c-.06-.02-.15.03-.21.05-.09.03-.18.05-.28.08l-.08.02c-.15.04-.29.08-.42.12h-.03s-.04.02-.04.02c-.08.02-.15.04-.23.05-.19.04-.27.1-.46.1-.13,0-.3.04-.45.09h-.11c.13-.07-.38.25-.51.3-.14.06-.28.11-.43.15-.2.06-.38.08-.57.18-.16.09-.32.22-.47.32-.2.2-.22.27-.83.7l-.06.02c-.74.64-.33.33-.81.82-.03.01-.02,0-.13.1,0,0-.06.08-.17.3l-.11.09c-.62.84-1.09,1.83-1.3,2.95l-.03.09c-.26,1.43-.18,3.05.13,4.4l.11.39c.03.12.08.18.06.2.03.3.03.18.07.28.05.11.08.17.06.18.29.89.73,2.33.9,3.3v.08c.17.75.32.71.44,1.41v.13c.39,1.62.86,3.16,1.07,4.41v.02c-.01.07.02.11.02.15-.01.23.02.45.05.66.06.4.16.69.19.79.19.94.08.69.45,1.98.11.34.23.47.39.88l.02.11s.2.42.22.48c.02.09,0,.2.08.27l.03.05c.19.28.28.65.4.96.07.18.11.42.2.6.24.47.58.88.81,1.3.04.03-.02.05.11.32l.07.1c.12.35.31.91.1,1.44l-.02.04c-.15.47-.49,1.04-.61,1.69-.01.07-.05.11-.06.18-.04.21-.06.47-.09.7-.02.17-.09.44-.05.51-.02.28-.01.55.02.8-.02.15.11.94.24,1.6.02.11.07.32.05.34-.05.06.17.7.25.9.15.4.39,1.04.44,1,.12.22.28.43.48.67.18.21.41.45.7.72.23.22.5.46.82.75.88.83.63,1.73.64,2.13,0,.4-.04.96.21,2.36l.05.07c.01.07-.01.11,0,.14v.03c.39,1.48.65,3.55,1.53,4.62.27.36.48.52.88.76.18.1.12.21.29.3.73.32,1.24.25,1.77.23.54-.04,1.03-.12,1.59-.28.92-.04,2.34-.62,3.54-.8l.07-.08c.29-.12.61-.05.84-.14.03-.03.05-.09.15-.11,2.55-.74,5.15-1.61,7.8-2.09.96-.23.15-.18,1.38-.42l.1.03c.95-.32,1.85-.63,2.78-1.13.93-.46,1.75-1.4,1.88-2.47,0,.06.02-.04.02-.06.16-.44.12-1.18.05-1.17-.03-.31.02-.12,0-.31-.04-.42-.19-.86-.19-1.09l-.02-.13c-.1-.34-.24-.88-.28-.82-.17-.72-.44-1.33-.6-1.9-.19-.33-.47-1.07-.54-1.27-.05-.21-.47-1.19-.74-1.61l-.1-.26c-.28-.47-.5-.75-.53-.72-.48-.9-1.39-1.43-1.73-1.89-1.3-.92-2.8-1.34-4.16-1.45-.05-.07-.07,0-.11-.03-.83-.08-.39-.06-1.72.09-.35.04-.19.06-.25.04-1.35.19-2.32.57-3.39,1.01,0,.06-.53.19-.63.26-.1.03-.15.05-.23.06-.11.04,0,.01-.27.04-.25.08-.23.11-.3.08-.14.06-.23.08-.3.08-.22.07-.27.13-.29.11-.77.32-.16.09-.87.34,0-.02-.26.09-.2.04-.35.17-.2.17-.81.34.03-.02-.27.03-.21.01-1.01.39-1.49.57-2.68.63-.21-.04-.47.04-.52-.06-.2,0-.13.03-.32-.01-.07.03-.17,0-.28,0-.52-.06-.7-.03-.84-.47l-.02-.09-.04-.05-.05-.12-.04-.07v-.15c-.05-.07-.08-.14-.1-.22v-.05s0,.01,0,.01c0-.04,0-.12-.02-.27,0,.02,0-.48.12-.72.03-.26.09-.57.4-.84h.04s.05-.02.05-.02l.08-.04c.26-.25,1.03-.4,1.16-.43h.1s.21-.03.21-.03c.27,0,.2-.07.22-.05.29-.04.11-.04.45-.08l.1.02c.48-.08.88-.14,1.33-.24.24-.05.48-.13.72-.17.06-.01.12-.06.18-.09.06-.02.13-.03.17-.07.16-.15.37-.2.56-.29.18-.09.35-.17.53-.27.57-.31.89-.47,1.37-.85-.06.04.16-.12.09-.08.08-.18.64-.33.99-.83l.07-.07c.57-.63.98-1.25,1.23-2.5l.04-.12c.16-.48.15-1.11.16-1.65-.03-.16-.05-.2-.03-.33.15-1.67-.47-2.73-.68-4.15-.07-.1.01-.17-.02-.3l-.17-.45c-.04-.07-.12-.18-.18-.31-.07-.14,0,0-.08-.3.02-.11,0-.19-.02-.43l-.06-.11c-.11-.43-.1.02-.25-.85l-.06-.14c-.09-.31-.13-.25-.21-.6.02-.16,0-.2-.01-.32-.08-.52-.1-.22-.15-.67-.02-.06.01-.07.04-.16-.04-.35.02-.07-.06-.43l-.06-.06-.05-.3-.07-.11c-.31-.56-.2-.91-.44-1.53.01.03-.01-.1-.04-.25,0-.22-.07-.55-.06-.51-.15-.37-.12-.65-.34-1.17,0-.02-.02-.15-.05-.25l-.02-.02v.02c-.07-.19-.13-.4-.19-.62-.08-.24-.04-.39-.1-.74-.15-.47-.22-1-.29-1.55-.02-.91-.05-1.13.11-1.92.02-.06.03-.12.05-.19l.02-.02.06-.17c.04-.1.06-.2.09-.3l.06-.07.02-.06v-.07c.04-.11.09-.23.15-.34v-.04s.09-.14.09-.14l.04-.08.04-.06h0s0-.02,0-.02c.03-.07.06-.13.1-.19.74-1.32,1.58-2.21,3.1-2.94l.26-.14c.09,0,.06-.04.11-.02.05,0,.27.05.74-.37.18-.23.28-.55.27-.83.02-.09.03-.18.04-.27l-.06-.22c.01-.07,0-.19-.04-.34M186.73,232.63c.28-.06.47.04.81-.04.18.06.36,0,.5-.05.17-.05.28-.06.48-.13.09,0,.17-.01.24-.03l.1-.05h.09c.13-.01.5-.2.67-.18l.39-.16c.14-.06.3-.09.44-.16.19-.09.35-.09.54-.16.17-.06.31-.07.47-.12.03,0,.17-.06.22-.08.24-.1.46-.21.73-.3.15-.05.3-.09.47-.14.12-.03.25-.11.35-.16.11-.06.21-.06.33-.1.17-.05.32-.13.45-.17.17-.05.35-.14.54-.16l.15-.03.08-.03c.1-.01.22-.08.32-.11.17-.05.34-.11.51-.16.08-.02.17,0,.23-.06h.03s.02-.02.02-.02h.04s.04-.01.04-.01c.08-.02.15-.05.23-.06.02-.04.17-.04.22-.11l.15-.04.13-.09c.15-.09.34-.08.49-.18.07-.04.14-.03.21-.05.06-.02.12-.06.19-.07.24-.05.47-.06.69-.17l.13-.02.31-.05c.16-.05.29-.08.44-.14.14-.05.33-.21.47-.07.16.15.11.45.16.64l.02.14c.02.05.03.12.03.21,0,.17-.02.32,0,.5,0,.09,0,.11.02.18.05.11.04.09.02.23,0,.1,0,.18,0,.28,0,.11-.02.18,0,.29l-.03.07-.1.19c-.03.09-.05.21-.07.31v.05c-.04.06-.06.14-.09.2-.04.09-.13.13-.2.19-.07.07-.11.17-.2.22-.1.06-.2.13-.28.21-.08.09-.12.15-.21.24-.07.07-.18.15-.27.18-.14.04-.28.11-.42.14-.25.05-.47.18-.73.21l-.04.02h-.08c-.11,0-.46.1-.53.12-.26.06-.54.08-.79.16-.13.04-.22.09-.37.13-.5.13-.96.33-1.48.39-.11.01-.42.08-.53.14-.24.08-.38.1-.61.17-.2.05-.45.07-.66.13-.31.09-.64.09-.96.19l-.09.07c-.1.05-.05.08-.14.09-.11,0-.12.05-.23.04-.1-.02-.41.07-.51.12-.07.04-.16.05-.24.07-.09.02-.18,0-.27.01-.1,0-.19.05-.27.06-.07,0-.33.04-.4.04-.11,0-.1.01-.18.03-.07.02-.73-.22-.81-.23-.33-.04-.45-.24-.73-.36,0-.17-.25-.33-.32-.53h0s-.04-.06-.04-.06v-.02s-.03-.02-.03-.02v-.02s-.03,0-.03,0c-.2-.36-.31-.85-.47-1.27l-.08-.3c-.04-.1.27-.15.33-.17M188.17,211.27c.04.14.06.3.07.43,0,.08.01.14-.01.22-.02.07.04.16.02.22-.06.19-.15.34-.17.54l-.14.25c-.04.1-.04.2-.07.3-.07.25-.32.39-.41.64l-.08.14-.06.12c-.04.08-.06.19-.15.23l-.11.04-.07.06-.03.02-.11.09h-.02c-.18.14-.39.23-.6.31-.17.07-.39.18-.57.19-.06,0-.14-.03-.21-.03-.15,0-.3.06-.45.08-.14.01-.23-.03-.37-.01h-.08c-.14.03-.36.08-.51.02-.14-.06-.27-.34-.31-.47-.03-.1-.01-.13-.07-.22l-.02-.11c-.02-.11-.01-.07-.01-.15l-.06-.17c-.03-.08-.06-.14-.07-.22,0-.1-.06-.19-.08-.29-.02-.09,0-.17-.02-.26-.01-.08-.04-.12-.05-.2-.04-.24-.1-.43-.19-.65-.03-.06-.04-.16-.09-.21l-.09-.17c-.05-.19-.1-.43-.12-.63-.01-.11-.08-.21-.08-.32,0-.15,0-.21-.05-.34-.04-.11-.04-.27-.11-.36-.06-.09-.09-.17-.09-.3,0-.16-.06-.32-.11-.47-.02-.06-.11-.23-.08-.3v-.15c-.09-.21-.13-.42-.17-.64-.03-.18-.03-.39-.12-.55-.05-.09-.05-.14-.07-.23-.03-.14-.13-.27-.17-.4-.05-.14-.07-.28-.09-.43-.01-.1,0-.16-.06-.26-.06-.09-.09-.19-.12-.3-.08-.33-.15-.65-.21-.97-.02-.1-.22-.48-.15-.6,0,0-.08-.32-.09-.38-.02-.09-.03-.19-.07-.29-.03-.07-.15-.42-.14-.71l-.15-.35v-.03s-.01-.03-.01-.03c-.04-.24-.11-.44-.15-.67-.02-.14-.04-.33-.08-.47-.02-.06-.03-.12-.07-.23l-.06-.12c-.05-.22-.1-.23-.12-.44,0-.07-.17-.78-.18-.86,0-.06-.02-.14-.09-.2-.04-.04-.05-.26-.07-.32-.03-.13-.07-.27-.12-.4-.05-.14-.02-.31-.06-.46-.03-.13-.1-.25-.13-.38-.02-.1-.06-.28-.06-.41,0-.13-.09-.34-.07-.47.03-.22.09-.36.11-.58,0-.11.04-.12.08-.22.18-.42.27-.63.67-.87.17-.1.5-.21.69-.27.46-.15.86-.11,1.26.15.13.08.22.17.36.25.1.06.25.16.33.2.09.04.15.14.22.21.08.08.1.18.16.27.28.38.5.81.67,1.25.04.1.04.19.1.29.06.11.11.22.14.33.04.18.06.39.17.54.04.19.1.25.13.35.03.08.06.14.07.23,0,.09-.02.07,0,.14.03.07.02.17.05.26.04.13.08.22.12.43.17.38.29.73.42,1.08l.03.12c.03.09.12.22.15.3.08.21.06.41.13.62.06.18.13.35.21.53.06.12.11.39.14.45.04.09,0,.18.04.27.06.14.09.29.15.43.05.13.13.25.15.38.01.07.05.15.05.22,0,.14.07.34.13.46.06.11.08.19.12.3.08.23.09.34.14.57.02.12.19.26.13.38.05.02.06.25.08.32.03.1.21.41.13.5.04.08.02.14.04.23.05.26.21.46.23.73.01.15.03.23.09.39.07.19.17.36.19.55,0,.08.1.32.19.48.01.16.08.47.11.53.1.23.1.45.19.67.03.08.08.14.11.21l.03.08"/><path class="c" d="M155.93,222.27h0s0-.04,0-.04v-.02s0-.03,0-.03c-.31-.72-.67-1.15-1.08-1.76-.13-.23-.23-.57-.48-.93-.13-.18-.27-.36-.47-.54-.2-.18-.34,0-.83.08-.15.02-.2.12-.31.26-.1.11-.16.23-.27.32-.14.11-.26.27-.37.51-.03-.04-.7.81-.75.88-.11.15-.21.31-.34.44-.13.13-.29.19-.42.31-.07.06-.12.18-.2.23-.11.06-.22.07-.35.15-.29.19-.6.36-.9.55-.13.08-.16.15-.26.23-.09.08-.08.05-.16.06-.52.09-1.11.25-1.6.44l-.14.03s-.37,0-.61.02l-.38-.06c-.27-.03-.54-.1-.81-.13-.14-.01-.24-.13-.36-.2-.13-.07-.28-.1-.4-.19-.18-.14-.31-.31-.45-.49-.1-.12-.23-.18-.32-.32-.11-.17-.25-.32-.37-.48-.09-.12-.09-.26-.13-.39-.04-.11-.11-.21-.15-.32v-.05s-.04,0-.04,0v-.09c-.16-.04-.32-.45-.39-.58-.07-.12-.07-.11-.11-.27-.03-.16-.1-.44-.15-.57-.1-.25-.09-.55-.18-.8-.08-.23-.19-.44-.16-.7.03-.3-.17-.62-.07-.9l.03-.95c.17-.84-.11-.64.33-1.37h-.01c.51-.99,1.41-1.92,2.57-2.07.11-.01.26-.05.36-.1.12-.06.2-.07.32-.08.11,0,.18-.05.28-.1.4-.09.7,0,1.25.06l.19.03c.09-.04.45.09.48.18.1-.02.21.1.29.15.25.14.41.31.64.46.12.1.29.17.39.28l.13.08.02.04.09.11c.06.05.13.09.22.09.09,0,.62-.33,1.16-.93l.49-.44.02-.02c.07-.08.14-.14.21-.22l.05-.03c.14-.13,0-.05.19-.16h.05s.08-.06.08-.06l.06-.05c.16-.13.19-.24.26-.35l.09-.15.05-.05.03-.02v-.09s-.01-.1-.01-.1v-.02s-.06-.06-.06-.06l-.06-.07-.03-.03-.06-.04c-.05-.08-.11-.07-.16-.15,0-.08-.06-.1-.06-.18l-.05-.06-.08-.1c-.07-.01-.03-.05-.07-.07-.2-.28-.43-.52-.46-.68-.12-.02-.04-.04-.1-.05-.1-.18-.06-.05-.21-.25-.06-.11-.05-.07-.11-.16-.19-.04-.38-.35-.59-.45-.15.04-.43-.22-.79-.34l-.5-.27c-.29-.12-.53-.19-.85-.22-.24-.06-.67-.18-.81-.17-.23,0-.46,0-.68.02-.13,0-.16.05-.29,0h-.08c-.14-.02-.29.02-.43,0-.19.09-.28.04-.38.03-.09,0-.21.06-.3.08-.07.01-.78.22-.76.24h-.02s-.03.03-.03.03c-.51.21-.96.17-1.46.38h-.05c-.29.15-.69.2-.87.35-.09.04-.15.05-.19.06-.22.12-.1.05-.42.16-.13.06-.26.01-.51.19-.12.07-.14,0-.26.1l-.06.06c-.14.1-.09.04-.22.13l-.13.09c-.63.33-.55.57-1.05.78-.08.17-.04-.01-.09.16-.23.2-.51.34-.57.42-.32.3-.14.37-.42.71-.03.08,0,.1-.07.16l-.07.06-.08.06-.02.06c-.11.11-.22.31-.2.33-.02-.03-.14.31-.31.69l-.03.13c-.22.56-.03.17-.11.56-.11.21-.05-.04-.1.36-.1.08-.14.18-.18.26,0,.38-.1.36-.14.57v.03c0,.12,0-.02-.01.15v.08s-.02.24-.02.24v.3c0,.5.06.16.08.64-.03.1-.01.13.04.3,0,.12.04.14.06.23l.02.08c.03.12,0,.25.05.46,0,0,0,.41.1.68v.02c.04.06.05.11.06.16h.01c.03.07.05.17.05.19l.03.05c-.05.27.08.4.08.71v.1c.05.48.27.99.27.99.2.12.2.5.23.71.02.11.07.17.11.27l.1.3v.27c.07.24.19.19-.13.54-.1.06-.21.13-.21.13-.04.08-.17.51-.12.7.06.1.11.05.18.21v.03s.14.14.14.14c.08.53.61,1.05.71,1.47.14.18.28.36.43.54.11.13.17.23.31.33.09.06.2.17.24.27.05.11.12.21.21.31.16.17.34.23.48.44l.02.02c.15.22.4.3.73.52l.04.03c.29.06.72.23,1.09.33l.04.03c.17.05.05,0,.14.03.09.08.22.13.28.22l.07.05c.08.09.04.03.21.07l.09.05c.5.09.45-.02.98.04h.03c.24-.05.28,0,.43.02.24.04.74-.09,1.09-.11.19,0,.32-.03.51-.03.2.06.58.03.72,0,.53-.06,1.05-.13,1.57-.23.26-.05.51-.1.76-.17.12-.03.24-.06.36-.1.06-.02.16-.05.23-.08.06-.02.09-.07.15-.09.08-.04.17-.04.26-.07.13-.05.23-.11.37-.13.11-.01.19-.01.3-.03h.02c.15-.1.31-.13.48-.17.2-.04.39-.17.59-.24.3-.09.66-.27.87-.55h.1c.63-.37,1.1-1.06,1.52-1.41h.04c.08-.11.04-.16.18-.25l.07-.04c.03-.06.13-.26.25-.38h.05c.46-.52.47-.61.75-1.1.06.04.1-.2.22-.32.06-.06.12-.13.17-.2l.06-.07h0s.01-.04.01-.04h0c0-.06.01-.17.02-.39"/><path class="c" d="M203.14,194.2c-.03-.1-.07-.19-.1-.29-.07-.22-.08-.45-.18-.66-.06-.13-.14-.26-.19-.4-.05-.15-.07-.29-.13-.45-.07-.16-.1-.26-.17-.47l-.04-.11c-.04-.07-.14-.06-.11-.07-.1-.04-.14-.05-.15-.05-.3,0-.29-.02-.58.07h-.17s-.19-.02-.26-.03c-.14,0-.29.04-.42.08-.07.02-.17.02-.24.05-.07.03-.11.08-.18.1-.25.08-.73.24-1.01.28-.06.08-.14.06-.2.14l-.11.06c-.23.05-.77.34-.89.45l-.04.02c-.1.06-.45.36-.56.41-.16.15-.36.28-.54.4-.18.13-.46.19-.6.37-.13.18-.27.37-.36.56-.07.14-.17.27-.29.37-.09.07-.16.16-.27.23-.08.06-.2.2-.22.31-.02.11-.04.16-.09.24-.06.1-.05.16-.12.27l-.29.75c0,.08,0,.13-.04.2h0s-.02.05-.02.05h0s-.02,0-.02,0l-.04.06-.03.05-.05.06c-.08.3-.14.51-.19.84-.05.04-.02.05-.07.13-.04.37-.13.73-.19,1.1-.06.37,0,.74.05,1.11.04.25,0,.5.03.75.01.11.04.13.06.23.05.28.07.57.12.82.01.07.08.84.09.85.1.15.09.45.19.57,0,.31,0,.19.06.62.02.11.09.09.15.22,0,.13.08.25.11.38.04.14.05.31.06.48.07.15.11.31.18.45-.02.23.1.42.12.63v.05c.02.22.14.46.21.66.07.19.14.38.2.56.04.13-.03.34.07.5l.02.04c.11.39.2.55.29.86.08-.02.07.18.16.25.06.05.08.39.11.49.06.19.13.38.17.58.04.23.15.43.25.64.05.11.05.27.1.35.24.44.16.87.36,1.26v.1l.08.23.03.11v.04s0,.02,0,.02v.03c.19.36.12.63.29.94v.11s.02.02.02.02v.02c.86.47.23.12.44.23h.07s.08-.02.08-.02c.11-.02.23-.06.36-.1.22-.08.44-.15.67-.2l.18-.1c.07-.04.16-.06.24-.08.21-.06.41-.11.62-.17.06-.01.12-.03.18-.04.14-.03.28-.06.42-.09.26-.05.51-.1.77-.16.09-.02.21-.02.29-.08.09-.05.11-.16.19-.22.1-.08.15-.05.23-.16l.15-.28v-.05s.02-.04.02-.04v-.03s.02-.03.02-.03v-.03s-.1-.22-.1-.22c-.05-.15-.09-.3-.14-.46-.09-.31-.07-.48-.2-.76.03.03-.04-.11-.03-.05-.04-.14-.06-.4-.11-.43-.02-.09-.03-.05-.02-.11,0-.14-.14-.21-.09-.29l-.03-.05c-.05-.1-.06-.15-.12-.26-.07-.55-.35-1.07-.45-1.61-.01-.06,0-.1-.03-.17l-.07-.14c-.05-.11-.04-.22-.09-.35-.19-.53-.39-1.06-.59-1.59v-.08s-.03-.1-.03-.1v-.02c-.07-.14-.1-.19-.14-.38v-.09s0-.09,0-.09c-.12-.32-.15-.62-.29-.92h0s-.01-.02-.01-.02l-.02-.02c-.08-.01-.06-.11-.07-.19.03-.07-.08-.18-.08-.26,0-.09.02-.17,0-.27-.03-.2-.17-.36-.22-.55-.05-.2-.16-.37-.24-.56-.07-.18-.05-.37-.08-.55-.03-.18-.14-.34-.14-.52h0c-.13-.24-.14-.32-.15-.63,0-.23.06-.41.02-.71-.02-.13.1-.42.13-.54.05-.2.01-.31.11-.5l.03-.05.02-.05.07-.07.14-.49c.07-.2.18-.38.35-.5.1-.07.17-.16.26-.24.13-.12.25-.29.42-.36.14-.05.34-.18.49-.25l.14-.09c.3-.06.5-.23.78-.34.19-.07.32-.13.68-.23.1-.03.28-.09.37-.17.06-.04.05-.02.17-.09l.04-.04c.13-.16.19-.15.22-.22.03-.09,0-.42,0-.52,0-.13-.04-.27-.07-.4-.03-.15-.06-.28-.05-.43,0-.15-.03-.28-.07-.42"/><path class="c" d="M254.23,188.02l-.02-.05c-.2-.52-.22-.87-.46-1.37l.02.04c-.05-.09-.03-.4-.06-.54-.05-.25-.04-.43-.17-.65,0-.01-.03-.19-.06-.26l-.05-.05c-.33-.59-.53-1.53-1.19-2.29-.48-.58-.67-.7-1.11-1.07l-.07-.06-.12-.1c-.13-.14-.28-.25-.43-.36l-.06-.03-.05-.05c-.1-.07-.21-.14-.31-.2l-.09-.05h-.02s-.01-.03-.01-.03l-.08-.04c-.6-.32-1.24-.54-1.92-.64-.38-.05-.76-.06-1.14-.04-.31.02-.56.05-.87.02-.3-.02-.59-.08-.91-.04-.2.08-.32.1-.51.21l-.17.08c-.06.02-.12.04-.18.04l-.1.07c-.06,0-.16,0-.28.06-.17.14-.33.29-.48.45h-.02s-.04.03-.04.03l-.05.02v.02s-.02,0-.02,0c0,.02-.03.06-.14.16-.27.16-.24.06-.47.36h0s-.08.08-.08.08l-.1.08c-.16.2-.3.41-.32.53-.23.2-.46.8-.57.86l-.03.06-.03.03c-.04.17-.14.5-.24.69-.05.08-.02.16-.11.22-.08.05-.15.07-.2-.02-.06-.13-.08-.3-.12-.45-.05-.18-.09-.38-.15-.57l-.07-.27-.1-.15c-.07-.04-.18-.11-.26-.16h-.05s-.05.01-.05.01h-.03s-.01,0-.01,0h-.11s-.03,0-.03,0c-.07,0-.12.02-.18.02-.07,0-.13,0-.19.02l-.04.02-.08.04-.07.02c-.06.04-.16.09-.28.14-.1.04-.16.06-.31.12-.09.05-.17.1-.24.14-.1.01-.14.01-.16,0h-.02c-.19.05-.16.07-.32.13h-.03c-.46.09-.86.35-1.32.43-.18.03-.71.33-.95.24h-.04s-.13.02-.13.02h-.04c-.16.05-.3.11-.44.16-.08.03-.16.07-.24.09l-.13.05v.02s-.07.07-.07.07l-.03.02c-.06.11-.11.18-.13.22h0c-.02.07,0,.12-.01.18v.02c.17.45.31,1.26.53,1.73v.02s.07.11.07.11c.06.25.11.25.07.36v.05s.02.02.02.02h.02s-.01.06-.01.06v.03c.2.54.25,1.09.38,1.64.07.32.22.64.25.98.02.19,0,.38,0,.57.05.49.41.88.48,1.38h0s0,.02,0,.02c-.01.11,0,.22.03.32h0c.07.15.13.22.21.68v.02s.02.03.02.03v.05s0,.03.03.13v.12s.02.01.02.01v.03c0,.05,0,.11.02.2,0,.06.04.2.05.26.03.11.06.22.09.32.07.22.13.45.2.67.07.23.08.46.15.69.06.21.11.36.17.57.07.23.14.66.14,1.07,0,.35-.09.74-.46,1.23-.34.44-.18.24-.65.68-.1.09-.44.24-.55.32-.06.03-.11.04-.12.02l-.04.03-.03.03h-.02s-.04.07-.04.07c-.14.06-.23.07-.24.05h-.07c-.68.32-1.98.62-2.7.41l-.07-.04c-.58-.12-.54-.08-1.04-.37l-.04-.03c-1.24-.51-1.73-2.1-1.81-3.15-.11-.21-.38-1.28-.49-1.4-.13-.8-.1-.54-.34-1.65-.07-.29-.15-.45-.27-.81l.02-.09-.16-.41v-.18c-.05-.08-.05-.12-.07-.16-.18-.52-.3-1.24-.3-1.34l-.31-1.12-.06-.12.02-.05v-.06s0-.05,0-.05c-.02-.05,0-.05-.04-.15-.05-.06-.03-.09-.05-.1-.03-.32-.15-.85-.31-1.36v-.05s-.08-.35-.08-.35l-.05-.18-.02-.09h-.02s0-.05,0-.05h0s-.02-.02-.02-.02l-.02-.03c-.21-.11-.34-.18-.41-.23h-.19c-.2.08-.4.15-.61.22-.22.07-.44.15-.67.23-.11.04-.23.08-.34.11-.1.03-.18.04-.25.11l-.1.07-.12.1-.03.02-.06.02s-.07.01-.13.04c-.03,0-.1.02-.16.02h-.05c-.2-.03-.11.04-.27.02h-.06c-.12-.05-.29.05-.4.08l-.16.04-.08.02h-.04s-.02.02-.02.02h-.02c-.12.23-.1.16-.25.44,0,.06,0,.11,0,.17h0c.02.07.01.11.04.15v.04c.26,1.03.41,1.5.62,2.32h.01s.02.06.02.06c.07.07.13.35.24.56.13.63.24,1.34.43,2.09.04.12.07.19.09.24l.03.02.02.03s.03,0,.07.08c-.04.04.05.46.04.53l.02.13h0s0,.03,0,.03v.03c.16.62.25.94.48,1.74l.03.07.06.08c.06.19.03.25.06.36v.02c.36,1.22.48,3.1,1.18,3.98.2.31.32.62.56.9.06.09.09.13.09.14l.02.03v.02s.03.06.03.06l.02.02.04.05.02.07c.68.74.6,1.4,1.4,1.84.27.3.99.67,1.7.88.57.18.62.26,1.11.35l.43.06h.1s.26,0,.26,0h.03s.02,0,.02,0h.02s.02,0,.02,0l.1.06.16-.03c.23.03.38.07.48.07l1.46-.11c1.1-.14,1.96-.18,3-.89.8-.55.79-.63,1.58-1.57.29-.35.76-1.38.8-1.43.06-.08.09-.16.16-.18.16.02.36.79.45,1.13l.14.3.15.54s-.06.22.44.14h0s.02-.01.02-.01h.04s.3-.13.3-.13l.6-.23c.4-.15.8-.3,1.19-.46.22-.1.52-.17.81-.25l.07-.02h.03s.03-.01.03-.01c.07-.02.14-.04.21-.07l-.04.02h.03s.01,0,.01,0h.05s.06,0,.06,0h.09c.1-.02.21-.05.31-.08.07-.02.13-.04.19-.06h.04s0-.02,0-.02l.05-.03c.24-.14.17-.27.22-.37v-.13s.01-.01.01-.01c-.03-.08-.06-.13-.07-.13-.05-.25.03-.07.02-.23-.04-.32-.26-.76-.27-.98v-.03s0-.05,0-.05c-.05-.18-.11-.42-.15-.55l-.02-.02-.04-.05v-.05c-.12-.58-.32-1.09-.39-1.56v-.02c-.17-.3-.3-.92-.36-1.09l-.06-.62c-.08-.32-.17-.64-.25-.96-.11-.47-.23-.94-.35-1.41-.11-.41-.3-.84-.33-1.26v-.05s0-.03,0-.03v-.03s-.03-.17-.03-.17h0s-.02-.15-.02-.15c-.36-1.18-.73-2.21-.5-3.27l.06-.1c.07-.43.23-.84.58-1.28l.02-.02.03-.04.12-.05c.53-.6,1.3-.89,2.04-1.05l.03-.02h.02s.08-.04.08-.04c.06-.08.8-.22.83-.24.18.03.54,0,.65.07h.05s.04.03.04.03h.04s.01.01.01.01c.1.02.16.03.16.05h.01s.05.04.05.04h.03s.03.02.03.02c.37.03.2.06.67.25l.04.05c.22.07.45.19.69.47h-.02s.01.06.01.06c0,.1.33.41.4.51.12.19.23.39.32.6.1.23.18.47.24.72.06.24.12.44.15.68.03.19.1.46.17.65.1.29.22.57.29.87l.02.04v.02s.01,0,.01,0c.19.45.12-.09.26.54-.05-.12.13.46.14.72.1.22.2.45.27.8v.03c0,.07-.02.15-.02.22v.02c.12.34.26.89.39,1.09l-.02-.03h0s.01.04.01.04h0s.01.05.01.05l.02.04v.07c0,.07.01.12.01.15h0c.03.05.05.11.05.17v.02s.03.03.03.03h0s.04.04.1.31v.08s.03.1.03.1v.05c.18.64.41,1.23.55,1.84l-.02.04v.13s.01.02.01.02l.03.16v.05c.09.26.18.53.27.79.09.26.18.52.26.77l.06.19.03.09.08.08.03.05.08.04h.05s.14-.03.14-.03h0s.04-.04.04-.04c.12-.15.66-.14,1.1-.3l.07-.04h.03s.02,0,.02,0c.13-.04.27-.07.41-.06.17-.05.34-.11.53-.18.19-.07.39-.14.61-.22.11-.04.22-.08.33-.12l.18-.06h.01s.09-.05.09-.05h.02s.02-.03.02-.03v-.02s.02,0,.02,0l.03-.06h0s-.01-.06-.01-.06v-.02s.01-.06.01-.06v-.08s0-.09,0-.09c-.02-.13-.05-.26-.08-.4-.06-.27-.12-.54-.16-.76-.07-.12-.09-.23-.11-.24-.27-1.38-.7-2.46-.8-3.66v-.05s-.02-.06-.02-.06v-.06s-.08-.18-.08-.18l-.04-.03-.02-.09-.04-.04h0s-.02-.03-.02-.03c-.07-.13-.07-.34-.12-.57v.04s.01-.02.01-.02v-.03s0-.05,0-.05v-.03s-.08-.06-.08-.06l.02-.07h0s0-.07,0-.07h0c0-.53-.15-.06-.24-.79v-.14c-.08-.21-.15-.41-.19-.64v-.02s-.09-.25-.09-.25v-.06s0-.03,0-.03v-.07s0-.07,0-.07v-.03c-.02-.41-.05-.46-.1-.76v.03s-.07-.47-.07-.47l-.05-.08M237.29,195.98h0c-.02-.09-.04-.17-.06-.23.01.05.03.13.06.23"/><path class="c" d="M222.86,197.74l-.03-.06h0s-.02-.03-.02-.03h0s-.01-.04-.01-.04v-.03s0-.02,0-.02h0s0-.01,0-.01l-.03-.07v-.03s-.04-.06-.04-.06h0s0-.02,0-.02v-.06s-.03-.04-.03-.04v-.08s-.02-.05-.02-.05v-.08s-.01-.03-.01-.03l-.09-.12c.02-.09-.04-.23-.06-.32l-.05-.08c0-.06-.04-.14-.05-.19l-.05-.1c-.01-.13-.05-.29,0-.38v-.02s-.04-.09-.04-.09v-.03c-.09-.14-.14-.35-.2-.45l-.03-.21-.03-.11-.02-.02-.08-.12c-.1-.16-.15-.17-.19-.35-.04-.16-.08-.32-.16-.47-.06-.13-.11-.25-.17-.38-.07-.13-.07-.19-.11-.33-.04-.14-.17-.26-.26-.39-.1-.17-.19-.33-.35-.45-.15-.1-.28-.14-.38-.31-.07-.11-.12-.21-.16-.33-.05-.13-.07-.25-.2-.33h-.01c-.25-.17-.25-.37-.5-.56-.09-.07-.21-.05-.3-.21-.09-.14-.21-.18-.34-.28-.09-.07-.13-.13-.21-.21-.08-.08-.21-.11-.31-.15-.21-.08-.4-.13-.62-.21l-.13-.04c-.14-.13-.43-.24-.57-.3-.27-.1-.56-.15-.86-.15-.08,0-.18,0-.26,0l-.15-.05c-.21-.02-.42.04-.63.05-.19,0-.39-.04-.51-.01-.12.03-.32.11-.45.06h-.03c-.55,0-1.2.07-1.73.2-.16.04-.31.08-.46.13-.12.04-.25.02-.4.02-.1,0-.16.07-.26.11-.1.05-.2.06-.31.11h-.06c-.14.06-.21.06-.33.1v.02c-.16.1-.36.04-.54.1-.06.02-.46.23-.45.27h0s-.15.03-.15.03v.03c-.15,0-.38.1-.56.23h-.03s-.27.12-.27.12c-.17.13-.58.39-.69.55l-.07.11-.11.08c-.17.1-.31.21-.5.34-.38.15-.59.7-.8.98-.14.19-.37.69-.47,1.02-.1.17-.17.29-.23.45-.02.06-.15.48-.11.51v.05s0,.08,0,.08c0,.06.02.06-.01.08l-.04.05c-.05.53-.4,1.18-.26,1.62v-.02c.01.07.02.14.03.22.01.06,0,.11,0,.18,0,.06,0,.1,0,.16,0,.09,0,.14,0,.21.02.1.03.2.03.3.01.18.01.35.04.53.02.36.02.86.03,1.31l.02.19.03.09.02.05c.03.06.04.09.04.09.09.14.13.58.13.59l.24,1.08c.24.9.05.08.25.97.08.33.11.27.21.5l.04.03-.02.05v.07c.22.53.36,1.13.66,1.62l.03.02.05.06.05.24c.09.26.25.48.37.66.07.1.89,1.11.9,1.1.11.03.2.4.36.47l.05.08v.03s.08.07.08.07l.02.02.15.09c.14.33.56.34.63.57l.05.05v.02c.35.19.56.34.88.48l.06.02c.08.03.15.08.23.1.07.02.15.06.21.08.1.03.16.05.27.08.12.04.25.06.35.11l.03.03.02.02v.02s.03.02.03.02c.49.13.77.17,1.35.22.06-.03.31.02.38.05.21.09.44.02.66.02.12,0,.25.02.37.02.12,0,.23-.05.35-.07.12-.02.25-.06.37-.05.11,0,.23,0,.34,0,.17-.02.31,0,.48-.07.19-.07.31-.16.53-.18.16-.01.27-.09.41-.09.08,0,.12-.06.21-.06.14,0,.21-.09.33-.15.1-.05.32-.14.39-.16.21-.04.36-.12.57-.19.19-.05.37-.12.54-.21.1-.05.19-.14.28-.2.07-.05.26-.2.34-.26.07-.06.31-.18.39-.22.15-.08.27-.12.39-.24.06-.06.14-.11.21-.16l.11-.13.08-.07.05-.02.04-.07.07-.05.09-.09s.1-.08.13-.15c.06-.15.18-.22.29-.32l.09-.09c.06-.07.12-.14.17-.22.11-.16.19-.33.28-.5.05-.09.1-.19.15-.27.09-.15.09-.25.17-.41.13-.28.23-.55.34-.84.05-.15.07-.16.13-.29.06-.12.02-.21.06-.37.04-.17.08-.33.17-.5.09-.17.04-.04.09-.3l.06-.11.03-.21c-.02-.27.06-.57,0-.95-.07-.49-.17-.9-.22-1.4-.03-.3-.1-.61-.15-.9-.02-.15-.06-.33-.05-.48.01-.13.03-.18.03-.27,0-.15-.07-.39-.09-.54v-.03s0-.05,0-.05h0s0-.04,0-.04h0M218.25,200.2v.05c.06.15.09.31.13.47.03.1.02.28.02.39,0,.22-.04.24-.01.46.05.4.02.69-.03,1.09-.03.18,0,.35-.03.53-.04.32-.29.67-.44.94-.11.21-.07.43-.28.56-.15.1-.25.13-.41.23-.13.08-.27.18-.43.2-.1,0-.16.06-.28.08-.14.03-.34.16-.49.19-.19.04-.26.09-.45.11-.16.01-.27.05-.41.08-.1.02-.23.07-.32.08-.12.01-.18,0-.3.02-.12.02-.14,0-.24-.04-.14-.05-.27-.07-.42-.12s-.31-.13-.45-.2c-.13-.07-.18-.19-.29-.29-.28-.26-.33-.54-.44-.89-.08-.23-.13-.44-.24-.71-.07-.19-.15-.37-.17-.55-.02-.24-.09-.36-.16-.59-.05-.17-.05-.31-.12-.48-.03-.07-.03-.1-.05-.2-.02-.11-.21-.32-.16-.42-.05-.56-.25-1-.3-1.34-.02-.13-.1-.27-.11-.39,0-.12-.02-.21-.04-.33-.03-.14-.02-.19-.07-.35l-.05-.13c-.21-.46-.21-.96-.2-1.45,0-.14-.05-.16-.04-.32.01-.14-.07-.29-.04-.42.02-.13.24-.49.19-.57l.03-.08c.04-.23.2-.47.36-.64.06-.07.17-.18.26-.22.08-.04.17-.1.29-.19.44-.28.7-.42,1.13-.54.26-.07.51-.06.77-.16.25-.08.63.04.89.06.26.03.48.15.73.19.08.01.2.07.28.1.16.05.38.27.48.41.17.23.24.46.42.68.18.23.17.42.25.67.05.14.08.27.12.41.02.06.08.1.1.15.02.08.07.15.08.22.03.15.06.28.1.43.03.13.07.12.1.33.12.16.13.16.16.26.02.11-.03.21.04.29-.07-.07-.03.12-.03.14,0,.13.11.23.1.37,0,.23.06.29.15.49.07.16.11.35.19.5.08.16.07.29.13.45"/><path class="c" d="M135.28,222.43c.61-.24.41-.48.3-1.01-.08-.39-.22-.76-.34-1.11v-.04c-.05-.1-.09-.2-.12-.3.02,0-.04-.09-.05-.3,0-.03-.05-.13-.09-.19.04.03-.24-.49-.22-.67,0,0-.05-.19-.13-.21-.04-.08-.18-.13-.22-.21l-.06-.24c-.02-.05-.05-.11-.16-.18-.07-.28-.25-.5-.45-.72-.17-.23-.22-.26-.31-.5-.12-.24-.16-.42-.33-.57-.1-.09-.35-.31-.64-.53.05-.02-.47-.49-.73-.72,0,0-.37-.17-.6-.27-.1-.05-.04-.14-.15-.18,0,0-.68-.28-1.22-.47l-.24-.13c-.12-.09-.15-.06-.27-.08-.31-.08-.1-.03-.28-.11-.08.02-.23,0-.28-.04-.09-.02-.16,0-.19-.02-.17,0-.11-.15-.36-.06h-.13s-.03.01-.03.01c-.54.02-1.1-.09-1.63-.02,0,0-.71,0-.92.09-.52.09-.81,0-1.66.16h-.17c-.38.08-1.13.4-1.37.51-.27.12-.57.28-.65.33-.39.16-.7.54-.82.58l-1.02.92c-.44.38-.18.18-.43.48-.19.13-.1.09-.22.23-.18.17-.6.6-.6.6-.07.09-.08.09-.15.15-.02.12-.25.46-.29.52-.02,0,0,.18-.21.6-.02.1-.04.09-.07.26-.16.26-.21.27-.15.46,0,0-.01.06-.06.26-.01,0-.24.29-.26.59-.07.13-.05.11-.11.24-.02.38-.19.31-.19.7,0,.11.01.29.01.29-.04.54-.01,1.19-.01,1.19.06.08,0,.35.04.54.03.16.03.38.03.65v.25c.03.47.11.61.22,1-.01.33.15.62.18.78,0,.01.49,1.3.49,1.72.14.29.42.92.4.86.14.39.2.35.24.5.05.26.4.77.4.77.08.24.51.66.61.76.13.24.76.63.75.74.13.1.06.17.25.25.22.31.4.4.4.4.41.27.9.39.9.39.31.03.17.18.47.22l.35.1c.18.06.33.2.65.28.19.02.18.06.53.16.23,0,.82.43,1.18.45.67-.02,1.32.11,2.09.03.16-.02.26-.07.42-.08.17-.03.25,0,.41-.02.39-.05.56-.07.78-.09l.53-.1c.26-.1,1.35-.47,1.23-.42.65-.17,1.85-.69,1.85-.69.11-.06.3-.13.36-.15.05-.04.32-.16.32-.16.63-.26.85-.55,1.27-.91.24-.12.32-.24.52-.43l.2-.34c.57-.59.74-.84,1.02-1.48.08-.08.17-.2.26-.34.04-.07.09-.15.14-.23l.07-.13.02-.03v-.02s0,0,0,0c0-.16.06-.14,0-.35h0s0,0,0,0h0s-.05-.09-.05-.09c-.25-.38-.6-.71-.92-.96-.2-.14-.56-.18-.56-.18-.09-.16-.86-.08-.86-.08-.86-.21-1.79.48-2.21.44-.14.09-.5.17-.5.17-.44.14-1,.4-1,.4-.3.1-.33.1-.6.2l-.18.1c-.52.18-1.07.21-1.58.46-.12.03-.56.17-.78.21-.08-.07-.79.16-.79.16-.22.16-.35.13-.53.23l-.41.04c-.27.01-.25.04-.39.1-.18.04-.26-.01-.48-.07-.1-.04-.22-.06-.34-.17,0-.03-.13-.08-.23-.09-.29-.26-.24-.2-.36-.46.02-.07-.02-.13-.02-.16-.03-.11-.04-.05-.12-.33,0-.02-.09-.25-.18-.33-.08-.1-.07-.32-.17-.37-.08-.05-.06-.17-.1-.21-.17-.47,0-.47.02-.62l.12-.03c.25-.05.44-.07.58-.18.13-.04.14,0,.25,0,.26,0,.45-.21.62-.2.2-.02.57-.09.57-.09.9-.15,1.56-.3,1.97-.41,1.15-.16,2.09-.73,3.23-.91.32-.06.52-.08.69-.2l.11-.06.27-.08c.43-.23.57.02,1.09-.33l.2-.1c.21-.06.44-.11.62-.19.06-.02.04-.09.13-.08l.49-.23c.15-.08.21-.01.41-.08.2-.1.1-.11.21-.17-.08.03.18-.07.16-.11l.31-.12M130.14,220.43l-.07.08c-.06.03-.04.03-.09.06,0,0-.16.21-.47.22-.06,0-.13.03-.13.03-.11,0-.18.01-.31.07l-.18.08c-.14.04-.37.12-.35.11-.07.01-.4.12-.46.19,0,0-.04,0-.13.06-.06,0-.03.06-.12.04l-.15.04-.21.07s-.13.05-.24.05l-.32.05c-.15.04-.47.07-.61.17-.03.03-.16.03-.28.08l-.57.15c-.36.11-.99.23-1.04.28l-.1.04c-.12.09-.33.1-.33.1-.06,0-.34.14-.34.14-.12,0-.29.1-.34.09,0,0-.36.13-.53.16h-.01s-.06,0-.06,0c-.07-.02-.23,0-.23,0-.06.02-.15.03-.22.04l-.06-.02c-.05-.06-.07,0-.11-.07,0-.09-.19-.24-.12-.31-.01-.13.07-.23.07-.37,0,0-.03-.19,0-.27v-.16s.01-.1.01-.1c.01-.07-.04-.1-.02-.22-.02-.09.02-.16.02-.19.01-.08.06-.1.04-.14v-.19s.04-.12.04-.12c0,0,.07-.13.09-.26,0,0,0-.17.05-.24,0-.02.07-.09.16-.14.06-.08.12-.12.12-.12l.07-.09.31-.34c.1-.04.16-.2.21-.2l.06-.09c.05-.08.15-.19.22-.26.09-.03.05-.03.12-.06.09-.04.15-.09.23-.14.06-.04.13-.06.2-.1.07-.04.08-.1.16-.14.09-.04.17-.06.26-.11l.27-.07c.12-.05.16-.07.3-.12l.17-.07.15-.05c.12,0,.19-.05.24-.1.06-.03.1-.02.13-.05l.11-.05s.26-.12.43-.07c.09,0,.23,0,.22,0,.11.05.34.01.34.01.14,0,.14,0,.23-.01,0,0,.12-.05.19,0,.02.04.1-.03.16,0l.14.02s.14-.02.27.02l.11.03.12.06s.11.04.22.05c.1.02.19.13.27.19.16.07.23.14.4.21.05.05.17.1.15.14.06.06.12.1.14.15l.12.1c.08.01.12.12.2.16.09.12.15.17.22.27l.11.12.04.09c.01.15.13.39.13.45l.04.07c0,.09,0,.13.06.19l.09.11s.05.08,0,.21M122.1,220.78h.01s0,0,0,0h-.01Z"/><path class="c" d="M172.25,209.78v-.13c-.29-.65-.27-1.18-.6-1.79.01-.02-.11-.25-.08-.18.01-.16-.09-.4-.15-.37-.04-.1-.07-.08-.07-.16,0-.13-.11-.18-.14-.3-.02-.06-.05-.13-.08-.2-.03-.08-.11-.14-.16-.2-.08-.1-.18-.25-.27-.37-.08-.11-.17-.22-.25-.34s-.15-.23-.2-.36c-.05-.13-.11-.25-.25-.31l-.1-.16c-.13-.14-.13-.03-.3-.18-.14-.37-.49-.4-.67-.66-.06-.09-.64-.38-.75-.42-.42-.19-.85-.34-1.27-.52-.39-.17-.93-.24-1.28-.24-.09,0-.2.08-.29.06-.11-.02-.18,0-.27-.03-.12-.05-.41-.12-.53-.09-.21.04-.41.02-.62.05-.22.04-.42.17-.64.17-.21,0-.33.12-.53.19-.16.05-.39,0-.53.09-.15.09-.27.12-.46.16-.16.03-.33.05-.49.09-.14.03-.28.09-.42.12-.28.06-.5.15-.76.28-.12.06-.18.07-.3.11-.13-.07-.07.03-.2,0-.13-.02-.43.24-.54.31-.08.05-.17.09-.25.14-.07.05-.13.1-.21.14-.1.06-.2.03-.3.13-.28.06-.69.42-.83.54-.1.07-.4.2-.42.28-.02.06-.32.29-.19.18-.2.14-.6.5-.66.58-.11.16-.29.25-.41.39-.13.14-.19.29-.28.46-.19.22-.28.66-.38.79-.13.16-.3.27-.36.48-.07.24-.09.45-.23.67-.08.12-.13.28-.17.43-.03.13-.02.32,0,.43.03.3-.1.58,0,.88.04.32.14.39.2.64v.11s0,0,0,0c.02.17.04.34.06.52.06.54.08.88.22,1.46v.22c-.01.27-.02.44.03.65.01.08,0,.14,0,.27,0,.1,0,.14.02.27-.02.16.06.31.11.48.04.14.06.25.09.39.03.14.09.24.13.39l.04.21c-.02.09.04.21.07.29.06.2.1.4.17.59.06.25.16.48.21.74.02.09.14.16.19.28.05.11.09.29.11.48.07.17.19.24.26.38l.06.15c.14.31.33.56.54.83.13.17.22.3.35.48.19.28.46.35.67.57.08.09.16.16.26.24.08.07.17.05.24.1.1.07.13.16.22.23.14.1.39.21.54.28.28.14.62.48.94.52.12.01.26.15.38.2.17.07.35.09.52.15.2.08.41.16.61.23.25.08.42.04.66.08.2.03.42,0,.62,0,.17,0,.42.06.58.08.05,0,.12-.06.19-.07.3-.04.61.06.91.05.11,0,.89.01.95,0,.14-.04.48-.04.63-.16-.18.05.86-.08,1.1-.22.19,0,.37-.06.5-.11.09-.03.27,0,.34-.04.76-.38,1.79-.61,2.34-1.33l.05-.07.06-.05.1-.04.06-.05c.1-.08.21-.16.3-.26l.07-.04.07-.05.1-.12c.06-.07.11-.13.16-.2.05-.06.09-.13.14-.2l.07-.1.04-.08.03-.09.03-.05.05-.14c.18-.21.36-.48.5-.78.07-.23.06-.07.06-.18.09-.04.06-.08.09-.13.04-.06.06-.16.09-.23.03-.06.05-.13.07-.19.05-.16.1-.33.12-.5h-.02s0-.08,0-.08v-.05s.05-.06.05-.06l.03-.11.04-.17c.03-.11.07-.23.11-.34.08-.21.17-.43.22-.66.02-.11.03-.23,0-.34,0-.16.02-.2.01-.35.02-.07,0-.03.06-.19-.11-.5.02-.74-.08-1.14,0-.46-.07-1-.07-1.45l-.03-.12-.03-.06h0s-.04-.11-.04-.11c-.25-.9-.44-1.67-.6-2.59-.07-.33,0,.01-.08-.45M167.35,211.26c.06.24.14.48.2.7.04.15.14.58.19.72.04.1,0,.19.07.28l.04.06c0,.21.1.31.15.52.05.25.09.51.17.76.04.14.06.4.11.53.12.29.13.32.21.58,0,.14.05.07,0,.21.06.22.03.04.04.29.01.26.15.59.07.85-.04.12-.05.17-.11.27-.08.13-.12.35-.21.49-.11.18-.29.3-.44.48-.03.04-.06.07-.11.13-.15.19-.44.25-.68.33-.13.12-.27.12-.43.14-.24.04-.44.13-.68.24-.22.1-.36.04-.58.09-.12.02-.22.12-.34.14-.21.04-.43.03-.64.06-.08.01-.16.05-.24.07-.07.02-.15.03-.22,0-.06-.02-.13.04-.2.03-.12-.01-.22-.02-.34-.02-.15,0-.29-.07-.42-.14-.08-.04-.13-.02-.22-.05-.07-.03-.11-.03-.18-.06-.09-.05-.23-.15-.31-.22-.08-.07-.14-.1-.22-.15-.1-.06-.18-.17-.28-.24-.07-.06-.12-.16-.21-.21-.17-.11-.28-.21-.32-.4-.04-.18-.04-.27-.13-.42-.09-.17-.1-.29-.07-.44.04-.21-.04-.4-.06-.61-.02-.14-.09-.21-.15-.44,0-.11-.03-.23-.02-.34,0-.14-.14-.26-.07-.32h0s0-.08,0-.08c0-.06-.01-.15-.04-.22-.03-.09-.01-.17-.04-.25-.02-.06-.05-.1-.06-.17-.01-.09-.03-.17-.06-.25-.05-.16-.13-.34-.11-.52-.02-.09-.05-.17-.1-.24l-.02-.06c-.1-.2-.08-.34-.14-.59-.01-.06-.02-.22-.02-.27,0-.14-.06-.27-.1-.4-.05-.19-.07-.35-.09-.55-.02-.19-.06-.4-.08-.59-.04-.29.05-.66.1-.96.05-.4.03-.71.26-1.06.1-.15.2-.29.32-.42.18-.2.39-.3.64-.41.26-.11.71-.44.98-.46.36-.1.66-.12.96-.16.35-.05.66-.09,1.01-.14.37-.06.83.06,1.19.12h.09s.08.06.08.06l.06.05c.32.01.37.44.61.47l.02.03c.07.03.03.02.1.06.06.09.06.03.08.12.23.14.18.3.3.41.04.25.22.36.24.65l.03.06c.07.04.06.05.06.09l.05.06c.21.4.19.92.27,1.43.01.09.03.18.06.27"/><polygon class="c" points="288.33 168.31 288.35 168.39 288.35 168.45 288.34 168.49 288.31 168.5 287.76 168.65 288.24 170.41 288.23 170.44 288.2 170.47 288.14 170.5 288.03 170.54 287.93 170.56 287.85 170.57 287.81 170.55 287.79 170.53 287.32 168.77 286.77 168.92 286.74 168.91 286.71 168.89 286.69 168.84 286.66 168.75 286.64 168.67 286.64 168.61 286.65 168.57 286.68 168.55 288.21 168.14 288.24 168.14 288.27 168.17 288.3 168.22 288.33 168.31"/><path class="c" d="M291.64,169.49v.03l-.03.03-.06.03-.1.03-.1.02h-.07s-.04,0-.04,0l-.02-.03-.48-1.77h0s-.15,1.94-.15,1.94v.04s-.05.03-.05.03l-.06.03-.1.03-.1.02h-.07s-.05,0-.05,0l-.03-.03-1.09-1.61h0s.48,1.78.48,1.78v.03l-.03.03-.06.03-.1.03-.1.02h-.07s-.04,0-.04,0l-.02-.03-.52-1.94c-.01-.06,0-.11,0-.14l.11-.08c.26-.05.53-.24.7.08l.82,1.17h0s.14-1.43.14-1.43l.02-.13.04-.09.07-.07.11-.04.3-.08h.08s.06,0,.06,0l.05.05.03.07"/><path class="b" d="M211.75,220.12l-2.14.57-.09.06-.05.12s0,.11,0,.18c0,.07.03.16.05.26.03.1.05.18.08.25.03.07.06.12.08.16l.1.08h.11s1.02-.27,1.02-.27l.32,1.17c-.08.07-.18.13-.28.18-.12.06-.23.1-.35.13-.26.07-.52.1-.76.07-.24-.02-.47-.09-.67-.21-.2-.12-.38-.29-.53-.5-.15-.22-.27-.48-.36-.81-.08-.3-.11-.58-.08-.84.03-.26.1-.5.22-.71.12-.21.28-.39.49-.54.21-.15.45-.27.73-.34.28-.08.53-.11.75-.12.22,0,.41,0,.57.02.16.02.3.04.41.07.11.03.21.03.28.01l.08-.06.04-.12c0-.05,0-.12,0-.2-.01-.08-.03-.18-.06-.29-.05-.18-.09-.3-.14-.39-.05-.08-.1-.14-.15-.18-.06-.03-.14-.06-.26-.08-.12-.03-.27-.04-.46-.05-.19,0-.4,0-.64.03-.24.03-.51.08-.79.16-.51.14-.95.33-1.32.59-.37.26-.67.56-.89.92-.22.36-.36.76-.41,1.2-.05.44-.01.92.12,1.41.13.49.33.91.58,1.26.26.35.56.61.92.8.36.19.76.29,1.2.32.44.03.92-.03,1.43-.16.17-.05.34-.1.52-.17.17-.06.34-.13.5-.21.16-.08.31-.16.46-.24.15-.08.28-.17.4-.26.08-.05.14-.12.16-.22.02-.09.02-.18,0-.28l-.66-2.46c-.03-.13-.1-.23-.19-.3-.09-.07-.21-.08-.33-.05M219.83,221.26l-.83-1.12c-.1-.13-.2-.25-.3-.35-.1-.1-.19-.18-.29-.25-.09-.07-.19-.12-.28-.16-.1-.04-.2-.06-.3-.07.18-.12.34-.24.46-.39.12-.14.22-.29.28-.46.07-.16.1-.34.1-.53,0-.19-.02-.38-.08-.59-.08-.29-.2-.53-.37-.71-.17-.18-.37-.32-.61-.4-.24-.08-.5-.12-.8-.11-.29,0-.63.06-1.02.17l-1.96.53c-.12.03-.2.09-.26.18-.06.09-.07.21-.03.35l1.49,5.53.06.09s.08.03.14.03c.06,0,.14,0,.24-.02.1-.02.22-.05.37-.09.14-.04.26-.07.36-.11.09-.03.17-.06.22-.1l.1-.1v-.11s-.59-2.22-.59-2.22l.43-.11c.14-.04.26-.05.36-.04.1,0,.2.04.29.1.09.05.18.13.27.22.08.09.17.21.27.35l.8,1.19.09.1s.09.04.15.04c.07,0,.15,0,.25-.02s.24-.05.4-.1c.17-.05.31-.09.42-.12.11-.04.2-.07.25-.09.06-.03.1-.05.12-.08v-.08s-.04-.12-.04-.12c-.03-.05-.08-.13-.15-.22M217.1,218.29c-.01.11-.05.21-.11.3-.06.09-.15.17-.26.25-.11.07-.26.13-.46.18l-.64.17-.42-1.58.68-.18c.21-.06.37-.08.5-.07.13,0,.23.04.32.08.09.05.17.11.22.2.06.08.1.18.13.29.03.13.04.25.03.36M224.83,214.58c-.28-.19-.6-.31-.98-.35-.37-.05-.79,0-1.26.12-.45.12-.82.3-1.14.54-.31.24-.56.54-.73.88-.17.35-.27.74-.29,1.17s.03.9.17,1.4c.14.52.32.96.55,1.32.23.36.5.63.82.82.32.19.68.29,1.09.32.41.02.86-.03,1.36-.16.28-.07.53-.16.77-.26.23-.1.44-.2.61-.3.18-.1.32-.19.43-.27.11-.08.17-.14.19-.18l.04-.11v-.13s0-.11-.02-.17c-.01-.07-.03-.14-.06-.24-.03-.1-.05-.19-.08-.26-.03-.07-.05-.12-.08-.15l-.08-.06h-.1c-.06.02-.14.06-.23.13-.09.07-.21.15-.34.24-.14.09-.31.18-.51.28-.2.1-.44.18-.71.26-.27.07-.52.1-.73.08-.22-.02-.4-.08-.56-.18-.16-.1-.29-.25-.4-.43-.11-.18-.2-.39-.26-.63l3.41-.92c.15-.04.26-.12.32-.23.06-.12.07-.27.01-.46l-.07-.25c-.11-.39-.26-.75-.45-1.06-.19-.31-.43-.55-.71-.74M222.02,217.22c-.04-.2-.06-.39-.06-.58,0-.19.04-.36.1-.51.06-.15.16-.29.29-.41.13-.12.29-.2.5-.25.4-.11.73-.06.99.14.26.2.44.53.55.98l-2.37.63ZM231.53,212.5c-.25-.12-.54-.19-.88-.19-.33,0-.72.06-1.16.17-.25.07-.48.15-.71.25-.22.1-.42.21-.6.33-.18.12-.33.23-.46.34-.13.11-.21.21-.25.28-.04.08-.06.16-.06.24,0,.08.02.19.05.32.02.09.06.18.09.26.03.08.07.14.11.19l.12.1h.13c.07,0,.15-.06.24-.15.09-.09.21-.19.35-.3.14-.11.3-.23.5-.34.19-.12.42-.21.68-.28.2-.05.38-.08.52-.07.15,0,.27.04.38.11.11.07.19.16.26.28.07.12.13.27.18.45l.09.34-.55.15c-.5.13-.93.29-1.28.47-.36.18-.64.38-.85.6-.21.23-.35.48-.41.75-.06.27-.05.58.04.9.08.3.2.55.36.75.16.2.35.35.58.46s.47.16.74.17c.27.01.55-.02.85-.1.36-.1.67-.26.93-.47.26-.22.47-.48.63-.79l.12.45c.01.06.04.1.09.12.04.02.11.03.2.02.09,0,.23-.04.42-.09.18-.05.31-.09.39-.13.08-.04.15-.08.18-.13.03-.04.04-.1.03-.16l-1.01-3.77c-.1-.38-.24-.71-.41-.96-.17-.26-.38-.45-.62-.57M231.63,216.78c-.13.27-.28.49-.43.65-.16.16-.35.28-.57.34-.26.07-.49.06-.67-.03-.19-.09-.31-.26-.37-.49-.04-.14-.04-.27-.02-.39.02-.12.08-.23.18-.34.09-.1.22-.2.39-.29.17-.09.38-.16.64-.23l.6-.16.25.96ZM238.44,210.58c-.03-.08-.06-.13-.09-.18l-.1-.09h-.11s-4.36,1.16-4.36,1.16l-.09.06-.04.13c0,.05,0,.12,0,.2.01.08.03.17.06.28.03.11.06.2.08.27.03.07.06.13.09.18l.1.09h.11s1.41-.37,1.41-.37l1.25,4.66.08.11s.09.04.16.04c.06,0,.14,0,.24-.02.09-.02.22-.05.36-.09.15-.04.26-.07.36-.11.09-.03.17-.07.22-.1l.11-.11v-.13s-1.24-4.66-1.24-4.66l1.41-.38c.08-.02.12-.1.13-.2,0-.1-.01-.26-.07-.47h0c-.03-.11-.06-.2-.09-.27M248.92,212.11l-.09-.1h-.11c-.06.01-.13.06-.2.15-.07.09-.16.19-.26.3-.11.11-.24.23-.4.34-.16.11-.35.2-.59.27-.24.06-.45.08-.65.05-.2-.03-.38-.11-.54-.23-.16-.12-.3-.29-.42-.51-.12-.22-.22-.47-.3-.78-.16-.61-.17-1.11-.01-1.49.16-.38.46-.63.91-.75.23-.06.44-.09.62-.07.18.01.34.04.48.08.14.04.26.08.36.11.1.03.19.04.27.02.07-.02.12-.08.14-.2.02-.11,0-.29-.07-.53-.03-.1-.06-.19-.08-.27-.03-.07-.05-.13-.08-.18l-.08-.11s-.08-.05-.14-.09c-.06-.03-.16-.06-.3-.09-.14-.03-.29-.05-.46-.06-.17,0-.35,0-.53.01-.19.02-.37.05-.56.1-.45.12-.85.3-1.19.53-.34.23-.62.52-.82.86-.2.34-.33.74-.37,1.19-.04.45,0,.96.16,1.52.13.49.31.9.54,1.25.23.34.5.61.82.81.32.19.68.31,1.08.35.4.03.84-.01,1.32-.14.21-.06.41-.13.61-.22.19-.09.36-.18.52-.28.16-.1.29-.2.41-.31.11-.1.19-.19.24-.25.04-.06.07-.11.07-.15v-.13c0-.05,0-.12-.01-.19-.01-.07-.03-.17-.06-.28-.04-.14-.07-.25-.11-.33-.03-.08-.06-.16-.1-.21M254.83,206.54c-.31-.2-.67-.32-1.08-.36-.41-.04-.86.01-1.36.15-.52.14-.94.34-1.29.6-.34.26-.6.56-.78.91-.18.35-.28.74-.3,1.17-.02.43.03.89.16,1.36.13.5.31.92.53,1.27.22.35.49.63.8.83.32.2.68.32,1.08.36.41.04.86,0,1.36-.14.52-.14.95-.34,1.29-.6.34-.26.61-.57.79-.92.18-.35.28-.74.3-1.17.02-.43-.03-.88-.16-1.36-.13-.5-.31-.92-.53-1.28-.22-.35-.49-.63-.8-.83M254.68,209.97c0,.25-.02.47-.09.66-.07.19-.18.36-.33.49-.15.13-.35.23-.59.3-.26.07-.49.08-.69.03-.2-.05-.38-.14-.53-.29-.15-.15-.28-.33-.39-.55-.11-.22-.2-.47-.28-.75-.08-.3-.12-.57-.13-.82,0-.25.02-.47.09-.67.07-.2.18-.36.33-.49.15-.13.35-.23.58-.29.26-.07.5-.08.7-.03.2.05.37.15.53.29.15.14.28.33.39.55.11.22.2.47.27.75.08.3.12.57.13.82M260.68,204.25l-3.06.82c-.12.03-.22.1-.28.19-.07.1-.08.23-.03.38l1.45,5.41.08.11s.09.04.16.04c.06,0,.15,0,.24-.02.1-.02.22-.04.36-.08.15-.04.26-.08.36-.11.09-.04.17-.07.22-.1.06-.03.09-.07.12-.11v-.13s-.56-2.13-.56-2.13l1.8-.48.1-.06.05-.13c0-.05,0-.11,0-.19,0-.08-.03-.16-.06-.27s-.05-.19-.08-.26c-.03-.07-.06-.12-.09-.17l-.11-.09h-.12s-1.8.48-1.8.48l-.37-1.37,1.95-.52c.08-.02.13-.1.13-.2,0-.1-.02-.25-.07-.45-.06-.21-.11-.36-.17-.44-.06-.08-.13-.13-.22-.1M266.11,202.79l-3.06.82c-.12.03-.22.1-.28.19-.07.1-.08.23-.04.38l1.45,5.41.07.11s.09.04.16.04c.06,0,.15,0,.24-.02.1-.02.22-.04.36-.08.14-.04.26-.08.36-.11s.17-.07.22-.1c.06-.03.1-.07.12-.11v-.13s-.56-2.13-.56-2.13l1.8-.48.09-.06.05-.13c0-.05,0-.11,0-.19-.01-.08-.03-.16-.06-.27-.03-.1-.06-.19-.08-.26-.03-.07-.06-.13-.09-.17l-.11-.09h-.11s-1.8.48-1.8.48l-.37-1.37,1.95-.53c.08-.02.13-.1.13-.2,0-.1-.02-.25-.07-.46-.06-.21-.11-.36-.17-.44-.05-.08-.13-.13-.21-.1M272.88,201.72c-.27-.18-.59-.3-.96-.35-.36-.05-.78,0-1.23.11-.44.12-.81.29-1.12.53-.31.24-.55.53-.72.86-.17.34-.27.72-.29,1.15-.02.43.03.88.16,1.37.14.52.32.95.54,1.3.22.35.49.62.81.8.31.18.67.29,1.07.31.4.02.85-.03,1.34-.16.27-.07.52-.16.75-.26.23-.1.43-.2.6-.29.17-.1.31-.19.42-.27.11-.08.17-.14.19-.17l.04-.11v-.12s0-.1-.02-.17c-.01-.07-.03-.14-.06-.23-.03-.1-.05-.19-.08-.25-.02-.07-.05-.12-.08-.15l-.08-.06h-.1c-.06.02-.14.06-.22.13-.09.06-.2.14-.34.23-.14.09-.3.18-.5.27-.2.09-.43.18-.7.25-.27.07-.51.1-.71.08-.21-.02-.39-.08-.55-.18-.16-.1-.29-.24-.4-.41-.11-.18-.19-.38-.25-.62l3.35-.9c.15-.04.25-.12.31-.23.06-.11.07-.27.01-.45l-.07-.25c-.1-.39-.25-.73-.43-1.03-.19-.3-.42-.55-.69-.73M270.13,204.31c-.04-.2-.06-.39-.05-.57,0-.18.04-.35.1-.5s.16-.28.28-.4c.13-.11.29-.2.49-.25.39-.1.71-.06.97.14.25.2.43.52.54.96l-2.32.62ZM280.56,200.57c-.19-.3-.42-.55-.69-.73-.28-.19-.59-.3-.96-.35-.36-.05-.78,0-1.24.11-.44.12-.81.29-1.12.53-.31.24-.55.53-.72.86-.17.34-.27.72-.29,1.15-.02.43.03.88.16,1.37.14.51.32.94.54,1.29.23.35.49.62.81.8.31.18.67.29,1.07.31.4.03.84-.03,1.34-.16.27-.07.52-.16.75-.26.23-.1.43-.2.6-.29s.31-.19.42-.27c.11-.08.17-.14.19-.18l.04-.11v-.12s0-.1-.02-.17c-.01-.06-.03-.14-.06-.23-.03-.1-.05-.19-.08-.26-.03-.06-.05-.11-.08-.15l-.08-.06h-.1c-.06.02-.14.06-.23.13-.09.06-.2.14-.34.23-.14.09-.3.18-.5.27-.2.09-.43.18-.7.25-.27.07-.51.1-.72.08-.21-.02-.39-.08-.55-.18s-.29-.24-.4-.42c-.11-.18-.19-.38-.25-.62l3.35-.9c.15-.04.25-.12.31-.23.06-.11.06-.26.01-.45l-.06-.25c-.1-.39-.25-.73-.44-1.03M277.12,202.43c-.04-.19-.06-.38-.06-.57,0-.19.04-.35.1-.5.06-.15.16-.28.28-.4.13-.11.29-.2.48-.25.39-.11.71-.06.97.14.25.2.43.52.54.96l-2.32.62ZM111.17,249.13l-.1-.1h-.11c-.06.01-.13.06-.2.15-.07.09-.16.19-.27.3-.11.11-.24.23-.39.34s-.35.2-.59.26c-.24.06-.45.08-.65.05-.2-.03-.38-.11-.54-.23-.16-.12-.3-.29-.42-.51-.12-.21-.22-.47-.3-.77-.16-.61-.17-1.11-.01-1.49.15-.38.46-.63.91-.75.23-.06.44-.09.62-.07.18.01.34.04.48.08.14.04.26.08.36.11.1.04.2.04.27.02.07-.02.12-.09.14-.2.02-.11,0-.29-.07-.53-.03-.1-.06-.19-.08-.27-.03-.07-.05-.13-.08-.18l-.08-.11s-.07-.05-.14-.09c-.06-.03-.16-.06-.3-.09-.14-.03-.29-.05-.46-.06-.17,0-.35,0-.53.01s-.37.05-.55.1c-.45.12-.85.3-1.19.53-.34.23-.62.52-.82.86-.2.34-.33.74-.37,1.19-.04.45,0,.96.16,1.52.13.49.31.9.54,1.25.23.34.5.61.82.81.32.19.68.31,1.09.35.4.03.84-.01,1.32-.14.21-.06.41-.13.6-.22.19-.09.37-.18.52-.28.16-.1.29-.2.41-.31.12-.1.2-.19.24-.25.04-.06.07-.11.08-.15v-.13c0-.05,0-.12-.01-.19s-.03-.17-.06-.28c-.04-.14-.07-.25-.1-.33-.03-.08-.07-.16-.1-.21M117.07,243.56c-.31-.2-.67-.32-1.08-.35-.41-.04-.86.01-1.36.15-.52.14-.94.34-1.29.6-.34.26-.6.56-.78.91-.18.35-.28.74-.3,1.17-.02.43.03.88.16,1.36.13.5.31.92.53,1.27s.49.63.8.83c.31.2.68.32,1.08.36.41.04.86,0,1.36-.14.52-.14.95-.34,1.29-.6.34-.26.6-.56.78-.92.18-.35.28-.75.3-1.17.02-.43-.03-.88-.16-1.36-.13-.5-.31-.92-.53-1.28-.22-.35-.49-.63-.8-.83M116.92,246.99c0,.25-.02.47-.09.66-.07.19-.18.36-.33.49-.15.13-.35.23-.59.3-.26.07-.49.08-.69.03-.2-.05-.38-.14-.53-.29-.15-.14-.28-.33-.39-.55-.11-.22-.2-.47-.28-.75-.08-.3-.12-.57-.13-.82,0-.25.03-.47.09-.67.07-.2.18-.36.33-.49.15-.13.35-.23.58-.29.27-.07.5-.08.7-.03.2.05.38.15.53.29.15.14.28.33.38.55.11.22.2.47.27.75.08.3.12.57.13.82M124.56,241.44c-.22-.17-.48-.29-.77-.34-.29-.05-.63-.03-1.02.07-.35.09-.66.27-.94.52-.28.25-.52.59-.74,1.01l-.17-.65-.06-.1-.12-.05c-.05,0-.13,0-.22,0-.09.01-.2.04-.34.07-.13.03-.24.07-.32.1-.08.03-.15.07-.2.1l-.09.11v.12s1.51,5.61,1.51,5.61l.07.1s.08.04.15.05c.06,0,.15,0,.25-.02.1-.01.23-.04.39-.09.16-.04.28-.08.38-.12.1-.04.17-.07.23-.11.05-.04.09-.07.11-.11v-.12s-.99-3.73-.99-3.73c.15-.34.3-.61.47-.82.17-.2.35-.33.55-.38.16-.04.31-.05.44-.02.14.03.26.09.36.18.11.09.2.21.28.35.08.14.16.35.23.63l.86,3.2.07.1s.08.04.15.04c.06,0,.15,0,.25-.02.11-.02.24-.04.39-.09.15-.04.28-.08.38-.12.1-.04.18-.08.23-.11l.1-.11v-.12s-.92-3.47-.92-3.47c-.11-.41-.24-.75-.39-1.02-.15-.27-.33-.49-.55-.66M131.41,242.32c-.17-.1-.34-.17-.54-.22-.19-.05-.38-.08-.57-.11-.19-.02-.37-.04-.55-.06-.18-.01-.35-.04-.5-.07-.15-.03-.27-.08-.38-.15-.1-.07-.17-.16-.21-.29-.02-.08-.03-.17-.01-.25.01-.08.05-.16.1-.23.05-.07.13-.14.22-.2.1-.06.22-.11.36-.14.2-.05.39-.08.55-.08.17,0,.32.01.45.03.13.02.25.04.34.06.09.02.16.03.19.02l.08-.05.04-.1s0-.1-.01-.18c-.01-.07-.03-.17-.06-.28-.03-.09-.05-.18-.07-.24-.02-.06-.05-.12-.07-.16l-.07-.1-.11-.07s-.13-.04-.23-.06c-.1-.02-.23-.03-.37-.03-.14,0-.3,0-.47.03-.17.02-.35.05-.52.1-.35.09-.66.22-.92.39-.26.16-.47.35-.62.56-.15.21-.25.44-.3.7-.04.25-.03.51.04.78.07.27.17.48.3.65.13.17.28.3.44.4.16.1.34.17.52.22.19.05.38.09.56.11.19.03.37.05.55.06.18.02.34.04.48.07.15.03.27.08.37.15.1.07.17.17.2.29.03.11.03.21.01.31-.02.09-.06.18-.13.26-.07.08-.15.14-.26.2-.1.06-.23.11-.37.15-.23.06-.44.09-.63.08-.19,0-.36-.02-.52-.05-.15-.03-.28-.05-.38-.08s-.18-.04-.23-.02l-.09.05-.04.1s0,.11,0,.19c.01.08.03.18.07.3.05.18.1.32.15.41.05.09.1.15.16.18.06.03.14.06.26.08.11.02.25.04.42.05.16,0,.34,0,.54-.02.2-.02.4-.06.61-.11.35-.09.66-.22.93-.38.28-.16.5-.35.68-.58.17-.22.29-.47.34-.75.05-.28.04-.57-.05-.89-.07-.26-.17-.47-.3-.63-.13-.17-.28-.3-.44-.4M138.22,241.86l-.09-.1h-.1c-.05,0-.11.06-.18.15-.06.09-.14.18-.24.29-.1.11-.21.22-.35.33-.14.11-.32.19-.54.25-.21.06-.41.07-.59.03-.18-.04-.35-.12-.5-.24-.15-.13-.28-.3-.4-.51-.12-.22-.22-.48-.3-.78-.16-.61-.18-1.1-.05-1.48.13-.38.41-.62.82-.73.21-.05.4-.07.56-.06.17.02.31.05.44.09.13.04.24.08.33.12.1.04.18.05.25.03.07-.02.11-.08.12-.19.01-.11,0-.28-.07-.53-.03-.1-.06-.19-.08-.27-.03-.07-.05-.13-.07-.18l-.08-.11-.13-.09c-.06-.03-.15-.07-.28-.1-.13-.03-.27-.06-.42-.07-.15-.01-.32-.01-.49,0-.17.01-.34.04-.51.09-.41.11-.77.28-1.08.5-.31.22-.55.5-.73.84-.18.34-.29.73-.32,1.17-.03.45.03.95.18,1.51.13.49.3.9.52,1.25.22.35.47.62.77.82.3.2.63.32,1,.37.37.04.77,0,1.2-.11.19-.05.38-.12.55-.2.17-.08.33-.17.47-.27.14-.1.26-.2.37-.3.1-.1.17-.18.21-.25l.06-.15v-.13c0-.05,0-.12-.02-.19-.01-.07-.03-.17-.06-.28-.04-.14-.07-.25-.11-.33-.03-.09-.06-.16-.09-.21M140.17,236.69c-.06,0-.14,0-.24.02-.1.02-.22.04-.35.08-.14.04-.26.07-.35.11-.09.03-.16.07-.21.1l-.1.09v.1s1.51,5.67,1.51,5.67l.06.09s.08.03.14.03c.06,0,.14,0,.24-.02.1-.02.22-.05.36-.09.14-.04.26-.07.35-.1.09-.03.17-.06.22-.1l.1-.1v-.1s-1.52-5.67-1.52-5.67l-.06-.08s-.07-.03-.14-.03M147.58,235.36c-.31-.2-.67-.32-1.08-.36-.41-.04-.86.01-1.36.15-.52.14-.95.34-1.29.6-.34.26-.6.56-.78.91-.18.35-.28.74-.3,1.17-.02.43.03.89.16,1.36.13.5.31.92.53,1.27s.49.63.8.83c.31.2.67.32,1.08.36.41.04.86,0,1.36-.14.52-.14.95-.34,1.29-.6.34-.26.61-.57.79-.92.18-.35.28-.75.3-1.17.02-.43-.03-.88-.16-1.36-.13-.5-.31-.92-.53-1.28-.22-.35-.49-.63-.8-.83M147.44,238.79c0,.25-.02.47-.09.66-.07.19-.18.36-.33.49-.15.13-.35.23-.59.3-.26.07-.49.08-.69.03-.2-.05-.38-.14-.53-.29-.15-.15-.28-.33-.39-.55-.11-.22-.2-.47-.28-.75-.08-.3-.12-.57-.13-.82,0-.25.02-.47.09-.67.07-.2.18-.36.33-.49.15-.13.35-.23.58-.29.26-.07.5-.08.7-.03.2.05.37.15.53.29.15.14.28.33.39.55.11.22.2.47.27.75.08.3.13.57.13.82M155.18,232.64c-.06,0-.15,0-.25.02-.1.02-.23.04-.39.09-.16.04-.28.08-.38.12-.1.04-.17.08-.23.11-.06.04-.09.07-.11.11v.12s1,3.73,1,3.73c-.16.34-.31.62-.48.82-.17.2-.35.33-.55.38-.16.04-.31.05-.44.02-.14-.03-.26-.09-.37-.18-.11-.09-.2-.21-.28-.35-.08-.14-.16-.36-.24-.66l-.85-3.17-.07-.1s-.08-.04-.15-.04c-.07,0-.15,0-.26.02-.1.02-.23.04-.39.09-.15.04-.28.08-.38.12-.1.04-.18.07-.23.11-.06.04-.09.08-.11.11v.12s.92,3.43.92,3.43c.12.43.25.78.39,1.05.15.27.33.49.55.66.22.17.48.29.77.34.29.05.64.03,1.02-.07.34-.09.65-.27.93-.52.28-.25.52-.59.74-1.01l.17.65.06.1.13.05c.05,0,.13,0,.22,0,.09-.01.2-.04.34-.07.13-.03.24-.07.32-.1.08-.03.15-.07.2-.1l.09-.11v-.12s-1.51-5.61-1.51-5.61l-.07-.1s-.08-.04-.15-.04M161.92,234.12c-.17-.1-.34-.17-.54-.22-.19-.05-.38-.08-.57-.11-.19-.02-.37-.04-.56-.06-.18-.01-.35-.04-.49-.07-.15-.03-.28-.08-.38-.15-.1-.07-.17-.16-.21-.29-.02-.08-.03-.17-.01-.25.01-.08.05-.16.1-.23.05-.07.13-.14.23-.2.1-.06.22-.1.36-.14.2-.05.39-.08.56-.08.17,0,.32.01.45.03.13.02.25.04.34.06.09.02.16.03.2.02l.08-.05.04-.1s0-.1-.01-.18c-.01-.07-.03-.17-.07-.28-.02-.1-.05-.18-.07-.24-.02-.06-.05-.12-.07-.16l-.07-.1-.11-.07s-.12-.04-.23-.06c-.1-.02-.23-.03-.37-.03-.14,0-.3,0-.48.03-.17.02-.35.05-.52.1-.35.09-.66.23-.92.39-.26.17-.47.35-.62.56-.16.21-.25.45-.3.7-.04.25-.03.51.04.78.07.27.17.48.3.65.13.17.28.3.44.4.16.1.34.17.53.22.19.05.37.09.56.11.19.03.37.05.55.06.18.01.34.04.48.07.15.03.27.08.37.15.1.07.17.17.2.29.03.11.03.21.01.31-.02.09-.06.18-.13.26-.07.08-.15.14-.25.2-.1.06-.23.11-.37.15-.23.06-.44.09-.63.08-.19,0-.36-.02-.52-.05-.15-.02-.28-.05-.38-.08-.1-.03-.18-.04-.23-.02l-.09.05-.04.1s0,.11,0,.19c.01.08.03.18.06.3.05.18.1.32.15.41.05.09.1.15.16.18.06.03.14.06.26.08.11.02.25.04.42.05.16,0,.35,0,.54-.02s.4-.06.61-.11c.35-.09.66-.22.94-.38.28-.16.5-.35.68-.58.17-.22.29-.47.34-.75.05-.27.04-.57-.05-.89-.07-.26-.17-.47-.3-.63-.13-.17-.28-.3-.44-.4M168.17,234.48l-.11-.09h-.12s-1.8.48-1.8.48l-1.25-4.65-.07-.1s-.09-.03-.16-.04c-.07,0-.15,0-.25.02-.1.01-.22.04-.36.08-.14.04-.26.07-.35.11-.09.03-.17.07-.22.1-.05.03-.09.07-.11.11v.12s1.44,5.42,1.44,5.42c.04.15.11.26.22.31.1.05.22.06.34.03l2.91-.78c.09-.02.14-.1.15-.2.01-.11,0-.26-.07-.47-.03-.11-.06-.2-.09-.28-.03-.08-.06-.14-.09-.18M172.43,227.98c-.11.02-.27.06-.47.11-.16.04-.29.08-.38.11-.09.03-.17.06-.22.09l-.1.1-.04.13-.48,2.52h-.02s-1.72-1.92-1.72-1.92l-.1-.09s-.08-.03-.14-.03c-.06,0-.15.01-.25.03-.1.02-.25.06-.42.1-.21.05-.37.1-.48.14-.11.04-.18.08-.21.13-.03.05-.02.11.02.17.04.07.12.16.23.28l2.67,2.78.55,2.03.06.09.13.03c.06,0,.13,0,.23-.02.1-.02.22-.05.36-.08.14-.04.26-.07.35-.11.09-.03.17-.07.22-.1l.1-.1v-.1s-.54-2.03-.54-2.03l.9-3.75c.03-.15.05-.27.05-.35,0-.08-.02-.14-.07-.16-.05-.03-.13-.03-.24-.01"/></svg>