<?xml version="1.0" encoding="UTF-8"?><svg id="a" xmlns="http://www.w3.org/2000/svg" width="400" height="400" viewBox="0 0 400 400"><defs><style>.b{fill:#231f20;}.c{fill:#ff4438;}</style></defs><path class="c" d="M199.86,172.5c-1.17,0-2.26.34-3.18.92l8.29,8.29c.05-.1.1-.21.15-.32.47-.86.75-1.84.75-2.89,0-3.31-2.68-6-6-6ZM193.19,178.99c0,3.42,2.78,6.2,6.2,6.2,1.62,0,3.1-.63,4.21-1.65l-8.81-8.69c-.99,1.1-1.6,2.55-1.6,4.15ZM199.86,184.49c.95,0,1.84-.22,2.63-.62-.9.57-1.96.91-3.1.91-3.19,0-5.79-2.6-5.79-5.79,0-1.01.26-1.96.72-2.79-.29.71-.46,1.48-.46,2.29,0,3.31,2.69,6,6,6ZM195.23,174.41l8.8,8.69c.23-.26.44-.54.63-.84l-8.53-8.53c-.32.2-.62.42-.9.68Z"/><path class="b" d="M155.06,203.31c0,3.72-1.86,6.49-5.58,8.31-2.42,1.15-6.54,1.73-12.38,1.73h-14.34v-1.26h3.14v-34.7h-3.14v-1.26h14.34c5.26,0,9.2.6,11.81,1.79,3.19,1.45,4.78,3.81,4.78,7.09,0,5.06-4.06,7.98-12.17,8.76,2.75.37,4.95.82,6.59,1.34,4.64,1.52,6.95,4.26,6.95,8.2ZM143.51,185.53c0-3.18-.49-5.34-1.46-6.46-.97-1.12-2.82-1.69-5.55-1.69h-1.17v15.84h1.17c2.68,0,4.51-.54,5.51-1.63,1-1.09,1.5-3.11,1.5-6.07ZM144.49,202.98c0-3.24-.55-5.47-1.65-6.68-1.1-1.21-3.11-1.82-6.04-1.82h-1.46v17.6h1.46c3.03,0,5.13-.76,6.3-2.29.93-1.23,1.39-3.5,1.39-6.82Z"/><path class="b" d="M189.91,177.39h-.94c-1.21,0-1.97.14-2.26.42-.29.28-.44.98-.44,2.1v23.13c0,3.47-.46,5.88-1.38,7.22-1.59,2.39-4.86,3.58-9.79,3.58-4.54,0-7.93-.97-10.15-2.91-1.11-.97-1.81-2.37-2.1-4.2-.15-.78-.22-2.31-.22-4.59v-24.76h-3.14v-1.26h15.86v1.26h-3.29v26.55c0,3.22.5,5.36,1.5,6.43,1,1.07,2.47,1.6,4.41,1.6,2.62,0,4.45-.88,5.47-2.64.63-1.08.95-3.44.95-7.07v-22.34c0-1.16-.14-1.87-.43-2.13-.29-.26-1.01-.39-2.16-.39h-1.01v-1.26h9.12v1.26Z"/><path class="b" d="M206.91,213.35h-14.48v-1.26h3.19v-21.88h-3.19v-1.21c2.51,0,4.46-.02,5.87-.05,1.74-.03,3.57-.12,5.5-.25v23.39h3.11v1.26Z"/><path class="b" d="M238.71,202.2l-.58,11.15h-27.66v-1.26h3.14v-34.7h-3.14v-1.26h15.79v1.26h-3.21v34.7h1.82c6.85,0,10.86-3.3,12.02-9.89h1.82Z"/><path class="b" d="M276.29,194.55c0,5.91-1.93,10.69-5.79,14.34-1.74,1.64-3.68,2.79-5.83,3.46-2.15.67-5.03,1-8.65,1h-13.17v-1.26h3.14v-34.7h-3.14v-1.26h12.57c5.82,0,10.3,1.02,13.43,3.07,4.96,3.24,7.44,8.35,7.44,15.35ZM265.72,195.53c0-6.49-.39-10.97-1.17-13.43-.97-3.13-3.68-4.7-8.12-4.7h-1.02v34.7h1.17c2.58,0,4.51-.47,5.77-1.4,1.12-.86,1.95-2.26,2.48-4.2.59-2.13.88-5.78.88-10.97Z"/><path class="b" d="M128.19,227.4h-2.85v-.23h.56v-6.24h-.56v-.23h2.85v.23h-.57v6.24h.57v.23Z"/><path class="b" d="M142.04,220.93h-.18c-.21,0-.34.03-.4.08-.05.05-.08.18-.08.38v6.02h-.99l-3.21-5.75v5.06c0,.27.08.42.23.45.06,0,.14.01.25.01h.17v.23h-1.65v-.23h.17c.23,0,.38-.04.44-.11.04-.05.05-.17.05-.35v-5.33c0-.2-.03-.33-.08-.38-.05-.05-.19-.08-.41-.08h-.17v-.23h2.32l2.51,4.51v-3.83c0-.2-.03-.33-.08-.38-.05-.05-.18-.08-.38-.08h-.18v-.23h1.66v.23Z"/><path class="b" d="M154.8,225.18l-.09,2.22h-.3l-.38-.49c-.5.4-1.02.6-1.54.6-.87,0-1.6-.33-2.19-.99-.59-.66-.88-1.47-.88-2.44s.31-1.8.92-2.47c.61-.67,1.37-1.01,2.27-1.01.52,0,1,.19,1.45.58l.41-.48h.3v2.14h-.33c-.12-.39-.24-.7-.35-.93-.36-.72-.86-1.08-1.52-1.08-.36,0-.63.11-.82.33-.12.14-.21.29-.26.45-.1.3-.14.87-.14,1.7v1.66c0,.69.06,1.22.17,1.57.16.48.5.72,1.04.72.47,0,.86-.19,1.16-.58.14-.17.26-.37.38-.57.15-.28.28-.59.39-.94h.33Z"/><path class="b" d="M168.25,224.06c0,.99-.28,1.81-.84,2.47-.56.65-1.27.98-2.12.98s-1.57-.33-2.13-.98c-.56-.65-.84-1.47-.84-2.47s.28-1.82.84-2.48c.56-.65,1.27-.98,2.13-.98s1.57.33,2.13.98c.56.65.83,1.48.83,2.48ZM166.35,224.65v-1.2c0-.59-.04-1.13-.12-1.63-.09-.66-.41-.99-.94-.99-.36,0-.62.13-.77.4-.09.16-.15.36-.18.58-.07.52-.1,1.07-.1,1.63v1.2c0,.59.03,1.13.1,1.63.1.67.42,1,.96,1,.36,0,.61-.13.77-.4.09-.16.15-.36.18-.59.07-.52.1-1.07.1-1.63Z"/><path class="b" d="M182.28,227.11c-.36.23-.76.34-1.19.34-.55,0-.94-.15-1.18-.46-.11-.15-.19-.3-.23-.45-.04-.15-.08-.45-.13-.91-.06-.61-.16-1.02-.3-1.24-.17-.27-.52-.4-1.03-.4h-.18v3.17h.57v.23h-2.85v-.23h.56v-6.24h-.56v-.23h2.7c1.03,0,1.78.13,2.26.39.48.26.72.67.72,1.23,0,.91-.79,1.44-2.36,1.6.52.07.94.17,1.25.3.38.16.65.4.81.7.11.22.19.53.23.94l.08.78c.03.29.13.43.31.43.08,0,.19-.04.34-.13l.17.16ZM179.59,222.38c0-.58-.08-.96-.26-1.16-.17-.19-.51-.29-1.03-.29h-.28v2.84h.28c.49,0,.83-.1,1.01-.3.18-.2.27-.56.27-1.09Z"/><path class="b" d="M195.2,222.48c0,.64-.29,1.11-.88,1.41-.51.26-1.3.39-2.36.39h-.26v2.89h.57v.23h-2.85v-.23h.56v-6.24h-.56v-.23h2.71c1,0,1.75.13,2.25.38.55.28.82.75.82,1.4ZM193.36,222.48c0-.61-.09-1.03-.28-1.24-.19-.21-.56-.32-1.11-.32h-.28v3.12h.28c.54,0,.91-.11,1.1-.33.19-.22.29-.63.29-1.24Z"/><path class="b" d="M208.41,224.06c0,.99-.28,1.81-.84,2.47-.56.65-1.27.98-2.12.98s-1.57-.33-2.13-.98-.84-1.47-.84-2.47.28-1.82.84-2.48c.56-.65,1.27-.98,2.13-.98s1.57.33,2.13.98c.56.65.84,1.48.84,2.48ZM206.51,224.65v-1.2c0-.59-.04-1.13-.12-1.63-.1-.66-.41-.99-.94-.99-.36,0-.62.13-.77.4-.09.16-.15.36-.18.58-.07.52-.1,1.07-.1,1.63v1.2c0,.59.03,1.13.1,1.63.1.67.42,1,.96,1,.36,0,.61-.13.77-.4.08-.16.15-.36.18-.59.07-.52.1-1.07.1-1.63Z"/><path class="b" d="M222.44,227.11c-.36.23-.75.34-1.19.34-.55,0-.94-.15-1.18-.46-.11-.15-.19-.3-.23-.45-.04-.15-.08-.45-.12-.91-.06-.61-.16-1.02-.3-1.24-.18-.27-.52-.4-1.03-.4h-.19v3.17h.57v.23h-2.85v-.23h.56v-6.24h-.56v-.23h2.7c1.03,0,1.78.13,2.26.39.48.26.72.67.72,1.23,0,.91-.79,1.44-2.36,1.6.52.07.94.17,1.25.3.38.16.65.4.81.7.11.22.19.53.24.94l.08.78c.03.29.13.43.31.43.08,0,.19-.04.34-.13l.17.16ZM219.75,222.38c0-.58-.09-.96-.26-1.16-.17-.19-.51-.29-1.03-.29h-.28v2.84h.28c.49,0,.82-.1,1.01-.3.18-.2.28-.56.28-1.09Z"/><path class="b" d="M235.38,227.4h-2.84v-.23h.51s-.48-1.56-.48-1.56h-1.6l-.37,1.17s-.01.06-.04.13c-.01.03-.02.06-.02.1,0,.11.11.16.33.16h.19v.23h-1.61v-.23h.18c.19,0,.33-.04.42-.12.09-.08.16-.22.23-.45l1.87-5.91h.57l2.1,6.47h.55v.23ZM232.49,225.38l-.72-2.31-.73,2.31h1.45Z"/><path class="b" d="M247.38,222.8h-.33c-.19-1.03-.75-1.65-1.67-1.86v6.24h.58v.23h-2.86v-.23h.57v-6.24c-.92.22-1.48.84-1.67,1.86h-.33l.11-2.1h5.5l.11,2.1Z"/><path class="b" d="M259.72,225.38l-.1,2.02h-5.04v-.23h.56v-6.24h-.56v-.23h4.94v1.78h-.33c-.11-.55-.34-.95-.67-1.19-.33-.24-.81-.36-1.43-.36h-.24v2.89h.16c.34,0,.61-.08.82-.25.21-.17.34-.49.4-.98h.33v2.7h-.33c-.03-.26-.08-.47-.13-.61-.16-.42-.52-.63-1.09-.63h-.16v3.12h.25c.7,0,1.23-.14,1.58-.42.36-.28.6-.74.71-1.37h.33Z"/><path class="b" d="M273.14,224.02c0,1.07-.35,1.93-1.05,2.58-.31.29-.66.5-1.05.62-.39.12-.91.18-1.56.18h-2.38v-.23h.56v-6.24h-.56v-.23h2.28c1.05,0,1.85.19,2.42.55.9.58,1.34,1.51,1.34,2.76ZM271.22,224.19c0-1.17-.07-1.97-.21-2.41-.17-.56-.66-.85-1.45-.85h-.18v6.24h.21c.46,0,.81-.08,1.03-.25.2-.15.35-.41.44-.76.11-.38.16-1.04.16-1.97Z"/><rect class="b" x="122.77" y="216.91" width="146.62" height=".24"/><path class="b" d="M273.86,216.83v-.66h.44c.24,0,.5.04.5.31,0,.32-.25.35-.52.35h-.43ZM273.86,217.14h.35l.59.95h.42l-.64-.98c.34-.04.6-.2.6-.61,0-.46-.28-.65-.83-.65h-.86v2.23h.38v-.95ZM276.29,216.94c0-1.22-.93-2.02-2.02-2.02s-2.02.8-2.02,2.02c0,1.14.85,2.02,2.02,2.02,1.09,0,2.02-.81,2.02-2.02ZM275.84,216.94c0,.99-.69,1.67-1.58,1.67-.98,0-1.58-.75-1.58-1.67,0-.98.7-1.67,1.58-1.67s1.58.69,1.58,1.67Z"/></svg>