<?xml version="1.0" encoding="UTF-8"?><svg id="a" xmlns="http://www.w3.org/2000/svg" width="400" height="400" viewBox="0 0 400 400"><defs><style>.b{fill:#fff;}</style></defs><path d="M199.26,271.26l-39.38-25.58c-.75-.49-1.29-1.25-1.5-2.12l-10.75-44.64c-.24-.98-.04-2.01.54-2.83l23.9-34.08c.38-.54.97-.91,1.63-1.01l6.56-1.03c.34-.05.65-.24.85-.53l19.02-27.08c.51-.73,1.59-.73,2.1,0l19.47,27.79c.38.54,1.1.7,1.68.38l3.48-1.96c.57-.32,1.3-.16,1.68.38l25.72,36.74c.58.82.77,1.85.54,2.83l-10.85,45.04c-.21.87-.75,1.63-1.5,2.12l-39.38,25.58c-1.16.75-2.65.75-3.81,0"/><path class="b" d="M200.87,141.33l-13.21,18.82c-.21.3.1.7.44.56l11.72-4.76c.81-.33,1.72-.28,2.49.14l14.01,7.68c.35.19.71-.22.48-.54l-15.32-21.9c-.15-.21-.46-.21-.61,0"/><path class="b" d="M202.28,254.09l3.59-3.59c.31-.31.31-.81,0-1.11-.31-.31-.81-.31-1.11,0l-3.59,3.59-3.59-3.59c-.31-.31-.81-.31-1.11,0s-.31.81,0,1.11l3.59,3.59-3.59,3.59c-.31.31-.31.81,0,1.11.15.15.35.23.56.23s.4-.08.56-.23l3.59-3.59,3.59,3.59c.15.15.36.23.56.23s.4-.08.56-.23c.31-.31.31-.81,0-1.11l-3.59-3.59Z"/><path class="b" d="M221.96,199.5c0,4.09,0,5.96,0,10.05,0,.96.99,1.43,1.93,1.43,1.34,0,3.21,0,4.54,0,.83,0,1.37-.52,1.37-1.34,0-8.22,0-11.46,0-19.68,0-.82-.54-1.33-1.38-1.34-1.34,0-3.73,0-5.07,0-.89,0-1.39.5-1.39,1.38,0,4.09,0,5.41,0,9.5M236.71,199.45c0,5.52,0,8.83,0,14.35,0,.43-.1.75-.42,1.05-.89.85-1.73,1.75-2.63,2.59-.23.21-.61.37-.92.38-4.18.02-9.41.03-13.59,0-.33,0-.73-.17-.98-.4-.92-.85-1.81-1.73-2.67-2.64-.2-.21-.37-.56-.37-.85-.02-11.11-.02-17.24,0-28.34,0-.3.19-.68.4-.9.87-.9,1.78-1.76,2.7-2.6.19-.17.5-.31.75-.31,4.27-.02,9.59-.02,13.85,0,.26,0,.57.12.76.29.95.88,1.88,1.79,2.77,2.72.2.21.3.58.3.88.02,5.52.01,8.28.01,13.79"/><path class="b" d="M210.89,211.8c-.16-.57-.68-.95-1.26-.95h-9.42c-1.24,0-1.75-.63-1.67-1.98.04-.66.05-1.32,0-1.97-.08-1.13.37-1.77,1.4-1.8.69-.02,1.9-.05,2.59-.02h2.92c.33,0,.62-.22.7-.54l.93-5.41c.12-.46-.22-.91-.7-.91h-5.25v-.02c-.29,0-.58,0-.88-.01-1.3-.03-1.81-.61-1.71-2.03.11-1.62.17-3.25.04-4.86-.18-2.13.12-2.76,1.77-2.76,2.32,0,4.11,0,6.43,0h2.88c.58,0,1.09-.39,1.26-.95.43-1.48,1.24-4.25,1.42-4.72.32-.87.1-1.12-.82-1.12h-19.4c-.97,0-1.2.27-.88,1.17.31.87.5,1.77.5,2.69-.02,13.03-.01,18.55,0,27.26,0,1.33-.01,2.64-.54,3.89-.17.4-.13.77.26,1.05h20.65c.39-.27.43-.65.26-1.05-.18-.43-1.03-3.4-1.48-4.95"/><path class="b" d="M187.37,198.96c0-.4-.32-.71-.71-.71-1.72,0-8.37,0-10.75,0-.61,0-1,.49-.87,1.09.35,1.56.7,3.11,1.02,4.67.22,1.04.33,1.16,1.36,1.19.02,0,2.27,0,2.29,0,.44.01.79.38.79.81.02,2,.03,1.39,0,3.4,0,.47-.13.82-.37,1.05-.37.35-.86.37-.86.37h-5.26c-.67.02-1.23-.44-1.34-1.1-.04-.23-.06-.47-.06-.7,0-7.95,0-10.65,0-18.61,0-.2,0-.4.03-.6.1-.84.49-1.27,1.31-1.29,1.41-.03,3.88-.03,5.29,0,.72.01,1.17.47,1.24,1.19.11,1.25.06,2.48-.42,3.68-.41,1.03-.22,1.26.87,1.26,1.51,0,4.39,0,5.72,0,.4,0,.71-.32.71-.71,0-2.01,0-7.6-.01-7.99,0-.45,0-.9-.38-1.25-.9-.86-1.76-1.76-2.68-2.59-.27-.24-.63-.38-1-.38-4.15-.03-9.35-.03-13.5,0-.39,0-.84.22-1.15.48-.55.46-1.86,1.94-2.59,2.82-.3.37-.47.82-.47,1.3v26.91c0,.4.12.79.33,1.12.2.3.4.6.64.87.58.64,1.22,1.24,1.85,1.82.13.12.27.23.42.33.35.25.77.39,1.21.39h13.68c.32-.25.67-.48.97-.76.66-.62,1.26-1.31,1.94-1.91.57-.5.75-1.09.74-1.82,0-1.17,0-11.52,0-14.35"/><path class="b" d="M203.99,235.23s-.01-.08,0-.17v-.07c.06-.22.12-.46.07-.69-.26-1.3-1.2-5.74-1.6-7.64-.04-.2-.33-.2-.37,0-.38,1.83-1.24,5.95-1.44,6.96-.02.08-.03.15-.05.23-.09.42-.19.86,0,1.33-.01.02-.04.06-.04.06h-2.76s-.02-.06.02-.16c.11-.3.12-.59.04-.91-.08-.28-.14-.57-.2-.86l-.32-1.48c-1.02-4.69-2-9.1-2.21-9.57-.09-.19-.17-.38-.24-.58-.01-.03-.02-.05-.02-.06,0,0,.03,0,.06,0,.39,0,.77,0,1.16,0s.79,0,1.19,0c.03,0,.05,0,.06,0,0,0,0,.03,0,.07-.03.16-.05.37-.01.57.24,1.22.5,2.45.75,3.67l.8,3.85c.07.35.57.35.64,0,.45-2.12,1.24-5.8,1.44-6.77.01-.06.03-.13.05-.19.08-.33.17-.7.01-1.1-.02-.06-.03-.09-.03-.1,0,0,0,0,0,0,.02,0,.06,0,.15,0h2.25c.09,0,.13.01.14.02,0,0,0,.04-.03.14-.05.18-.09.4-.07.61.03.23.08.45.13.67l.06.25,1.38,6.54c.07.32.52.32.59,0,.53-2.46,1.59-7.34,1.6-7.38.06-.23.12-.49.01-.77-.01-.04-.02-.06-.02-.08,0,0,.05,0,.09,0h2.27c.05,0,.08,0,.1,0,0,.01-.01.04-.03.08-.04.1-.08.19-.13.29-.09.21-.19.42-.26.65-.13.45-1.88,8.54-2.41,11l-.05.2c-.1.43-.2.87-.01,1.34-.01.02-.04.06-.04.06h-2.73Z"/><path class="b" d="M179.49,223.92c-.27,0-.55,0-.82,0-.44,0-.73.3-.73.75v2.5c0,.45.29.75.72.76.27,0,.54,0,.81,0s.55,0,.82,0c.43,0,.73-.31.73-.76,0-.57,0-1.92,0-2.5,0-.46-.28-.75-.72-.76-.27,0-.54,0-.81,0M180.72,235.23s-.03-.06-.01-.15l.03-.12c.05-.25.11-.54.05-.8-.37-1.5-.52-1.92-1.02-3.3l-.04-.11c-.09-.25-.24-.5-.68-.51h-.26c-.58,0-.86.27-.86.85v.93c0,.46,0,.77,0,1.55,0,.53,0,1.04.23,1.54.03.06.03.09-.01.13h-2.7s-.03-.07,0-.14c.21-.49.22-.99.22-1.5,0-3.67,0-5.76,0-10.37,0-.43-.02-.93-.21-1.43-.04-.11-.04-.16-.04-.17,0,0,0,0,0,0,.02,0,.07-.01.18-.01h6.23c.17,0,.3.05.41.16.34.35.61.6.87.83.15.13.2.27.2.51,0,1.44,0,4.86,0,5.61,0,.22-.06.36-.2.49-.16.14-.3.29-.45.44-.13.13-.26.26-.39.39-.24.22-.31.48-.23.81.23.96.79,2.58,1.13,3.55.11.32.19.56.23.68.03.1.03.13.02.16h-2.71Z"/><path class="b" d="M232.77,223.92c-.27,0-.55,0-.82,0-.44,0-.73.3-.73.75v2.5c0,.45.29.75.72.76.27,0,.54,0,.81,0s.55,0,.82,0c.43,0,.73-.31.73-.76,0-.57,0-1.92,0-2.5,0-.46-.28-.75-.72-.76-.27,0-.54,0-.81,0M234,235.23s-.03-.06-.01-.15l.03-.13c.05-.25.11-.54.05-.8-.37-1.5-.52-1.92-1.02-3.31l-.04-.1c-.09-.25-.24-.5-.68-.51h-.26c-.58,0-.86.27-.86.85v.93c0,.46,0,.77,0,1.55,0,.53,0,1.04.23,1.54.03.06.03.09-.01.13h-2.7s-.03-.07,0-.14c.21-.49.22-.99.22-1.5,0-3.67,0-5.76,0-10.37,0-.43-.02-.93-.21-1.43-.04-.11-.04-.16-.04-.17,0,0,0,0,0,0,.02,0,.07-.01.18-.01h6.23c.17,0,.3.05.41.16.23.23.54.54.87.83.15.13.2.27.2.51,0,1.38,0,4.85,0,5.61,0,.22-.06.36-.2.49-.16.14-.3.29-.45.44-.13.13-.26.26-.39.39-.24.22-.31.48-.23.81.23.96.79,2.58,1.13,3.54.11.32.2.57.24.69.03.1.03.13.02.16h-2.71Z"/><path class="b" d="M188.62,223.88c-.45,0-.73.28-.73.73v7.61c0,.47.27.75.73.75h1.56c.43,0,.72-.29.72-.71v-7.66c0-.42-.29-.71-.73-.71h-.86s-.71,0-.71,0ZM189.44,235.24c-.82,0-1.64,0-2.45,0-.08,0-.19-.05-.25-.1-.33-.3-.66-.64-1.03-1.02-.05-.05-.09-.14-.09-.2,0-4.32,0-6.71,0-11.03,0-.06.05-.16.1-.22.3-.31.63-.63,1.04-1.01.04-.04.12-.07.16-.07.84,0,1.68,0,2.51,0s1.65,0,2.47,0c.05,0,.13.03.17.06.42.39.76.73,1.07,1.05.03.03.06.12.06.21,0,1.75,0,2.78,0,4.26v2.32c0,1.49,0,2.65,0,4.36,0,.13-.03.2-.11.27-.16.15-.32.31-.48.47-.18.18-.36.36-.54.53-.06.05-.16.1-.23.1-.81,0-1.61,0-2.42,0"/><path class="b" d="M219.45,235.23s-.03-.07,0-.14c.22-.53.22-1.08.22-1.57,0-4.14,0-6.39,0-10.53,0-.39-.07-.8-.21-1.21-.04-.11-.04-.15-.03-.16,0,0,0,0,0,0,.01,0,.06-.02.2-.02h6.57q.19,0,.22.18c.12.73.24,1.47.35,2.2,0,.05,0,.07,0,.08-.03,0-.05,0-.08-.02-.51-.19-1.03-.2-1.48-.2h-2.42c-.49,0-.89.41-.89.9v2.32c0,.47.39.87.86.88h.29s1.37,0,1.37,0c.06,0,.1.03.12.06.02.02.04.06.03.13l-.43,1.98c-.01.07-.08.12-.15.12h-.51c-.08,0-.18,0-.27,0-.13,0-.26,0-.39,0h-.19c-.46.02-.73.3-.73.79v1.09c0,.55.29.84.83.84h1.51c.43,0,.87,0,1.44,0,.19,0,.38-.04.56-.09.06-.01.13-.03.19-.04.05,0,.1-.03.15-.04.03-.01.07-.02.11-.03.03,0,.06,0,.08,0,0,.01,0,.04,0,.08-.03.25-.07.5-.11.75l-.11.68c-.04.26-.08.52-.12.77-.02.13-.04.2-.08.24h-6.91Z"/><path class="b" d="M211.12,235.23s-.03-.07,0-.14c.21-.49.22-.99.22-1.5,0-3.76,0-10.77,0-12.01.42,0,2.34,0,2.34,0,.11,0,.16.01.17.02,0,0,0,.05-.04.14-.2.64-.2,1.02-.2,1.5,0,3,0,4.59,0,7.05v1.77c0,.21,0,.6.4.78.13.06.3.09.46.09h1.29c.28,0,.59,0,1.11,0,.26,0,.52-.06.77-.12l.18-.04c.07-.02.12-.02.16-.02,0,.02,0,.06-.01.13-.11.74-.23,1.48-.36,2.22,0,.03-.05.08-.08.13,0,0-.01.01-.02.02h-6.39Z"/><path class="b" d="M167.03,235.23s-.09-.02-.14-.04c-.1-.07-.18-.12-.25-.19-.23-.22-.48-.45-.71-.7-.08-.08-.14-.18-.21-.28-.08-.12-.12-.27-.12-.41v-10.5c0-.09.03-.18.09-.25.27-.33.82-.96,1.03-1.13.1-.08.24-.14.33-.14.81,0,1.62,0,2.43,0s1.61,0,2.41,0c.1,0,.19.04.26.1.22.2.44.41.65.63.13.13.25.25.38.38.08.08.09.18.09.35,0,.15,0,2.33,0,3.11,0,.03-.02.05-.03.06,0,0-.03.03-.06.03h-2.23c-.16,0-.22-.02-.24-.02.01,0,.02-.06.07-.21.17-.44.23-.92.18-1.52-.03-.36-.33-.63-.69-.64-.28,0-.57,0-.85,0-.26,0-.52,0-.78,0-.28,0-.63.13-.69.67,0,.08-.01.17-.01.25v7.24c0,.1,0,.2.03.3.05.28.25.5.52.56v.02h.19s1.64,0,1.64,0c.03,0,.27-.02.46-.19.13-.12.2-.31.2-.54,0-.58,0-.6,0-.88v-.44c0-.27-.23-.5-.5-.51-.01,0-.6,0-.6,0q-.25,0-.32-.31c-.11-.55-.24-1.09-.36-1.64l-.04-.19c-.01-.06,0-.11.02-.14.03-.03.07-.05.13-.05h3.86s.09.04.09.09v.25c0,1.36,0,4.9,0,5.33,0,.26-.06.42-.23.57-.16.14-.3.29-.45.44-.1.1-.2.21-.3.3-.07.07-.16.13-.24.19-.05.03-.1.05-.15.05h-4.89Z"/></svg>