<?xml version="1.0" encoding="UTF-8"?><svg id="a" xmlns="http://www.w3.org/2000/svg" width="400" height="400" viewBox="0 0 400 400"><defs><style>.b{fill:#0db04b;}.c{fill:#9cd19b;}</style></defs><path class="c" d="M248.22,210.7c-.33,3.12-2.25,8.19-9.49,8.48-7.02.28-16.31-7.29-23.48-17.29-7.16-10-11.32-21.23-8.79-27.8,2.28-5.91,6.57-6.36,9.62-5.8-8.33-11.66-19.81-21.08-34.76-11.33-27.7,18.07-18.99,51.18-4.02,72.1,14.05,19.63,43.11,38.36,69.54,19.44,17.03-12.19,10.88-26.3,1.38-37.81Z"/><path class="b" d="M216.35,181.43c-1.46,3.79.94,10.27,5.08,16.05,4.13,5.78,9.49,10.14,13.55,9.98,4.8-.19,5.1-4.04,5.02-5.62-2.22-2.19-6.98-5.94-10.16-10.39-2.88-4.16-4.31-7.61-7.53-13.27-1.76-.44-4.54-.43-5.96,3.26Z"/></svg>