<?xml version="1.0" encoding="UTF-8"?><svg id="a" xmlns="http://www.w3.org/2000/svg" width="400" height="400" viewBox="0 0 400 400"><defs><style>.b{fill:#5e8ab5;}.c{fill:#8b254f;}.d{fill:#dc1e35;}.e{fill:#ac1e36;}</style></defs><polygon class="b" points="253.14 154.29 253.14 209.7 211.28 154.29 193.16 154.29 193.16 244.29 212.56 244.29 212.56 187.07 255.82 244.29 272.54 244.29 272.54 154.29 253.14 154.29"/><polygon class="c" points="179.31 154.29 179.31 244.29 247.91 244.29 247.91 226.67 199 226.67 199 208.16 241.48 208.16 241.48 189.9 199 189.9 199 171.9 247.27 171.9 247.27 154.29 179.31 154.29"/><path class="e" d="M153.86,205.72v-51.44h19.82v50.92c0,14.66,7.34,22.25,19.43,22.25s19.43-7.33,19.43-21.6v-51.57h19.82v50.79c0,27.26-15.32,40.64-39.51,40.64s-39-13.5-39-39.99"/><polygon class="d" points="128.41 154.29 148.23 154.29 148.23 189.9 184.78 189.9 184.78 154.29 204.6 154.29 204.6 244.29 184.78 244.29 184.78 208.16 148.23 208.16 148.23 244.29 128.41 244.29 128.41 154.29"/></svg>