<?xml version="1.0" encoding="UTF-8"?><svg id="a" xmlns="http://www.w3.org/2000/svg" width="400" height="400" viewBox="0 0 400 400"><path d="M162.05,203.81v-16.25s0-.63,0-.63l-.29-.18c-.91-.56-1.69-.94-2.61-1.27-2.14-.89-4.14-1.3-6.3-1.3h-13.01v6.3h13.04c1.09,0,2.04.17,2.87.41v4.81c-.95-.18-1.91-.27-2.89-.27h-6.75c-2.11.02-4.09.43-6.19,1.3-.92.33-1.7.71-2.61,1.27l-.29.18v12.64l.29.18c.91.56,1.69.94,2.61,1.27,2.14.89,4.14,1.3,6.3,1.3h3.34c2.15,0,4.15-.41,6.3-1.3.64-.23,1.21-.48,1.8-.8.2.39.42.79.68,1.21l.18.29h4.86l.62-2.99-.12-.2c-.72-1.27-1.82-3.18-1.82-5.97ZM155.75,205.34l-.2.12c-1.27.73-3.19,1.82-5.98,1.82h-3.39c-1.09,0-2.04-.17-2.87-.41v-4.73c.83-.24,1.79-.41,2.87-.41h6.7c1.09,0,2.04.17,2.87.41v3.2ZM257.24,203.81v-16.25s0-.63,0-.63l-.29-.18c-.91-.56-1.69-.94-2.61-1.27-2.14-.89-4.14-1.3-6.3-1.3h-13.01v6.3h13.04c1.09,0,2.04.17,2.87.41v4.81c-.95-.18-1.91-.27-2.89-.27h-6.75c-2.11.02-4.09.43-6.19,1.3-.92.33-1.7.71-2.61,1.27l-.29.18v12.64l.29.18c.91.56,1.69.94,2.61,1.27,2.14.89,4.14,1.3,6.3,1.3h3.34c2.15,0,4.15-.41,6.3-1.3.64-.23,1.21-.48,1.8-.8.2.39.42.79.68,1.21l.18.29h4.86l.62-2.99-.12-.2c-.72-1.27-1.82-3.18-1.82-5.97ZM250.94,205.34l-.2.12c-1.27.73-3.19,1.82-5.98,1.82h-3.39c-1.09,0-2.04-.17-2.87-.41v-4.73c.83-.24,1.79-.41,2.87-.41h6.7c1.09,0,2.04.17,2.87.41v3.2ZM94.58,196.73c-2.11-.87-4.08-1.29-6.19-1.3h0s-6.78,0-6.78,0c-1.08,0-2.04-.17-2.87-.41v-4.75c.83-.24,1.79-.41,2.87-.41h6.08c2.79,0,4.71,1.1,5.98,1.82l.2.12,2.99-.62v-4.86h0s-.29-.18-.29-.18c-.82-.51-1.53-.86-2.33-1.17-.09-.04-.18-.07-.28-.1-1.9-.79-3.69-1.2-5.58-1.28v-.02h-7.47v.02c-1.88.08-3.68.5-5.58,1.28-.92.33-1.7.71-2.61,1.27l-.29.18v12.66l.29.18c.91.56,1.69.95,2.61,1.27,2.11.87,4.08,1.29,6.19,1.3h0s.1,0,.1,0h6.67c1.09,0,2.04.17,2.87.41v4.75c-.83.24-1.79.41-2.87.41h-6.7c-2.79,0-4.71-1.1-5.98-1.82l-.2-.12-2.99.62v4.86l.29.18c.91.56,1.69.94,2.61,1.27,2.11.87,4.08,1.29,6.19,1.3h0s6.85,0,6.85,0h0c2.11-.02,4.09-.43,6.19-1.3.92-.33,1.7-.71,2.61-1.27l.29-.18v-12.66l-.29-.18c-.91-.56-1.69-.95-2.61-1.27ZM319.54,196.73c-2.11-.87-4.08-1.29-6.19-1.3h0s-6.78,0-6.78,0c-1.08,0-2.04-.17-2.87-.41v-4.75c.83-.24,1.79-.41,2.87-.41h6.08c2.79,0,4.71,1.1,5.98,1.82l.2.12,2.99-.62v-4.86h0s-.29-.18-.29-.18c-.82-.51-1.53-.86-2.33-1.17-.09-.04-.18-.07-.28-.1-1.9-.79-3.69-1.2-5.58-1.28v-.02h-7.47v.02c-1.88.08-3.68.5-5.58,1.28-.92.33-1.7.71-2.61,1.27l-.29.18v12.66l.29.18c.91.56,1.69.95,2.61,1.27,2.11.87,4.08,1.29,6.19,1.3h0s.1,0,.1,0h6.67c1.09,0,2.04.17,2.87.41v4.75c-.83.24-1.79.41-2.87.41h-6.7c-2.79,0-4.71-1.1-5.98-1.82l-.2-.12-2.99.62v4.86l.29.18c.91.56,1.69.94,2.61,1.27,2.11.87,4.08,1.29,6.19,1.3h0s6.85,0,6.85,0h0c2.11-.02,4.09-.43,6.19-1.3.92-.33,1.7-.71,2.61-1.27l.29-.18v-12.66l-.29-.18c-.91-.56-1.69-.95-2.61-1.27ZM127.18,184.85c-2.14-.89-4.14-1.3-6.3-1.3h-3.34c-2.15,0-4.15.41-6.3,1.3-.64.23-1.22.49-1.81.81-.19-.39-.41-.78-.67-1.19l-.18-.29h-4.86l-.62,2.99.12.2c.73,1.27,1.82,3.19,1.82,5.98v19.6l5.07.02h1.23v-21.19l.2-.12c1.27-.73,3.19-1.82,5.98-1.82h3.39c1.09,0,2.04.17,2.87.41v22.69l5.07.02h1.23v-26.67l-.29-.18c-.91-.56-1.69-.94-2.61-1.27ZM192.52,184.85c-2.14-.89-4.14-1.3-6.3-1.3h-3.34c-2.15,0-4.15.41-6.3,1.3-.64.23-1.22.49-1.81.81-.19-.39-.41-.78-.67-1.19l-.18-.29h-4.86l-.62,2.99.12.2c.73,1.27,1.82,3.19,1.82,5.98v23.84c0,2.79-1.1,4.71-1.82,5.98l-.12.2.62,2.99h4.86l.18-.29c.56-.91.94-1.69,1.27-2.61.89-2.14,1.3-4.14,1.3-6.3v-4.85c2.11.86,4.08,1.27,6.21,1.27h3.34c2.15,0,4.15-.41,6.3-1.3.92-.33,1.7-.71,2.61-1.27l.29-.18v-24.52s-.29-.18-.29-.18c-.91-.56-1.69-.94-2.61-1.27ZM189.11,206.86c-.83.24-1.79.41-2.87.41h-3.39c-2.79,0-4.71-1.1-5.98-1.82l-.2-.12v-11.97c0-.54-.03-1.07-.08-1.6l.08.02.2-.12c1.27-.73,3.19-1.82,5.98-1.82h3.39c1.08,0,2.04.17,2.87.41v16.6ZM286.3,184.17l-.18.29c-.26.42-.48.81-.67,1.19-.6-.32-1.17-.58-1.81-.81-2.14-.89-4.14-1.3-6.3-1.3h-3.34c-2.15,0-4.15.41-6.3,1.3-.92.33-1.7.71-2.61,1.27l-.29.18v20.68s0,3.83,0,3.83l.29.18c.91.56,1.69.94,2.61,1.27,2.14.89,4.14,1.3,6.3,1.3h3.34c2.12,0,4.1-.4,6.21-1.27v7.34c-.83.24-1.79.41-2.87.41h-13.04v6.3h13.01c2.15,0,4.15-.41,6.3-1.3.92-.33,1.7-.71,2.61-1.27l.29-.18v-30.26c0-2.79,1.1-4.71,1.82-5.98l.12-.2-.62-2.99h-4.86ZM283.54,205.34l-.2.12c-1.27.73-3.19,1.82-5.98,1.82h-3.39c-1.09,0-2.04-.17-2.87-.41v-16.6c.83-.24,1.79-.41,2.87-.41h3.39c2.79,0,4.71,1.1,5.98,1.82l.2.12.08-.02c-.05.53-.08,13.57-.08,13.57ZM213.75,206.26v-15.78h9.56v-6.3h-9.56v-1.73c0-2.79,1.1-4.71,1.82-5.98l.12-.2-.62-2.99h-4.86l-.18.29c-.56.91-.94,1.69-1.27,2.61-.89,2.14-1.3,4.14-1.3,6.3v1.71h-6.37l.02,6.3h6.35v19.74l.29.18c.91.56,1.69.94,2.61,1.27,2.14.89,4.14,1.3,6.3,1.3h10.51v-6.3h-10.53c-1.09,0-2.04-.17-2.87-.41Z"/></svg>