<?xml version="1.0" encoding="UTF-8"?><svg id="a" xmlns="http://www.w3.org/2000/svg" width="400" height="400" viewBox="0 0 400 400"><path d="M104.58,226.6h0c.31,0,.57-.25.57-.57v-15.1c0-.31.25-.57.57-.57h13.41c.31,0,.57-.25.57-.57s-.25-.57-.57-.57h-13.41c-.31,0-.57-.25-.57-.57v-33.41c0-.31.25-.57.57-.57h13.51c.31,0,.57-.25.57-.57h0c0-.31-.25-.57-.57-.57h-14.64c-.31,0-.57.25-.57.57v51.91c0,.31.25.57.57.57"/><path d="M134.34,173.07c-10.84,0-12.46,16.17-12.46,25.81,0,23.19,6.88,28.06,12.65,28.06,8.27,0,12.46-9.44,12.46-28.06,0-22.46-7.93-25.81-12.65-25.81M134.54,225.8c-7.43,0-11.52-9.56-11.52-26.92,0-15.91,4.02-24.68,11.33-24.68,4.3,0,11.52,3.21,11.52,24.68,0,17.86-3.81,26.92-11.33,26.92"/><path d="M210.11,173.07c-10.84,0-12.46,16.17-12.46,25.81,0,23.19,6.88,28.06,12.65,28.06,8.27,0,12.46-9.44,12.46-28.06,0-22.46-7.93-25.81-12.65-25.81M210.3,225.8c-7.43,0-11.52-9.56-11.52-26.92,0-15.91,4.02-24.68,11.32-24.68,4.3,0,11.52,3.21,11.52,24.68,0,17.86-3.81,26.92-11.33,26.92"/><path d="M162.4,173.79h0c-.3-.09-.61.09-.7.39l-5.88,20.43c-.16.55-.93.55-1.09,0l-5.94-20.44c-.09-.3-.4-.47-.7-.39-.3.09-.47.4-.39.7l6.95,23.89c.03.1.03.21,0,.32l-7.83,27.22c-.09.3.09.62.39.7h0c.3.09.61-.09.7-.39l6.84-23.76c.16-.55.93-.55,1.09,0l6.9,23.75c.09.3.4.47.7.39h0c.3-.09.47-.4.39-.7l-7.91-27.2c-.03-.1-.03-.21,0-.31l6.87-23.89c.09-.3-.09-.61-.39-.7"/><path d="M200.08,174.17h0c0-.31-.25-.57-.57-.57h-19.04c-.31,0-.57.25-.57.57s.25.57.57.57h8.24c.31,0,.57.25.57.57v50.6c0,.31.25.57.57.57s.57-.25.57-.57v-50.6c0-.31.25-.57.57-.57h8.54c.31,0,.57-.25.57-.57"/><path d="M295.04,197.1c0-7.02-1.9-12.67-5.65-16.8-3.02-3.33-7.14-5.61-12.26-6.78-.35-.08-.69.19-.69.55v51.92c0,.31.25.57.57.57s.57-.25.57-.57v-6.74c0-.23.14-.43.35-.52.93-.38,3.25-1.42,5.89-3.17.27-.18.64-.09.8.19l6.15,10.58c.16.27.5.36.77.21.27-.16.36-.5.21-.77l-6.26-10.77c-.14-.25-.08-.56.15-.73,4.59-3.51,9.42-9.11,9.42-17.17M277.57,175.53c0-.38.36-.65.72-.55,7.43,2.1,15.61,7.68,15.61,22.11,0,12.1-11.62,18.42-15.54,20.21-.38.17-.8-.1-.8-.52v-41.26Z"/><path d="M256.88,226.59h14.6c.31,0,.57-.25.57-.57s-.25-.57-.57-.57h-13.47c-.31,0-.57-.25-.57-.57v-14.34c0-.31.26-.57.58-.57h13.53c.31,0,.57-.25.57-.57s-.25-.57-.57-.57h-13.53c-.31,0-.57-.25-.57-.57l.02-32.98c0-.31.25-.57.57-.57h13.52c.31,0,.57-.25.57-.57s-.25-.57-.57-.57h-14.65c-.31,0-.57.25-.57.57l-.03,51.86c0,.31.25.57.57.57"/><path d="M245.86,218.33l-6.57-42.06c-.05-.27-.28-.47-.56-.47h-.05c-.28,0-.51.2-.56.47l-6.7,42.12c-.11.64-1.04.62-1.12-.02l-5.37-44.24c-.04-.31-.32-.53-.63-.49-.31.04-.53.32-.49.63l6.34,51.83c.08.65,1.01.66,1.12.02l6.86-43.11c.11-.63,1.01-.63,1.12,0l6.74,43.11c.11.64,1.04.63,1.12-.02l6.38-51.83c.04-.31-.18-.59-.49-.63-.31-.04-.59.18-.63.49l-5.4,44.19c-.08.65-1.01.66-1.12.02"/></svg>