<?xml version="1.0" encoding="UTF-8"?><svg id="a" xmlns="http://www.w3.org/2000/svg" width="400" height="400" viewBox="0 0 400 400"><defs><style>.b{fill:#231f20;}</style></defs><path class="b" d="M122.12,217.1c-5.49,0-10.4-2.01-14.62-5.96-.17-.16-.18-.42-.02-.58.16-.17.42-.17.58-.02,4.06,3.81,8.79,5.74,14.06,5.74,7.83,0,13.09-3.86,13.09-9.62s-3.22-8.97-9.07-9.36l-5.4-.38c-4.23-.33-4.69-2.56-4.69-3.5,0-1.98,1.04-4.34,6.01-4.34,3.09,0,5.7.87,8.67,2.88l3.54-4.15c-3.49-2.82-7.27-4.08-12.21-4.08-7.24,0-11.74,3.69-11.74,9.62,0,4.99,3.45,8.38,9.01,8.85.23.02.4.22.38.44-.02.23-.22.4-.45.38-6.02-.5-9.76-4.21-9.76-9.67,0-6.44,4.81-10.44,12.56-10.44,5.23,0,9.38,1.44,13.06,4.53.08.07.14.17.15.28,0,.11-.03.22-.1.3l-4.05,4.76c-.14.16-.38.19-.55.07-2.95-2.07-5.5-2.95-8.51-2.95-3.49,0-5.18,1.15-5.18,3.51,0,1.53,1.4,2.48,3.93,2.68l5.4.38c6.34.42,9.83,4.04,9.83,10.18s-5.59,10.44-13.91,10.44"/><path class="b" d="M169.2,216.71c-.14,0-.27-.07-.35-.19l-12.79-19.87c-.1-.16-.08-.36.04-.5l10.65-12.05h-6.73l-12.41,15.15c-.08.1-.2.15-.32.15h-.13c-.23,0-.41-.18-.41-.41v-28.07h-5.73v45.36c0,.23-.18.41-.41.41s-.41-.18-.41-.41v-45.78c0-.23.18-.41.41-.41h6.56c.23,0,.41.18.41.41v27.49l11.94-14.57c.08-.1.2-.15.32-.15h7.84c.16,0,.31.09.38.24.07.15.04.32-.07.44l-11.04,12.5,12.62,19.6c.12.19.07.45-.12.57-.07.05-.15.07-.22.07"/><path class="b" d="M177.15,229.89h-2.19c-.23,0-.41-.18-.41-.41v-6.17c0-.23.18-.41.41-.41h1.93c1.68,0,3-.95,3.53-2.55l1.75-5.33-11.65-31.18c-.08-.21.03-.45.24-.53.21-.08.45.03.53.24l11.7,31.31c.03.09.04.18,0,.27l-1.8,5.46c-.64,1.92-2.29,3.11-4.31,3.11h-1.52v5.35h1.77c4.5,0,7.3-1.96,8.81-6.16l14.02-39.35c.08-.21.31-.33.53-.25.21.08.33.31.25.53l-14.02,39.35c-1.64,4.57-4.69,6.7-9.58,6.7"/><path class="b" d="M219.13,217.1c-.23,0-.41-.18-.41-.41s.18-.41.41-.41c4.38,0,7-2.22,8.42-4.08,1.7-2.19,2.23-4.16,2.23-12.22s-.53-9.97-2.23-12.16c-1.42-1.87-4.04-4.08-8.42-4.08-2.89,0-5.4,1.16-8.14,3.75-.12.11-.29.14-.45.08-.15-.06-.25-.21-.25-.38v-16.24h-5.73v44.95h6.15c.23,0,.41.18.41.41s-.18.41-.41.41h-6.56c-.23,0-.41-.18-.41-.41v-45.78c0-.23.18-.41.41-.41h6.56c.23,0,.41.18.41.41v15.72c2.62-2.27,5.18-3.34,8.01-3.34,4.72,0,7.54,2.4,9.07,4.4,1.95,2.51,2.4,4.87,2.4,12.66s-.45,10.22-2.4,12.73c-1.53,2.01-4.35,4.4-9.07,4.4"/><path class="b" d="M248.53,217.1c-.23,0-.41-.18-.41-.41s.18-.41.41-.41c3.94,0,7.17-1.36,9.59-4.04,2.32-2.56,3.43-5.05,3.43-12.26s-1.11-9.63-3.43-12.2c-2.42-2.68-5.65-4.04-9.6-4.04s-7.17,1.36-9.6,4.04c-2.32,2.56-3.43,5.04-3.43,12.2,0,.23-.18.41-.41.41s-.41-.18-.41-.41c0-7.43,1.17-10.03,3.64-12.75,2.58-2.86,6.02-4.31,10.21-4.31s7.62,1.45,10.21,4.32c2.47,2.72,3.64,5.32,3.64,12.75s-1.17,10.09-3.64,12.82c-2.58,2.86-6.02,4.31-10.21,4.31"/><path class="b" d="M293.17,216.71c-.13,0-.26-.06-.34-.18l-11.12-16.65c-.09-.14-.09-.32,0-.46l10.24-15.3h-6.84l-6.37,10.35c-.15.24-.55.24-.7,0l-6.37-10.35h-6.84l10.24,15.3c.09.14.09.32,0,.46l-11.12,16.65c-.13.19-.38.24-.57.11-.19-.13-.24-.38-.11-.57l10.97-16.42-10.52-15.72c-.09-.13-.09-.29-.02-.42.07-.14.21-.22.36-.22h7.84c.14,0,.28.07.35.2l6.14,9.97,6.14-9.97c.08-.12.21-.2.35-.2h7.84c.15,0,.29.08.36.22.07.13.06.3-.02.42l-10.52,15.72,10.97,16.42c.13.19.08.45-.11.57-.07.05-.15.07-.23.07"/></svg>